<?xml version="1.0" encoding="utf-8" standalone="no"?>
<!DOCTYPE svg PUBLIC "-//W3C//DTD SVG 1.1//EN"
  "http://www.w3.org/Graphics/SVG/1.1/DTD/svg11.dtd">
<svg xmlns:xlink="http://www.w3.org/1999/xlink" width="1296pt" height="288pt" viewBox="0 0 1296 288" xmlns="http://www.w3.org/2000/svg" version="1.1">
 <metadata>
  <rdf:RDF xmlns:dc="http://purl.org/dc/elements/1.1/" xmlns:cc="http://creativecommons.org/ns#" xmlns:rdf="http://www.w3.org/1999/02/22-rdf-syntax-ns#">
   <cc:Work>
    <dc:type rdf:resource="http://purl.org/dc/dcmitype/StillImage"/>
    <dc:date>2023-09-24T12:25:49.030008</dc:date>
    <dc:format>image/svg+xml</dc:format>
    <dc:creator>
     <cc:Agent>
      <dc:title>Matplotlib v3.7.2, https://matplotlib.org/</dc:title>
     </cc:Agent>
    </dc:creator>
   </cc:Work>
  </rdf:RDF>
 </metadata>
 <defs>
  <style type="text/css">*{stroke-linejoin: round; stroke-linecap: butt}</style>
 </defs>
 <g id="figure_1">
  <g id="patch_1">
   <path d="M 0 288 
L 1296 288 
L 1296 0 
L 0 0 
z
" style="fill: #ffffff"/>
  </g>
  <g id="axes_1">
   <g id="patch_2">
    <path d="M 162 256.32 
L 618.545455 256.32 
L 618.545455 34.56 
L 162 34.56 
z
" style="fill: #ffffff"/>
   </g>
   <g id="patch_3">
    <path d="M 182.752066 256.32 
L 196.586777 256.32 
L 196.586777 239.079184 
L 182.752066 239.079184 
z
" clip-path="url(#p5d7d3ce0ec)" style="fill: #1f77b4"/>
   </g>
   <g id="patch_4">
    <path d="M 196.586777 256.32 
L 210.421488 256.32 
L 210.421488 256.32 
L 196.586777 256.32 
z
" clip-path="url(#p5d7d3ce0ec)" style="fill: #1f77b4"/>
   </g>
   <g id="patch_5">
    <path d="M 210.421488 256.32 
L 224.256198 256.32 
L 224.256198 256.32 
L 210.421488 256.32 
z
" clip-path="url(#p5d7d3ce0ec)" style="fill: #1f77b4"/>
   </g>
   <g id="patch_6">
    <path d="M 224.256198 256.32 
L 238.090909 256.32 
L 238.090909 256.32 
L 224.256198 256.32 
z
" clip-path="url(#p5d7d3ce0ec)" style="fill: #1f77b4"/>
   </g>
   <g id="patch_7">
    <path d="M 238.090909 256.32 
L 251.92562 256.32 
L 251.92562 256.32 
L 238.090909 256.32 
z
" clip-path="url(#p5d7d3ce0ec)" style="fill: #1f77b4"/>
   </g>
   <g id="patch_8">
    <path d="M 251.92562 256.32 
L 265.760331 256.32 
L 265.760331 256.32 
L 251.92562 256.32 
z
" clip-path="url(#p5d7d3ce0ec)" style="fill: #1f77b4"/>
   </g>
   <g id="patch_9">
    <path d="M 265.760331 256.32 
L 279.595041 256.32 
L 279.595041 191.666939 
L 265.760331 191.666939 
z
" clip-path="url(#p5d7d3ce0ec)" style="fill: #1f77b4"/>
   </g>
   <g id="patch_10">
    <path d="M 279.595041 256.32 
L 293.429752 256.32 
L 293.429752 256.32 
L 279.595041 256.32 
z
" clip-path="url(#p5d7d3ce0ec)" style="fill: #1f77b4"/>
   </g>
   <g id="patch_11">
    <path d="M 293.429752 256.32 
L 307.264463 256.32 
L 307.264463 256.32 
L 293.429752 256.32 
z
" clip-path="url(#p5d7d3ce0ec)" style="fill: #1f77b4"/>
   </g>
   <g id="patch_12">
    <path d="M 307.264463 256.32 
L 321.099174 256.32 
L 321.099174 256.32 
L 307.264463 256.32 
z
" clip-path="url(#p5d7d3ce0ec)" style="fill: #1f77b4"/>
   </g>
   <g id="patch_13">
    <path d="M 321.099174 256.32 
L 334.933884 256.32 
L 334.933884 256.32 
L 321.099174 256.32 
z
" clip-path="url(#p5d7d3ce0ec)" style="fill: #1f77b4"/>
   </g>
   <g id="patch_14">
    <path d="M 334.933884 256.32 
L 348.768595 256.32 
L 348.768595 256.32 
L 334.933884 256.32 
z
" clip-path="url(#p5d7d3ce0ec)" style="fill: #1f77b4"/>
   </g>
   <g id="patch_15">
    <path d="M 348.768595 256.32 
L 362.603306 256.32 
L 362.603306 135.634286 
L 348.768595 135.634286 
z
" clip-path="url(#p5d7d3ce0ec)" style="fill: #1f77b4"/>
   </g>
   <g id="patch_16">
    <path d="M 362.603306 256.32 
L 376.438017 256.32 
L 376.438017 256.32 
L 362.603306 256.32 
z
" clip-path="url(#p5d7d3ce0ec)" style="fill: #1f77b4"/>
   </g>
   <g id="patch_17">
    <path d="M 376.438017 256.32 
L 390.272727 256.32 
L 390.272727 256.32 
L 376.438017 256.32 
z
" clip-path="url(#p5d7d3ce0ec)" style="fill: #1f77b4"/>
   </g>
   <g id="patch_18">
    <path d="M 390.272727 256.32 
L 404.107438 256.32 
L 404.107438 256.32 
L 390.272727 256.32 
z
" clip-path="url(#p5d7d3ce0ec)" style="fill: #1f77b4"/>
   </g>
   <g id="patch_19">
    <path d="M 404.107438 256.32 
L 417.942149 256.32 
L 417.942149 256.32 
L 404.107438 256.32 
z
" clip-path="url(#p5d7d3ce0ec)" style="fill: #1f77b4"/>
   </g>
   <g id="patch_20">
    <path d="M 417.942149 256.32 
L 431.77686 256.32 
L 431.77686 256.32 
L 417.942149 256.32 
z
" clip-path="url(#p5d7d3ce0ec)" style="fill: #1f77b4"/>
   </g>
   <g id="patch_21">
    <path d="M 431.77686 256.32 
L 445.61157 256.32 
L 445.61157 45.12 
L 431.77686 45.12 
z
" clip-path="url(#p5d7d3ce0ec)" style="fill: #1f77b4"/>
   </g>
   <g id="patch_22">
    <path d="M 445.61157 256.32 
L 459.446281 256.32 
L 459.446281 256.32 
L 445.61157 256.32 
z
" clip-path="url(#p5d7d3ce0ec)" style="fill: #1f77b4"/>
   </g>
   <g id="patch_23">
    <path d="M 459.446281 256.32 
L 473.280992 256.32 
L 473.280992 256.32 
L 459.446281 256.32 
z
" clip-path="url(#p5d7d3ce0ec)" style="fill: #1f77b4"/>
   </g>
   <g id="patch_24">
    <path d="M 473.280992 256.32 
L 487.115702 256.32 
L 487.115702 256.32 
L 473.280992 256.32 
z
" clip-path="url(#p5d7d3ce0ec)" style="fill: #1f77b4"/>
   </g>
   <g id="patch_25">
    <path d="M 487.115702 256.32 
L 500.950413 256.32 
L 500.950413 256.32 
L 487.115702 256.32 
z
" clip-path="url(#p5d7d3ce0ec)" style="fill: #1f77b4"/>
   </g>
   <g id="patch_26">
    <path d="M 500.950413 256.32 
L 514.785124 256.32 
L 514.785124 256.32 
L 500.950413 256.32 
z
" clip-path="url(#p5d7d3ce0ec)" style="fill: #1f77b4"/>
   </g>
   <g id="patch_27">
    <path d="M 514.785124 256.32 
L 528.619835 256.32 
L 528.619835 66.67102 
L 514.785124 66.67102 
z
" clip-path="url(#p5d7d3ce0ec)" style="fill: #1f77b4"/>
   </g>
   <g id="patch_28">
    <path d="M 528.619835 256.32 
L 542.454545 256.32 
L 542.454545 256.32 
L 528.619835 256.32 
z
" clip-path="url(#p5d7d3ce0ec)" style="fill: #1f77b4"/>
   </g>
   <g id="patch_29">
    <path d="M 542.454545 256.32 
L 556.289256 256.32 
L 556.289256 256.32 
L 542.454545 256.32 
z
" clip-path="url(#p5d7d3ce0ec)" style="fill: #1f77b4"/>
   </g>
   <g id="patch_30">
    <path d="M 556.289256 256.32 
L 570.123967 256.32 
L 570.123967 256.32 
L 556.289256 256.32 
z
" clip-path="url(#p5d7d3ce0ec)" style="fill: #1f77b4"/>
   </g>
   <g id="patch_31">
    <path d="M 570.123967 256.32 
L 583.958678 256.32 
L 583.958678 256.32 
L 570.123967 256.32 
z
" clip-path="url(#p5d7d3ce0ec)" style="fill: #1f77b4"/>
   </g>
   <g id="patch_32">
    <path d="M 583.958678 256.32 
L 597.793388 256.32 
L 597.793388 96.842449 
L 583.958678 96.842449 
z
" clip-path="url(#p5d7d3ce0ec)" style="fill: #1f77b4"/>
   </g>
   <g id="matplotlib.axis_1">
    <g id="xtick_1">
     <g id="line2d_1">
      <defs>
       <path id="mc0b5001a52" d="M 0 0 
L 0 3.5 
" style="stroke: #000000; stroke-width: 0.8"/>
      </defs>
      <g>
       <use xlink:href="#mc0b5001a52" x="182.752066" y="256.32" style="stroke: #000000; stroke-width: 0.8"/>
      </g>
     </g>
     <g id="text_1">
      <!-- 0.0 -->
      <g transform="translate(174.800504 270.918437) scale(0.1 -0.1)">
       <defs>
        <path id="DejaVuSans-30" d="M 2034 4250 
Q 1547 4250 1301 3770 
Q 1056 3291 1056 2328 
Q 1056 1369 1301 889 
Q 1547 409 2034 409 
Q 2525 409 2770 889 
Q 3016 1369 3016 2328 
Q 3016 3291 2770 3770 
Q 2525 4250 2034 4250 
z
M 2034 4750 
Q 2819 4750 3233 4129 
Q 3647 3509 3647 2328 
Q 3647 1150 3233 529 
Q 2819 -91 2034 -91 
Q 1250 -91 836 529 
Q 422 1150 422 2328 
Q 422 3509 836 4129 
Q 1250 4750 2034 4750 
z
" transform="scale(0.015625)"/>
        <path id="DejaVuSans-2e" d="M 684 794 
L 1344 794 
L 1344 0 
L 684 0 
L 684 794 
z
" transform="scale(0.015625)"/>
       </defs>
       <use xlink:href="#DejaVuSans-30"/>
       <use xlink:href="#DejaVuSans-2e" x="63.623047"/>
       <use xlink:href="#DejaVuSans-30" x="95.410156"/>
      </g>
     </g>
    </g>
    <g id="xtick_2">
     <g id="line2d_2">
      <g>
       <use xlink:href="#mc0b5001a52" x="265.760331" y="256.32" style="stroke: #000000; stroke-width: 0.8"/>
      </g>
     </g>
     <g id="text_2">
      <!-- 0.2 -->
      <g transform="translate(257.808768 270.918437) scale(0.1 -0.1)">
       <defs>
        <path id="DejaVuSans-32" d="M 1228 531 
L 3431 531 
L 3431 0 
L 469 0 
L 469 531 
Q 828 903 1448 1529 
Q 2069 2156 2228 2338 
Q 2531 2678 2651 2914 
Q 2772 3150 2772 3378 
Q 2772 3750 2511 3984 
Q 2250 4219 1831 4219 
Q 1534 4219 1204 4116 
Q 875 4013 500 3803 
L 500 4441 
Q 881 4594 1212 4672 
Q 1544 4750 1819 4750 
Q 2544 4750 2975 4387 
Q 3406 4025 3406 3419 
Q 3406 3131 3298 2873 
Q 3191 2616 2906 2266 
Q 2828 2175 2409 1742 
Q 1991 1309 1228 531 
z
" transform="scale(0.015625)"/>
       </defs>
       <use xlink:href="#DejaVuSans-30"/>
       <use xlink:href="#DejaVuSans-2e" x="63.623047"/>
       <use xlink:href="#DejaVuSans-32" x="95.410156"/>
      </g>
     </g>
    </g>
    <g id="xtick_3">
     <g id="line2d_3">
      <g>
       <use xlink:href="#mc0b5001a52" x="348.768595" y="256.32" style="stroke: #000000; stroke-width: 0.8"/>
      </g>
     </g>
     <g id="text_3">
      <!-- 0.4 -->
      <g transform="translate(340.817033 270.918437) scale(0.1 -0.1)">
       <defs>
        <path id="DejaVuSans-34" d="M 2419 4116 
L 825 1625 
L 2419 1625 
L 2419 4116 
z
M 2253 4666 
L 3047 4666 
L 3047 1625 
L 3713 1625 
L 3713 1100 
L 3047 1100 
L 3047 0 
L 2419 0 
L 2419 1100 
L 313 1100 
L 313 1709 
L 2253 4666 
z
" transform="scale(0.015625)"/>
       </defs>
       <use xlink:href="#DejaVuSans-30"/>
       <use xlink:href="#DejaVuSans-2e" x="63.623047"/>
       <use xlink:href="#DejaVuSans-34" x="95.410156"/>
      </g>
     </g>
    </g>
    <g id="xtick_4">
     <g id="line2d_4">
      <g>
       <use xlink:href="#mc0b5001a52" x="431.77686" y="256.32" style="stroke: #000000; stroke-width: 0.8"/>
      </g>
     </g>
     <g id="text_4">
      <!-- 0.6 -->
      <g transform="translate(423.825297 270.918437) scale(0.1 -0.1)">
       <defs>
        <path id="DejaVuSans-36" d="M 2113 2584 
Q 1688 2584 1439 2293 
Q 1191 2003 1191 1497 
Q 1191 994 1439 701 
Q 1688 409 2113 409 
Q 2538 409 2786 701 
Q 3034 994 3034 1497 
Q 3034 2003 2786 2293 
Q 2538 2584 2113 2584 
z
M 3366 4563 
L 3366 3988 
Q 3128 4100 2886 4159 
Q 2644 4219 2406 4219 
Q 1781 4219 1451 3797 
Q 1122 3375 1075 2522 
Q 1259 2794 1537 2939 
Q 1816 3084 2150 3084 
Q 2853 3084 3261 2657 
Q 3669 2231 3669 1497 
Q 3669 778 3244 343 
Q 2819 -91 2113 -91 
Q 1303 -91 875 529 
Q 447 1150 447 2328 
Q 447 3434 972 4092 
Q 1497 4750 2381 4750 
Q 2619 4750 2861 4703 
Q 3103 4656 3366 4563 
z
" transform="scale(0.015625)"/>
       </defs>
       <use xlink:href="#DejaVuSans-30"/>
       <use xlink:href="#DejaVuSans-2e" x="63.623047"/>
       <use xlink:href="#DejaVuSans-36" x="95.410156"/>
      </g>
     </g>
    </g>
    <g id="xtick_5">
     <g id="line2d_5">
      <g>
       <use xlink:href="#mc0b5001a52" x="514.785124" y="256.32" style="stroke: #000000; stroke-width: 0.8"/>
      </g>
     </g>
     <g id="text_5">
      <!-- 0.8 -->
      <g transform="translate(506.833561 270.918437) scale(0.1 -0.1)">
       <defs>
        <path id="DejaVuSans-38" d="M 2034 2216 
Q 1584 2216 1326 1975 
Q 1069 1734 1069 1313 
Q 1069 891 1326 650 
Q 1584 409 2034 409 
Q 2484 409 2743 651 
Q 3003 894 3003 1313 
Q 3003 1734 2745 1975 
Q 2488 2216 2034 2216 
z
M 1403 2484 
Q 997 2584 770 2862 
Q 544 3141 544 3541 
Q 544 4100 942 4425 
Q 1341 4750 2034 4750 
Q 2731 4750 3128 4425 
Q 3525 4100 3525 3541 
Q 3525 3141 3298 2862 
Q 3072 2584 2669 2484 
Q 3125 2378 3379 2068 
Q 3634 1759 3634 1313 
Q 3634 634 3220 271 
Q 2806 -91 2034 -91 
Q 1263 -91 848 271 
Q 434 634 434 1313 
Q 434 1759 690 2068 
Q 947 2378 1403 2484 
z
M 1172 3481 
Q 1172 3119 1398 2916 
Q 1625 2713 2034 2713 
Q 2441 2713 2670 2916 
Q 2900 3119 2900 3481 
Q 2900 3844 2670 4047 
Q 2441 4250 2034 4250 
Q 1625 4250 1398 4047 
Q 1172 3844 1172 3481 
z
" transform="scale(0.015625)"/>
       </defs>
       <use xlink:href="#DejaVuSans-30"/>
       <use xlink:href="#DejaVuSans-2e" x="63.623047"/>
       <use xlink:href="#DejaVuSans-38" x="95.410156"/>
      </g>
     </g>
    </g>
    <g id="xtick_6">
     <g id="line2d_6">
      <g>
       <use xlink:href="#mc0b5001a52" x="597.793388" y="256.32" style="stroke: #000000; stroke-width: 0.8"/>
      </g>
     </g>
     <g id="text_6">
      <!-- 1.0 -->
      <g transform="translate(589.841826 270.918437) scale(0.1 -0.1)">
       <defs>
        <path id="DejaVuSans-31" d="M 794 531 
L 1825 531 
L 1825 4091 
L 703 3866 
L 703 4441 
L 1819 4666 
L 2450 4666 
L 2450 531 
L 3481 531 
L 3481 0 
L 794 0 
L 794 531 
z
" transform="scale(0.015625)"/>
       </defs>
       <use xlink:href="#DejaVuSans-31"/>
       <use xlink:href="#DejaVuSans-2e" x="63.623047"/>
       <use xlink:href="#DejaVuSans-30" x="95.410156"/>
      </g>
     </g>
    </g>
    <g id="text_7">
     <!-- predicted probability -->
     <g transform="translate(312.29968 288.395781) scale(0.15 -0.15)">
      <defs>
       <path id="DejaVuSans-70" d="M 1159 525 
L 1159 -1331 
L 581 -1331 
L 581 3500 
L 1159 3500 
L 1159 2969 
Q 1341 3281 1617 3432 
Q 1894 3584 2278 3584 
Q 2916 3584 3314 3078 
Q 3713 2572 3713 1747 
Q 3713 922 3314 415 
Q 2916 -91 2278 -91 
Q 1894 -91 1617 61 
Q 1341 213 1159 525 
z
M 3116 1747 
Q 3116 2381 2855 2742 
Q 2594 3103 2138 3103 
Q 1681 3103 1420 2742 
Q 1159 2381 1159 1747 
Q 1159 1113 1420 752 
Q 1681 391 2138 391 
Q 2594 391 2855 752 
Q 3116 1113 3116 1747 
z
" transform="scale(0.015625)"/>
       <path id="DejaVuSans-72" d="M 2631 2963 
Q 2534 3019 2420 3045 
Q 2306 3072 2169 3072 
Q 1681 3072 1420 2755 
Q 1159 2438 1159 1844 
L 1159 0 
L 581 0 
L 581 3500 
L 1159 3500 
L 1159 2956 
Q 1341 3275 1631 3429 
Q 1922 3584 2338 3584 
Q 2397 3584 2469 3576 
Q 2541 3569 2628 3553 
L 2631 2963 
z
" transform="scale(0.015625)"/>
       <path id="DejaVuSans-65" d="M 3597 1894 
L 3597 1613 
L 953 1613 
Q 991 1019 1311 708 
Q 1631 397 2203 397 
Q 2534 397 2845 478 
Q 3156 559 3463 722 
L 3463 178 
Q 3153 47 2828 -22 
Q 2503 -91 2169 -91 
Q 1331 -91 842 396 
Q 353 884 353 1716 
Q 353 2575 817 3079 
Q 1281 3584 2069 3584 
Q 2775 3584 3186 3129 
Q 3597 2675 3597 1894 
z
M 3022 2063 
Q 3016 2534 2758 2815 
Q 2500 3097 2075 3097 
Q 1594 3097 1305 2825 
Q 1016 2553 972 2059 
L 3022 2063 
z
" transform="scale(0.015625)"/>
       <path id="DejaVuSans-64" d="M 2906 2969 
L 2906 4863 
L 3481 4863 
L 3481 0 
L 2906 0 
L 2906 525 
Q 2725 213 2448 61 
Q 2172 -91 1784 -91 
Q 1150 -91 751 415 
Q 353 922 353 1747 
Q 353 2572 751 3078 
Q 1150 3584 1784 3584 
Q 2172 3584 2448 3432 
Q 2725 3281 2906 2969 
z
M 947 1747 
Q 947 1113 1208 752 
Q 1469 391 1925 391 
Q 2381 391 2643 752 
Q 2906 1113 2906 1747 
Q 2906 2381 2643 2742 
Q 2381 3103 1925 3103 
Q 1469 3103 1208 2742 
Q 947 2381 947 1747 
z
" transform="scale(0.015625)"/>
       <path id="DejaVuSans-69" d="M 603 3500 
L 1178 3500 
L 1178 0 
L 603 0 
L 603 3500 
z
M 603 4863 
L 1178 4863 
L 1178 4134 
L 603 4134 
L 603 4863 
z
" transform="scale(0.015625)"/>
       <path id="DejaVuSans-63" d="M 3122 3366 
L 3122 2828 
Q 2878 2963 2633 3030 
Q 2388 3097 2138 3097 
Q 1578 3097 1268 2742 
Q 959 2388 959 1747 
Q 959 1106 1268 751 
Q 1578 397 2138 397 
Q 2388 397 2633 464 
Q 2878 531 3122 666 
L 3122 134 
Q 2881 22 2623 -34 
Q 2366 -91 2075 -91 
Q 1284 -91 818 406 
Q 353 903 353 1747 
Q 353 2603 823 3093 
Q 1294 3584 2113 3584 
Q 2378 3584 2631 3529 
Q 2884 3475 3122 3366 
z
" transform="scale(0.015625)"/>
       <path id="DejaVuSans-74" d="M 1172 4494 
L 1172 3500 
L 2356 3500 
L 2356 3053 
L 1172 3053 
L 1172 1153 
Q 1172 725 1289 603 
Q 1406 481 1766 481 
L 2356 481 
L 2356 0 
L 1766 0 
Q 1100 0 847 248 
Q 594 497 594 1153 
L 594 3053 
L 172 3053 
L 172 3500 
L 594 3500 
L 594 4494 
L 1172 4494 
z
" transform="scale(0.015625)"/>
       <path id="DejaVuSans-20" transform="scale(0.015625)"/>
       <path id="DejaVuSans-6f" d="M 1959 3097 
Q 1497 3097 1228 2736 
Q 959 2375 959 1747 
Q 959 1119 1226 758 
Q 1494 397 1959 397 
Q 2419 397 2687 759 
Q 2956 1122 2956 1747 
Q 2956 2369 2687 2733 
Q 2419 3097 1959 3097 
z
M 1959 3584 
Q 2709 3584 3137 3096 
Q 3566 2609 3566 1747 
Q 3566 888 3137 398 
Q 2709 -91 1959 -91 
Q 1206 -91 779 398 
Q 353 888 353 1747 
Q 353 2609 779 3096 
Q 1206 3584 1959 3584 
z
" transform="scale(0.015625)"/>
       <path id="DejaVuSans-62" d="M 3116 1747 
Q 3116 2381 2855 2742 
Q 2594 3103 2138 3103 
Q 1681 3103 1420 2742 
Q 1159 2381 1159 1747 
Q 1159 1113 1420 752 
Q 1681 391 2138 391 
Q 2594 391 2855 752 
Q 3116 1113 3116 1747 
z
M 1159 2969 
Q 1341 3281 1617 3432 
Q 1894 3584 2278 3584 
Q 2916 3584 3314 3078 
Q 3713 2572 3713 1747 
Q 3713 922 3314 415 
Q 2916 -91 2278 -91 
Q 1894 -91 1617 61 
Q 1341 213 1159 525 
L 1159 0 
L 581 0 
L 581 4863 
L 1159 4863 
L 1159 2969 
z
" transform="scale(0.015625)"/>
       <path id="DejaVuSans-61" d="M 2194 1759 
Q 1497 1759 1228 1600 
Q 959 1441 959 1056 
Q 959 750 1161 570 
Q 1363 391 1709 391 
Q 2188 391 2477 730 
Q 2766 1069 2766 1631 
L 2766 1759 
L 2194 1759 
z
M 3341 1997 
L 3341 0 
L 2766 0 
L 2766 531 
Q 2569 213 2275 61 
Q 1981 -91 1556 -91 
Q 1019 -91 701 211 
Q 384 513 384 1019 
Q 384 1609 779 1909 
Q 1175 2209 1959 2209 
L 2766 2209 
L 2766 2266 
Q 2766 2663 2505 2880 
Q 2244 3097 1772 3097 
Q 1472 3097 1187 3025 
Q 903 2953 641 2809 
L 641 3341 
Q 956 3463 1253 3523 
Q 1550 3584 1831 3584 
Q 2591 3584 2966 3190 
Q 3341 2797 3341 1997 
z
" transform="scale(0.015625)"/>
       <path id="DejaVuSans-6c" d="M 603 4863 
L 1178 4863 
L 1178 0 
L 603 0 
L 603 4863 
z
" transform="scale(0.015625)"/>
       <path id="DejaVuSans-79" d="M 2059 -325 
Q 1816 -950 1584 -1140 
Q 1353 -1331 966 -1331 
L 506 -1331 
L 506 -850 
L 844 -850 
Q 1081 -850 1212 -737 
Q 1344 -625 1503 -206 
L 1606 56 
L 191 3500 
L 800 3500 
L 1894 763 
L 2988 3500 
L 3597 3500 
L 2059 -325 
z
" transform="scale(0.015625)"/>
      </defs>
      <use xlink:href="#DejaVuSans-70"/>
      <use xlink:href="#DejaVuSans-72" x="63.476562"/>
      <use xlink:href="#DejaVuSans-65" x="102.339844"/>
      <use xlink:href="#DejaVuSans-64" x="163.863281"/>
      <use xlink:href="#DejaVuSans-69" x="227.339844"/>
      <use xlink:href="#DejaVuSans-63" x="255.123047"/>
      <use xlink:href="#DejaVuSans-74" x="310.103516"/>
      <use xlink:href="#DejaVuSans-65" x="349.3125"/>
      <use xlink:href="#DejaVuSans-64" x="410.835938"/>
      <use xlink:href="#DejaVuSans-20" x="474.3125"/>
      <use xlink:href="#DejaVuSans-70" x="506.099609"/>
      <use xlink:href="#DejaVuSans-72" x="569.576172"/>
      <use xlink:href="#DejaVuSans-6f" x="608.439453"/>
      <use xlink:href="#DejaVuSans-62" x="669.621094"/>
      <use xlink:href="#DejaVuSans-61" x="733.097656"/>
      <use xlink:href="#DejaVuSans-62" x="794.376953"/>
      <use xlink:href="#DejaVuSans-69" x="857.853516"/>
      <use xlink:href="#DejaVuSans-6c" x="885.636719"/>
      <use xlink:href="#DejaVuSans-69" x="913.419922"/>
      <use xlink:href="#DejaVuSans-74" x="941.203125"/>
      <use xlink:href="#DejaVuSans-79" x="980.412109"/>
     </g>
    </g>
   </g>
   <g id="matplotlib.axis_2">
    <g id="ytick_1">
     <g id="line2d_7">
      <defs>
       <path id="m9b02de8f1d" d="M 0 0 
L -3.5 0 
" style="stroke: #000000; stroke-width: 0.8"/>
      </defs>
      <g>
       <use xlink:href="#m9b02de8f1d" x="162" y="256.32" style="stroke: #000000; stroke-width: 0.8"/>
      </g>
     </g>
     <g id="text_8">
      <!-- 0 -->
      <g transform="translate(148.6375 260.119219) scale(0.1 -0.1)">
       <use xlink:href="#DejaVuSans-30"/>
      </g>
     </g>
    </g>
    <g id="ytick_2">
     <g id="line2d_8">
      <g>
       <use xlink:href="#m9b02de8f1d" x="162" y="213.217959" style="stroke: #000000; stroke-width: 0.8"/>
      </g>
     </g>
     <g id="text_9">
      <!-- 10 -->
      <g transform="translate(142.275 217.017178) scale(0.1 -0.1)">
       <use xlink:href="#DejaVuSans-31"/>
       <use xlink:href="#DejaVuSans-30" x="63.623047"/>
      </g>
     </g>
    </g>
    <g id="ytick_3">
     <g id="line2d_9">
      <g>
       <use xlink:href="#m9b02de8f1d" x="162" y="170.115918" style="stroke: #000000; stroke-width: 0.8"/>
      </g>
     </g>
     <g id="text_10">
      <!-- 20 -->
      <g transform="translate(142.275 173.915137) scale(0.1 -0.1)">
       <use xlink:href="#DejaVuSans-32"/>
       <use xlink:href="#DejaVuSans-30" x="63.623047"/>
      </g>
     </g>
    </g>
    <g id="ytick_4">
     <g id="line2d_10">
      <g>
       <use xlink:href="#m9b02de8f1d" x="162" y="127.013878" style="stroke: #000000; stroke-width: 0.8"/>
      </g>
     </g>
     <g id="text_11">
      <!-- 30 -->
      <g transform="translate(142.275 130.813096) scale(0.1 -0.1)">
       <defs>
        <path id="DejaVuSans-33" d="M 2597 2516 
Q 3050 2419 3304 2112 
Q 3559 1806 3559 1356 
Q 3559 666 3084 287 
Q 2609 -91 1734 -91 
Q 1441 -91 1130 -33 
Q 819 25 488 141 
L 488 750 
Q 750 597 1062 519 
Q 1375 441 1716 441 
Q 2309 441 2620 675 
Q 2931 909 2931 1356 
Q 2931 1769 2642 2001 
Q 2353 2234 1838 2234 
L 1294 2234 
L 1294 2753 
L 1863 2753 
Q 2328 2753 2575 2939 
Q 2822 3125 2822 3475 
Q 2822 3834 2567 4026 
Q 2313 4219 1838 4219 
Q 1578 4219 1281 4162 
Q 984 4106 628 3988 
L 628 4550 
Q 988 4650 1302 4700 
Q 1616 4750 1894 4750 
Q 2613 4750 3031 4423 
Q 3450 4097 3450 3541 
Q 3450 3153 3228 2886 
Q 3006 2619 2597 2516 
z
" transform="scale(0.015625)"/>
       </defs>
       <use xlink:href="#DejaVuSans-33"/>
       <use xlink:href="#DejaVuSans-30" x="63.623047"/>
      </g>
     </g>
    </g>
    <g id="ytick_5">
     <g id="line2d_11">
      <g>
       <use xlink:href="#m9b02de8f1d" x="162" y="83.911837" style="stroke: #000000; stroke-width: 0.8"/>
      </g>
     </g>
     <g id="text_12">
      <!-- 40 -->
      <g transform="translate(142.275 87.711055) scale(0.1 -0.1)">
       <use xlink:href="#DejaVuSans-34"/>
       <use xlink:href="#DejaVuSans-30" x="63.623047"/>
      </g>
     </g>
    </g>
    <g id="ytick_6">
     <g id="line2d_12">
      <g>
       <use xlink:href="#m9b02de8f1d" x="162" y="40.809796" style="stroke: #000000; stroke-width: 0.8"/>
      </g>
     </g>
     <g id="text_13">
      <!-- 50 -->
      <g transform="translate(142.275 44.609015) scale(0.1 -0.1)">
       <defs>
        <path id="DejaVuSans-35" d="M 691 4666 
L 3169 4666 
L 3169 4134 
L 1269 4134 
L 1269 2991 
Q 1406 3038 1543 3061 
Q 1681 3084 1819 3084 
Q 2600 3084 3056 2656 
Q 3513 2228 3513 1497 
Q 3513 744 3044 326 
Q 2575 -91 1722 -91 
Q 1428 -91 1123 -41 
Q 819 9 494 109 
L 494 744 
Q 775 591 1075 516 
Q 1375 441 1709 441 
Q 2250 441 2565 725 
Q 2881 1009 2881 1497 
Q 2881 1984 2565 2268 
Q 2250 2553 1709 2553 
Q 1456 2553 1204 2497 
Q 953 2441 691 2322 
L 691 4666 
z
" transform="scale(0.015625)"/>
       </defs>
       <use xlink:href="#DejaVuSans-35"/>
       <use xlink:href="#DejaVuSans-30" x="63.623047"/>
      </g>
     </g>
    </g>
    <g id="text_14">
     <!-- number of cells -->
     <g transform="translate(135.155469 203.520469) rotate(-90) scale(0.15 -0.15)">
      <defs>
       <path id="DejaVuSans-6e" d="M 3513 2113 
L 3513 0 
L 2938 0 
L 2938 2094 
Q 2938 2591 2744 2837 
Q 2550 3084 2163 3084 
Q 1697 3084 1428 2787 
Q 1159 2491 1159 1978 
L 1159 0 
L 581 0 
L 581 3500 
L 1159 3500 
L 1159 2956 
Q 1366 3272 1645 3428 
Q 1925 3584 2291 3584 
Q 2894 3584 3203 3211 
Q 3513 2838 3513 2113 
z
" transform="scale(0.015625)"/>
       <path id="DejaVuSans-75" d="M 544 1381 
L 544 3500 
L 1119 3500 
L 1119 1403 
Q 1119 906 1312 657 
Q 1506 409 1894 409 
Q 2359 409 2629 706 
Q 2900 1003 2900 1516 
L 2900 3500 
L 3475 3500 
L 3475 0 
L 2900 0 
L 2900 538 
Q 2691 219 2414 64 
Q 2138 -91 1772 -91 
Q 1169 -91 856 284 
Q 544 659 544 1381 
z
M 1991 3584 
L 1991 3584 
z
" transform="scale(0.015625)"/>
       <path id="DejaVuSans-6d" d="M 3328 2828 
Q 3544 3216 3844 3400 
Q 4144 3584 4550 3584 
Q 5097 3584 5394 3201 
Q 5691 2819 5691 2113 
L 5691 0 
L 5113 0 
L 5113 2094 
Q 5113 2597 4934 2840 
Q 4756 3084 4391 3084 
Q 3944 3084 3684 2787 
Q 3425 2491 3425 1978 
L 3425 0 
L 2847 0 
L 2847 2094 
Q 2847 2600 2669 2842 
Q 2491 3084 2119 3084 
Q 1678 3084 1418 2786 
Q 1159 2488 1159 1978 
L 1159 0 
L 581 0 
L 581 3500 
L 1159 3500 
L 1159 2956 
Q 1356 3278 1631 3431 
Q 1906 3584 2284 3584 
Q 2666 3584 2933 3390 
Q 3200 3197 3328 2828 
z
" transform="scale(0.015625)"/>
       <path id="DejaVuSans-66" d="M 2375 4863 
L 2375 4384 
L 1825 4384 
Q 1516 4384 1395 4259 
Q 1275 4134 1275 3809 
L 1275 3500 
L 2222 3500 
L 2222 3053 
L 1275 3053 
L 1275 0 
L 697 0 
L 697 3053 
L 147 3053 
L 147 3500 
L 697 3500 
L 697 3744 
Q 697 4328 969 4595 
Q 1241 4863 1831 4863 
L 2375 4863 
z
" transform="scale(0.015625)"/>
       <path id="DejaVuSans-73" d="M 2834 3397 
L 2834 2853 
Q 2591 2978 2328 3040 
Q 2066 3103 1784 3103 
Q 1356 3103 1142 2972 
Q 928 2841 928 2578 
Q 928 2378 1081 2264 
Q 1234 2150 1697 2047 
L 1894 2003 
Q 2506 1872 2764 1633 
Q 3022 1394 3022 966 
Q 3022 478 2636 193 
Q 2250 -91 1575 -91 
Q 1294 -91 989 -36 
Q 684 19 347 128 
L 347 722 
Q 666 556 975 473 
Q 1284 391 1588 391 
Q 1994 391 2212 530 
Q 2431 669 2431 922 
Q 2431 1156 2273 1281 
Q 2116 1406 1581 1522 
L 1381 1569 
Q 847 1681 609 1914 
Q 372 2147 372 2553 
Q 372 3047 722 3315 
Q 1072 3584 1716 3584 
Q 2034 3584 2315 3537 
Q 2597 3491 2834 3397 
z
" transform="scale(0.015625)"/>
      </defs>
      <use xlink:href="#DejaVuSans-6e"/>
      <use xlink:href="#DejaVuSans-75" x="63.378906"/>
      <use xlink:href="#DejaVuSans-6d" x="126.757812"/>
      <use xlink:href="#DejaVuSans-62" x="224.169922"/>
      <use xlink:href="#DejaVuSans-65" x="287.646484"/>
      <use xlink:href="#DejaVuSans-72" x="349.169922"/>
      <use xlink:href="#DejaVuSans-20" x="390.283203"/>
      <use xlink:href="#DejaVuSans-6f" x="422.070312"/>
      <use xlink:href="#DejaVuSans-66" x="483.251953"/>
      <use xlink:href="#DejaVuSans-20" x="518.457031"/>
      <use xlink:href="#DejaVuSans-63" x="550.244141"/>
      <use xlink:href="#DejaVuSans-65" x="605.224609"/>
      <use xlink:href="#DejaVuSans-6c" x="666.748047"/>
      <use xlink:href="#DejaVuSans-6c" x="694.53125"/>
      <use xlink:href="#DejaVuSans-73" x="722.314453"/>
     </g>
    </g>
   </g>
   <g id="line2d_13">
    <path d="M 390.272727 256.32 
L 390.272727 34.56 
" clip-path="url(#p5d7d3ce0ec)" style="fill: none; stroke-dasharray: 9.6,2.4,1.5,2.4; stroke-dashoffset: 0; stroke: #ff0000; stroke-width: 1.5"/>
   </g>
   <g id="patch_33">
    <path d="M 162 256.32 
L 162 34.56 
" style="fill: none; stroke: #000000; stroke-width: 0.8; stroke-linejoin: miter; stroke-linecap: square"/>
   </g>
   <g id="patch_34">
    <path d="M 618.545455 256.32 
L 618.545455 34.56 
" style="fill: none; stroke: #000000; stroke-width: 0.8; stroke-linejoin: miter; stroke-linecap: square"/>
   </g>
   <g id="patch_35">
    <path d="M 162 256.32 
L 618.545455 256.32 
" style="fill: none; stroke: #000000; stroke-width: 0.8; stroke-linejoin: miter; stroke-linecap: square"/>
   </g>
   <g id="patch_36">
    <path d="M 162 34.56 
L 618.545455 34.56 
" style="fill: none; stroke: #000000; stroke-width: 0.8; stroke-linejoin: miter; stroke-linecap: square"/>
   </g>
   <g id="text_15">
    <!-- Neurons -->
    <g transform="translate(359.130149 28.56) scale(0.15 -0.15)">
     <defs>
      <path id="DejaVuSans-4e" d="M 628 4666 
L 1478 4666 
L 3547 763 
L 3547 4666 
L 4159 4666 
L 4159 0 
L 3309 0 
L 1241 3903 
L 1241 0 
L 628 0 
L 628 4666 
z
" transform="scale(0.015625)"/>
     </defs>
     <use xlink:href="#DejaVuSans-4e"/>
     <use xlink:href="#DejaVuSans-65" x="74.804688"/>
     <use xlink:href="#DejaVuSans-75" x="136.328125"/>
     <use xlink:href="#DejaVuSans-72" x="199.707031"/>
     <use xlink:href="#DejaVuSans-6f" x="238.570312"/>
     <use xlink:href="#DejaVuSans-6e" x="299.751953"/>
     <use xlink:href="#DejaVuSans-73" x="363.130859"/>
    </g>
   </g>
   <g id="legend_1">
    <g id="patch_37">
     <path d="M 169.7 59.505938 
L 369.623281 59.505938 
Q 371.823281 59.505938 371.823281 57.305938 
L 371.823281 42.26 
Q 371.823281 40.06 369.623281 40.06 
L 169.7 40.06 
Q 167.5 40.06 167.5 42.26 
L 167.5 57.305938 
Q 167.5 59.505938 169.7 59.505938 
z
" style="fill: #ffffff; opacity: 0.8; stroke: #cccccc; stroke-linejoin: miter"/>
    </g>
    <g id="line2d_14">
     <path d="M 171.9 48.968281 
L 182.9 48.968281 
L 193.9 48.968281 
" style="fill: none; stroke-dasharray: 9.6,2.4,1.5,2.4; stroke-dashoffset: 0; stroke: #ff0000; stroke-width: 1.5"/>
    </g>
    <g id="text_16">
     <!-- binary classification threshold -->
     <g transform="translate(202.7 52.818281) scale(0.11 -0.11)">
      <defs>
       <path id="DejaVuSans-68" d="M 3513 2113 
L 3513 0 
L 2938 0 
L 2938 2094 
Q 2938 2591 2744 2837 
Q 2550 3084 2163 3084 
Q 1697 3084 1428 2787 
Q 1159 2491 1159 1978 
L 1159 0 
L 581 0 
L 581 4863 
L 1159 4863 
L 1159 2956 
Q 1366 3272 1645 3428 
Q 1925 3584 2291 3584 
Q 2894 3584 3203 3211 
Q 3513 2838 3513 2113 
z
" transform="scale(0.015625)"/>
      </defs>
      <use xlink:href="#DejaVuSans-62"/>
      <use xlink:href="#DejaVuSans-69" x="63.476562"/>
      <use xlink:href="#DejaVuSans-6e" x="91.259766"/>
      <use xlink:href="#DejaVuSans-61" x="154.638672"/>
      <use xlink:href="#DejaVuSans-72" x="215.917969"/>
      <use xlink:href="#DejaVuSans-79" x="257.03125"/>
      <use xlink:href="#DejaVuSans-20" x="316.210938"/>
      <use xlink:href="#DejaVuSans-63" x="347.998047"/>
      <use xlink:href="#DejaVuSans-6c" x="402.978516"/>
      <use xlink:href="#DejaVuSans-61" x="430.761719"/>
      <use xlink:href="#DejaVuSans-73" x="492.041016"/>
      <use xlink:href="#DejaVuSans-73" x="544.140625"/>
      <use xlink:href="#DejaVuSans-69" x="596.240234"/>
      <use xlink:href="#DejaVuSans-66" x="624.023438"/>
      <use xlink:href="#DejaVuSans-69" x="659.228516"/>
      <use xlink:href="#DejaVuSans-63" x="687.011719"/>
      <use xlink:href="#DejaVuSans-61" x="741.992188"/>
      <use xlink:href="#DejaVuSans-74" x="803.271484"/>
      <use xlink:href="#DejaVuSans-69" x="842.480469"/>
      <use xlink:href="#DejaVuSans-6f" x="870.263672"/>
      <use xlink:href="#DejaVuSans-6e" x="931.445312"/>
      <use xlink:href="#DejaVuSans-20" x="994.824219"/>
      <use xlink:href="#DejaVuSans-74" x="1026.611328"/>
      <use xlink:href="#DejaVuSans-68" x="1065.820312"/>
      <use xlink:href="#DejaVuSans-72" x="1129.199219"/>
      <use xlink:href="#DejaVuSans-65" x="1168.0625"/>
      <use xlink:href="#DejaVuSans-73" x="1229.585938"/>
      <use xlink:href="#DejaVuSans-68" x="1281.685547"/>
      <use xlink:href="#DejaVuSans-6f" x="1345.064453"/>
      <use xlink:href="#DejaVuSans-6c" x="1406.246094"/>
      <use xlink:href="#DejaVuSans-64" x="1434.029297"/>
     </g>
    </g>
   </g>
  </g>
  <g id="axes_2">
   <g id="patch_38">
    <path d="M 709.854545 256.32 
L 1166.4 256.32 
L 1166.4 34.56 
L 709.854545 34.56 
z
" style="fill: #ffffff"/>
   </g>
   <g id="patch_39">
    <path d="M 730.606612 256.32 
L 744.441322 256.32 
L 744.441322 215.442581 
L 730.606612 215.442581 
z
" clip-path="url(#p3bcd240d68)" style="fill: #1f77b4"/>
   </g>
   <g id="patch_40">
    <path d="M 744.441322 256.32 
L 758.276033 256.32 
L 758.276033 256.32 
L 744.441322 256.32 
z
" clip-path="url(#p3bcd240d68)" style="fill: #1f77b4"/>
   </g>
   <g id="patch_41">
    <path d="M 758.276033 256.32 
L 772.110744 256.32 
L 772.110744 256.32 
L 758.276033 256.32 
z
" clip-path="url(#p3bcd240d68)" style="fill: #1f77b4"/>
   </g>
   <g id="patch_42">
    <path d="M 772.110744 256.32 
L 785.945455 256.32 
L 785.945455 256.32 
L 772.110744 256.32 
z
" clip-path="url(#p3bcd240d68)" style="fill: #1f77b4"/>
   </g>
   <g id="patch_43">
    <path d="M 785.945455 256.32 
L 799.780165 256.32 
L 799.780165 256.32 
L 785.945455 256.32 
z
" clip-path="url(#p3bcd240d68)" style="fill: #1f77b4"/>
   </g>
   <g id="patch_44">
    <path d="M 799.780165 256.32 
L 813.614876 256.32 
L 813.614876 256.32 
L 799.780165 256.32 
z
" clip-path="url(#p3bcd240d68)" style="fill: #1f77b4"/>
   </g>
   <g id="patch_45">
    <path d="M 813.614876 256.32 
L 827.449587 256.32 
L 827.449587 174.565161 
L 813.614876 174.565161 
z
" clip-path="url(#p3bcd240d68)" style="fill: #1f77b4"/>
   </g>
   <g id="patch_46">
    <path d="M 827.449587 256.32 
L 841.284298 256.32 
L 841.284298 256.32 
L 827.449587 256.32 
z
" clip-path="url(#p3bcd240d68)" style="fill: #1f77b4"/>
   </g>
   <g id="patch_47">
    <path d="M 841.284298 256.32 
L 855.119008 256.32 
L 855.119008 256.32 
L 841.284298 256.32 
z
" clip-path="url(#p3bcd240d68)" style="fill: #1f77b4"/>
   </g>
   <g id="patch_48">
    <path d="M 855.119008 256.32 
L 868.953719 256.32 
L 868.953719 256.32 
L 855.119008 256.32 
z
" clip-path="url(#p3bcd240d68)" style="fill: #1f77b4"/>
   </g>
   <g id="patch_49">
    <path d="M 868.953719 256.32 
L 882.78843 256.32 
L 882.78843 256.32 
L 868.953719 256.32 
z
" clip-path="url(#p3bcd240d68)" style="fill: #1f77b4"/>
   </g>
   <g id="patch_50">
    <path d="M 882.78843 256.32 
L 896.62314 256.32 
L 896.62314 256.32 
L 882.78843 256.32 
z
" clip-path="url(#p3bcd240d68)" style="fill: #1f77b4"/>
   </g>
   <g id="patch_51">
    <path d="M 896.62314 256.32 
L 910.457851 256.32 
L 910.457851 92.810323 
L 896.62314 92.810323 
z
" clip-path="url(#p3bcd240d68)" style="fill: #1f77b4"/>
   </g>
   <g id="patch_52">
    <path d="M 910.457851 256.32 
L 924.292562 256.32 
L 924.292562 256.32 
L 910.457851 256.32 
z
" clip-path="url(#p3bcd240d68)" style="fill: #1f77b4"/>
   </g>
   <g id="patch_53">
    <path d="M 924.292562 256.32 
L 938.127273 256.32 
L 938.127273 256.32 
L 924.292562 256.32 
z
" clip-path="url(#p3bcd240d68)" style="fill: #1f77b4"/>
   </g>
   <g id="patch_54">
    <path d="M 938.127273 256.32 
L 951.961983 256.32 
L 951.961983 256.32 
L 938.127273 256.32 
z
" clip-path="url(#p3bcd240d68)" style="fill: #1f77b4"/>
   </g>
   <g id="patch_55">
    <path d="M 951.961983 256.32 
L 965.796694 256.32 
L 965.796694 256.32 
L 951.961983 256.32 
z
" clip-path="url(#p3bcd240d68)" style="fill: #1f77b4"/>
   </g>
   <g id="patch_56">
    <path d="M 965.796694 256.32 
L 979.631405 256.32 
L 979.631405 256.32 
L 965.796694 256.32 
z
" clip-path="url(#p3bcd240d68)" style="fill: #1f77b4"/>
   </g>
   <g id="patch_57">
    <path d="M 979.631405 256.32 
L 993.466116 256.32 
L 993.466116 45.12 
L 979.631405 45.12 
z
" clip-path="url(#p3bcd240d68)" style="fill: #1f77b4"/>
   </g>
   <g id="patch_58">
    <path d="M 993.466116 256.32 
L 1007.300826 256.32 
L 1007.300826 256.32 
L 993.466116 256.32 
z
" clip-path="url(#p3bcd240d68)" style="fill: #1f77b4"/>
   </g>
   <g id="patch_59">
    <path d="M 1007.300826 256.32 
L 1021.135537 256.32 
L 1021.135537 256.32 
L 1007.300826 256.32 
z
" clip-path="url(#p3bcd240d68)" style="fill: #1f77b4"/>
   </g>
   <g id="patch_60">
    <path d="M 1021.135537 256.32 
L 1034.970248 256.32 
L 1034.970248 256.32 
L 1021.135537 256.32 
z
" clip-path="url(#p3bcd240d68)" style="fill: #1f77b4"/>
   </g>
   <g id="patch_61">
    <path d="M 1034.970248 256.32 
L 1048.804959 256.32 
L 1048.804959 256.32 
L 1034.970248 256.32 
z
" clip-path="url(#p3bcd240d68)" style="fill: #1f77b4"/>
   </g>
   <g id="patch_62">
    <path d="M 1048.804959 256.32 
L 1062.639669 256.32 
L 1062.639669 256.32 
L 1048.804959 256.32 
z
" clip-path="url(#p3bcd240d68)" style="fill: #1f77b4"/>
   </g>
   <g id="patch_63">
    <path d="M 1062.639669 256.32 
L 1076.47438 256.32 
L 1076.47438 45.12 
L 1062.639669 45.12 
z
" clip-path="url(#p3bcd240d68)" style="fill: #1f77b4"/>
   </g>
   <g id="patch_64">
    <path d="M 1076.47438 256.32 
L 1090.309091 256.32 
L 1090.309091 256.32 
L 1076.47438 256.32 
z
" clip-path="url(#p3bcd240d68)" style="fill: #1f77b4"/>
   </g>
   <g id="patch_65">
    <path d="M 1090.309091 256.32 
L 1104.143802 256.32 
L 1104.143802 256.32 
L 1090.309091 256.32 
z
" clip-path="url(#p3bcd240d68)" style="fill: #1f77b4"/>
   </g>
   <g id="patch_66">
    <path d="M 1104.143802 256.32 
L 1117.978512 256.32 
L 1117.978512 256.32 
L 1104.143802 256.32 
z
" clip-path="url(#p3bcd240d68)" style="fill: #1f77b4"/>
   </g>
   <g id="patch_67">
    <path d="M 1117.978512 256.32 
L 1131.813223 256.32 
L 1131.813223 256.32 
L 1117.978512 256.32 
z
" clip-path="url(#p3bcd240d68)" style="fill: #1f77b4"/>
   </g>
   <g id="patch_68">
    <path d="M 1131.813223 256.32 
L 1145.647934 256.32 
L 1145.647934 65.55871 
L 1131.813223 65.55871 
z
" clip-path="url(#p3bcd240d68)" style="fill: #1f77b4"/>
   </g>
   <g id="matplotlib.axis_3">
    <g id="xtick_7">
     <g id="line2d_15">
      <g>
       <use xlink:href="#mc0b5001a52" x="730.606612" y="256.32" style="stroke: #000000; stroke-width: 0.8"/>
      </g>
     </g>
     <g id="text_17">
      <!-- 0.0 -->
      <g transform="translate(722.655049 270.918437) scale(0.1 -0.1)">
       <use xlink:href="#DejaVuSans-30"/>
       <use xlink:href="#DejaVuSans-2e" x="63.623047"/>
       <use xlink:href="#DejaVuSans-30" x="95.410156"/>
      </g>
     </g>
    </g>
    <g id="xtick_8">
     <g id="line2d_16">
      <g>
       <use xlink:href="#mc0b5001a52" x="813.614876" y="256.32" style="stroke: #000000; stroke-width: 0.8"/>
      </g>
     </g>
     <g id="text_18">
      <!-- 0.2 -->
      <g transform="translate(805.663314 270.918437) scale(0.1 -0.1)">
       <use xlink:href="#DejaVuSans-30"/>
       <use xlink:href="#DejaVuSans-2e" x="63.623047"/>
       <use xlink:href="#DejaVuSans-32" x="95.410156"/>
      </g>
     </g>
    </g>
    <g id="xtick_9">
     <g id="line2d_17">
      <g>
       <use xlink:href="#mc0b5001a52" x="896.62314" y="256.32" style="stroke: #000000; stroke-width: 0.8"/>
      </g>
     </g>
     <g id="text_19">
      <!-- 0.4 -->
      <g transform="translate(888.671578 270.918437) scale(0.1 -0.1)">
       <use xlink:href="#DejaVuSans-30"/>
       <use xlink:href="#DejaVuSans-2e" x="63.623047"/>
       <use xlink:href="#DejaVuSans-34" x="95.410156"/>
      </g>
     </g>
    </g>
    <g id="xtick_10">
     <g id="line2d_18">
      <g>
       <use xlink:href="#mc0b5001a52" x="979.631405" y="256.32" style="stroke: #000000; stroke-width: 0.8"/>
      </g>
     </g>
     <g id="text_20">
      <!-- 0.6 -->
      <g transform="translate(971.679842 270.918437) scale(0.1 -0.1)">
       <use xlink:href="#DejaVuSans-30"/>
       <use xlink:href="#DejaVuSans-2e" x="63.623047"/>
       <use xlink:href="#DejaVuSans-36" x="95.410156"/>
      </g>
     </g>
    </g>
    <g id="xtick_11">
     <g id="line2d_19">
      <g>
       <use xlink:href="#mc0b5001a52" x="1062.639669" y="256.32" style="stroke: #000000; stroke-width: 0.8"/>
      </g>
     </g>
     <g id="text_21">
      <!-- 0.8 -->
      <g transform="translate(1054.688107 270.918437) scale(0.1 -0.1)">
       <use xlink:href="#DejaVuSans-30"/>
       <use xlink:href="#DejaVuSans-2e" x="63.623047"/>
       <use xlink:href="#DejaVuSans-38" x="95.410156"/>
      </g>
     </g>
    </g>
    <g id="xtick_12">
     <g id="line2d_20">
      <g>
       <use xlink:href="#mc0b5001a52" x="1145.647934" y="256.32" style="stroke: #000000; stroke-width: 0.8"/>
      </g>
     </g>
     <g id="text_22">
      <!-- 1.0 -->
      <g transform="translate(1137.696371 270.918437) scale(0.1 -0.1)">
       <use xlink:href="#DejaVuSans-31"/>
       <use xlink:href="#DejaVuSans-2e" x="63.623047"/>
       <use xlink:href="#DejaVuSans-30" x="95.410156"/>
      </g>
     </g>
    </g>
    <g id="text_23">
     <!-- predicted probability -->
     <g transform="translate(860.154226 288.395781) scale(0.15 -0.15)">
      <use xlink:href="#DejaVuSans-70"/>
      <use xlink:href="#DejaVuSans-72" x="63.476562"/>
      <use xlink:href="#DejaVuSans-65" x="102.339844"/>
      <use xlink:href="#DejaVuSans-64" x="163.863281"/>
      <use xlink:href="#DejaVuSans-69" x="227.339844"/>
      <use xlink:href="#DejaVuSans-63" x="255.123047"/>
      <use xlink:href="#DejaVuSans-74" x="310.103516"/>
      <use xlink:href="#DejaVuSans-65" x="349.3125"/>
      <use xlink:href="#DejaVuSans-64" x="410.835938"/>
      <use xlink:href="#DejaVuSans-20" x="474.3125"/>
      <use xlink:href="#DejaVuSans-70" x="506.099609"/>
      <use xlink:href="#DejaVuSans-72" x="569.576172"/>
      <use xlink:href="#DejaVuSans-6f" x="608.439453"/>
      <use xlink:href="#DejaVuSans-62" x="669.621094"/>
      <use xlink:href="#DejaVuSans-61" x="733.097656"/>
      <use xlink:href="#DejaVuSans-62" x="794.376953"/>
      <use xlink:href="#DejaVuSans-69" x="857.853516"/>
      <use xlink:href="#DejaVuSans-6c" x="885.636719"/>
      <use xlink:href="#DejaVuSans-69" x="913.419922"/>
      <use xlink:href="#DejaVuSans-74" x="941.203125"/>
      <use xlink:href="#DejaVuSans-79" x="980.412109"/>
     </g>
    </g>
   </g>
   <g id="matplotlib.axis_4">
    <g id="ytick_7">
     <g id="line2d_21">
      <g>
       <use xlink:href="#m9b02de8f1d" x="709.854545" y="256.32" style="stroke: #000000; stroke-width: 0.8"/>
      </g>
     </g>
     <g id="text_24">
      <!-- 0 -->
      <g transform="translate(696.492045 260.119219) scale(0.1 -0.1)">
       <use xlink:href="#DejaVuSans-30"/>
      </g>
     </g>
    </g>
    <g id="ytick_8">
     <g id="line2d_22">
      <g>
       <use xlink:href="#m9b02de8f1d" x="709.854545" y="222.255484" style="stroke: #000000; stroke-width: 0.8"/>
      </g>
     </g>
     <g id="text_25">
      <!-- 5 -->
      <g transform="translate(696.492045 226.054703) scale(0.1 -0.1)">
       <use xlink:href="#DejaVuSans-35"/>
      </g>
     </g>
    </g>
    <g id="ytick_9">
     <g id="line2d_23">
      <g>
       <use xlink:href="#m9b02de8f1d" x="709.854545" y="188.190968" style="stroke: #000000; stroke-width: 0.8"/>
      </g>
     </g>
     <g id="text_26">
      <!-- 10 -->
      <g transform="translate(690.129545 191.990186) scale(0.1 -0.1)">
       <use xlink:href="#DejaVuSans-31"/>
       <use xlink:href="#DejaVuSans-30" x="63.623047"/>
      </g>
     </g>
    </g>
    <g id="ytick_10">
     <g id="line2d_24">
      <g>
       <use xlink:href="#m9b02de8f1d" x="709.854545" y="154.126452" style="stroke: #000000; stroke-width: 0.8"/>
      </g>
     </g>
     <g id="text_27">
      <!-- 15 -->
      <g transform="translate(690.129545 157.92567) scale(0.1 -0.1)">
       <use xlink:href="#DejaVuSans-31"/>
       <use xlink:href="#DejaVuSans-35" x="63.623047"/>
      </g>
     </g>
    </g>
    <g id="ytick_11">
     <g id="line2d_25">
      <g>
       <use xlink:href="#m9b02de8f1d" x="709.854545" y="120.061935" style="stroke: #000000; stroke-width: 0.8"/>
      </g>
     </g>
     <g id="text_28">
      <!-- 20 -->
      <g transform="translate(690.129545 123.861154) scale(0.1 -0.1)">
       <use xlink:href="#DejaVuSans-32"/>
       <use xlink:href="#DejaVuSans-30" x="63.623047"/>
      </g>
     </g>
    </g>
    <g id="ytick_12">
     <g id="line2d_26">
      <g>
       <use xlink:href="#m9b02de8f1d" x="709.854545" y="85.997419" style="stroke: #000000; stroke-width: 0.8"/>
      </g>
     </g>
     <g id="text_29">
      <!-- 25 -->
      <g transform="translate(690.129545 89.796638) scale(0.1 -0.1)">
       <use xlink:href="#DejaVuSans-32"/>
       <use xlink:href="#DejaVuSans-35" x="63.623047"/>
      </g>
     </g>
    </g>
    <g id="ytick_13">
     <g id="line2d_27">
      <g>
       <use xlink:href="#m9b02de8f1d" x="709.854545" y="51.932903" style="stroke: #000000; stroke-width: 0.8"/>
      </g>
     </g>
     <g id="text_30">
      <!-- 30 -->
      <g transform="translate(690.129545 55.732122) scale(0.1 -0.1)">
       <use xlink:href="#DejaVuSans-33"/>
       <use xlink:href="#DejaVuSans-30" x="63.623047"/>
      </g>
     </g>
    </g>
    <g id="text_31">
     <!-- number of cells -->
     <g transform="translate(683.010014 203.520469) rotate(-90) scale(0.15 -0.15)">
      <use xlink:href="#DejaVuSans-6e"/>
      <use xlink:href="#DejaVuSans-75" x="63.378906"/>
      <use xlink:href="#DejaVuSans-6d" x="126.757812"/>
      <use xlink:href="#DejaVuSans-62" x="224.169922"/>
      <use xlink:href="#DejaVuSans-65" x="287.646484"/>
      <use xlink:href="#DejaVuSans-72" x="349.169922"/>
      <use xlink:href="#DejaVuSans-20" x="390.283203"/>
      <use xlink:href="#DejaVuSans-6f" x="422.070312"/>
      <use xlink:href="#DejaVuSans-66" x="483.251953"/>
      <use xlink:href="#DejaVuSans-20" x="518.457031"/>
      <use xlink:href="#DejaVuSans-63" x="550.244141"/>
      <use xlink:href="#DejaVuSans-65" x="605.224609"/>
      <use xlink:href="#DejaVuSans-6c" x="666.748047"/>
      <use xlink:href="#DejaVuSans-6c" x="694.53125"/>
      <use xlink:href="#DejaVuSans-73" x="722.314453"/>
     </g>
    </g>
   </g>
   <g id="line2d_28">
    <path d="M 938.127273 256.32 
L 938.127273 34.56 
" clip-path="url(#p3bcd240d68)" style="fill: none; stroke-dasharray: 9.6,2.4,1.5,2.4; stroke-dashoffset: 0; stroke: #ff0000; stroke-width: 1.5"/>
   </g>
   <g id="patch_69">
    <path d="M 709.854545 256.32 
L 709.854545 34.56 
" style="fill: none; stroke: #000000; stroke-width: 0.8; stroke-linejoin: miter; stroke-linecap: square"/>
   </g>
   <g id="patch_70">
    <path d="M 1166.4 256.32 
L 1166.4 34.56 
" style="fill: none; stroke: #000000; stroke-width: 0.8; stroke-linejoin: miter; stroke-linecap: square"/>
   </g>
   <g id="patch_71">
    <path d="M 709.854545 256.32 
L 1166.4 256.32 
" style="fill: none; stroke: #000000; stroke-width: 0.8; stroke-linejoin: miter; stroke-linecap: square"/>
   </g>
   <g id="patch_72">
    <path d="M 709.854545 34.56 
L 1166.4 34.56 
" style="fill: none; stroke: #000000; stroke-width: 0.8; stroke-linejoin: miter; stroke-linecap: square"/>
   </g>
   <g id="text_32">
    <!-- Astrocytes -->
    <g transform="translate(898.621023 28.56) scale(0.15 -0.15)">
     <defs>
      <path id="DejaVuSans-41" d="M 2188 4044 
L 1331 1722 
L 3047 1722 
L 2188 4044 
z
M 1831 4666 
L 2547 4666 
L 4325 0 
L 3669 0 
L 3244 1197 
L 1141 1197 
L 716 0 
L 50 0 
L 1831 4666 
z
" transform="scale(0.015625)"/>
     </defs>
     <use xlink:href="#DejaVuSans-41"/>
     <use xlink:href="#DejaVuSans-73" x="68.408203"/>
     <use xlink:href="#DejaVuSans-74" x="120.507812"/>
     <use xlink:href="#DejaVuSans-72" x="159.716797"/>
     <use xlink:href="#DejaVuSans-6f" x="198.580078"/>
     <use xlink:href="#DejaVuSans-63" x="259.761719"/>
     <use xlink:href="#DejaVuSans-79" x="314.742188"/>
     <use xlink:href="#DejaVuSans-74" x="373.921875"/>
     <use xlink:href="#DejaVuSans-65" x="413.130859"/>
     <use xlink:href="#DejaVuSans-73" x="474.654297"/>
    </g>
   </g>
   <g id="legend_2">
    <g id="patch_73">
     <path d="M 717.554545 59.505938 
L 917.477827 59.505938 
Q 919.677827 59.505938 919.677827 57.305938 
L 919.677827 42.26 
Q 919.677827 40.06 917.477827 40.06 
L 717.554545 40.06 
Q 715.354545 40.06 715.354545 42.26 
L 715.354545 57.305938 
Q 715.354545 59.505938 717.554545 59.505938 
z
" style="fill: #ffffff; opacity: 0.8; stroke: #cccccc; stroke-linejoin: miter"/>
    </g>
    <g id="line2d_29">
     <path d="M 719.754545 48.968281 
L 730.754545 48.968281 
L 741.754545 48.968281 
" style="fill: none; stroke-dasharray: 9.6,2.4,1.5,2.4; stroke-dashoffset: 0; stroke: #ff0000; stroke-width: 1.5"/>
    </g>
    <g id="text_33">
     <!-- binary classification threshold -->
     <g transform="translate(750.554545 52.818281) scale(0.11 -0.11)">
      <use xlink:href="#DejaVuSans-62"/>
      <use xlink:href="#DejaVuSans-69" x="63.476562"/>
      <use xlink:href="#DejaVuSans-6e" x="91.259766"/>
      <use xlink:href="#DejaVuSans-61" x="154.638672"/>
      <use xlink:href="#DejaVuSans-72" x="215.917969"/>
      <use xlink:href="#DejaVuSans-79" x="257.03125"/>
      <use xlink:href="#DejaVuSans-20" x="316.210938"/>
      <use xlink:href="#DejaVuSans-63" x="347.998047"/>
      <use xlink:href="#DejaVuSans-6c" x="402.978516"/>
      <use xlink:href="#DejaVuSans-61" x="430.761719"/>
      <use xlink:href="#DejaVuSans-73" x="492.041016"/>
      <use xlink:href="#DejaVuSans-73" x="544.140625"/>
      <use xlink:href="#DejaVuSans-69" x="596.240234"/>
      <use xlink:href="#DejaVuSans-66" x="624.023438"/>
      <use xlink:href="#DejaVuSans-69" x="659.228516"/>
      <use xlink:href="#DejaVuSans-63" x="687.011719"/>
      <use xlink:href="#DejaVuSans-61" x="741.992188"/>
      <use xlink:href="#DejaVuSans-74" x="803.271484"/>
      <use xlink:href="#DejaVuSans-69" x="842.480469"/>
      <use xlink:href="#DejaVuSans-6f" x="870.263672"/>
      <use xlink:href="#DejaVuSans-6e" x="931.445312"/>
      <use xlink:href="#DejaVuSans-20" x="994.824219"/>
      <use xlink:href="#DejaVuSans-74" x="1026.611328"/>
      <use xlink:href="#DejaVuSans-68" x="1065.820312"/>
      <use xlink:href="#DejaVuSans-72" x="1129.199219"/>
      <use xlink:href="#DejaVuSans-65" x="1168.0625"/>
      <use xlink:href="#DejaVuSans-73" x="1229.585938"/>
      <use xlink:href="#DejaVuSans-68" x="1281.685547"/>
      <use xlink:href="#DejaVuSans-6f" x="1345.064453"/>
      <use xlink:href="#DejaVuSans-6c" x="1406.246094"/>
      <use xlink:href="#DejaVuSans-64" x="1434.029297"/>
     </g>
    </g>
   </g>
  </g>
  <g id="text_34">
   <!-- KNN -->
   <g transform="translate(635.087813 14.878125) scale(0.12 -0.12)">
    <defs>
     <path id="DejaVuSans-4b" d="M 628 4666 
L 1259 4666 
L 1259 2694 
L 3353 4666 
L 4166 4666 
L 1850 2491 
L 4331 0 
L 3500 0 
L 1259 2247 
L 1259 0 
L 628 0 
L 628 4666 
z
" transform="scale(0.015625)"/>
    </defs>
    <use xlink:href="#DejaVuSans-4b"/>
    <use xlink:href="#DejaVuSans-4e" x="65.576172"/>
    <use xlink:href="#DejaVuSans-4e" x="140.380859"/>
   </g>
  </g>
 </g>
 <defs>
  <clipPath id="p5d7d3ce0ec">
   <rect x="162" y="34.56" width="456.545455" height="221.76"/>
  </clipPath>
  <clipPath id="p3bcd240d68">
   <rect x="709.854545" y="34.56" width="456.545455" height="221.76"/>
  </clipPath>
 </defs>
</svg>
