<?xml version="1.0" encoding="utf-8" standalone="no"?>
<!DOCTYPE svg PUBLIC "-//W3C//DTD SVG 1.1//EN"
  "http://www.w3.org/Graphics/SVG/1.1/DTD/svg11.dtd">
<svg xmlns:xlink="http://www.w3.org/1999/xlink" width="460.8pt" height="345.6pt" viewBox="0 0 460.8 345.6" xmlns="http://www.w3.org/2000/svg" version="1.1">
 <metadata>
  <rdf:RDF xmlns:dc="http://purl.org/dc/elements/1.1/" xmlns:cc="http://creativecommons.org/ns#" xmlns:rdf="http://www.w3.org/1999/02/22-rdf-syntax-ns#">
   <cc:Work>
    <dc:type rdf:resource="http://purl.org/dc/dcmitype/StillImage"/>
    <dc:date>2023-09-30T05:50:00.137687</dc:date>
    <dc:format>image/svg+xml</dc:format>
    <dc:creator>
     <cc:Agent>
      <dc:title>Matplotlib v3.7.2, https://matplotlib.org/</dc:title>
     </cc:Agent>
    </dc:creator>
   </cc:Work>
  </rdf:RDF>
 </metadata>
 <defs>
  <style type="text/css">*{stroke-linejoin: round; stroke-linecap: butt}</style>
 </defs>
 <g id="figure_1">
  <g id="patch_1">
   <path d="M 0 345.6 
L 460.8 345.6 
L 460.8 0 
L 0 0 
z
" style="fill: #ffffff"/>
  </g>
  <g id="axes_1">
   <g id="patch_2">
    <path d="M 57.6 307.584 
L 414.72 307.584 
L 414.72 41.472 
L 57.6 41.472 
z
" style="fill: #ffffff"/>
   </g>
   <g id="PathCollection_1">
    <defs>
     <path id="m16ca646e64" d="M 0 3 
C 0.795609 3 1.55874 2.683901 2.12132 2.12132 
C 2.683901 1.55874 3 0.795609 3 0 
C 3 -0.795609 2.683901 -1.55874 2.12132 -2.12132 
C 1.55874 -2.683901 0.795609 -3 0 -3 
C -0.795609 -3 -1.55874 -2.683901 -2.12132 -2.12132 
C -2.683901 -1.55874 -3 -0.795609 -3 0 
C -3 0.795609 -2.683901 1.55874 -2.12132 2.12132 
C -1.55874 2.683901 -0.795609 3 0 3 
z
" style="stroke: #0000ff"/>
    </defs>
    <g clip-path="url(#pf56bc64ead)">
     <use xlink:href="#m16ca646e64" x="73.832727" y="295.488" style="fill: #0000ff; stroke: #0000ff"/>
     <use xlink:href="#m16ca646e64" x="228.744033" y="166.140205" style="fill: #0000ff; stroke: #0000ff"/>
     <use xlink:href="#m16ca646e64" x="281.479797" y="118.869221" style="fill: #0000ff; stroke: #0000ff"/>
     <use xlink:href="#m16ca646e64" x="362.231435" y="73.710386" style="fill: #0000ff; stroke: #0000ff"/>
     <use xlink:href="#m16ca646e64" x="211.440111" y="189.061685" style="fill: #0000ff; stroke: #0000ff"/>
     <use xlink:href="#m16ca646e64" x="246.871952" y="159.121376" style="fill: #0000ff; stroke: #0000ff"/>
     <use xlink:href="#m16ca646e64" x="252.639926" y="150.797306" style="fill: #0000ff; stroke: #0000ff"/>
     <use xlink:href="#m16ca646e64" x="362.231435" y="86.410412" style="fill: #0000ff; stroke: #0000ff"/>
     <use xlink:href="#m16ca646e64" x="97.72862" y="289.391669" style="fill: #0000ff; stroke: #0000ff"/>
     <use xlink:href="#m16ca646e64" x="258.4079" y="289.26949" style="fill: #0000ff; stroke: #0000ff"/>
     <use xlink:href="#m16ca646e64" x="96.904624" y="289.224623" style="fill: #0000ff; stroke: #0000ff"/>
     <use xlink:href="#m16ca646e64" x="358.111454" y="85.113945" style="fill: #0000ff; stroke: #0000ff"/>
     <use xlink:href="#m16ca646e64" x="179.304255" y="213.042836" style="fill: #0000ff; stroke: #0000ff"/>
     <use xlink:href="#m16ca646e64" x="120.800517" y="251.159214" style="fill: #0000ff; stroke: #0000ff"/>
     <use xlink:href="#m16ca646e64" x="382.831343" y="60.819104" style="fill: #0000ff; stroke: #0000ff"/>
     <use xlink:href="#m16ca646e64" x="122.448509" y="239.05719" style="fill: #0000ff; stroke: #0000ff"/>
     <use xlink:href="#m16ca646e64" x="96.904624" y="263.388856" style="fill: #0000ff; stroke: #0000ff"/>
     <use xlink:href="#m16ca646e64" x="89.488657" y="283.668548" style="fill: #0000ff; stroke: #0000ff"/>
     <use xlink:href="#m16ca646e64" x="150.464384" y="222.97942" style="fill: #0000ff; stroke: #0000ff"/>
     <use xlink:href="#m16ca646e64" x="220.50407" y="185.832516" style="fill: #0000ff; stroke: #0000ff"/>
     <use xlink:href="#m16ca646e64" x="138.928436" y="207.34375" style="fill: #0000ff; stroke: #0000ff"/>
     <use xlink:href="#m16ca646e64" x="335.863553" y="87.047372" style="fill: #0000ff; stroke: #0000ff"/>
     <use xlink:href="#m16ca646e64" x="281.479797" y="125.235423" style="fill: #0000ff; stroke: #0000ff"/>
     <use xlink:href="#m16ca646e64" x="217.208085" y="162.355103" style="fill: #0000ff; stroke: #0000ff"/>
     <use xlink:href="#m16ca646e64" x="392.719299" y="53.568" style="fill: #0000ff; stroke: #0000ff"/>
     <use xlink:href="#m16ca646e64" x="75.48072" y="286.22103" style="fill: #0000ff; stroke: #0000ff"/>
     <use xlink:href="#m16ca646e64" x="227.096041" y="177.958925" style="fill: #0000ff; stroke: #0000ff"/>
     <use xlink:href="#m16ca646e64" x="190.840203" y="203.67392" style="fill: #0000ff; stroke: #0000ff"/>
     <use xlink:href="#m16ca646e64" x="92.784642" y="282.435004" style="fill: #0000ff; stroke: #0000ff"/>
     <use xlink:href="#m16ca646e64" x="221.328066" y="184.739496" style="fill: #0000ff; stroke: #0000ff"/>
     <use xlink:href="#m16ca646e64" x="86.192672" y="280.318643" style="fill: #0000ff; stroke: #0000ff"/>
     <use xlink:href="#m16ca646e64" x="171.888288" y="209.317247" style="fill: #0000ff; stroke: #0000ff"/>
     <use xlink:href="#m16ca646e64" x="382.007347" y="57.545298" style="fill: #0000ff; stroke: #0000ff"/>
     <use xlink:href="#m16ca646e64" x="162.824329" y="200.311424" style="fill: #0000ff; stroke: #0000ff"/>
     <use xlink:href="#m16ca646e64" x="208.968122" y="173.638803" style="fill: #0000ff; stroke: #0000ff"/>
     <use xlink:href="#m16ca646e64" x="313.615653" y="111.752569" style="fill: #0000ff; stroke: #0000ff"/>
     <use xlink:href="#m16ca646e64" x="394.367291" y="57.840286" style="fill: #0000ff; stroke: #0000ff"/>
     <use xlink:href="#m16ca646e64" x="364.703424" y="66.96752" style="fill: #0000ff; stroke: #0000ff"/>
     <use xlink:href="#m16ca646e64" x="339.983535" y="82.564701" style="fill: #0000ff; stroke: #0000ff"/>
     <use xlink:href="#m16ca646e64" x="329.271583" y="104.864358" style="fill: #0000ff; stroke: #0000ff"/>
     <use xlink:href="#m16ca646e64" x="329.271583" y="89.348257" style="fill: #0000ff; stroke: #0000ff"/>
     <use xlink:href="#m16ca646e64" x="382.007347" y="75.50648" style="fill: #0000ff; stroke: #0000ff"/>
     <use xlink:href="#m16ca646e64" x="182.60024" y="222.471317" style="fill: #0000ff; stroke: #0000ff"/>
     <use xlink:href="#m16ca646e64" x="330.919575" y="80.183348" style="fill: #0000ff; stroke: #0000ff"/>
     <use xlink:href="#m16ca646e64" x="398.487273" y="63.679107" style="fill: #0000ff; stroke: #0000ff"/>
     <use xlink:href="#m16ca646e64" x="186.720222" y="199.357267" style="fill: #0000ff; stroke: #0000ff"/>
     <use xlink:href="#m16ca646e64" x="112.560554" y="254.957349" style="fill: #0000ff; stroke: #0000ff"/>
     <use xlink:href="#m16ca646e64" x="377.063369" y="65.390704" style="fill: #0000ff; stroke: #0000ff"/>
     <use xlink:href="#m16ca646e64" x="377.887365" y="85.233328" style="fill: #0000ff; stroke: #0000ff"/>
     <use xlink:href="#m16ca646e64" x="221.328066" y="170.753002" style="fill: #0000ff; stroke: #0000ff"/>
     <use xlink:href="#m16ca646e64" x="297.135727" y="120.688577" style="fill: #0000ff; stroke: #0000ff"/>
     <use xlink:href="#m16ca646e64" x="351.519483" y="88.01331" style="fill: #0000ff; stroke: #0000ff"/>
     <use xlink:href="#m16ca646e64" x="371.295395" y="289.039189" style="fill: #0000ff; stroke: #0000ff"/>
     <use xlink:href="#m16ca646e64" x="124.920498" y="232.976411" style="fill: #0000ff; stroke: #0000ff"/>
     <use xlink:href="#m16ca646e64" x="337.511546" y="89.709702" style="fill: #0000ff; stroke: #0000ff"/>
     <use xlink:href="#m16ca646e64" x="89.488657" y="270.942305" style="fill: #0000ff; stroke: #0000ff"/>
     <use xlink:href="#m16ca646e64" x="211.440111" y="197.804332" style="fill: #0000ff; stroke: #0000ff"/>
     <use xlink:href="#m16ca646e64" x="135.63245" y="238.966183" style="fill: #0000ff; stroke: #0000ff"/>
     <use xlink:href="#m16ca646e64" x="106.79258" y="264.298255" style="fill: #0000ff; stroke: #0000ff"/>
     <use xlink:href="#m16ca646e64" x="207.320129" y="176.873642" style="fill: #0000ff; stroke: #0000ff"/>
     <use xlink:href="#m16ca646e64" x="248.519945" y="144.123017" style="fill: #0000ff; stroke: #0000ff"/>
     <use xlink:href="#m16ca646e64" x="218.032081" y="165.506512" style="fill: #0000ff; stroke: #0000ff"/>
     <use xlink:href="#m16ca646e64" x="330.919575" y="90.481175" style="fill: #0000ff; stroke: #0000ff"/>
     <use xlink:href="#m16ca646e64" x="254.287919" y="145.902966" style="fill: #0000ff; stroke: #0000ff"/>
     <use xlink:href="#m16ca646e64" x="125.744495" y="251.619156" style="fill: #0000ff; stroke: #0000ff"/>
     <use xlink:href="#m16ca646e64" x="375.415376" y="70.962037" style="fill: #0000ff; stroke: #0000ff"/>
     <use xlink:href="#m16ca646e64" x="163.648325" y="208.870827" style="fill: #0000ff; stroke: #0000ff"/>
     <use xlink:href="#m16ca646e64" x="240.279982" y="184.820249" style="fill: #0000ff; stroke: #0000ff"/>
     <use xlink:href="#m16ca646e64" x="134.808454" y="237.547388" style="fill: #0000ff; stroke: #0000ff"/>
     <use xlink:href="#m16ca646e64" x="100.200609" y="289.123206" style="fill: #0000ff; stroke: #0000ff"/>
     <use xlink:href="#m16ca646e64" x="166.120314" y="220.825969" style="fill: #0000ff; stroke: #0000ff"/>
     <use xlink:href="#m16ca646e64" x="221.328066" y="174.794236" style="fill: #0000ff; stroke: #0000ff"/>
     <use xlink:href="#m16ca646e64" x="159.528343" y="227.093193" style="fill: #0000ff; stroke: #0000ff"/>
     <use xlink:href="#m16ca646e64" x="268.295856" y="124.560294" style="fill: #0000ff; stroke: #0000ff"/>
     <use xlink:href="#m16ca646e64" x="288.071767" y="130.949072" style="fill: #0000ff; stroke: #0000ff"/>
     <use xlink:href="#m16ca646e64" x="143.872413" y="256.585348" style="fill: #0000ff; stroke: #0000ff"/>
     <use xlink:href="#m16ca646e64" x="318.559631" y="100.283507" style="fill: #0000ff; stroke: #0000ff"/>
     <use xlink:href="#m16ca646e64" x="241.927974" y="166.076" style="fill: #0000ff; stroke: #0000ff"/>
     <use xlink:href="#m16ca646e64" x="287.247771" y="120.295977" style="fill: #0000ff; stroke: #0000ff"/>
     <use xlink:href="#m16ca646e64" x="270.767845" y="121.349754" style="fill: #0000ff; stroke: #0000ff"/>
     <use xlink:href="#m16ca646e64" x="251.81593" y="148.395944" style="fill: #0000ff; stroke: #0000ff"/>
     <use xlink:href="#m16ca646e64" x="151.28838" y="242.873961" style="fill: #0000ff; stroke: #0000ff"/>
     <use xlink:href="#m16ca646e64" x="91.960646" y="289.196953" style="fill: #0000ff; stroke: #0000ff"/>
     <use xlink:href="#m16ca646e64" x="125.744495" y="243.434258" style="fill: #0000ff; stroke: #0000ff"/>
     <use xlink:href="#m16ca646e64" x="338.335542" y="85.871855" style="fill: #0000ff; stroke: #0000ff"/>
     <use xlink:href="#m16ca646e64" x="283.951786" y="127.665404" style="fill: #0000ff; stroke: #0000ff"/>
     <use xlink:href="#m16ca646e64" x="108.440572" y="264.63539" style="fill: #0000ff; stroke: #0000ff"/>
     <use xlink:href="#m16ca646e64" x="279.831804" y="134.257539" style="fill: #0000ff; stroke: #0000ff"/>
     <use xlink:href="#m16ca646e64" x="96.904624" y="278.689518" style="fill: #0000ff; stroke: #0000ff"/>
     <use xlink:href="#m16ca646e64" x="80.424698" y="285.485348" style="fill: #0000ff; stroke: #0000ff"/>
    </g>
   </g>
   <g id="matplotlib.axis_1">
    <g id="xtick_1">
     <g id="line2d_1">
      <path d="M 72.184735 307.584 
L 72.184735 41.472 
" clip-path="url(#pf56bc64ead)" style="fill: none; stroke: #b0b0b0; stroke-width: 0.8; stroke-linecap: square"/>
     </g>
     <g id="line2d_2">
      <defs>
       <path id="mdd71e66e6d" d="M 0 0 
L 0 3.5 
" style="stroke: #000000; stroke-width: 0.8"/>
      </defs>
      <g>
       <use xlink:href="#mdd71e66e6d" x="72.184735" y="307.584" style="stroke: #000000; stroke-width: 0.8"/>
      </g>
     </g>
     <g id="text_1">
      <!-- 0.0 -->
      <g transform="translate(64.233172 322.182437) scale(0.1 -0.1)">
       <defs>
        <path id="DejaVuSans-30" d="M 2034 4250 
Q 1547 4250 1301 3770 
Q 1056 3291 1056 2328 
Q 1056 1369 1301 889 
Q 1547 409 2034 409 
Q 2525 409 2770 889 
Q 3016 1369 3016 2328 
Q 3016 3291 2770 3770 
Q 2525 4250 2034 4250 
z
M 2034 4750 
Q 2819 4750 3233 4129 
Q 3647 3509 3647 2328 
Q 3647 1150 3233 529 
Q 2819 -91 2034 -91 
Q 1250 -91 836 529 
Q 422 1150 422 2328 
Q 422 3509 836 4129 
Q 1250 4750 2034 4750 
z
" transform="scale(0.015625)"/>
        <path id="DejaVuSans-2e" d="M 684 794 
L 1344 794 
L 1344 0 
L 684 0 
L 684 794 
z
" transform="scale(0.015625)"/>
       </defs>
       <use xlink:href="#DejaVuSans-30"/>
       <use xlink:href="#DejaVuSans-2e" x="63.623047"/>
       <use xlink:href="#DejaVuSans-30" x="95.410156"/>
      </g>
     </g>
    </g>
    <g id="xtick_2">
     <g id="line2d_3">
      <path d="M 138.104439 307.584 
L 138.104439 41.472 
" clip-path="url(#pf56bc64ead)" style="fill: none; stroke: #b0b0b0; stroke-width: 0.8; stroke-linecap: square"/>
     </g>
     <g id="line2d_4">
      <g>
       <use xlink:href="#mdd71e66e6d" x="138.104439" y="307.584" style="stroke: #000000; stroke-width: 0.8"/>
      </g>
     </g>
     <g id="text_2">
      <!-- 0.2 -->
      <g transform="translate(130.152877 322.182437) scale(0.1 -0.1)">
       <defs>
        <path id="DejaVuSans-32" d="M 1228 531 
L 3431 531 
L 3431 0 
L 469 0 
L 469 531 
Q 828 903 1448 1529 
Q 2069 2156 2228 2338 
Q 2531 2678 2651 2914 
Q 2772 3150 2772 3378 
Q 2772 3750 2511 3984 
Q 2250 4219 1831 4219 
Q 1534 4219 1204 4116 
Q 875 4013 500 3803 
L 500 4441 
Q 881 4594 1212 4672 
Q 1544 4750 1819 4750 
Q 2544 4750 2975 4387 
Q 3406 4025 3406 3419 
Q 3406 3131 3298 2873 
Q 3191 2616 2906 2266 
Q 2828 2175 2409 1742 
Q 1991 1309 1228 531 
z
" transform="scale(0.015625)"/>
       </defs>
       <use xlink:href="#DejaVuSans-30"/>
       <use xlink:href="#DejaVuSans-2e" x="63.623047"/>
       <use xlink:href="#DejaVuSans-32" x="95.410156"/>
      </g>
     </g>
    </g>
    <g id="xtick_3">
     <g id="line2d_5">
      <path d="M 204.024144 307.584 
L 204.024144 41.472 
" clip-path="url(#pf56bc64ead)" style="fill: none; stroke: #b0b0b0; stroke-width: 0.8; stroke-linecap: square"/>
     </g>
     <g id="line2d_6">
      <g>
       <use xlink:href="#mdd71e66e6d" x="204.024144" y="307.584" style="stroke: #000000; stroke-width: 0.8"/>
      </g>
     </g>
     <g id="text_3">
      <!-- 0.4 -->
      <g transform="translate(196.072581 322.182437) scale(0.1 -0.1)">
       <defs>
        <path id="DejaVuSans-34" d="M 2419 4116 
L 825 1625 
L 2419 1625 
L 2419 4116 
z
M 2253 4666 
L 3047 4666 
L 3047 1625 
L 3713 1625 
L 3713 1100 
L 3047 1100 
L 3047 0 
L 2419 0 
L 2419 1100 
L 313 1100 
L 313 1709 
L 2253 4666 
z
" transform="scale(0.015625)"/>
       </defs>
       <use xlink:href="#DejaVuSans-30"/>
       <use xlink:href="#DejaVuSans-2e" x="63.623047"/>
       <use xlink:href="#DejaVuSans-34" x="95.410156"/>
      </g>
     </g>
    </g>
    <g id="xtick_4">
     <g id="line2d_7">
      <path d="M 269.943849 307.584 
L 269.943849 41.472 
" clip-path="url(#pf56bc64ead)" style="fill: none; stroke: #b0b0b0; stroke-width: 0.8; stroke-linecap: square"/>
     </g>
     <g id="line2d_8">
      <g>
       <use xlink:href="#mdd71e66e6d" x="269.943849" y="307.584" style="stroke: #000000; stroke-width: 0.8"/>
      </g>
     </g>
     <g id="text_4">
      <!-- 0.6 -->
      <g transform="translate(261.992286 322.182437) scale(0.1 -0.1)">
       <defs>
        <path id="DejaVuSans-36" d="M 2113 2584 
Q 1688 2584 1439 2293 
Q 1191 2003 1191 1497 
Q 1191 994 1439 701 
Q 1688 409 2113 409 
Q 2538 409 2786 701 
Q 3034 994 3034 1497 
Q 3034 2003 2786 2293 
Q 2538 2584 2113 2584 
z
M 3366 4563 
L 3366 3988 
Q 3128 4100 2886 4159 
Q 2644 4219 2406 4219 
Q 1781 4219 1451 3797 
Q 1122 3375 1075 2522 
Q 1259 2794 1537 2939 
Q 1816 3084 2150 3084 
Q 2853 3084 3261 2657 
Q 3669 2231 3669 1497 
Q 3669 778 3244 343 
Q 2819 -91 2113 -91 
Q 1303 -91 875 529 
Q 447 1150 447 2328 
Q 447 3434 972 4092 
Q 1497 4750 2381 4750 
Q 2619 4750 2861 4703 
Q 3103 4656 3366 4563 
z
" transform="scale(0.015625)"/>
       </defs>
       <use xlink:href="#DejaVuSans-30"/>
       <use xlink:href="#DejaVuSans-2e" x="63.623047"/>
       <use xlink:href="#DejaVuSans-36" x="95.410156"/>
      </g>
     </g>
    </g>
    <g id="xtick_5">
     <g id="line2d_9">
      <path d="M 335.863553 307.584 
L 335.863553 41.472 
" clip-path="url(#pf56bc64ead)" style="fill: none; stroke: #b0b0b0; stroke-width: 0.8; stroke-linecap: square"/>
     </g>
     <g id="line2d_10">
      <g>
       <use xlink:href="#mdd71e66e6d" x="335.863553" y="307.584" style="stroke: #000000; stroke-width: 0.8"/>
      </g>
     </g>
     <g id="text_5">
      <!-- 0.8 -->
      <g transform="translate(327.911991 322.182437) scale(0.1 -0.1)">
       <defs>
        <path id="DejaVuSans-38" d="M 2034 2216 
Q 1584 2216 1326 1975 
Q 1069 1734 1069 1313 
Q 1069 891 1326 650 
Q 1584 409 2034 409 
Q 2484 409 2743 651 
Q 3003 894 3003 1313 
Q 3003 1734 2745 1975 
Q 2488 2216 2034 2216 
z
M 1403 2484 
Q 997 2584 770 2862 
Q 544 3141 544 3541 
Q 544 4100 942 4425 
Q 1341 4750 2034 4750 
Q 2731 4750 3128 4425 
Q 3525 4100 3525 3541 
Q 3525 3141 3298 2862 
Q 3072 2584 2669 2484 
Q 3125 2378 3379 2068 
Q 3634 1759 3634 1313 
Q 3634 634 3220 271 
Q 2806 -91 2034 -91 
Q 1263 -91 848 271 
Q 434 634 434 1313 
Q 434 1759 690 2068 
Q 947 2378 1403 2484 
z
M 1172 3481 
Q 1172 3119 1398 2916 
Q 1625 2713 2034 2713 
Q 2441 2713 2670 2916 
Q 2900 3119 2900 3481 
Q 2900 3844 2670 4047 
Q 2441 4250 2034 4250 
Q 1625 4250 1398 4047 
Q 1172 3844 1172 3481 
z
" transform="scale(0.015625)"/>
       </defs>
       <use xlink:href="#DejaVuSans-30"/>
       <use xlink:href="#DejaVuSans-2e" x="63.623047"/>
       <use xlink:href="#DejaVuSans-38" x="95.410156"/>
      </g>
     </g>
    </g>
    <g id="xtick_6">
     <g id="line2d_11">
      <path d="M 401.783258 307.584 
L 401.783258 41.472 
" clip-path="url(#pf56bc64ead)" style="fill: none; stroke: #b0b0b0; stroke-width: 0.8; stroke-linecap: square"/>
     </g>
     <g id="line2d_12">
      <g>
       <use xlink:href="#mdd71e66e6d" x="401.783258" y="307.584" style="stroke: #000000; stroke-width: 0.8"/>
      </g>
     </g>
     <g id="text_6">
      <!-- 1.0 -->
      <g transform="translate(393.831695 322.182437) scale(0.1 -0.1)">
       <defs>
        <path id="DejaVuSans-31" d="M 794 531 
L 1825 531 
L 1825 4091 
L 703 3866 
L 703 4441 
L 1819 4666 
L 2450 4666 
L 2450 531 
L 3481 531 
L 3481 0 
L 794 0 
L 794 531 
z
" transform="scale(0.015625)"/>
       </defs>
       <use xlink:href="#DejaVuSans-31"/>
       <use xlink:href="#DejaVuSans-2e" x="63.623047"/>
       <use xlink:href="#DejaVuSans-30" x="95.410156"/>
      </g>
     </g>
    </g>
    <g id="text_7">
     <!-- GT Fraction -->
     <g transform="translate(207.864688 335.860562) scale(0.1 -0.1)">
      <defs>
       <path id="DejaVuSans-47" d="M 3809 666 
L 3809 1919 
L 2778 1919 
L 2778 2438 
L 4434 2438 
L 4434 434 
Q 4069 175 3628 42 
Q 3188 -91 2688 -91 
Q 1594 -91 976 548 
Q 359 1188 359 2328 
Q 359 3472 976 4111 
Q 1594 4750 2688 4750 
Q 3144 4750 3555 4637 
Q 3966 4525 4313 4306 
L 4313 3634 
Q 3963 3931 3569 4081 
Q 3175 4231 2741 4231 
Q 1884 4231 1454 3753 
Q 1025 3275 1025 2328 
Q 1025 1384 1454 906 
Q 1884 428 2741 428 
Q 3075 428 3337 486 
Q 3600 544 3809 666 
z
" transform="scale(0.015625)"/>
       <path id="DejaVuSans-54" d="M -19 4666 
L 3928 4666 
L 3928 4134 
L 2272 4134 
L 2272 0 
L 1638 0 
L 1638 4134 
L -19 4134 
L -19 4666 
z
" transform="scale(0.015625)"/>
       <path id="DejaVuSans-20" transform="scale(0.015625)"/>
       <path id="DejaVuSans-46" d="M 628 4666 
L 3309 4666 
L 3309 4134 
L 1259 4134 
L 1259 2759 
L 3109 2759 
L 3109 2228 
L 1259 2228 
L 1259 0 
L 628 0 
L 628 4666 
z
" transform="scale(0.015625)"/>
       <path id="DejaVuSans-72" d="M 2631 2963 
Q 2534 3019 2420 3045 
Q 2306 3072 2169 3072 
Q 1681 3072 1420 2755 
Q 1159 2438 1159 1844 
L 1159 0 
L 581 0 
L 581 3500 
L 1159 3500 
L 1159 2956 
Q 1341 3275 1631 3429 
Q 1922 3584 2338 3584 
Q 2397 3584 2469 3576 
Q 2541 3569 2628 3553 
L 2631 2963 
z
" transform="scale(0.015625)"/>
       <path id="DejaVuSans-61" d="M 2194 1759 
Q 1497 1759 1228 1600 
Q 959 1441 959 1056 
Q 959 750 1161 570 
Q 1363 391 1709 391 
Q 2188 391 2477 730 
Q 2766 1069 2766 1631 
L 2766 1759 
L 2194 1759 
z
M 3341 1997 
L 3341 0 
L 2766 0 
L 2766 531 
Q 2569 213 2275 61 
Q 1981 -91 1556 -91 
Q 1019 -91 701 211 
Q 384 513 384 1019 
Q 384 1609 779 1909 
Q 1175 2209 1959 2209 
L 2766 2209 
L 2766 2266 
Q 2766 2663 2505 2880 
Q 2244 3097 1772 3097 
Q 1472 3097 1187 3025 
Q 903 2953 641 2809 
L 641 3341 
Q 956 3463 1253 3523 
Q 1550 3584 1831 3584 
Q 2591 3584 2966 3190 
Q 3341 2797 3341 1997 
z
" transform="scale(0.015625)"/>
       <path id="DejaVuSans-63" d="M 3122 3366 
L 3122 2828 
Q 2878 2963 2633 3030 
Q 2388 3097 2138 3097 
Q 1578 3097 1268 2742 
Q 959 2388 959 1747 
Q 959 1106 1268 751 
Q 1578 397 2138 397 
Q 2388 397 2633 464 
Q 2878 531 3122 666 
L 3122 134 
Q 2881 22 2623 -34 
Q 2366 -91 2075 -91 
Q 1284 -91 818 406 
Q 353 903 353 1747 
Q 353 2603 823 3093 
Q 1294 3584 2113 3584 
Q 2378 3584 2631 3529 
Q 2884 3475 3122 3366 
z
" transform="scale(0.015625)"/>
       <path id="DejaVuSans-74" d="M 1172 4494 
L 1172 3500 
L 2356 3500 
L 2356 3053 
L 1172 3053 
L 1172 1153 
Q 1172 725 1289 603 
Q 1406 481 1766 481 
L 2356 481 
L 2356 0 
L 1766 0 
Q 1100 0 847 248 
Q 594 497 594 1153 
L 594 3053 
L 172 3053 
L 172 3500 
L 594 3500 
L 594 4494 
L 1172 4494 
z
" transform="scale(0.015625)"/>
       <path id="DejaVuSans-69" d="M 603 3500 
L 1178 3500 
L 1178 0 
L 603 0 
L 603 3500 
z
M 603 4863 
L 1178 4863 
L 1178 4134 
L 603 4134 
L 603 4863 
z
" transform="scale(0.015625)"/>
       <path id="DejaVuSans-6f" d="M 1959 3097 
Q 1497 3097 1228 2736 
Q 959 2375 959 1747 
Q 959 1119 1226 758 
Q 1494 397 1959 397 
Q 2419 397 2687 759 
Q 2956 1122 2956 1747 
Q 2956 2369 2687 2733 
Q 2419 3097 1959 3097 
z
M 1959 3584 
Q 2709 3584 3137 3096 
Q 3566 2609 3566 1747 
Q 3566 888 3137 398 
Q 2709 -91 1959 -91 
Q 1206 -91 779 398 
Q 353 888 353 1747 
Q 353 2609 779 3096 
Q 1206 3584 1959 3584 
z
" transform="scale(0.015625)"/>
       <path id="DejaVuSans-6e" d="M 3513 2113 
L 3513 0 
L 2938 0 
L 2938 2094 
Q 2938 2591 2744 2837 
Q 2550 3084 2163 3084 
Q 1697 3084 1428 2787 
Q 1159 2491 1159 1978 
L 1159 0 
L 581 0 
L 581 3500 
L 1159 3500 
L 1159 2956 
Q 1366 3272 1645 3428 
Q 1925 3584 2291 3584 
Q 2894 3584 3203 3211 
Q 3513 2838 3513 2113 
z
" transform="scale(0.015625)"/>
      </defs>
      <use xlink:href="#DejaVuSans-47"/>
      <use xlink:href="#DejaVuSans-54" x="73.865234"/>
      <use xlink:href="#DejaVuSans-20" x="134.949219"/>
      <use xlink:href="#DejaVuSans-46" x="166.736328"/>
      <use xlink:href="#DejaVuSans-72" x="217.005859"/>
      <use xlink:href="#DejaVuSans-61" x="258.119141"/>
      <use xlink:href="#DejaVuSans-63" x="319.398438"/>
      <use xlink:href="#DejaVuSans-74" x="374.378906"/>
      <use xlink:href="#DejaVuSans-69" x="413.587891"/>
      <use xlink:href="#DejaVuSans-6f" x="441.371094"/>
      <use xlink:href="#DejaVuSans-6e" x="502.552734"/>
     </g>
    </g>
   </g>
   <g id="matplotlib.axis_2">
    <g id="ytick_1">
     <g id="line2d_13">
      <path d="M 57.6 296.475412 
L 414.72 296.475412 
" clip-path="url(#pf56bc64ead)" style="fill: none; stroke: #b0b0b0; stroke-width: 0.8; stroke-linecap: square"/>
     </g>
     <g id="line2d_14">
      <defs>
       <path id="mc343731c97" d="M 0 0 
L -3.5 0 
" style="stroke: #000000; stroke-width: 0.8"/>
      </defs>
      <g>
       <use xlink:href="#mc343731c97" x="57.6" y="296.475412" style="stroke: #000000; stroke-width: 0.8"/>
      </g>
     </g>
     <g id="text_8">
      <!-- 0.0 -->
      <g transform="translate(34.696875 300.274631) scale(0.1 -0.1)">
       <use xlink:href="#DejaVuSans-30"/>
       <use xlink:href="#DejaVuSans-2e" x="63.623047"/>
       <use xlink:href="#DejaVuSans-30" x="95.410156"/>
      </g>
     </g>
    </g>
    <g id="ytick_2">
     <g id="line2d_15">
      <path d="M 57.6 246.409015 
L 414.72 246.409015 
" clip-path="url(#pf56bc64ead)" style="fill: none; stroke: #b0b0b0; stroke-width: 0.8; stroke-linecap: square"/>
     </g>
     <g id="line2d_16">
      <g>
       <use xlink:href="#mc343731c97" x="57.6" y="246.409015" style="stroke: #000000; stroke-width: 0.8"/>
      </g>
     </g>
     <g id="text_9">
      <!-- 0.2 -->
      <g transform="translate(34.696875 250.208233) scale(0.1 -0.1)">
       <use xlink:href="#DejaVuSans-30"/>
       <use xlink:href="#DejaVuSans-2e" x="63.623047"/>
       <use xlink:href="#DejaVuSans-32" x="95.410156"/>
      </g>
     </g>
    </g>
    <g id="ytick_3">
     <g id="line2d_17">
      <path d="M 57.6 196.342617 
L 414.72 196.342617 
" clip-path="url(#pf56bc64ead)" style="fill: none; stroke: #b0b0b0; stroke-width: 0.8; stroke-linecap: square"/>
     </g>
     <g id="line2d_18">
      <g>
       <use xlink:href="#mc343731c97" x="57.6" y="196.342617" style="stroke: #000000; stroke-width: 0.8"/>
      </g>
     </g>
     <g id="text_10">
      <!-- 0.4 -->
      <g transform="translate(34.696875 200.141836) scale(0.1 -0.1)">
       <use xlink:href="#DejaVuSans-30"/>
       <use xlink:href="#DejaVuSans-2e" x="63.623047"/>
       <use xlink:href="#DejaVuSans-34" x="95.410156"/>
      </g>
     </g>
    </g>
    <g id="ytick_4">
     <g id="line2d_19">
      <path d="M 57.6 146.27622 
L 414.72 146.27622 
" clip-path="url(#pf56bc64ead)" style="fill: none; stroke: #b0b0b0; stroke-width: 0.8; stroke-linecap: square"/>
     </g>
     <g id="line2d_20">
      <g>
       <use xlink:href="#mc343731c97" x="57.6" y="146.27622" style="stroke: #000000; stroke-width: 0.8"/>
      </g>
     </g>
     <g id="text_11">
      <!-- 0.6 -->
      <g transform="translate(34.696875 150.075439) scale(0.1 -0.1)">
       <use xlink:href="#DejaVuSans-30"/>
       <use xlink:href="#DejaVuSans-2e" x="63.623047"/>
       <use xlink:href="#DejaVuSans-36" x="95.410156"/>
      </g>
     </g>
    </g>
    <g id="ytick_5">
     <g id="line2d_21">
      <path d="M 57.6 96.209823 
L 414.72 96.209823 
" clip-path="url(#pf56bc64ead)" style="fill: none; stroke: #b0b0b0; stroke-width: 0.8; stroke-linecap: square"/>
     </g>
     <g id="line2d_22">
      <g>
       <use xlink:href="#mc343731c97" x="57.6" y="96.209823" style="stroke: #000000; stroke-width: 0.8"/>
      </g>
     </g>
     <g id="text_12">
      <!-- 0.8 -->
      <g transform="translate(34.696875 100.009041) scale(0.1 -0.1)">
       <use xlink:href="#DejaVuSans-30"/>
       <use xlink:href="#DejaVuSans-2e" x="63.623047"/>
       <use xlink:href="#DejaVuSans-38" x="95.410156"/>
      </g>
     </g>
    </g>
    <g id="ytick_6">
     <g id="line2d_23">
      <path d="M 57.6 46.143425 
L 414.72 46.143425 
" clip-path="url(#pf56bc64ead)" style="fill: none; stroke: #b0b0b0; stroke-width: 0.8; stroke-linecap: square"/>
     </g>
     <g id="line2d_24">
      <g>
       <use xlink:href="#mc343731c97" x="57.6" y="46.143425" style="stroke: #000000; stroke-width: 0.8"/>
      </g>
     </g>
     <g id="text_13">
      <!-- 1.0 -->
      <g transform="translate(34.696875 49.942644) scale(0.1 -0.1)">
       <use xlink:href="#DejaVuSans-31"/>
       <use xlink:href="#DejaVuSans-2e" x="63.623047"/>
       <use xlink:href="#DejaVuSans-30" x="95.410156"/>
      </g>
     </g>
    </g>
    <g id="text_14">
     <!-- Predicted Fraction -->
     <g transform="translate(28.617187 219.54675) rotate(-90) scale(0.1 -0.1)">
      <defs>
       <path id="DejaVuSans-50" d="M 1259 4147 
L 1259 2394 
L 2053 2394 
Q 2494 2394 2734 2622 
Q 2975 2850 2975 3272 
Q 2975 3691 2734 3919 
Q 2494 4147 2053 4147 
L 1259 4147 
z
M 628 4666 
L 2053 4666 
Q 2838 4666 3239 4311 
Q 3641 3956 3641 3272 
Q 3641 2581 3239 2228 
Q 2838 1875 2053 1875 
L 1259 1875 
L 1259 0 
L 628 0 
L 628 4666 
z
" transform="scale(0.015625)"/>
       <path id="DejaVuSans-65" d="M 3597 1894 
L 3597 1613 
L 953 1613 
Q 991 1019 1311 708 
Q 1631 397 2203 397 
Q 2534 397 2845 478 
Q 3156 559 3463 722 
L 3463 178 
Q 3153 47 2828 -22 
Q 2503 -91 2169 -91 
Q 1331 -91 842 396 
Q 353 884 353 1716 
Q 353 2575 817 3079 
Q 1281 3584 2069 3584 
Q 2775 3584 3186 3129 
Q 3597 2675 3597 1894 
z
M 3022 2063 
Q 3016 2534 2758 2815 
Q 2500 3097 2075 3097 
Q 1594 3097 1305 2825 
Q 1016 2553 972 2059 
L 3022 2063 
z
" transform="scale(0.015625)"/>
       <path id="DejaVuSans-64" d="M 2906 2969 
L 2906 4863 
L 3481 4863 
L 3481 0 
L 2906 0 
L 2906 525 
Q 2725 213 2448 61 
Q 2172 -91 1784 -91 
Q 1150 -91 751 415 
Q 353 922 353 1747 
Q 353 2572 751 3078 
Q 1150 3584 1784 3584 
Q 2172 3584 2448 3432 
Q 2725 3281 2906 2969 
z
M 947 1747 
Q 947 1113 1208 752 
Q 1469 391 1925 391 
Q 2381 391 2643 752 
Q 2906 1113 2906 1747 
Q 2906 2381 2643 2742 
Q 2381 3103 1925 3103 
Q 1469 3103 1208 2742 
Q 947 2381 947 1747 
z
" transform="scale(0.015625)"/>
      </defs>
      <use xlink:href="#DejaVuSans-50"/>
      <use xlink:href="#DejaVuSans-72" x="58.552734"/>
      <use xlink:href="#DejaVuSans-65" x="97.416016"/>
      <use xlink:href="#DejaVuSans-64" x="158.939453"/>
      <use xlink:href="#DejaVuSans-69" x="222.416016"/>
      <use xlink:href="#DejaVuSans-63" x="250.199219"/>
      <use xlink:href="#DejaVuSans-74" x="305.179688"/>
      <use xlink:href="#DejaVuSans-65" x="344.388672"/>
      <use xlink:href="#DejaVuSans-64" x="405.912109"/>
      <use xlink:href="#DejaVuSans-20" x="469.388672"/>
      <use xlink:href="#DejaVuSans-46" x="501.175781"/>
      <use xlink:href="#DejaVuSans-72" x="551.445312"/>
      <use xlink:href="#DejaVuSans-61" x="592.558594"/>
      <use xlink:href="#DejaVuSans-63" x="653.837891"/>
      <use xlink:href="#DejaVuSans-74" x="708.818359"/>
      <use xlink:href="#DejaVuSans-69" x="748.027344"/>
      <use xlink:href="#DejaVuSans-6f" x="775.810547"/>
      <use xlink:href="#DejaVuSans-6e" x="836.992188"/>
     </g>
    </g>
   </g>
   <g id="line2d_25">
    <path d="M 73.832727 284.988789 
L 77.112066 282.686125 
L 80.391405 280.38346 
L 83.670744 278.080796 
L 86.950083 275.778132 
L 90.229421 273.475467 
L 93.50876 271.172803 
L 96.788099 268.870139 
L 100.067438 266.567474 
L 103.346777 264.26481 
L 106.626116 261.962146 
L 109.905455 259.659481 
L 113.184793 257.356817 
L 116.464132 255.054153 
L 119.743471 252.751489 
L 123.02281 250.448824 
L 126.302149 248.14616 
L 129.581488 245.843496 
L 132.860826 243.540831 
L 136.140165 241.238167 
L 139.419504 238.935503 
L 142.698843 236.632838 
L 145.978182 234.330174 
L 149.257521 232.02751 
L 152.53686 229.724845 
L 155.816198 227.422181 
L 159.095537 225.119517 
L 162.374876 222.816852 
L 165.654215 220.514188 
L 168.933554 218.211524 
L 172.212893 215.908859 
L 175.492231 213.606195 
L 178.77157 211.303531 
L 182.050909 209.000866 
L 185.330248 206.698202 
L 188.609587 204.395538 
L 191.888926 202.092873 
L 195.168264 199.790209 
L 198.447603 197.487545 
L 201.726942 195.18488 
L 205.006281 192.882216 
L 208.28562 190.579552 
L 211.564959 188.276887 
L 214.844298 185.974223 
L 218.123636 183.671559 
L 221.402975 181.368894 
L 224.682314 179.06623 
L 227.961653 176.763566 
L 231.240992 174.460901 
L 234.520331 172.158237 
L 237.799669 169.855573 
L 241.079008 167.552908 
L 244.358347 165.250244 
L 247.637686 162.94758 
L 250.917025 160.644916 
L 254.196364 158.342251 
L 257.475702 156.039587 
L 260.755041 153.736923 
L 264.03438 151.434258 
L 267.313719 149.131594 
L 270.593058 146.82893 
L 273.872397 144.526265 
L 277.151736 142.223601 
L 280.431074 139.920937 
L 283.710413 137.618272 
L 286.989752 135.315608 
L 290.269091 133.012944 
L 293.54843 130.710279 
L 296.827769 128.407615 
L 300.107107 126.104951 
L 303.386446 123.802286 
L 306.665785 121.499622 
L 309.945124 119.196958 
L 313.224463 116.894293 
L 316.503802 114.591629 
L 319.78314 112.288965 
L 323.062479 109.9863 
L 326.341818 107.683636 
L 329.621157 105.380972 
L 332.900496 103.078307 
L 336.179835 100.775643 
L 339.459174 98.472979 
L 342.738512 96.170314 
L 346.017851 93.86765 
L 349.29719 91.564986 
L 352.576529 89.262321 
L 355.855868 86.959657 
L 359.135207 84.656993 
L 362.414545 82.354328 
L 365.693884 80.051664 
L 368.973223 77.749 
L 372.252562 75.446336 
L 375.531901 73.143671 
L 378.81124 70.841007 
L 382.090579 68.538343 
L 385.369917 66.235678 
L 388.649256 63.933014 
L 391.928595 61.63035 
L 395.207934 59.327685 
L 398.487273 57.025021 
" clip-path="url(#pf56bc64ead)" style="fill: none; stroke: #ff0000; stroke-width: 1.5; stroke-linecap: square"/>
   </g>
   <g id="patch_3">
    <path d="M 57.6 307.584 
L 57.6 41.472 
" style="fill: none; stroke: #000000; stroke-width: 0.8; stroke-linejoin: miter; stroke-linecap: square"/>
   </g>
   <g id="patch_4">
    <path d="M 414.72 307.584 
L 414.72 41.472 
" style="fill: none; stroke: #000000; stroke-width: 0.8; stroke-linejoin: miter; stroke-linecap: square"/>
   </g>
   <g id="patch_5">
    <path d="M 57.6 307.584 
L 414.72 307.584 
" style="fill: none; stroke: #000000; stroke-width: 0.8; stroke-linejoin: miter; stroke-linecap: square"/>
   </g>
   <g id="patch_6">
    <path d="M 57.6 41.472 
L 414.72 41.472 
" style="fill: none; stroke: #000000; stroke-width: 0.8; stroke-linejoin: miter; stroke-linecap: square"/>
   </g>
   <g id="legend_1">
    <g id="patch_7">
     <path d="M 247.824688 302.584 
L 407.72 302.584 
Q 409.72 302.584 409.72 300.584 
L 409.72 272.22775 
Q 409.72 270.22775 407.72 270.22775 
L 247.824688 270.22775 
Q 245.824688 270.22775 245.824688 272.22775 
L 245.824688 300.584 
Q 245.824688 302.584 247.824688 302.584 
z
" style="fill: #ffffff; opacity: 0.8; stroke: #cccccc; stroke-linejoin: miter"/>
    </g>
    <g id="PathCollection_2">
     <g>
      <use xlink:href="#m16ca646e64" x="259.824687" y="279.201187" style="fill: #0000ff; stroke: #0000ff"/>
     </g>
    </g>
    <g id="text_15">
     <!-- Data Points -->
     <g transform="translate(277.824687 281.826187) scale(0.1 -0.1)">
      <defs>
       <path id="DejaVuSans-44" d="M 1259 4147 
L 1259 519 
L 2022 519 
Q 2988 519 3436 956 
Q 3884 1394 3884 2338 
Q 3884 3275 3436 3711 
Q 2988 4147 2022 4147 
L 1259 4147 
z
M 628 4666 
L 1925 4666 
Q 3281 4666 3915 4102 
Q 4550 3538 4550 2338 
Q 4550 1131 3912 565 
Q 3275 0 1925 0 
L 628 0 
L 628 4666 
z
" transform="scale(0.015625)"/>
       <path id="DejaVuSans-73" d="M 2834 3397 
L 2834 2853 
Q 2591 2978 2328 3040 
Q 2066 3103 1784 3103 
Q 1356 3103 1142 2972 
Q 928 2841 928 2578 
Q 928 2378 1081 2264 
Q 1234 2150 1697 2047 
L 1894 2003 
Q 2506 1872 2764 1633 
Q 3022 1394 3022 966 
Q 3022 478 2636 193 
Q 2250 -91 1575 -91 
Q 1294 -91 989 -36 
Q 684 19 347 128 
L 347 722 
Q 666 556 975 473 
Q 1284 391 1588 391 
Q 1994 391 2212 530 
Q 2431 669 2431 922 
Q 2431 1156 2273 1281 
Q 2116 1406 1581 1522 
L 1381 1569 
Q 847 1681 609 1914 
Q 372 2147 372 2553 
Q 372 3047 722 3315 
Q 1072 3584 1716 3584 
Q 2034 3584 2315 3537 
Q 2597 3491 2834 3397 
z
" transform="scale(0.015625)"/>
      </defs>
      <use xlink:href="#DejaVuSans-44"/>
      <use xlink:href="#DejaVuSans-61" x="77.001953"/>
      <use xlink:href="#DejaVuSans-74" x="138.28125"/>
      <use xlink:href="#DejaVuSans-61" x="177.490234"/>
      <use xlink:href="#DejaVuSans-20" x="238.769531"/>
      <use xlink:href="#DejaVuSans-50" x="270.556641"/>
      <use xlink:href="#DejaVuSans-6f" x="327.234375"/>
      <use xlink:href="#DejaVuSans-69" x="388.416016"/>
      <use xlink:href="#DejaVuSans-6e" x="416.199219"/>
      <use xlink:href="#DejaVuSans-74" x="479.578125"/>
      <use xlink:href="#DejaVuSans-73" x="518.787109"/>
     </g>
    </g>
    <g id="line2d_26">
     <path d="M 249.824688 293.004312 
L 259.824687 293.004312 
L 269.824687 293.004312 
" style="fill: none; stroke: #ff0000; stroke-width: 1.5; stroke-linecap: square"/>
    </g>
    <g id="text_16">
     <!-- Fitted Line (Slope = 0.92) -->
     <g transform="translate(277.824687 296.504312) scale(0.1 -0.1)">
      <defs>
       <path id="DejaVuSans-4c" d="M 628 4666 
L 1259 4666 
L 1259 531 
L 3531 531 
L 3531 0 
L 628 0 
L 628 4666 
z
" transform="scale(0.015625)"/>
       <path id="DejaVuSans-28" d="M 1984 4856 
Q 1566 4138 1362 3434 
Q 1159 2731 1159 2009 
Q 1159 1288 1364 580 
Q 1569 -128 1984 -844 
L 1484 -844 
Q 1016 -109 783 600 
Q 550 1309 550 2009 
Q 550 2706 781 3412 
Q 1013 4119 1484 4856 
L 1984 4856 
z
" transform="scale(0.015625)"/>
       <path id="DejaVuSans-53" d="M 3425 4513 
L 3425 3897 
Q 3066 4069 2747 4153 
Q 2428 4238 2131 4238 
Q 1616 4238 1336 4038 
Q 1056 3838 1056 3469 
Q 1056 3159 1242 3001 
Q 1428 2844 1947 2747 
L 2328 2669 
Q 3034 2534 3370 2195 
Q 3706 1856 3706 1288 
Q 3706 609 3251 259 
Q 2797 -91 1919 -91 
Q 1588 -91 1214 -16 
Q 841 59 441 206 
L 441 856 
Q 825 641 1194 531 
Q 1563 422 1919 422 
Q 2459 422 2753 634 
Q 3047 847 3047 1241 
Q 3047 1584 2836 1778 
Q 2625 1972 2144 2069 
L 1759 2144 
Q 1053 2284 737 2584 
Q 422 2884 422 3419 
Q 422 4038 858 4394 
Q 1294 4750 2059 4750 
Q 2388 4750 2728 4690 
Q 3069 4631 3425 4513 
z
" transform="scale(0.015625)"/>
       <path id="DejaVuSans-6c" d="M 603 4863 
L 1178 4863 
L 1178 0 
L 603 0 
L 603 4863 
z
" transform="scale(0.015625)"/>
       <path id="DejaVuSans-70" d="M 1159 525 
L 1159 -1331 
L 581 -1331 
L 581 3500 
L 1159 3500 
L 1159 2969 
Q 1341 3281 1617 3432 
Q 1894 3584 2278 3584 
Q 2916 3584 3314 3078 
Q 3713 2572 3713 1747 
Q 3713 922 3314 415 
Q 2916 -91 2278 -91 
Q 1894 -91 1617 61 
Q 1341 213 1159 525 
z
M 3116 1747 
Q 3116 2381 2855 2742 
Q 2594 3103 2138 3103 
Q 1681 3103 1420 2742 
Q 1159 2381 1159 1747 
Q 1159 1113 1420 752 
Q 1681 391 2138 391 
Q 2594 391 2855 752 
Q 3116 1113 3116 1747 
z
" transform="scale(0.015625)"/>
       <path id="DejaVuSans-3d" d="M 678 2906 
L 4684 2906 
L 4684 2381 
L 678 2381 
L 678 2906 
z
M 678 1631 
L 4684 1631 
L 4684 1100 
L 678 1100 
L 678 1631 
z
" transform="scale(0.015625)"/>
       <path id="DejaVuSans-39" d="M 703 97 
L 703 672 
Q 941 559 1184 500 
Q 1428 441 1663 441 
Q 2288 441 2617 861 
Q 2947 1281 2994 2138 
Q 2813 1869 2534 1725 
Q 2256 1581 1919 1581 
Q 1219 1581 811 2004 
Q 403 2428 403 3163 
Q 403 3881 828 4315 
Q 1253 4750 1959 4750 
Q 2769 4750 3195 4129 
Q 3622 3509 3622 2328 
Q 3622 1225 3098 567 
Q 2575 -91 1691 -91 
Q 1453 -91 1209 -44 
Q 966 3 703 97 
z
M 1959 2075 
Q 2384 2075 2632 2365 
Q 2881 2656 2881 3163 
Q 2881 3666 2632 3958 
Q 2384 4250 1959 4250 
Q 1534 4250 1286 3958 
Q 1038 3666 1038 3163 
Q 1038 2656 1286 2365 
Q 1534 2075 1959 2075 
z
" transform="scale(0.015625)"/>
       <path id="DejaVuSans-29" d="M 513 4856 
L 1013 4856 
Q 1481 4119 1714 3412 
Q 1947 2706 1947 2009 
Q 1947 1309 1714 600 
Q 1481 -109 1013 -844 
L 513 -844 
Q 928 -128 1133 580 
Q 1338 1288 1338 2009 
Q 1338 2731 1133 3434 
Q 928 4138 513 4856 
z
" transform="scale(0.015625)"/>
      </defs>
      <use xlink:href="#DejaVuSans-46"/>
      <use xlink:href="#DejaVuSans-69" x="50.269531"/>
      <use xlink:href="#DejaVuSans-74" x="78.052734"/>
      <use xlink:href="#DejaVuSans-74" x="117.261719"/>
      <use xlink:href="#DejaVuSans-65" x="156.470703"/>
      <use xlink:href="#DejaVuSans-64" x="217.994141"/>
      <use xlink:href="#DejaVuSans-20" x="281.470703"/>
      <use xlink:href="#DejaVuSans-4c" x="313.257812"/>
      <use xlink:href="#DejaVuSans-69" x="368.970703"/>
      <use xlink:href="#DejaVuSans-6e" x="396.753906"/>
      <use xlink:href="#DejaVuSans-65" x="460.132812"/>
      <use xlink:href="#DejaVuSans-20" x="521.65625"/>
      <use xlink:href="#DejaVuSans-28" x="553.443359"/>
      <use xlink:href="#DejaVuSans-53" x="592.457031"/>
      <use xlink:href="#DejaVuSans-6c" x="655.933594"/>
      <use xlink:href="#DejaVuSans-6f" x="683.716797"/>
      <use xlink:href="#DejaVuSans-70" x="744.898438"/>
      <use xlink:href="#DejaVuSans-65" x="808.375"/>
      <use xlink:href="#DejaVuSans-20" x="869.898438"/>
      <use xlink:href="#DejaVuSans-3d" x="901.685547"/>
      <use xlink:href="#DejaVuSans-20" x="985.474609"/>
      <use xlink:href="#DejaVuSans-30" x="1017.261719"/>
      <use xlink:href="#DejaVuSans-2e" x="1080.884766"/>
      <use xlink:href="#DejaVuSans-39" x="1112.671875"/>
      <use xlink:href="#DejaVuSans-32" x="1176.294922"/>
      <use xlink:href="#DejaVuSans-29" x="1239.917969"/>
     </g>
    </g>
   </g>
  </g>
 </g>
 <defs>
  <clipPath id="pf56bc64ead">
   <rect x="57.6" y="41.472" width="357.12" height="266.112"/>
  </clipPath>
 </defs>
</svg>
