<?xml version="1.0" encoding="utf-8" standalone="no"?>
<!DOCTYPE svg PUBLIC "-//W3C//DTD SVG 1.1//EN"
  "http://www.w3.org/Graphics/SVG/1.1/DTD/svg11.dtd">
<svg xmlns:xlink="http://www.w3.org/1999/xlink" width="460.8pt" height="345.6pt" viewBox="0 0 460.8 345.6" xmlns="http://www.w3.org/2000/svg" version="1.1">
 <metadata>
  <rdf:RDF xmlns:dc="http://purl.org/dc/elements/1.1/" xmlns:cc="http://creativecommons.org/ns#" xmlns:rdf="http://www.w3.org/1999/02/22-rdf-syntax-ns#">
   <cc:Work>
    <dc:type rdf:resource="http://purl.org/dc/dcmitype/StillImage"/>
    <dc:date>2023-09-30T05:49:59.976742</dc:date>
    <dc:format>image/svg+xml</dc:format>
    <dc:creator>
     <cc:Agent>
      <dc:title>Matplotlib v3.7.2, https://matplotlib.org/</dc:title>
     </cc:Agent>
    </dc:creator>
   </cc:Work>
  </rdf:RDF>
 </metadata>
 <defs>
  <style type="text/css">*{stroke-linejoin: round; stroke-linecap: butt}</style>
 </defs>
 <g id="figure_1">
  <g id="patch_1">
   <path d="M 0 345.6 
L 460.8 345.6 
L 460.8 0 
L 0 0 
z
" style="fill: #ffffff"/>
  </g>
  <g id="axes_1">
   <g id="patch_2">
    <path d="M 57.6 307.584 
L 414.72 307.584 
L 414.72 41.472 
L 57.6 41.472 
z
" style="fill: #ffffff"/>
   </g>
   <g id="PathCollection_1">
    <defs>
     <path id="ma402d435e0" d="M 0 3 
C 0.795609 3 1.55874 2.683901 2.12132 2.12132 
C 2.683901 1.55874 3 0.795609 3 0 
C 3 -0.795609 2.683901 -1.55874 2.12132 -2.12132 
C 1.55874 -2.683901 0.795609 -3 0 -3 
C -0.795609 -3 -1.55874 -2.683901 -2.12132 -2.12132 
C -2.683901 -1.55874 -3 -0.795609 -3 0 
C -3 0.795609 -2.683901 1.55874 -2.12132 2.12132 
C -1.55874 2.683901 -0.795609 3 0 3 
z
" style="stroke: #0000ff"/>
    </defs>
    <g clip-path="url(#p5b6bce9605)">
     <use xlink:href="#ma402d435e0" x="398.487273" y="53.568" style="fill: #0000ff; stroke: #0000ff"/>
     <use xlink:href="#ma402d435e0" x="243.575967" y="182.915789" style="fill: #0000ff; stroke: #0000ff"/>
     <use xlink:href="#ma402d435e0" x="190.840203" y="230.18678" style="fill: #0000ff; stroke: #0000ff"/>
     <use xlink:href="#ma402d435e0" x="110.088565" y="275.345606" style="fill: #0000ff; stroke: #0000ff"/>
     <use xlink:href="#ma402d435e0" x="260.879889" y="159.994309" style="fill: #0000ff; stroke: #0000ff"/>
     <use xlink:href="#ma402d435e0" x="225.448048" y="189.934625" style="fill: #0000ff; stroke: #0000ff"/>
     <use xlink:href="#ma402d435e0" x="219.680074" y="198.258687" style="fill: #0000ff; stroke: #0000ff"/>
     <use xlink:href="#ma402d435e0" x="110.088565" y="262.645592" style="fill: #0000ff; stroke: #0000ff"/>
     <use xlink:href="#ma402d435e0" x="374.59138" y="59.664342" style="fill: #0000ff; stroke: #0000ff"/>
     <use xlink:href="#ma402d435e0" x="213.9121" y="59.786514" style="fill: #0000ff; stroke: #0000ff"/>
     <use xlink:href="#ma402d435e0" x="375.415376" y="59.831382" style="fill: #0000ff; stroke: #0000ff"/>
     <use xlink:href="#ma402d435e0" x="114.208546" y="263.942066" style="fill: #0000ff; stroke: #0000ff"/>
     <use xlink:href="#ma402d435e0" x="293.015745" y="136.013151" style="fill: #0000ff; stroke: #0000ff"/>
     <use xlink:href="#ma402d435e0" x="351.519483" y="97.896781" style="fill: #0000ff; stroke: #0000ff"/>
     <use xlink:href="#ma402d435e0" x="89.488657" y="288.236891" style="fill: #0000ff; stroke: #0000ff"/>
     <use xlink:href="#ma402d435e0" x="349.871491" y="109.99882" style="fill: #0000ff; stroke: #0000ff"/>
     <use xlink:href="#ma402d435e0" x="375.415376" y="85.667139" style="fill: #0000ff; stroke: #0000ff"/>
     <use xlink:href="#ma402d435e0" x="382.831343" y="65.387451" style="fill: #0000ff; stroke: #0000ff"/>
     <use xlink:href="#ma402d435e0" x="321.855616" y="126.07659" style="fill: #0000ff; stroke: #0000ff"/>
     <use xlink:href="#ma402d435e0" x="251.81593" y="163.223486" style="fill: #0000ff; stroke: #0000ff"/>
     <use xlink:href="#ma402d435e0" x="333.391564" y="141.712252" style="fill: #0000ff; stroke: #0000ff"/>
     <use xlink:href="#ma402d435e0" x="136.456447" y="262.008628" style="fill: #0000ff; stroke: #0000ff"/>
     <use xlink:href="#ma402d435e0" x="190.840203" y="223.820578" style="fill: #0000ff; stroke: #0000ff"/>
     <use xlink:href="#ma402d435e0" x="255.111915" y="186.700883" style="fill: #0000ff; stroke: #0000ff"/>
     <use xlink:href="#ma402d435e0" x="79.600701" y="295.488" style="fill: #0000ff; stroke: #0000ff"/>
     <use xlink:href="#ma402d435e0" x="396.83928" y="62.834969" style="fill: #0000ff; stroke: #0000ff"/>
     <use xlink:href="#ma402d435e0" x="245.223959" y="171.097077" style="fill: #0000ff; stroke: #0000ff"/>
     <use xlink:href="#ma402d435e0" x="281.479797" y="145.382089" style="fill: #0000ff; stroke: #0000ff"/>
     <use xlink:href="#ma402d435e0" x="379.535358" y="66.620995" style="fill: #0000ff; stroke: #0000ff"/>
     <use xlink:href="#ma402d435e0" x="250.991934" y="164.31652" style="fill: #0000ff; stroke: #0000ff"/>
     <use xlink:href="#ma402d435e0" x="386.127328" y="68.737368" style="fill: #0000ff; stroke: #0000ff"/>
     <use xlink:href="#ma402d435e0" x="300.431712" y="139.738763" style="fill: #0000ff; stroke: #0000ff"/>
     <use xlink:href="#ma402d435e0" x="90.312653" y="291.510688" style="fill: #0000ff; stroke: #0000ff"/>
     <use xlink:href="#ma402d435e0" x="309.495671" y="148.74457" style="fill: #0000ff; stroke: #0000ff"/>
     <use xlink:href="#ma402d435e0" x="263.351878" y="175.417184" style="fill: #0000ff; stroke: #0000ff"/>
     <use xlink:href="#ma402d435e0" x="158.704347" y="237.303416" style="fill: #0000ff; stroke: #0000ff"/>
     <use xlink:href="#ma402d435e0" x="77.952709" y="291.215707" style="fill: #0000ff; stroke: #0000ff"/>
     <use xlink:href="#ma402d435e0" x="107.616576" y="282.088482" style="fill: #0000ff; stroke: #0000ff"/>
     <use xlink:href="#ma402d435e0" x="132.336465" y="266.491302" style="fill: #0000ff; stroke: #0000ff"/>
     <use xlink:href="#ma402d435e0" x="143.048417" y="244.191646" style="fill: #0000ff; stroke: #0000ff"/>
     <use xlink:href="#ma402d435e0" x="143.048417" y="259.707731" style="fill: #0000ff; stroke: #0000ff"/>
     <use xlink:href="#ma402d435e0" x="90.312653" y="273.54951" style="fill: #0000ff; stroke: #0000ff"/>
     <use xlink:href="#ma402d435e0" x="289.71976" y="126.584663" style="fill: #0000ff; stroke: #0000ff"/>
     <use xlink:href="#ma402d435e0" x="141.400425" y="268.872648" style="fill: #0000ff; stroke: #0000ff"/>
     <use xlink:href="#ma402d435e0" x="73.832727" y="285.376898" style="fill: #0000ff; stroke: #0000ff"/>
     <use xlink:href="#ma402d435e0" x="285.599778" y="149.698735" style="fill: #0000ff; stroke: #0000ff"/>
     <use xlink:href="#ma402d435e0" x="359.759446" y="94.098654" style="fill: #0000ff; stroke: #0000ff"/>
     <use xlink:href="#ma402d435e0" x="95.256631" y="283.665299" style="fill: #0000ff; stroke: #0000ff"/>
     <use xlink:href="#ma402d435e0" x="94.432635" y="263.822668" style="fill: #0000ff; stroke: #0000ff"/>
     <use xlink:href="#ma402d435e0" x="250.991934" y="178.303007" style="fill: #0000ff; stroke: #0000ff"/>
     <use xlink:href="#ma402d435e0" x="175.184273" y="228.367416" style="fill: #0000ff; stroke: #0000ff"/>
     <use xlink:href="#ma402d435e0" x="120.800517" y="261.042679" style="fill: #0000ff; stroke: #0000ff"/>
     <use xlink:href="#ma402d435e0" x="101.024605" y="60.016804" style="fill: #0000ff; stroke: #0000ff"/>
     <use xlink:href="#ma402d435e0" x="347.399502" y="116.079584" style="fill: #0000ff; stroke: #0000ff"/>
     <use xlink:href="#ma402d435e0" x="134.808454" y="259.346301" style="fill: #0000ff; stroke: #0000ff"/>
     <use xlink:href="#ma402d435e0" x="382.831343" y="78.113707" style="fill: #0000ff; stroke: #0000ff"/>
     <use xlink:href="#ma402d435e0" x="260.879889" y="151.251677" style="fill: #0000ff; stroke: #0000ff"/>
     <use xlink:href="#ma402d435e0" x="336.68755" y="110.089808" style="fill: #0000ff; stroke: #0000ff"/>
     <use xlink:href="#ma402d435e0" x="365.52742" y="84.757737" style="fill: #0000ff; stroke: #0000ff"/>
     <use xlink:href="#ma402d435e0" x="264.999871" y="172.182352" style="fill: #0000ff; stroke: #0000ff"/>
     <use xlink:href="#ma402d435e0" x="223.800055" y="204.932984" style="fill: #0000ff; stroke: #0000ff"/>
     <use xlink:href="#ma402d435e0" x="254.287919" y="183.549489" style="fill: #0000ff; stroke: #0000ff"/>
     <use xlink:href="#ma402d435e0" x="141.400425" y="258.574832" style="fill: #0000ff; stroke: #0000ff"/>
     <use xlink:href="#ma402d435e0" x="218.032081" y="203.153027" style="fill: #0000ff; stroke: #0000ff"/>
     <use xlink:href="#ma402d435e0" x="346.575505" y="97.436843" style="fill: #0000ff; stroke: #0000ff"/>
     <use xlink:href="#ma402d435e0" x="96.904624" y="278.093968" style="fill: #0000ff; stroke: #0000ff"/>
     <use xlink:href="#ma402d435e0" x="308.671675" y="140.185168" style="fill: #0000ff; stroke: #0000ff"/>
     <use xlink:href="#ma402d435e0" x="232.040018" y="164.235753" style="fill: #0000ff; stroke: #0000ff"/>
     <use xlink:href="#ma402d435e0" x="337.511546" y="111.508626" style="fill: #0000ff; stroke: #0000ff"/>
     <use xlink:href="#ma402d435e0" x="372.119391" y="59.932799" style="fill: #0000ff; stroke: #0000ff"/>
     <use xlink:href="#ma402d435e0" x="306.199686" y="128.230026" style="fill: #0000ff; stroke: #0000ff"/>
     <use xlink:href="#ma402d435e0" x="250.991934" y="174.261765" style="fill: #0000ff; stroke: #0000ff"/>
     <use xlink:href="#ma402d435e0" x="312.791657" y="121.96281" style="fill: #0000ff; stroke: #0000ff"/>
     <use xlink:href="#ma402d435e0" x="204.024144" y="224.495713" style="fill: #0000ff; stroke: #0000ff"/>
     <use xlink:href="#ma402d435e0" x="184.248233" y="218.106929" style="fill: #0000ff; stroke: #0000ff"/>
     <use xlink:href="#ma402d435e0" x="328.447587" y="92.470659" style="fill: #0000ff; stroke: #0000ff"/>
     <use xlink:href="#ma402d435e0" x="153.760369" y="248.772504" style="fill: #0000ff; stroke: #0000ff"/>
     <use xlink:href="#ma402d435e0" x="230.392026" y="182.980001" style="fill: #0000ff; stroke: #0000ff"/>
     <use xlink:href="#ma402d435e0" x="185.072229" y="228.760016" style="fill: #0000ff; stroke: #0000ff"/>
     <use xlink:href="#ma402d435e0" x="201.552155" y="227.706254" style="fill: #0000ff; stroke: #0000ff"/>
     <use xlink:href="#ma402d435e0" x="220.50407" y="200.660057" style="fill: #0000ff; stroke: #0000ff"/>
     <use xlink:href="#ma402d435e0" x="321.03162" y="106.182041" style="fill: #0000ff; stroke: #0000ff"/>
     <use xlink:href="#ma402d435e0" x="380.359354" y="59.859045" style="fill: #0000ff; stroke: #0000ff"/>
     <use xlink:href="#ma402d435e0" x="346.575505" y="105.621745" style="fill: #0000ff; stroke: #0000ff"/>
     <use xlink:href="#ma402d435e0" x="133.984458" y="263.184137" style="fill: #0000ff; stroke: #0000ff"/>
     <use xlink:href="#ma402d435e0" x="188.368214" y="221.390612" style="fill: #0000ff; stroke: #0000ff"/>
     <use xlink:href="#ma402d435e0" x="363.879428" y="84.420613" style="fill: #0000ff; stroke: #0000ff"/>
     <use xlink:href="#ma402d435e0" x="192.488196" y="214.798462" style="fill: #0000ff; stroke: #0000ff"/>
     <use xlink:href="#ma402d435e0" x="375.415376" y="70.366482" style="fill: #0000ff; stroke: #0000ff"/>
     <use xlink:href="#ma402d435e0" x="391.895302" y="63.570661" style="fill: #0000ff; stroke: #0000ff"/>
    </g>
   </g>
   <g id="matplotlib.axis_1">
    <g id="xtick_1">
     <g id="line2d_1">
      <path d="M 70.536742 307.584 
L 70.536742 41.472 
" clip-path="url(#p5b6bce9605)" style="fill: none; stroke: #b0b0b0; stroke-width: 0.8; stroke-linecap: square"/>
     </g>
     <g id="line2d_2">
      <defs>
       <path id="m3c1a5fd1ec" d="M 0 0 
L 0 3.5 
" style="stroke: #000000; stroke-width: 0.8"/>
      </defs>
      <g>
       <use xlink:href="#m3c1a5fd1ec" x="70.536742" y="307.584" style="stroke: #000000; stroke-width: 0.8"/>
      </g>
     </g>
     <g id="text_1">
      <!-- 0.0 -->
      <g transform="translate(62.58518 322.182437) scale(0.1 -0.1)">
       <defs>
        <path id="DejaVuSans-30" d="M 2034 4250 
Q 1547 4250 1301 3770 
Q 1056 3291 1056 2328 
Q 1056 1369 1301 889 
Q 1547 409 2034 409 
Q 2525 409 2770 889 
Q 3016 1369 3016 2328 
Q 3016 3291 2770 3770 
Q 2525 4250 2034 4250 
z
M 2034 4750 
Q 2819 4750 3233 4129 
Q 3647 3509 3647 2328 
Q 3647 1150 3233 529 
Q 2819 -91 2034 -91 
Q 1250 -91 836 529 
Q 422 1150 422 2328 
Q 422 3509 836 4129 
Q 1250 4750 2034 4750 
z
" transform="scale(0.015625)"/>
        <path id="DejaVuSans-2e" d="M 684 794 
L 1344 794 
L 1344 0 
L 684 0 
L 684 794 
z
" transform="scale(0.015625)"/>
       </defs>
       <use xlink:href="#DejaVuSans-30"/>
       <use xlink:href="#DejaVuSans-2e" x="63.623047"/>
       <use xlink:href="#DejaVuSans-30" x="95.410156"/>
      </g>
     </g>
    </g>
    <g id="xtick_2">
     <g id="line2d_3">
      <path d="M 136.456447 307.584 
L 136.456447 41.472 
" clip-path="url(#p5b6bce9605)" style="fill: none; stroke: #b0b0b0; stroke-width: 0.8; stroke-linecap: square"/>
     </g>
     <g id="line2d_4">
      <g>
       <use xlink:href="#m3c1a5fd1ec" x="136.456447" y="307.584" style="stroke: #000000; stroke-width: 0.8"/>
      </g>
     </g>
     <g id="text_2">
      <!-- 0.2 -->
      <g transform="translate(128.504884 322.182437) scale(0.1 -0.1)">
       <defs>
        <path id="DejaVuSans-32" d="M 1228 531 
L 3431 531 
L 3431 0 
L 469 0 
L 469 531 
Q 828 903 1448 1529 
Q 2069 2156 2228 2338 
Q 2531 2678 2651 2914 
Q 2772 3150 2772 3378 
Q 2772 3750 2511 3984 
Q 2250 4219 1831 4219 
Q 1534 4219 1204 4116 
Q 875 4013 500 3803 
L 500 4441 
Q 881 4594 1212 4672 
Q 1544 4750 1819 4750 
Q 2544 4750 2975 4387 
Q 3406 4025 3406 3419 
Q 3406 3131 3298 2873 
Q 3191 2616 2906 2266 
Q 2828 2175 2409 1742 
Q 1991 1309 1228 531 
z
" transform="scale(0.015625)"/>
       </defs>
       <use xlink:href="#DejaVuSans-30"/>
       <use xlink:href="#DejaVuSans-2e" x="63.623047"/>
       <use xlink:href="#DejaVuSans-32" x="95.410156"/>
      </g>
     </g>
    </g>
    <g id="xtick_3">
     <g id="line2d_5">
      <path d="M 202.376151 307.584 
L 202.376151 41.472 
" clip-path="url(#p5b6bce9605)" style="fill: none; stroke: #b0b0b0; stroke-width: 0.8; stroke-linecap: square"/>
     </g>
     <g id="line2d_6">
      <g>
       <use xlink:href="#m3c1a5fd1ec" x="202.376151" y="307.584" style="stroke: #000000; stroke-width: 0.8"/>
      </g>
     </g>
     <g id="text_3">
      <!-- 0.4 -->
      <g transform="translate(194.424589 322.182437) scale(0.1 -0.1)">
       <defs>
        <path id="DejaVuSans-34" d="M 2419 4116 
L 825 1625 
L 2419 1625 
L 2419 4116 
z
M 2253 4666 
L 3047 4666 
L 3047 1625 
L 3713 1625 
L 3713 1100 
L 3047 1100 
L 3047 0 
L 2419 0 
L 2419 1100 
L 313 1100 
L 313 1709 
L 2253 4666 
z
" transform="scale(0.015625)"/>
       </defs>
       <use xlink:href="#DejaVuSans-30"/>
       <use xlink:href="#DejaVuSans-2e" x="63.623047"/>
       <use xlink:href="#DejaVuSans-34" x="95.410156"/>
      </g>
     </g>
    </g>
    <g id="xtick_4">
     <g id="line2d_7">
      <path d="M 268.295856 307.584 
L 268.295856 41.472 
" clip-path="url(#p5b6bce9605)" style="fill: none; stroke: #b0b0b0; stroke-width: 0.8; stroke-linecap: square"/>
     </g>
     <g id="line2d_8">
      <g>
       <use xlink:href="#m3c1a5fd1ec" x="268.295856" y="307.584" style="stroke: #000000; stroke-width: 0.8"/>
      </g>
     </g>
     <g id="text_4">
      <!-- 0.6 -->
      <g transform="translate(260.344294 322.182437) scale(0.1 -0.1)">
       <defs>
        <path id="DejaVuSans-36" d="M 2113 2584 
Q 1688 2584 1439 2293 
Q 1191 2003 1191 1497 
Q 1191 994 1439 701 
Q 1688 409 2113 409 
Q 2538 409 2786 701 
Q 3034 994 3034 1497 
Q 3034 2003 2786 2293 
Q 2538 2584 2113 2584 
z
M 3366 4563 
L 3366 3988 
Q 3128 4100 2886 4159 
Q 2644 4219 2406 4219 
Q 1781 4219 1451 3797 
Q 1122 3375 1075 2522 
Q 1259 2794 1537 2939 
Q 1816 3084 2150 3084 
Q 2853 3084 3261 2657 
Q 3669 2231 3669 1497 
Q 3669 778 3244 343 
Q 2819 -91 2113 -91 
Q 1303 -91 875 529 
Q 447 1150 447 2328 
Q 447 3434 972 4092 
Q 1497 4750 2381 4750 
Q 2619 4750 2861 4703 
Q 3103 4656 3366 4563 
z
" transform="scale(0.015625)"/>
       </defs>
       <use xlink:href="#DejaVuSans-30"/>
       <use xlink:href="#DejaVuSans-2e" x="63.623047"/>
       <use xlink:href="#DejaVuSans-36" x="95.410156"/>
      </g>
     </g>
    </g>
    <g id="xtick_5">
     <g id="line2d_9">
      <path d="M 334.215561 307.584 
L 334.215561 41.472 
" clip-path="url(#p5b6bce9605)" style="fill: none; stroke: #b0b0b0; stroke-width: 0.8; stroke-linecap: square"/>
     </g>
     <g id="line2d_10">
      <g>
       <use xlink:href="#m3c1a5fd1ec" x="334.215561" y="307.584" style="stroke: #000000; stroke-width: 0.8"/>
      </g>
     </g>
     <g id="text_5">
      <!-- 0.8 -->
      <g transform="translate(326.263998 322.182437) scale(0.1 -0.1)">
       <defs>
        <path id="DejaVuSans-38" d="M 2034 2216 
Q 1584 2216 1326 1975 
Q 1069 1734 1069 1313 
Q 1069 891 1326 650 
Q 1584 409 2034 409 
Q 2484 409 2743 651 
Q 3003 894 3003 1313 
Q 3003 1734 2745 1975 
Q 2488 2216 2034 2216 
z
M 1403 2484 
Q 997 2584 770 2862 
Q 544 3141 544 3541 
Q 544 4100 942 4425 
Q 1341 4750 2034 4750 
Q 2731 4750 3128 4425 
Q 3525 4100 3525 3541 
Q 3525 3141 3298 2862 
Q 3072 2584 2669 2484 
Q 3125 2378 3379 2068 
Q 3634 1759 3634 1313 
Q 3634 634 3220 271 
Q 2806 -91 2034 -91 
Q 1263 -91 848 271 
Q 434 634 434 1313 
Q 434 1759 690 2068 
Q 947 2378 1403 2484 
z
M 1172 3481 
Q 1172 3119 1398 2916 
Q 1625 2713 2034 2713 
Q 2441 2713 2670 2916 
Q 2900 3119 2900 3481 
Q 2900 3844 2670 4047 
Q 2441 4250 2034 4250 
Q 1625 4250 1398 4047 
Q 1172 3844 1172 3481 
z
" transform="scale(0.015625)"/>
       </defs>
       <use xlink:href="#DejaVuSans-30"/>
       <use xlink:href="#DejaVuSans-2e" x="63.623047"/>
       <use xlink:href="#DejaVuSans-38" x="95.410156"/>
      </g>
     </g>
    </g>
    <g id="xtick_6">
     <g id="line2d_11">
      <path d="M 400.135265 307.584 
L 400.135265 41.472 
" clip-path="url(#p5b6bce9605)" style="fill: none; stroke: #b0b0b0; stroke-width: 0.8; stroke-linecap: square"/>
     </g>
     <g id="line2d_12">
      <g>
       <use xlink:href="#m3c1a5fd1ec" x="400.135265" y="307.584" style="stroke: #000000; stroke-width: 0.8"/>
      </g>
     </g>
     <g id="text_6">
      <!-- 1.0 -->
      <g transform="translate(392.183703 322.182437) scale(0.1 -0.1)">
       <defs>
        <path id="DejaVuSans-31" d="M 794 531 
L 1825 531 
L 1825 4091 
L 703 3866 
L 703 4441 
L 1819 4666 
L 2450 4666 
L 2450 531 
L 3481 531 
L 3481 0 
L 794 0 
L 794 531 
z
" transform="scale(0.015625)"/>
       </defs>
       <use xlink:href="#DejaVuSans-31"/>
       <use xlink:href="#DejaVuSans-2e" x="63.623047"/>
       <use xlink:href="#DejaVuSans-30" x="95.410156"/>
      </g>
     </g>
    </g>
    <g id="text_7">
     <!-- GT Fraction -->
     <g transform="translate(207.864688 335.860562) scale(0.1 -0.1)">
      <defs>
       <path id="DejaVuSans-47" d="M 3809 666 
L 3809 1919 
L 2778 1919 
L 2778 2438 
L 4434 2438 
L 4434 434 
Q 4069 175 3628 42 
Q 3188 -91 2688 -91 
Q 1594 -91 976 548 
Q 359 1188 359 2328 
Q 359 3472 976 4111 
Q 1594 4750 2688 4750 
Q 3144 4750 3555 4637 
Q 3966 4525 4313 4306 
L 4313 3634 
Q 3963 3931 3569 4081 
Q 3175 4231 2741 4231 
Q 1884 4231 1454 3753 
Q 1025 3275 1025 2328 
Q 1025 1384 1454 906 
Q 1884 428 2741 428 
Q 3075 428 3337 486 
Q 3600 544 3809 666 
z
" transform="scale(0.015625)"/>
       <path id="DejaVuSans-54" d="M -19 4666 
L 3928 4666 
L 3928 4134 
L 2272 4134 
L 2272 0 
L 1638 0 
L 1638 4134 
L -19 4134 
L -19 4666 
z
" transform="scale(0.015625)"/>
       <path id="DejaVuSans-20" transform="scale(0.015625)"/>
       <path id="DejaVuSans-46" d="M 628 4666 
L 3309 4666 
L 3309 4134 
L 1259 4134 
L 1259 2759 
L 3109 2759 
L 3109 2228 
L 1259 2228 
L 1259 0 
L 628 0 
L 628 4666 
z
" transform="scale(0.015625)"/>
       <path id="DejaVuSans-72" d="M 2631 2963 
Q 2534 3019 2420 3045 
Q 2306 3072 2169 3072 
Q 1681 3072 1420 2755 
Q 1159 2438 1159 1844 
L 1159 0 
L 581 0 
L 581 3500 
L 1159 3500 
L 1159 2956 
Q 1341 3275 1631 3429 
Q 1922 3584 2338 3584 
Q 2397 3584 2469 3576 
Q 2541 3569 2628 3553 
L 2631 2963 
z
" transform="scale(0.015625)"/>
       <path id="DejaVuSans-61" d="M 2194 1759 
Q 1497 1759 1228 1600 
Q 959 1441 959 1056 
Q 959 750 1161 570 
Q 1363 391 1709 391 
Q 2188 391 2477 730 
Q 2766 1069 2766 1631 
L 2766 1759 
L 2194 1759 
z
M 3341 1997 
L 3341 0 
L 2766 0 
L 2766 531 
Q 2569 213 2275 61 
Q 1981 -91 1556 -91 
Q 1019 -91 701 211 
Q 384 513 384 1019 
Q 384 1609 779 1909 
Q 1175 2209 1959 2209 
L 2766 2209 
L 2766 2266 
Q 2766 2663 2505 2880 
Q 2244 3097 1772 3097 
Q 1472 3097 1187 3025 
Q 903 2953 641 2809 
L 641 3341 
Q 956 3463 1253 3523 
Q 1550 3584 1831 3584 
Q 2591 3584 2966 3190 
Q 3341 2797 3341 1997 
z
" transform="scale(0.015625)"/>
       <path id="DejaVuSans-63" d="M 3122 3366 
L 3122 2828 
Q 2878 2963 2633 3030 
Q 2388 3097 2138 3097 
Q 1578 3097 1268 2742 
Q 959 2388 959 1747 
Q 959 1106 1268 751 
Q 1578 397 2138 397 
Q 2388 397 2633 464 
Q 2878 531 3122 666 
L 3122 134 
Q 2881 22 2623 -34 
Q 2366 -91 2075 -91 
Q 1284 -91 818 406 
Q 353 903 353 1747 
Q 353 2603 823 3093 
Q 1294 3584 2113 3584 
Q 2378 3584 2631 3529 
Q 2884 3475 3122 3366 
z
" transform="scale(0.015625)"/>
       <path id="DejaVuSans-74" d="M 1172 4494 
L 1172 3500 
L 2356 3500 
L 2356 3053 
L 1172 3053 
L 1172 1153 
Q 1172 725 1289 603 
Q 1406 481 1766 481 
L 2356 481 
L 2356 0 
L 1766 0 
Q 1100 0 847 248 
Q 594 497 594 1153 
L 594 3053 
L 172 3053 
L 172 3500 
L 594 3500 
L 594 4494 
L 1172 4494 
z
" transform="scale(0.015625)"/>
       <path id="DejaVuSans-69" d="M 603 3500 
L 1178 3500 
L 1178 0 
L 603 0 
L 603 3500 
z
M 603 4863 
L 1178 4863 
L 1178 4134 
L 603 4134 
L 603 4863 
z
" transform="scale(0.015625)"/>
       <path id="DejaVuSans-6f" d="M 1959 3097 
Q 1497 3097 1228 2736 
Q 959 2375 959 1747 
Q 959 1119 1226 758 
Q 1494 397 1959 397 
Q 2419 397 2687 759 
Q 2956 1122 2956 1747 
Q 2956 2369 2687 2733 
Q 2419 3097 1959 3097 
z
M 1959 3584 
Q 2709 3584 3137 3096 
Q 3566 2609 3566 1747 
Q 3566 888 3137 398 
Q 2709 -91 1959 -91 
Q 1206 -91 779 398 
Q 353 888 353 1747 
Q 353 2609 779 3096 
Q 1206 3584 1959 3584 
z
" transform="scale(0.015625)"/>
       <path id="DejaVuSans-6e" d="M 3513 2113 
L 3513 0 
L 2938 0 
L 2938 2094 
Q 2938 2591 2744 2837 
Q 2550 3084 2163 3084 
Q 1697 3084 1428 2787 
Q 1159 2491 1159 1978 
L 1159 0 
L 581 0 
L 581 3500 
L 1159 3500 
L 1159 2956 
Q 1366 3272 1645 3428 
Q 1925 3584 2291 3584 
Q 2894 3584 3203 3211 
Q 3513 2838 3513 2113 
z
" transform="scale(0.015625)"/>
      </defs>
      <use xlink:href="#DejaVuSans-47"/>
      <use xlink:href="#DejaVuSans-54" x="73.865234"/>
      <use xlink:href="#DejaVuSans-20" x="134.949219"/>
      <use xlink:href="#DejaVuSans-46" x="166.736328"/>
      <use xlink:href="#DejaVuSans-72" x="217.005859"/>
      <use xlink:href="#DejaVuSans-61" x="258.119141"/>
      <use xlink:href="#DejaVuSans-63" x="319.398438"/>
      <use xlink:href="#DejaVuSans-74" x="374.378906"/>
      <use xlink:href="#DejaVuSans-69" x="413.587891"/>
      <use xlink:href="#DejaVuSans-6f" x="441.371094"/>
      <use xlink:href="#DejaVuSans-6e" x="502.552734"/>
     </g>
    </g>
   </g>
   <g id="matplotlib.axis_2">
    <g id="ytick_1">
     <g id="line2d_13">
      <path d="M 57.6 302.912574 
L 414.72 302.912574 
" clip-path="url(#p5b6bce9605)" style="fill: none; stroke: #b0b0b0; stroke-width: 0.8; stroke-linecap: square"/>
     </g>
     <g id="line2d_14">
      <defs>
       <path id="mc82d753bf3" d="M 0 0 
L -3.5 0 
" style="stroke: #000000; stroke-width: 0.8"/>
      </defs>
      <g>
       <use xlink:href="#mc82d753bf3" x="57.6" y="302.912574" style="stroke: #000000; stroke-width: 0.8"/>
      </g>
     </g>
     <g id="text_8">
      <!-- 0.0 -->
      <g transform="translate(34.696875 306.711792) scale(0.1 -0.1)">
       <use xlink:href="#DejaVuSans-30"/>
       <use xlink:href="#DejaVuSans-2e" x="63.623047"/>
       <use xlink:href="#DejaVuSans-30" x="95.410156"/>
      </g>
     </g>
    </g>
    <g id="ytick_2">
     <g id="line2d_15">
      <path d="M 57.6 252.846177 
L 414.72 252.846177 
" clip-path="url(#p5b6bce9605)" style="fill: none; stroke: #b0b0b0; stroke-width: 0.8; stroke-linecap: square"/>
     </g>
     <g id="line2d_16">
      <g>
       <use xlink:href="#mc82d753bf3" x="57.6" y="252.846177" style="stroke: #000000; stroke-width: 0.8"/>
      </g>
     </g>
     <g id="text_9">
      <!-- 0.2 -->
      <g transform="translate(34.696875 256.645396) scale(0.1 -0.1)">
       <use xlink:href="#DejaVuSans-30"/>
       <use xlink:href="#DejaVuSans-2e" x="63.623047"/>
       <use xlink:href="#DejaVuSans-32" x="95.410156"/>
      </g>
     </g>
    </g>
    <g id="ytick_3">
     <g id="line2d_17">
      <path d="M 57.6 202.779781 
L 414.72 202.779781 
" clip-path="url(#p5b6bce9605)" style="fill: none; stroke: #b0b0b0; stroke-width: 0.8; stroke-linecap: square"/>
     </g>
     <g id="line2d_18">
      <g>
       <use xlink:href="#mc82d753bf3" x="57.6" y="202.779781" style="stroke: #000000; stroke-width: 0.8"/>
      </g>
     </g>
     <g id="text_10">
      <!-- 0.4 -->
      <g transform="translate(34.696875 206.578999) scale(0.1 -0.1)">
       <use xlink:href="#DejaVuSans-30"/>
       <use xlink:href="#DejaVuSans-2e" x="63.623047"/>
       <use xlink:href="#DejaVuSans-34" x="95.410156"/>
      </g>
     </g>
    </g>
    <g id="ytick_4">
     <g id="line2d_19">
      <path d="M 57.6 152.713384 
L 414.72 152.713384 
" clip-path="url(#p5b6bce9605)" style="fill: none; stroke: #b0b0b0; stroke-width: 0.8; stroke-linecap: square"/>
     </g>
     <g id="line2d_20">
      <g>
       <use xlink:href="#mc82d753bf3" x="57.6" y="152.713384" style="stroke: #000000; stroke-width: 0.8"/>
      </g>
     </g>
     <g id="text_11">
      <!-- 0.6 -->
      <g transform="translate(34.696875 156.512603) scale(0.1 -0.1)">
       <use xlink:href="#DejaVuSans-30"/>
       <use xlink:href="#DejaVuSans-2e" x="63.623047"/>
       <use xlink:href="#DejaVuSans-36" x="95.410156"/>
      </g>
     </g>
    </g>
    <g id="ytick_5">
     <g id="line2d_21">
      <path d="M 57.6 102.646988 
L 414.72 102.646988 
" clip-path="url(#p5b6bce9605)" style="fill: none; stroke: #b0b0b0; stroke-width: 0.8; stroke-linecap: square"/>
     </g>
     <g id="line2d_22">
      <g>
       <use xlink:href="#mc82d753bf3" x="57.6" y="102.646988" style="stroke: #000000; stroke-width: 0.8"/>
      </g>
     </g>
     <g id="text_12">
      <!-- 0.8 -->
      <g transform="translate(34.696875 106.446207) scale(0.1 -0.1)">
       <use xlink:href="#DejaVuSans-30"/>
       <use xlink:href="#DejaVuSans-2e" x="63.623047"/>
       <use xlink:href="#DejaVuSans-38" x="95.410156"/>
      </g>
     </g>
    </g>
    <g id="ytick_6">
     <g id="line2d_23">
      <path d="M 57.6 52.580591 
L 414.72 52.580591 
" clip-path="url(#p5b6bce9605)" style="fill: none; stroke: #b0b0b0; stroke-width: 0.8; stroke-linecap: square"/>
     </g>
     <g id="line2d_24">
      <g>
       <use xlink:href="#mc82d753bf3" x="57.6" y="52.580591" style="stroke: #000000; stroke-width: 0.8"/>
      </g>
     </g>
     <g id="text_13">
      <!-- 1.0 -->
      <g transform="translate(34.696875 56.37981) scale(0.1 -0.1)">
       <use xlink:href="#DejaVuSans-31"/>
       <use xlink:href="#DejaVuSans-2e" x="63.623047"/>
       <use xlink:href="#DejaVuSans-30" x="95.410156"/>
      </g>
     </g>
    </g>
    <g id="text_14">
     <!-- Predicted Fraction -->
     <g transform="translate(28.617187 219.54675) rotate(-90) scale(0.1 -0.1)">
      <defs>
       <path id="DejaVuSans-50" d="M 1259 4147 
L 1259 2394 
L 2053 2394 
Q 2494 2394 2734 2622 
Q 2975 2850 2975 3272 
Q 2975 3691 2734 3919 
Q 2494 4147 2053 4147 
L 1259 4147 
z
M 628 4666 
L 2053 4666 
Q 2838 4666 3239 4311 
Q 3641 3956 3641 3272 
Q 3641 2581 3239 2228 
Q 2838 1875 2053 1875 
L 1259 1875 
L 1259 0 
L 628 0 
L 628 4666 
z
" transform="scale(0.015625)"/>
       <path id="DejaVuSans-65" d="M 3597 1894 
L 3597 1613 
L 953 1613 
Q 991 1019 1311 708 
Q 1631 397 2203 397 
Q 2534 397 2845 478 
Q 3156 559 3463 722 
L 3463 178 
Q 3153 47 2828 -22 
Q 2503 -91 2169 -91 
Q 1331 -91 842 396 
Q 353 884 353 1716 
Q 353 2575 817 3079 
Q 1281 3584 2069 3584 
Q 2775 3584 3186 3129 
Q 3597 2675 3597 1894 
z
M 3022 2063 
Q 3016 2534 2758 2815 
Q 2500 3097 2075 3097 
Q 1594 3097 1305 2825 
Q 1016 2553 972 2059 
L 3022 2063 
z
" transform="scale(0.015625)"/>
       <path id="DejaVuSans-64" d="M 2906 2969 
L 2906 4863 
L 3481 4863 
L 3481 0 
L 2906 0 
L 2906 525 
Q 2725 213 2448 61 
Q 2172 -91 1784 -91 
Q 1150 -91 751 415 
Q 353 922 353 1747 
Q 353 2572 751 3078 
Q 1150 3584 1784 3584 
Q 2172 3584 2448 3432 
Q 2725 3281 2906 2969 
z
M 947 1747 
Q 947 1113 1208 752 
Q 1469 391 1925 391 
Q 2381 391 2643 752 
Q 2906 1113 2906 1747 
Q 2906 2381 2643 2742 
Q 2381 3103 1925 3103 
Q 1469 3103 1208 2742 
Q 947 2381 947 1747 
z
" transform="scale(0.015625)"/>
      </defs>
      <use xlink:href="#DejaVuSans-50"/>
      <use xlink:href="#DejaVuSans-72" x="58.552734"/>
      <use xlink:href="#DejaVuSans-65" x="97.416016"/>
      <use xlink:href="#DejaVuSans-64" x="158.939453"/>
      <use xlink:href="#DejaVuSans-69" x="222.416016"/>
      <use xlink:href="#DejaVuSans-63" x="250.199219"/>
      <use xlink:href="#DejaVuSans-74" x="305.179688"/>
      <use xlink:href="#DejaVuSans-65" x="344.388672"/>
      <use xlink:href="#DejaVuSans-64" x="405.912109"/>
      <use xlink:href="#DejaVuSans-20" x="469.388672"/>
      <use xlink:href="#DejaVuSans-46" x="501.175781"/>
      <use xlink:href="#DejaVuSans-72" x="551.445312"/>
      <use xlink:href="#DejaVuSans-61" x="592.558594"/>
      <use xlink:href="#DejaVuSans-63" x="653.837891"/>
      <use xlink:href="#DejaVuSans-74" x="708.818359"/>
      <use xlink:href="#DejaVuSans-69" x="748.027344"/>
      <use xlink:href="#DejaVuSans-6f" x="775.810547"/>
      <use xlink:href="#DejaVuSans-6e" x="836.992188"/>
     </g>
    </g>
   </g>
   <g id="line2d_25">
    <path d="M 73.832727 292.030977 
L 77.112066 289.728312 
L 80.391405 287.425648 
L 83.670744 285.122984 
L 86.950083 282.82032 
L 90.229421 280.517655 
L 93.50876 278.214991 
L 96.788099 275.912327 
L 100.067438 273.609663 
L 103.346777 271.306998 
L 106.626116 269.004334 
L 109.905455 266.70167 
L 113.184793 264.399005 
L 116.464132 262.096341 
L 119.743471 259.793677 
L 123.02281 257.491013 
L 126.302149 255.188348 
L 129.581488 252.885684 
L 132.860826 250.58302 
L 136.140165 248.280355 
L 139.419504 245.977691 
L 142.698843 243.675027 
L 145.978182 241.372363 
L 149.257521 239.069698 
L 152.53686 236.767034 
L 155.816198 234.46437 
L 159.095537 232.161705 
L 162.374876 229.859041 
L 165.654215 227.556377 
L 168.933554 225.253713 
L 172.212893 222.951048 
L 175.492231 220.648384 
L 178.77157 218.34572 
L 182.050909 216.043055 
L 185.330248 213.740391 
L 188.609587 211.437727 
L 191.888926 209.135063 
L 195.168264 206.832398 
L 198.447603 204.529734 
L 201.726942 202.22707 
L 205.006281 199.924406 
L 208.28562 197.621741 
L 211.564959 195.319077 
L 214.844298 193.016413 
L 218.123636 190.713748 
L 221.402975 188.411084 
L 224.682314 186.10842 
L 227.961653 183.805756 
L 231.240992 181.503091 
L 234.520331 179.200427 
L 237.799669 176.897763 
L 241.079008 174.595098 
L 244.358347 172.292434 
L 247.637686 169.98977 
L 250.917025 167.687106 
L 254.196364 165.384441 
L 257.475702 163.081777 
L 260.755041 160.779113 
L 264.03438 158.476448 
L 267.313719 156.173784 
L 270.593058 153.87112 
L 273.872397 151.568456 
L 277.151736 149.265791 
L 280.431074 146.963127 
L 283.710413 144.660463 
L 286.989752 142.357799 
L 290.269091 140.055134 
L 293.54843 137.75247 
L 296.827769 135.449806 
L 300.107107 133.147141 
L 303.386446 130.844477 
L 306.665785 128.541813 
L 309.945124 126.239149 
L 313.224463 123.936484 
L 316.503802 121.63382 
L 319.78314 119.331156 
L 323.062479 117.028491 
L 326.341818 114.725827 
L 329.621157 112.423163 
L 332.900496 110.120499 
L 336.179835 107.817834 
L 339.459174 105.51517 
L 342.738512 103.212506 
L 346.017851 100.909841 
L 349.29719 98.607177 
L 352.576529 96.304513 
L 355.855868 94.001849 
L 359.135207 91.699184 
L 362.414545 89.39652 
L 365.693884 87.093856 
L 368.973223 84.791192 
L 372.252562 82.488527 
L 375.531901 80.185863 
L 378.81124 77.883199 
L 382.090579 75.580534 
L 385.369917 73.27787 
L 388.649256 70.975206 
L 391.928595 68.672542 
L 395.207934 66.369877 
L 398.487273 64.067213 
" clip-path="url(#p5b6bce9605)" style="fill: none; stroke: #ff0000; stroke-width: 1.5; stroke-linecap: square"/>
   </g>
   <g id="patch_3">
    <path d="M 57.6 307.584 
L 57.6 41.472 
" style="fill: none; stroke: #000000; stroke-width: 0.8; stroke-linejoin: miter; stroke-linecap: square"/>
   </g>
   <g id="patch_4">
    <path d="M 414.72 307.584 
L 414.72 41.472 
" style="fill: none; stroke: #000000; stroke-width: 0.8; stroke-linejoin: miter; stroke-linecap: square"/>
   </g>
   <g id="patch_5">
    <path d="M 57.6 307.584 
L 414.72 307.584 
" style="fill: none; stroke: #000000; stroke-width: 0.8; stroke-linejoin: miter; stroke-linecap: square"/>
   </g>
   <g id="patch_6">
    <path d="M 57.6 41.472 
L 414.72 41.472 
" style="fill: none; stroke: #000000; stroke-width: 0.8; stroke-linejoin: miter; stroke-linecap: square"/>
   </g>
   <g id="legend_1">
    <g id="patch_7">
     <path d="M 247.824688 302.584 
L 407.72 302.584 
Q 409.72 302.584 409.72 300.584 
L 409.72 272.22775 
Q 409.72 270.22775 407.72 270.22775 
L 247.824688 270.22775 
Q 245.824688 270.22775 245.824688 272.22775 
L 245.824688 300.584 
Q 245.824688 302.584 247.824688 302.584 
z
" style="fill: #ffffff; opacity: 0.8; stroke: #cccccc; stroke-linejoin: miter"/>
    </g>
    <g id="PathCollection_2">
     <g>
      <use xlink:href="#ma402d435e0" x="259.824687" y="279.201187" style="fill: #0000ff; stroke: #0000ff"/>
     </g>
    </g>
    <g id="text_15">
     <!-- Data Points -->
     <g transform="translate(277.824687 281.826187) scale(0.1 -0.1)">
      <defs>
       <path id="DejaVuSans-44" d="M 1259 4147 
L 1259 519 
L 2022 519 
Q 2988 519 3436 956 
Q 3884 1394 3884 2338 
Q 3884 3275 3436 3711 
Q 2988 4147 2022 4147 
L 1259 4147 
z
M 628 4666 
L 1925 4666 
Q 3281 4666 3915 4102 
Q 4550 3538 4550 2338 
Q 4550 1131 3912 565 
Q 3275 0 1925 0 
L 628 0 
L 628 4666 
z
" transform="scale(0.015625)"/>
       <path id="DejaVuSans-73" d="M 2834 3397 
L 2834 2853 
Q 2591 2978 2328 3040 
Q 2066 3103 1784 3103 
Q 1356 3103 1142 2972 
Q 928 2841 928 2578 
Q 928 2378 1081 2264 
Q 1234 2150 1697 2047 
L 1894 2003 
Q 2506 1872 2764 1633 
Q 3022 1394 3022 966 
Q 3022 478 2636 193 
Q 2250 -91 1575 -91 
Q 1294 -91 989 -36 
Q 684 19 347 128 
L 347 722 
Q 666 556 975 473 
Q 1284 391 1588 391 
Q 1994 391 2212 530 
Q 2431 669 2431 922 
Q 2431 1156 2273 1281 
Q 2116 1406 1581 1522 
L 1381 1569 
Q 847 1681 609 1914 
Q 372 2147 372 2553 
Q 372 3047 722 3315 
Q 1072 3584 1716 3584 
Q 2034 3584 2315 3537 
Q 2597 3491 2834 3397 
z
" transform="scale(0.015625)"/>
      </defs>
      <use xlink:href="#DejaVuSans-44"/>
      <use xlink:href="#DejaVuSans-61" x="77.001953"/>
      <use xlink:href="#DejaVuSans-74" x="138.28125"/>
      <use xlink:href="#DejaVuSans-61" x="177.490234"/>
      <use xlink:href="#DejaVuSans-20" x="238.769531"/>
      <use xlink:href="#DejaVuSans-50" x="270.556641"/>
      <use xlink:href="#DejaVuSans-6f" x="327.234375"/>
      <use xlink:href="#DejaVuSans-69" x="388.416016"/>
      <use xlink:href="#DejaVuSans-6e" x="416.199219"/>
      <use xlink:href="#DejaVuSans-74" x="479.578125"/>
      <use xlink:href="#DejaVuSans-73" x="518.787109"/>
     </g>
    </g>
    <g id="line2d_26">
     <path d="M 249.824688 293.004312 
L 259.824687 293.004312 
L 269.824687 293.004312 
" style="fill: none; stroke: #ff0000; stroke-width: 1.5; stroke-linecap: square"/>
    </g>
    <g id="text_16">
     <!-- Fitted Line (Slope = 0.92) -->
     <g transform="translate(277.824687 296.504312) scale(0.1 -0.1)">
      <defs>
       <path id="DejaVuSans-4c" d="M 628 4666 
L 1259 4666 
L 1259 531 
L 3531 531 
L 3531 0 
L 628 0 
L 628 4666 
z
" transform="scale(0.015625)"/>
       <path id="DejaVuSans-28" d="M 1984 4856 
Q 1566 4138 1362 3434 
Q 1159 2731 1159 2009 
Q 1159 1288 1364 580 
Q 1569 -128 1984 -844 
L 1484 -844 
Q 1016 -109 783 600 
Q 550 1309 550 2009 
Q 550 2706 781 3412 
Q 1013 4119 1484 4856 
L 1984 4856 
z
" transform="scale(0.015625)"/>
       <path id="DejaVuSans-53" d="M 3425 4513 
L 3425 3897 
Q 3066 4069 2747 4153 
Q 2428 4238 2131 4238 
Q 1616 4238 1336 4038 
Q 1056 3838 1056 3469 
Q 1056 3159 1242 3001 
Q 1428 2844 1947 2747 
L 2328 2669 
Q 3034 2534 3370 2195 
Q 3706 1856 3706 1288 
Q 3706 609 3251 259 
Q 2797 -91 1919 -91 
Q 1588 -91 1214 -16 
Q 841 59 441 206 
L 441 856 
Q 825 641 1194 531 
Q 1563 422 1919 422 
Q 2459 422 2753 634 
Q 3047 847 3047 1241 
Q 3047 1584 2836 1778 
Q 2625 1972 2144 2069 
L 1759 2144 
Q 1053 2284 737 2584 
Q 422 2884 422 3419 
Q 422 4038 858 4394 
Q 1294 4750 2059 4750 
Q 2388 4750 2728 4690 
Q 3069 4631 3425 4513 
z
" transform="scale(0.015625)"/>
       <path id="DejaVuSans-6c" d="M 603 4863 
L 1178 4863 
L 1178 0 
L 603 0 
L 603 4863 
z
" transform="scale(0.015625)"/>
       <path id="DejaVuSans-70" d="M 1159 525 
L 1159 -1331 
L 581 -1331 
L 581 3500 
L 1159 3500 
L 1159 2969 
Q 1341 3281 1617 3432 
Q 1894 3584 2278 3584 
Q 2916 3584 3314 3078 
Q 3713 2572 3713 1747 
Q 3713 922 3314 415 
Q 2916 -91 2278 -91 
Q 1894 -91 1617 61 
Q 1341 213 1159 525 
z
M 3116 1747 
Q 3116 2381 2855 2742 
Q 2594 3103 2138 3103 
Q 1681 3103 1420 2742 
Q 1159 2381 1159 1747 
Q 1159 1113 1420 752 
Q 1681 391 2138 391 
Q 2594 391 2855 752 
Q 3116 1113 3116 1747 
z
" transform="scale(0.015625)"/>
       <path id="DejaVuSans-3d" d="M 678 2906 
L 4684 2906 
L 4684 2381 
L 678 2381 
L 678 2906 
z
M 678 1631 
L 4684 1631 
L 4684 1100 
L 678 1100 
L 678 1631 
z
" transform="scale(0.015625)"/>
       <path id="DejaVuSans-39" d="M 703 97 
L 703 672 
Q 941 559 1184 500 
Q 1428 441 1663 441 
Q 2288 441 2617 861 
Q 2947 1281 2994 2138 
Q 2813 1869 2534 1725 
Q 2256 1581 1919 1581 
Q 1219 1581 811 2004 
Q 403 2428 403 3163 
Q 403 3881 828 4315 
Q 1253 4750 1959 4750 
Q 2769 4750 3195 4129 
Q 3622 3509 3622 2328 
Q 3622 1225 3098 567 
Q 2575 -91 1691 -91 
Q 1453 -91 1209 -44 
Q 966 3 703 97 
z
M 1959 2075 
Q 2384 2075 2632 2365 
Q 2881 2656 2881 3163 
Q 2881 3666 2632 3958 
Q 2384 4250 1959 4250 
Q 1534 4250 1286 3958 
Q 1038 3666 1038 3163 
Q 1038 2656 1286 2365 
Q 1534 2075 1959 2075 
z
" transform="scale(0.015625)"/>
       <path id="DejaVuSans-29" d="M 513 4856 
L 1013 4856 
Q 1481 4119 1714 3412 
Q 1947 2706 1947 2009 
Q 1947 1309 1714 600 
Q 1481 -109 1013 -844 
L 513 -844 
Q 928 -128 1133 580 
Q 1338 1288 1338 2009 
Q 1338 2731 1133 3434 
Q 928 4138 513 4856 
z
" transform="scale(0.015625)"/>
      </defs>
      <use xlink:href="#DejaVuSans-46"/>
      <use xlink:href="#DejaVuSans-69" x="50.269531"/>
      <use xlink:href="#DejaVuSans-74" x="78.052734"/>
      <use xlink:href="#DejaVuSans-74" x="117.261719"/>
      <use xlink:href="#DejaVuSans-65" x="156.470703"/>
      <use xlink:href="#DejaVuSans-64" x="217.994141"/>
      <use xlink:href="#DejaVuSans-20" x="281.470703"/>
      <use xlink:href="#DejaVuSans-4c" x="313.257812"/>
      <use xlink:href="#DejaVuSans-69" x="368.970703"/>
      <use xlink:href="#DejaVuSans-6e" x="396.753906"/>
      <use xlink:href="#DejaVuSans-65" x="460.132812"/>
      <use xlink:href="#DejaVuSans-20" x="521.65625"/>
      <use xlink:href="#DejaVuSans-28" x="553.443359"/>
      <use xlink:href="#DejaVuSans-53" x="592.457031"/>
      <use xlink:href="#DejaVuSans-6c" x="655.933594"/>
      <use xlink:href="#DejaVuSans-6f" x="683.716797"/>
      <use xlink:href="#DejaVuSans-70" x="744.898438"/>
      <use xlink:href="#DejaVuSans-65" x="808.375"/>
      <use xlink:href="#DejaVuSans-20" x="869.898438"/>
      <use xlink:href="#DejaVuSans-3d" x="901.685547"/>
      <use xlink:href="#DejaVuSans-20" x="985.474609"/>
      <use xlink:href="#DejaVuSans-30" x="1017.261719"/>
      <use xlink:href="#DejaVuSans-2e" x="1080.884766"/>
      <use xlink:href="#DejaVuSans-39" x="1112.671875"/>
      <use xlink:href="#DejaVuSans-32" x="1176.294922"/>
      <use xlink:href="#DejaVuSans-29" x="1239.917969"/>
     </g>
    </g>
   </g>
  </g>
 </g>
 <defs>
  <clipPath id="p5b6bce9605">
   <rect x="57.6" y="41.472" width="357.12" height="266.112"/>
  </clipPath>
 </defs>
</svg>
