<?xml version="1.0" encoding="utf-8" standalone="no"?>
<!DOCTYPE svg PUBLIC "-//W3C//DTD SVG 1.1//EN"
  "http://www.w3.org/Graphics/SVG/1.1/DTD/svg11.dtd">
<svg xmlns:xlink="http://www.w3.org/1999/xlink" width="460.8pt" height="345.6pt" viewBox="0 0 460.8 345.6" xmlns="http://www.w3.org/2000/svg" version="1.1">
 <metadata>
  <rdf:RDF xmlns:dc="http://purl.org/dc/elements/1.1/" xmlns:cc="http://creativecommons.org/ns#" xmlns:rdf="http://www.w3.org/1999/02/22-rdf-syntax-ns#">
   <cc:Work>
    <dc:type rdf:resource="http://purl.org/dc/dcmitype/StillImage"/>
    <dc:date>2023-11-15T12:17:37.031653</dc:date>
    <dc:format>image/svg+xml</dc:format>
    <dc:creator>
     <cc:Agent>
      <dc:title>Matplotlib v3.8.0, https://matplotlib.org/</dc:title>
     </cc:Agent>
    </dc:creator>
   </cc:Work>
  </rdf:RDF>
 </metadata>
 <defs>
  <style type="text/css">*{stroke-linejoin: round; stroke-linecap: butt}</style>
 </defs>
 <g id="figure_1">
  <g id="patch_1">
   <path d="M 0 345.6 
L 460.8 345.6 
L 460.8 0 
L 0 0 
z
" style="fill: #ffffff"/>
  </g>
  <g id="axes_1">
   <g id="patch_2">
    <path d="M 57.6 307.584 
L 414.72 307.584 
L 414.72 41.472 
L 57.6 41.472 
z
" style="fill: #ffffff"/>
   </g>
   <g id="matplotlib.axis_1">
    <g id="xtick_1">
     <g id="line2d_1">
      <path d="M 73.832727 307.584 
L 73.832727 41.472 
" clip-path="url(#p8d6202042d)" style="fill: none; stroke: #b0b0b0; stroke-width: 0.8; stroke-linecap: square"/>
     </g>
     <g id="line2d_2">
      <defs>
       <path id="m0c8ddddd3b" d="M 0 0 
L 0 3.5 
" style="stroke: #000000; stroke-width: 0.8"/>
      </defs>
      <g>
       <use xlink:href="#m0c8ddddd3b" x="73.832727" y="307.584" style="stroke: #000000; stroke-width: 0.8"/>
      </g>
     </g>
     <g id="text_1">
      <!-- 0 -->
      <g transform="translate(70.651477 322.182437) scale(0.1 -0.1)">
       <defs>
        <path id="DejaVuSans-30" d="M 2034 4250 
Q 1547 4250 1301 3770 
Q 1056 3291 1056 2328 
Q 1056 1369 1301 889 
Q 1547 409 2034 409 
Q 2525 409 2770 889 
Q 3016 1369 3016 2328 
Q 3016 3291 2770 3770 
Q 2525 4250 2034 4250 
z
M 2034 4750 
Q 2819 4750 3233 4129 
Q 3647 3509 3647 2328 
Q 3647 1150 3233 529 
Q 2819 -91 2034 -91 
Q 1250 -91 836 529 
Q 422 1150 422 2328 
Q 422 3509 836 4129 
Q 1250 4750 2034 4750 
z
" transform="scale(0.015625)"/>
       </defs>
       <use xlink:href="#DejaVuSans-30"/>
      </g>
     </g>
    </g>
    <g id="xtick_2">
     <g id="line2d_3">
      <path d="M 138.828632 307.584 
L 138.828632 41.472 
" clip-path="url(#p8d6202042d)" style="fill: none; stroke: #b0b0b0; stroke-width: 0.8; stroke-linecap: square"/>
     </g>
     <g id="line2d_4">
      <g>
       <use xlink:href="#m0c8ddddd3b" x="138.828632" y="307.584" style="stroke: #000000; stroke-width: 0.8"/>
      </g>
     </g>
     <g id="text_2">
      <!-- 200 -->
      <g transform="translate(129.284882 322.182437) scale(0.1 -0.1)">
       <defs>
        <path id="DejaVuSans-32" d="M 1228 531 
L 3431 531 
L 3431 0 
L 469 0 
L 469 531 
Q 828 903 1448 1529 
Q 2069 2156 2228 2338 
Q 2531 2678 2651 2914 
Q 2772 3150 2772 3378 
Q 2772 3750 2511 3984 
Q 2250 4219 1831 4219 
Q 1534 4219 1204 4116 
Q 875 4013 500 3803 
L 500 4441 
Q 881 4594 1212 4672 
Q 1544 4750 1819 4750 
Q 2544 4750 2975 4387 
Q 3406 4025 3406 3419 
Q 3406 3131 3298 2873 
Q 3191 2616 2906 2266 
Q 2828 2175 2409 1742 
Q 1991 1309 1228 531 
z
" transform="scale(0.015625)"/>
       </defs>
       <use xlink:href="#DejaVuSans-32"/>
       <use xlink:href="#DejaVuSans-30" x="63.623047"/>
       <use xlink:href="#DejaVuSans-30" x="127.246094"/>
      </g>
     </g>
    </g>
    <g id="xtick_3">
     <g id="line2d_5">
      <path d="M 203.824537 307.584 
L 203.824537 41.472 
" clip-path="url(#p8d6202042d)" style="fill: none; stroke: #b0b0b0; stroke-width: 0.8; stroke-linecap: square"/>
     </g>
     <g id="line2d_6">
      <g>
       <use xlink:href="#m0c8ddddd3b" x="203.824537" y="307.584" style="stroke: #000000; stroke-width: 0.8"/>
      </g>
     </g>
     <g id="text_3">
      <!-- 400 -->
      <g transform="translate(194.280787 322.182437) scale(0.1 -0.1)">
       <defs>
        <path id="DejaVuSans-34" d="M 2419 4116 
L 825 1625 
L 2419 1625 
L 2419 4116 
z
M 2253 4666 
L 3047 4666 
L 3047 1625 
L 3713 1625 
L 3713 1100 
L 3047 1100 
L 3047 0 
L 2419 0 
L 2419 1100 
L 313 1100 
L 313 1709 
L 2253 4666 
z
" transform="scale(0.015625)"/>
       </defs>
       <use xlink:href="#DejaVuSans-34"/>
       <use xlink:href="#DejaVuSans-30" x="63.623047"/>
       <use xlink:href="#DejaVuSans-30" x="127.246094"/>
      </g>
     </g>
    </g>
    <g id="xtick_4">
     <g id="line2d_7">
      <path d="M 268.820442 307.584 
L 268.820442 41.472 
" clip-path="url(#p8d6202042d)" style="fill: none; stroke: #b0b0b0; stroke-width: 0.8; stroke-linecap: square"/>
     </g>
     <g id="line2d_8">
      <g>
       <use xlink:href="#m0c8ddddd3b" x="268.820442" y="307.584" style="stroke: #000000; stroke-width: 0.8"/>
      </g>
     </g>
     <g id="text_4">
      <!-- 600 -->
      <g transform="translate(259.276692 322.182437) scale(0.1 -0.1)">
       <defs>
        <path id="DejaVuSans-36" d="M 2113 2584 
Q 1688 2584 1439 2293 
Q 1191 2003 1191 1497 
Q 1191 994 1439 701 
Q 1688 409 2113 409 
Q 2538 409 2786 701 
Q 3034 994 3034 1497 
Q 3034 2003 2786 2293 
Q 2538 2584 2113 2584 
z
M 3366 4563 
L 3366 3988 
Q 3128 4100 2886 4159 
Q 2644 4219 2406 4219 
Q 1781 4219 1451 3797 
Q 1122 3375 1075 2522 
Q 1259 2794 1537 2939 
Q 1816 3084 2150 3084 
Q 2853 3084 3261 2657 
Q 3669 2231 3669 1497 
Q 3669 778 3244 343 
Q 2819 -91 2113 -91 
Q 1303 -91 875 529 
Q 447 1150 447 2328 
Q 447 3434 972 4092 
Q 1497 4750 2381 4750 
Q 2619 4750 2861 4703 
Q 3103 4656 3366 4563 
z
" transform="scale(0.015625)"/>
       </defs>
       <use xlink:href="#DejaVuSans-36"/>
       <use xlink:href="#DejaVuSans-30" x="63.623047"/>
       <use xlink:href="#DejaVuSans-30" x="127.246094"/>
      </g>
     </g>
    </g>
    <g id="xtick_5">
     <g id="line2d_9">
      <path d="M 333.816347 307.584 
L 333.816347 41.472 
" clip-path="url(#p8d6202042d)" style="fill: none; stroke: #b0b0b0; stroke-width: 0.8; stroke-linecap: square"/>
     </g>
     <g id="line2d_10">
      <g>
       <use xlink:href="#m0c8ddddd3b" x="333.816347" y="307.584" style="stroke: #000000; stroke-width: 0.8"/>
      </g>
     </g>
     <g id="text_5">
      <!-- 800 -->
      <g transform="translate(324.272597 322.182437) scale(0.1 -0.1)">
       <defs>
        <path id="DejaVuSans-38" d="M 2034 2216 
Q 1584 2216 1326 1975 
Q 1069 1734 1069 1313 
Q 1069 891 1326 650 
Q 1584 409 2034 409 
Q 2484 409 2743 651 
Q 3003 894 3003 1313 
Q 3003 1734 2745 1975 
Q 2488 2216 2034 2216 
z
M 1403 2484 
Q 997 2584 770 2862 
Q 544 3141 544 3541 
Q 544 4100 942 4425 
Q 1341 4750 2034 4750 
Q 2731 4750 3128 4425 
Q 3525 4100 3525 3541 
Q 3525 3141 3298 2862 
Q 3072 2584 2669 2484 
Q 3125 2378 3379 2068 
Q 3634 1759 3634 1313 
Q 3634 634 3220 271 
Q 2806 -91 2034 -91 
Q 1263 -91 848 271 
Q 434 634 434 1313 
Q 434 1759 690 2068 
Q 947 2378 1403 2484 
z
M 1172 3481 
Q 1172 3119 1398 2916 
Q 1625 2713 2034 2713 
Q 2441 2713 2670 2916 
Q 2900 3119 2900 3481 
Q 2900 3844 2670 4047 
Q 2441 4250 2034 4250 
Q 1625 4250 1398 4047 
Q 1172 3844 1172 3481 
z
" transform="scale(0.015625)"/>
       </defs>
       <use xlink:href="#DejaVuSans-38"/>
       <use xlink:href="#DejaVuSans-30" x="63.623047"/>
       <use xlink:href="#DejaVuSans-30" x="127.246094"/>
      </g>
     </g>
    </g>
    <g id="xtick_6">
     <g id="line2d_11">
      <path d="M 398.812252 307.584 
L 398.812252 41.472 
" clip-path="url(#p8d6202042d)" style="fill: none; stroke: #b0b0b0; stroke-width: 0.8; stroke-linecap: square"/>
     </g>
     <g id="line2d_12">
      <g>
       <use xlink:href="#m0c8ddddd3b" x="398.812252" y="307.584" style="stroke: #000000; stroke-width: 0.8"/>
      </g>
     </g>
     <g id="text_6">
      <!-- 1000 -->
      <g transform="translate(386.087252 322.182437) scale(0.1 -0.1)">
       <defs>
        <path id="DejaVuSans-31" d="M 794 531 
L 1825 531 
L 1825 4091 
L 703 3866 
L 703 4441 
L 1819 4666 
L 2450 4666 
L 2450 531 
L 3481 531 
L 3481 0 
L 794 0 
L 794 531 
z
" transform="scale(0.015625)"/>
       </defs>
       <use xlink:href="#DejaVuSans-31"/>
       <use xlink:href="#DejaVuSans-30" x="63.623047"/>
       <use xlink:href="#DejaVuSans-30" x="127.246094"/>
       <use xlink:href="#DejaVuSans-30" x="190.869141"/>
      </g>
     </g>
    </g>
    <g id="text_7">
     <!-- Train Step -->
     <g transform="translate(211.192031 335.860562) scale(0.1 -0.1)">
      <defs>
       <path id="DejaVuSans-54" d="M -19 4666 
L 3928 4666 
L 3928 4134 
L 2272 4134 
L 2272 0 
L 1638 0 
L 1638 4134 
L -19 4134 
L -19 4666 
z
" transform="scale(0.015625)"/>
       <path id="DejaVuSans-72" d="M 2631 2963 
Q 2534 3019 2420 3045 
Q 2306 3072 2169 3072 
Q 1681 3072 1420 2755 
Q 1159 2438 1159 1844 
L 1159 0 
L 581 0 
L 581 3500 
L 1159 3500 
L 1159 2956 
Q 1341 3275 1631 3429 
Q 1922 3584 2338 3584 
Q 2397 3584 2469 3576 
Q 2541 3569 2628 3553 
L 2631 2963 
z
" transform="scale(0.015625)"/>
       <path id="DejaVuSans-61" d="M 2194 1759 
Q 1497 1759 1228 1600 
Q 959 1441 959 1056 
Q 959 750 1161 570 
Q 1363 391 1709 391 
Q 2188 391 2477 730 
Q 2766 1069 2766 1631 
L 2766 1759 
L 2194 1759 
z
M 3341 1997 
L 3341 0 
L 2766 0 
L 2766 531 
Q 2569 213 2275 61 
Q 1981 -91 1556 -91 
Q 1019 -91 701 211 
Q 384 513 384 1019 
Q 384 1609 779 1909 
Q 1175 2209 1959 2209 
L 2766 2209 
L 2766 2266 
Q 2766 2663 2505 2880 
Q 2244 3097 1772 3097 
Q 1472 3097 1187 3025 
Q 903 2953 641 2809 
L 641 3341 
Q 956 3463 1253 3523 
Q 1550 3584 1831 3584 
Q 2591 3584 2966 3190 
Q 3341 2797 3341 1997 
z
" transform="scale(0.015625)"/>
       <path id="DejaVuSans-69" d="M 603 3500 
L 1178 3500 
L 1178 0 
L 603 0 
L 603 3500 
z
M 603 4863 
L 1178 4863 
L 1178 4134 
L 603 4134 
L 603 4863 
z
" transform="scale(0.015625)"/>
       <path id="DejaVuSans-6e" d="M 3513 2113 
L 3513 0 
L 2938 0 
L 2938 2094 
Q 2938 2591 2744 2837 
Q 2550 3084 2163 3084 
Q 1697 3084 1428 2787 
Q 1159 2491 1159 1978 
L 1159 0 
L 581 0 
L 581 3500 
L 1159 3500 
L 1159 2956 
Q 1366 3272 1645 3428 
Q 1925 3584 2291 3584 
Q 2894 3584 3203 3211 
Q 3513 2838 3513 2113 
z
" transform="scale(0.015625)"/>
       <path id="DejaVuSans-20" transform="scale(0.015625)"/>
       <path id="DejaVuSans-53" d="M 3425 4513 
L 3425 3897 
Q 3066 4069 2747 4153 
Q 2428 4238 2131 4238 
Q 1616 4238 1336 4038 
Q 1056 3838 1056 3469 
Q 1056 3159 1242 3001 
Q 1428 2844 1947 2747 
L 2328 2669 
Q 3034 2534 3370 2195 
Q 3706 1856 3706 1288 
Q 3706 609 3251 259 
Q 2797 -91 1919 -91 
Q 1588 -91 1214 -16 
Q 841 59 441 206 
L 441 856 
Q 825 641 1194 531 
Q 1563 422 1919 422 
Q 2459 422 2753 634 
Q 3047 847 3047 1241 
Q 3047 1584 2836 1778 
Q 2625 1972 2144 2069 
L 1759 2144 
Q 1053 2284 737 2584 
Q 422 2884 422 3419 
Q 422 4038 858 4394 
Q 1294 4750 2059 4750 
Q 2388 4750 2728 4690 
Q 3069 4631 3425 4513 
z
" transform="scale(0.015625)"/>
       <path id="DejaVuSans-74" d="M 1172 4494 
L 1172 3500 
L 2356 3500 
L 2356 3053 
L 1172 3053 
L 1172 1153 
Q 1172 725 1289 603 
Q 1406 481 1766 481 
L 2356 481 
L 2356 0 
L 1766 0 
Q 1100 0 847 248 
Q 594 497 594 1153 
L 594 3053 
L 172 3053 
L 172 3500 
L 594 3500 
L 594 4494 
L 1172 4494 
z
" transform="scale(0.015625)"/>
       <path id="DejaVuSans-65" d="M 3597 1894 
L 3597 1613 
L 953 1613 
Q 991 1019 1311 708 
Q 1631 397 2203 397 
Q 2534 397 2845 478 
Q 3156 559 3463 722 
L 3463 178 
Q 3153 47 2828 -22 
Q 2503 -91 2169 -91 
Q 1331 -91 842 396 
Q 353 884 353 1716 
Q 353 2575 817 3079 
Q 1281 3584 2069 3584 
Q 2775 3584 3186 3129 
Q 3597 2675 3597 1894 
z
M 3022 2063 
Q 3016 2534 2758 2815 
Q 2500 3097 2075 3097 
Q 1594 3097 1305 2825 
Q 1016 2553 972 2059 
L 3022 2063 
z
" transform="scale(0.015625)"/>
       <path id="DejaVuSans-70" d="M 1159 525 
L 1159 -1331 
L 581 -1331 
L 581 3500 
L 1159 3500 
L 1159 2969 
Q 1341 3281 1617 3432 
Q 1894 3584 2278 3584 
Q 2916 3584 3314 3078 
Q 3713 2572 3713 1747 
Q 3713 922 3314 415 
Q 2916 -91 2278 -91 
Q 1894 -91 1617 61 
Q 1341 213 1159 525 
z
M 3116 1747 
Q 3116 2381 2855 2742 
Q 2594 3103 2138 3103 
Q 1681 3103 1420 2742 
Q 1159 2381 1159 1747 
Q 1159 1113 1420 752 
Q 1681 391 2138 391 
Q 2594 391 2855 752 
Q 3116 1113 3116 1747 
z
" transform="scale(0.015625)"/>
      </defs>
      <use xlink:href="#DejaVuSans-54"/>
      <use xlink:href="#DejaVuSans-72" x="46.333984"/>
      <use xlink:href="#DejaVuSans-61" x="87.447266"/>
      <use xlink:href="#DejaVuSans-69" x="148.726562"/>
      <use xlink:href="#DejaVuSans-6e" x="176.509766"/>
      <use xlink:href="#DejaVuSans-20" x="239.888672"/>
      <use xlink:href="#DejaVuSans-53" x="271.675781"/>
      <use xlink:href="#DejaVuSans-74" x="335.152344"/>
      <use xlink:href="#DejaVuSans-65" x="374.361328"/>
      <use xlink:href="#DejaVuSans-70" x="435.884766"/>
     </g>
    </g>
   </g>
   <g id="matplotlib.axis_2">
    <g id="ytick_1">
     <g id="line2d_13">
      <path d="M 57.6 307.169758 
L 414.72 307.169758 
" clip-path="url(#p8d6202042d)" style="fill: none; stroke: #b0b0b0; stroke-width: 0.8; stroke-linecap: square"/>
     </g>
     <g id="line2d_14">
      <defs>
       <path id="m7a57d0f1e4" d="M 0 0 
L -3.5 0 
" style="stroke: #000000; stroke-width: 0.8"/>
      </defs>
      <g>
       <use xlink:href="#m7a57d0f1e4" x="57.6" y="307.169758" style="stroke: #000000; stroke-width: 0.8"/>
      </g>
     </g>
     <g id="text_8">
      <!-- 0.00 -->
      <g transform="translate(28.334375 310.968977) scale(0.1 -0.1)">
       <defs>
        <path id="DejaVuSans-2e" d="M 684 794 
L 1344 794 
L 1344 0 
L 684 0 
L 684 794 
z
" transform="scale(0.015625)"/>
       </defs>
       <use xlink:href="#DejaVuSans-30"/>
       <use xlink:href="#DejaVuSans-2e" x="63.623047"/>
       <use xlink:href="#DejaVuSans-30" x="95.410156"/>
       <use xlink:href="#DejaVuSans-30" x="159.033203"/>
      </g>
     </g>
    </g>
    <g id="ytick_2">
     <g id="line2d_15">
      <path d="M 57.6 248.541854 
L 414.72 248.541854 
" clip-path="url(#p8d6202042d)" style="fill: none; stroke: #b0b0b0; stroke-width: 0.8; stroke-linecap: square"/>
     </g>
     <g id="line2d_16">
      <g>
       <use xlink:href="#m7a57d0f1e4" x="57.6" y="248.541854" style="stroke: #000000; stroke-width: 0.8"/>
      </g>
     </g>
     <g id="text_9">
      <!-- 0.02 -->
      <g transform="translate(28.334375 252.341072) scale(0.1 -0.1)">
       <use xlink:href="#DejaVuSans-30"/>
       <use xlink:href="#DejaVuSans-2e" x="63.623047"/>
       <use xlink:href="#DejaVuSans-30" x="95.410156"/>
       <use xlink:href="#DejaVuSans-32" x="159.033203"/>
      </g>
     </g>
    </g>
    <g id="ytick_3">
     <g id="line2d_17">
      <path d="M 57.6 189.913949 
L 414.72 189.913949 
" clip-path="url(#p8d6202042d)" style="fill: none; stroke: #b0b0b0; stroke-width: 0.8; stroke-linecap: square"/>
     </g>
     <g id="line2d_18">
      <g>
       <use xlink:href="#m7a57d0f1e4" x="57.6" y="189.913949" style="stroke: #000000; stroke-width: 0.8"/>
      </g>
     </g>
     <g id="text_10">
      <!-- 0.04 -->
      <g transform="translate(28.334375 193.713168) scale(0.1 -0.1)">
       <use xlink:href="#DejaVuSans-30"/>
       <use xlink:href="#DejaVuSans-2e" x="63.623047"/>
       <use xlink:href="#DejaVuSans-30" x="95.410156"/>
       <use xlink:href="#DejaVuSans-34" x="159.033203"/>
      </g>
     </g>
    </g>
    <g id="ytick_4">
     <g id="line2d_19">
      <path d="M 57.6 131.286044 
L 414.72 131.286044 
" clip-path="url(#p8d6202042d)" style="fill: none; stroke: #b0b0b0; stroke-width: 0.8; stroke-linecap: square"/>
     </g>
     <g id="line2d_20">
      <g>
       <use xlink:href="#m7a57d0f1e4" x="57.6" y="131.286044" style="stroke: #000000; stroke-width: 0.8"/>
      </g>
     </g>
     <g id="text_11">
      <!-- 0.06 -->
      <g transform="translate(28.334375 135.085263) scale(0.1 -0.1)">
       <use xlink:href="#DejaVuSans-30"/>
       <use xlink:href="#DejaVuSans-2e" x="63.623047"/>
       <use xlink:href="#DejaVuSans-30" x="95.410156"/>
       <use xlink:href="#DejaVuSans-36" x="159.033203"/>
      </g>
     </g>
    </g>
    <g id="ytick_5">
     <g id="line2d_21">
      <path d="M 57.6 72.658139 
L 414.72 72.658139 
" clip-path="url(#p8d6202042d)" style="fill: none; stroke: #b0b0b0; stroke-width: 0.8; stroke-linecap: square"/>
     </g>
     <g id="line2d_22">
      <g>
       <use xlink:href="#m7a57d0f1e4" x="57.6" y="72.658139" style="stroke: #000000; stroke-width: 0.8"/>
      </g>
     </g>
     <g id="text_12">
      <!-- 0.08 -->
      <g transform="translate(28.334375 76.457358) scale(0.1 -0.1)">
       <use xlink:href="#DejaVuSans-30"/>
       <use xlink:href="#DejaVuSans-2e" x="63.623047"/>
       <use xlink:href="#DejaVuSans-30" x="95.410156"/>
       <use xlink:href="#DejaVuSans-38" x="159.033203"/>
      </g>
     </g>
    </g>
    <g id="text_13">
     <!-- Loss -->
     <g transform="translate(22.254688 185.495187) rotate(-90) scale(0.1 -0.1)">
      <defs>
       <path id="DejaVuSans-4c" d="M 628 4666 
L 1259 4666 
L 1259 531 
L 3531 531 
L 3531 0 
L 628 0 
L 628 4666 
z
" transform="scale(0.015625)"/>
       <path id="DejaVuSans-6f" d="M 1959 3097 
Q 1497 3097 1228 2736 
Q 959 2375 959 1747 
Q 959 1119 1226 758 
Q 1494 397 1959 397 
Q 2419 397 2687 759 
Q 2956 1122 2956 1747 
Q 2956 2369 2687 2733 
Q 2419 3097 1959 3097 
z
M 1959 3584 
Q 2709 3584 3137 3096 
Q 3566 2609 3566 1747 
Q 3566 888 3137 398 
Q 2709 -91 1959 -91 
Q 1206 -91 779 398 
Q 353 888 353 1747 
Q 353 2609 779 3096 
Q 1206 3584 1959 3584 
z
" transform="scale(0.015625)"/>
       <path id="DejaVuSans-73" d="M 2834 3397 
L 2834 2853 
Q 2591 2978 2328 3040 
Q 2066 3103 1784 3103 
Q 1356 3103 1142 2972 
Q 928 2841 928 2578 
Q 928 2378 1081 2264 
Q 1234 2150 1697 2047 
L 1894 2003 
Q 2506 1872 2764 1633 
Q 3022 1394 3022 966 
Q 3022 478 2636 193 
Q 2250 -91 1575 -91 
Q 1294 -91 989 -36 
Q 684 19 347 128 
L 347 722 
Q 666 556 975 473 
Q 1284 391 1588 391 
Q 1994 391 2212 530 
Q 2431 669 2431 922 
Q 2431 1156 2273 1281 
Q 2116 1406 1581 1522 
L 1381 1569 
Q 847 1681 609 1914 
Q 372 2147 372 2553 
Q 372 3047 722 3315 
Q 1072 3584 1716 3584 
Q 2034 3584 2315 3537 
Q 2597 3491 2834 3397 
z
" transform="scale(0.015625)"/>
      </defs>
      <use xlink:href="#DejaVuSans-4c"/>
      <use xlink:href="#DejaVuSans-6f" x="53.962891"/>
      <use xlink:href="#DejaVuSans-73" x="115.144531"/>
      <use xlink:href="#DejaVuSans-73" x="167.244141"/>
     </g>
    </g>
   </g>
   <g id="line2d_23">
    <path d="M 73.832727 68.12799 
L 74.157707 138.714242 
L 74.482686 135.211524 
L 74.807666 107.161504 
L 75.132645 68.468485 
L 75.457625 80.224928 
L 75.782604 54.891933 
L 76.107584 74.232808 
L 76.432563 128.727149 
L 77.082523 72.115886 
L 77.732482 116.161228 
L 78.057461 114.911705 
L 78.382441 68.626786 
L 79.0324 115.296515 
L 79.357379 90.755154 
L 79.682359 53.568 
L 80.007338 97.381525 
L 80.332318 98.335741 
L 80.657297 78.558906 
L 80.982277 155.91131 
L 81.307256 93.35211 
L 81.632236 124.721857 
L 81.957215 101.432017 
L 82.282195 162.494491 
L 82.607174 124.215788 
L 82.932154 152.593166 
L 83.257133 87.2659 
L 83.582113 101.142607 
L 84.232072 152.262882 
L 84.557052 135.001527 
L 84.882031 180.897826 
L 85.207011 118.259366 
L 85.53199 147.151702 
L 85.85697 150.764082 
L 86.181949 140.367051 
L 86.506929 101.767663 
L 86.831908 152.966411 
L 87.156888 167.784819 
L 87.806847 136.633194 
L 88.456806 161.615757 
L 88.781785 135.955655 
L 89.106765 156.09097 
L 89.431744 151.624558 
L 89.756724 189.166643 
L 90.081704 144.277468 
L 90.406683 188.378077 
L 90.731663 207.59968 
L 91.056642 195.38916 
L 91.381622 161.418165 
L 91.706601 159.626624 
L 92.031581 188.245199 
L 92.35656 198.588392 
L 92.68154 175.16895 
L 93.006519 185.750817 
L 93.331499 202.48957 
L 93.656478 174.101327 
L 94.306437 204.992514 
L 94.956396 194.032771 
L 95.281376 189.503709 
L 95.606355 177.799945 
L 96.256314 227.722448 
L 96.581294 199.070622 
L 96.906274 225.729652 
L 97.556233 201.483713 
L 97.881212 173.609848 
L 98.206192 238.878237 
L 98.531171 213.684601 
L 98.856151 247.645588 
L 99.18113 228.350977 
L 99.50611 222.778873 
L 99.831089 243.19929 
L 100.156069 227.387375 
L 100.481048 224.867942 
L 100.806028 236.861062 
L 101.131007 208.295948 
L 101.455987 229.969387 
L 101.780966 238.564978 
L 102.105946 235.885617 
L 102.430925 228.025503 
L 102.755905 224.314272 
L 103.080885 232.191056 
L 103.405864 227.848206 
L 103.730844 247.176714 
L 104.380803 237.281728 
L 104.705782 215.14446 
L 105.030762 250.781777 
L 105.355741 245.230651 
L 105.680721 218.909506 
L 106.0057 227.460361 
L 106.33068 229.008494 
L 106.655659 219.719764 
L 106.980639 237.155975 
L 107.305618 235.158139 
L 107.630598 231.908761 
L 107.955577 237.276159 
L 108.280557 229.453578 
L 108.605536 252.807116 
L 108.930516 180.70304 
L 109.255495 240.723456 
L 109.580475 228.226327 
L 109.905455 220.925158 
L 110.230434 234.331828 
L 110.555414 211.536797 
L 111.205373 250.762427 
L 111.530352 230.155463 
L 111.855332 245.91287 
L 112.180311 217.599184 
L 112.505291 233.332276 
L 112.83027 235.247085 
L 113.480229 254.039209 
L 113.805209 252.954993 
L 114.130188 244.322022 
L 114.455168 230.21131 
L 114.780147 231.796921 
L 115.105127 243.724808 
L 115.430106 235.172205 
L 115.755086 248.648475 
L 116.080066 220.081947 
L 116.405045 229.007445 
L 116.730025 259.24087 
L 117.379984 229.796147 
L 117.704963 253.003851 
L 118.029943 219.585707 
L 118.354922 224.780722 
L 118.679902 239.109267 
L 119.004881 247.591336 
L 119.329861 264.3883 
L 119.65484 232.030883 
L 119.97982 246.107573 
L 120.304799 231.009311 
L 120.629779 206.652399 
L 120.954758 230.047691 
L 121.279738 225.320469 
L 121.604717 215.852887 
L 121.929697 244.025072 
L 122.254676 237.980753 
L 122.579656 235.511291 
L 122.904636 255.996438 
L 123.229615 245.213583 
L 123.554595 245.860458 
L 123.879574 253.715002 
L 124.204554 217.758326 
L 124.529533 257.804982 
L 124.854513 240.822968 
L 125.179492 251.922752 
L 125.504472 244.601757 
L 125.829451 251.672022 
L 126.154431 263.169264 
L 126.47941 251.569196 
L 126.80439 234.94052 
L 127.129369 259.565607 
L 127.454349 269.002543 
L 127.779328 263.658594 
L 128.104308 250.907568 
L 128.429287 245.759046 
L 129.079247 249.925582 
L 129.404226 260.594037 
L 129.729206 243.236304 
L 130.054185 265.916838 
L 130.379165 266.702387 
L 130.704144 246.774814 
L 131.029124 248.732916 
L 131.354103 267.864561 
L 131.679083 253.526927 
L 132.004062 254.976963 
L 132.654021 248.710579 
L 132.979001 253.178013 
L 133.30398 246.662379 
L 133.62896 269.778362 
L 133.953939 265.836241 
L 134.603898 249.981926 
L 134.928878 265.540085 
L 135.253857 267.041979 
L 135.578837 252.884295 
L 135.903817 257.974366 
L 136.228796 243.371219 
L 136.553776 246.316173 
L 136.878755 243.0426 
L 137.203735 255.60892 
L 137.528714 258.332503 
L 137.853694 250.274033 
L 138.178673 226.857228 
L 138.503653 269.259804 
L 139.153612 244.723371 
L 139.478591 254.090584 
L 139.803571 248.306397 
L 140.12855 252.649476 
L 140.45353 269.383853 
L 140.778509 246.668691 
L 141.103489 241.53442 
L 141.428468 246.979193 
L 141.753448 235.477302 
L 142.078428 249.668972 
L 142.403407 255.80607 
L 142.728387 257.403562 
L 143.053366 230.015755 
L 143.378346 258.469962 
L 143.703325 252.434706 
L 144.028305 260.567009 
L 144.353284 262.388452 
L 144.678264 245.211978 
L 145.003243 263.796725 
L 145.328223 224.235641 
L 145.978182 261.816987 
L 146.303161 241.521561 
L 146.628141 268.831198 
L 146.95312 225.336472 
L 147.2781 244.672285 
L 147.928059 250.306455 
L 148.253038 236.498016 
L 148.578018 278.673674 
L 148.902998 244.570263 
L 149.227977 254.092703 
L 149.552957 267.351132 
L 149.877936 243.558164 
L 150.527895 273.633094 
L 150.852875 249.891505 
L 151.177854 270.06976 
L 151.502834 272.202092 
L 151.827813 238.732222 
L 152.152793 269.246181 
L 152.477772 267.253701 
L 152.802752 268.185787 
L 153.127731 262.037968 
L 153.452711 268.409593 
L 153.77769 269.408773 
L 154.427649 260.288083 
L 154.752629 260.535744 
L 155.077609 273.31712 
L 155.402588 246.607428 
L 155.727568 250.38904 
L 156.052547 270.959731 
L 156.377527 242.329576 
L 156.702506 269.482436 
L 157.027486 263.369662 
L 157.352465 249.314439 
L 157.677445 252.5845 
L 158.002424 272.740862 
L 158.327404 255.169062 
L 158.652383 256.531183 
L 158.977363 268.292416 
L 159.302342 268.83392 
L 159.627322 265.455805 
L 159.952301 277.511888 
L 160.277281 273.281081 
L 160.60226 273.294788 
L 160.92724 258.885065 
L 161.252219 268.425523 
L 161.577199 255.339102 
L 161.902179 250.219819 
L 162.227158 253.622715 
L 162.552138 265.882904 
L 162.877117 261.21598 
L 163.202097 260.568472 
L 163.527076 261.261764 
L 163.852056 264.249009 
L 164.177035 279.687493 
L 164.826994 255.602805 
L 165.151974 271.84742 
L 165.476953 258.554518 
L 165.801933 277.503507 
L 166.126912 274.797394 
L 166.451892 262.45141 
L 166.776871 272.984384 
L 167.101851 275.232473 
L 167.42683 234.390748 
L 167.75181 254.105206 
L 168.07679 248.500161 
L 168.401769 234.23782 
L 168.726749 274.485767 
L 169.051728 278.330736 
L 169.701687 262.551156 
L 170.026667 270.801111 
L 170.351646 237.793317 
L 171.001605 260.814769 
L 171.326585 226.97164 
L 171.651564 263.753953 
L 171.976544 234.8609 
L 172.301523 260.687132 
L 172.626503 260.856047 
L 172.951482 266.148543 
L 173.276462 237.761304 
L 173.601441 278.81323 
L 173.926421 254.304223 
L 174.2514 264.304435 
L 174.57638 262.213874 
L 174.90136 253.845882 
L 175.226339 253.001017 
L 175.876298 282.7893 
L 176.201278 266.716647 
L 176.526257 259.38362 
L 176.851237 271.096494 
L 177.176216 244.22048 
L 177.501196 275.061679 
L 177.826175 267.912466 
L 178.151155 268.42027 
L 178.476134 248.591122 
L 178.801114 268.242092 
L 179.126093 267.118101 
L 179.451073 258.012855 
L 179.776052 281.428273 
L 180.101032 264.847419 
L 180.426011 265.355612 
L 180.750991 268.381462 
L 181.075971 274.029806 
L 181.40095 264.484041 
L 181.72593 265.052472 
L 182.050909 260.668617 
L 182.700868 277.738768 
L 183.025848 255.526014 
L 183.350827 260.046526 
L 183.675807 275.333455 
L 184.000786 262.722823 
L 184.325766 270.894714 
L 184.650745 265.877782 
L 184.975725 269.830387 
L 185.300704 257.59511 
L 185.625684 269.019795 
L 186.275643 255.246443 
L 186.600622 262.002062 
L 186.925602 283.333499 
L 187.250581 265.643072 
L 187.575561 274.953208 
L 187.900541 236.621132 
L 188.5505 248.007033 
L 188.875479 281.294912 
L 189.200459 266.608254 
L 189.525438 270.170641 
L 189.850418 237.150007 
L 190.175397 278.652036 
L 190.500377 274.680168 
L 190.825356 277.245141 
L 191.475315 273.472893 
L 191.800295 278.772295 
L 192.125274 277.582103 
L 192.450254 239.36851 
L 192.775233 250.287716 
L 193.100213 269.095702 
L 193.425192 254.86088 
L 193.750172 269.849552 
L 194.075152 276.347973 
L 194.400131 286.388081 
L 195.37507 262.197854 
L 196.025029 279.967003 
L 196.350008 275.106335 
L 196.674988 278.037985 
L 196.999967 275.227354 
L 197.324947 264.509867 
L 197.649926 257.830775 
L 197.974906 272.886173 
L 198.299885 273.174979 
L 198.624865 272.864949 
L 198.949844 274.372786 
L 199.274824 274.973661 
L 199.599803 268.377356 
L 199.924783 272.78297 
L 200.249762 260.891429 
L 200.574742 253.657037 
L 200.899722 283.28996 
L 201.224701 266.328583 
L 201.549681 274.225643 
L 201.87466 278.253013 
L 202.19964 271.231573 
L 202.524619 278.112109 
L 202.849599 269.323248 
L 203.174578 282.959842 
L 203.499558 276.527008 
L 203.824537 278.996025 
L 204.149517 277.350915 
L 204.474496 261.045422 
L 204.799476 271.271667 
L 205.124455 276.431267 
L 205.449435 268.834606 
L 206.099394 276.408892 
L 206.749353 273.147799 
L 207.074333 277.058284 
L 207.399312 277.046214 
L 207.724292 274.396786 
L 208.049271 278.582375 
L 208.374251 271.248472 
L 208.69923 281.439799 
L 209.02421 279.581266 
L 209.349189 279.223492 
L 209.674169 276.616306 
L 209.999148 282.252174 
L 210.324128 276.201854 
L 210.649107 282.697654 
L 210.974087 273.757326 
L 211.299066 289.137819 
L 211.624046 270.389099 
L 211.949025 272.892747 
L 212.274005 280.523532 
L 212.598984 282.282729 
L 212.923964 265.276887 
L 213.248943 284.965931 
L 213.573923 276.003503 
L 213.898903 274.113393 
L 214.223882 277.333453 
L 214.548862 269.594991 
L 214.873841 280.411907 
L 215.5238 276.0517 
L 215.84878 284.482897 
L 216.173759 280.916643 
L 216.498739 259.088308 
L 216.823718 278.643949 
L 217.148698 279.496895 
L 217.473677 269.414981 
L 217.798657 271.388104 
L 218.123636 285.120894 
L 218.448616 271.921026 
L 218.773595 278.506932 
L 219.098575 279.608291 
L 219.423554 271.921272 
L 219.748534 258.682646 
L 220.073514 272.163402 
L 220.723473 253.034777 
L 221.048452 243.750236 
L 221.373432 272.004189 
L 221.698411 259.208333 
L 222.023391 268.053908 
L 222.34837 252.07604 
L 222.67335 213.649045 
L 222.998329 237.917005 
L 223.323309 276.190884 
L 223.648288 259.814578 
L 223.973268 220.462716 
L 224.298247 277.076226 
L 224.623227 253.309914 
L 224.948206 249.620567 
L 225.273186 243.398755 
L 225.598165 244.942246 
L 225.923145 263.959132 
L 226.248124 256.105554 
L 226.573104 276.934284 
L 226.898084 265.327022 
L 227.223063 267.08988 
L 227.548043 261.924331 
L 227.873022 279.271992 
L 228.522981 265.333615 
L 228.847961 248.525922 
L 229.17294 269.243486 
L 229.49792 251.77719 
L 229.822899 249.710027 
L 230.147879 276.040026 
L 230.472858 262.499211 
L 231.122817 243.704125 
L 231.447797 277.749437 
L 231.772776 257.754033 
L 232.097756 256.243892 
L 232.422735 251.117511 
L 232.747715 277.112716 
L 233.072695 269.236735 
L 233.397674 264.830323 
L 233.722654 273.303153 
L 234.047633 264.744479 
L 234.697592 279.072808 
L 235.022572 277.22487 
L 235.347551 280.620572 
L 235.672531 267.640517 
L 235.99751 282.692732 
L 236.32249 283.017408 
L 236.647469 262.211568 
L 236.972449 270.073917 
L 237.297428 289.602871 
L 237.622408 274.63276 
L 237.947387 268.805255 
L 238.272367 283.146492 
L 238.597346 271.388645 
L 238.922326 251.471471 
L 239.247305 266.45593 
L 239.572285 288.046547 
L 239.897265 266.329473 
L 240.222244 272.198926 
L 240.547224 275.337632 
L 240.872203 284.117623 
L 241.197183 284.247037 
L 241.522162 283.957081 
L 241.847142 281.971342 
L 242.172121 275.185679 
L 242.497101 285.112045 
L 242.82208 264.842909 
L 243.14706 266.746437 
L 243.472039 283.354627 
L 243.797019 283.831345 
L 244.121998 242.56475 
L 244.446978 271.27165 
L 244.771957 281.865514 
L 245.096937 263.673656 
L 245.421916 274.693832 
L 245.746896 271.201594 
L 246.071876 250.78976 
L 246.721835 277.148444 
L 247.046814 256.345986 
L 247.371794 273.811084 
L 248.021753 280.394959 
L 248.346732 266.080031 
L 248.671712 268.430451 
L 248.996691 279.332422 
L 249.321671 276.675653 
L 249.64665 283.076525 
L 249.97163 280.050093 
L 250.296609 279.280111 
L 250.621589 261.438282 
L 250.946568 289.546738 
L 251.596527 269.157726 
L 251.921507 286.241482 
L 252.246486 286.181437 
L 252.571466 272.220971 
L 252.896446 280.240112 
L 253.221425 275.382979 
L 253.546405 289.88895 
L 253.871384 278.315295 
L 254.196364 283.71675 
L 254.521343 285.808955 
L 254.846323 291.870681 
L 255.171302 271.422613 
L 255.496282 276.465745 
L 255.821261 278.180202 
L 256.146241 284.09282 
L 256.47122 264.234422 
L 256.7962 286.09896 
L 257.121179 270.276767 
L 257.446159 283.07527 
L 257.771138 280.936071 
L 258.096118 285.703362 
L 258.421097 284.906084 
L 258.746077 283.497306 
L 259.071057 274.731395 
L 259.396036 273.568481 
L 259.721016 280.062305 
L 260.045995 269.358029 
L 260.370975 271.628905 
L 260.695954 281.688149 
L 261.020934 288.188451 
L 261.345913 280.745784 
L 261.670893 286.107819 
L 261.995872 286.253762 
L 262.320852 283.210264 
L 262.645831 288.894024 
L 262.970811 281.752488 
L 263.29579 282.884203 
L 263.62077 293.177784 
L 263.945749 282.795279 
L 264.270729 282.958264 
L 264.595708 279.502361 
L 264.920688 278.683153 
L 265.245667 286.347915 
L 265.895627 278.95443 
L 266.220606 285.319392 
L 266.545586 276.6227 
L 266.870565 271.904119 
L 267.195545 286.449954 
L 267.520524 282.92701 
L 267.845504 272.221443 
L 268.170483 286.427471 
L 268.820442 273.19406 
L 269.145422 275.21883 
L 269.470401 268.057108 
L 269.795381 280.235233 
L 270.12036 278.390107 
L 270.44534 257.171091 
L 270.770319 274.80019 
L 271.095299 278.011582 
L 271.420278 277.55042 
L 271.745258 283.128097 
L 272.070238 282.325971 
L 272.395217 286.400862 
L 272.720197 284.449978 
L 273.370156 271.668461 
L 273.695135 282.577872 
L 274.020115 288.851825 
L 274.345094 281.947121 
L 274.670074 288.04729 
L 274.995053 267.372918 
L 275.645012 291.972928 
L 276.294971 257.761169 
L 276.619951 276.458508 
L 276.94493 274.870762 
L 277.26991 285.211311 
L 277.594889 282.153632 
L 277.919869 285.780165 
L 278.244848 267.961528 
L 278.569828 266.652894 
L 278.894808 264.350155 
L 279.219787 280.817618 
L 279.544767 269.224073 
L 279.869746 261.626545 
L 280.519705 282.109593 
L 280.844685 285.597277 
L 281.169664 265.539264 
L 281.494644 284.84546 
L 281.819623 295.488 
L 282.144603 283.88166 
L 282.469582 276.298395 
L 282.794562 274.998178 
L 283.119541 276.887859 
L 283.444521 261.045394 
L 283.7695 265.787673 
L 284.419459 283.836447 
L 285.069419 256.879923 
L 285.394398 278.314314 
L 285.719378 285.826298 
L 286.044357 276.695047 
L 286.369337 272.419101 
L 286.694316 271.371688 
L 287.019296 277.617954 
L 287.344275 275.499526 
L 287.669255 251.886551 
L 287.994234 288.066227 
L 288.319214 269.899193 
L 288.969173 280.402357 
L 289.294152 280.234147 
L 289.619132 280.683571 
L 289.944111 280.529344 
L 290.269091 277.521403 
L 290.59407 275.560614 
L 290.91905 260.099194 
L 291.244029 279.076164 
L 291.569009 280.477697 
L 291.893989 286.70529 
L 292.218968 281.117989 
L 292.543948 281.199506 
L 292.868927 282.053021 
L 293.193907 277.789157 
L 293.518886 269.418006 
L 294.168845 283.566137 
L 294.493825 272.975269 
L 294.818804 277.665048 
L 295.143784 275.238825 
L 295.468763 245.233764 
L 295.793743 287.597615 
L 296.118722 276.068075 
L 296.443702 269.363598 
L 296.768681 272.273484 
L 297.093661 269.596662 
L 297.74362 282.795298 
L 298.0686 280.009134 
L 298.393579 290.22744 
L 299.043538 277.051322 
L 299.368518 275.613034 
L 299.693497 290.439593 
L 300.343456 280.735145 
L 300.668436 277.583487 
L 300.993415 285.889915 
L 301.318395 273.400046 
L 301.643374 279.425419 
L 301.968354 276.89737 
L 302.293333 289.552957 
L 302.618313 279.399863 
L 302.943292 284.879823 
L 303.268272 277.013418 
L 303.593251 279.476338 
L 303.918231 274.151385 
L 304.24321 274.469518 
L 304.56819 263.11255 
L 304.89317 269.880322 
L 305.218149 261.130676 
L 305.543129 289.246082 
L 306.193088 269.495417 
L 306.518067 284.322267 
L 307.168026 283.491781 
L 307.493006 292.268953 
L 307.817985 267.080325 
L 308.142965 273.37292 
L 308.467944 286.556571 
L 308.792924 288.000691 
L 309.117903 271.703592 
L 309.442883 281.580876 
L 309.767862 263.992966 
L 310.092842 279.355811 
L 310.417821 270.069211 
L 310.742801 280.065193 
L 311.067781 280.131185 
L 311.39276 285.55411 
L 312.042719 281.781648 
L 312.367699 278.712059 
L 312.692678 262.417885 
L 313.017658 286.719372 
L 313.342637 286.194623 
L 313.667617 282.205334 
L 313.992596 273.77387 
L 314.317576 274.350768 
L 314.642555 271.628182 
L 315.292514 287.706369 
L 315.617494 282.725577 
L 315.942473 283.35751 
L 316.267453 291.137269 
L 316.592432 274.283619 
L 316.917412 290.861418 
L 317.242391 269.858607 
L 317.567371 258.457655 
L 317.892351 289.660796 
L 318.21733 277.507061 
L 318.54231 280.550147 
L 318.867289 273.310522 
L 319.192269 278.427533 
L 319.517248 271.416759 
L 319.842228 287.683776 
L 320.167207 275.250917 
L 320.492187 282.960323 
L 320.817166 286.296158 
L 321.142146 287.685616 
L 321.467125 283.321735 
L 321.792105 283.212115 
L 322.117084 275.328596 
L 322.442064 279.004475 
L 322.767043 279.324387 
L 323.417002 277.707184 
L 323.741982 288.800927 
L 324.066962 279.441843 
L 324.391941 281.00061 
L 324.716921 260.520838 
L 325.0419 275.546453 
L 325.36688 273.673106 
L 325.691859 276.977763 
L 326.016839 287.442136 
L 326.341818 276.530481 
L 326.666798 287.077948 
L 327.316757 258.764838 
L 327.641736 284.586195 
L 327.966716 280.656481 
L 328.291695 278.662003 
L 328.941654 269.929578 
L 329.266634 287.647944 
L 329.591613 282.454795 
L 329.916593 275.243406 
L 330.241572 278.918376 
L 330.566552 261.2991 
L 330.891532 281.252363 
L 331.216511 279.920824 
L 331.541491 274.640101 
L 331.86647 274.928946 
L 332.19145 268.559398 
L 332.516429 282.679974 
L 332.841409 276.202209 
L 333.166388 253.172072 
L 333.491368 272.369632 
L 333.816347 268.707736 
L 334.141327 277.811899 
L 334.466306 268.81496 
L 334.791286 289.596196 
L 335.441245 282.882313 
L 335.766224 272.354949 
L 336.091204 286.778868 
L 336.416183 279.415168 
L 336.741163 280.301484 
L 337.066143 277.168486 
L 337.391122 279.575257 
L 337.716102 267.380057 
L 338.041081 290.282733 
L 338.69104 280.924484 
L 339.01602 281.67158 
L 339.340999 275.249421 
L 339.665979 277.665444 
L 339.990958 271.987733 
L 340.315938 275.404912 
L 340.640917 281.443288 
L 340.965897 281.674157 
L 341.290876 285.724874 
L 341.615856 281.669401 
L 341.940835 269.132132 
L 342.265815 285.810317 
L 342.590794 294.046299 
L 343.565733 276.282686 
L 343.890713 285.956952 
L 344.215692 278.544209 
L 344.540672 278.675634 
L 344.865651 276.810551 
L 345.190631 289.335836 
L 345.51561 291.561683 
L 345.84059 275.032743 
L 346.165569 279.214112 
L 346.490549 274.486398 
L 346.815528 291.264867 
L 347.140508 269.743024 
L 347.465487 281.872541 
L 347.790467 282.592893 
L 348.115446 282.770058 
L 348.440426 286.630942 
L 348.765405 285.583677 
L 349.090385 281.485695 
L 349.415364 286.193232 
L 349.740344 282.113243 
L 350.390303 290.565583 
L 350.715283 261.831672 
L 351.040262 280.420714 
L 351.365242 285.27368 
L 351.690221 273.942095 
L 352.015201 291.65878 
L 352.34018 278.853428 
L 352.66516 280.03315 
L 352.990139 279.371088 
L 353.315119 272.7617 
L 353.640098 262.79371 
L 354.290057 268.76222 
L 354.615037 246.667992 
L 354.940016 272.348037 
L 355.264996 273.05416 
L 355.589975 276.775298 
L 355.914955 263.991131 
L 356.239934 284.987126 
L 356.564914 277.175393 
L 356.889894 293.053498 
L 357.214873 289.502802 
L 357.539853 287.957477 
L 357.864832 281.738262 
L 358.189812 269.004711 
L 358.514791 284.716581 
L 358.839771 285.622856 
L 359.16475 278.860742 
L 359.48973 284.790993 
L 359.814709 285.770091 
L 360.139689 283.190146 
L 360.464668 292.88237 
L 360.789648 280.691115 
L 361.114627 286.502003 
L 361.439607 283.30562 
L 361.764586 281.241206 
L 362.089566 278.335358 
L 362.414545 289.483523 
L 362.739525 281.084619 
L 363.064505 279.882685 
L 363.389484 289.719127 
L 363.714464 289.720973 
L 364.039443 277.851406 
L 364.364423 289.171102 
L 364.689402 271.63498 
L 365.014382 285.482454 
L 365.339361 285.84567 
L 365.664341 290.83064 
L 365.98932 277.478226 
L 366.3143 289.949503 
L 366.639279 267.421486 
L 367.289238 276.994506 
L 367.614218 267.553439 
L 367.939197 276.770861 
L 368.264177 259.707942 
L 368.589156 262.335204 
L 369.239115 275.686866 
L 369.564095 265.987214 
L 369.889075 277.078189 
L 370.214054 277.603982 
L 370.539034 254.370095 
L 370.864013 272.159905 
L 371.188993 265.49098 
L 371.513972 271.406483 
L 371.838952 287.754385 
L 372.163931 279.749214 
L 372.488911 264.503686 
L 372.81389 283.453726 
L 373.13887 264.329843 
L 373.463849 272.6201 
L 374.113808 254.418532 
L 374.438788 266.884898 
L 374.763767 273.266674 
L 375.088747 260.262545 
L 375.413726 257.37108 
L 375.738706 261.05472 
L 376.063686 284.302031 
L 376.388665 244.697402 
L 376.713645 281.042019 
L 377.038624 279.629629 
L 377.363604 258.325792 
L 377.688583 248.490934 
L 378.013563 280.484069 
L 378.338542 280.148288 
L 378.663522 281.222526 
L 378.988501 290.862193 
L 379.313481 278.334678 
L 379.63846 277.282144 
L 379.96344 270.450553 
L 380.613399 286.685784 
L 380.938378 274.2292 
L 381.263358 279.12507 
L 381.588337 282.30974 
L 381.913317 262.622457 
L 382.238296 288.652012 
L 382.563276 289.557787 
L 382.888256 280.725361 
L 383.213235 279.588724 
L 383.538215 287.78252 
L 384.188174 266.488571 
L 384.513153 274.837682 
L 384.838133 278.116706 
L 385.163112 269.586861 
L 385.488092 275.200648 
L 385.813071 283.767305 
L 386.138051 279.374364 
L 386.46303 287.356904 
L 386.78801 287.279429 
L 387.112989 285.013201 
L 387.437969 275.053391 
L 387.762948 282.58847 
L 388.087928 285.067447 
L 388.412907 284.880164 
L 388.737887 277.498688 
L 389.062867 282.239324 
L 389.387846 271.928831 
L 389.712826 284.459779 
L 390.037805 274.121701 
L 390.362785 286.068473 
L 391.012744 291.216236 
L 391.337723 284.445454 
L 391.662703 288.386404 
L 391.987682 289.654581 
L 392.312662 282.33151 
L 392.637641 282.937267 
L 392.962621 287.468589 
L 393.2876 274.070564 
L 393.61258 284.084491 
L 393.937559 265.793144 
L 394.262539 273.075845 
L 394.587518 271.537762 
L 394.912498 287.16756 
L 395.237477 271.936508 
L 395.562457 282.971057 
L 396.212416 272.481319 
L 396.537396 291.378823 
L 397.187355 256.526695 
L 397.512334 287.761086 
L 397.837314 283.492611 
L 398.162293 270.380999 
L 398.487273 277.183982 
L 398.487273 277.183982 
" clip-path="url(#p8d6202042d)" style="fill: none; stroke: #1f77b4; stroke-width: 1.5; stroke-linecap: square"/>
   </g>
   <g id="line2d_24">
    <path d="M 73.832727 89.005221 
L 77.082523 99.08004 
L 80.332318 102.647661 
L 83.582113 116.864585 
L 86.831908 135.510434 
L 90.081704 150.872666 
L 93.331499 165.269568 
L 96.581294 184.854356 
L 99.831089 190.288664 
L 103.080885 212.682938 
L 106.33068 212.653441 
L 109.580475 182.835731 
L 112.83027 207.226249 
L 116.080066 211.986969 
L 119.329861 194.966867 
L 122.579656 219.29374 
L 125.829451 233.793485 
L 129.079247 237.23449 
L 132.329042 207.485311 
L 135.578837 223.568431 
L 138.828632 226.618841 
L 142.078428 226.948259 
L 145.328223 234.644959 
L 148.578018 227.867203 
L 151.827813 247.669329 
L 155.077609 244.788772 
L 158.327404 241.973246 
L 161.577199 239.914034 
L 164.826994 253.443328 
L 168.07679 227.648252 
L 171.326585 237.336817 
L 174.57638 240.005244 
L 177.826175 240.616646 
L 181.075971 238.575929 
L 184.325766 246.110095 
L 187.575561 237.903701 
L 190.825356 255.586168 
L 194.075152 250.422525 
L 197.324947 249.010585 
L 200.574742 251.51028 
L 203.824537 256.759195 
L 207.074333 262.598062 
L 210.324128 260.222247 
L 213.573923 262.213523 
L 216.823718 263.02137 
L 220.073514 239.387023 
L 223.323309 231.914212 
L 226.573104 230.031778 
L 229.822899 252.271286 
L 233.072695 246.671857 
L 236.32249 253.675747 
L 239.572285 262.254639 
L 242.82208 265.245142 
L 246.071876 264.148011 
L 249.321671 250.848827 
L 252.571466 258.58637 
L 255.821261 264.988886 
L 259.071057 268.971254 
L 262.320852 269.968618 
L 265.570647 268.29183 
L 268.820442 269.267081 
L 272.070238 266.195626 
L 275.320033 260.172691 
L 278.569828 231.744686 
L 281.819623 260.222044 
L 285.069419 269.408528 
L 288.319214 262.018234 
L 291.569009 271.387054 
L 294.818804 271.098615 
L 298.0686 263.091047 
L 301.318395 263.542057 
L 304.56819 270.971686 
L 307.817985 261.616016 
L 311.067781 262.301326 
L 314.317576 271.62001 
L 317.567371 269.051993 
L 320.817166 272.981216 
L 324.066962 273.677584 
L 327.316757 272.967795 
L 330.566552 265.579214 
L 333.816347 265.003955 
L 337.066143 261.418341 
L 340.315938 275.243664 
L 343.565733 275.705558 
L 346.815528 268.553501 
L 350.065324 274.627378 
L 353.315119 251.362497 
L 356.564914 266.507347 
L 359.814709 271.021168 
L 363.064505 275.147117 
L 366.3143 264.881961 
L 369.564095 264.95126 
L 372.81389 255.934921 
L 376.063686 243.519898 
L 379.313481 241.749748 
L 382.563276 254.142762 
L 385.813071 266.473848 
L 389.062867 270.5657 
L 392.312662 269.257422 
L 395.562457 264.549229 
" clip-path="url(#p8d6202042d)" style="fill: none; stroke: #ff7f0e; stroke-width: 1.5; stroke-linecap: square"/>
   </g>
   <g id="patch_3">
    <path d="M 57.6 307.584 
L 57.6 41.472 
" style="fill: none; stroke: #000000; stroke-width: 0.8; stroke-linejoin: miter; stroke-linecap: square"/>
   </g>
   <g id="patch_4">
    <path d="M 414.72 307.584 
L 414.72 41.472 
" style="fill: none; stroke: #000000; stroke-width: 0.8; stroke-linejoin: miter; stroke-linecap: square"/>
   </g>
   <g id="patch_5">
    <path d="M 57.6 307.584 
L 414.72 307.584 
" style="fill: none; stroke: #000000; stroke-width: 0.8; stroke-linejoin: miter; stroke-linecap: square"/>
   </g>
   <g id="patch_6">
    <path d="M 57.6 41.472 
L 414.72 41.472 
" style="fill: none; stroke: #000000; stroke-width: 0.8; stroke-linejoin: miter; stroke-linecap: square"/>
   </g>
   <g id="text_14">
    <!-- Train Loss vs Validation Loss -->
    <g transform="translate(151.513125 35.472) scale(0.12 -0.12)">
     <defs>
      <path id="DejaVuSans-76" d="M 191 3500 
L 800 3500 
L 1894 563 
L 2988 3500 
L 3597 3500 
L 2284 0 
L 1503 0 
L 191 3500 
z
" transform="scale(0.015625)"/>
      <path id="DejaVuSans-56" d="M 1831 0 
L 50 4666 
L 709 4666 
L 2188 738 
L 3669 4666 
L 4325 4666 
L 2547 0 
L 1831 0 
z
" transform="scale(0.015625)"/>
      <path id="DejaVuSans-6c" d="M 603 4863 
L 1178 4863 
L 1178 0 
L 603 0 
L 603 4863 
z
" transform="scale(0.015625)"/>
      <path id="DejaVuSans-64" d="M 2906 2969 
L 2906 4863 
L 3481 4863 
L 3481 0 
L 2906 0 
L 2906 525 
Q 2725 213 2448 61 
Q 2172 -91 1784 -91 
Q 1150 -91 751 415 
Q 353 922 353 1747 
Q 353 2572 751 3078 
Q 1150 3584 1784 3584 
Q 2172 3584 2448 3432 
Q 2725 3281 2906 2969 
z
M 947 1747 
Q 947 1113 1208 752 
Q 1469 391 1925 391 
Q 2381 391 2643 752 
Q 2906 1113 2906 1747 
Q 2906 2381 2643 2742 
Q 2381 3103 1925 3103 
Q 1469 3103 1208 2742 
Q 947 2381 947 1747 
z
" transform="scale(0.015625)"/>
     </defs>
     <use xlink:href="#DejaVuSans-54"/>
     <use xlink:href="#DejaVuSans-72" x="46.333984"/>
     <use xlink:href="#DejaVuSans-61" x="87.447266"/>
     <use xlink:href="#DejaVuSans-69" x="148.726562"/>
     <use xlink:href="#DejaVuSans-6e" x="176.509766"/>
     <use xlink:href="#DejaVuSans-20" x="239.888672"/>
     <use xlink:href="#DejaVuSans-4c" x="271.675781"/>
     <use xlink:href="#DejaVuSans-6f" x="325.638672"/>
     <use xlink:href="#DejaVuSans-73" x="386.820312"/>
     <use xlink:href="#DejaVuSans-73" x="438.919922"/>
     <use xlink:href="#DejaVuSans-20" x="491.019531"/>
     <use xlink:href="#DejaVuSans-76" x="522.806641"/>
     <use xlink:href="#DejaVuSans-73" x="581.986328"/>
     <use xlink:href="#DejaVuSans-20" x="634.085938"/>
     <use xlink:href="#DejaVuSans-56" x="665.873047"/>
     <use xlink:href="#DejaVuSans-61" x="726.53125"/>
     <use xlink:href="#DejaVuSans-6c" x="787.810547"/>
     <use xlink:href="#DejaVuSans-69" x="815.59375"/>
     <use xlink:href="#DejaVuSans-64" x="843.376953"/>
     <use xlink:href="#DejaVuSans-61" x="906.853516"/>
     <use xlink:href="#DejaVuSans-74" x="968.132812"/>
     <use xlink:href="#DejaVuSans-69" x="1007.341797"/>
     <use xlink:href="#DejaVuSans-6f" x="1035.125"/>
     <use xlink:href="#DejaVuSans-6e" x="1096.306641"/>
     <use xlink:href="#DejaVuSans-20" x="1159.685547"/>
     <use xlink:href="#DejaVuSans-4c" x="1191.472656"/>
     <use xlink:href="#DejaVuSans-6f" x="1245.435547"/>
     <use xlink:href="#DejaVuSans-73" x="1306.617188"/>
     <use xlink:href="#DejaVuSans-73" x="1358.716797"/>
    </g>
   </g>
   <g id="legend_1">
    <g id="patch_7">
     <path d="M 301.22625 78.82825 
L 407.72 78.82825 
Q 409.72 78.82825 409.72 76.82825 
L 409.72 48.472 
Q 409.72 46.472 407.72 46.472 
L 301.22625 46.472 
Q 299.22625 46.472 299.22625 48.472 
L 299.22625 76.82825 
Q 299.22625 78.82825 301.22625 78.82825 
z
" style="fill: #ffffff; opacity: 0.8; stroke: #cccccc; stroke-linejoin: miter"/>
    </g>
    <g id="line2d_25">
     <path d="M 303.22625 54.570437 
L 313.22625 54.570437 
L 323.22625 54.570437 
" style="fill: none; stroke: #1f77b4; stroke-width: 1.5; stroke-linecap: square"/>
    </g>
    <g id="text_15">
     <!-- Train Loss -->
     <g transform="translate(331.22625 58.070437) scale(0.1 -0.1)">
      <use xlink:href="#DejaVuSans-54"/>
      <use xlink:href="#DejaVuSans-72" x="46.333984"/>
      <use xlink:href="#DejaVuSans-61" x="87.447266"/>
      <use xlink:href="#DejaVuSans-69" x="148.726562"/>
      <use xlink:href="#DejaVuSans-6e" x="176.509766"/>
      <use xlink:href="#DejaVuSans-20" x="239.888672"/>
      <use xlink:href="#DejaVuSans-4c" x="271.675781"/>
      <use xlink:href="#DejaVuSans-6f" x="325.638672"/>
      <use xlink:href="#DejaVuSans-73" x="386.820312"/>
      <use xlink:href="#DejaVuSans-73" x="438.919922"/>
     </g>
    </g>
    <g id="line2d_26">
     <path d="M 303.22625 69.248562 
L 313.22625 69.248562 
L 323.22625 69.248562 
" style="fill: none; stroke: #ff7f0e; stroke-width: 1.5; stroke-linecap: square"/>
    </g>
    <g id="text_16">
     <!-- Validation Loss -->
     <g transform="translate(331.22625 72.748562) scale(0.1 -0.1)">
      <use xlink:href="#DejaVuSans-56"/>
      <use xlink:href="#DejaVuSans-61" x="60.658203"/>
      <use xlink:href="#DejaVuSans-6c" x="121.9375"/>
      <use xlink:href="#DejaVuSans-69" x="149.720703"/>
      <use xlink:href="#DejaVuSans-64" x="177.503906"/>
      <use xlink:href="#DejaVuSans-61" x="240.980469"/>
      <use xlink:href="#DejaVuSans-74" x="302.259766"/>
      <use xlink:href="#DejaVuSans-69" x="341.46875"/>
      <use xlink:href="#DejaVuSans-6f" x="369.251953"/>
      <use xlink:href="#DejaVuSans-6e" x="430.433594"/>
      <use xlink:href="#DejaVuSans-20" x="493.8125"/>
      <use xlink:href="#DejaVuSans-4c" x="525.599609"/>
      <use xlink:href="#DejaVuSans-6f" x="579.5625"/>
      <use xlink:href="#DejaVuSans-73" x="640.744141"/>
      <use xlink:href="#DejaVuSans-73" x="692.84375"/>
     </g>
    </g>
   </g>
  </g>
 </g>
 <defs>
  <clipPath id="p8d6202042d">
   <rect x="57.6" y="41.472" width="357.12" height="266.112"/>
  </clipPath>
 </defs>
</svg>
