<?xml version="1.0" encoding="utf-8" standalone="no"?>
<!DOCTYPE svg PUBLIC "-//W3C//DTD SVG 1.1//EN"
  "http://www.w3.org/Graphics/SVG/1.1/DTD/svg11.dtd">
<svg xmlns:xlink="http://www.w3.org/1999/xlink" width="460.8pt" height="345.6pt" viewBox="0 0 460.8 345.6" xmlns="http://www.w3.org/2000/svg" version="1.1">
 <metadata>
  <rdf:RDF xmlns:dc="http://purl.org/dc/elements/1.1/" xmlns:cc="http://creativecommons.org/ns#" xmlns:rdf="http://www.w3.org/1999/02/22-rdf-syntax-ns#">
   <cc:Work>
    <dc:type rdf:resource="http://purl.org/dc/dcmitype/StillImage"/>
    <dc:date>2023-11-15T08:34:51.460476</dc:date>
    <dc:format>image/svg+xml</dc:format>
    <dc:creator>
     <cc:Agent>
      <dc:title>Matplotlib v3.8.0, https://matplotlib.org/</dc:title>
     </cc:Agent>
    </dc:creator>
   </cc:Work>
  </rdf:RDF>
 </metadata>
 <defs>
  <style type="text/css">*{stroke-linejoin: round; stroke-linecap: butt}</style>
 </defs>
 <g id="figure_1">
  <g id="patch_1">
   <path d="M 0 345.6 
L 460.8 345.6 
L 460.8 0 
L 0 0 
z
" style="fill: #ffffff"/>
  </g>
  <g id="axes_1">
   <g id="patch_2">
    <path d="M 57.6 307.584 
L 414.72 307.584 
L 414.72 41.472 
L 57.6 41.472 
z
" style="fill: #ffffff"/>
   </g>
   <g id="matplotlib.axis_1">
    <g id="xtick_1">
     <g id="line2d_1">
      <path d="M 73.832727 307.584 
L 73.832727 41.472 
" clip-path="url(#p6c7c2d63d4)" style="fill: none; stroke: #b0b0b0; stroke-width: 0.8; stroke-linecap: square"/>
     </g>
     <g id="line2d_2">
      <defs>
       <path id="m237b232427" d="M 0 0 
L 0 3.5 
" style="stroke: #000000; stroke-width: 0.8"/>
      </defs>
      <g>
       <use xlink:href="#m237b232427" x="73.832727" y="307.584" style="stroke: #000000; stroke-width: 0.8"/>
      </g>
     </g>
     <g id="text_1">
      <!-- 0 -->
      <g transform="translate(70.651477 322.182437) scale(0.1 -0.1)">
       <defs>
        <path id="DejaVuSans-30" d="M 2034 4250 
Q 1547 4250 1301 3770 
Q 1056 3291 1056 2328 
Q 1056 1369 1301 889 
Q 1547 409 2034 409 
Q 2525 409 2770 889 
Q 3016 1369 3016 2328 
Q 3016 3291 2770 3770 
Q 2525 4250 2034 4250 
z
M 2034 4750 
Q 2819 4750 3233 4129 
Q 3647 3509 3647 2328 
Q 3647 1150 3233 529 
Q 2819 -91 2034 -91 
Q 1250 -91 836 529 
Q 422 1150 422 2328 
Q 422 3509 836 4129 
Q 1250 4750 2034 4750 
z
" transform="scale(0.015625)"/>
       </defs>
       <use xlink:href="#DejaVuSans-30"/>
      </g>
     </g>
    </g>
    <g id="xtick_2">
     <g id="line2d_3">
      <path d="M 138.828632 307.584 
L 138.828632 41.472 
" clip-path="url(#p6c7c2d63d4)" style="fill: none; stroke: #b0b0b0; stroke-width: 0.8; stroke-linecap: square"/>
     </g>
     <g id="line2d_4">
      <g>
       <use xlink:href="#m237b232427" x="138.828632" y="307.584" style="stroke: #000000; stroke-width: 0.8"/>
      </g>
     </g>
     <g id="text_2">
      <!-- 200 -->
      <g transform="translate(129.284882 322.182437) scale(0.1 -0.1)">
       <defs>
        <path id="DejaVuSans-32" d="M 1228 531 
L 3431 531 
L 3431 0 
L 469 0 
L 469 531 
Q 828 903 1448 1529 
Q 2069 2156 2228 2338 
Q 2531 2678 2651 2914 
Q 2772 3150 2772 3378 
Q 2772 3750 2511 3984 
Q 2250 4219 1831 4219 
Q 1534 4219 1204 4116 
Q 875 4013 500 3803 
L 500 4441 
Q 881 4594 1212 4672 
Q 1544 4750 1819 4750 
Q 2544 4750 2975 4387 
Q 3406 4025 3406 3419 
Q 3406 3131 3298 2873 
Q 3191 2616 2906 2266 
Q 2828 2175 2409 1742 
Q 1991 1309 1228 531 
z
" transform="scale(0.015625)"/>
       </defs>
       <use xlink:href="#DejaVuSans-32"/>
       <use xlink:href="#DejaVuSans-30" x="63.623047"/>
       <use xlink:href="#DejaVuSans-30" x="127.246094"/>
      </g>
     </g>
    </g>
    <g id="xtick_3">
     <g id="line2d_5">
      <path d="M 203.824537 307.584 
L 203.824537 41.472 
" clip-path="url(#p6c7c2d63d4)" style="fill: none; stroke: #b0b0b0; stroke-width: 0.8; stroke-linecap: square"/>
     </g>
     <g id="line2d_6">
      <g>
       <use xlink:href="#m237b232427" x="203.824537" y="307.584" style="stroke: #000000; stroke-width: 0.8"/>
      </g>
     </g>
     <g id="text_3">
      <!-- 400 -->
      <g transform="translate(194.280787 322.182437) scale(0.1 -0.1)">
       <defs>
        <path id="DejaVuSans-34" d="M 2419 4116 
L 825 1625 
L 2419 1625 
L 2419 4116 
z
M 2253 4666 
L 3047 4666 
L 3047 1625 
L 3713 1625 
L 3713 1100 
L 3047 1100 
L 3047 0 
L 2419 0 
L 2419 1100 
L 313 1100 
L 313 1709 
L 2253 4666 
z
" transform="scale(0.015625)"/>
       </defs>
       <use xlink:href="#DejaVuSans-34"/>
       <use xlink:href="#DejaVuSans-30" x="63.623047"/>
       <use xlink:href="#DejaVuSans-30" x="127.246094"/>
      </g>
     </g>
    </g>
    <g id="xtick_4">
     <g id="line2d_7">
      <path d="M 268.820442 307.584 
L 268.820442 41.472 
" clip-path="url(#p6c7c2d63d4)" style="fill: none; stroke: #b0b0b0; stroke-width: 0.8; stroke-linecap: square"/>
     </g>
     <g id="line2d_8">
      <g>
       <use xlink:href="#m237b232427" x="268.820442" y="307.584" style="stroke: #000000; stroke-width: 0.8"/>
      </g>
     </g>
     <g id="text_4">
      <!-- 600 -->
      <g transform="translate(259.276692 322.182437) scale(0.1 -0.1)">
       <defs>
        <path id="DejaVuSans-36" d="M 2113 2584 
Q 1688 2584 1439 2293 
Q 1191 2003 1191 1497 
Q 1191 994 1439 701 
Q 1688 409 2113 409 
Q 2538 409 2786 701 
Q 3034 994 3034 1497 
Q 3034 2003 2786 2293 
Q 2538 2584 2113 2584 
z
M 3366 4563 
L 3366 3988 
Q 3128 4100 2886 4159 
Q 2644 4219 2406 4219 
Q 1781 4219 1451 3797 
Q 1122 3375 1075 2522 
Q 1259 2794 1537 2939 
Q 1816 3084 2150 3084 
Q 2853 3084 3261 2657 
Q 3669 2231 3669 1497 
Q 3669 778 3244 343 
Q 2819 -91 2113 -91 
Q 1303 -91 875 529 
Q 447 1150 447 2328 
Q 447 3434 972 4092 
Q 1497 4750 2381 4750 
Q 2619 4750 2861 4703 
Q 3103 4656 3366 4563 
z
" transform="scale(0.015625)"/>
       </defs>
       <use xlink:href="#DejaVuSans-36"/>
       <use xlink:href="#DejaVuSans-30" x="63.623047"/>
       <use xlink:href="#DejaVuSans-30" x="127.246094"/>
      </g>
     </g>
    </g>
    <g id="xtick_5">
     <g id="line2d_9">
      <path d="M 333.816347 307.584 
L 333.816347 41.472 
" clip-path="url(#p6c7c2d63d4)" style="fill: none; stroke: #b0b0b0; stroke-width: 0.8; stroke-linecap: square"/>
     </g>
     <g id="line2d_10">
      <g>
       <use xlink:href="#m237b232427" x="333.816347" y="307.584" style="stroke: #000000; stroke-width: 0.8"/>
      </g>
     </g>
     <g id="text_5">
      <!-- 800 -->
      <g transform="translate(324.272597 322.182437) scale(0.1 -0.1)">
       <defs>
        <path id="DejaVuSans-38" d="M 2034 2216 
Q 1584 2216 1326 1975 
Q 1069 1734 1069 1313 
Q 1069 891 1326 650 
Q 1584 409 2034 409 
Q 2484 409 2743 651 
Q 3003 894 3003 1313 
Q 3003 1734 2745 1975 
Q 2488 2216 2034 2216 
z
M 1403 2484 
Q 997 2584 770 2862 
Q 544 3141 544 3541 
Q 544 4100 942 4425 
Q 1341 4750 2034 4750 
Q 2731 4750 3128 4425 
Q 3525 4100 3525 3541 
Q 3525 3141 3298 2862 
Q 3072 2584 2669 2484 
Q 3125 2378 3379 2068 
Q 3634 1759 3634 1313 
Q 3634 634 3220 271 
Q 2806 -91 2034 -91 
Q 1263 -91 848 271 
Q 434 634 434 1313 
Q 434 1759 690 2068 
Q 947 2378 1403 2484 
z
M 1172 3481 
Q 1172 3119 1398 2916 
Q 1625 2713 2034 2713 
Q 2441 2713 2670 2916 
Q 2900 3119 2900 3481 
Q 2900 3844 2670 4047 
Q 2441 4250 2034 4250 
Q 1625 4250 1398 4047 
Q 1172 3844 1172 3481 
z
" transform="scale(0.015625)"/>
       </defs>
       <use xlink:href="#DejaVuSans-38"/>
       <use xlink:href="#DejaVuSans-30" x="63.623047"/>
       <use xlink:href="#DejaVuSans-30" x="127.246094"/>
      </g>
     </g>
    </g>
    <g id="xtick_6">
     <g id="line2d_11">
      <path d="M 398.812252 307.584 
L 398.812252 41.472 
" clip-path="url(#p6c7c2d63d4)" style="fill: none; stroke: #b0b0b0; stroke-width: 0.8; stroke-linecap: square"/>
     </g>
     <g id="line2d_12">
      <g>
       <use xlink:href="#m237b232427" x="398.812252" y="307.584" style="stroke: #000000; stroke-width: 0.8"/>
      </g>
     </g>
     <g id="text_6">
      <!-- 1000 -->
      <g transform="translate(386.087252 322.182437) scale(0.1 -0.1)">
       <defs>
        <path id="DejaVuSans-31" d="M 794 531 
L 1825 531 
L 1825 4091 
L 703 3866 
L 703 4441 
L 1819 4666 
L 2450 4666 
L 2450 531 
L 3481 531 
L 3481 0 
L 794 0 
L 794 531 
z
" transform="scale(0.015625)"/>
       </defs>
       <use xlink:href="#DejaVuSans-31"/>
       <use xlink:href="#DejaVuSans-30" x="63.623047"/>
       <use xlink:href="#DejaVuSans-30" x="127.246094"/>
       <use xlink:href="#DejaVuSans-30" x="190.869141"/>
      </g>
     </g>
    </g>
    <g id="text_7">
     <!-- Train Step -->
     <g transform="translate(211.192031 335.860562) scale(0.1 -0.1)">
      <defs>
       <path id="DejaVuSans-54" d="M -19 4666 
L 3928 4666 
L 3928 4134 
L 2272 4134 
L 2272 0 
L 1638 0 
L 1638 4134 
L -19 4134 
L -19 4666 
z
" transform="scale(0.015625)"/>
       <path id="DejaVuSans-72" d="M 2631 2963 
Q 2534 3019 2420 3045 
Q 2306 3072 2169 3072 
Q 1681 3072 1420 2755 
Q 1159 2438 1159 1844 
L 1159 0 
L 581 0 
L 581 3500 
L 1159 3500 
L 1159 2956 
Q 1341 3275 1631 3429 
Q 1922 3584 2338 3584 
Q 2397 3584 2469 3576 
Q 2541 3569 2628 3553 
L 2631 2963 
z
" transform="scale(0.015625)"/>
       <path id="DejaVuSans-61" d="M 2194 1759 
Q 1497 1759 1228 1600 
Q 959 1441 959 1056 
Q 959 750 1161 570 
Q 1363 391 1709 391 
Q 2188 391 2477 730 
Q 2766 1069 2766 1631 
L 2766 1759 
L 2194 1759 
z
M 3341 1997 
L 3341 0 
L 2766 0 
L 2766 531 
Q 2569 213 2275 61 
Q 1981 -91 1556 -91 
Q 1019 -91 701 211 
Q 384 513 384 1019 
Q 384 1609 779 1909 
Q 1175 2209 1959 2209 
L 2766 2209 
L 2766 2266 
Q 2766 2663 2505 2880 
Q 2244 3097 1772 3097 
Q 1472 3097 1187 3025 
Q 903 2953 641 2809 
L 641 3341 
Q 956 3463 1253 3523 
Q 1550 3584 1831 3584 
Q 2591 3584 2966 3190 
Q 3341 2797 3341 1997 
z
" transform="scale(0.015625)"/>
       <path id="DejaVuSans-69" d="M 603 3500 
L 1178 3500 
L 1178 0 
L 603 0 
L 603 3500 
z
M 603 4863 
L 1178 4863 
L 1178 4134 
L 603 4134 
L 603 4863 
z
" transform="scale(0.015625)"/>
       <path id="DejaVuSans-6e" d="M 3513 2113 
L 3513 0 
L 2938 0 
L 2938 2094 
Q 2938 2591 2744 2837 
Q 2550 3084 2163 3084 
Q 1697 3084 1428 2787 
Q 1159 2491 1159 1978 
L 1159 0 
L 581 0 
L 581 3500 
L 1159 3500 
L 1159 2956 
Q 1366 3272 1645 3428 
Q 1925 3584 2291 3584 
Q 2894 3584 3203 3211 
Q 3513 2838 3513 2113 
z
" transform="scale(0.015625)"/>
       <path id="DejaVuSans-20" transform="scale(0.015625)"/>
       <path id="DejaVuSans-53" d="M 3425 4513 
L 3425 3897 
Q 3066 4069 2747 4153 
Q 2428 4238 2131 4238 
Q 1616 4238 1336 4038 
Q 1056 3838 1056 3469 
Q 1056 3159 1242 3001 
Q 1428 2844 1947 2747 
L 2328 2669 
Q 3034 2534 3370 2195 
Q 3706 1856 3706 1288 
Q 3706 609 3251 259 
Q 2797 -91 1919 -91 
Q 1588 -91 1214 -16 
Q 841 59 441 206 
L 441 856 
Q 825 641 1194 531 
Q 1563 422 1919 422 
Q 2459 422 2753 634 
Q 3047 847 3047 1241 
Q 3047 1584 2836 1778 
Q 2625 1972 2144 2069 
L 1759 2144 
Q 1053 2284 737 2584 
Q 422 2884 422 3419 
Q 422 4038 858 4394 
Q 1294 4750 2059 4750 
Q 2388 4750 2728 4690 
Q 3069 4631 3425 4513 
z
" transform="scale(0.015625)"/>
       <path id="DejaVuSans-74" d="M 1172 4494 
L 1172 3500 
L 2356 3500 
L 2356 3053 
L 1172 3053 
L 1172 1153 
Q 1172 725 1289 603 
Q 1406 481 1766 481 
L 2356 481 
L 2356 0 
L 1766 0 
Q 1100 0 847 248 
Q 594 497 594 1153 
L 594 3053 
L 172 3053 
L 172 3500 
L 594 3500 
L 594 4494 
L 1172 4494 
z
" transform="scale(0.015625)"/>
       <path id="DejaVuSans-65" d="M 3597 1894 
L 3597 1613 
L 953 1613 
Q 991 1019 1311 708 
Q 1631 397 2203 397 
Q 2534 397 2845 478 
Q 3156 559 3463 722 
L 3463 178 
Q 3153 47 2828 -22 
Q 2503 -91 2169 -91 
Q 1331 -91 842 396 
Q 353 884 353 1716 
Q 353 2575 817 3079 
Q 1281 3584 2069 3584 
Q 2775 3584 3186 3129 
Q 3597 2675 3597 1894 
z
M 3022 2063 
Q 3016 2534 2758 2815 
Q 2500 3097 2075 3097 
Q 1594 3097 1305 2825 
Q 1016 2553 972 2059 
L 3022 2063 
z
" transform="scale(0.015625)"/>
       <path id="DejaVuSans-70" d="M 1159 525 
L 1159 -1331 
L 581 -1331 
L 581 3500 
L 1159 3500 
L 1159 2969 
Q 1341 3281 1617 3432 
Q 1894 3584 2278 3584 
Q 2916 3584 3314 3078 
Q 3713 2572 3713 1747 
Q 3713 922 3314 415 
Q 2916 -91 2278 -91 
Q 1894 -91 1617 61 
Q 1341 213 1159 525 
z
M 3116 1747 
Q 3116 2381 2855 2742 
Q 2594 3103 2138 3103 
Q 1681 3103 1420 2742 
Q 1159 2381 1159 1747 
Q 1159 1113 1420 752 
Q 1681 391 2138 391 
Q 2594 391 2855 752 
Q 3116 1113 3116 1747 
z
" transform="scale(0.015625)"/>
      </defs>
      <use xlink:href="#DejaVuSans-54"/>
      <use xlink:href="#DejaVuSans-72" x="46.333984"/>
      <use xlink:href="#DejaVuSans-61" x="87.447266"/>
      <use xlink:href="#DejaVuSans-69" x="148.726562"/>
      <use xlink:href="#DejaVuSans-6e" x="176.509766"/>
      <use xlink:href="#DejaVuSans-20" x="239.888672"/>
      <use xlink:href="#DejaVuSans-53" x="271.675781"/>
      <use xlink:href="#DejaVuSans-74" x="335.152344"/>
      <use xlink:href="#DejaVuSans-65" x="374.361328"/>
      <use xlink:href="#DejaVuSans-70" x="435.884766"/>
     </g>
    </g>
   </g>
   <g id="matplotlib.axis_2">
    <g id="ytick_1">
     <g id="line2d_13">
      <path d="M 57.6 301.494153 
L 414.72 301.494153 
" clip-path="url(#p6c7c2d63d4)" style="fill: none; stroke: #b0b0b0; stroke-width: 0.8; stroke-linecap: square"/>
     </g>
     <g id="line2d_14">
      <defs>
       <path id="m6d2436e6cf" d="M 0 0 
L -3.5 0 
" style="stroke: #000000; stroke-width: 0.8"/>
      </defs>
      <g>
       <use xlink:href="#m6d2436e6cf" x="57.6" y="301.494153" style="stroke: #000000; stroke-width: 0.8"/>
      </g>
     </g>
     <g id="text_8">
      <!-- 0.00 -->
      <g transform="translate(28.334375 305.293371) scale(0.1 -0.1)">
       <defs>
        <path id="DejaVuSans-2e" d="M 684 794 
L 1344 794 
L 1344 0 
L 684 0 
L 684 794 
z
" transform="scale(0.015625)"/>
       </defs>
       <use xlink:href="#DejaVuSans-30"/>
       <use xlink:href="#DejaVuSans-2e" x="63.623047"/>
       <use xlink:href="#DejaVuSans-30" x="95.410156"/>
       <use xlink:href="#DejaVuSans-30" x="159.033203"/>
      </g>
     </g>
    </g>
    <g id="ytick_2">
     <g id="line2d_15">
      <path d="M 57.6 243.483885 
L 414.72 243.483885 
" clip-path="url(#p6c7c2d63d4)" style="fill: none; stroke: #b0b0b0; stroke-width: 0.8; stroke-linecap: square"/>
     </g>
     <g id="line2d_16">
      <g>
       <use xlink:href="#m6d2436e6cf" x="57.6" y="243.483885" style="stroke: #000000; stroke-width: 0.8"/>
      </g>
     </g>
     <g id="text_9">
      <!-- 0.02 -->
      <g transform="translate(28.334375 247.283103) scale(0.1 -0.1)">
       <use xlink:href="#DejaVuSans-30"/>
       <use xlink:href="#DejaVuSans-2e" x="63.623047"/>
       <use xlink:href="#DejaVuSans-30" x="95.410156"/>
       <use xlink:href="#DejaVuSans-32" x="159.033203"/>
      </g>
     </g>
    </g>
    <g id="ytick_3">
     <g id="line2d_17">
      <path d="M 57.6 185.473616 
L 414.72 185.473616 
" clip-path="url(#p6c7c2d63d4)" style="fill: none; stroke: #b0b0b0; stroke-width: 0.8; stroke-linecap: square"/>
     </g>
     <g id="line2d_18">
      <g>
       <use xlink:href="#m6d2436e6cf" x="57.6" y="185.473616" style="stroke: #000000; stroke-width: 0.8"/>
      </g>
     </g>
     <g id="text_10">
      <!-- 0.04 -->
      <g transform="translate(28.334375 189.272835) scale(0.1 -0.1)">
       <use xlink:href="#DejaVuSans-30"/>
       <use xlink:href="#DejaVuSans-2e" x="63.623047"/>
       <use xlink:href="#DejaVuSans-30" x="95.410156"/>
       <use xlink:href="#DejaVuSans-34" x="159.033203"/>
      </g>
     </g>
    </g>
    <g id="ytick_4">
     <g id="line2d_19">
      <path d="M 57.6 127.463348 
L 414.72 127.463348 
" clip-path="url(#p6c7c2d63d4)" style="fill: none; stroke: #b0b0b0; stroke-width: 0.8; stroke-linecap: square"/>
     </g>
     <g id="line2d_20">
      <g>
       <use xlink:href="#m6d2436e6cf" x="57.6" y="127.463348" style="stroke: #000000; stroke-width: 0.8"/>
      </g>
     </g>
     <g id="text_11">
      <!-- 0.06 -->
      <g transform="translate(28.334375 131.262567) scale(0.1 -0.1)">
       <use xlink:href="#DejaVuSans-30"/>
       <use xlink:href="#DejaVuSans-2e" x="63.623047"/>
       <use xlink:href="#DejaVuSans-30" x="95.410156"/>
       <use xlink:href="#DejaVuSans-36" x="159.033203"/>
      </g>
     </g>
    </g>
    <g id="ytick_5">
     <g id="line2d_21">
      <path d="M 57.6 69.45308 
L 414.72 69.45308 
" clip-path="url(#p6c7c2d63d4)" style="fill: none; stroke: #b0b0b0; stroke-width: 0.8; stroke-linecap: square"/>
     </g>
     <g id="line2d_22">
      <g>
       <use xlink:href="#m6d2436e6cf" x="57.6" y="69.45308" style="stroke: #000000; stroke-width: 0.8"/>
      </g>
     </g>
     <g id="text_12">
      <!-- 0.08 -->
      <g transform="translate(28.334375 73.252299) scale(0.1 -0.1)">
       <use xlink:href="#DejaVuSans-30"/>
       <use xlink:href="#DejaVuSans-2e" x="63.623047"/>
       <use xlink:href="#DejaVuSans-30" x="95.410156"/>
       <use xlink:href="#DejaVuSans-38" x="159.033203"/>
      </g>
     </g>
    </g>
    <g id="text_13">
     <!-- Loss -->
     <g transform="translate(22.254688 185.495187) rotate(-90) scale(0.1 -0.1)">
      <defs>
       <path id="DejaVuSans-4c" d="M 628 4666 
L 1259 4666 
L 1259 531 
L 3531 531 
L 3531 0 
L 628 0 
L 628 4666 
z
" transform="scale(0.015625)"/>
       <path id="DejaVuSans-6f" d="M 1959 3097 
Q 1497 3097 1228 2736 
Q 959 2375 959 1747 
Q 959 1119 1226 758 
Q 1494 397 1959 397 
Q 2419 397 2687 759 
Q 2956 1122 2956 1747 
Q 2956 2369 2687 2733 
Q 2419 3097 1959 3097 
z
M 1959 3584 
Q 2709 3584 3137 3096 
Q 3566 2609 3566 1747 
Q 3566 888 3137 398 
Q 2709 -91 1959 -91 
Q 1206 -91 779 398 
Q 353 888 353 1747 
Q 353 2609 779 3096 
Q 1206 3584 1959 3584 
z
" transform="scale(0.015625)"/>
       <path id="DejaVuSans-73" d="M 2834 3397 
L 2834 2853 
Q 2591 2978 2328 3040 
Q 2066 3103 1784 3103 
Q 1356 3103 1142 2972 
Q 928 2841 928 2578 
Q 928 2378 1081 2264 
Q 1234 2150 1697 2047 
L 1894 2003 
Q 2506 1872 2764 1633 
Q 3022 1394 3022 966 
Q 3022 478 2636 193 
Q 2250 -91 1575 -91 
Q 1294 -91 989 -36 
Q 684 19 347 128 
L 347 722 
Q 666 556 975 473 
Q 1284 391 1588 391 
Q 1994 391 2212 530 
Q 2431 669 2431 922 
Q 2431 1156 2273 1281 
Q 2116 1406 1581 1522 
L 1381 1569 
Q 847 1681 609 1914 
Q 372 2147 372 2553 
Q 372 3047 722 3315 
Q 1072 3584 1716 3584 
Q 2034 3584 2315 3537 
Q 2597 3491 2834 3397 
z
" transform="scale(0.015625)"/>
      </defs>
      <use xlink:href="#DejaVuSans-4c"/>
      <use xlink:href="#DejaVuSans-6f" x="53.962891"/>
      <use xlink:href="#DejaVuSans-73" x="115.144531"/>
      <use xlink:href="#DejaVuSans-73" x="167.244141"/>
     </g>
    </g>
   </g>
   <g id="line2d_23">
    <path d="M 73.832727 65.214508 
L 74.157707 74.186262 
L 74.482686 136.213361 
L 74.807666 96.53168 
L 75.132645 104.60046 
L 75.457625 131.94817 
L 75.782604 103.969995 
L 76.432563 136.325509 
L 76.757543 110.111227 
L 77.082523 94.09047 
L 77.407502 89.217106 
L 77.732482 65.334684 
L 78.057461 122.650238 
L 78.382441 95.368062 
L 78.70742 87.545555 
L 79.0324 53.568 
L 79.357379 88.831964 
L 79.682359 59.06433 
L 80.332318 87.19447 
L 80.657297 159.292153 
L 81.307256 54.57881 
L 81.632236 129.189891 
L 81.957215 102.942243 
L 82.282195 93.147172 
L 82.607174 67.107178 
L 82.932154 147.748165 
L 83.257133 98.743948 
L 83.582113 129.790026 
L 83.907093 64.504668 
L 84.232072 70.120915 
L 84.557052 114.154099 
L 84.882031 63.193839 
L 85.207011 119.641504 
L 85.53199 85.479136 
L 85.85697 91.916691 
L 86.181949 129.821577 
L 86.506929 122.247483 
L 86.831908 147.067563 
L 87.156888 109.371175 
L 87.481867 134.249484 
L 87.806847 124.177896 
L 88.131826 92.321002 
L 88.456806 131.973401 
L 89.106765 160.120916 
L 90.081704 113.791648 
L 90.406683 139.734469 
L 90.731663 126.602541 
L 91.056642 141.631159 
L 91.381622 125.643639 
L 91.706601 148.27599 
L 92.031581 119.437415 
L 92.35656 153.218281 
L 92.68154 155.117046 
L 93.006519 190.837466 
L 93.331499 166.991253 
L 93.656478 231.477617 
L 93.981458 164.884844 
L 94.306437 179.961653 
L 94.631417 171.920253 
L 94.956396 195.515039 
L 95.931335 165.131453 
L 96.256314 200.276234 
L 96.581294 166.786774 
L 96.906274 162.654467 
L 97.231253 209.056887 
L 97.556233 180.070851 
L 97.881212 232.51725 
L 98.206192 217.472294 
L 98.531171 176.973374 
L 98.856151 184.938154 
L 99.18113 211.231638 
L 99.50611 219.589027 
L 99.831089 207.207265 
L 100.156069 201.827145 
L 100.481048 229.796389 
L 100.806028 239.2246 
L 101.131007 172.08874 
L 101.455987 168.503859 
L 101.780966 232.348693 
L 102.105946 182.455614 
L 102.430925 229.718889 
L 102.755905 176.443376 
L 103.080885 188.345494 
L 103.405864 232.542923 
L 103.730844 218.333781 
L 104.055823 236.655446 
L 104.380803 222.387804 
L 104.705782 228.860622 
L 105.030762 201.878362 
L 105.355741 224.882062 
L 105.680721 215.699228 
L 106.0057 219.987422 
L 106.33068 209.463899 
L 106.980639 222.927629 
L 107.305618 247.914327 
L 107.630598 212.977751 
L 107.955577 206.126167 
L 108.280557 233.066373 
L 108.605536 240.051694 
L 108.930516 232.232164 
L 109.255495 214.228773 
L 109.580475 254.513095 
L 110.230434 234.809595 
L 110.880393 226.318713 
L 111.205373 253.527602 
L 111.530352 241.319529 
L 111.855332 248.885892 
L 112.180311 265.058135 
L 112.83027 222.818545 
L 113.15525 267.478766 
L 113.480229 245.54957 
L 113.805209 262.561235 
L 114.130188 233.194912 
L 114.455168 246.392979 
L 114.780147 254.496882 
L 115.105127 246.704549 
L 115.430106 246.625789 
L 115.755086 255.026874 
L 116.080066 252.546318 
L 116.405045 241.409153 
L 116.730025 248.663206 
L 117.055004 224.691657 
L 117.379984 270.151754 
L 117.704963 251.209324 
L 118.029943 249.575775 
L 118.354922 256.658938 
L 118.679902 245.291113 
L 119.004881 270.000539 
L 119.329861 241.103094 
L 119.65484 257.667563 
L 119.97982 243.675215 
L 120.304799 267.999568 
L 120.629779 251.427072 
L 120.954758 245.249335 
L 121.279738 269.620367 
L 121.604717 257.790148 
L 121.929697 250.40517 
L 122.254676 247.523317 
L 122.579656 255.188013 
L 122.904636 257.741808 
L 123.554595 268.722878 
L 123.879574 242.521419 
L 124.204554 254.718914 
L 124.529533 246.872381 
L 124.854513 247.028425 
L 125.179492 262.128955 
L 125.504472 255.711355 
L 125.829451 257.143805 
L 126.154431 245.681107 
L 126.47941 239.465882 
L 126.80439 256.995378 
L 127.129369 251.939478 
L 127.454349 261.158624 
L 127.779328 240.125796 
L 128.104308 242.861627 
L 128.429287 243.357005 
L 128.754267 248.637511 
L 129.079247 268.365143 
L 129.404226 245.345939 
L 129.729206 257.651582 
L 130.054185 245.409674 
L 130.379165 262.878161 
L 130.704144 273.977019 
L 131.029124 221.218411 
L 131.354103 239.624503 
L 131.679083 248.209834 
L 132.004062 244.448136 
L 132.329042 231.836799 
L 132.654021 236.247548 
L 132.979001 236.366692 
L 133.30398 232.814119 
L 133.62896 242.905405 
L 133.953939 257.607661 
L 134.278919 222.143427 
L 134.603898 252.716992 
L 134.928878 259.444389 
L 135.253857 247.53342 
L 135.578837 245.415568 
L 135.903817 259.721117 
L 136.228796 264.668692 
L 136.553776 242.442465 
L 136.878755 240.343198 
L 137.203735 257.205173 
L 137.528714 257.525346 
L 137.853694 242.950371 
L 138.178673 253.736549 
L 138.503653 274.684671 
L 138.828632 249.444669 
L 139.478591 268.398471 
L 139.803571 261.861419 
L 140.45353 237.025072 
L 140.778509 260.867509 
L 141.428468 230.241193 
L 141.753448 265.62466 
L 142.078428 260.330426 
L 142.403407 263.039073 
L 142.728387 246.47706 
L 143.378346 268.71157 
L 143.703325 270.069115 
L 144.028305 244.140872 
L 144.353284 269.122461 
L 144.678264 259.999879 
L 145.003243 239.999413 
L 145.328223 268.250642 
L 145.978182 256.516287 
L 146.303161 254.368932 
L 146.628141 247.780158 
L 146.95312 267.147199 
L 147.2781 276.098922 
L 147.603079 252.577183 
L 147.928059 251.985579 
L 148.578018 241.282234 
L 148.902998 274.330937 
L 149.227977 237.775697 
L 149.552957 243.135924 
L 149.877936 243.987373 
L 150.202916 274.820596 
L 150.527895 245.133043 
L 150.852875 266.120645 
L 151.177854 272.859783 
L 151.502834 251.048536 
L 152.477772 273.731 
L 152.802752 271.558727 
L 153.127731 279.242033 
L 153.452711 246.663683 
L 153.77769 271.862215 
L 154.10267 275.835109 
L 154.427649 266.699775 
L 154.752629 254.436908 
L 155.077609 269.454145 
L 155.727568 262.75768 
L 156.377527 272.253068 
L 156.702506 268.912723 
L 157.027486 267.870829 
L 157.352465 269.457057 
L 157.677445 268.817029 
L 158.002424 274.931636 
L 158.327404 267.329418 
L 158.977363 263.415742 
L 159.302342 278.000882 
L 159.627322 259.034905 
L 159.952301 283.074964 
L 160.277281 256.520574 
L 160.60226 278.061954 
L 160.92724 267.52924 
L 161.252219 269.179375 
L 161.577199 269.54727 
L 161.902179 276.604824 
L 162.227158 267.349946 
L 162.552138 275.637784 
L 162.877117 276.533518 
L 163.202097 274.833419 
L 163.527076 245.362071 
L 163.852056 272.064875 
L 164.177035 282.383006 
L 164.502015 274.886959 
L 164.826994 275.863168 
L 165.151974 270.125189 
L 165.476953 275.934245 
L 165.801933 278.066208 
L 166.126912 269.133766 
L 166.451892 269.411891 
L 166.776871 267.405236 
L 167.101851 268.790483 
L 167.42683 282.630192 
L 167.75181 274.523562 
L 168.07679 276.524947 
L 168.401769 268.219255 
L 168.726749 265.553113 
L 169.051728 272.013829 
L 169.376708 266.397476 
L 169.701687 271.560154 
L 170.026667 273.855822 
L 170.351646 265.261252 
L 170.676626 275.393739 
L 171.001605 270.096406 
L 171.326585 273.23201 
L 171.651564 282.609329 
L 171.976544 274.881373 
L 172.301523 284.009463 
L 172.626503 277.011172 
L 172.951482 277.607347 
L 173.276462 273.576368 
L 173.601441 272.94818 
L 173.926421 269.566238 
L 174.2514 274.145 
L 174.57638 264.361898 
L 174.90136 279.200044 
L 175.226339 275.807002 
L 175.551319 266.639257 
L 175.876298 283.293578 
L 176.201278 269.83211 
L 176.526257 274.316015 
L 176.851237 264.813401 
L 177.176216 283.156335 
L 177.501196 260.541025 
L 177.826175 276.678397 
L 178.151155 273.686147 
L 178.476134 269.403911 
L 178.801114 275.918259 
L 179.126093 266.017347 
L 179.451073 281.630342 
L 180.101032 274.42695 
L 180.426011 270.761154 
L 180.750991 284.695198 
L 181.075971 281.202824 
L 181.40095 274.360859 
L 181.72593 283.515603 
L 182.050909 269.320532 
L 182.375889 272.139107 
L 182.700868 281.949375 
L 183.025848 272.561047 
L 183.350827 276.892531 
L 183.675807 271.292197 
L 184.000786 281.878396 
L 184.325766 284.176303 
L 184.650745 282.854739 
L 184.975725 277.577049 
L 185.300704 286.383415 
L 185.625684 279.905341 
L 185.950663 277.438739 
L 186.275643 286.849663 
L 186.600622 282.591338 
L 186.925602 287.052995 
L 187.250581 278.544557 
L 187.575561 283.880698 
L 187.900541 284.750721 
L 188.22552 280.112708 
L 188.5505 255.686362 
L 188.875479 276.770831 
L 189.200459 280.623706 
L 189.525438 271.426525 
L 189.850418 281.965714 
L 190.175397 278.93898 
L 190.500377 273.328704 
L 190.825356 273.452259 
L 191.150336 271.285349 
L 191.475315 276.189724 
L 191.800295 269.36887 
L 192.125274 278.339035 
L 192.450254 279.030455 
L 193.100213 272.916697 
L 193.425192 278.773223 
L 193.750172 281.889311 
L 194.075152 276.975696 
L 194.400131 277.230351 
L 194.725111 276.273835 
L 195.05009 274.934743 
L 195.37507 277.544179 
L 195.700049 290.427279 
L 196.025029 282.642243 
L 196.350008 281.972855 
L 196.674988 280.070427 
L 196.999967 287.833785 
L 197.324947 274.697367 
L 197.649926 277.948625 
L 197.974906 256.641209 
L 198.299885 284.022341 
L 198.624865 266.22977 
L 198.949844 266.432385 
L 199.274824 270.137196 
L 199.599803 257.733907 
L 199.924783 279.723197 
L 200.249762 279.623098 
L 200.574742 279.118951 
L 200.899722 274.360335 
L 201.549681 267.728735 
L 201.87466 283.988002 
L 202.524619 273.110913 
L 202.849599 286.11557 
L 203.174578 267.838813 
L 203.499558 270.60578 
L 203.824537 282.036423 
L 204.149517 258.26156 
L 204.474496 263.388961 
L 204.799476 280.159152 
L 205.124455 281.186043 
L 205.449435 231.839328 
L 205.774414 276.76706 
L 206.099394 271.079414 
L 206.424373 263.276619 
L 206.749353 258.600202 
L 207.074333 276.180969 
L 207.724292 268.576623 
L 208.049271 281.180062 
L 208.374251 282.79202 
L 209.02421 262.410262 
L 209.674169 282.533566 
L 209.999148 268.127465 
L 210.324128 279.00849 
L 210.649107 275.828172 
L 210.974087 288.441223 
L 211.299066 281.489298 
L 211.624046 279.353045 
L 211.949025 279.105174 
L 212.274005 271.836125 
L 212.598984 282.258408 
L 212.923964 287.026346 
L 213.248943 282.132513 
L 213.573923 274.73655 
L 213.898903 280.332185 
L 214.223882 277.940462 
L 214.548862 277.344347 
L 214.873841 275.41475 
L 215.198821 274.227096 
L 215.5238 289.912977 
L 215.84878 281.269057 
L 216.173759 283.090984 
L 216.498739 283.224246 
L 216.823718 279.946145 
L 217.148698 282.885922 
L 217.473677 284.780422 
L 217.798657 278.162545 
L 218.123636 290.1338 
L 218.448616 285.380255 
L 218.773595 283.215784 
L 219.098575 276.656979 
L 219.423554 275.416325 
L 219.748534 288.054958 
L 220.073514 284.83209 
L 220.398493 283.968338 
L 220.723473 285.297573 
L 221.048452 288.335369 
L 221.373432 279.300488 
L 221.698411 280.547228 
L 222.023391 287.976532 
L 222.34837 285.029021 
L 222.67335 289.041553 
L 222.998329 283.743281 
L 223.323309 280.53632 
L 223.648288 279.744353 
L 223.973268 284.848824 
L 224.298247 284.675721 
L 224.623227 280.444491 
L 224.948206 287.277365 
L 225.273186 287.758126 
L 225.598165 282.079403 
L 225.923145 285.219889 
L 226.248124 291.402569 
L 226.573104 282.643215 
L 226.898084 290.437205 
L 227.548043 279.833206 
L 227.873022 280.462399 
L 228.198002 287.893888 
L 228.522981 289.899716 
L 228.847961 285.042314 
L 229.17294 287.209124 
L 229.49792 274.392459 
L 229.822899 281.137961 
L 230.147879 276.73824 
L 230.472858 289.156074 
L 230.797838 278.434702 
L 231.122817 277.473497 
L 231.447797 288.782574 
L 231.772776 278.793788 
L 232.097756 285.985894 
L 232.422735 274.786792 
L 232.747715 271.653182 
L 233.072695 281.369831 
L 233.397674 279.311961 
L 233.722654 281.415809 
L 234.047633 278.509899 
L 234.372613 285.755954 
L 234.697592 271.474668 
L 235.022572 290.044172 
L 235.347551 280.479797 
L 235.672531 283.840085 
L 235.99751 279.919384 
L 236.32249 284.24527 
L 236.647469 281.161942 
L 236.972449 289.325836 
L 237.297428 266.200947 
L 237.622408 286.949423 
L 237.947387 283.74611 
L 238.272367 285.231822 
L 238.597346 288.036123 
L 238.922326 288.604906 
L 239.247305 276.17373 
L 239.572285 285.034094 
L 239.897265 285.9608 
L 240.222244 279.296752 
L 240.547224 276.616921 
L 240.872203 288.840048 
L 241.197183 276.001597 
L 241.522162 289.815019 
L 241.847142 279.185712 
L 242.172121 289.501358 
L 242.497101 280.914699 
L 242.82208 286.810229 
L 243.14706 281.05897 
L 243.472039 282.644806 
L 243.797019 282.03465 
L 244.121998 285.414536 
L 244.446978 286.401599 
L 244.771957 288.169291 
L 245.096937 285.584242 
L 245.421916 286.827149 
L 246.071876 280.862677 
L 246.396855 286.428979 
L 246.721835 288.773552 
L 247.046814 285.905735 
L 247.371794 290.006128 
L 247.696773 287.728754 
L 248.021753 282.401102 
L 248.671712 285.649856 
L 248.996691 278.186868 
L 249.321671 288.259742 
L 249.64665 287.842461 
L 249.97163 287.021431 
L 250.621589 289.813995 
L 250.946568 289.587474 
L 251.271548 286.783373 
L 251.596527 285.174934 
L 251.921507 285.823271 
L 252.571466 281.48736 
L 252.896446 288.907932 
L 253.221425 285.164481 
L 253.546405 284.075942 
L 253.871384 273.892006 
L 254.196364 281.18476 
L 254.521343 279.480733 
L 254.846323 275.453819 
L 255.171302 280.534119 
L 255.496282 262.399821 
L 255.821261 287.051929 
L 256.146241 282.359138 
L 256.47122 263.019654 
L 256.7962 275.145561 
L 257.121179 269.025638 
L 257.446159 255.817598 
L 257.771138 283.504397 
L 258.096118 271.27456 
L 258.421097 280.480165 
L 258.746077 274.578339 
L 259.071057 278.72381 
L 259.396036 263.426347 
L 259.721016 285.597021 
L 260.045995 267.529661 
L 260.370975 284.71579 
L 260.695954 274.333195 
L 261.020934 278.974207 
L 261.345913 264.970229 
L 261.670893 277.894645 
L 261.995872 272.434458 
L 262.320852 282.78672 
L 262.970811 278.451864 
L 263.29579 293.09756 
L 263.62077 285.845212 
L 263.945749 262.900701 
L 264.270729 283.680304 
L 264.595708 280.220245 
L 264.920688 255.91968 
L 265.245667 266.166311 
L 265.895627 278.614315 
L 266.220606 250.071623 
L 266.545586 278.154484 
L 266.870565 269.418812 
L 267.195545 283.644309 
L 267.520524 264.290735 
L 267.845504 264.783854 
L 268.495463 268.794922 
L 268.820442 269.606842 
L 269.145422 269.487671 
L 269.470401 273.982384 
L 269.795381 264.568957 
L 270.12036 279.306438 
L 270.44534 277.011648 
L 270.770319 243.284761 
L 271.095299 279.469237 
L 271.420278 277.255565 
L 271.745258 263.378758 
L 272.070238 277.843366 
L 272.395217 284.438815 
L 272.720197 275.929318 
L 273.045176 273.43412 
L 273.370156 271.827708 
L 273.695135 282.271465 
L 274.020115 281.969816 
L 274.345094 275.45333 
L 274.670074 285.319185 
L 274.995053 282.764908 
L 275.320033 284.797874 
L 275.645012 280.432744 
L 275.969992 286.531262 
L 276.294971 281.920791 
L 276.619951 286.912948 
L 276.94493 288.781283 
L 277.26991 279.649636 
L 277.594889 289.188691 
L 277.919869 279.24218 
L 278.244848 287.314668 
L 278.569828 285.425459 
L 278.894808 290.921781 
L 279.219787 287.161628 
L 279.544767 286.125951 
L 280.194726 288.807135 
L 280.519705 281.133586 
L 280.844685 289.436606 
L 281.169664 284.337759 
L 281.494644 287.108134 
L 281.819623 292.703817 
L 282.144603 276.935816 
L 282.794562 288.066491 
L 283.119541 275.145575 
L 283.444521 284.732425 
L 283.7695 273.591282 
L 284.09448 272.059446 
L 284.419459 277.886555 
L 285.069419 283.382192 
L 285.394398 281.245612 
L 285.719378 288.037779 
L 286.044357 276.330909 
L 286.369337 281.89555 
L 286.694316 276.296942 
L 287.344275 272.808128 
L 287.669255 275.333338 
L 287.994234 283.822953 
L 288.319214 283.956475 
L 288.644193 279.783324 
L 288.969173 279.518047 
L 289.294152 287.867124 
L 289.619132 279.078166 
L 289.944111 287.48529 
L 290.269091 283.98912 
L 290.59407 284.238626 
L 290.91905 286.235322 
L 291.244029 283.311061 
L 291.569009 292.057983 
L 291.893989 285.005502 
L 292.868927 277.939527 
L 293.193907 282.773356 
L 293.518886 272.894892 
L 293.843866 258.242272 
L 294.168845 289.899647 
L 294.493825 269.067792 
L 294.818804 273.562362 
L 295.143784 252.189371 
L 295.468763 279.703423 
L 295.793743 285.52797 
L 296.118722 259.054709 
L 296.443702 288.952949 
L 296.768681 276.338713 
L 297.093661 281.468695 
L 297.41864 273.380493 
L 297.74362 277.476536 
L 298.0686 285.410965 
L 298.393579 273.050868 
L 298.718559 274.540786 
L 299.043538 263.26822 
L 299.368518 283.694677 
L 299.693497 293.12629 
L 300.018477 270.145751 
L 300.343456 285.028263 
L 300.668436 288.384394 
L 300.993415 276.835511 
L 301.318395 283.578559 
L 301.643374 283.85318 
L 301.968354 288.907857 
L 302.293333 275.452271 
L 302.618313 286.384483 
L 302.943292 283.652246 
L 303.268272 278.252342 
L 303.918231 289.090224 
L 304.24321 291.695403 
L 304.56819 287.750624 
L 304.89317 286.071277 
L 305.218149 289.640169 
L 305.543129 277.717396 
L 305.868108 294.390951 
L 306.518067 284.555745 
L 306.843047 288.830177 
L 307.168026 284.903381 
L 307.493006 284.875531 
L 307.817985 283.450626 
L 308.142965 289.5958 
L 308.467944 282.390648 
L 308.792924 293.950616 
L 309.117903 288.274873 
L 309.442883 287.871394 
L 309.767862 283.373298 
L 310.092842 290.683381 
L 310.417821 288.741289 
L 310.742801 283.102009 
L 311.067781 288.616821 
L 311.39276 289.66033 
L 311.71774 281.578031 
L 312.042719 280.761187 
L 312.367699 288.918559 
L 312.692678 286.964153 
L 313.017658 287.139771 
L 313.342637 284.745604 
L 313.667617 291.370057 
L 313.992596 285.373561 
L 314.317576 281.619366 
L 314.642555 291.622839 
L 314.967535 286.967213 
L 315.292514 286.920054 
L 315.617494 288.766637 
L 315.942473 292.316669 
L 316.267453 293.214787 
L 316.592432 289.146436 
L 316.917412 289.873285 
L 317.242391 289.41955 
L 317.892351 286.823825 
L 318.21733 284.623405 
L 318.54231 290.396611 
L 318.867289 287.602118 
L 319.192269 290.277728 
L 319.517248 286.656886 
L 319.842228 287.694326 
L 320.167207 289.110572 
L 320.492187 288.212476 
L 320.817166 286.462206 
L 321.142146 272.875883 
L 321.467125 290.740515 
L 321.792105 282.597021 
L 322.117084 284.74625 
L 322.442064 282.477687 
L 322.767043 284.858387 
L 323.092023 282.720932 
L 323.417002 282.936424 
L 323.741982 266.851056 
L 324.066962 287.229996 
L 324.391941 259.852833 
L 324.716921 262.591322 
L 325.0419 286.370092 
L 325.36688 291.331845 
L 325.691859 280.23588 
L 326.016839 284.413071 
L 326.341818 290.98418 
L 326.666798 282.538901 
L 326.991777 284.304726 
L 327.316757 289.384738 
L 327.641736 287.244903 
L 327.966716 286.258793 
L 328.291695 282.97325 
L 328.616675 283.108695 
L 328.941654 288.349068 
L 329.266634 286.386045 
L 329.591613 285.957435 
L 329.916593 290.876929 
L 330.241572 289.552311 
L 330.566552 282.534454 
L 330.891532 284.464585 
L 331.216511 276.241865 
L 331.541491 291.394606 
L 331.86647 288.58073 
L 332.19145 282.777238 
L 332.516429 290.392991 
L 332.841409 290.126467 
L 333.166388 288.92275 
L 333.491368 286.551049 
L 334.141327 290.01436 
L 334.466306 288.09791 
L 334.791286 289.300611 
L 335.441245 282.444893 
L 335.766224 294.176102 
L 336.091204 286.600062 
L 336.416183 283.332545 
L 336.741163 286.834282 
L 337.066143 288.474103 
L 337.391122 285.784276 
L 337.716102 289.169249 
L 338.041081 290.40996 
L 338.366061 289.99398 
L 338.69104 282.100297 
L 339.01602 291.643855 
L 339.340999 280.947876 
L 339.665979 289.791515 
L 339.990958 286.884194 
L 340.315938 279.582345 
L 340.640917 289.810728 
L 340.965897 281.075793 
L 341.615856 289.554209 
L 341.940835 285.937878 
L 342.265815 295.022489 
L 342.590794 287.235413 
L 342.915774 283.10112 
L 343.240753 291.824955 
L 343.565733 290.060713 
L 344.215692 282.888797 
L 344.540672 288.442749 
L 344.865651 279.563391 
L 345.190631 286.451462 
L 345.51561 290.324667 
L 345.84059 276.792668 
L 346.165569 277.318714 
L 346.490549 276.213572 
L 346.815528 283.868541 
L 347.140508 280.987199 
L 347.465487 281.762328 
L 347.790467 278.607292 
L 348.115446 268.917464 
L 348.440426 280.568733 
L 348.765405 286.719765 
L 349.090385 268.318464 
L 349.415364 282.708371 
L 349.740344 289.211765 
L 350.065324 293.041189 
L 350.390303 279.767017 
L 350.715283 288.287664 
L 351.040262 291.255409 
L 351.365242 286.622447 
L 351.690221 278.613716 
L 352.015201 288.098199 
L 352.34018 290.569967 
L 352.66516 276.406556 
L 353.315119 288.028661 
L 353.640098 283.752137 
L 353.965078 290.527719 
L 354.290057 287.283996 
L 354.615037 292.428461 
L 354.940016 287.547789 
L 355.264996 289.939446 
L 355.589975 291.12841 
L 355.914955 291.160883 
L 356.239934 284.790281 
L 356.564914 292.321574 
L 356.889894 286.310276 
L 357.214873 291.18279 
L 357.539853 293.011509 
L 357.864832 289.930156 
L 358.189812 280.205786 
L 358.514791 287.006969 
L 358.839771 289.17978 
L 359.16475 288.313437 
L 359.48973 284.585779 
L 359.814709 284.920263 
L 360.139689 292.632456 
L 360.464668 285.570222 
L 360.789648 290.875411 
L 361.114627 286.757575 
L 361.439607 288.400865 
L 361.764586 285.364128 
L 362.089566 290.037585 
L 362.414545 290.764991 
L 362.739525 290.967591 
L 363.064505 290.880475 
L 363.389484 288.069499 
L 363.714464 291.723472 
L 364.039443 292.097939 
L 364.689402 289.413928 
L 365.014382 292.823203 
L 365.339361 292.183956 
L 365.664341 292.974416 
L 366.3143 289.364286 
L 366.639279 285.660803 
L 366.964259 290.567969 
L 367.289238 289.419537 
L 367.614218 293.161099 
L 367.939197 292.648799 
L 368.264177 288.113506 
L 368.589156 291.040191 
L 368.914136 285.367105 
L 369.564095 293.552751 
L 369.889075 285.331352 
L 370.214054 290.651453 
L 370.539034 289.281148 
L 370.864013 289.833788 
L 371.188993 285.27539 
L 371.513972 286.146704 
L 371.838952 291.153777 
L 372.163931 284.330983 
L 372.488911 288.415502 
L 372.81389 284.140218 
L 373.13887 289.857099 
L 373.463849 290.143869 
L 373.788829 289.412853 
L 374.113808 290.092423 
L 374.438788 293.320739 
L 374.763767 294.535405 
L 375.088747 289.38091 
L 375.413726 289.873453 
L 375.738706 286.41708 
L 376.063686 288.849021 
L 376.388665 294.001017 
L 376.713645 286.76682 
L 377.038624 287.709121 
L 377.363604 292.115861 
L 377.688583 286.134282 
L 378.013563 291.114949 
L 378.338542 280.769052 
L 378.663522 289.668696 
L 378.988501 294.275293 
L 379.313481 285.276676 
L 379.63846 292.446327 
L 379.96344 292.257084 
L 380.288419 289.714755 
L 380.613399 292.166304 
L 380.938378 288.171092 
L 381.263358 289.164342 
L 381.588337 288.788448 
L 381.913317 287.024285 
L 382.238296 295.488 
L 382.563276 287.093311 
L 382.888256 286.684756 
L 383.213235 288.425965 
L 383.538215 289.527631 
L 383.863194 291.461369 
L 384.188174 291.234206 
L 384.513153 284.646293 
L 384.838133 293.824847 
L 385.813071 281.600858 
L 386.138051 290.551133 
L 386.46303 284.103031 
L 386.78801 280.178465 
L 387.112989 294.144535 
L 387.437969 287.511692 
L 387.762948 289.56887 
L 388.412907 291.52657 
L 388.737887 287.390513 
L 389.062867 292.418646 
L 389.387846 278.924067 
L 389.712826 285.301674 
L 390.037805 277.743031 
L 390.362785 253.691318 
L 390.687764 287.354896 
L 391.012744 286.756834 
L 391.337723 280.733416 
L 391.662703 290.746517 
L 391.987682 278.418989 
L 392.312662 287.596266 
L 392.637641 287.55343 
L 392.962621 287.795841 
L 393.2876 292.3993 
L 393.61258 280.058003 
L 393.937559 288.736612 
L 394.262539 293.339273 
L 394.587518 282.900552 
L 394.912498 291.652846 
L 395.237477 287.739789 
L 395.562457 279.163678 
L 395.887437 288.664643 
L 396.212416 274.506487 
L 396.537396 293.339537 
L 396.862375 288.379189 
L 397.187355 290.04526 
L 397.512334 287.157139 
L 397.837314 291.964363 
L 398.162293 293.950753 
L 398.487273 293.805522 
L 398.487273 293.805522 
" clip-path="url(#p6c7c2d63d4)" style="fill: none; stroke: #1f77b4; stroke-width: 1.5; stroke-linecap: square"/>
   </g>
   <g id="line2d_24">
    <path d="M 73.832727 85.536116 
L 77.082523 94.679474 
L 80.332318 108.467799 
L 83.582113 102.22973 
L 86.831908 110.600623 
L 90.081704 145.112994 
L 93.331499 166.932999 
L 96.581294 203.10313 
L 99.831089 209.386614 
L 103.080885 230.913961 
L 106.33068 215.626581 
L 109.580475 244.257611 
L 112.83027 251.355933 
L 116.080066 248.834869 
L 119.329861 259.20963 
L 122.579656 260.235551 
L 125.829451 242.542201 
L 129.079247 250.459579 
L 132.329042 209.772909 
L 135.578837 254.865918 
L 138.828632 262.49178 
L 142.078428 248.061325 
L 145.328223 258.7703 
L 148.578018 269.450876 
L 151.827813 264.531375 
L 155.077609 269.774397 
L 158.327404 270.517519 
L 161.577199 271.342138 
L 164.826994 273.529544 
L 168.07679 272.456197 
L 171.326585 275.808778 
L 174.57638 277.710278 
L 177.826175 264.936212 
L 181.075971 272.464525 
L 184.325766 278.402837 
L 187.575561 278.951466 
L 190.825356 272.949778 
L 194.075152 276.605181 
L 197.324947 280.844423 
L 200.574742 278.351029 
L 203.824537 253.929648 
L 207.074333 275.225231 
L 210.324128 276.1764 
L 213.573923 273.79254 
L 216.823718 283.234708 
L 220.073514 284.096888 
L 223.323309 283.845042 
L 226.573104 284.740655 
L 229.822899 272.204581 
L 233.072695 287.037277 
L 236.32249 280.901369 
L 239.572285 285.951321 
L 242.82208 278.729118 
L 246.071876 286.986817 
L 249.321671 284.07061 
L 252.571466 286.373107 
L 255.821261 273.764613 
L 259.071057 267.804615 
L 262.320852 276.337546 
L 265.570647 280.183715 
L 268.820442 265.616153 
L 272.070238 280.134916 
L 275.320033 277.225216 
L 278.569828 286.595499 
L 281.819623 273.863028 
L 285.069419 280.094525 
L 288.319214 280.917322 
L 291.569009 283.9324 
L 294.818804 256.948981 
L 298.0686 282.595127 
L 301.318395 279.968185 
L 304.56819 284.245677 
L 307.817985 285.573267 
L 311.067781 288.378745 
L 314.317576 288.298933 
L 317.567371 284.578255 
L 320.817166 283.0619 
L 324.066962 258.971874 
L 327.316757 290.268144 
L 330.566552 286.974244 
L 333.816347 285.043444 
L 337.066143 285.508199 
L 340.315938 287.469549 
L 343.565733 284.621885 
L 346.815528 272.964306 
L 350.065324 279.51679 
L 353.315119 288.483713 
L 356.564914 288.111784 
L 359.814709 287.023728 
L 363.064505 289.320306 
L 366.3143 286.514271 
L 369.564095 284.172432 
L 372.81389 284.825025 
L 376.063686 289.692584 
L 379.313481 291.617525 
L 382.563276 290.728695 
L 385.813071 290.413595 
L 389.062867 284.550207 
L 392.312662 290.821736 
L 395.562457 288.092442 
" clip-path="url(#p6c7c2d63d4)" style="fill: none; stroke: #ff7f0e; stroke-width: 1.5; stroke-linecap: square"/>
   </g>
   <g id="patch_3">
    <path d="M 57.6 307.584 
L 57.6 41.472 
" style="fill: none; stroke: #000000; stroke-width: 0.8; stroke-linejoin: miter; stroke-linecap: square"/>
   </g>
   <g id="patch_4">
    <path d="M 414.72 307.584 
L 414.72 41.472 
" style="fill: none; stroke: #000000; stroke-width: 0.8; stroke-linejoin: miter; stroke-linecap: square"/>
   </g>
   <g id="patch_5">
    <path d="M 57.6 307.584 
L 414.72 307.584 
" style="fill: none; stroke: #000000; stroke-width: 0.8; stroke-linejoin: miter; stroke-linecap: square"/>
   </g>
   <g id="patch_6">
    <path d="M 57.6 41.472 
L 414.72 41.472 
" style="fill: none; stroke: #000000; stroke-width: 0.8; stroke-linejoin: miter; stroke-linecap: square"/>
   </g>
   <g id="text_14">
    <!-- Train Loss vs Validation Loss -->
    <g transform="translate(151.513125 35.472) scale(0.12 -0.12)">
     <defs>
      <path id="DejaVuSans-76" d="M 191 3500 
L 800 3500 
L 1894 563 
L 2988 3500 
L 3597 3500 
L 2284 0 
L 1503 0 
L 191 3500 
z
" transform="scale(0.015625)"/>
      <path id="DejaVuSans-56" d="M 1831 0 
L 50 4666 
L 709 4666 
L 2188 738 
L 3669 4666 
L 4325 4666 
L 2547 0 
L 1831 0 
z
" transform="scale(0.015625)"/>
      <path id="DejaVuSans-6c" d="M 603 4863 
L 1178 4863 
L 1178 0 
L 603 0 
L 603 4863 
z
" transform="scale(0.015625)"/>
      <path id="DejaVuSans-64" d="M 2906 2969 
L 2906 4863 
L 3481 4863 
L 3481 0 
L 2906 0 
L 2906 525 
Q 2725 213 2448 61 
Q 2172 -91 1784 -91 
Q 1150 -91 751 415 
Q 353 922 353 1747 
Q 353 2572 751 3078 
Q 1150 3584 1784 3584 
Q 2172 3584 2448 3432 
Q 2725 3281 2906 2969 
z
M 947 1747 
Q 947 1113 1208 752 
Q 1469 391 1925 391 
Q 2381 391 2643 752 
Q 2906 1113 2906 1747 
Q 2906 2381 2643 2742 
Q 2381 3103 1925 3103 
Q 1469 3103 1208 2742 
Q 947 2381 947 1747 
z
" transform="scale(0.015625)"/>
     </defs>
     <use xlink:href="#DejaVuSans-54"/>
     <use xlink:href="#DejaVuSans-72" x="46.333984"/>
     <use xlink:href="#DejaVuSans-61" x="87.447266"/>
     <use xlink:href="#DejaVuSans-69" x="148.726562"/>
     <use xlink:href="#DejaVuSans-6e" x="176.509766"/>
     <use xlink:href="#DejaVuSans-20" x="239.888672"/>
     <use xlink:href="#DejaVuSans-4c" x="271.675781"/>
     <use xlink:href="#DejaVuSans-6f" x="325.638672"/>
     <use xlink:href="#DejaVuSans-73" x="386.820312"/>
     <use xlink:href="#DejaVuSans-73" x="438.919922"/>
     <use xlink:href="#DejaVuSans-20" x="491.019531"/>
     <use xlink:href="#DejaVuSans-76" x="522.806641"/>
     <use xlink:href="#DejaVuSans-73" x="581.986328"/>
     <use xlink:href="#DejaVuSans-20" x="634.085938"/>
     <use xlink:href="#DejaVuSans-56" x="665.873047"/>
     <use xlink:href="#DejaVuSans-61" x="726.53125"/>
     <use xlink:href="#DejaVuSans-6c" x="787.810547"/>
     <use xlink:href="#DejaVuSans-69" x="815.59375"/>
     <use xlink:href="#DejaVuSans-64" x="843.376953"/>
     <use xlink:href="#DejaVuSans-61" x="906.853516"/>
     <use xlink:href="#DejaVuSans-74" x="968.132812"/>
     <use xlink:href="#DejaVuSans-69" x="1007.341797"/>
     <use xlink:href="#DejaVuSans-6f" x="1035.125"/>
     <use xlink:href="#DejaVuSans-6e" x="1096.306641"/>
     <use xlink:href="#DejaVuSans-20" x="1159.685547"/>
     <use xlink:href="#DejaVuSans-4c" x="1191.472656"/>
     <use xlink:href="#DejaVuSans-6f" x="1245.435547"/>
     <use xlink:href="#DejaVuSans-73" x="1306.617188"/>
     <use xlink:href="#DejaVuSans-73" x="1358.716797"/>
    </g>
   </g>
   <g id="legend_1">
    <g id="patch_7">
     <path d="M 301.22625 78.82825 
L 407.72 78.82825 
Q 409.72 78.82825 409.72 76.82825 
L 409.72 48.472 
Q 409.72 46.472 407.72 46.472 
L 301.22625 46.472 
Q 299.22625 46.472 299.22625 48.472 
L 299.22625 76.82825 
Q 299.22625 78.82825 301.22625 78.82825 
z
" style="fill: #ffffff; opacity: 0.8; stroke: #cccccc; stroke-linejoin: miter"/>
    </g>
    <g id="line2d_25">
     <path d="M 303.22625 54.570437 
L 313.22625 54.570437 
L 323.22625 54.570437 
" style="fill: none; stroke: #1f77b4; stroke-width: 1.5; stroke-linecap: square"/>
    </g>
    <g id="text_15">
     <!-- Train Loss -->
     <g transform="translate(331.22625 58.070437) scale(0.1 -0.1)">
      <use xlink:href="#DejaVuSans-54"/>
      <use xlink:href="#DejaVuSans-72" x="46.333984"/>
      <use xlink:href="#DejaVuSans-61" x="87.447266"/>
      <use xlink:href="#DejaVuSans-69" x="148.726562"/>
      <use xlink:href="#DejaVuSans-6e" x="176.509766"/>
      <use xlink:href="#DejaVuSans-20" x="239.888672"/>
      <use xlink:href="#DejaVuSans-4c" x="271.675781"/>
      <use xlink:href="#DejaVuSans-6f" x="325.638672"/>
      <use xlink:href="#DejaVuSans-73" x="386.820312"/>
      <use xlink:href="#DejaVuSans-73" x="438.919922"/>
     </g>
    </g>
    <g id="line2d_26">
     <path d="M 303.22625 69.248562 
L 313.22625 69.248562 
L 323.22625 69.248562 
" style="fill: none; stroke: #ff7f0e; stroke-width: 1.5; stroke-linecap: square"/>
    </g>
    <g id="text_16">
     <!-- Validation Loss -->
     <g transform="translate(331.22625 72.748562) scale(0.1 -0.1)">
      <use xlink:href="#DejaVuSans-56"/>
      <use xlink:href="#DejaVuSans-61" x="60.658203"/>
      <use xlink:href="#DejaVuSans-6c" x="121.9375"/>
      <use xlink:href="#DejaVuSans-69" x="149.720703"/>
      <use xlink:href="#DejaVuSans-64" x="177.503906"/>
      <use xlink:href="#DejaVuSans-61" x="240.980469"/>
      <use xlink:href="#DejaVuSans-74" x="302.259766"/>
      <use xlink:href="#DejaVuSans-69" x="341.46875"/>
      <use xlink:href="#DejaVuSans-6f" x="369.251953"/>
      <use xlink:href="#DejaVuSans-6e" x="430.433594"/>
      <use xlink:href="#DejaVuSans-20" x="493.8125"/>
      <use xlink:href="#DejaVuSans-4c" x="525.599609"/>
      <use xlink:href="#DejaVuSans-6f" x="579.5625"/>
      <use xlink:href="#DejaVuSans-73" x="640.744141"/>
      <use xlink:href="#DejaVuSans-73" x="692.84375"/>
     </g>
    </g>
   </g>
  </g>
 </g>
 <defs>
  <clipPath id="p6c7c2d63d4">
   <rect x="57.6" y="41.472" width="357.12" height="266.112"/>
  </clipPath>
 </defs>
</svg>
