<?xml version="1.0" encoding="utf-8" standalone="no"?>
<!DOCTYPE svg PUBLIC "-//W3C//DTD SVG 1.1//EN"
  "http://www.w3.org/Graphics/SVG/1.1/DTD/svg11.dtd">
<svg xmlns:xlink="http://www.w3.org/1999/xlink" width="460.8pt" height="345.6pt" viewBox="0 0 460.8 345.6" xmlns="http://www.w3.org/2000/svg" version="1.1">
 <metadata>
  <rdf:RDF xmlns:dc="http://purl.org/dc/elements/1.1/" xmlns:cc="http://creativecommons.org/ns#" xmlns:rdf="http://www.w3.org/1999/02/22-rdf-syntax-ns#">
   <cc:Work>
    <dc:type rdf:resource="http://purl.org/dc/dcmitype/StillImage"/>
    <dc:date>2023-11-14T10:22:12.919587</dc:date>
    <dc:format>image/svg+xml</dc:format>
    <dc:creator>
     <cc:Agent>
      <dc:title>Matplotlib v3.8.0, https://matplotlib.org/</dc:title>
     </cc:Agent>
    </dc:creator>
   </cc:Work>
  </rdf:RDF>
 </metadata>
 <defs>
  <style type="text/css">*{stroke-linejoin: round; stroke-linecap: butt}</style>
 </defs>
 <g id="figure_1">
  <g id="patch_1">
   <path d="M 0 345.6 
L 460.8 345.6 
L 460.8 0 
L 0 0 
z
" style="fill: #ffffff"/>
  </g>
  <g id="axes_1">
   <g id="patch_2">
    <path d="M 57.6 307.584 
L 414.72 307.584 
L 414.72 41.472 
L 57.6 41.472 
z
" style="fill: #ffffff"/>
   </g>
   <g id="matplotlib.axis_1">
    <g id="xtick_1">
     <g id="line2d_1">
      <path d="M 73.832727 307.584 
L 73.832727 41.472 
" clip-path="url(#p4260496b24)" style="fill: none; stroke: #b0b0b0; stroke-width: 0.8; stroke-linecap: square"/>
     </g>
     <g id="line2d_2">
      <defs>
       <path id="mef2b499b5b" d="M 0 0 
L 0 3.5 
" style="stroke: #000000; stroke-width: 0.8"/>
      </defs>
      <g>
       <use xlink:href="#mef2b499b5b" x="73.832727" y="307.584" style="stroke: #000000; stroke-width: 0.8"/>
      </g>
     </g>
     <g id="text_1">
      <!-- 0 -->
      <g transform="translate(70.651477 322.182437) scale(0.1 -0.1)">
       <defs>
        <path id="DejaVuSans-30" d="M 2034 4250 
Q 1547 4250 1301 3770 
Q 1056 3291 1056 2328 
Q 1056 1369 1301 889 
Q 1547 409 2034 409 
Q 2525 409 2770 889 
Q 3016 1369 3016 2328 
Q 3016 3291 2770 3770 
Q 2525 4250 2034 4250 
z
M 2034 4750 
Q 2819 4750 3233 4129 
Q 3647 3509 3647 2328 
Q 3647 1150 3233 529 
Q 2819 -91 2034 -91 
Q 1250 -91 836 529 
Q 422 1150 422 2328 
Q 422 3509 836 4129 
Q 1250 4750 2034 4750 
z
" transform="scale(0.015625)"/>
       </defs>
       <use xlink:href="#DejaVuSans-30"/>
      </g>
     </g>
    </g>
    <g id="xtick_2">
     <g id="line2d_3">
      <path d="M 138.828632 307.584 
L 138.828632 41.472 
" clip-path="url(#p4260496b24)" style="fill: none; stroke: #b0b0b0; stroke-width: 0.8; stroke-linecap: square"/>
     </g>
     <g id="line2d_4">
      <g>
       <use xlink:href="#mef2b499b5b" x="138.828632" y="307.584" style="stroke: #000000; stroke-width: 0.8"/>
      </g>
     </g>
     <g id="text_2">
      <!-- 200 -->
      <g transform="translate(129.284882 322.182437) scale(0.1 -0.1)">
       <defs>
        <path id="DejaVuSans-32" d="M 1228 531 
L 3431 531 
L 3431 0 
L 469 0 
L 469 531 
Q 828 903 1448 1529 
Q 2069 2156 2228 2338 
Q 2531 2678 2651 2914 
Q 2772 3150 2772 3378 
Q 2772 3750 2511 3984 
Q 2250 4219 1831 4219 
Q 1534 4219 1204 4116 
Q 875 4013 500 3803 
L 500 4441 
Q 881 4594 1212 4672 
Q 1544 4750 1819 4750 
Q 2544 4750 2975 4387 
Q 3406 4025 3406 3419 
Q 3406 3131 3298 2873 
Q 3191 2616 2906 2266 
Q 2828 2175 2409 1742 
Q 1991 1309 1228 531 
z
" transform="scale(0.015625)"/>
       </defs>
       <use xlink:href="#DejaVuSans-32"/>
       <use xlink:href="#DejaVuSans-30" x="63.623047"/>
       <use xlink:href="#DejaVuSans-30" x="127.246094"/>
      </g>
     </g>
    </g>
    <g id="xtick_3">
     <g id="line2d_5">
      <path d="M 203.824537 307.584 
L 203.824537 41.472 
" clip-path="url(#p4260496b24)" style="fill: none; stroke: #b0b0b0; stroke-width: 0.8; stroke-linecap: square"/>
     </g>
     <g id="line2d_6">
      <g>
       <use xlink:href="#mef2b499b5b" x="203.824537" y="307.584" style="stroke: #000000; stroke-width: 0.8"/>
      </g>
     </g>
     <g id="text_3">
      <!-- 400 -->
      <g transform="translate(194.280787 322.182437) scale(0.1 -0.1)">
       <defs>
        <path id="DejaVuSans-34" d="M 2419 4116 
L 825 1625 
L 2419 1625 
L 2419 4116 
z
M 2253 4666 
L 3047 4666 
L 3047 1625 
L 3713 1625 
L 3713 1100 
L 3047 1100 
L 3047 0 
L 2419 0 
L 2419 1100 
L 313 1100 
L 313 1709 
L 2253 4666 
z
" transform="scale(0.015625)"/>
       </defs>
       <use xlink:href="#DejaVuSans-34"/>
       <use xlink:href="#DejaVuSans-30" x="63.623047"/>
       <use xlink:href="#DejaVuSans-30" x="127.246094"/>
      </g>
     </g>
    </g>
    <g id="xtick_4">
     <g id="line2d_7">
      <path d="M 268.820442 307.584 
L 268.820442 41.472 
" clip-path="url(#p4260496b24)" style="fill: none; stroke: #b0b0b0; stroke-width: 0.8; stroke-linecap: square"/>
     </g>
     <g id="line2d_8">
      <g>
       <use xlink:href="#mef2b499b5b" x="268.820442" y="307.584" style="stroke: #000000; stroke-width: 0.8"/>
      </g>
     </g>
     <g id="text_4">
      <!-- 600 -->
      <g transform="translate(259.276692 322.182437) scale(0.1 -0.1)">
       <defs>
        <path id="DejaVuSans-36" d="M 2113 2584 
Q 1688 2584 1439 2293 
Q 1191 2003 1191 1497 
Q 1191 994 1439 701 
Q 1688 409 2113 409 
Q 2538 409 2786 701 
Q 3034 994 3034 1497 
Q 3034 2003 2786 2293 
Q 2538 2584 2113 2584 
z
M 3366 4563 
L 3366 3988 
Q 3128 4100 2886 4159 
Q 2644 4219 2406 4219 
Q 1781 4219 1451 3797 
Q 1122 3375 1075 2522 
Q 1259 2794 1537 2939 
Q 1816 3084 2150 3084 
Q 2853 3084 3261 2657 
Q 3669 2231 3669 1497 
Q 3669 778 3244 343 
Q 2819 -91 2113 -91 
Q 1303 -91 875 529 
Q 447 1150 447 2328 
Q 447 3434 972 4092 
Q 1497 4750 2381 4750 
Q 2619 4750 2861 4703 
Q 3103 4656 3366 4563 
z
" transform="scale(0.015625)"/>
       </defs>
       <use xlink:href="#DejaVuSans-36"/>
       <use xlink:href="#DejaVuSans-30" x="63.623047"/>
       <use xlink:href="#DejaVuSans-30" x="127.246094"/>
      </g>
     </g>
    </g>
    <g id="xtick_5">
     <g id="line2d_9">
      <path d="M 333.816347 307.584 
L 333.816347 41.472 
" clip-path="url(#p4260496b24)" style="fill: none; stroke: #b0b0b0; stroke-width: 0.8; stroke-linecap: square"/>
     </g>
     <g id="line2d_10">
      <g>
       <use xlink:href="#mef2b499b5b" x="333.816347" y="307.584" style="stroke: #000000; stroke-width: 0.8"/>
      </g>
     </g>
     <g id="text_5">
      <!-- 800 -->
      <g transform="translate(324.272597 322.182437) scale(0.1 -0.1)">
       <defs>
        <path id="DejaVuSans-38" d="M 2034 2216 
Q 1584 2216 1326 1975 
Q 1069 1734 1069 1313 
Q 1069 891 1326 650 
Q 1584 409 2034 409 
Q 2484 409 2743 651 
Q 3003 894 3003 1313 
Q 3003 1734 2745 1975 
Q 2488 2216 2034 2216 
z
M 1403 2484 
Q 997 2584 770 2862 
Q 544 3141 544 3541 
Q 544 4100 942 4425 
Q 1341 4750 2034 4750 
Q 2731 4750 3128 4425 
Q 3525 4100 3525 3541 
Q 3525 3141 3298 2862 
Q 3072 2584 2669 2484 
Q 3125 2378 3379 2068 
Q 3634 1759 3634 1313 
Q 3634 634 3220 271 
Q 2806 -91 2034 -91 
Q 1263 -91 848 271 
Q 434 634 434 1313 
Q 434 1759 690 2068 
Q 947 2378 1403 2484 
z
M 1172 3481 
Q 1172 3119 1398 2916 
Q 1625 2713 2034 2713 
Q 2441 2713 2670 2916 
Q 2900 3119 2900 3481 
Q 2900 3844 2670 4047 
Q 2441 4250 2034 4250 
Q 1625 4250 1398 4047 
Q 1172 3844 1172 3481 
z
" transform="scale(0.015625)"/>
       </defs>
       <use xlink:href="#DejaVuSans-38"/>
       <use xlink:href="#DejaVuSans-30" x="63.623047"/>
       <use xlink:href="#DejaVuSans-30" x="127.246094"/>
      </g>
     </g>
    </g>
    <g id="xtick_6">
     <g id="line2d_11">
      <path d="M 398.812252 307.584 
L 398.812252 41.472 
" clip-path="url(#p4260496b24)" style="fill: none; stroke: #b0b0b0; stroke-width: 0.8; stroke-linecap: square"/>
     </g>
     <g id="line2d_12">
      <g>
       <use xlink:href="#mef2b499b5b" x="398.812252" y="307.584" style="stroke: #000000; stroke-width: 0.8"/>
      </g>
     </g>
     <g id="text_6">
      <!-- 1000 -->
      <g transform="translate(386.087252 322.182437) scale(0.1 -0.1)">
       <defs>
        <path id="DejaVuSans-31" d="M 794 531 
L 1825 531 
L 1825 4091 
L 703 3866 
L 703 4441 
L 1819 4666 
L 2450 4666 
L 2450 531 
L 3481 531 
L 3481 0 
L 794 0 
L 794 531 
z
" transform="scale(0.015625)"/>
       </defs>
       <use xlink:href="#DejaVuSans-31"/>
       <use xlink:href="#DejaVuSans-30" x="63.623047"/>
       <use xlink:href="#DejaVuSans-30" x="127.246094"/>
       <use xlink:href="#DejaVuSans-30" x="190.869141"/>
      </g>
     </g>
    </g>
    <g id="text_7">
     <!-- Train Step -->
     <g transform="translate(211.192031 335.860562) scale(0.1 -0.1)">
      <defs>
       <path id="DejaVuSans-54" d="M -19 4666 
L 3928 4666 
L 3928 4134 
L 2272 4134 
L 2272 0 
L 1638 0 
L 1638 4134 
L -19 4134 
L -19 4666 
z
" transform="scale(0.015625)"/>
       <path id="DejaVuSans-72" d="M 2631 2963 
Q 2534 3019 2420 3045 
Q 2306 3072 2169 3072 
Q 1681 3072 1420 2755 
Q 1159 2438 1159 1844 
L 1159 0 
L 581 0 
L 581 3500 
L 1159 3500 
L 1159 2956 
Q 1341 3275 1631 3429 
Q 1922 3584 2338 3584 
Q 2397 3584 2469 3576 
Q 2541 3569 2628 3553 
L 2631 2963 
z
" transform="scale(0.015625)"/>
       <path id="DejaVuSans-61" d="M 2194 1759 
Q 1497 1759 1228 1600 
Q 959 1441 959 1056 
Q 959 750 1161 570 
Q 1363 391 1709 391 
Q 2188 391 2477 730 
Q 2766 1069 2766 1631 
L 2766 1759 
L 2194 1759 
z
M 3341 1997 
L 3341 0 
L 2766 0 
L 2766 531 
Q 2569 213 2275 61 
Q 1981 -91 1556 -91 
Q 1019 -91 701 211 
Q 384 513 384 1019 
Q 384 1609 779 1909 
Q 1175 2209 1959 2209 
L 2766 2209 
L 2766 2266 
Q 2766 2663 2505 2880 
Q 2244 3097 1772 3097 
Q 1472 3097 1187 3025 
Q 903 2953 641 2809 
L 641 3341 
Q 956 3463 1253 3523 
Q 1550 3584 1831 3584 
Q 2591 3584 2966 3190 
Q 3341 2797 3341 1997 
z
" transform="scale(0.015625)"/>
       <path id="DejaVuSans-69" d="M 603 3500 
L 1178 3500 
L 1178 0 
L 603 0 
L 603 3500 
z
M 603 4863 
L 1178 4863 
L 1178 4134 
L 603 4134 
L 603 4863 
z
" transform="scale(0.015625)"/>
       <path id="DejaVuSans-6e" d="M 3513 2113 
L 3513 0 
L 2938 0 
L 2938 2094 
Q 2938 2591 2744 2837 
Q 2550 3084 2163 3084 
Q 1697 3084 1428 2787 
Q 1159 2491 1159 1978 
L 1159 0 
L 581 0 
L 581 3500 
L 1159 3500 
L 1159 2956 
Q 1366 3272 1645 3428 
Q 1925 3584 2291 3584 
Q 2894 3584 3203 3211 
Q 3513 2838 3513 2113 
z
" transform="scale(0.015625)"/>
       <path id="DejaVuSans-20" transform="scale(0.015625)"/>
       <path id="DejaVuSans-53" d="M 3425 4513 
L 3425 3897 
Q 3066 4069 2747 4153 
Q 2428 4238 2131 4238 
Q 1616 4238 1336 4038 
Q 1056 3838 1056 3469 
Q 1056 3159 1242 3001 
Q 1428 2844 1947 2747 
L 2328 2669 
Q 3034 2534 3370 2195 
Q 3706 1856 3706 1288 
Q 3706 609 3251 259 
Q 2797 -91 1919 -91 
Q 1588 -91 1214 -16 
Q 841 59 441 206 
L 441 856 
Q 825 641 1194 531 
Q 1563 422 1919 422 
Q 2459 422 2753 634 
Q 3047 847 3047 1241 
Q 3047 1584 2836 1778 
Q 2625 1972 2144 2069 
L 1759 2144 
Q 1053 2284 737 2584 
Q 422 2884 422 3419 
Q 422 4038 858 4394 
Q 1294 4750 2059 4750 
Q 2388 4750 2728 4690 
Q 3069 4631 3425 4513 
z
" transform="scale(0.015625)"/>
       <path id="DejaVuSans-74" d="M 1172 4494 
L 1172 3500 
L 2356 3500 
L 2356 3053 
L 1172 3053 
L 1172 1153 
Q 1172 725 1289 603 
Q 1406 481 1766 481 
L 2356 481 
L 2356 0 
L 1766 0 
Q 1100 0 847 248 
Q 594 497 594 1153 
L 594 3053 
L 172 3053 
L 172 3500 
L 594 3500 
L 594 4494 
L 1172 4494 
z
" transform="scale(0.015625)"/>
       <path id="DejaVuSans-65" d="M 3597 1894 
L 3597 1613 
L 953 1613 
Q 991 1019 1311 708 
Q 1631 397 2203 397 
Q 2534 397 2845 478 
Q 3156 559 3463 722 
L 3463 178 
Q 3153 47 2828 -22 
Q 2503 -91 2169 -91 
Q 1331 -91 842 396 
Q 353 884 353 1716 
Q 353 2575 817 3079 
Q 1281 3584 2069 3584 
Q 2775 3584 3186 3129 
Q 3597 2675 3597 1894 
z
M 3022 2063 
Q 3016 2534 2758 2815 
Q 2500 3097 2075 3097 
Q 1594 3097 1305 2825 
Q 1016 2553 972 2059 
L 3022 2063 
z
" transform="scale(0.015625)"/>
       <path id="DejaVuSans-70" d="M 1159 525 
L 1159 -1331 
L 581 -1331 
L 581 3500 
L 1159 3500 
L 1159 2969 
Q 1341 3281 1617 3432 
Q 1894 3584 2278 3584 
Q 2916 3584 3314 3078 
Q 3713 2572 3713 1747 
Q 3713 922 3314 415 
Q 2916 -91 2278 -91 
Q 1894 -91 1617 61 
Q 1341 213 1159 525 
z
M 3116 1747 
Q 3116 2381 2855 2742 
Q 2594 3103 2138 3103 
Q 1681 3103 1420 2742 
Q 1159 2381 1159 1747 
Q 1159 1113 1420 752 
Q 1681 391 2138 391 
Q 2594 391 2855 752 
Q 3116 1113 3116 1747 
z
" transform="scale(0.015625)"/>
      </defs>
      <use xlink:href="#DejaVuSans-54"/>
      <use xlink:href="#DejaVuSans-72" x="46.333984"/>
      <use xlink:href="#DejaVuSans-61" x="87.447266"/>
      <use xlink:href="#DejaVuSans-69" x="148.726562"/>
      <use xlink:href="#DejaVuSans-6e" x="176.509766"/>
      <use xlink:href="#DejaVuSans-20" x="239.888672"/>
      <use xlink:href="#DejaVuSans-53" x="271.675781"/>
      <use xlink:href="#DejaVuSans-74" x="335.152344"/>
      <use xlink:href="#DejaVuSans-65" x="374.361328"/>
      <use xlink:href="#DejaVuSans-70" x="435.884766"/>
     </g>
    </g>
   </g>
   <g id="matplotlib.axis_2">
    <g id="ytick_1">
     <g id="line2d_13">
      <path d="M 57.6 303.563774 
L 414.72 303.563774 
" clip-path="url(#p4260496b24)" style="fill: none; stroke: #b0b0b0; stroke-width: 0.8; stroke-linecap: square"/>
     </g>
     <g id="line2d_14">
      <defs>
       <path id="m4c8fb669f9" d="M 0 0 
L -3.5 0 
" style="stroke: #000000; stroke-width: 0.8"/>
      </defs>
      <g>
       <use xlink:href="#m4c8fb669f9" x="57.6" y="303.563774" style="stroke: #000000; stroke-width: 0.8"/>
      </g>
     </g>
     <g id="text_8">
      <!-- 0.00 -->
      <g transform="translate(28.334375 307.362993) scale(0.1 -0.1)">
       <defs>
        <path id="DejaVuSans-2e" d="M 684 794 
L 1344 794 
L 1344 0 
L 684 0 
L 684 794 
z
" transform="scale(0.015625)"/>
       </defs>
       <use xlink:href="#DejaVuSans-30"/>
       <use xlink:href="#DejaVuSans-2e" x="63.623047"/>
       <use xlink:href="#DejaVuSans-30" x="95.410156"/>
       <use xlink:href="#DejaVuSans-30" x="159.033203"/>
      </g>
     </g>
    </g>
    <g id="ytick_2">
     <g id="line2d_15">
      <path d="M 57.6 244.761156 
L 414.72 244.761156 
" clip-path="url(#p4260496b24)" style="fill: none; stroke: #b0b0b0; stroke-width: 0.8; stroke-linecap: square"/>
     </g>
     <g id="line2d_16">
      <g>
       <use xlink:href="#m4c8fb669f9" x="57.6" y="244.761156" style="stroke: #000000; stroke-width: 0.8"/>
      </g>
     </g>
     <g id="text_9">
      <!-- 0.02 -->
      <g transform="translate(28.334375 248.560375) scale(0.1 -0.1)">
       <use xlink:href="#DejaVuSans-30"/>
       <use xlink:href="#DejaVuSans-2e" x="63.623047"/>
       <use xlink:href="#DejaVuSans-30" x="95.410156"/>
       <use xlink:href="#DejaVuSans-32" x="159.033203"/>
      </g>
     </g>
    </g>
    <g id="ytick_3">
     <g id="line2d_17">
      <path d="M 57.6 185.958537 
L 414.72 185.958537 
" clip-path="url(#p4260496b24)" style="fill: none; stroke: #b0b0b0; stroke-width: 0.8; stroke-linecap: square"/>
     </g>
     <g id="line2d_18">
      <g>
       <use xlink:href="#m4c8fb669f9" x="57.6" y="185.958537" style="stroke: #000000; stroke-width: 0.8"/>
      </g>
     </g>
     <g id="text_10">
      <!-- 0.04 -->
      <g transform="translate(28.334375 189.757756) scale(0.1 -0.1)">
       <use xlink:href="#DejaVuSans-30"/>
       <use xlink:href="#DejaVuSans-2e" x="63.623047"/>
       <use xlink:href="#DejaVuSans-30" x="95.410156"/>
       <use xlink:href="#DejaVuSans-34" x="159.033203"/>
      </g>
     </g>
    </g>
    <g id="ytick_4">
     <g id="line2d_19">
      <path d="M 57.6 127.155919 
L 414.72 127.155919 
" clip-path="url(#p4260496b24)" style="fill: none; stroke: #b0b0b0; stroke-width: 0.8; stroke-linecap: square"/>
     </g>
     <g id="line2d_20">
      <g>
       <use xlink:href="#m4c8fb669f9" x="57.6" y="127.155919" style="stroke: #000000; stroke-width: 0.8"/>
      </g>
     </g>
     <g id="text_11">
      <!-- 0.06 -->
      <g transform="translate(28.334375 130.955138) scale(0.1 -0.1)">
       <use xlink:href="#DejaVuSans-30"/>
       <use xlink:href="#DejaVuSans-2e" x="63.623047"/>
       <use xlink:href="#DejaVuSans-30" x="95.410156"/>
       <use xlink:href="#DejaVuSans-36" x="159.033203"/>
      </g>
     </g>
    </g>
    <g id="ytick_5">
     <g id="line2d_21">
      <path d="M 57.6 68.353301 
L 414.72 68.353301 
" clip-path="url(#p4260496b24)" style="fill: none; stroke: #b0b0b0; stroke-width: 0.8; stroke-linecap: square"/>
     </g>
     <g id="line2d_22">
      <g>
       <use xlink:href="#m4c8fb669f9" x="57.6" y="68.353301" style="stroke: #000000; stroke-width: 0.8"/>
      </g>
     </g>
     <g id="text_12">
      <!-- 0.08 -->
      <g transform="translate(28.334375 72.15252) scale(0.1 -0.1)">
       <use xlink:href="#DejaVuSans-30"/>
       <use xlink:href="#DejaVuSans-2e" x="63.623047"/>
       <use xlink:href="#DejaVuSans-30" x="95.410156"/>
       <use xlink:href="#DejaVuSans-38" x="159.033203"/>
      </g>
     </g>
    </g>
    <g id="text_13">
     <!-- Loss -->
     <g transform="translate(22.254688 185.495187) rotate(-90) scale(0.1 -0.1)">
      <defs>
       <path id="DejaVuSans-4c" d="M 628 4666 
L 1259 4666 
L 1259 531 
L 3531 531 
L 3531 0 
L 628 0 
L 628 4666 
z
" transform="scale(0.015625)"/>
       <path id="DejaVuSans-6f" d="M 1959 3097 
Q 1497 3097 1228 2736 
Q 959 2375 959 1747 
Q 959 1119 1226 758 
Q 1494 397 1959 397 
Q 2419 397 2687 759 
Q 2956 1122 2956 1747 
Q 2956 2369 2687 2733 
Q 2419 3097 1959 3097 
z
M 1959 3584 
Q 2709 3584 3137 3096 
Q 3566 2609 3566 1747 
Q 3566 888 3137 398 
Q 2709 -91 1959 -91 
Q 1206 -91 779 398 
Q 353 888 353 1747 
Q 353 2609 779 3096 
Q 1206 3584 1959 3584 
z
" transform="scale(0.015625)"/>
       <path id="DejaVuSans-73" d="M 2834 3397 
L 2834 2853 
Q 2591 2978 2328 3040 
Q 2066 3103 1784 3103 
Q 1356 3103 1142 2972 
Q 928 2841 928 2578 
Q 928 2378 1081 2264 
Q 1234 2150 1697 2047 
L 1894 2003 
Q 2506 1872 2764 1633 
Q 3022 1394 3022 966 
Q 3022 478 2636 193 
Q 2250 -91 1575 -91 
Q 1294 -91 989 -36 
Q 684 19 347 128 
L 347 722 
Q 666 556 975 473 
Q 1284 391 1588 391 
Q 1994 391 2212 530 
Q 2431 669 2431 922 
Q 2431 1156 2273 1281 
Q 2116 1406 1581 1522 
L 1381 1569 
Q 847 1681 609 1914 
Q 372 2147 372 2553 
Q 372 3047 722 3315 
Q 1072 3584 1716 3584 
Q 2034 3584 2315 3537 
Q 2597 3491 2834 3397 
z
" transform="scale(0.015625)"/>
      </defs>
      <use xlink:href="#DejaVuSans-4c"/>
      <use xlink:href="#DejaVuSans-6f" x="53.962891"/>
      <use xlink:href="#DejaVuSans-73" x="115.144531"/>
      <use xlink:href="#DejaVuSans-73" x="167.244141"/>
     </g>
    </g>
   </g>
   <g id="line2d_23">
    <path d="M 73.832727 64.515058 
L 74.157707 116.929376 
L 74.482686 67.116467 
L 74.807666 97.258183 
L 75.457625 53.568 
L 76.107584 83.800843 
L 76.432563 63.154255 
L 76.757543 133.012309 
L 77.082523 77.045809 
L 77.407502 89.743876 
L 77.732482 83.617032 
L 78.057461 115.530238 
L 78.382441 123.918526 
L 78.70742 59.570223 
L 79.0324 117.473425 
L 79.357379 154.077207 
L 79.682359 99.263932 
L 80.007338 110.029984 
L 80.332318 88.557552 
L 80.657297 139.077072 
L 80.982277 78.205912 
L 81.307256 113.108389 
L 81.632236 95.043124 
L 81.957215 102.563629 
L 82.282195 116.376871 
L 82.607174 137.349009 
L 82.932154 110.968489 
L 83.257133 135.553795 
L 83.582113 110.321373 
L 83.907093 140.909712 
L 84.232072 56.841651 
L 84.557052 101.656449 
L 84.882031 91.990173 
L 85.207011 86.336513 
L 85.53199 128.32918 
L 85.85697 113.316932 
L 86.181949 143.92354 
L 86.506929 131.470368 
L 86.831908 149.585929 
L 87.156888 150.316045 
L 87.481867 98.359053 
L 88.131826 197.414905 
L 88.456806 145.616148 
L 88.781785 155.727351 
L 89.106765 193.625934 
L 89.431744 176.081542 
L 90.081704 155.788906 
L 90.406683 177.042862 
L 91.056642 200.402457 
L 91.706601 177.905814 
L 92.031581 178.745514 
L 92.35656 158.226538 
L 92.68154 158.93592 
L 93.006519 215.587317 
L 93.656478 174.289285 
L 93.981458 200.195843 
L 94.306437 196.922411 
L 94.631417 172.950694 
L 94.956396 218.023361 
L 95.606355 223.599824 
L 95.931335 206.21938 
L 96.256314 231.254349 
L 96.581294 184.695524 
L 96.906274 203.683863 
L 97.231253 193.629603 
L 97.556233 203.139254 
L 97.881212 217.944204 
L 98.206192 208.692159 
L 98.531171 222.476841 
L 98.856151 202.436181 
L 99.18113 237.830676 
L 99.50611 176.662316 
L 99.831089 202.982957 
L 100.156069 208.871303 
L 100.481048 205.19093 
L 100.806028 218.693817 
L 101.131007 220.008098 
L 101.455987 234.790813 
L 101.780966 190.794942 
L 102.105946 220.673899 
L 102.430925 238.488169 
L 102.755905 207.499701 
L 103.080885 241.034332 
L 103.405864 208.421054 
L 104.055823 235.029465 
L 104.380803 209.828012 
L 104.705782 241.864426 
L 105.030762 220.748285 
L 105.355741 233.005938 
L 105.680721 235.682944 
L 106.0057 240.138762 
L 106.33068 236.822434 
L 106.655659 216.546956 
L 106.980639 221.64564 
L 107.305618 228.598668 
L 107.630598 258.812281 
L 107.955577 231.641127 
L 108.280557 243.287869 
L 108.605536 218.364887 
L 108.930516 227.906043 
L 109.255495 246.962377 
L 109.580475 228.162488 
L 109.905455 229.092828 
L 110.230434 248.019912 
L 110.555414 232.950024 
L 110.880393 243.639882 
L 111.205373 263.08454 
L 111.530352 226.696319 
L 111.855332 230.954635 
L 112.180311 243.593677 
L 112.505291 235.79923 
L 112.83027 233.524752 
L 113.15525 219.707678 
L 113.480229 252.589377 
L 113.805209 231.136595 
L 114.130188 223.238003 
L 114.455168 263.425634 
L 114.780147 201.003067 
L 115.430106 238.587446 
L 115.755086 252.377095 
L 116.080066 242.324101 
L 116.730025 261.072829 
L 117.055004 253.578846 
L 117.379984 227.577787 
L 117.704963 237.246665 
L 118.029943 256.088876 
L 118.354922 242.338821 
L 118.679902 252.740116 
L 119.004881 274.395561 
L 119.65484 239.480152 
L 119.97982 259.36731 
L 120.304799 239.220126 
L 120.629779 262.077796 
L 120.954758 258.572219 
L 121.279738 234.086414 
L 121.604717 261.860481 
L 121.929697 267.705292 
L 122.579656 244.179096 
L 122.904636 249.855964 
L 123.229615 257.856464 
L 123.554595 245.245492 
L 124.204554 203.176768 
L 124.529533 251.279149 
L 124.854513 260.077293 
L 125.179492 256.349192 
L 125.829451 235.662468 
L 126.47941 249.891933 
L 126.80439 246.946643 
L 127.129369 216.203475 
L 127.779328 257.038865 
L 128.104308 251.357325 
L 128.429287 240.335229 
L 128.754267 264.627883 
L 129.079247 240.715868 
L 129.404226 270.411526 
L 129.729206 263.068864 
L 130.054185 248.230442 
L 130.379165 242.129852 
L 130.704144 265.019423 
L 131.029124 271.23527 
L 131.354103 259.34403 
L 131.679083 266.276948 
L 132.004062 258.320158 
L 132.329042 262.858852 
L 132.654021 252.827443 
L 132.979001 259.64126 
L 133.62896 254.129259 
L 133.953939 256.683308 
L 134.278919 250.508064 
L 134.603898 267.042796 
L 134.928878 240.04109 
L 135.253857 266.093776 
L 135.578837 259.266747 
L 135.903817 223.477886 
L 136.228796 230.529178 
L 136.553776 257.601441 
L 136.878755 255.739781 
L 137.203735 251.538918 
L 137.528714 257.715211 
L 137.853694 243.487577 
L 138.178673 243.947679 
L 138.503653 267.369607 
L 138.828632 270.873555 
L 139.153612 222.016525 
L 139.478591 239.277426 
L 139.803571 223.596747 
L 140.12855 191.572528 
L 140.45353 203.209824 
L 140.778509 207.223339 
L 141.103489 231.976678 
L 141.428468 231.336074 
L 141.753448 245.499614 
L 142.078428 252.144051 
L 142.403407 228.342531 
L 142.728387 257.690726 
L 143.053366 254.665105 
L 143.378346 246.288273 
L 143.703325 254.120869 
L 144.028305 265.976194 
L 144.353284 246.327643 
L 144.678264 264.360623 
L 145.328223 267.59216 
L 145.653202 257.484815 
L 145.978182 254.660801 
L 146.303161 249.105098 
L 146.628141 272.866008 
L 146.95312 257.398912 
L 147.2781 272.911777 
L 147.603079 256.38699 
L 147.928059 266.979379 
L 148.253038 263.743003 
L 148.578018 265.116629 
L 149.227977 275.773494 
L 149.552957 256.622788 
L 149.877936 270.662326 
L 150.202916 256.11186 
L 150.527895 259.131173 
L 150.852875 266.149266 
L 151.177854 231.198084 
L 151.502834 275.682958 
L 151.827813 262.287688 
L 152.152793 264.005507 
L 152.477772 278.837705 
L 152.802752 260.726076 
L 153.127731 261.68026 
L 153.452711 273.437834 
L 154.10267 247.366942 
L 154.427649 261.183464 
L 154.752629 256.982069 
L 155.077609 272.940857 
L 156.052547 267.929124 
L 156.377527 268.101432 
L 156.702506 258.731657 
L 157.027486 269.231061 
L 157.352465 268.984058 
L 157.677445 271.334494 
L 158.002424 256.315402 
L 158.327404 265.674786 
L 158.652383 268.556596 
L 158.977363 266.650774 
L 159.302342 250.396498 
L 159.627322 256.817251 
L 159.952301 272.325932 
L 160.277281 249.720472 
L 160.60226 245.64429 
L 160.92724 263.51631 
L 161.252219 249.234117 
L 161.577199 265.627461 
L 161.902179 254.642465 
L 162.227158 256.951762 
L 162.552138 254.973154 
L 162.877117 274.18119 
L 163.202097 275.921741 
L 163.527076 272.514857 
L 163.852056 260.574806 
L 164.177035 255.836884 
L 164.502015 273.197619 
L 164.826994 272.146765 
L 165.151974 272.032965 
L 165.476953 254.452247 
L 165.801933 269.100492 
L 166.126912 269.5946 
L 166.451892 271.730111 
L 167.101851 259.551269 
L 167.42683 272.396235 
L 167.75181 271.890712 
L 168.07679 269.007089 
L 168.401769 260.33892 
L 168.726749 258.328978 
L 169.051728 266.806513 
L 169.376708 253.102584 
L 169.701687 257.194784 
L 170.026667 269.933396 
L 170.351646 275.486711 
L 170.676626 278.218138 
L 171.001605 265.778622 
L 171.326585 273.72821 
L 171.651564 269.709279 
L 171.976544 268.19444 
L 172.301523 257.035267 
L 172.626503 267.962936 
L 172.951482 273.727534 
L 173.276462 270.250464 
L 173.601441 273.783057 
L 173.926421 264.595742 
L 174.2514 273.897798 
L 174.57638 275.07234 
L 174.90136 271.335392 
L 175.226339 277.444049 
L 175.551319 264.119146 
L 175.876298 280.677559 
L 176.201278 272.015717 
L 176.526257 280.969203 
L 176.851237 268.325031 
L 177.176216 271.344086 
L 177.501196 268.022191 
L 177.826175 271.246529 
L 178.151155 262.098533 
L 178.476134 276.371886 
L 178.801114 244.056807 
L 179.126093 252.731151 
L 179.451073 276.557408 
L 179.776052 245.56767 
L 180.101032 233.91067 
L 180.426011 262.271651 
L 180.750991 256.942633 
L 181.075971 245.581541 
L 181.40095 247.695944 
L 181.72593 269.965452 
L 182.050909 261.901894 
L 182.375889 274.736189 
L 182.700868 266.303271 
L 183.025848 265.236116 
L 183.350827 265.536794 
L 183.675807 267.054704 
L 184.000786 269.173682 
L 184.325766 257.192648 
L 184.650745 280.732176 
L 185.300704 269.165727 
L 185.625684 277.139418 
L 185.950663 272.025701 
L 186.275643 273.790981 
L 186.600622 272.666031 
L 186.925602 284.007832 
L 187.250581 270.567486 
L 187.575561 267.379911 
L 187.900541 272.977346 
L 188.5505 268.475143 
L 188.875479 273.79859 
L 189.200459 258.224118 
L 189.525438 256.209823 
L 189.850418 275.065963 
L 190.175397 271.133507 
L 190.825356 279.478309 
L 191.150336 277.175956 
L 191.475315 251.180261 
L 191.800295 268.990427 
L 192.125274 277.088972 
L 192.450254 271.706935 
L 192.775233 256.186263 
L 193.100213 283.1995 
L 193.425192 275.69424 
L 193.750172 260.95545 
L 194.075152 276.544399 
L 194.400131 271.388817 
L 194.725111 270.43669 
L 195.05009 279.972113 
L 195.37507 256.758029 
L 195.700049 274.469731 
L 196.025029 271.725012 
L 196.350008 281.037475 
L 196.999967 268.475359 
L 197.324947 271.815833 
L 197.649926 277.647063 
L 197.974906 273.756994 
L 198.299885 276.759754 
L 198.624865 258.405341 
L 198.949844 283.251981 
L 199.274824 247.971271 
L 199.599803 269.168523 
L 199.924783 270.912424 
L 200.249762 274.709508 
L 200.574742 281.001988 
L 200.899722 285.023447 
L 201.224701 278.576332 
L 201.549681 264.677223 
L 201.87466 262.360763 
L 202.19964 278.857171 
L 202.524619 280.023101 
L 202.849599 285.489034 
L 203.174578 275.696222 
L 203.499558 274.303902 
L 203.824537 268.15765 
L 204.149517 264.620947 
L 204.799476 270.940383 
L 205.124455 265.526241 
L 205.449435 271.391372 
L 205.774414 265.548371 
L 206.099394 283.878852 
L 206.424373 270.243684 
L 206.749353 279.182859 
L 207.074333 279.857524 
L 207.399312 287.825841 
L 207.724292 272.658843 
L 208.049271 268.363103 
L 208.374251 278.917343 
L 208.69923 274.77844 
L 209.02421 279.82684 
L 209.349189 274.270986 
L 209.674169 278.897343 
L 209.999148 288.69311 
L 210.324128 281.679503 
L 210.649107 267.684753 
L 210.974087 276.693152 
L 211.299066 278.873554 
L 211.624046 265.462586 
L 211.949025 277.80052 
L 212.274005 274.209363 
L 212.598984 281.468706 
L 212.923964 276.493961 
L 213.248943 264.816727 
L 213.573923 273.465126 
L 213.898903 287.522369 
L 214.223882 282.881599 
L 214.548862 274.237044 
L 214.873841 270.543543 
L 215.198821 287.546023 
L 215.5238 244.134693 
L 216.173759 270.591757 
L 216.498739 275.289664 
L 216.823718 273.709442 
L 217.148698 268.053686 
L 217.473677 272.630881 
L 217.798657 273.9094 
L 218.123636 281.349012 
L 218.448616 281.710863 
L 218.773595 280.71872 
L 219.098575 282.97303 
L 219.423554 272.70619 
L 219.748534 281.293205 
L 220.073514 283.950914 
L 220.723473 273.825351 
L 221.048452 274.614344 
L 221.373432 286.496382 
L 221.698411 283.834509 
L 222.023391 284.67841 
L 222.34837 280.94879 
L 222.67335 273.820373 
L 222.998329 279.274436 
L 223.323309 271.438853 
L 223.973268 285.156277 
L 224.298247 278.470552 
L 224.623227 275.041585 
L 224.948206 281.049671 
L 225.273186 276.451259 
L 225.923145 279.843759 
L 226.248124 284.204675 
L 226.573104 274.831191 
L 226.898084 285.674323 
L 227.223063 282.354272 
L 227.548043 285.559855 
L 228.522981 267.960732 
L 228.847961 276.739009 
L 229.17294 277.598506 
L 229.49792 272.798054 
L 230.147879 287.328268 
L 230.472858 269.054143 
L 230.797838 269.185404 
L 231.122817 276.489923 
L 231.447797 286.753863 
L 231.772776 278.385342 
L 232.097756 279.627525 
L 232.422735 288.494457 
L 232.747715 271.719199 
L 233.072695 269.904573 
L 233.397674 269.770204 
L 233.722654 264.61569 
L 234.047633 279.966012 
L 234.372613 282.444107 
L 235.022572 280.734659 
L 235.347551 269.491679 
L 235.672531 285.56846 
L 235.99751 260.456286 
L 236.32249 278.323705 
L 236.647469 268.615665 
L 236.972449 274.843122 
L 237.297428 285.363597 
L 237.622408 273.721425 
L 237.947387 282.668107 
L 238.272367 283.205565 
L 238.597346 277.139171 
L 238.922326 281.333778 
L 239.247305 282.263591 
L 239.572285 270.246171 
L 239.897265 269.451284 
L 240.222244 283.141513 
L 240.547224 270.681163 
L 240.872203 282.761299 
L 241.197183 272.917396 
L 241.522162 286.877701 
L 241.847142 282.126556 
L 242.172121 279.921374 
L 242.497101 276.308935 
L 242.82208 278.141781 
L 243.14706 277.886988 
L 243.472039 273.032957 
L 243.797019 281.378979 
L 244.121998 274.883729 
L 244.446978 286.216479 
L 244.771957 289.097418 
L 245.421916 272.716732 
L 245.746896 290.083205 
L 246.071876 268.737288 
L 246.396855 288.876901 
L 246.721835 273.593693 
L 247.046814 287.123538 
L 247.371794 284.166479 
L 247.696773 275.879767 
L 248.021753 282.340954 
L 248.671712 279.460412 
L 248.996691 277.29089 
L 249.321671 270.142381 
L 249.64665 286.003258 
L 249.97163 289.925647 
L 250.296609 283.238291 
L 250.621589 282.92776 
L 250.946568 286.2926 
L 251.271548 276.537814 
L 251.596527 288.351689 
L 251.921507 282.018899 
L 252.246486 280.896805 
L 252.896446 290.063562 
L 253.221425 283.257035 
L 253.546405 282.341746 
L 253.871384 284.42822 
L 254.196364 287.305441 
L 254.521343 284.546021 
L 254.846323 284.267424 
L 255.171302 274.125012 
L 255.821261 280.50772 
L 256.47122 288.797396 
L 256.7962 284.5192 
L 257.121179 285.014958 
L 257.446159 253.410512 
L 257.771138 283.029036 
L 258.096118 264.011786 
L 258.421097 281.839016 
L 258.746077 271.28827 
L 259.071057 287.081475 
L 259.396036 279.560138 
L 259.721016 279.805794 
L 260.045995 285.116341 
L 260.370975 284.772572 
L 260.695954 274.781468 
L 261.020934 277.615855 
L 261.345913 279.414257 
L 261.670893 278.767475 
L 261.995872 260.24983 
L 262.320852 284.402277 
L 262.645831 275.130398 
L 262.970811 278.794614 
L 263.29579 276.005383 
L 263.62077 280.265531 
L 263.945749 287.786219 
L 264.270729 277.091395 
L 264.595708 271.643953 
L 264.920688 291.327531 
L 265.570647 278.227769 
L 265.895627 283.36339 
L 266.220606 286.500566 
L 266.545586 282.410871 
L 266.870565 285.389639 
L 267.195545 271.979282 
L 267.520524 284.747248 
L 267.845504 282.568825 
L 268.170483 281.702948 
L 268.495463 282.791397 
L 268.820442 271.254251 
L 269.145422 286.249063 
L 269.470401 285.749252 
L 269.795381 271.967357 
L 270.12036 289.882834 
L 270.44534 291.5526 
L 270.770319 287.96044 
L 271.095299 285.715392 
L 271.420278 279.252966 
L 271.745258 289.770478 
L 272.070238 283.588086 
L 272.395217 291.240222 
L 272.720197 290.838557 
L 273.045176 289.45714 
L 273.370156 283.886383 
L 273.695135 282.208545 
L 274.020115 289.114084 
L 274.345094 287.581852 
L 274.670074 287.242145 
L 274.995053 293.574181 
L 275.320033 291.922302 
L 275.969992 283.649498 
L 276.294971 287.377501 
L 276.619951 280.938741 
L 276.94493 278.048714 
L 277.26991 286.937586 
L 277.594889 290.892209 
L 278.244848 280.899382 
L 278.569828 284.315973 
L 278.894808 279.219729 
L 279.219787 290.491735 
L 279.544767 287.203807 
L 279.869746 287.617044 
L 280.519705 287.198291 
L 280.844685 286.646058 
L 281.169664 280.052345 
L 281.494644 287.992614 
L 281.819623 285.671967 
L 282.144603 287.782481 
L 282.469582 287.756104 
L 282.794562 277.076746 
L 283.444521 287.467961 
L 284.09448 278.775663 
L 284.419459 290.345064 
L 285.069419 283.369676 
L 285.394398 283.711677 
L 285.719378 282.812364 
L 286.044357 273.173208 
L 286.369337 268.574159 
L 286.694316 277.593041 
L 287.019296 279.179801 
L 287.344275 276.713763 
L 287.669255 275.810386 
L 287.994234 284.940434 
L 288.319214 276.353773 
L 288.644193 277.994824 
L 288.969173 280.388614 
L 289.294152 274.921714 
L 289.619132 272.305902 
L 289.944111 279.540532 
L 290.269091 290.82427 
L 290.59407 285.072647 
L 290.91905 269.763178 
L 291.244029 283.2834 
L 291.569009 262.926773 
L 291.893989 271.414959 
L 292.218968 283.051255 
L 292.543948 280.601416 
L 292.868927 289.829777 
L 293.193907 282.706023 
L 293.518886 287.4714 
L 293.843866 275.424364 
L 294.168845 277.22456 
L 294.493825 288.381177 
L 294.818804 285.981815 
L 295.143784 281.383705 
L 295.468763 281.476391 
L 295.793743 276.385923 
L 296.118722 285.805052 
L 296.443702 285.343782 
L 296.768681 289.620803 
L 297.093661 270.681535 
L 297.41864 282.487759 
L 297.74362 266.914984 
L 298.0686 282.960019 
L 298.393579 265.426124 
L 298.718559 288.171055 
L 299.043538 280.02157 
L 299.368518 287.011231 
L 299.693497 285.488958 
L 300.018477 272.215031 
L 300.343456 282.365912 
L 300.993415 291.234191 
L 301.318395 287.831195 
L 301.643374 288.457757 
L 301.968354 283.497083 
L 302.293333 291.078854 
L 302.618313 283.64848 
L 302.943292 272.104271 
L 303.268272 288.200787 
L 303.593251 272.951793 
L 303.918231 288.413535 
L 304.24321 283.648831 
L 304.56819 274.123824 
L 304.89317 291.524013 
L 305.218149 288.570631 
L 305.543129 273.924849 
L 305.868108 282.43634 
L 306.518067 291.13567 
L 306.843047 289.322026 
L 307.168026 288.208949 
L 307.493006 281.54779 
L 307.817985 291.609309 
L 308.142965 291.656967 
L 308.467944 281.266567 
L 308.792924 288.014813 
L 309.117903 280.889921 
L 309.442883 282.676037 
L 309.767862 289.288866 
L 310.092842 286.915434 
L 310.417821 286.843119 
L 310.742801 284.449953 
L 311.067781 288.883065 
L 311.39276 288.59821 
L 311.71774 290.16002 
L 312.042719 284.896265 
L 312.367699 290.078068 
L 312.692678 283.386041 
L 313.017658 293.024795 
L 313.342637 287.261756 
L 313.667617 290.400698 
L 313.992596 283.683947 
L 314.317576 290.310104 
L 314.642555 282.435952 
L 315.292514 294.023666 
L 315.617494 289.033313 
L 315.942473 286.930138 
L 316.267453 281.217085 
L 316.592432 291.316317 
L 317.242391 287.218066 
L 317.567371 291.305499 
L 317.892351 275.457239 
L 318.21733 283.155985 
L 318.54231 294.947839 
L 318.867289 285.413885 
L 319.192269 289.842743 
L 319.517248 286.422053 
L 320.167207 291.334768 
L 320.492187 288.66034 
L 320.817166 281.463799 
L 321.142146 293.280354 
L 321.467125 274.099342 
L 321.792105 293.378966 
L 322.442064 282.726754 
L 322.767043 291.310441 
L 323.092023 292.367468 
L 323.417002 282.949444 
L 323.741982 289.735213 
L 324.066962 281.071377 
L 324.391941 290.001746 
L 324.716921 288.392784 
L 325.0419 285.472134 
L 325.691859 287.932828 
L 326.016839 286.651722 
L 326.341818 288.360213 
L 326.666798 287.027444 
L 327.316757 291.489521 
L 327.641736 286.507595 
L 327.966716 288.581663 
L 328.291695 288.100072 
L 328.616675 288.709675 
L 329.266634 284.352933 
L 329.591613 283.877999 
L 329.916593 279.566168 
L 330.241572 289.474675 
L 330.566552 286.762039 
L 331.216511 291.874457 
L 331.541491 291.922689 
L 331.86647 288.717427 
L 332.516429 292.572273 
L 332.841409 292.037656 
L 333.166388 286.760358 
L 333.491368 287.61792 
L 333.816347 290.504992 
L 334.141327 288.314179 
L 334.466306 288.587789 
L 334.791286 292.574249 
L 335.116265 292.260623 
L 335.441245 288.919089 
L 335.766224 289.991616 
L 336.091204 290.27651 
L 336.416183 288.823505 
L 336.741163 291.318186 
L 337.066143 295.488 
L 337.716102 286.870435 
L 338.041081 290.043747 
L 338.366061 286.640179 
L 338.69104 292.378252 
L 339.01602 283.578323 
L 339.340999 289.169868 
L 339.665979 289.959492 
L 339.990958 290.426641 
L 340.315938 290.441601 
L 340.640917 293.631059 
L 340.965897 283.949039 
L 341.290876 285.064699 
L 341.615856 285.545189 
L 341.940835 288.207913 
L 342.265815 282.103544 
L 342.590794 291.395598 
L 342.915774 292.543255 
L 343.240753 277.895386 
L 343.565733 290.317574 
L 343.890713 277.826432 
L 344.215692 285.818309 
L 344.540672 290.543017 
L 344.865651 288.972359 
L 345.190631 289.422425 
L 345.51561 287.259391 
L 345.84059 283.037916 
L 346.165569 282.057445 
L 346.490549 284.049293 
L 346.815528 285.093314 
L 347.140508 291.326703 
L 347.465487 288.456978 
L 347.790467 281.065242 
L 348.115446 287.227568 
L 348.440426 288.506924 
L 348.765405 277.852122 
L 349.090385 287.331854 
L 349.415364 287.908587 
L 349.740344 280.204663 
L 350.065324 291.275656 
L 350.390303 285.477973 
L 350.715283 289.056821 
L 351.365242 279.603613 
L 351.690221 285.326598 
L 352.015201 249.284839 
L 352.34018 272.490287 
L 352.66516 214.15853 
L 352.990139 282.278829 
L 353.315119 261.827899 
L 353.640098 276.109544 
L 353.965078 277.909071 
L 354.290057 286.615726 
L 354.615037 254.675532 
L 354.940016 285.307123 
L 355.264996 276.413644 
L 355.589975 272.926172 
L 355.914955 289.918518 
L 356.239934 271.362468 
L 356.564914 285.934475 
L 356.889894 288.765408 
L 357.214873 290.414408 
L 357.539853 283.629637 
L 357.864832 282.947898 
L 358.189812 278.370276 
L 358.514791 288.692187 
L 358.839771 279.909884 
L 359.16475 284.844606 
L 359.48973 272.088488 
L 359.814709 273.382213 
L 360.139689 286.213713 
L 360.464668 288.562347 
L 360.789648 283.119342 
L 361.114627 290.059187 
L 361.439607 281.179621 
L 361.764586 283.075203 
L 362.089566 283.647511 
L 362.414545 264.980614 
L 362.739525 277.100059 
L 363.064505 275.625105 
L 363.389484 263.196429 
L 363.714464 286.523066 
L 364.039443 268.452133 
L 364.364423 266.980389 
L 364.689402 288.877924 
L 365.014382 284.295087 
L 365.339361 283.052039 
L 365.664341 287.386062 
L 365.98932 289.594883 
L 366.3143 282.732991 
L 366.639279 281.890154 
L 366.964259 285.767198 
L 367.289238 278.096006 
L 367.614218 285.298889 
L 367.939197 278.79917 
L 368.264177 281.435178 
L 368.589156 290.05395 
L 368.914136 280.217782 
L 369.239115 285.801663 
L 369.564095 284.309122 
L 369.889075 283.463376 
L 370.214054 279.541411 
L 370.539034 269.654443 
L 370.864013 292.701059 
L 371.188993 293.977837 
L 371.513972 284.284771 
L 371.838952 291.980909 
L 372.163931 273.280584 
L 372.488911 285.358078 
L 372.81389 269.67323 
L 373.13887 274.657123 
L 373.463849 288.414529 
L 373.788829 271.535117 
L 374.113808 275.832514 
L 374.438788 290.329208 
L 374.763767 252.622411 
L 375.088747 274.292807 
L 375.413726 287.229052 
L 375.738706 261.128609 
L 376.063686 280.738398 
L 376.388665 285.103709 
L 376.713645 263.726437 
L 377.038624 264.745774 
L 377.688583 295.296002 
L 378.013563 276.027833 
L 378.338542 276.768776 
L 378.663522 288.90276 
L 378.988501 273.768306 
L 379.313481 285.79689 
L 379.63846 284.260531 
L 379.96344 287.525234 
L 380.288419 287.263623 
L 380.613399 285.588435 
L 380.938378 289.522111 
L 381.588337 289.27152 
L 381.913317 288.548472 
L 382.238296 287.259861 
L 382.563276 288.995885 
L 382.888256 289.518741 
L 383.213235 281.368877 
L 383.538215 288.102897 
L 383.863194 287.908748 
L 384.188174 289.141277 
L 384.838133 286.970789 
L 385.163112 292.445857 
L 385.488092 286.589554 
L 385.813071 283.120465 
L 386.138051 293.884853 
L 386.46303 286.880307 
L 386.78801 283.074794 
L 387.112989 293.390905 
L 387.437969 281.163023 
L 387.762948 291.182782 
L 388.087928 290.00178 
L 388.412907 284.136992 
L 388.737887 290.806944 
L 389.062867 293.001949 
L 389.387846 280.324367 
L 389.712826 289.885117 
L 390.037805 289.462866 
L 390.687764 293.732054 
L 391.337723 284.883839 
L 391.662703 289.449994 
L 391.987682 285.241625 
L 392.312662 290.052548 
L 392.637641 285.45954 
L 393.2876 292.019065 
L 393.61258 283.464211 
L 393.937559 278.948427 
L 394.262539 286.102043 
L 394.587518 288.058731 
L 394.912498 291.64634 
L 395.237477 292.392578 
L 395.562457 287.530251 
L 395.887437 293.292027 
L 396.212416 287.906135 
L 396.537396 291.50029 
L 396.862375 289.978435 
L 397.187355 289.620061 
L 397.512334 278.694456 
L 397.837314 288.428265 
L 398.162293 287.847614 
L 398.487273 286.706634 
L 398.487273 286.706634 
" clip-path="url(#p4260496b24)" style="fill: none; stroke: #1f77b4; stroke-width: 1.5; stroke-linecap: square"/>
   </g>
   <g id="line2d_24">
    <path d="M 73.832727 82.203077 
L 77.082523 92.040103 
L 80.332318 89.220448 
L 83.582113 124.023277 
L 86.831908 141.247692 
L 90.081704 175.926838 
L 93.331499 188.547873 
L 96.581294 213.936452 
L 99.831089 226.159462 
L 103.080885 234.856103 
L 106.33068 242.655529 
L 109.580475 245.450311 
L 112.83027 250.978854 
L 116.080066 256.346101 
L 119.329861 241.586242 
L 122.579656 255.588435 
L 125.829451 255.014834 
L 129.079247 263.941461 
L 132.329042 262.658215 
L 135.578837 235.353094 
L 138.828632 223.33705 
L 142.078428 258.942364 
L 145.328223 263.689744 
L 148.578018 266.466253 
L 151.827813 268.172172 
L 155.077609 269.709545 
L 158.327404 268.612593 
L 161.577199 271.596595 
L 164.826994 271.066789 
L 168.07679 268.787383 
L 171.326585 273.074367 
L 174.57638 273.568545 
L 177.826175 266.676263 
L 181.075971 252.37554 
L 184.325766 275.332847 
L 187.575561 269.781067 
L 190.825356 276.017058 
L 194.075152 272.919127 
L 197.324947 270.692422 
L 200.574742 277.68209 
L 203.824537 275.811846 
L 207.074333 277.709101 
L 210.324128 270.680099 
L 213.573923 275.388514 
L 216.823718 270.877567 
L 220.073514 280.909452 
L 223.323309 282.320108 
L 226.573104 280.223518 
L 229.822899 283.921965 
L 233.072695 281.291888 
L 236.32249 274.196372 
L 239.572285 279.736865 
L 242.82208 283.801617 
L 246.071876 282.141441 
L 249.321671 281.693978 
L 252.571466 283.831212 
L 255.821261 285.413476 
L 259.071057 283.502516 
L 262.320852 283.500314 
L 265.570647 280.657562 
L 268.820442 285.238684 
L 272.070238 285.420218 
L 275.320033 286.300117 
L 278.569828 285.663859 
L 281.819623 282.678294 
L 285.069419 282.38627 
L 288.319214 280.276128 
L 291.569009 279.688507 
L 294.818804 287.651535 
L 298.0686 265.537501 
L 301.318395 289.5233 
L 304.56819 289.888066 
L 307.817985 288.934882 
L 311.067781 286.089977 
L 314.317576 287.848909 
L 317.567371 288.904077 
L 320.817166 287.995902 
L 324.066962 291.936829 
L 327.316757 293.183996 
L 330.566552 291.183157 
L 333.816347 292.426728 
L 337.066143 289.213322 
L 340.315938 286.836782 
L 343.565733 283.630274 
L 346.815528 293.08735 
L 350.065324 291.205251 
L 353.315119 264.688314 
L 356.564914 285.598722 
L 359.814709 283.587444 
L 363.064505 265.454203 
L 366.3143 281.485571 
L 369.564095 290.215992 
L 372.81389 278.741465 
L 376.063686 284.240345 
L 379.313481 284.81578 
L 382.563276 287.766492 
L 385.813071 288.97674 
L 389.062867 286.893595 
L 392.312662 287.000287 
L 395.562457 292.516201 
" clip-path="url(#p4260496b24)" style="fill: none; stroke: #ff7f0e; stroke-width: 1.5; stroke-linecap: square"/>
   </g>
   <g id="patch_3">
    <path d="M 57.6 307.584 
L 57.6 41.472 
" style="fill: none; stroke: #000000; stroke-width: 0.8; stroke-linejoin: miter; stroke-linecap: square"/>
   </g>
   <g id="patch_4">
    <path d="M 414.72 307.584 
L 414.72 41.472 
" style="fill: none; stroke: #000000; stroke-width: 0.8; stroke-linejoin: miter; stroke-linecap: square"/>
   </g>
   <g id="patch_5">
    <path d="M 57.6 307.584 
L 414.72 307.584 
" style="fill: none; stroke: #000000; stroke-width: 0.8; stroke-linejoin: miter; stroke-linecap: square"/>
   </g>
   <g id="patch_6">
    <path d="M 57.6 41.472 
L 414.72 41.472 
" style="fill: none; stroke: #000000; stroke-width: 0.8; stroke-linejoin: miter; stroke-linecap: square"/>
   </g>
   <g id="text_14">
    <!-- Train Loss vs Validation Loss -->
    <g transform="translate(151.513125 35.472) scale(0.12 -0.12)">
     <defs>
      <path id="DejaVuSans-76" d="M 191 3500 
L 800 3500 
L 1894 563 
L 2988 3500 
L 3597 3500 
L 2284 0 
L 1503 0 
L 191 3500 
z
" transform="scale(0.015625)"/>
      <path id="DejaVuSans-56" d="M 1831 0 
L 50 4666 
L 709 4666 
L 2188 738 
L 3669 4666 
L 4325 4666 
L 2547 0 
L 1831 0 
z
" transform="scale(0.015625)"/>
      <path id="DejaVuSans-6c" d="M 603 4863 
L 1178 4863 
L 1178 0 
L 603 0 
L 603 4863 
z
" transform="scale(0.015625)"/>
      <path id="DejaVuSans-64" d="M 2906 2969 
L 2906 4863 
L 3481 4863 
L 3481 0 
L 2906 0 
L 2906 525 
Q 2725 213 2448 61 
Q 2172 -91 1784 -91 
Q 1150 -91 751 415 
Q 353 922 353 1747 
Q 353 2572 751 3078 
Q 1150 3584 1784 3584 
Q 2172 3584 2448 3432 
Q 2725 3281 2906 2969 
z
M 947 1747 
Q 947 1113 1208 752 
Q 1469 391 1925 391 
Q 2381 391 2643 752 
Q 2906 1113 2906 1747 
Q 2906 2381 2643 2742 
Q 2381 3103 1925 3103 
Q 1469 3103 1208 2742 
Q 947 2381 947 1747 
z
" transform="scale(0.015625)"/>
     </defs>
     <use xlink:href="#DejaVuSans-54"/>
     <use xlink:href="#DejaVuSans-72" x="46.333984"/>
     <use xlink:href="#DejaVuSans-61" x="87.447266"/>
     <use xlink:href="#DejaVuSans-69" x="148.726562"/>
     <use xlink:href="#DejaVuSans-6e" x="176.509766"/>
     <use xlink:href="#DejaVuSans-20" x="239.888672"/>
     <use xlink:href="#DejaVuSans-4c" x="271.675781"/>
     <use xlink:href="#DejaVuSans-6f" x="325.638672"/>
     <use xlink:href="#DejaVuSans-73" x="386.820312"/>
     <use xlink:href="#DejaVuSans-73" x="438.919922"/>
     <use xlink:href="#DejaVuSans-20" x="491.019531"/>
     <use xlink:href="#DejaVuSans-76" x="522.806641"/>
     <use xlink:href="#DejaVuSans-73" x="581.986328"/>
     <use xlink:href="#DejaVuSans-20" x="634.085938"/>
     <use xlink:href="#DejaVuSans-56" x="665.873047"/>
     <use xlink:href="#DejaVuSans-61" x="726.53125"/>
     <use xlink:href="#DejaVuSans-6c" x="787.810547"/>
     <use xlink:href="#DejaVuSans-69" x="815.59375"/>
     <use xlink:href="#DejaVuSans-64" x="843.376953"/>
     <use xlink:href="#DejaVuSans-61" x="906.853516"/>
     <use xlink:href="#DejaVuSans-74" x="968.132812"/>
     <use xlink:href="#DejaVuSans-69" x="1007.341797"/>
     <use xlink:href="#DejaVuSans-6f" x="1035.125"/>
     <use xlink:href="#DejaVuSans-6e" x="1096.306641"/>
     <use xlink:href="#DejaVuSans-20" x="1159.685547"/>
     <use xlink:href="#DejaVuSans-4c" x="1191.472656"/>
     <use xlink:href="#DejaVuSans-6f" x="1245.435547"/>
     <use xlink:href="#DejaVuSans-73" x="1306.617188"/>
     <use xlink:href="#DejaVuSans-73" x="1358.716797"/>
    </g>
   </g>
   <g id="legend_1">
    <g id="patch_7">
     <path d="M 301.22625 78.82825 
L 407.72 78.82825 
Q 409.72 78.82825 409.72 76.82825 
L 409.72 48.472 
Q 409.72 46.472 407.72 46.472 
L 301.22625 46.472 
Q 299.22625 46.472 299.22625 48.472 
L 299.22625 76.82825 
Q 299.22625 78.82825 301.22625 78.82825 
z
" style="fill: #ffffff; opacity: 0.8; stroke: #cccccc; stroke-linejoin: miter"/>
    </g>
    <g id="line2d_25">
     <path d="M 303.22625 54.570437 
L 313.22625 54.570437 
L 323.22625 54.570437 
" style="fill: none; stroke: #1f77b4; stroke-width: 1.5; stroke-linecap: square"/>
    </g>
    <g id="text_15">
     <!-- Train Loss -->
     <g transform="translate(331.22625 58.070437) scale(0.1 -0.1)">
      <use xlink:href="#DejaVuSans-54"/>
      <use xlink:href="#DejaVuSans-72" x="46.333984"/>
      <use xlink:href="#DejaVuSans-61" x="87.447266"/>
      <use xlink:href="#DejaVuSans-69" x="148.726562"/>
      <use xlink:href="#DejaVuSans-6e" x="176.509766"/>
      <use xlink:href="#DejaVuSans-20" x="239.888672"/>
      <use xlink:href="#DejaVuSans-4c" x="271.675781"/>
      <use xlink:href="#DejaVuSans-6f" x="325.638672"/>
      <use xlink:href="#DejaVuSans-73" x="386.820312"/>
      <use xlink:href="#DejaVuSans-73" x="438.919922"/>
     </g>
    </g>
    <g id="line2d_26">
     <path d="M 303.22625 69.248562 
L 313.22625 69.248562 
L 323.22625 69.248562 
" style="fill: none; stroke: #ff7f0e; stroke-width: 1.5; stroke-linecap: square"/>
    </g>
    <g id="text_16">
     <!-- Validation Loss -->
     <g transform="translate(331.22625 72.748562) scale(0.1 -0.1)">
      <use xlink:href="#DejaVuSans-56"/>
      <use xlink:href="#DejaVuSans-61" x="60.658203"/>
      <use xlink:href="#DejaVuSans-6c" x="121.9375"/>
      <use xlink:href="#DejaVuSans-69" x="149.720703"/>
      <use xlink:href="#DejaVuSans-64" x="177.503906"/>
      <use xlink:href="#DejaVuSans-61" x="240.980469"/>
      <use xlink:href="#DejaVuSans-74" x="302.259766"/>
      <use xlink:href="#DejaVuSans-69" x="341.46875"/>
      <use xlink:href="#DejaVuSans-6f" x="369.251953"/>
      <use xlink:href="#DejaVuSans-6e" x="430.433594"/>
      <use xlink:href="#DejaVuSans-20" x="493.8125"/>
      <use xlink:href="#DejaVuSans-4c" x="525.599609"/>
      <use xlink:href="#DejaVuSans-6f" x="579.5625"/>
      <use xlink:href="#DejaVuSans-73" x="640.744141"/>
      <use xlink:href="#DejaVuSans-73" x="692.84375"/>
     </g>
    </g>
   </g>
  </g>
 </g>
 <defs>
  <clipPath id="p4260496b24">
   <rect x="57.6" y="41.472" width="357.12" height="266.112"/>
  </clipPath>
 </defs>
</svg>
