<?xml version="1.0" encoding="utf-8" standalone="no"?>
<!DOCTYPE svg PUBLIC "-//W3C//DTD SVG 1.1//EN"
  "http://www.w3.org/Graphics/SVG/1.1/DTD/svg11.dtd">
<svg xmlns:xlink="http://www.w3.org/1999/xlink" width="460.8pt" height="345.6pt" viewBox="0 0 460.8 345.6" xmlns="http://www.w3.org/2000/svg" version="1.1">
 <metadata>
  <rdf:RDF xmlns:dc="http://purl.org/dc/elements/1.1/" xmlns:cc="http://creativecommons.org/ns#" xmlns:rdf="http://www.w3.org/1999/02/22-rdf-syntax-ns#">
   <cc:Work>
    <dc:type rdf:resource="http://purl.org/dc/dcmitype/StillImage"/>
    <dc:date>2023-11-15T06:27:20.028534</dc:date>
    <dc:format>image/svg+xml</dc:format>
    <dc:creator>
     <cc:Agent>
      <dc:title>Matplotlib v3.8.0, https://matplotlib.org/</dc:title>
     </cc:Agent>
    </dc:creator>
   </cc:Work>
  </rdf:RDF>
 </metadata>
 <defs>
  <style type="text/css">*{stroke-linejoin: round; stroke-linecap: butt}</style>
 </defs>
 <g id="figure_1">
  <g id="patch_1">
   <path d="M 0 345.6 
L 460.8 345.6 
L 460.8 0 
L 0 0 
z
" style="fill: #ffffff"/>
  </g>
  <g id="axes_1">
   <g id="patch_2">
    <path d="M 57.6 307.584 
L 414.72 307.584 
L 414.72 41.472 
L 57.6 41.472 
z
" style="fill: #ffffff"/>
   </g>
   <g id="matplotlib.axis_1">
    <g id="xtick_1">
     <g id="line2d_1">
      <path d="M 73.832727 307.584 
L 73.832727 41.472 
" clip-path="url(#pa95185f3f1)" style="fill: none; stroke: #b0b0b0; stroke-width: 0.8; stroke-linecap: square"/>
     </g>
     <g id="line2d_2">
      <defs>
       <path id="m49a1e13281" d="M 0 0 
L 0 3.5 
" style="stroke: #000000; stroke-width: 0.8"/>
      </defs>
      <g>
       <use xlink:href="#m49a1e13281" x="73.832727" y="307.584" style="stroke: #000000; stroke-width: 0.8"/>
      </g>
     </g>
     <g id="text_1">
      <!-- 0 -->
      <g transform="translate(70.651477 322.182437) scale(0.1 -0.1)">
       <defs>
        <path id="DejaVuSans-30" d="M 2034 4250 
Q 1547 4250 1301 3770 
Q 1056 3291 1056 2328 
Q 1056 1369 1301 889 
Q 1547 409 2034 409 
Q 2525 409 2770 889 
Q 3016 1369 3016 2328 
Q 3016 3291 2770 3770 
Q 2525 4250 2034 4250 
z
M 2034 4750 
Q 2819 4750 3233 4129 
Q 3647 3509 3647 2328 
Q 3647 1150 3233 529 
Q 2819 -91 2034 -91 
Q 1250 -91 836 529 
Q 422 1150 422 2328 
Q 422 3509 836 4129 
Q 1250 4750 2034 4750 
z
" transform="scale(0.015625)"/>
       </defs>
       <use xlink:href="#DejaVuSans-30"/>
      </g>
     </g>
    </g>
    <g id="xtick_2">
     <g id="line2d_3">
      <path d="M 138.828632 307.584 
L 138.828632 41.472 
" clip-path="url(#pa95185f3f1)" style="fill: none; stroke: #b0b0b0; stroke-width: 0.8; stroke-linecap: square"/>
     </g>
     <g id="line2d_4">
      <g>
       <use xlink:href="#m49a1e13281" x="138.828632" y="307.584" style="stroke: #000000; stroke-width: 0.8"/>
      </g>
     </g>
     <g id="text_2">
      <!-- 200 -->
      <g transform="translate(129.284882 322.182437) scale(0.1 -0.1)">
       <defs>
        <path id="DejaVuSans-32" d="M 1228 531 
L 3431 531 
L 3431 0 
L 469 0 
L 469 531 
Q 828 903 1448 1529 
Q 2069 2156 2228 2338 
Q 2531 2678 2651 2914 
Q 2772 3150 2772 3378 
Q 2772 3750 2511 3984 
Q 2250 4219 1831 4219 
Q 1534 4219 1204 4116 
Q 875 4013 500 3803 
L 500 4441 
Q 881 4594 1212 4672 
Q 1544 4750 1819 4750 
Q 2544 4750 2975 4387 
Q 3406 4025 3406 3419 
Q 3406 3131 3298 2873 
Q 3191 2616 2906 2266 
Q 2828 2175 2409 1742 
Q 1991 1309 1228 531 
z
" transform="scale(0.015625)"/>
       </defs>
       <use xlink:href="#DejaVuSans-32"/>
       <use xlink:href="#DejaVuSans-30" x="63.623047"/>
       <use xlink:href="#DejaVuSans-30" x="127.246094"/>
      </g>
     </g>
    </g>
    <g id="xtick_3">
     <g id="line2d_5">
      <path d="M 203.824537 307.584 
L 203.824537 41.472 
" clip-path="url(#pa95185f3f1)" style="fill: none; stroke: #b0b0b0; stroke-width: 0.8; stroke-linecap: square"/>
     </g>
     <g id="line2d_6">
      <g>
       <use xlink:href="#m49a1e13281" x="203.824537" y="307.584" style="stroke: #000000; stroke-width: 0.8"/>
      </g>
     </g>
     <g id="text_3">
      <!-- 400 -->
      <g transform="translate(194.280787 322.182437) scale(0.1 -0.1)">
       <defs>
        <path id="DejaVuSans-34" d="M 2419 4116 
L 825 1625 
L 2419 1625 
L 2419 4116 
z
M 2253 4666 
L 3047 4666 
L 3047 1625 
L 3713 1625 
L 3713 1100 
L 3047 1100 
L 3047 0 
L 2419 0 
L 2419 1100 
L 313 1100 
L 313 1709 
L 2253 4666 
z
" transform="scale(0.015625)"/>
       </defs>
       <use xlink:href="#DejaVuSans-34"/>
       <use xlink:href="#DejaVuSans-30" x="63.623047"/>
       <use xlink:href="#DejaVuSans-30" x="127.246094"/>
      </g>
     </g>
    </g>
    <g id="xtick_4">
     <g id="line2d_7">
      <path d="M 268.820442 307.584 
L 268.820442 41.472 
" clip-path="url(#pa95185f3f1)" style="fill: none; stroke: #b0b0b0; stroke-width: 0.8; stroke-linecap: square"/>
     </g>
     <g id="line2d_8">
      <g>
       <use xlink:href="#m49a1e13281" x="268.820442" y="307.584" style="stroke: #000000; stroke-width: 0.8"/>
      </g>
     </g>
     <g id="text_4">
      <!-- 600 -->
      <g transform="translate(259.276692 322.182437) scale(0.1 -0.1)">
       <defs>
        <path id="DejaVuSans-36" d="M 2113 2584 
Q 1688 2584 1439 2293 
Q 1191 2003 1191 1497 
Q 1191 994 1439 701 
Q 1688 409 2113 409 
Q 2538 409 2786 701 
Q 3034 994 3034 1497 
Q 3034 2003 2786 2293 
Q 2538 2584 2113 2584 
z
M 3366 4563 
L 3366 3988 
Q 3128 4100 2886 4159 
Q 2644 4219 2406 4219 
Q 1781 4219 1451 3797 
Q 1122 3375 1075 2522 
Q 1259 2794 1537 2939 
Q 1816 3084 2150 3084 
Q 2853 3084 3261 2657 
Q 3669 2231 3669 1497 
Q 3669 778 3244 343 
Q 2819 -91 2113 -91 
Q 1303 -91 875 529 
Q 447 1150 447 2328 
Q 447 3434 972 4092 
Q 1497 4750 2381 4750 
Q 2619 4750 2861 4703 
Q 3103 4656 3366 4563 
z
" transform="scale(0.015625)"/>
       </defs>
       <use xlink:href="#DejaVuSans-36"/>
       <use xlink:href="#DejaVuSans-30" x="63.623047"/>
       <use xlink:href="#DejaVuSans-30" x="127.246094"/>
      </g>
     </g>
    </g>
    <g id="xtick_5">
     <g id="line2d_9">
      <path d="M 333.816347 307.584 
L 333.816347 41.472 
" clip-path="url(#pa95185f3f1)" style="fill: none; stroke: #b0b0b0; stroke-width: 0.8; stroke-linecap: square"/>
     </g>
     <g id="line2d_10">
      <g>
       <use xlink:href="#m49a1e13281" x="333.816347" y="307.584" style="stroke: #000000; stroke-width: 0.8"/>
      </g>
     </g>
     <g id="text_5">
      <!-- 800 -->
      <g transform="translate(324.272597 322.182437) scale(0.1 -0.1)">
       <defs>
        <path id="DejaVuSans-38" d="M 2034 2216 
Q 1584 2216 1326 1975 
Q 1069 1734 1069 1313 
Q 1069 891 1326 650 
Q 1584 409 2034 409 
Q 2484 409 2743 651 
Q 3003 894 3003 1313 
Q 3003 1734 2745 1975 
Q 2488 2216 2034 2216 
z
M 1403 2484 
Q 997 2584 770 2862 
Q 544 3141 544 3541 
Q 544 4100 942 4425 
Q 1341 4750 2034 4750 
Q 2731 4750 3128 4425 
Q 3525 4100 3525 3541 
Q 3525 3141 3298 2862 
Q 3072 2584 2669 2484 
Q 3125 2378 3379 2068 
Q 3634 1759 3634 1313 
Q 3634 634 3220 271 
Q 2806 -91 2034 -91 
Q 1263 -91 848 271 
Q 434 634 434 1313 
Q 434 1759 690 2068 
Q 947 2378 1403 2484 
z
M 1172 3481 
Q 1172 3119 1398 2916 
Q 1625 2713 2034 2713 
Q 2441 2713 2670 2916 
Q 2900 3119 2900 3481 
Q 2900 3844 2670 4047 
Q 2441 4250 2034 4250 
Q 1625 4250 1398 4047 
Q 1172 3844 1172 3481 
z
" transform="scale(0.015625)"/>
       </defs>
       <use xlink:href="#DejaVuSans-38"/>
       <use xlink:href="#DejaVuSans-30" x="63.623047"/>
       <use xlink:href="#DejaVuSans-30" x="127.246094"/>
      </g>
     </g>
    </g>
    <g id="xtick_6">
     <g id="line2d_11">
      <path d="M 398.812252 307.584 
L 398.812252 41.472 
" clip-path="url(#pa95185f3f1)" style="fill: none; stroke: #b0b0b0; stroke-width: 0.8; stroke-linecap: square"/>
     </g>
     <g id="line2d_12">
      <g>
       <use xlink:href="#m49a1e13281" x="398.812252" y="307.584" style="stroke: #000000; stroke-width: 0.8"/>
      </g>
     </g>
     <g id="text_6">
      <!-- 1000 -->
      <g transform="translate(386.087252 322.182437) scale(0.1 -0.1)">
       <defs>
        <path id="DejaVuSans-31" d="M 794 531 
L 1825 531 
L 1825 4091 
L 703 3866 
L 703 4441 
L 1819 4666 
L 2450 4666 
L 2450 531 
L 3481 531 
L 3481 0 
L 794 0 
L 794 531 
z
" transform="scale(0.015625)"/>
       </defs>
       <use xlink:href="#DejaVuSans-31"/>
       <use xlink:href="#DejaVuSans-30" x="63.623047"/>
       <use xlink:href="#DejaVuSans-30" x="127.246094"/>
       <use xlink:href="#DejaVuSans-30" x="190.869141"/>
      </g>
     </g>
    </g>
    <g id="text_7">
     <!-- Train Step -->
     <g transform="translate(211.192031 335.860562) scale(0.1 -0.1)">
      <defs>
       <path id="DejaVuSans-54" d="M -19 4666 
L 3928 4666 
L 3928 4134 
L 2272 4134 
L 2272 0 
L 1638 0 
L 1638 4134 
L -19 4134 
L -19 4666 
z
" transform="scale(0.015625)"/>
       <path id="DejaVuSans-72" d="M 2631 2963 
Q 2534 3019 2420 3045 
Q 2306 3072 2169 3072 
Q 1681 3072 1420 2755 
Q 1159 2438 1159 1844 
L 1159 0 
L 581 0 
L 581 3500 
L 1159 3500 
L 1159 2956 
Q 1341 3275 1631 3429 
Q 1922 3584 2338 3584 
Q 2397 3584 2469 3576 
Q 2541 3569 2628 3553 
L 2631 2963 
z
" transform="scale(0.015625)"/>
       <path id="DejaVuSans-61" d="M 2194 1759 
Q 1497 1759 1228 1600 
Q 959 1441 959 1056 
Q 959 750 1161 570 
Q 1363 391 1709 391 
Q 2188 391 2477 730 
Q 2766 1069 2766 1631 
L 2766 1759 
L 2194 1759 
z
M 3341 1997 
L 3341 0 
L 2766 0 
L 2766 531 
Q 2569 213 2275 61 
Q 1981 -91 1556 -91 
Q 1019 -91 701 211 
Q 384 513 384 1019 
Q 384 1609 779 1909 
Q 1175 2209 1959 2209 
L 2766 2209 
L 2766 2266 
Q 2766 2663 2505 2880 
Q 2244 3097 1772 3097 
Q 1472 3097 1187 3025 
Q 903 2953 641 2809 
L 641 3341 
Q 956 3463 1253 3523 
Q 1550 3584 1831 3584 
Q 2591 3584 2966 3190 
Q 3341 2797 3341 1997 
z
" transform="scale(0.015625)"/>
       <path id="DejaVuSans-69" d="M 603 3500 
L 1178 3500 
L 1178 0 
L 603 0 
L 603 3500 
z
M 603 4863 
L 1178 4863 
L 1178 4134 
L 603 4134 
L 603 4863 
z
" transform="scale(0.015625)"/>
       <path id="DejaVuSans-6e" d="M 3513 2113 
L 3513 0 
L 2938 0 
L 2938 2094 
Q 2938 2591 2744 2837 
Q 2550 3084 2163 3084 
Q 1697 3084 1428 2787 
Q 1159 2491 1159 1978 
L 1159 0 
L 581 0 
L 581 3500 
L 1159 3500 
L 1159 2956 
Q 1366 3272 1645 3428 
Q 1925 3584 2291 3584 
Q 2894 3584 3203 3211 
Q 3513 2838 3513 2113 
z
" transform="scale(0.015625)"/>
       <path id="DejaVuSans-20" transform="scale(0.015625)"/>
       <path id="DejaVuSans-53" d="M 3425 4513 
L 3425 3897 
Q 3066 4069 2747 4153 
Q 2428 4238 2131 4238 
Q 1616 4238 1336 4038 
Q 1056 3838 1056 3469 
Q 1056 3159 1242 3001 
Q 1428 2844 1947 2747 
L 2328 2669 
Q 3034 2534 3370 2195 
Q 3706 1856 3706 1288 
Q 3706 609 3251 259 
Q 2797 -91 1919 -91 
Q 1588 -91 1214 -16 
Q 841 59 441 206 
L 441 856 
Q 825 641 1194 531 
Q 1563 422 1919 422 
Q 2459 422 2753 634 
Q 3047 847 3047 1241 
Q 3047 1584 2836 1778 
Q 2625 1972 2144 2069 
L 1759 2144 
Q 1053 2284 737 2584 
Q 422 2884 422 3419 
Q 422 4038 858 4394 
Q 1294 4750 2059 4750 
Q 2388 4750 2728 4690 
Q 3069 4631 3425 4513 
z
" transform="scale(0.015625)"/>
       <path id="DejaVuSans-74" d="M 1172 4494 
L 1172 3500 
L 2356 3500 
L 2356 3053 
L 1172 3053 
L 1172 1153 
Q 1172 725 1289 603 
Q 1406 481 1766 481 
L 2356 481 
L 2356 0 
L 1766 0 
Q 1100 0 847 248 
Q 594 497 594 1153 
L 594 3053 
L 172 3053 
L 172 3500 
L 594 3500 
L 594 4494 
L 1172 4494 
z
" transform="scale(0.015625)"/>
       <path id="DejaVuSans-65" d="M 3597 1894 
L 3597 1613 
L 953 1613 
Q 991 1019 1311 708 
Q 1631 397 2203 397 
Q 2534 397 2845 478 
Q 3156 559 3463 722 
L 3463 178 
Q 3153 47 2828 -22 
Q 2503 -91 2169 -91 
Q 1331 -91 842 396 
Q 353 884 353 1716 
Q 353 2575 817 3079 
Q 1281 3584 2069 3584 
Q 2775 3584 3186 3129 
Q 3597 2675 3597 1894 
z
M 3022 2063 
Q 3016 2534 2758 2815 
Q 2500 3097 2075 3097 
Q 1594 3097 1305 2825 
Q 1016 2553 972 2059 
L 3022 2063 
z
" transform="scale(0.015625)"/>
       <path id="DejaVuSans-70" d="M 1159 525 
L 1159 -1331 
L 581 -1331 
L 581 3500 
L 1159 3500 
L 1159 2969 
Q 1341 3281 1617 3432 
Q 1894 3584 2278 3584 
Q 2916 3584 3314 3078 
Q 3713 2572 3713 1747 
Q 3713 922 3314 415 
Q 2916 -91 2278 -91 
Q 1894 -91 1617 61 
Q 1341 213 1159 525 
z
M 3116 1747 
Q 3116 2381 2855 2742 
Q 2594 3103 2138 3103 
Q 1681 3103 1420 2742 
Q 1159 2381 1159 1747 
Q 1159 1113 1420 752 
Q 1681 391 2138 391 
Q 2594 391 2855 752 
Q 3116 1113 3116 1747 
z
" transform="scale(0.015625)"/>
      </defs>
      <use xlink:href="#DejaVuSans-54"/>
      <use xlink:href="#DejaVuSans-72" x="46.333984"/>
      <use xlink:href="#DejaVuSans-61" x="87.447266"/>
      <use xlink:href="#DejaVuSans-69" x="148.726562"/>
      <use xlink:href="#DejaVuSans-6e" x="176.509766"/>
      <use xlink:href="#DejaVuSans-20" x="239.888672"/>
      <use xlink:href="#DejaVuSans-53" x="271.675781"/>
      <use xlink:href="#DejaVuSans-74" x="335.152344"/>
      <use xlink:href="#DejaVuSans-65" x="374.361328"/>
      <use xlink:href="#DejaVuSans-70" x="435.884766"/>
     </g>
    </g>
   </g>
   <g id="matplotlib.axis_2">
    <g id="ytick_1">
     <g id="line2d_13">
      <path d="M 57.6 301.265603 
L 414.72 301.265603 
" clip-path="url(#pa95185f3f1)" style="fill: none; stroke: #b0b0b0; stroke-width: 0.8; stroke-linecap: square"/>
     </g>
     <g id="line2d_14">
      <defs>
       <path id="m6967344a6b" d="M 0 0 
L -3.5 0 
" style="stroke: #000000; stroke-width: 0.8"/>
      </defs>
      <g>
       <use xlink:href="#m6967344a6b" x="57.6" y="301.265603" style="stroke: #000000; stroke-width: 0.8"/>
      </g>
     </g>
     <g id="text_8">
      <!-- 0.00 -->
      <g transform="translate(28.334375 305.064821) scale(0.1 -0.1)">
       <defs>
        <path id="DejaVuSans-2e" d="M 684 794 
L 1344 794 
L 1344 0 
L 684 0 
L 684 794 
z
" transform="scale(0.015625)"/>
       </defs>
       <use xlink:href="#DejaVuSans-30"/>
       <use xlink:href="#DejaVuSans-2e" x="63.623047"/>
       <use xlink:href="#DejaVuSans-30" x="95.410156"/>
       <use xlink:href="#DejaVuSans-30" x="159.033203"/>
      </g>
     </g>
    </g>
    <g id="ytick_2">
     <g id="line2d_15">
      <path d="M 57.6 250.949499 
L 414.72 250.949499 
" clip-path="url(#pa95185f3f1)" style="fill: none; stroke: #b0b0b0; stroke-width: 0.8; stroke-linecap: square"/>
     </g>
     <g id="line2d_16">
      <g>
       <use xlink:href="#m6967344a6b" x="57.6" y="250.949499" style="stroke: #000000; stroke-width: 0.8"/>
      </g>
     </g>
     <g id="text_9">
      <!-- 0.02 -->
      <g transform="translate(28.334375 254.748718) scale(0.1 -0.1)">
       <use xlink:href="#DejaVuSans-30"/>
       <use xlink:href="#DejaVuSans-2e" x="63.623047"/>
       <use xlink:href="#DejaVuSans-30" x="95.410156"/>
       <use xlink:href="#DejaVuSans-32" x="159.033203"/>
      </g>
     </g>
    </g>
    <g id="ytick_3">
     <g id="line2d_17">
      <path d="M 57.6 200.633395 
L 414.72 200.633395 
" clip-path="url(#pa95185f3f1)" style="fill: none; stroke: #b0b0b0; stroke-width: 0.8; stroke-linecap: square"/>
     </g>
     <g id="line2d_18">
      <g>
       <use xlink:href="#m6967344a6b" x="57.6" y="200.633395" style="stroke: #000000; stroke-width: 0.8"/>
      </g>
     </g>
     <g id="text_10">
      <!-- 0.04 -->
      <g transform="translate(28.334375 204.432614) scale(0.1 -0.1)">
       <use xlink:href="#DejaVuSans-30"/>
       <use xlink:href="#DejaVuSans-2e" x="63.623047"/>
       <use xlink:href="#DejaVuSans-30" x="95.410156"/>
       <use xlink:href="#DejaVuSans-34" x="159.033203"/>
      </g>
     </g>
    </g>
    <g id="ytick_4">
     <g id="line2d_19">
      <path d="M 57.6 150.317292 
L 414.72 150.317292 
" clip-path="url(#pa95185f3f1)" style="fill: none; stroke: #b0b0b0; stroke-width: 0.8; stroke-linecap: square"/>
     </g>
     <g id="line2d_20">
      <g>
       <use xlink:href="#m6967344a6b" x="57.6" y="150.317292" style="stroke: #000000; stroke-width: 0.8"/>
      </g>
     </g>
     <g id="text_11">
      <!-- 0.06 -->
      <g transform="translate(28.334375 154.116511) scale(0.1 -0.1)">
       <use xlink:href="#DejaVuSans-30"/>
       <use xlink:href="#DejaVuSans-2e" x="63.623047"/>
       <use xlink:href="#DejaVuSans-30" x="95.410156"/>
       <use xlink:href="#DejaVuSans-36" x="159.033203"/>
      </g>
     </g>
    </g>
    <g id="ytick_5">
     <g id="line2d_21">
      <path d="M 57.6 100.001188 
L 414.72 100.001188 
" clip-path="url(#pa95185f3f1)" style="fill: none; stroke: #b0b0b0; stroke-width: 0.8; stroke-linecap: square"/>
     </g>
     <g id="line2d_22">
      <g>
       <use xlink:href="#m6967344a6b" x="57.6" y="100.001188" style="stroke: #000000; stroke-width: 0.8"/>
      </g>
     </g>
     <g id="text_12">
      <!-- 0.08 -->
      <g transform="translate(28.334375 103.800407) scale(0.1 -0.1)">
       <use xlink:href="#DejaVuSans-30"/>
       <use xlink:href="#DejaVuSans-2e" x="63.623047"/>
       <use xlink:href="#DejaVuSans-30" x="95.410156"/>
       <use xlink:href="#DejaVuSans-38" x="159.033203"/>
      </g>
     </g>
    </g>
    <g id="ytick_6">
     <g id="line2d_23">
      <path d="M 57.6 49.685085 
L 414.72 49.685085 
" clip-path="url(#pa95185f3f1)" style="fill: none; stroke: #b0b0b0; stroke-width: 0.8; stroke-linecap: square"/>
     </g>
     <g id="line2d_24">
      <g>
       <use xlink:href="#m6967344a6b" x="57.6" y="49.685085" style="stroke: #000000; stroke-width: 0.8"/>
      </g>
     </g>
     <g id="text_13">
      <!-- 0.10 -->
      <g transform="translate(28.334375 53.484303) scale(0.1 -0.1)">
       <use xlink:href="#DejaVuSans-30"/>
       <use xlink:href="#DejaVuSans-2e" x="63.623047"/>
       <use xlink:href="#DejaVuSans-31" x="95.410156"/>
       <use xlink:href="#DejaVuSans-30" x="159.033203"/>
      </g>
     </g>
    </g>
    <g id="text_14">
     <!-- Loss -->
     <g transform="translate(22.254688 185.495187) rotate(-90) scale(0.1 -0.1)">
      <defs>
       <path id="DejaVuSans-4c" d="M 628 4666 
L 1259 4666 
L 1259 531 
L 3531 531 
L 3531 0 
L 628 0 
L 628 4666 
z
" transform="scale(0.015625)"/>
       <path id="DejaVuSans-6f" d="M 1959 3097 
Q 1497 3097 1228 2736 
Q 959 2375 959 1747 
Q 959 1119 1226 758 
Q 1494 397 1959 397 
Q 2419 397 2687 759 
Q 2956 1122 2956 1747 
Q 2956 2369 2687 2733 
Q 2419 3097 1959 3097 
z
M 1959 3584 
Q 2709 3584 3137 3096 
Q 3566 2609 3566 1747 
Q 3566 888 3137 398 
Q 2709 -91 1959 -91 
Q 1206 -91 779 398 
Q 353 888 353 1747 
Q 353 2609 779 3096 
Q 1206 3584 1959 3584 
z
" transform="scale(0.015625)"/>
       <path id="DejaVuSans-73" d="M 2834 3397 
L 2834 2853 
Q 2591 2978 2328 3040 
Q 2066 3103 1784 3103 
Q 1356 3103 1142 2972 
Q 928 2841 928 2578 
Q 928 2378 1081 2264 
Q 1234 2150 1697 2047 
L 1894 2003 
Q 2506 1872 2764 1633 
Q 3022 1394 3022 966 
Q 3022 478 2636 193 
Q 2250 -91 1575 -91 
Q 1294 -91 989 -36 
Q 684 19 347 128 
L 347 722 
Q 666 556 975 473 
Q 1284 391 1588 391 
Q 1994 391 2212 530 
Q 2431 669 2431 922 
Q 2431 1156 2273 1281 
Q 2116 1406 1581 1522 
L 1381 1569 
Q 847 1681 609 1914 
Q 372 2147 372 2553 
Q 372 3047 722 3315 
Q 1072 3584 1716 3584 
Q 2034 3584 2315 3537 
Q 2597 3491 2834 3397 
z
" transform="scale(0.015625)"/>
      </defs>
      <use xlink:href="#DejaVuSans-4c"/>
      <use xlink:href="#DejaVuSans-6f" x="53.962891"/>
      <use xlink:href="#DejaVuSans-73" x="115.144531"/>
      <use xlink:href="#DejaVuSans-73" x="167.244141"/>
     </g>
    </g>
   </g>
   <g id="line2d_25">
    <path d="M 73.832727 53.568 
L 74.157707 70.738802 
L 74.482686 117.380786 
L 74.807666 135.276108 
L 75.132645 111.174934 
L 75.457625 135.808218 
L 75.782604 138.185865 
L 76.107584 131.488371 
L 76.432563 94.757669 
L 76.757543 137.250641 
L 77.082523 87.205102 
L 77.407502 66.572432 
L 77.732482 120.159296 
L 78.057461 78.462634 
L 78.382441 124.901469 
L 78.70742 97.529038 
L 79.0324 127.588451 
L 79.357379 96.226653 
L 79.682359 137.649893 
L 80.007338 102.663901 
L 80.332318 154.86898 
L 80.982277 105.18078 
L 81.307256 149.415464 
L 81.632236 135.58758 
L 81.957215 162.610291 
L 82.282195 127.645284 
L 82.607174 130.507918 
L 82.932154 98.441993 
L 83.257133 118.507669 
L 83.582113 153.874234 
L 83.907093 121.050377 
L 84.232072 150.762508 
L 84.557052 134.507914 
L 84.882031 144.413375 
L 85.207011 150.620867 
L 85.53199 125.213354 
L 85.85697 170.135716 
L 86.181949 134.905535 
L 86.506929 164.906382 
L 86.831908 138.821893 
L 87.156888 131.530209 
L 87.481867 151.556662 
L 87.806847 131.743368 
L 88.131826 140.854178 
L 88.456806 164.745453 
L 88.781785 180.369586 
L 89.106765 152.990847 
L 89.431744 189.634361 
L 89.756724 190.257447 
L 90.081704 183.984913 
L 90.406683 156.362593 
L 90.731663 203.677382 
L 91.056642 173.557659 
L 91.381622 195.609528 
L 91.706601 192.96382 
L 92.35656 171.565468 
L 92.68154 179.289348 
L 93.006519 180.286924 
L 93.331499 186.025942 
L 93.656478 198.687496 
L 93.981458 200.826172 
L 94.306437 214.632014 
L 94.631417 219.331112 
L 94.956396 189.157021 
L 95.281376 221.517764 
L 95.606355 203.916315 
L 95.931335 210.234116 
L 96.256314 193.996251 
L 96.581294 224.804674 
L 96.906274 207.663198 
L 97.231253 218.562506 
L 97.556233 202.664098 
L 97.881212 224.932439 
L 98.206192 192.710042 
L 98.531171 212.880367 
L 98.856151 224.329433 
L 99.18113 214.902605 
L 99.50611 225.04713 
L 99.831089 201.665772 
L 100.156069 207.452044 
L 100.481048 234.194159 
L 100.806028 193.885192 
L 101.131007 236.254499 
L 101.455987 240.915158 
L 101.780966 216.162103 
L 102.105946 226.040991 
L 102.430925 228.804018 
L 103.405864 241.900906 
L 103.730844 243.643912 
L 104.055823 252.696034 
L 104.380803 235.165704 
L 104.705782 234.082444 
L 105.030762 237.489401 
L 105.355741 255.331385 
L 105.680721 234.379661 
L 106.0057 250.73457 
L 106.33068 254.112393 
L 106.655659 242.248855 
L 106.980639 239.312088 
L 107.305618 238.208508 
L 107.630598 247.116698 
L 107.955577 242.630047 
L 108.280557 258.883399 
L 108.605536 224.142272 
L 108.930516 241.200721 
L 109.255495 239.752825 
L 109.580475 243.66111 
L 109.905455 233.449592 
L 110.230434 251.778922 
L 110.555414 239.805313 
L 110.880393 250.207796 
L 111.205373 243.400237 
L 111.855332 269.622781 
L 112.180311 244.180394 
L 112.505291 242.127177 
L 113.15525 270.544265 
L 113.480229 261.451318 
L 114.130188 250.320262 
L 114.455168 248.270208 
L 114.780147 258.851211 
L 115.105127 248.385883 
L 115.430106 243.428695 
L 115.755086 256.375325 
L 116.080066 251.634114 
L 116.405045 260.615017 
L 116.730025 260.113352 
L 117.055004 256.936279 
L 117.379984 238.158841 
L 117.704963 260.048197 
L 118.029943 256.047227 
L 118.354922 256.920993 
L 118.679902 264.408445 
L 119.004881 261.02529 
L 119.329861 246.98293 
L 119.65484 267.980779 
L 119.97982 270.264105 
L 120.304799 257.463605 
L 120.629779 273.19673 
L 120.954758 244.294242 
L 121.279738 268.40904 
L 121.604717 265.291634 
L 121.929697 266.876551 
L 122.254676 270.550186 
L 122.579656 266.01032 
L 122.904636 263.226805 
L 123.229615 262.665055 
L 123.554595 272.423543 
L 124.204554 236.894056 
L 124.854513 272.77316 
L 125.179492 258.110777 
L 125.504472 266.25966 
L 125.829451 257.757833 
L 126.47941 269.990704 
L 126.80439 255.031497 
L 127.129369 228.211359 
L 127.454349 259.765787 
L 127.779328 253.803432 
L 128.104308 264.038827 
L 128.429287 248.393488 
L 128.754267 269.882967 
L 129.404226 252.013421 
L 129.729206 270.364464 
L 130.054185 265.160111 
L 130.379165 262.300907 
L 130.704144 261.035098 
L 131.029124 267.66474 
L 131.354103 270.066757 
L 131.679083 256.446005 
L 132.329042 279.597065 
L 132.654021 263.966756 
L 132.979001 279.024476 
L 133.30398 277.386398 
L 133.62896 256.28317 
L 134.278919 280.454795 
L 135.253857 249.301345 
L 135.578837 270.861167 
L 135.903817 264.865651 
L 136.228796 267.718236 
L 136.553776 263.250919 
L 136.878755 278.716696 
L 137.203735 262.856312 
L 137.528714 274.38721 
L 137.853694 277.178677 
L 138.503653 262.450806 
L 138.828632 269.504808 
L 139.153612 260.849713 
L 139.478591 275.070694 
L 139.803571 274.837591 
L 140.12855 277.417176 
L 140.778509 240.038154 
L 141.103489 274.412735 
L 141.428468 274.512274 
L 141.753448 254.639096 
L 142.078428 272.743542 
L 142.403407 255.259412 
L 142.728387 251.155213 
L 143.053366 266.005095 
L 143.378346 261.806704 
L 143.703325 237.54575 
L 144.028305 258.166991 
L 144.353284 227.55034 
L 144.678264 260.256192 
L 145.003243 237.551716 
L 145.328223 260.727675 
L 145.653202 265.426972 
L 145.978182 250.582606 
L 146.303161 262.425689 
L 146.628141 269.785034 
L 146.95312 261.126486 
L 147.2781 272.604261 
L 147.603079 265.620248 
L 147.928059 279.621296 
L 148.578018 266.228685 
L 148.902998 244.673419 
L 149.227977 269.357534 
L 149.552957 276.388319 
L 149.877936 238.564854 
L 150.202916 279.256215 
L 150.527895 272.866952 
L 150.852875 262.228322 
L 151.177854 279.489103 
L 151.827813 254.64911 
L 152.477772 268.320642 
L 152.802752 252.478854 
L 153.127731 270.067457 
L 153.452711 255.715764 
L 153.77769 278.70432 
L 154.10267 248.140765 
L 154.427649 269.677376 
L 154.752629 268.102066 
L 155.077609 273.947157 
L 155.727568 258.998324 
L 156.052547 259.434886 
L 156.702506 268.16574 
L 157.027486 280.590196 
L 157.352465 266.137064 
L 157.677445 274.193854 
L 158.002424 274.336474 
L 158.327404 268.45024 
L 158.652383 273.596554 
L 158.977363 265.398764 
L 159.302342 274.810811 
L 159.627322 278.654754 
L 159.952301 273.261632 
L 160.277281 277.902033 
L 160.60226 269.924638 
L 160.92724 271.314352 
L 161.252219 273.274596 
L 161.577199 271.021074 
L 161.902179 273.187107 
L 162.227158 273.138115 
L 162.552138 274.099093 
L 162.877117 271.808916 
L 163.202097 265.003486 
L 163.527076 273.517526 
L 163.852056 269.310205 
L 164.177035 279.024799 
L 164.826994 266.866579 
L 165.151974 261.723986 
L 165.476953 269.064825 
L 165.801933 269.677386 
L 166.126912 267.015277 
L 166.451892 274.324373 
L 166.776871 269.431719 
L 167.101851 260.330269 
L 167.42683 274.574542 
L 167.75181 264.175733 
L 168.07679 261.215221 
L 168.401769 268.528628 
L 168.726749 261.693095 
L 169.051728 275.341112 
L 169.376708 271.950194 
L 169.701687 278.313735 
L 170.026667 269.206484 
L 170.351646 271.731299 
L 170.676626 279.65177 
L 171.001605 269.273729 
L 171.651564 265.522973 
L 171.976544 277.063305 
L 172.301523 254.332291 
L 172.626503 254.673745 
L 172.951482 280.330879 
L 173.276462 272.18014 
L 173.926421 276.825715 
L 174.2514 269.336545 
L 174.57638 284.670385 
L 174.90136 272.537058 
L 175.551319 279.815449 
L 175.876298 275.352837 
L 176.201278 277.173073 
L 176.851237 266.564108 
L 177.176216 273.775151 
L 177.501196 268.667597 
L 177.826175 267.049679 
L 178.151155 281.184887 
L 178.476134 273.749204 
L 178.801114 270.280769 
L 179.126093 281.490724 
L 179.451073 272.990535 
L 179.776052 276.64126 
L 180.101032 276.960467 
L 180.426011 272.710721 
L 180.750991 275.812419 
L 181.075971 281.501336 
L 181.40095 269.402455 
L 181.72593 278.14676 
L 182.050909 281.570408 
L 182.700868 270.664418 
L 183.025848 281.094858 
L 183.350827 275.762637 
L 183.675807 279.787393 
L 184.000786 280.470723 
L 184.325766 270.685784 
L 184.650745 284.302861 
L 184.975725 279.777276 
L 185.300704 283.06342 
L 185.625684 280.534594 
L 185.950663 279.22129 
L 186.275643 261.221772 
L 186.600622 279.506582 
L 186.925602 281.159123 
L 187.250581 277.549775 
L 187.575561 281.429194 
L 187.900541 282.227476 
L 188.22552 275.00733 
L 188.5505 277.154242 
L 188.875479 280.081715 
L 189.200459 281.648404 
L 189.525438 275.601708 
L 189.850418 265.0593 
L 190.175397 275.431284 
L 190.500377 278.190195 
L 190.825356 263.994448 
L 191.150336 281.224484 
L 191.800295 274.845895 
L 192.125274 266.721515 
L 192.450254 264.538192 
L 192.775233 273.138982 
L 193.100213 277.230243 
L 193.425192 271.824204 
L 193.750172 252.972117 
L 194.075152 273.558599 
L 194.400131 273.245915 
L 194.725111 279.618827 
L 195.05009 278.034177 
L 195.37507 278.863838 
L 195.700049 284.454935 
L 196.025029 284.758956 
L 196.350008 285.66208 
L 196.674988 280.911357 
L 196.999967 280.817582 
L 197.649926 268.575327 
L 197.974906 280.820891 
L 198.299885 281.791282 
L 198.624865 279.990248 
L 198.949844 275.453393 
L 199.274824 281.835346 
L 199.599803 275.234966 
L 199.924783 281.34586 
L 200.249762 278.207636 
L 200.574742 279.557379 
L 200.899722 276.794543 
L 201.224701 282.234826 
L 201.549681 285.508816 
L 201.87466 279.739514 
L 202.19964 276.982726 
L 202.524619 282.011195 
L 202.849599 274.886959 
L 203.174578 281.319662 
L 203.499558 278.714292 
L 203.824537 281.618591 
L 204.149517 275.761489 
L 204.474496 286.409486 
L 204.799476 287.471584 
L 205.124455 265.999148 
L 205.449435 286.100892 
L 205.774414 268.263318 
L 206.424373 280.801066 
L 206.749353 269.707864 
L 207.074333 286.534496 
L 207.399312 278.06973 
L 207.724292 281.670215 
L 208.049271 278.874853 
L 208.374251 277.39336 
L 208.69923 273.492446 
L 209.02421 282.216192 
L 209.349189 283.549189 
L 209.674169 274.536557 
L 209.999148 273.258837 
L 210.324128 286.227933 
L 210.649107 281.174746 
L 210.974087 283.924816 
L 211.299066 284.748491 
L 211.624046 273.580912 
L 211.949025 277.755889 
L 212.274005 276.745002 
L 212.598984 279.955909 
L 212.923964 286.557828 
L 213.248943 274.419427 
L 213.573923 283.346144 
L 213.898903 272.379183 
L 214.223882 286.418422 
L 214.548862 278.000599 
L 214.873841 278.387974 
L 215.198821 283.002408 
L 215.5238 280.753287 
L 216.173759 274.643551 
L 216.498739 283.547471 
L 216.823718 284.025189 
L 217.148698 275.166006 
L 217.473677 271.246491 
L 217.798657 282.620546 
L 218.123636 281.58583 
L 218.448616 268.001695 
L 218.773595 284.568651 
L 219.098575 284.579652 
L 219.423554 273.801383 
L 219.748534 272.596815 
L 220.073514 278.353483 
L 220.398493 281.611604 
L 220.723473 281.182705 
L 221.048452 271.263633 
L 221.373432 287.963424 
L 221.698411 280.779972 
L 222.023391 281.797914 
L 222.34837 268.483131 
L 222.67335 277.31051 
L 222.998329 281.952145 
L 223.323309 269.191983 
L 223.648288 279.689068 
L 223.973268 279.558827 
L 224.298247 270.085278 
L 224.948206 284.076986 
L 225.273186 284.356423 
L 225.598165 274.733078 
L 225.923145 284.107574 
L 226.573104 274.893819 
L 226.898084 284.997167 
L 227.548043 276.863658 
L 227.873022 279.017438 
L 228.198002 282.41959 
L 228.522981 278.970443 
L 228.847961 286.925387 
L 229.17294 286.453002 
L 229.49792 284.533412 
L 229.822899 284.526302 
L 230.147879 287.763234 
L 230.797838 277.903368 
L 231.122817 282.23979 
L 231.447797 291.247889 
L 231.772776 277.204212 
L 232.097756 284.397083 
L 232.422735 283.650685 
L 232.747715 279.807782 
L 233.072695 285.324791 
L 233.397674 276.557757 
L 233.722654 277.919959 
L 234.047633 281.395839 
L 234.372613 275.000919 
L 234.697592 281.859189 
L 235.022572 285.838885 
L 235.347551 286.344083 
L 235.672531 271.671394 
L 235.99751 279.811248 
L 236.32249 278.831087 
L 236.647469 283.611814 
L 236.972449 278.28785 
L 237.297428 277.828066 
L 237.622408 279.555806 
L 237.947387 284.662572 
L 238.272367 278.114452 
L 238.597346 285.597961 
L 238.922326 288.197927 
L 239.247305 276.302566 
L 239.572285 272.130684 
L 240.222244 280.301238 
L 240.547224 280.573739 
L 240.872203 288.637819 
L 241.197183 288.085918 
L 241.522162 280.159602 
L 241.847142 280.10762 
L 242.172121 284.812887 
L 242.497101 269.249903 
L 242.82208 281.704412 
L 243.472039 269.845067 
L 243.797019 279.012419 
L 244.121998 276.689423 
L 244.446978 279.254139 
L 244.771957 273.998821 
L 245.096937 266.430303 
L 245.421916 279.942244 
L 245.746896 279.958359 
L 246.071876 276.302058 
L 246.396855 280.925064 
L 246.721835 276.772195 
L 247.046814 278.544784 
L 247.371794 278.348269 
L 248.021753 290.565491 
L 248.671712 269.318085 
L 248.996691 277.699945 
L 249.321671 270.401896 
L 249.64665 276.728107 
L 249.97163 280.11366 
L 250.296609 275.978167 
L 250.621589 268.523169 
L 250.946568 287.869987 
L 251.271548 264.389733 
L 251.596527 282.388263 
L 251.921507 284.850105 
L 252.246486 286.391551 
L 252.571466 275.400171 
L 252.896446 282.346669 
L 253.221425 278.784096 
L 253.546405 286.598752 
L 253.871384 267.592959 
L 254.196364 290.211136 
L 254.521343 287.888212 
L 254.846323 277.067953 
L 255.171302 283.841851 
L 255.496282 280.956292 
L 255.821261 282.228568 
L 256.146241 279.43488 
L 256.47122 288.665779 
L 256.7962 287.033799 
L 257.121179 279.435675 
L 257.446159 292.961613 
L 257.771138 282.056081 
L 258.096118 287.867454 
L 258.421097 286.169086 
L 258.746077 285.225808 
L 259.071057 286.582889 
L 259.396036 278.96445 
L 259.721016 284.60544 
L 260.045995 292.350594 
L 260.370975 283.76885 
L 260.695954 285.564742 
L 261.020934 277.586692 
L 261.995872 289.066469 
L 262.320852 280.606066 
L 262.970811 287.975246 
L 263.29579 290.002213 
L 263.62077 283.949205 
L 263.945749 286.779376 
L 264.270729 285.796769 
L 264.595708 289.260142 
L 264.920688 283.684548 
L 265.245667 287.988342 
L 265.570647 287.269657 
L 265.895627 278.311704 
L 266.220606 285.104546 
L 266.545586 278.692275 
L 266.870565 286.023724 
L 267.195545 285.921247 
L 267.520524 291.619439 
L 267.845504 286.529622 
L 268.170483 291.78842 
L 268.495463 283.699986 
L 268.820442 289.047284 
L 269.145422 290.88837 
L 269.470401 288.797796 
L 269.795381 283.40382 
L 270.44534 293.734406 
L 270.770319 270.979778 
L 271.095299 284.292852 
L 271.420278 284.409707 
L 271.745258 260.960136 
L 272.070238 289.410166 
L 272.395217 268.987137 
L 272.720197 274.125311 
L 273.045176 286.873054 
L 273.370156 270.381659 
L 273.695135 264.247308 
L 274.020115 286.217319 
L 274.345094 269.270849 
L 274.670074 290.227155 
L 274.995053 274.523298 
L 275.320033 274.815487 
L 275.645012 286.088266 
L 275.969992 286.930425 
L 276.294971 272.175771 
L 276.619951 285.014086 
L 276.94493 278.541789 
L 277.26991 286.807716 
L 277.594889 285.454914 
L 277.919869 282.241852 
L 278.244848 291.429995 
L 278.569828 281.18126 
L 278.894808 289.085293 
L 279.219787 290.432172 
L 279.544767 288.350492 
L 279.869746 289.961838 
L 280.194726 286.661016 
L 280.519705 289.341233 
L 280.844685 283.160393 
L 281.169664 291.294362 
L 281.494644 282.672687 
L 281.819623 288.862095 
L 282.469582 283.642794 
L 282.794562 288.105809 
L 283.444521 287.102186 
L 283.7695 283.644119 
L 284.09448 289.933764 
L 284.419459 285.544988 
L 284.744439 287.026411 
L 285.069419 283.632793 
L 285.394398 288.635233 
L 285.719378 286.203403 
L 286.044357 287.482333 
L 286.369337 286.145188 
L 286.694316 290.429192 
L 287.344275 288.76865 
L 287.669255 289.527962 
L 287.994234 289.049419 
L 288.319214 287.015506 
L 288.644193 288.017195 
L 288.969173 286.242687 
L 289.294152 292.864228 
L 289.619132 282.752272 
L 289.944111 285.486352 
L 290.269091 294.006049 
L 290.59407 282.363057 
L 290.91905 287.971571 
L 291.244029 288.721773 
L 291.569009 281.306715 
L 292.218968 286.269622 
L 292.543948 280.440952 
L 292.868927 284.492606 
L 293.193907 285.087367 
L 293.843866 291.989094 
L 294.168845 291.822474 
L 294.493825 292.341342 
L 294.818804 290.429294 
L 295.143784 292.587088 
L 295.468763 290.93682 
L 295.793743 288.68484 
L 296.118722 288.031543 
L 296.443702 285.608123 
L 296.768681 291.344402 
L 297.093661 280.175795 
L 297.41864 284.477102 
L 298.0686 289.994326 
L 298.393579 289.292358 
L 298.718559 284.869681 
L 299.368518 291.62934 
L 299.693497 288.550099 
L 300.343456 291.58481 
L 300.668436 288.625273 
L 300.993415 291.340997 
L 301.318395 290.996729 
L 301.643374 287.990704 
L 301.968354 294.027751 
L 302.293333 289.237795 
L 302.618313 286.167879 
L 302.943292 289.576232 
L 303.268272 278.147819 
L 303.593251 291.974377 
L 304.24321 289.593403 
L 304.56819 290.779678 
L 304.89317 284.756626 
L 305.218149 283.218439 
L 305.543129 284.622619 
L 305.868108 281.725063 
L 306.193088 281.176267 
L 306.518067 286.248637 
L 306.843047 284.511691 
L 307.493006 293.098288 
L 307.817985 283.192679 
L 308.142965 288.02528 
L 308.467944 286.456259 
L 308.792924 292.754419 
L 309.117903 293.685211 
L 309.442883 281.731948 
L 309.767862 289.23274 
L 310.092842 290.773246 
L 310.417821 290.612208 
L 310.742801 290.102394 
L 311.067781 293.303323 
L 311.39276 287.173548 
L 311.71774 290.387482 
L 312.042719 290.894723 
L 312.367699 285.638209 
L 312.692678 287.448101 
L 313.017658 284.659474 
L 313.342637 289.252307 
L 313.667617 266.860182 
L 313.992596 267.926086 
L 314.317576 266.219749 
L 314.642555 282.170674 
L 314.967535 281.616259 
L 315.292514 284.776158 
L 315.617494 284.243474 
L 315.942473 280.805762 
L 316.267453 284.527361 
L 316.917412 283.170713 
L 317.242391 280.288593 
L 317.567371 282.157494 
L 317.892351 273.371143 
L 318.21733 281.060927 
L 318.54231 270.030672 
L 318.867289 284.52452 
L 319.192269 291.100378 
L 319.517248 272.181272 
L 319.842228 290.3188 
L 320.167207 281.084743 
L 320.492187 281.324128 
L 320.817166 272.146014 
L 321.142146 288.462272 
L 321.467125 234.46162 
L 321.792105 287.800231 
L 322.442064 250.809865 
L 323.092023 280.068383 
L 323.417002 277.999006 
L 323.741982 277.459944 
L 324.066962 287.668901 
L 324.391941 279.372378 
L 325.0419 286.520756 
L 325.36688 287.895186 
L 325.691859 280.78552 
L 326.016839 289.017174 
L 326.341818 285.818016 
L 326.666798 287.604107 
L 326.991777 288.624655 
L 327.316757 288.598626 
L 327.641736 288.356825 
L 327.966716 281.436469 
L 328.291695 287.678868 
L 328.616675 291.507036 
L 328.941654 287.954122 
L 329.266634 292.18825 
L 329.591613 287.074752 
L 329.916593 288.999944 
L 330.241572 288.340887 
L 330.566552 279.313076 
L 330.891532 278.410359 
L 331.216511 287.22692 
L 331.541491 292.774152 
L 331.86647 288.907315 
L 332.19145 288.024929 
L 332.516429 290.371142 
L 332.841409 289.314244 
L 333.166388 285.661586 
L 333.491368 285.810551 
L 333.816347 286.183385 
L 334.141327 288.869804 
L 334.466306 289.488156 
L 334.791286 288.931979 
L 335.116265 287.19284 
L 335.441245 286.61662 
L 335.766224 287.320706 
L 336.091204 287.42483 
L 336.416183 287.91598 
L 336.741163 290.966067 
L 337.066143 281.85851 
L 337.391122 292.97302 
L 337.716102 279.212825 
L 338.041081 275.410925 
L 338.366061 290.76626 
L 338.69104 288.88869 
L 339.01602 279.929674 
L 339.340999 290.282587 
L 339.990958 281.387066 
L 340.315938 288.026431 
L 340.640917 286.59236 
L 340.965897 289.624856 
L 341.290876 289.95873 
L 341.615856 285.889686 
L 342.265815 292.431248 
L 342.590794 291.874193 
L 342.915774 290.538785 
L 343.240753 286.480612 
L 343.565733 290.386882 
L 343.890713 285.195729 
L 344.215692 289.637856 
L 344.540672 291.917371 
L 344.865651 287.193241 
L 345.190631 293.020069 
L 345.51561 295.488 
L 345.84059 287.274077 
L 346.165569 291.340107 
L 346.490549 293.958058 
L 346.815528 294.098141 
L 347.140508 289.162072 
L 347.465487 291.95882 
L 347.790467 293.054308 
L 348.115446 281.97531 
L 348.440426 289.956297 
L 348.765405 294.629912 
L 349.090385 274.645829 
L 349.415364 290.517304 
L 349.740344 270.268744 
L 350.065324 278.101373 
L 350.390303 263.910088 
L 350.715283 293.15341 
L 351.040262 268.300773 
L 351.365242 287.537061 
L 351.690221 284.927448 
L 352.015201 270.571407 
L 352.34018 284.040875 
L 352.66516 274.928402 
L 352.990139 289.85383 
L 353.315119 288.717075 
L 353.640098 267.494583 
L 353.965078 292.236416 
L 354.290057 280.407956 
L 354.940016 288.537433 
L 355.264996 289.644032 
L 355.589975 279.792747 
L 355.914955 286.10431 
L 356.239934 281.950842 
L 356.564914 289.249785 
L 356.889894 276.333377 
L 357.214873 287.871046 
L 357.539853 286.534233 
L 357.864832 263.213267 
L 358.189812 287.474664 
L 358.514791 292.308812 
L 358.839771 282.496379 
L 359.16475 292.034358 
L 359.48973 291.864957 
L 359.814709 281.75112 
L 360.139689 291.824563 
L 360.464668 283.014587 
L 360.789648 279.234266 
L 361.114627 291.476346 
L 361.439607 289.76829 
L 361.764586 286.22216 
L 362.089566 286.982819 
L 362.414545 280.388314 
L 362.739525 281.630406 
L 363.064505 293.403297 
L 363.389484 278.805642 
L 363.714464 288.911427 
L 364.039443 281.698791 
L 364.364423 278.354792 
L 365.014382 290.637502 
L 365.339361 285.612629 
L 365.664341 284.65977 
L 365.98932 285.689508 
L 366.3143 278.7503 
L 366.639279 287.992658 
L 367.289238 284.687616 
L 367.614218 284.603717 
L 367.939197 282.208666 
L 368.264177 278.157887 
L 368.589156 289.053774 
L 368.914136 286.701817 
L 369.239115 288.896872 
L 369.564095 285.49096 
L 369.889075 289.812491 
L 370.214054 281.744118 
L 370.539034 279.618222 
L 370.864013 292.894544 
L 371.188993 286.390354 
L 371.513972 275.31081 
L 371.838952 292.90719 
L 372.163931 282.692829 
L 372.488911 276.040881 
L 373.13887 284.820531 
L 373.463849 275.412228 
L 373.788829 289.24122 
L 374.113808 287.091536 
L 374.438788 284.133109 
L 374.763767 291.581292 
L 375.088747 279.64796 
L 375.413726 291.011216 
L 376.063686 278.055218 
L 376.388665 292.402214 
L 376.713645 280.504467 
L 377.038624 286.356965 
L 377.363604 280.135649 
L 377.688583 292.307118 
L 378.013563 285.571326 
L 378.338542 275.610804 
L 378.663522 271.101952 
L 378.988501 289.490254 
L 379.313481 288.60126 
L 379.63846 280.532321 
L 379.96344 282.113544 
L 380.288419 286.429105 
L 380.613399 282.224968 
L 381.263358 291.808685 
L 381.588337 279.484799 
L 381.913317 291.897079 
L 382.563276 285.619938 
L 382.888256 291.495237 
L 383.213235 290.041774 
L 383.538215 282.453393 
L 383.863194 291.671546 
L 384.188174 287.251484 
L 384.513153 285.448666 
L 384.838133 291.090596 
L 385.163112 292.260238 
L 385.488092 282.87787 
L 385.813071 294.776582 
L 386.138051 289.18788 
L 386.46303 289.9942 
L 386.78801 289.411193 
L 387.112989 282.383205 
L 387.437969 286.133141 
L 387.762948 284.656149 
L 388.087928 288.77758 
L 388.412907 288.116726 
L 388.737887 292.899666 
L 389.062867 284.518925 
L 389.387846 292.478651 
L 389.712826 285.005391 
L 390.037805 295.128874 
L 390.362785 287.478549 
L 390.687764 287.414273 
L 391.012744 293.898242 
L 391.337723 287.404174 
L 391.662703 288.814436 
L 391.987682 291.725091 
L 392.312662 276.940931 
L 392.637641 289.974411 
L 392.962621 283.786912 
L 393.2876 289.538579 
L 393.61258 292.984371 
L 393.937559 285.187707 
L 394.262539 289.89781 
L 394.587518 285.617909 
L 395.237477 288.604609 
L 395.562457 283.623529 
L 395.887437 286.962735 
L 396.212416 293.990617 
L 396.537396 293.773225 
L 396.862375 285.243412 
L 397.187355 284.990549 
L 397.512334 289.833518 
L 397.837314 283.974551 
L 398.162293 290.113319 
L 398.487273 284.978308 
L 398.487273 284.978308 
" clip-path="url(#pa95185f3f1)" style="fill: none; stroke: #1f77b4; stroke-width: 1.5; stroke-linecap: square"/>
   </g>
   <g id="line2d_26">
    <path d="M 73.832727 103.818428 
L 77.082523 112.281057 
L 80.332318 109.888143 
L 83.582113 124.339773 
L 86.831908 155.362466 
L 90.081704 187.123348 
L 93.331499 203.317851 
L 96.581294 214.0255 
L 99.831089 232.113671 
L 103.080885 242.598251 
L 106.33068 242.235098 
L 109.580475 254.541133 
L 112.83027 261.545187 
L 116.080066 255.358581 
L 119.329861 259.133625 
L 122.579656 263.814801 
L 125.829451 268.9637 
L 129.079247 262.398608 
L 132.329042 268.228668 
L 135.578837 263.461935 
L 138.828632 271.484813 
L 142.078428 245.080986 
L 145.328223 272.487492 
L 148.578018 259.994248 
L 151.827813 271.973678 
L 155.077609 258.199557 
L 158.327404 272.442806 
L 161.577199 275.562573 
L 164.826994 270.945468 
L 168.07679 272.889744 
L 171.326585 275.317172 
L 174.57638 273.24833 
L 177.826175 278.087671 
L 181.075971 276.851136 
L 184.325766 279.913671 
L 187.575561 281.096618 
L 190.825356 280.890071 
L 194.075152 279.049784 
L 197.324947 282.88756 
L 200.574742 281.019445 
L 203.824537 273.839095 
L 207.074333 281.016162 
L 210.324128 281.609286 
L 213.573923 279.12832 
L 216.823718 276.007912 
L 220.073514 279.016947 
L 223.323309 281.060848 
L 226.573104 279.329 
L 229.822899 282.916363 
L 233.072695 283.025632 
L 236.32249 280.235193 
L 239.572285 277.288473 
L 242.82208 277.189096 
L 246.071876 281.622126 
L 249.321671 280.441878 
L 252.571466 286.086166 
L 255.821261 285.931131 
L 259.071057 277.206707 
L 262.320852 284.746994 
L 265.570647 286.83982 
L 268.820442 288.249605 
L 272.070238 268.167183 
L 275.320033 281.797707 
L 278.569828 288.968298 
L 281.819623 283.583036 
L 285.069419 288.960778 
L 288.319214 289.68241 
L 291.569009 286.936766 
L 294.818804 291.704401 
L 298.0686 289.159037 
L 301.318395 289.039988 
L 304.56819 282.311136 
L 307.817985 288.258894 
L 311.067781 291.308125 
L 314.317576 284.404344 
L 317.567371 284.146322 
L 320.817166 291.133216 
L 324.066962 281.661931 
L 327.316757 284.952622 
L 330.566552 288.83838 
L 333.816347 288.339162 
L 337.066143 288.084794 
L 340.315938 287.242488 
L 343.565733 290.416674 
L 346.815528 292.421867 
L 350.065324 271.502367 
L 353.315119 278.672037 
L 356.564914 282.887868 
L 359.814709 289.568561 
L 363.064505 278.338939 
L 366.3143 282.36927 
L 369.564095 290.923758 
L 372.81389 288.87251 
L 376.063686 276.401955 
L 379.313481 285.085687 
L 382.563276 289.418737 
L 385.813071 286.351889 
L 389.062867 289.954862 
L 392.312662 293.58144 
L 395.562457 287.775467 
" clip-path="url(#pa95185f3f1)" style="fill: none; stroke: #ff7f0e; stroke-width: 1.5; stroke-linecap: square"/>
   </g>
   <g id="patch_3">
    <path d="M 57.6 307.584 
L 57.6 41.472 
" style="fill: none; stroke: #000000; stroke-width: 0.8; stroke-linejoin: miter; stroke-linecap: square"/>
   </g>
   <g id="patch_4">
    <path d="M 414.72 307.584 
L 414.72 41.472 
" style="fill: none; stroke: #000000; stroke-width: 0.8; stroke-linejoin: miter; stroke-linecap: square"/>
   </g>
   <g id="patch_5">
    <path d="M 57.6 307.584 
L 414.72 307.584 
" style="fill: none; stroke: #000000; stroke-width: 0.8; stroke-linejoin: miter; stroke-linecap: square"/>
   </g>
   <g id="patch_6">
    <path d="M 57.6 41.472 
L 414.72 41.472 
" style="fill: none; stroke: #000000; stroke-width: 0.8; stroke-linejoin: miter; stroke-linecap: square"/>
   </g>
   <g id="text_15">
    <!-- Train Loss vs Validation Loss -->
    <g transform="translate(151.513125 35.472) scale(0.12 -0.12)">
     <defs>
      <path id="DejaVuSans-76" d="M 191 3500 
L 800 3500 
L 1894 563 
L 2988 3500 
L 3597 3500 
L 2284 0 
L 1503 0 
L 191 3500 
z
" transform="scale(0.015625)"/>
      <path id="DejaVuSans-56" d="M 1831 0 
L 50 4666 
L 709 4666 
L 2188 738 
L 3669 4666 
L 4325 4666 
L 2547 0 
L 1831 0 
z
" transform="scale(0.015625)"/>
      <path id="DejaVuSans-6c" d="M 603 4863 
L 1178 4863 
L 1178 0 
L 603 0 
L 603 4863 
z
" transform="scale(0.015625)"/>
      <path id="DejaVuSans-64" d="M 2906 2969 
L 2906 4863 
L 3481 4863 
L 3481 0 
L 2906 0 
L 2906 525 
Q 2725 213 2448 61 
Q 2172 -91 1784 -91 
Q 1150 -91 751 415 
Q 353 922 353 1747 
Q 353 2572 751 3078 
Q 1150 3584 1784 3584 
Q 2172 3584 2448 3432 
Q 2725 3281 2906 2969 
z
M 947 1747 
Q 947 1113 1208 752 
Q 1469 391 1925 391 
Q 2381 391 2643 752 
Q 2906 1113 2906 1747 
Q 2906 2381 2643 2742 
Q 2381 3103 1925 3103 
Q 1469 3103 1208 2742 
Q 947 2381 947 1747 
z
" transform="scale(0.015625)"/>
     </defs>
     <use xlink:href="#DejaVuSans-54"/>
     <use xlink:href="#DejaVuSans-72" x="46.333984"/>
     <use xlink:href="#DejaVuSans-61" x="87.447266"/>
     <use xlink:href="#DejaVuSans-69" x="148.726562"/>
     <use xlink:href="#DejaVuSans-6e" x="176.509766"/>
     <use xlink:href="#DejaVuSans-20" x="239.888672"/>
     <use xlink:href="#DejaVuSans-4c" x="271.675781"/>
     <use xlink:href="#DejaVuSans-6f" x="325.638672"/>
     <use xlink:href="#DejaVuSans-73" x="386.820312"/>
     <use xlink:href="#DejaVuSans-73" x="438.919922"/>
     <use xlink:href="#DejaVuSans-20" x="491.019531"/>
     <use xlink:href="#DejaVuSans-76" x="522.806641"/>
     <use xlink:href="#DejaVuSans-73" x="581.986328"/>
     <use xlink:href="#DejaVuSans-20" x="634.085938"/>
     <use xlink:href="#DejaVuSans-56" x="665.873047"/>
     <use xlink:href="#DejaVuSans-61" x="726.53125"/>
     <use xlink:href="#DejaVuSans-6c" x="787.810547"/>
     <use xlink:href="#DejaVuSans-69" x="815.59375"/>
     <use xlink:href="#DejaVuSans-64" x="843.376953"/>
     <use xlink:href="#DejaVuSans-61" x="906.853516"/>
     <use xlink:href="#DejaVuSans-74" x="968.132812"/>
     <use xlink:href="#DejaVuSans-69" x="1007.341797"/>
     <use xlink:href="#DejaVuSans-6f" x="1035.125"/>
     <use xlink:href="#DejaVuSans-6e" x="1096.306641"/>
     <use xlink:href="#DejaVuSans-20" x="1159.685547"/>
     <use xlink:href="#DejaVuSans-4c" x="1191.472656"/>
     <use xlink:href="#DejaVuSans-6f" x="1245.435547"/>
     <use xlink:href="#DejaVuSans-73" x="1306.617188"/>
     <use xlink:href="#DejaVuSans-73" x="1358.716797"/>
    </g>
   </g>
   <g id="legend_1">
    <g id="patch_7">
     <path d="M 301.22625 78.82825 
L 407.72 78.82825 
Q 409.72 78.82825 409.72 76.82825 
L 409.72 48.472 
Q 409.72 46.472 407.72 46.472 
L 301.22625 46.472 
Q 299.22625 46.472 299.22625 48.472 
L 299.22625 76.82825 
Q 299.22625 78.82825 301.22625 78.82825 
z
" style="fill: #ffffff; opacity: 0.8; stroke: #cccccc; stroke-linejoin: miter"/>
    </g>
    <g id="line2d_27">
     <path d="M 303.22625 54.570437 
L 313.22625 54.570437 
L 323.22625 54.570437 
" style="fill: none; stroke: #1f77b4; stroke-width: 1.5; stroke-linecap: square"/>
    </g>
    <g id="text_16">
     <!-- Train Loss -->
     <g transform="translate(331.22625 58.070437) scale(0.1 -0.1)">
      <use xlink:href="#DejaVuSans-54"/>
      <use xlink:href="#DejaVuSans-72" x="46.333984"/>
      <use xlink:href="#DejaVuSans-61" x="87.447266"/>
      <use xlink:href="#DejaVuSans-69" x="148.726562"/>
      <use xlink:href="#DejaVuSans-6e" x="176.509766"/>
      <use xlink:href="#DejaVuSans-20" x="239.888672"/>
      <use xlink:href="#DejaVuSans-4c" x="271.675781"/>
      <use xlink:href="#DejaVuSans-6f" x="325.638672"/>
      <use xlink:href="#DejaVuSans-73" x="386.820312"/>
      <use xlink:href="#DejaVuSans-73" x="438.919922"/>
     </g>
    </g>
    <g id="line2d_28">
     <path d="M 303.22625 69.248562 
L 313.22625 69.248562 
L 323.22625 69.248562 
" style="fill: none; stroke: #ff7f0e; stroke-width: 1.5; stroke-linecap: square"/>
    </g>
    <g id="text_17">
     <!-- Validation Loss -->
     <g transform="translate(331.22625 72.748562) scale(0.1 -0.1)">
      <use xlink:href="#DejaVuSans-56"/>
      <use xlink:href="#DejaVuSans-61" x="60.658203"/>
      <use xlink:href="#DejaVuSans-6c" x="121.9375"/>
      <use xlink:href="#DejaVuSans-69" x="149.720703"/>
      <use xlink:href="#DejaVuSans-64" x="177.503906"/>
      <use xlink:href="#DejaVuSans-61" x="240.980469"/>
      <use xlink:href="#DejaVuSans-74" x="302.259766"/>
      <use xlink:href="#DejaVuSans-69" x="341.46875"/>
      <use xlink:href="#DejaVuSans-6f" x="369.251953"/>
      <use xlink:href="#DejaVuSans-6e" x="430.433594"/>
      <use xlink:href="#DejaVuSans-20" x="493.8125"/>
      <use xlink:href="#DejaVuSans-4c" x="525.599609"/>
      <use xlink:href="#DejaVuSans-6f" x="579.5625"/>
      <use xlink:href="#DejaVuSans-73" x="640.744141"/>
      <use xlink:href="#DejaVuSans-73" x="692.84375"/>
     </g>
    </g>
   </g>
  </g>
 </g>
 <defs>
  <clipPath id="pa95185f3f1">
   <rect x="57.6" y="41.472" width="357.12" height="266.112"/>
  </clipPath>
 </defs>
</svg>
