<?xml version="1.0" encoding="utf-8" standalone="no"?>
<!DOCTYPE svg PUBLIC "-//W3C//DTD SVG 1.1//EN"
  "http://www.w3.org/Graphics/SVG/1.1/DTD/svg11.dtd">
<svg xmlns:xlink="http://www.w3.org/1999/xlink" width="460.8pt" height="345.6pt" viewBox="0 0 460.8 345.6" xmlns="http://www.w3.org/2000/svg" version="1.1">
 <metadata>
  <rdf:RDF xmlns:dc="http://purl.org/dc/elements/1.1/" xmlns:cc="http://creativecommons.org/ns#" xmlns:rdf="http://www.w3.org/1999/02/22-rdf-syntax-ns#">
   <cc:Work>
    <dc:type rdf:resource="http://purl.org/dc/dcmitype/StillImage"/>
    <dc:date>2023-11-15T11:23:33.868761</dc:date>
    <dc:format>image/svg+xml</dc:format>
    <dc:creator>
     <cc:Agent>
      <dc:title>Matplotlib v3.8.0, https://matplotlib.org/</dc:title>
     </cc:Agent>
    </dc:creator>
   </cc:Work>
  </rdf:RDF>
 </metadata>
 <defs>
  <style type="text/css">*{stroke-linejoin: round; stroke-linecap: butt}</style>
 </defs>
 <g id="figure_1">
  <g id="patch_1">
   <path d="M 0 345.6 
L 460.8 345.6 
L 460.8 0 
L 0 0 
z
" style="fill: #ffffff"/>
  </g>
  <g id="axes_1">
   <g id="patch_2">
    <path d="M 57.6 307.584 
L 414.72 307.584 
L 414.72 41.472 
L 57.6 41.472 
z
" style="fill: #ffffff"/>
   </g>
   <g id="matplotlib.axis_1">
    <g id="xtick_1">
     <g id="line2d_1">
      <path d="M 73.832727 307.584 
L 73.832727 41.472 
" clip-path="url(#pc6893f2497)" style="fill: none; stroke: #b0b0b0; stroke-width: 0.8; stroke-linecap: square"/>
     </g>
     <g id="line2d_2">
      <defs>
       <path id="m2dba5611f2" d="M 0 0 
L 0 3.5 
" style="stroke: #000000; stroke-width: 0.8"/>
      </defs>
      <g>
       <use xlink:href="#m2dba5611f2" x="73.832727" y="307.584" style="stroke: #000000; stroke-width: 0.8"/>
      </g>
     </g>
     <g id="text_1">
      <!-- 0 -->
      <g transform="translate(70.651477 322.182437) scale(0.1 -0.1)">
       <defs>
        <path id="DejaVuSans-30" d="M 2034 4250 
Q 1547 4250 1301 3770 
Q 1056 3291 1056 2328 
Q 1056 1369 1301 889 
Q 1547 409 2034 409 
Q 2525 409 2770 889 
Q 3016 1369 3016 2328 
Q 3016 3291 2770 3770 
Q 2525 4250 2034 4250 
z
M 2034 4750 
Q 2819 4750 3233 4129 
Q 3647 3509 3647 2328 
Q 3647 1150 3233 529 
Q 2819 -91 2034 -91 
Q 1250 -91 836 529 
Q 422 1150 422 2328 
Q 422 3509 836 4129 
Q 1250 4750 2034 4750 
z
" transform="scale(0.015625)"/>
       </defs>
       <use xlink:href="#DejaVuSans-30"/>
      </g>
     </g>
    </g>
    <g id="xtick_2">
     <g id="line2d_3">
      <path d="M 138.828632 307.584 
L 138.828632 41.472 
" clip-path="url(#pc6893f2497)" style="fill: none; stroke: #b0b0b0; stroke-width: 0.8; stroke-linecap: square"/>
     </g>
     <g id="line2d_4">
      <g>
       <use xlink:href="#m2dba5611f2" x="138.828632" y="307.584" style="stroke: #000000; stroke-width: 0.8"/>
      </g>
     </g>
     <g id="text_2">
      <!-- 200 -->
      <g transform="translate(129.284882 322.182437) scale(0.1 -0.1)">
       <defs>
        <path id="DejaVuSans-32" d="M 1228 531 
L 3431 531 
L 3431 0 
L 469 0 
L 469 531 
Q 828 903 1448 1529 
Q 2069 2156 2228 2338 
Q 2531 2678 2651 2914 
Q 2772 3150 2772 3378 
Q 2772 3750 2511 3984 
Q 2250 4219 1831 4219 
Q 1534 4219 1204 4116 
Q 875 4013 500 3803 
L 500 4441 
Q 881 4594 1212 4672 
Q 1544 4750 1819 4750 
Q 2544 4750 2975 4387 
Q 3406 4025 3406 3419 
Q 3406 3131 3298 2873 
Q 3191 2616 2906 2266 
Q 2828 2175 2409 1742 
Q 1991 1309 1228 531 
z
" transform="scale(0.015625)"/>
       </defs>
       <use xlink:href="#DejaVuSans-32"/>
       <use xlink:href="#DejaVuSans-30" x="63.623047"/>
       <use xlink:href="#DejaVuSans-30" x="127.246094"/>
      </g>
     </g>
    </g>
    <g id="xtick_3">
     <g id="line2d_5">
      <path d="M 203.824537 307.584 
L 203.824537 41.472 
" clip-path="url(#pc6893f2497)" style="fill: none; stroke: #b0b0b0; stroke-width: 0.8; stroke-linecap: square"/>
     </g>
     <g id="line2d_6">
      <g>
       <use xlink:href="#m2dba5611f2" x="203.824537" y="307.584" style="stroke: #000000; stroke-width: 0.8"/>
      </g>
     </g>
     <g id="text_3">
      <!-- 400 -->
      <g transform="translate(194.280787 322.182437) scale(0.1 -0.1)">
       <defs>
        <path id="DejaVuSans-34" d="M 2419 4116 
L 825 1625 
L 2419 1625 
L 2419 4116 
z
M 2253 4666 
L 3047 4666 
L 3047 1625 
L 3713 1625 
L 3713 1100 
L 3047 1100 
L 3047 0 
L 2419 0 
L 2419 1100 
L 313 1100 
L 313 1709 
L 2253 4666 
z
" transform="scale(0.015625)"/>
       </defs>
       <use xlink:href="#DejaVuSans-34"/>
       <use xlink:href="#DejaVuSans-30" x="63.623047"/>
       <use xlink:href="#DejaVuSans-30" x="127.246094"/>
      </g>
     </g>
    </g>
    <g id="xtick_4">
     <g id="line2d_7">
      <path d="M 268.820442 307.584 
L 268.820442 41.472 
" clip-path="url(#pc6893f2497)" style="fill: none; stroke: #b0b0b0; stroke-width: 0.8; stroke-linecap: square"/>
     </g>
     <g id="line2d_8">
      <g>
       <use xlink:href="#m2dba5611f2" x="268.820442" y="307.584" style="stroke: #000000; stroke-width: 0.8"/>
      </g>
     </g>
     <g id="text_4">
      <!-- 600 -->
      <g transform="translate(259.276692 322.182437) scale(0.1 -0.1)">
       <defs>
        <path id="DejaVuSans-36" d="M 2113 2584 
Q 1688 2584 1439 2293 
Q 1191 2003 1191 1497 
Q 1191 994 1439 701 
Q 1688 409 2113 409 
Q 2538 409 2786 701 
Q 3034 994 3034 1497 
Q 3034 2003 2786 2293 
Q 2538 2584 2113 2584 
z
M 3366 4563 
L 3366 3988 
Q 3128 4100 2886 4159 
Q 2644 4219 2406 4219 
Q 1781 4219 1451 3797 
Q 1122 3375 1075 2522 
Q 1259 2794 1537 2939 
Q 1816 3084 2150 3084 
Q 2853 3084 3261 2657 
Q 3669 2231 3669 1497 
Q 3669 778 3244 343 
Q 2819 -91 2113 -91 
Q 1303 -91 875 529 
Q 447 1150 447 2328 
Q 447 3434 972 4092 
Q 1497 4750 2381 4750 
Q 2619 4750 2861 4703 
Q 3103 4656 3366 4563 
z
" transform="scale(0.015625)"/>
       </defs>
       <use xlink:href="#DejaVuSans-36"/>
       <use xlink:href="#DejaVuSans-30" x="63.623047"/>
       <use xlink:href="#DejaVuSans-30" x="127.246094"/>
      </g>
     </g>
    </g>
    <g id="xtick_5">
     <g id="line2d_9">
      <path d="M 333.816347 307.584 
L 333.816347 41.472 
" clip-path="url(#pc6893f2497)" style="fill: none; stroke: #b0b0b0; stroke-width: 0.8; stroke-linecap: square"/>
     </g>
     <g id="line2d_10">
      <g>
       <use xlink:href="#m2dba5611f2" x="333.816347" y="307.584" style="stroke: #000000; stroke-width: 0.8"/>
      </g>
     </g>
     <g id="text_5">
      <!-- 800 -->
      <g transform="translate(324.272597 322.182437) scale(0.1 -0.1)">
       <defs>
        <path id="DejaVuSans-38" d="M 2034 2216 
Q 1584 2216 1326 1975 
Q 1069 1734 1069 1313 
Q 1069 891 1326 650 
Q 1584 409 2034 409 
Q 2484 409 2743 651 
Q 3003 894 3003 1313 
Q 3003 1734 2745 1975 
Q 2488 2216 2034 2216 
z
M 1403 2484 
Q 997 2584 770 2862 
Q 544 3141 544 3541 
Q 544 4100 942 4425 
Q 1341 4750 2034 4750 
Q 2731 4750 3128 4425 
Q 3525 4100 3525 3541 
Q 3525 3141 3298 2862 
Q 3072 2584 2669 2484 
Q 3125 2378 3379 2068 
Q 3634 1759 3634 1313 
Q 3634 634 3220 271 
Q 2806 -91 2034 -91 
Q 1263 -91 848 271 
Q 434 634 434 1313 
Q 434 1759 690 2068 
Q 947 2378 1403 2484 
z
M 1172 3481 
Q 1172 3119 1398 2916 
Q 1625 2713 2034 2713 
Q 2441 2713 2670 2916 
Q 2900 3119 2900 3481 
Q 2900 3844 2670 4047 
Q 2441 4250 2034 4250 
Q 1625 4250 1398 4047 
Q 1172 3844 1172 3481 
z
" transform="scale(0.015625)"/>
       </defs>
       <use xlink:href="#DejaVuSans-38"/>
       <use xlink:href="#DejaVuSans-30" x="63.623047"/>
       <use xlink:href="#DejaVuSans-30" x="127.246094"/>
      </g>
     </g>
    </g>
    <g id="xtick_6">
     <g id="line2d_11">
      <path d="M 398.812252 307.584 
L 398.812252 41.472 
" clip-path="url(#pc6893f2497)" style="fill: none; stroke: #b0b0b0; stroke-width: 0.8; stroke-linecap: square"/>
     </g>
     <g id="line2d_12">
      <g>
       <use xlink:href="#m2dba5611f2" x="398.812252" y="307.584" style="stroke: #000000; stroke-width: 0.8"/>
      </g>
     </g>
     <g id="text_6">
      <!-- 1000 -->
      <g transform="translate(386.087252 322.182437) scale(0.1 -0.1)">
       <defs>
        <path id="DejaVuSans-31" d="M 794 531 
L 1825 531 
L 1825 4091 
L 703 3866 
L 703 4441 
L 1819 4666 
L 2450 4666 
L 2450 531 
L 3481 531 
L 3481 0 
L 794 0 
L 794 531 
z
" transform="scale(0.015625)"/>
       </defs>
       <use xlink:href="#DejaVuSans-31"/>
       <use xlink:href="#DejaVuSans-30" x="63.623047"/>
       <use xlink:href="#DejaVuSans-30" x="127.246094"/>
       <use xlink:href="#DejaVuSans-30" x="190.869141"/>
      </g>
     </g>
    </g>
    <g id="text_7">
     <!-- Train Step -->
     <g transform="translate(211.192031 335.860562) scale(0.1 -0.1)">
      <defs>
       <path id="DejaVuSans-54" d="M -19 4666 
L 3928 4666 
L 3928 4134 
L 2272 4134 
L 2272 0 
L 1638 0 
L 1638 4134 
L -19 4134 
L -19 4666 
z
" transform="scale(0.015625)"/>
       <path id="DejaVuSans-72" d="M 2631 2963 
Q 2534 3019 2420 3045 
Q 2306 3072 2169 3072 
Q 1681 3072 1420 2755 
Q 1159 2438 1159 1844 
L 1159 0 
L 581 0 
L 581 3500 
L 1159 3500 
L 1159 2956 
Q 1341 3275 1631 3429 
Q 1922 3584 2338 3584 
Q 2397 3584 2469 3576 
Q 2541 3569 2628 3553 
L 2631 2963 
z
" transform="scale(0.015625)"/>
       <path id="DejaVuSans-61" d="M 2194 1759 
Q 1497 1759 1228 1600 
Q 959 1441 959 1056 
Q 959 750 1161 570 
Q 1363 391 1709 391 
Q 2188 391 2477 730 
Q 2766 1069 2766 1631 
L 2766 1759 
L 2194 1759 
z
M 3341 1997 
L 3341 0 
L 2766 0 
L 2766 531 
Q 2569 213 2275 61 
Q 1981 -91 1556 -91 
Q 1019 -91 701 211 
Q 384 513 384 1019 
Q 384 1609 779 1909 
Q 1175 2209 1959 2209 
L 2766 2209 
L 2766 2266 
Q 2766 2663 2505 2880 
Q 2244 3097 1772 3097 
Q 1472 3097 1187 3025 
Q 903 2953 641 2809 
L 641 3341 
Q 956 3463 1253 3523 
Q 1550 3584 1831 3584 
Q 2591 3584 2966 3190 
Q 3341 2797 3341 1997 
z
" transform="scale(0.015625)"/>
       <path id="DejaVuSans-69" d="M 603 3500 
L 1178 3500 
L 1178 0 
L 603 0 
L 603 3500 
z
M 603 4863 
L 1178 4863 
L 1178 4134 
L 603 4134 
L 603 4863 
z
" transform="scale(0.015625)"/>
       <path id="DejaVuSans-6e" d="M 3513 2113 
L 3513 0 
L 2938 0 
L 2938 2094 
Q 2938 2591 2744 2837 
Q 2550 3084 2163 3084 
Q 1697 3084 1428 2787 
Q 1159 2491 1159 1978 
L 1159 0 
L 581 0 
L 581 3500 
L 1159 3500 
L 1159 2956 
Q 1366 3272 1645 3428 
Q 1925 3584 2291 3584 
Q 2894 3584 3203 3211 
Q 3513 2838 3513 2113 
z
" transform="scale(0.015625)"/>
       <path id="DejaVuSans-20" transform="scale(0.015625)"/>
       <path id="DejaVuSans-53" d="M 3425 4513 
L 3425 3897 
Q 3066 4069 2747 4153 
Q 2428 4238 2131 4238 
Q 1616 4238 1336 4038 
Q 1056 3838 1056 3469 
Q 1056 3159 1242 3001 
Q 1428 2844 1947 2747 
L 2328 2669 
Q 3034 2534 3370 2195 
Q 3706 1856 3706 1288 
Q 3706 609 3251 259 
Q 2797 -91 1919 -91 
Q 1588 -91 1214 -16 
Q 841 59 441 206 
L 441 856 
Q 825 641 1194 531 
Q 1563 422 1919 422 
Q 2459 422 2753 634 
Q 3047 847 3047 1241 
Q 3047 1584 2836 1778 
Q 2625 1972 2144 2069 
L 1759 2144 
Q 1053 2284 737 2584 
Q 422 2884 422 3419 
Q 422 4038 858 4394 
Q 1294 4750 2059 4750 
Q 2388 4750 2728 4690 
Q 3069 4631 3425 4513 
z
" transform="scale(0.015625)"/>
       <path id="DejaVuSans-74" d="M 1172 4494 
L 1172 3500 
L 2356 3500 
L 2356 3053 
L 1172 3053 
L 1172 1153 
Q 1172 725 1289 603 
Q 1406 481 1766 481 
L 2356 481 
L 2356 0 
L 1766 0 
Q 1100 0 847 248 
Q 594 497 594 1153 
L 594 3053 
L 172 3053 
L 172 3500 
L 594 3500 
L 594 4494 
L 1172 4494 
z
" transform="scale(0.015625)"/>
       <path id="DejaVuSans-65" d="M 3597 1894 
L 3597 1613 
L 953 1613 
Q 991 1019 1311 708 
Q 1631 397 2203 397 
Q 2534 397 2845 478 
Q 3156 559 3463 722 
L 3463 178 
Q 3153 47 2828 -22 
Q 2503 -91 2169 -91 
Q 1331 -91 842 396 
Q 353 884 353 1716 
Q 353 2575 817 3079 
Q 1281 3584 2069 3584 
Q 2775 3584 3186 3129 
Q 3597 2675 3597 1894 
z
M 3022 2063 
Q 3016 2534 2758 2815 
Q 2500 3097 2075 3097 
Q 1594 3097 1305 2825 
Q 1016 2553 972 2059 
L 3022 2063 
z
" transform="scale(0.015625)"/>
       <path id="DejaVuSans-70" d="M 1159 525 
L 1159 -1331 
L 581 -1331 
L 581 3500 
L 1159 3500 
L 1159 2969 
Q 1341 3281 1617 3432 
Q 1894 3584 2278 3584 
Q 2916 3584 3314 3078 
Q 3713 2572 3713 1747 
Q 3713 922 3314 415 
Q 2916 -91 2278 -91 
Q 1894 -91 1617 61 
Q 1341 213 1159 525 
z
M 3116 1747 
Q 3116 2381 2855 2742 
Q 2594 3103 2138 3103 
Q 1681 3103 1420 2742 
Q 1159 2381 1159 1747 
Q 1159 1113 1420 752 
Q 1681 391 2138 391 
Q 2594 391 2855 752 
Q 3116 1113 3116 1747 
z
" transform="scale(0.015625)"/>
      </defs>
      <use xlink:href="#DejaVuSans-54"/>
      <use xlink:href="#DejaVuSans-72" x="46.333984"/>
      <use xlink:href="#DejaVuSans-61" x="87.447266"/>
      <use xlink:href="#DejaVuSans-69" x="148.726562"/>
      <use xlink:href="#DejaVuSans-6e" x="176.509766"/>
      <use xlink:href="#DejaVuSans-20" x="239.888672"/>
      <use xlink:href="#DejaVuSans-53" x="271.675781"/>
      <use xlink:href="#DejaVuSans-74" x="335.152344"/>
      <use xlink:href="#DejaVuSans-65" x="374.361328"/>
      <use xlink:href="#DejaVuSans-70" x="435.884766"/>
     </g>
    </g>
   </g>
   <g id="matplotlib.axis_2">
    <g id="ytick_1">
     <g id="line2d_13">
      <path d="M 57.6 302.214793 
L 414.72 302.214793 
" clip-path="url(#pc6893f2497)" style="fill: none; stroke: #b0b0b0; stroke-width: 0.8; stroke-linecap: square"/>
     </g>
     <g id="line2d_14">
      <defs>
       <path id="m322cc79388" d="M 0 0 
L -3.5 0 
" style="stroke: #000000; stroke-width: 0.8"/>
      </defs>
      <g>
       <use xlink:href="#m322cc79388" x="57.6" y="302.214793" style="stroke: #000000; stroke-width: 0.8"/>
      </g>
     </g>
     <g id="text_8">
      <!-- 0.000 -->
      <g transform="translate(21.971875 306.014012) scale(0.1 -0.1)">
       <defs>
        <path id="DejaVuSans-2e" d="M 684 794 
L 1344 794 
L 1344 0 
L 684 0 
L 684 794 
z
" transform="scale(0.015625)"/>
       </defs>
       <use xlink:href="#DejaVuSans-30"/>
       <use xlink:href="#DejaVuSans-2e" x="63.623047"/>
       <use xlink:href="#DejaVuSans-30" x="95.410156"/>
       <use xlink:href="#DejaVuSans-30" x="159.033203"/>
       <use xlink:href="#DejaVuSans-30" x="222.65625"/>
      </g>
     </g>
    </g>
    <g id="ytick_2">
     <g id="line2d_15">
      <path d="M 57.6 267.634005 
L 414.72 267.634005 
" clip-path="url(#pc6893f2497)" style="fill: none; stroke: #b0b0b0; stroke-width: 0.8; stroke-linecap: square"/>
     </g>
     <g id="line2d_16">
      <g>
       <use xlink:href="#m322cc79388" x="57.6" y="267.634005" style="stroke: #000000; stroke-width: 0.8"/>
      </g>
     </g>
     <g id="text_9">
      <!-- 0.025 -->
      <g transform="translate(21.971875 271.433223) scale(0.1 -0.1)">
       <defs>
        <path id="DejaVuSans-35" d="M 691 4666 
L 3169 4666 
L 3169 4134 
L 1269 4134 
L 1269 2991 
Q 1406 3038 1543 3061 
Q 1681 3084 1819 3084 
Q 2600 3084 3056 2656 
Q 3513 2228 3513 1497 
Q 3513 744 3044 326 
Q 2575 -91 1722 -91 
Q 1428 -91 1123 -41 
Q 819 9 494 109 
L 494 744 
Q 775 591 1075 516 
Q 1375 441 1709 441 
Q 2250 441 2565 725 
Q 2881 1009 2881 1497 
Q 2881 1984 2565 2268 
Q 2250 2553 1709 2553 
Q 1456 2553 1204 2497 
Q 953 2441 691 2322 
L 691 4666 
z
" transform="scale(0.015625)"/>
       </defs>
       <use xlink:href="#DejaVuSans-30"/>
       <use xlink:href="#DejaVuSans-2e" x="63.623047"/>
       <use xlink:href="#DejaVuSans-30" x="95.410156"/>
       <use xlink:href="#DejaVuSans-32" x="159.033203"/>
       <use xlink:href="#DejaVuSans-35" x="222.65625"/>
      </g>
     </g>
    </g>
    <g id="ytick_3">
     <g id="line2d_17">
      <path d="M 57.6 233.053217 
L 414.72 233.053217 
" clip-path="url(#pc6893f2497)" style="fill: none; stroke: #b0b0b0; stroke-width: 0.8; stroke-linecap: square"/>
     </g>
     <g id="line2d_18">
      <g>
       <use xlink:href="#m322cc79388" x="57.6" y="233.053217" style="stroke: #000000; stroke-width: 0.8"/>
      </g>
     </g>
     <g id="text_10">
      <!-- 0.050 -->
      <g transform="translate(21.971875 236.852435) scale(0.1 -0.1)">
       <use xlink:href="#DejaVuSans-30"/>
       <use xlink:href="#DejaVuSans-2e" x="63.623047"/>
       <use xlink:href="#DejaVuSans-30" x="95.410156"/>
       <use xlink:href="#DejaVuSans-35" x="159.033203"/>
       <use xlink:href="#DejaVuSans-30" x="222.65625"/>
      </g>
     </g>
    </g>
    <g id="ytick_4">
     <g id="line2d_19">
      <path d="M 57.6 198.472428 
L 414.72 198.472428 
" clip-path="url(#pc6893f2497)" style="fill: none; stroke: #b0b0b0; stroke-width: 0.8; stroke-linecap: square"/>
     </g>
     <g id="line2d_20">
      <g>
       <use xlink:href="#m322cc79388" x="57.6" y="198.472428" style="stroke: #000000; stroke-width: 0.8"/>
      </g>
     </g>
     <g id="text_11">
      <!-- 0.075 -->
      <g transform="translate(21.971875 202.271647) scale(0.1 -0.1)">
       <defs>
        <path id="DejaVuSans-37" d="M 525 4666 
L 3525 4666 
L 3525 4397 
L 1831 0 
L 1172 0 
L 2766 4134 
L 525 4134 
L 525 4666 
z
" transform="scale(0.015625)"/>
       </defs>
       <use xlink:href="#DejaVuSans-30"/>
       <use xlink:href="#DejaVuSans-2e" x="63.623047"/>
       <use xlink:href="#DejaVuSans-30" x="95.410156"/>
       <use xlink:href="#DejaVuSans-37" x="159.033203"/>
       <use xlink:href="#DejaVuSans-35" x="222.65625"/>
      </g>
     </g>
    </g>
    <g id="ytick_5">
     <g id="line2d_21">
      <path d="M 57.6 163.89164 
L 414.72 163.89164 
" clip-path="url(#pc6893f2497)" style="fill: none; stroke: #b0b0b0; stroke-width: 0.8; stroke-linecap: square"/>
     </g>
     <g id="line2d_22">
      <g>
       <use xlink:href="#m322cc79388" x="57.6" y="163.89164" style="stroke: #000000; stroke-width: 0.8"/>
      </g>
     </g>
     <g id="text_12">
      <!-- 0.100 -->
      <g transform="translate(21.971875 167.690859) scale(0.1 -0.1)">
       <use xlink:href="#DejaVuSans-30"/>
       <use xlink:href="#DejaVuSans-2e" x="63.623047"/>
       <use xlink:href="#DejaVuSans-31" x="95.410156"/>
       <use xlink:href="#DejaVuSans-30" x="159.033203"/>
       <use xlink:href="#DejaVuSans-30" x="222.65625"/>
      </g>
     </g>
    </g>
    <g id="ytick_6">
     <g id="line2d_23">
      <path d="M 57.6 129.310852 
L 414.72 129.310852 
" clip-path="url(#pc6893f2497)" style="fill: none; stroke: #b0b0b0; stroke-width: 0.8; stroke-linecap: square"/>
     </g>
     <g id="line2d_24">
      <g>
       <use xlink:href="#m322cc79388" x="57.6" y="129.310852" style="stroke: #000000; stroke-width: 0.8"/>
      </g>
     </g>
     <g id="text_13">
      <!-- 0.125 -->
      <g transform="translate(21.971875 133.110071) scale(0.1 -0.1)">
       <use xlink:href="#DejaVuSans-30"/>
       <use xlink:href="#DejaVuSans-2e" x="63.623047"/>
       <use xlink:href="#DejaVuSans-31" x="95.410156"/>
       <use xlink:href="#DejaVuSans-32" x="159.033203"/>
       <use xlink:href="#DejaVuSans-35" x="222.65625"/>
      </g>
     </g>
    </g>
    <g id="ytick_7">
     <g id="line2d_25">
      <path d="M 57.6 94.730064 
L 414.72 94.730064 
" clip-path="url(#pc6893f2497)" style="fill: none; stroke: #b0b0b0; stroke-width: 0.8; stroke-linecap: square"/>
     </g>
     <g id="line2d_26">
      <g>
       <use xlink:href="#m322cc79388" x="57.6" y="94.730064" style="stroke: #000000; stroke-width: 0.8"/>
      </g>
     </g>
     <g id="text_14">
      <!-- 0.150 -->
      <g transform="translate(21.971875 98.529283) scale(0.1 -0.1)">
       <use xlink:href="#DejaVuSans-30"/>
       <use xlink:href="#DejaVuSans-2e" x="63.623047"/>
       <use xlink:href="#DejaVuSans-31" x="95.410156"/>
       <use xlink:href="#DejaVuSans-35" x="159.033203"/>
       <use xlink:href="#DejaVuSans-30" x="222.65625"/>
      </g>
     </g>
    </g>
    <g id="ytick_8">
     <g id="line2d_27">
      <path d="M 57.6 60.149276 
L 414.72 60.149276 
" clip-path="url(#pc6893f2497)" style="fill: none; stroke: #b0b0b0; stroke-width: 0.8; stroke-linecap: square"/>
     </g>
     <g id="line2d_28">
      <g>
       <use xlink:href="#m322cc79388" x="57.6" y="60.149276" style="stroke: #000000; stroke-width: 0.8"/>
      </g>
     </g>
     <g id="text_15">
      <!-- 0.175 -->
      <g transform="translate(21.971875 63.948495) scale(0.1 -0.1)">
       <use xlink:href="#DejaVuSans-30"/>
       <use xlink:href="#DejaVuSans-2e" x="63.623047"/>
       <use xlink:href="#DejaVuSans-31" x="95.410156"/>
       <use xlink:href="#DejaVuSans-37" x="159.033203"/>
       <use xlink:href="#DejaVuSans-35" x="222.65625"/>
      </g>
     </g>
    </g>
    <g id="text_16">
     <!-- Loss -->
     <g transform="translate(15.892188 185.495187) rotate(-90) scale(0.1 -0.1)">
      <defs>
       <path id="DejaVuSans-4c" d="M 628 4666 
L 1259 4666 
L 1259 531 
L 3531 531 
L 3531 0 
L 628 0 
L 628 4666 
z
" transform="scale(0.015625)"/>
       <path id="DejaVuSans-6f" d="M 1959 3097 
Q 1497 3097 1228 2736 
Q 959 2375 959 1747 
Q 959 1119 1226 758 
Q 1494 397 1959 397 
Q 2419 397 2687 759 
Q 2956 1122 2956 1747 
Q 2956 2369 2687 2733 
Q 2419 3097 1959 3097 
z
M 1959 3584 
Q 2709 3584 3137 3096 
Q 3566 2609 3566 1747 
Q 3566 888 3137 398 
Q 2709 -91 1959 -91 
Q 1206 -91 779 398 
Q 353 888 353 1747 
Q 353 2609 779 3096 
Q 1206 3584 1959 3584 
z
" transform="scale(0.015625)"/>
       <path id="DejaVuSans-73" d="M 2834 3397 
L 2834 2853 
Q 2591 2978 2328 3040 
Q 2066 3103 1784 3103 
Q 1356 3103 1142 2972 
Q 928 2841 928 2578 
Q 928 2378 1081 2264 
Q 1234 2150 1697 2047 
L 1894 2003 
Q 2506 1872 2764 1633 
Q 3022 1394 3022 966 
Q 3022 478 2636 193 
Q 2250 -91 1575 -91 
Q 1294 -91 989 -36 
Q 684 19 347 128 
L 347 722 
Q 666 556 975 473 
Q 1284 391 1588 391 
Q 1994 391 2212 530 
Q 2431 669 2431 922 
Q 2431 1156 2273 1281 
Q 2116 1406 1581 1522 
L 1381 1569 
Q 847 1681 609 1914 
Q 372 2147 372 2553 
Q 372 3047 722 3315 
Q 1072 3584 1716 3584 
Q 2034 3584 2315 3537 
Q 2597 3491 2834 3397 
z
" transform="scale(0.015625)"/>
      </defs>
      <use xlink:href="#DejaVuSans-4c"/>
      <use xlink:href="#DejaVuSans-6f" x="53.962891"/>
      <use xlink:href="#DejaVuSans-73" x="115.144531"/>
      <use xlink:href="#DejaVuSans-73" x="167.244141"/>
     </g>
    </g>
   </g>
   <g id="line2d_29">
    <path d="M 73.832727 208.256794 
L 74.157707 169.300575 
L 74.482686 226.391228 
L 74.807666 209.98815 
L 75.132645 186.349816 
L 75.782604 193.886175 
L 76.107584 201.667762 
L 76.432563 190.174616 
L 76.757543 222.666606 
L 77.082523 216.102422 
L 77.407502 220.588864 
L 77.732482 182.413043 
L 78.057461 220.835298 
L 78.382441 219.979952 
L 78.70742 202.089643 
L 79.357379 229.248847 
L 79.682359 192.34054 
L 80.007338 215.551037 
L 80.332318 211.912258 
L 80.657297 206.278931 
L 80.982277 226.941902 
L 81.307256 184.451257 
L 81.632236 213.182756 
L 81.957215 217.936332 
L 82.282195 234.826167 
L 82.607174 210.635267 
L 82.932154 230.634575 
L 83.257133 226.361784 
L 83.582113 243.757673 
L 83.907093 224.893176 
L 84.232072 221.792689 
L 84.557052 225.241097 
L 84.882031 236.652677 
L 85.207011 241.513383 
L 85.53199 212.799295 
L 86.181949 254.2271 
L 86.506929 234.024782 
L 86.831908 238.505319 
L 87.156888 246.601065 
L 87.481867 232.426536 
L 87.806847 232.429761 
L 88.131826 257.756096 
L 88.456806 235.706052 
L 88.781785 249.254777 
L 89.106765 248.285664 
L 89.431744 244.008766 
L 89.756724 254.520978 
L 90.081704 226.072014 
L 90.406683 224.584654 
L 90.731663 233.408871 
L 91.056642 235.291065 
L 91.381622 235.104868 
L 91.706601 245.306693 
L 92.031581 241.261543 
L 92.35656 231.631684 
L 92.68154 242.845242 
L 93.006519 243.684558 
L 93.331499 257.636589 
L 93.656478 257.16073 
L 93.981458 224.994194 
L 94.306437 243.468959 
L 94.631417 250.305544 
L 94.956396 249.094057 
L 95.281376 250.640191 
L 95.606355 263.252295 
L 96.256314 260.121869 
L 96.581294 265.145096 
L 96.906274 233.674005 
L 97.231253 256.135522 
L 97.556233 250.282031 
L 97.881212 250.132132 
L 98.206192 253.699826 
L 98.531171 251.838502 
L 98.856151 263.515644 
L 99.18113 260.087303 
L 99.50611 241.269932 
L 99.831089 228.963271 
L 100.481048 264.778289 
L 100.806028 260.355534 
L 101.131007 268.433815 
L 102.105946 252.760641 
L 102.430925 262.846007 
L 102.755905 268.520351 
L 103.080885 260.875281 
L 103.405864 260.78574 
L 103.730844 271.803062 
L 104.055823 266.108734 
L 104.380803 254.59955 
L 104.705782 261.610571 
L 105.030762 261.167676 
L 105.355741 266.076296 
L 106.0057 256.965511 
L 106.33068 266.730264 
L 106.655659 247.599782 
L 106.980639 268.398103 
L 107.305618 267.206993 
L 107.630598 265.505485 
L 107.955577 268.483358 
L 108.280557 267.417771 
L 108.605536 275.501604 
L 109.255495 266.484468 
L 109.580475 252.18126 
L 109.905455 263.182341 
L 110.230434 261.566738 
L 110.555414 266.97308 
L 110.880393 249.228095 
L 111.205373 259.36691 
L 111.530352 259.79516 
L 111.855332 280.766643 
L 112.180311 270.836061 
L 112.505291 265.020315 
L 112.83027 265.973596 
L 113.15525 265.876947 
L 113.480229 262.899043 
L 113.805209 281.230423 
L 114.455168 244.685393 
L 114.780147 250.486257 
L 115.105127 272.731178 
L 115.430106 272.222975 
L 115.755086 255.177354 
L 116.080066 247.234701 
L 116.405045 257.833972 
L 116.730025 252.683259 
L 117.055004 261.145519 
L 117.379984 249.381065 
L 117.704963 264.056465 
L 118.029943 236.785355 
L 118.679902 266.944368 
L 119.004881 262.696966 
L 119.329861 280.230822 
L 119.65484 265.266963 
L 119.97982 269.324421 
L 120.629779 253.024667 
L 120.954758 255.737066 
L 121.604717 267.629421 
L 121.929697 270.879956 
L 122.254676 269.963607 
L 122.579656 257.764165 
L 122.904636 265.052078 
L 123.229615 258.108397 
L 123.554595 264.254586 
L 123.879574 274.837576 
L 124.204554 273.615909 
L 124.529533 271.835177 
L 124.854513 269.409238 
L 125.179492 252.047196 
L 125.504472 267.689661 
L 125.829451 252.231352 
L 126.154431 266.500422 
L 126.47941 272.732149 
L 126.80439 265.16418 
L 127.129369 268.99049 
L 127.454349 260.770529 
L 127.779328 274.308307 
L 128.104308 274.273527 
L 128.429287 273.009303 
L 128.754267 258.451289 
L 129.079247 276.488018 
L 129.404226 268.532133 
L 129.729206 268.539458 
L 130.054185 266.812383 
L 130.379165 279.245253 
L 130.704144 262.192047 
L 131.029124 264.938378 
L 131.354103 274.940998 
L 131.679083 274.306102 
L 132.004062 274.133689 
L 132.329042 275.354807 
L 132.654021 277.211661 
L 132.979001 260.308375 
L 133.30398 269.355993 
L 133.62896 270.556298 
L 133.953939 258.639021 
L 134.278919 275.883591 
L 134.603898 266.908233 
L 134.928878 272.601484 
L 135.253857 275.333976 
L 135.578837 263.438976 
L 135.903817 276.306346 
L 136.228796 275.550155 
L 136.553776 276.395428 
L 136.878755 267.801498 
L 137.203735 266.037521 
L 137.528714 273.64736 
L 137.853694 270.923725 
L 138.178673 263.444142 
L 138.503653 271.403557 
L 138.828632 267.362393 
L 139.153612 280.985958 
L 139.478591 274.041308 
L 139.803571 278.439712 
L 140.12855 274.172666 
L 140.45353 272.06808 
L 140.778509 279.238276 
L 141.103489 281.012644 
L 141.428468 272.617373 
L 141.753448 279.078135 
L 142.078428 263.436814 
L 142.403407 275.314692 
L 142.728387 260.16891 
L 143.053366 279.197766 
L 143.378346 258.351616 
L 143.703325 270.690259 
L 144.028305 278.670193 
L 144.678264 278.043338 
L 145.003243 276.68536 
L 145.328223 276.932642 
L 145.653202 285.330216 
L 145.978182 267.60134 
L 146.303161 279.454867 
L 146.628141 278.493104 
L 146.95312 278.916637 
L 147.2781 266.629243 
L 147.603079 259.719621 
L 147.928059 281.079912 
L 148.253038 277.551995 
L 148.578018 280.602773 
L 148.902998 268.323766 
L 149.227977 278.181545 
L 149.552957 264.155958 
L 149.877936 264.470749 
L 150.527895 281.166016 
L 150.852875 273.001153 
L 151.177854 278.103903 
L 151.502834 265.951564 
L 151.827813 280.894941 
L 153.127731 268.243994 
L 153.452711 276.09167 
L 153.77769 257.827485 
L 154.10267 276.330702 
L 154.427649 264.895632 
L 155.077609 280.98119 
L 155.402588 271.399555 
L 155.727568 271.575168 
L 156.052547 277.609311 
L 156.377527 261.734706 
L 156.702506 266.701034 
L 157.027486 274.30318 
L 157.352465 262.448532 
L 157.677445 278.780399 
L 158.002424 273.696715 
L 158.327404 260.341825 
L 158.652383 262.284782 
L 158.977363 276.351597 
L 159.302342 277.177688 
L 159.627322 277.463946 
L 159.952301 283.136298 
L 160.277281 258.585276 
L 160.60226 277.397272 
L 160.92724 285.670639 
L 161.252219 278.829568 
L 161.577199 278.953334 
L 161.902179 267.010493 
L 162.227158 277.311754 
L 162.552138 283.326174 
L 162.877117 284.218956 
L 163.202097 280.489288 
L 163.527076 273.530172 
L 163.852056 278.283591 
L 164.177035 280.983062 
L 164.502015 280.200335 
L 165.151974 285.748997 
L 165.476953 267.783772 
L 165.801933 279.38802 
L 166.126912 279.130025 
L 166.451892 284.200309 
L 166.776871 283.574701 
L 167.101851 274.680973 
L 167.42683 269.818232 
L 167.75181 283.148149 
L 168.07679 280.238665 
L 168.401769 282.043519 
L 168.726749 280.610777 
L 169.051728 282.425151 
L 169.376708 274.188432 
L 169.701687 285.430789 
L 170.026667 283.340215 
L 170.351646 270.228097 
L 170.676626 273.888652 
L 171.326585 286.429319 
L 171.651564 275.28019 
L 171.976544 280.769947 
L 172.301523 279.686548 
L 172.626503 281.900454 
L 172.951482 285.939611 
L 173.276462 283.402344 
L 173.601441 278.070844 
L 173.926421 281.402512 
L 174.2514 268.32255 
L 174.57638 282.627199 
L 174.90136 287.932773 
L 175.226339 281.806126 
L 175.551319 284.076621 
L 175.876298 273.453605 
L 176.201278 277.59059 
L 176.526257 283.673622 
L 176.851237 281.004327 
L 177.176216 275.167902 
L 177.501196 267.284212 
L 177.826175 287.842616 
L 178.151155 288.620425 
L 178.476134 283.070996 
L 178.801114 254.536302 
L 179.126093 283.759492 
L 179.451073 288.189531 
L 179.776052 274.804203 
L 180.426011 285.122882 
L 181.075971 270.961669 
L 181.40095 278.003209 
L 181.72593 281.778223 
L 182.700868 286.37425 
L 183.025848 281.751381 
L 183.350827 273.613065 
L 183.675807 284.316502 
L 184.000786 277.372894 
L 184.325766 276.385374 
L 184.650745 283.398665 
L 184.975725 273.029373 
L 185.300704 272.238104 
L 185.625684 278.720679 
L 185.950663 279.186097 
L 186.275643 261.704613 
L 186.600622 284.992594 
L 186.925602 279.601911 
L 187.250581 287.596668 
L 187.900541 268.849768 
L 188.22552 284.98166 
L 188.5505 290.438468 
L 189.200459 281.03756 
L 189.525438 273.39062 
L 189.850418 283.582413 
L 190.175397 279.308588 
L 190.500377 278.502209 
L 190.825356 278.017975 
L 191.150336 276.392552 
L 191.475315 285.589799 
L 191.800295 268.657156 
L 192.125274 287.159147 
L 192.775233 273.369908 
L 193.425192 282.81845 
L 193.750172 284.114367 
L 194.075152 288.600196 
L 194.400131 275.431277 
L 194.725111 281.216145 
L 195.05009 281.970244 
L 195.37507 274.33922 
L 195.700049 271.811095 
L 196.025029 283.840725 
L 196.350008 285.528681 
L 196.674988 281.300679 
L 196.999967 258.638114 
L 197.324947 284.048441 
L 197.649926 264.251234 
L 197.974906 283.449764 
L 198.299885 285.337164 
L 198.624865 278.489551 
L 198.949844 269.013307 
L 199.274824 268.127305 
L 199.599803 282.346618 
L 199.924783 270.586494 
L 200.249762 272.780989 
L 200.574742 274.040303 
L 200.899722 278.262817 
L 201.224701 271.974008 
L 201.549681 286.785724 
L 201.87466 283.589433 
L 202.19964 278.564246 
L 202.524619 279.987243 
L 202.849599 277.923037 
L 203.174578 286.527428 
L 203.499558 270.475018 
L 203.824537 279.426255 
L 204.149517 284.471311 
L 204.474496 281.679657 
L 204.799476 291.27908 
L 205.124455 273.61483 
L 205.449435 280.694217 
L 205.774414 281.088748 
L 206.099394 281.306832 
L 206.424373 282.517884 
L 207.074333 278.810469 
L 207.399312 278.608909 
L 208.049271 289.569791 
L 208.374251 270.707645 
L 208.69923 283.348023 
L 209.02421 290.286271 
L 209.349189 284.204838 
L 209.674169 290.662849 
L 209.999148 282.786465 
L 210.324128 280.50542 
L 210.649107 280.164542 
L 210.974087 282.58835 
L 211.299066 282.066586 
L 211.624046 289.439197 
L 212.274005 276.248002 
L 212.598984 288.114498 
L 212.923964 282.960094 
L 213.248943 288.505766 
L 213.573923 282.770846 
L 213.898903 284.333289 
L 214.223882 276.066778 
L 214.548862 286.518512 
L 214.873841 290.643241 
L 215.198821 285.304862 
L 215.5238 286.825417 
L 215.84878 282.035705 
L 216.173759 289.454387 
L 216.498739 275.366131 
L 216.823718 285.654138 
L 217.148698 285.46043 
L 217.473677 280.312038 
L 217.798657 278.579444 
L 218.123636 286.185299 
L 218.448616 284.256075 
L 218.773595 262.220867 
L 219.098575 268.182777 
L 219.423554 278.537149 
L 219.748534 283.501833 
L 220.073514 270.397232 
L 220.398493 270.234698 
L 220.723473 280.227558 
L 221.373432 285.854246 
L 221.698411 271.241023 
L 222.023391 272.950799 
L 222.67335 288.588892 
L 222.998329 282.450449 
L 223.323309 278.69453 
L 223.973268 292.020443 
L 224.623227 273.823797 
L 224.948206 274.587929 
L 225.273186 285.853016 
L 225.598165 274.404899 
L 225.923145 286.644929 
L 226.248124 278.546919 
L 226.573104 282.525244 
L 226.898084 265.827868 
L 227.223063 283.519013 
L 227.548043 283.929904 
L 227.873022 274.796051 
L 228.198002 272.493733 
L 228.522981 278.728068 
L 228.847961 280.893113 
L 229.49792 274.975842 
L 229.822899 286.418042 
L 230.147879 277.035309 
L 230.472858 285.630908 
L 230.797838 275.07491 
L 231.122817 283.576382 
L 231.447797 288.615243 
L 232.097756 281.922894 
L 232.422735 274.8785 
L 232.747715 286.335475 
L 233.072695 283.731926 
L 233.397674 284.513148 
L 233.722654 272.950758 
L 234.047633 285.796907 
L 234.372613 289.389293 
L 234.697592 282.664044 
L 235.347551 286.553915 
L 235.672531 278.763234 
L 235.99751 287.030009 
L 236.32249 283.187788 
L 236.647469 283.042782 
L 236.972449 283.165543 
L 237.297428 274.564658 
L 237.622408 277.295739 
L 237.947387 287.782127 
L 238.272367 283.994933 
L 238.597346 275.610767 
L 238.922326 278.573508 
L 239.247305 274.682045 
L 239.572285 284.362999 
L 239.897265 276.997976 
L 240.222244 273.000246 
L 240.547224 275.183938 
L 240.872203 288.92902 
L 241.197183 287.446449 
L 241.522162 278.810389 
L 241.847142 277.791276 
L 242.172121 284.545415 
L 242.497101 266.767898 
L 242.82208 280.648317 
L 243.14706 269.973346 
L 243.797019 287.746505 
L 244.121998 281.620705 
L 244.446978 261.554971 
L 244.771957 286.734641 
L 245.096937 287.053716 
L 245.746896 275.833562 
L 246.071876 282.408184 
L 246.396855 280.516449 
L 247.046814 284.891025 
L 247.371794 281.540208 
L 247.696773 265.823594 
L 248.021753 284.344028 
L 248.346732 276.988492 
L 248.671712 279.138976 
L 248.996691 287.841898 
L 249.321671 278.113572 
L 249.64665 273.999378 
L 249.97163 281.238983 
L 250.621589 289.027695 
L 250.946568 279.449049 
L 251.271548 281.265582 
L 251.596527 277.79847 
L 251.921507 278.196573 
L 252.246486 275.175475 
L 252.571466 278.551077 
L 252.896446 278.280569 
L 253.221425 285.51973 
L 253.546405 285.177521 
L 253.871384 285.576227 
L 254.196364 285.221342 
L 254.521343 289.937139 
L 254.846323 282.830473 
L 255.171302 283.325932 
L 255.496282 280.294242 
L 255.821261 287.327256 
L 256.146241 289.654335 
L 256.47122 277.964088 
L 256.7962 285.793247 
L 257.121179 279.332897 
L 257.771138 286.118412 
L 258.096118 285.063159 
L 258.421097 280.831973 
L 258.746077 280.704158 
L 259.071057 290.90159 
L 259.396036 285.039683 
L 259.721016 284.888093 
L 260.045995 282.190563 
L 260.370975 291.244432 
L 260.695954 293.187911 
L 261.020934 279.947467 
L 261.345913 281.485853 
L 261.670893 288.299552 
L 261.995872 283.514292 
L 262.320852 283.458481 
L 262.645831 290.993303 
L 262.970811 280.872643 
L 263.29579 285.653158 
L 263.62077 288.292687 
L 263.945749 286.812214 
L 264.270729 289.282788 
L 264.595708 289.212531 
L 264.920688 285.285076 
L 265.245667 285.653717 
L 265.570647 290.15079 
L 265.895627 292.795506 
L 266.220606 278.913579 
L 266.545586 292.354699 
L 266.870565 278.67197 
L 267.195545 287.097334 
L 267.520524 281.918984 
L 267.845504 281.897827 
L 268.170483 287.025898 
L 268.495463 284.708658 
L 268.820442 284.855936 
L 269.145422 289.530456 
L 269.470401 292.459789 
L 269.795381 285.269236 
L 270.12036 287.304595 
L 270.44534 280.75712 
L 270.770319 290.237756 
L 271.095299 292.506058 
L 271.745258 287.229888 
L 272.395217 284.576616 
L 272.720197 292.603685 
L 273.045176 285.939064 
L 273.695135 289.06066 
L 274.020115 289.308756 
L 274.345094 282.575738 
L 274.670074 285.225503 
L 274.995053 285.630712 
L 275.320033 288.893644 
L 275.645012 290.265328 
L 275.969992 285.201901 
L 276.294971 289.314116 
L 276.619951 289.205937 
L 276.94493 289.519358 
L 277.26991 292.285254 
L 277.594889 287.071873 
L 277.919869 284.147959 
L 278.244848 285.558625 
L 278.569828 285.433766 
L 278.894808 285.882783 
L 279.219787 283.899332 
L 279.544767 286.614368 
L 279.869746 278.447663 
L 280.194726 277.421646 
L 280.519705 286.901805 
L 280.844685 278.469991 
L 281.169664 286.927995 
L 281.494644 281.721616 
L 281.819623 269.215457 
L 282.469582 289.856096 
L 282.794562 273.770363 
L 283.119541 285.952736 
L 283.444521 281.635695 
L 283.7695 286.312705 
L 284.09448 281.823865 
L 284.419459 280.770741 
L 284.744439 278.483646 
L 285.069419 286.719564 
L 285.394398 279.455799 
L 285.719378 286.84334 
L 286.044357 287.626059 
L 286.369337 279.838957 
L 286.694316 286.933726 
L 287.019296 288.565278 
L 287.344275 285.115929 
L 287.669255 289.196502 
L 287.994234 276.025184 
L 288.319214 285.352775 
L 288.644193 281.067421 
L 288.969173 281.695788 
L 289.294152 277.823591 
L 289.619132 281.966694 
L 289.944111 282.308084 
L 290.269091 288.251074 
L 290.59407 285.791124 
L 290.91905 288.869553 
L 291.244029 277.850157 
L 291.569009 289.226471 
L 291.893989 287.654911 
L 292.218968 288.16852 
L 292.543948 283.656241 
L 292.868927 285.189803 
L 293.193907 288.72276 
L 293.518886 288.260089 
L 293.843866 290.632666 
L 294.168845 285.310283 
L 294.493825 282.825596 
L 294.818804 290.721491 
L 295.143784 290.644506 
L 295.468763 290.904503 
L 295.793743 291.824733 
L 296.118722 289.044439 
L 296.443702 278.08622 
L 296.768681 289.435324 
L 297.093661 291.026733 
L 297.41864 286.001591 
L 297.74362 292.351519 
L 298.0686 291.800301 
L 298.393579 280.448207 
L 298.718559 288.30358 
L 299.043538 275.995503 
L 299.368518 294.014171 
L 299.693497 271.793261 
L 300.018477 284.82522 
L 300.343456 284.510516 
L 300.668436 282.090334 
L 301.318395 289.547311 
L 301.643374 283.314113 
L 301.968354 285.655917 
L 302.293333 283.921608 
L 302.618313 293.678882 
L 303.268272 286.217288 
L 303.593251 284.607252 
L 303.918231 282.087608 
L 304.24321 288.973052 
L 304.56819 285.530758 
L 304.89317 293.167434 
L 305.218149 281.575898 
L 305.543129 285.254301 
L 305.868108 293.603007 
L 306.193088 289.31361 
L 306.518067 283.183195 
L 307.168026 286.804417 
L 307.493006 287.740778 
L 307.817985 282.153614 
L 308.142965 291.763035 
L 308.467944 290.397799 
L 308.792924 284.847277 
L 309.117903 282.884378 
L 309.767862 291.835795 
L 310.092842 287.236348 
L 310.417821 288.968433 
L 311.067781 285.44585 
L 311.39276 291.956219 
L 311.71774 283.102229 
L 312.367699 288.617052 
L 312.692678 284.888191 
L 313.017658 283.435707 
L 313.342637 291.408045 
L 313.667617 293.365381 
L 313.992596 290.870654 
L 314.317576 290.958414 
L 314.642555 281.428451 
L 314.967535 282.922473 
L 315.292514 280.722658 
L 315.617494 290.294308 
L 315.942473 288.207896 
L 316.267453 291.878567 
L 316.592432 291.325847 
L 316.917412 288.709079 
L 317.242391 287.877839 
L 317.567371 278.268217 
L 317.892351 288.385501 
L 318.54231 292.312645 
L 318.867289 292.123344 
L 319.192269 282.820289 
L 319.517248 289.329117 
L 319.842228 291.883605 
L 320.167207 289.006123 
L 320.492187 287.366791 
L 320.817166 286.470587 
L 321.467125 292.643773 
L 321.792105 283.842525 
L 322.117084 291.216699 
L 322.442064 289.591025 
L 323.092023 292.21905 
L 323.417002 285.771614 
L 323.741982 286.000045 
L 324.066962 288.647819 
L 324.391941 283.47691 
L 324.716921 290.52415 
L 325.0419 289.873539 
L 325.36688 291.744945 
L 325.691859 292.681685 
L 326.016839 291.523983 
L 326.341818 282.889087 
L 326.666798 283.908847 
L 326.991777 289.139956 
L 327.316757 288.806133 
L 327.641736 288.905343 
L 327.966716 285.111091 
L 328.291695 288.042514 
L 328.616675 284.389813 
L 328.941654 289.526571 
L 329.266634 284.579208 
L 329.591613 288.300072 
L 329.916593 286.299163 
L 330.566552 279.57207 
L 330.891532 285.482113 
L 331.216511 283.608083 
L 331.541491 287.199766 
L 331.86647 288.417612 
L 332.19145 277.938444 
L 332.841409 284.666267 
L 333.166388 286.318672 
L 333.816347 284.657797 
L 334.141327 290.819155 
L 334.466306 280.596006 
L 334.791286 279.115597 
L 335.116265 287.790186 
L 335.441245 281.862339 
L 336.091204 286.399675 
L 336.416183 284.258554 
L 336.741163 279.202038 
L 337.066143 288.463969 
L 337.391122 282.027581 
L 337.716102 290.500193 
L 338.041081 290.734829 
L 338.366061 289.513441 
L 339.01602 271.587354 
L 339.340999 285.893838 
L 339.665979 281.257543 
L 339.990958 286.765788 
L 340.315938 290.252831 
L 340.640917 288.080532 
L 340.965897 278.905764 
L 341.290876 285.588078 
L 341.615856 288.467459 
L 341.940835 279.580158 
L 342.265815 286.608083 
L 342.590794 291.09809 
L 342.915774 287.026342 
L 343.240753 287.729397 
L 343.565733 285.383538 
L 343.890713 290.455573 
L 344.215692 287.288917 
L 344.540672 289.80249 
L 344.865651 287.120031 
L 345.190631 292.771427 
L 345.51561 290.379068 
L 345.84059 291.562349 
L 346.165569 290.944616 
L 346.490549 288.079379 
L 346.815528 286.525937 
L 347.140508 285.979561 
L 347.465487 286.751783 
L 347.790467 292.419037 
L 348.115446 287.409209 
L 348.440426 293.87358 
L 348.765405 287.299543 
L 349.090385 291.403569 
L 349.415364 289.427973 
L 349.740344 292.543486 
L 350.065324 280.771647 
L 350.390303 290.115668 
L 350.715283 294.993548 
L 351.040262 288.992054 
L 351.365242 294.479766 
L 351.690221 287.015103 
L 352.015201 288.234914 
L 352.34018 284.877277 
L 352.66516 286.672478 
L 353.315119 284.301184 
L 353.640098 289.341598 
L 353.965078 290.294539 
L 354.290057 290.006361 
L 354.615037 293.181409 
L 354.940016 289.99284 
L 355.264996 291.401877 
L 355.589975 281.64706 
L 355.914955 289.923721 
L 356.239934 289.008924 
L 356.564914 285.789301 
L 356.889894 286.922189 
L 357.214873 287.579467 
L 357.539853 290.011952 
L 357.864832 289.267177 
L 358.189812 286.728954 
L 358.514791 278.124007 
L 358.839771 294.289537 
L 359.48973 285.246058 
L 359.814709 288.904851 
L 360.139689 294.034116 
L 360.464668 286.536385 
L 361.114627 294.903478 
L 361.439607 295.488 
L 361.764586 289.231171 
L 362.089566 290.703208 
L 362.414545 290.569044 
L 363.064505 287.374479 
L 363.714464 282.405597 
L 364.039443 288.752096 
L 364.364423 284.343363 
L 364.689402 293.346982 
L 365.014382 285.541576 
L 365.339361 283.325851 
L 365.664341 292.883985 
L 365.98932 289.377512 
L 366.3143 289.947692 
L 366.639279 288.360703 
L 366.964259 288.688419 
L 367.289238 287.658718 
L 367.614218 289.026754 
L 367.939197 292.206262 
L 368.264177 281.483083 
L 368.914136 290.108111 
L 369.239115 282.172689 
L 369.564095 293.223569 
L 369.889075 284.779432 
L 370.214054 286.683578 
L 370.539034 290.975495 
L 370.864013 286.400973 
L 371.188993 280.230783 
L 371.513972 284.612548 
L 371.838952 281.588535 
L 372.163931 280.565418 
L 372.488911 272.042204 
L 372.81389 289.911146 
L 373.13887 273.448851 
L 373.463849 279.126083 
L 373.788829 282.401839 
L 374.113808 279.620018 
L 374.438788 290.534742 
L 374.763767 280.781709 
L 375.088747 283.552776 
L 375.738706 281.238148 
L 376.063686 287.060638 
L 376.388665 280.166434 
L 376.713645 282.153673 
L 377.038624 285.349502 
L 377.363604 282.622867 
L 377.688583 287.069495 
L 378.013563 284.478852 
L 378.338542 280.787475 
L 378.663522 274.638698 
L 378.988501 287.519878 
L 379.63846 276.956353 
L 379.96344 286.398605 
L 380.288419 278.410083 
L 380.613399 279.963194 
L 380.938378 276.980655 
L 381.263358 293.653245 
L 381.588337 285.183112 
L 381.913317 285.153936 
L 382.238296 271.711146 
L 382.563276 271.250752 
L 382.888256 282.806171 
L 383.213235 285.106831 
L 383.538215 278.336545 
L 383.863194 278.724368 
L 384.188174 286.48847 
L 384.513153 281.539386 
L 384.838133 285.973009 
L 385.163112 285.049486 
L 385.488092 289.503864 
L 385.813071 287.889928 
L 386.138051 288.053013 
L 386.46303 293.212608 
L 386.78801 283.237163 
L 387.112989 287.151758 
L 387.437969 286.230927 
L 387.762948 292.628281 
L 388.087928 280.917854 
L 388.412907 282.890438 
L 389.062867 292.084563 
L 389.387846 286.392271 
L 389.712826 285.786575 
L 390.037805 288.191018 
L 390.362785 288.012534 
L 390.687764 291.971122 
L 391.337723 284.123722 
L 391.662703 287.001262 
L 391.987682 291.341382 
L 392.312662 284.786949 
L 392.637641 286.820015 
L 392.962621 287.276308 
L 393.2876 288.771297 
L 393.61258 287.608832 
L 393.937559 273.885204 
L 394.262539 280.615784 
L 394.587518 291.854013 
L 394.912498 276.244411 
L 395.237477 294.8603 
L 395.562457 278.208149 
L 395.887437 294.318086 
L 396.212416 285.18686 
L 396.537396 293.877669 
L 396.862375 291.7551 
L 397.187355 291.342822 
L 397.512334 290.31451 
L 397.837314 294.731898 
L 398.162293 289.927597 
L 398.487273 292.901743 
L 398.487273 292.901743 
" clip-path="url(#pc6893f2497)" style="fill: none; stroke: #1f77b4; stroke-width: 1.5; stroke-linecap: square"/>
   </g>
   <g id="line2d_30">
    <path d="M 73.832727 194.119645 
L 77.082523 204.21031 
L 80.332318 210.882652 
L 83.582113 215.810117 
L 86.831908 213.736576 
L 90.081704 208.932137 
L 93.331499 213.142141 
L 96.581294 163.236553 
L 99.831089 195.561983 
L 103.080885 170.126326 
L 106.33068 142.877825 
L 109.580475 100.467751 
L 112.83027 90.192921 
L 116.080066 53.568 
L 119.329861 113.860413 
L 122.579656 168.23195 
L 125.829451 98.413737 
L 129.079247 114.853663 
L 132.329042 91.641929 
L 135.578837 103.027971 
L 138.828632 100.623059 
L 142.078428 79.802646 
L 145.328223 112.670805 
L 148.578018 95.458757 
L 151.827813 96.106129 
L 155.077609 116.758901 
L 158.327404 102.646055 
L 161.577199 83.500502 
L 164.826994 97.283402 
L 168.07679 106.154148 
L 171.326585 111.798409 
L 174.57638 88.904387 
L 177.826175 110.429271 
L 181.075971 134.80068 
L 184.325766 136.176516 
L 187.575561 136.24716 
L 190.825356 124.511187 
L 194.075152 138.989154 
L 197.324947 90.869861 
L 200.574742 130.584937 
L 203.824537 135.079083 
L 207.074333 118.728231 
L 210.324128 104.213626 
L 213.573923 142.944012 
L 216.823718 121.424272 
L 220.073514 104.012823 
L 223.323309 119.718847 
L 226.573104 138.39867 
L 229.822899 133.090987 
L 233.072695 131.401271 
L 236.32249 155.801003 
L 239.572285 166.371786 
L 242.82208 161.196407 
L 246.071876 152.439237 
L 249.321671 149.390825 
L 252.571466 161.403298 
L 255.821261 142.58578 
L 259.071057 107.988844 
L 262.320852 136.955736 
L 265.570647 119.598871 
L 268.820442 113.52883 
L 272.070238 134.664281 
L 275.320033 141.429616 
L 278.569828 122.263722 
L 281.819623 159.38009 
L 285.069419 128.248693 
L 288.319214 155.760718 
L 291.569009 156.29864 
L 294.818804 148.955817 
L 298.0686 110.116872 
L 301.318395 142.627064 
L 304.56819 137.902527 
L 307.817985 145.115546 
L 311.067781 118.950536 
L 314.317576 130.965737 
L 317.567371 163.270611 
L 320.817166 180.799193 
L 324.066962 134.772265 
L 327.316757 130.48277 
L 330.566552 156.122831 
L 333.816347 158.977042 
L 337.066143 152.453174 
L 340.315938 172.770725 
L 343.565733 150.990682 
L 346.815528 189.975849 
L 350.065324 172.542537 
L 353.315119 191.593857 
L 356.564914 160.746999 
L 359.814709 163.017594 
L 363.064505 166.132977 
L 366.3143 184.041141 
L 369.564095 197.867781 
L 372.81389 150.352227 
L 376.063686 174.887001 
L 379.313481 204.609283 
L 382.563276 154.85925 
L 385.813071 151.374645 
L 389.062867 147.444045 
L 392.312662 147.137414 
L 395.562457 191.532933 
" clip-path="url(#pc6893f2497)" style="fill: none; stroke: #ff7f0e; stroke-width: 1.5; stroke-linecap: square"/>
   </g>
   <g id="patch_3">
    <path d="M 57.6 307.584 
L 57.6 41.472 
" style="fill: none; stroke: #000000; stroke-width: 0.8; stroke-linejoin: miter; stroke-linecap: square"/>
   </g>
   <g id="patch_4">
    <path d="M 414.72 307.584 
L 414.72 41.472 
" style="fill: none; stroke: #000000; stroke-width: 0.8; stroke-linejoin: miter; stroke-linecap: square"/>
   </g>
   <g id="patch_5">
    <path d="M 57.6 307.584 
L 414.72 307.584 
" style="fill: none; stroke: #000000; stroke-width: 0.8; stroke-linejoin: miter; stroke-linecap: square"/>
   </g>
   <g id="patch_6">
    <path d="M 57.6 41.472 
L 414.72 41.472 
" style="fill: none; stroke: #000000; stroke-width: 0.8; stroke-linejoin: miter; stroke-linecap: square"/>
   </g>
   <g id="text_17">
    <!-- Train Loss vs Validation Loss -->
    <g transform="translate(151.513125 35.472) scale(0.12 -0.12)">
     <defs>
      <path id="DejaVuSans-76" d="M 191 3500 
L 800 3500 
L 1894 563 
L 2988 3500 
L 3597 3500 
L 2284 0 
L 1503 0 
L 191 3500 
z
" transform="scale(0.015625)"/>
      <path id="DejaVuSans-56" d="M 1831 0 
L 50 4666 
L 709 4666 
L 2188 738 
L 3669 4666 
L 4325 4666 
L 2547 0 
L 1831 0 
z
" transform="scale(0.015625)"/>
      <path id="DejaVuSans-6c" d="M 603 4863 
L 1178 4863 
L 1178 0 
L 603 0 
L 603 4863 
z
" transform="scale(0.015625)"/>
      <path id="DejaVuSans-64" d="M 2906 2969 
L 2906 4863 
L 3481 4863 
L 3481 0 
L 2906 0 
L 2906 525 
Q 2725 213 2448 61 
Q 2172 -91 1784 -91 
Q 1150 -91 751 415 
Q 353 922 353 1747 
Q 353 2572 751 3078 
Q 1150 3584 1784 3584 
Q 2172 3584 2448 3432 
Q 2725 3281 2906 2969 
z
M 947 1747 
Q 947 1113 1208 752 
Q 1469 391 1925 391 
Q 2381 391 2643 752 
Q 2906 1113 2906 1747 
Q 2906 2381 2643 2742 
Q 2381 3103 1925 3103 
Q 1469 3103 1208 2742 
Q 947 2381 947 1747 
z
" transform="scale(0.015625)"/>
     </defs>
     <use xlink:href="#DejaVuSans-54"/>
     <use xlink:href="#DejaVuSans-72" x="46.333984"/>
     <use xlink:href="#DejaVuSans-61" x="87.447266"/>
     <use xlink:href="#DejaVuSans-69" x="148.726562"/>
     <use xlink:href="#DejaVuSans-6e" x="176.509766"/>
     <use xlink:href="#DejaVuSans-20" x="239.888672"/>
     <use xlink:href="#DejaVuSans-4c" x="271.675781"/>
     <use xlink:href="#DejaVuSans-6f" x="325.638672"/>
     <use xlink:href="#DejaVuSans-73" x="386.820312"/>
     <use xlink:href="#DejaVuSans-73" x="438.919922"/>
     <use xlink:href="#DejaVuSans-20" x="491.019531"/>
     <use xlink:href="#DejaVuSans-76" x="522.806641"/>
     <use xlink:href="#DejaVuSans-73" x="581.986328"/>
     <use xlink:href="#DejaVuSans-20" x="634.085938"/>
     <use xlink:href="#DejaVuSans-56" x="665.873047"/>
     <use xlink:href="#DejaVuSans-61" x="726.53125"/>
     <use xlink:href="#DejaVuSans-6c" x="787.810547"/>
     <use xlink:href="#DejaVuSans-69" x="815.59375"/>
     <use xlink:href="#DejaVuSans-64" x="843.376953"/>
     <use xlink:href="#DejaVuSans-61" x="906.853516"/>
     <use xlink:href="#DejaVuSans-74" x="968.132812"/>
     <use xlink:href="#DejaVuSans-69" x="1007.341797"/>
     <use xlink:href="#DejaVuSans-6f" x="1035.125"/>
     <use xlink:href="#DejaVuSans-6e" x="1096.306641"/>
     <use xlink:href="#DejaVuSans-20" x="1159.685547"/>
     <use xlink:href="#DejaVuSans-4c" x="1191.472656"/>
     <use xlink:href="#DejaVuSans-6f" x="1245.435547"/>
     <use xlink:href="#DejaVuSans-73" x="1306.617188"/>
     <use xlink:href="#DejaVuSans-73" x="1358.716797"/>
    </g>
   </g>
   <g id="legend_1">
    <g id="patch_7">
     <path d="M 301.22625 78.82825 
L 407.72 78.82825 
Q 409.72 78.82825 409.72 76.82825 
L 409.72 48.472 
Q 409.72 46.472 407.72 46.472 
L 301.22625 46.472 
Q 299.22625 46.472 299.22625 48.472 
L 299.22625 76.82825 
Q 299.22625 78.82825 301.22625 78.82825 
z
" style="fill: #ffffff; opacity: 0.8; stroke: #cccccc; stroke-linejoin: miter"/>
    </g>
    <g id="line2d_31">
     <path d="M 303.22625 54.570437 
L 313.22625 54.570437 
L 323.22625 54.570437 
" style="fill: none; stroke: #1f77b4; stroke-width: 1.5; stroke-linecap: square"/>
    </g>
    <g id="text_18">
     <!-- Train Loss -->
     <g transform="translate(331.22625 58.070437) scale(0.1 -0.1)">
      <use xlink:href="#DejaVuSans-54"/>
      <use xlink:href="#DejaVuSans-72" x="46.333984"/>
      <use xlink:href="#DejaVuSans-61" x="87.447266"/>
      <use xlink:href="#DejaVuSans-69" x="148.726562"/>
      <use xlink:href="#DejaVuSans-6e" x="176.509766"/>
      <use xlink:href="#DejaVuSans-20" x="239.888672"/>
      <use xlink:href="#DejaVuSans-4c" x="271.675781"/>
      <use xlink:href="#DejaVuSans-6f" x="325.638672"/>
      <use xlink:href="#DejaVuSans-73" x="386.820312"/>
      <use xlink:href="#DejaVuSans-73" x="438.919922"/>
     </g>
    </g>
    <g id="line2d_32">
     <path d="M 303.22625 69.248562 
L 313.22625 69.248562 
L 323.22625 69.248562 
" style="fill: none; stroke: #ff7f0e; stroke-width: 1.5; stroke-linecap: square"/>
    </g>
    <g id="text_19">
     <!-- Validation Loss -->
     <g transform="translate(331.22625 72.748562) scale(0.1 -0.1)">
      <use xlink:href="#DejaVuSans-56"/>
      <use xlink:href="#DejaVuSans-61" x="60.658203"/>
      <use xlink:href="#DejaVuSans-6c" x="121.9375"/>
      <use xlink:href="#DejaVuSans-69" x="149.720703"/>
      <use xlink:href="#DejaVuSans-64" x="177.503906"/>
      <use xlink:href="#DejaVuSans-61" x="240.980469"/>
      <use xlink:href="#DejaVuSans-74" x="302.259766"/>
      <use xlink:href="#DejaVuSans-69" x="341.46875"/>
      <use xlink:href="#DejaVuSans-6f" x="369.251953"/>
      <use xlink:href="#DejaVuSans-6e" x="430.433594"/>
      <use xlink:href="#DejaVuSans-20" x="493.8125"/>
      <use xlink:href="#DejaVuSans-4c" x="525.599609"/>
      <use xlink:href="#DejaVuSans-6f" x="579.5625"/>
      <use xlink:href="#DejaVuSans-73" x="640.744141"/>
      <use xlink:href="#DejaVuSans-73" x="692.84375"/>
     </g>
    </g>
   </g>
  </g>
 </g>
 <defs>
  <clipPath id="pc6893f2497">
   <rect x="57.6" y="41.472" width="357.12" height="266.112"/>
  </clipPath>
 </defs>
</svg>
