<?xml version="1.0" encoding="utf-8" standalone="no"?>
<!DOCTYPE svg PUBLIC "-//W3C//DTD SVG 1.1//EN"
  "http://www.w3.org/Graphics/SVG/1.1/DTD/svg11.dtd">
<svg xmlns:xlink="http://www.w3.org/1999/xlink" width="460.8pt" height="345.6pt" viewBox="0 0 460.8 345.6" xmlns="http://www.w3.org/2000/svg" version="1.1">
 <metadata>
  <rdf:RDF xmlns:dc="http://purl.org/dc/elements/1.1/" xmlns:cc="http://creativecommons.org/ns#" xmlns:rdf="http://www.w3.org/1999/02/22-rdf-syntax-ns#">
   <cc:Work>
    <dc:type rdf:resource="http://purl.org/dc/dcmitype/StillImage"/>
    <dc:date>2023-11-15T11:30:19.802232</dc:date>
    <dc:format>image/svg+xml</dc:format>
    <dc:creator>
     <cc:Agent>
      <dc:title>Matplotlib v3.8.0, https://matplotlib.org/</dc:title>
     </cc:Agent>
    </dc:creator>
   </cc:Work>
  </rdf:RDF>
 </metadata>
 <defs>
  <style type="text/css">*{stroke-linejoin: round; stroke-linecap: butt}</style>
 </defs>
 <g id="figure_1">
  <g id="patch_1">
   <path d="M 0 345.6 
L 460.8 345.6 
L 460.8 0 
L 0 0 
z
" style="fill: #ffffff"/>
  </g>
  <g id="axes_1">
   <g id="patch_2">
    <path d="M 57.6 307.584 
L 414.72 307.584 
L 414.72 41.472 
L 57.6 41.472 
z
" style="fill: #ffffff"/>
   </g>
   <g id="matplotlib.axis_1">
    <g id="xtick_1">
     <g id="line2d_1">
      <path d="M 73.832727 307.584 
L 73.832727 41.472 
" clip-path="url(#p7d01f74244)" style="fill: none; stroke: #b0b0b0; stroke-width: 0.8; stroke-linecap: square"/>
     </g>
     <g id="line2d_2">
      <defs>
       <path id="mbe206f7e61" d="M 0 0 
L 0 3.5 
" style="stroke: #000000; stroke-width: 0.8"/>
      </defs>
      <g>
       <use xlink:href="#mbe206f7e61" x="73.832727" y="307.584" style="stroke: #000000; stroke-width: 0.8"/>
      </g>
     </g>
     <g id="text_1">
      <!-- 0 -->
      <g transform="translate(70.651477 322.182437) scale(0.1 -0.1)">
       <defs>
        <path id="DejaVuSans-30" d="M 2034 4250 
Q 1547 4250 1301 3770 
Q 1056 3291 1056 2328 
Q 1056 1369 1301 889 
Q 1547 409 2034 409 
Q 2525 409 2770 889 
Q 3016 1369 3016 2328 
Q 3016 3291 2770 3770 
Q 2525 4250 2034 4250 
z
M 2034 4750 
Q 2819 4750 3233 4129 
Q 3647 3509 3647 2328 
Q 3647 1150 3233 529 
Q 2819 -91 2034 -91 
Q 1250 -91 836 529 
Q 422 1150 422 2328 
Q 422 3509 836 4129 
Q 1250 4750 2034 4750 
z
" transform="scale(0.015625)"/>
       </defs>
       <use xlink:href="#DejaVuSans-30"/>
      </g>
     </g>
    </g>
    <g id="xtick_2">
     <g id="line2d_3">
      <path d="M 138.828632 307.584 
L 138.828632 41.472 
" clip-path="url(#p7d01f74244)" style="fill: none; stroke: #b0b0b0; stroke-width: 0.8; stroke-linecap: square"/>
     </g>
     <g id="line2d_4">
      <g>
       <use xlink:href="#mbe206f7e61" x="138.828632" y="307.584" style="stroke: #000000; stroke-width: 0.8"/>
      </g>
     </g>
     <g id="text_2">
      <!-- 200 -->
      <g transform="translate(129.284882 322.182437) scale(0.1 -0.1)">
       <defs>
        <path id="DejaVuSans-32" d="M 1228 531 
L 3431 531 
L 3431 0 
L 469 0 
L 469 531 
Q 828 903 1448 1529 
Q 2069 2156 2228 2338 
Q 2531 2678 2651 2914 
Q 2772 3150 2772 3378 
Q 2772 3750 2511 3984 
Q 2250 4219 1831 4219 
Q 1534 4219 1204 4116 
Q 875 4013 500 3803 
L 500 4441 
Q 881 4594 1212 4672 
Q 1544 4750 1819 4750 
Q 2544 4750 2975 4387 
Q 3406 4025 3406 3419 
Q 3406 3131 3298 2873 
Q 3191 2616 2906 2266 
Q 2828 2175 2409 1742 
Q 1991 1309 1228 531 
z
" transform="scale(0.015625)"/>
       </defs>
       <use xlink:href="#DejaVuSans-32"/>
       <use xlink:href="#DejaVuSans-30" x="63.623047"/>
       <use xlink:href="#DejaVuSans-30" x="127.246094"/>
      </g>
     </g>
    </g>
    <g id="xtick_3">
     <g id="line2d_5">
      <path d="M 203.824537 307.584 
L 203.824537 41.472 
" clip-path="url(#p7d01f74244)" style="fill: none; stroke: #b0b0b0; stroke-width: 0.8; stroke-linecap: square"/>
     </g>
     <g id="line2d_6">
      <g>
       <use xlink:href="#mbe206f7e61" x="203.824537" y="307.584" style="stroke: #000000; stroke-width: 0.8"/>
      </g>
     </g>
     <g id="text_3">
      <!-- 400 -->
      <g transform="translate(194.280787 322.182437) scale(0.1 -0.1)">
       <defs>
        <path id="DejaVuSans-34" d="M 2419 4116 
L 825 1625 
L 2419 1625 
L 2419 4116 
z
M 2253 4666 
L 3047 4666 
L 3047 1625 
L 3713 1625 
L 3713 1100 
L 3047 1100 
L 3047 0 
L 2419 0 
L 2419 1100 
L 313 1100 
L 313 1709 
L 2253 4666 
z
" transform="scale(0.015625)"/>
       </defs>
       <use xlink:href="#DejaVuSans-34"/>
       <use xlink:href="#DejaVuSans-30" x="63.623047"/>
       <use xlink:href="#DejaVuSans-30" x="127.246094"/>
      </g>
     </g>
    </g>
    <g id="xtick_4">
     <g id="line2d_7">
      <path d="M 268.820442 307.584 
L 268.820442 41.472 
" clip-path="url(#p7d01f74244)" style="fill: none; stroke: #b0b0b0; stroke-width: 0.8; stroke-linecap: square"/>
     </g>
     <g id="line2d_8">
      <g>
       <use xlink:href="#mbe206f7e61" x="268.820442" y="307.584" style="stroke: #000000; stroke-width: 0.8"/>
      </g>
     </g>
     <g id="text_4">
      <!-- 600 -->
      <g transform="translate(259.276692 322.182437) scale(0.1 -0.1)">
       <defs>
        <path id="DejaVuSans-36" d="M 2113 2584 
Q 1688 2584 1439 2293 
Q 1191 2003 1191 1497 
Q 1191 994 1439 701 
Q 1688 409 2113 409 
Q 2538 409 2786 701 
Q 3034 994 3034 1497 
Q 3034 2003 2786 2293 
Q 2538 2584 2113 2584 
z
M 3366 4563 
L 3366 3988 
Q 3128 4100 2886 4159 
Q 2644 4219 2406 4219 
Q 1781 4219 1451 3797 
Q 1122 3375 1075 2522 
Q 1259 2794 1537 2939 
Q 1816 3084 2150 3084 
Q 2853 3084 3261 2657 
Q 3669 2231 3669 1497 
Q 3669 778 3244 343 
Q 2819 -91 2113 -91 
Q 1303 -91 875 529 
Q 447 1150 447 2328 
Q 447 3434 972 4092 
Q 1497 4750 2381 4750 
Q 2619 4750 2861 4703 
Q 3103 4656 3366 4563 
z
" transform="scale(0.015625)"/>
       </defs>
       <use xlink:href="#DejaVuSans-36"/>
       <use xlink:href="#DejaVuSans-30" x="63.623047"/>
       <use xlink:href="#DejaVuSans-30" x="127.246094"/>
      </g>
     </g>
    </g>
    <g id="xtick_5">
     <g id="line2d_9">
      <path d="M 333.816347 307.584 
L 333.816347 41.472 
" clip-path="url(#p7d01f74244)" style="fill: none; stroke: #b0b0b0; stroke-width: 0.8; stroke-linecap: square"/>
     </g>
     <g id="line2d_10">
      <g>
       <use xlink:href="#mbe206f7e61" x="333.816347" y="307.584" style="stroke: #000000; stroke-width: 0.8"/>
      </g>
     </g>
     <g id="text_5">
      <!-- 800 -->
      <g transform="translate(324.272597 322.182437) scale(0.1 -0.1)">
       <defs>
        <path id="DejaVuSans-38" d="M 2034 2216 
Q 1584 2216 1326 1975 
Q 1069 1734 1069 1313 
Q 1069 891 1326 650 
Q 1584 409 2034 409 
Q 2484 409 2743 651 
Q 3003 894 3003 1313 
Q 3003 1734 2745 1975 
Q 2488 2216 2034 2216 
z
M 1403 2484 
Q 997 2584 770 2862 
Q 544 3141 544 3541 
Q 544 4100 942 4425 
Q 1341 4750 2034 4750 
Q 2731 4750 3128 4425 
Q 3525 4100 3525 3541 
Q 3525 3141 3298 2862 
Q 3072 2584 2669 2484 
Q 3125 2378 3379 2068 
Q 3634 1759 3634 1313 
Q 3634 634 3220 271 
Q 2806 -91 2034 -91 
Q 1263 -91 848 271 
Q 434 634 434 1313 
Q 434 1759 690 2068 
Q 947 2378 1403 2484 
z
M 1172 3481 
Q 1172 3119 1398 2916 
Q 1625 2713 2034 2713 
Q 2441 2713 2670 2916 
Q 2900 3119 2900 3481 
Q 2900 3844 2670 4047 
Q 2441 4250 2034 4250 
Q 1625 4250 1398 4047 
Q 1172 3844 1172 3481 
z
" transform="scale(0.015625)"/>
       </defs>
       <use xlink:href="#DejaVuSans-38"/>
       <use xlink:href="#DejaVuSans-30" x="63.623047"/>
       <use xlink:href="#DejaVuSans-30" x="127.246094"/>
      </g>
     </g>
    </g>
    <g id="xtick_6">
     <g id="line2d_11">
      <path d="M 398.812252 307.584 
L 398.812252 41.472 
" clip-path="url(#p7d01f74244)" style="fill: none; stroke: #b0b0b0; stroke-width: 0.8; stroke-linecap: square"/>
     </g>
     <g id="line2d_12">
      <g>
       <use xlink:href="#mbe206f7e61" x="398.812252" y="307.584" style="stroke: #000000; stroke-width: 0.8"/>
      </g>
     </g>
     <g id="text_6">
      <!-- 1000 -->
      <g transform="translate(386.087252 322.182437) scale(0.1 -0.1)">
       <defs>
        <path id="DejaVuSans-31" d="M 794 531 
L 1825 531 
L 1825 4091 
L 703 3866 
L 703 4441 
L 1819 4666 
L 2450 4666 
L 2450 531 
L 3481 531 
L 3481 0 
L 794 0 
L 794 531 
z
" transform="scale(0.015625)"/>
       </defs>
       <use xlink:href="#DejaVuSans-31"/>
       <use xlink:href="#DejaVuSans-30" x="63.623047"/>
       <use xlink:href="#DejaVuSans-30" x="127.246094"/>
       <use xlink:href="#DejaVuSans-30" x="190.869141"/>
      </g>
     </g>
    </g>
    <g id="text_7">
     <!-- Train Step -->
     <g transform="translate(211.192031 335.860562) scale(0.1 -0.1)">
      <defs>
       <path id="DejaVuSans-54" d="M -19 4666 
L 3928 4666 
L 3928 4134 
L 2272 4134 
L 2272 0 
L 1638 0 
L 1638 4134 
L -19 4134 
L -19 4666 
z
" transform="scale(0.015625)"/>
       <path id="DejaVuSans-72" d="M 2631 2963 
Q 2534 3019 2420 3045 
Q 2306 3072 2169 3072 
Q 1681 3072 1420 2755 
Q 1159 2438 1159 1844 
L 1159 0 
L 581 0 
L 581 3500 
L 1159 3500 
L 1159 2956 
Q 1341 3275 1631 3429 
Q 1922 3584 2338 3584 
Q 2397 3584 2469 3576 
Q 2541 3569 2628 3553 
L 2631 2963 
z
" transform="scale(0.015625)"/>
       <path id="DejaVuSans-61" d="M 2194 1759 
Q 1497 1759 1228 1600 
Q 959 1441 959 1056 
Q 959 750 1161 570 
Q 1363 391 1709 391 
Q 2188 391 2477 730 
Q 2766 1069 2766 1631 
L 2766 1759 
L 2194 1759 
z
M 3341 1997 
L 3341 0 
L 2766 0 
L 2766 531 
Q 2569 213 2275 61 
Q 1981 -91 1556 -91 
Q 1019 -91 701 211 
Q 384 513 384 1019 
Q 384 1609 779 1909 
Q 1175 2209 1959 2209 
L 2766 2209 
L 2766 2266 
Q 2766 2663 2505 2880 
Q 2244 3097 1772 3097 
Q 1472 3097 1187 3025 
Q 903 2953 641 2809 
L 641 3341 
Q 956 3463 1253 3523 
Q 1550 3584 1831 3584 
Q 2591 3584 2966 3190 
Q 3341 2797 3341 1997 
z
" transform="scale(0.015625)"/>
       <path id="DejaVuSans-69" d="M 603 3500 
L 1178 3500 
L 1178 0 
L 603 0 
L 603 3500 
z
M 603 4863 
L 1178 4863 
L 1178 4134 
L 603 4134 
L 603 4863 
z
" transform="scale(0.015625)"/>
       <path id="DejaVuSans-6e" d="M 3513 2113 
L 3513 0 
L 2938 0 
L 2938 2094 
Q 2938 2591 2744 2837 
Q 2550 3084 2163 3084 
Q 1697 3084 1428 2787 
Q 1159 2491 1159 1978 
L 1159 0 
L 581 0 
L 581 3500 
L 1159 3500 
L 1159 2956 
Q 1366 3272 1645 3428 
Q 1925 3584 2291 3584 
Q 2894 3584 3203 3211 
Q 3513 2838 3513 2113 
z
" transform="scale(0.015625)"/>
       <path id="DejaVuSans-20" transform="scale(0.015625)"/>
       <path id="DejaVuSans-53" d="M 3425 4513 
L 3425 3897 
Q 3066 4069 2747 4153 
Q 2428 4238 2131 4238 
Q 1616 4238 1336 4038 
Q 1056 3838 1056 3469 
Q 1056 3159 1242 3001 
Q 1428 2844 1947 2747 
L 2328 2669 
Q 3034 2534 3370 2195 
Q 3706 1856 3706 1288 
Q 3706 609 3251 259 
Q 2797 -91 1919 -91 
Q 1588 -91 1214 -16 
Q 841 59 441 206 
L 441 856 
Q 825 641 1194 531 
Q 1563 422 1919 422 
Q 2459 422 2753 634 
Q 3047 847 3047 1241 
Q 3047 1584 2836 1778 
Q 2625 1972 2144 2069 
L 1759 2144 
Q 1053 2284 737 2584 
Q 422 2884 422 3419 
Q 422 4038 858 4394 
Q 1294 4750 2059 4750 
Q 2388 4750 2728 4690 
Q 3069 4631 3425 4513 
z
" transform="scale(0.015625)"/>
       <path id="DejaVuSans-74" d="M 1172 4494 
L 1172 3500 
L 2356 3500 
L 2356 3053 
L 1172 3053 
L 1172 1153 
Q 1172 725 1289 603 
Q 1406 481 1766 481 
L 2356 481 
L 2356 0 
L 1766 0 
Q 1100 0 847 248 
Q 594 497 594 1153 
L 594 3053 
L 172 3053 
L 172 3500 
L 594 3500 
L 594 4494 
L 1172 4494 
z
" transform="scale(0.015625)"/>
       <path id="DejaVuSans-65" d="M 3597 1894 
L 3597 1613 
L 953 1613 
Q 991 1019 1311 708 
Q 1631 397 2203 397 
Q 2534 397 2845 478 
Q 3156 559 3463 722 
L 3463 178 
Q 3153 47 2828 -22 
Q 2503 -91 2169 -91 
Q 1331 -91 842 396 
Q 353 884 353 1716 
Q 353 2575 817 3079 
Q 1281 3584 2069 3584 
Q 2775 3584 3186 3129 
Q 3597 2675 3597 1894 
z
M 3022 2063 
Q 3016 2534 2758 2815 
Q 2500 3097 2075 3097 
Q 1594 3097 1305 2825 
Q 1016 2553 972 2059 
L 3022 2063 
z
" transform="scale(0.015625)"/>
       <path id="DejaVuSans-70" d="M 1159 525 
L 1159 -1331 
L 581 -1331 
L 581 3500 
L 1159 3500 
L 1159 2969 
Q 1341 3281 1617 3432 
Q 1894 3584 2278 3584 
Q 2916 3584 3314 3078 
Q 3713 2572 3713 1747 
Q 3713 922 3314 415 
Q 2916 -91 2278 -91 
Q 1894 -91 1617 61 
Q 1341 213 1159 525 
z
M 3116 1747 
Q 3116 2381 2855 2742 
Q 2594 3103 2138 3103 
Q 1681 3103 1420 2742 
Q 1159 2381 1159 1747 
Q 1159 1113 1420 752 
Q 1681 391 2138 391 
Q 2594 391 2855 752 
Q 3116 1113 3116 1747 
z
" transform="scale(0.015625)"/>
      </defs>
      <use xlink:href="#DejaVuSans-54"/>
      <use xlink:href="#DejaVuSans-72" x="46.333984"/>
      <use xlink:href="#DejaVuSans-61" x="87.447266"/>
      <use xlink:href="#DejaVuSans-69" x="148.726562"/>
      <use xlink:href="#DejaVuSans-6e" x="176.509766"/>
      <use xlink:href="#DejaVuSans-20" x="239.888672"/>
      <use xlink:href="#DejaVuSans-53" x="271.675781"/>
      <use xlink:href="#DejaVuSans-74" x="335.152344"/>
      <use xlink:href="#DejaVuSans-65" x="374.361328"/>
      <use xlink:href="#DejaVuSans-70" x="435.884766"/>
     </g>
    </g>
   </g>
   <g id="matplotlib.axis_2">
    <g id="ytick_1">
     <g id="line2d_13">
      <path d="M 57.6 307.47583 
L 414.72 307.47583 
" clip-path="url(#p7d01f74244)" style="fill: none; stroke: #b0b0b0; stroke-width: 0.8; stroke-linecap: square"/>
     </g>
     <g id="line2d_14">
      <defs>
       <path id="m54ad96dca9" d="M 0 0 
L -3.5 0 
" style="stroke: #000000; stroke-width: 0.8"/>
      </defs>
      <g>
       <use xlink:href="#m54ad96dca9" x="57.6" y="307.47583" style="stroke: #000000; stroke-width: 0.8"/>
      </g>
     </g>
     <g id="text_8">
      <!-- 0.00 -->
      <g transform="translate(28.334375 311.275049) scale(0.1 -0.1)">
       <defs>
        <path id="DejaVuSans-2e" d="M 684 794 
L 1344 794 
L 1344 0 
L 684 0 
L 684 794 
z
" transform="scale(0.015625)"/>
       </defs>
       <use xlink:href="#DejaVuSans-30"/>
       <use xlink:href="#DejaVuSans-2e" x="63.623047"/>
       <use xlink:href="#DejaVuSans-30" x="95.410156"/>
       <use xlink:href="#DejaVuSans-30" x="159.033203"/>
      </g>
     </g>
    </g>
    <g id="ytick_2">
     <g id="line2d_15">
      <path d="M 57.6 256.595082 
L 414.72 256.595082 
" clip-path="url(#p7d01f74244)" style="fill: none; stroke: #b0b0b0; stroke-width: 0.8; stroke-linecap: square"/>
     </g>
     <g id="line2d_16">
      <g>
       <use xlink:href="#m54ad96dca9" x="57.6" y="256.595082" style="stroke: #000000; stroke-width: 0.8"/>
      </g>
     </g>
     <g id="text_9">
      <!-- 0.02 -->
      <g transform="translate(28.334375 260.394301) scale(0.1 -0.1)">
       <use xlink:href="#DejaVuSans-30"/>
       <use xlink:href="#DejaVuSans-2e" x="63.623047"/>
       <use xlink:href="#DejaVuSans-30" x="95.410156"/>
       <use xlink:href="#DejaVuSans-32" x="159.033203"/>
      </g>
     </g>
    </g>
    <g id="ytick_3">
     <g id="line2d_17">
      <path d="M 57.6 205.714334 
L 414.72 205.714334 
" clip-path="url(#p7d01f74244)" style="fill: none; stroke: #b0b0b0; stroke-width: 0.8; stroke-linecap: square"/>
     </g>
     <g id="line2d_18">
      <g>
       <use xlink:href="#m54ad96dca9" x="57.6" y="205.714334" style="stroke: #000000; stroke-width: 0.8"/>
      </g>
     </g>
     <g id="text_10">
      <!-- 0.04 -->
      <g transform="translate(28.334375 209.513553) scale(0.1 -0.1)">
       <use xlink:href="#DejaVuSans-30"/>
       <use xlink:href="#DejaVuSans-2e" x="63.623047"/>
       <use xlink:href="#DejaVuSans-30" x="95.410156"/>
       <use xlink:href="#DejaVuSans-34" x="159.033203"/>
      </g>
     </g>
    </g>
    <g id="ytick_4">
     <g id="line2d_19">
      <path d="M 57.6 154.833587 
L 414.72 154.833587 
" clip-path="url(#p7d01f74244)" style="fill: none; stroke: #b0b0b0; stroke-width: 0.8; stroke-linecap: square"/>
     </g>
     <g id="line2d_20">
      <g>
       <use xlink:href="#m54ad96dca9" x="57.6" y="154.833587" style="stroke: #000000; stroke-width: 0.8"/>
      </g>
     </g>
     <g id="text_11">
      <!-- 0.06 -->
      <g transform="translate(28.334375 158.632805) scale(0.1 -0.1)">
       <use xlink:href="#DejaVuSans-30"/>
       <use xlink:href="#DejaVuSans-2e" x="63.623047"/>
       <use xlink:href="#DejaVuSans-30" x="95.410156"/>
       <use xlink:href="#DejaVuSans-36" x="159.033203"/>
      </g>
     </g>
    </g>
    <g id="ytick_5">
     <g id="line2d_21">
      <path d="M 57.6 103.952839 
L 414.72 103.952839 
" clip-path="url(#p7d01f74244)" style="fill: none; stroke: #b0b0b0; stroke-width: 0.8; stroke-linecap: square"/>
     </g>
     <g id="line2d_22">
      <g>
       <use xlink:href="#m54ad96dca9" x="57.6" y="103.952839" style="stroke: #000000; stroke-width: 0.8"/>
      </g>
     </g>
     <g id="text_12">
      <!-- 0.08 -->
      <g transform="translate(28.334375 107.752058) scale(0.1 -0.1)">
       <use xlink:href="#DejaVuSans-30"/>
       <use xlink:href="#DejaVuSans-2e" x="63.623047"/>
       <use xlink:href="#DejaVuSans-30" x="95.410156"/>
       <use xlink:href="#DejaVuSans-38" x="159.033203"/>
      </g>
     </g>
    </g>
    <g id="ytick_6">
     <g id="line2d_23">
      <path d="M 57.6 53.072091 
L 414.72 53.072091 
" clip-path="url(#p7d01f74244)" style="fill: none; stroke: #b0b0b0; stroke-width: 0.8; stroke-linecap: square"/>
     </g>
     <g id="line2d_24">
      <g>
       <use xlink:href="#m54ad96dca9" x="57.6" y="53.072091" style="stroke: #000000; stroke-width: 0.8"/>
      </g>
     </g>
     <g id="text_13">
      <!-- 0.10 -->
      <g transform="translate(28.334375 56.87131) scale(0.1 -0.1)">
       <use xlink:href="#DejaVuSans-30"/>
       <use xlink:href="#DejaVuSans-2e" x="63.623047"/>
       <use xlink:href="#DejaVuSans-31" x="95.410156"/>
       <use xlink:href="#DejaVuSans-30" x="159.033203"/>
      </g>
     </g>
    </g>
    <g id="text_14">
     <!-- Loss -->
     <g transform="translate(22.254688 185.495187) rotate(-90) scale(0.1 -0.1)">
      <defs>
       <path id="DejaVuSans-4c" d="M 628 4666 
L 1259 4666 
L 1259 531 
L 3531 531 
L 3531 0 
L 628 0 
L 628 4666 
z
" transform="scale(0.015625)"/>
       <path id="DejaVuSans-6f" d="M 1959 3097 
Q 1497 3097 1228 2736 
Q 959 2375 959 1747 
Q 959 1119 1226 758 
Q 1494 397 1959 397 
Q 2419 397 2687 759 
Q 2956 1122 2956 1747 
Q 2956 2369 2687 2733 
Q 2419 3097 1959 3097 
z
M 1959 3584 
Q 2709 3584 3137 3096 
Q 3566 2609 3566 1747 
Q 3566 888 3137 398 
Q 2709 -91 1959 -91 
Q 1206 -91 779 398 
Q 353 888 353 1747 
Q 353 2609 779 3096 
Q 1206 3584 1959 3584 
z
" transform="scale(0.015625)"/>
       <path id="DejaVuSans-73" d="M 2834 3397 
L 2834 2853 
Q 2591 2978 2328 3040 
Q 2066 3103 1784 3103 
Q 1356 3103 1142 2972 
Q 928 2841 928 2578 
Q 928 2378 1081 2264 
Q 1234 2150 1697 2047 
L 1894 2003 
Q 2506 1872 2764 1633 
Q 3022 1394 3022 966 
Q 3022 478 2636 193 
Q 2250 -91 1575 -91 
Q 1294 -91 989 -36 
Q 684 19 347 128 
L 347 722 
Q 666 556 975 473 
Q 1284 391 1588 391 
Q 1994 391 2212 530 
Q 2431 669 2431 922 
Q 2431 1156 2273 1281 
Q 2116 1406 1581 1522 
L 1381 1569 
Q 847 1681 609 1914 
Q 372 2147 372 2553 
Q 372 3047 722 3315 
Q 1072 3584 1716 3584 
Q 2034 3584 2315 3537 
Q 2597 3491 2834 3397 
z
" transform="scale(0.015625)"/>
      </defs>
      <use xlink:href="#DejaVuSans-4c"/>
      <use xlink:href="#DejaVuSans-6f" x="53.962891"/>
      <use xlink:href="#DejaVuSans-73" x="115.144531"/>
      <use xlink:href="#DejaVuSans-73" x="167.244141"/>
     </g>
    </g>
   </g>
   <g id="line2d_25">
    <path d="M 73.832727 137.831117 
L 74.157707 157.028395 
L 74.482686 93.452835 
L 74.807666 115.795972 
L 75.132645 123.683076 
L 75.457625 92.778659 
L 75.782604 123.030528 
L 76.107584 119.810244 
L 76.432563 146.948485 
L 76.757543 110.42355 
L 77.082523 100.16396 
L 77.407502 121.562289 
L 77.732482 164.202069 
L 78.382441 131.822617 
L 78.70742 138.26982 
L 79.0324 195.630655 
L 79.357379 106.922511 
L 79.682359 173.947193 
L 80.007338 130.34166 
L 80.332318 115.05483 
L 80.657297 143.170388 
L 80.982277 153.968191 
L 81.307256 185.655176 
L 81.632236 118.709325 
L 81.957215 163.558249 
L 82.282195 174.352385 
L 82.607174 139.536553 
L 82.932154 135.113962 
L 83.257133 177.009918 
L 83.582113 170.191216 
L 83.907093 136.661147 
L 84.232072 191.782482 
L 84.882031 159.922642 
L 85.207011 208.011998 
L 85.53199 197.63582 
L 85.85697 198.329168 
L 86.181949 197.816334 
L 86.506929 196.97297 
L 86.831908 205.442652 
L 87.156888 156.240947 
L 87.481867 172.439785 
L 87.806847 177.729234 
L 88.131826 202.889606 
L 88.456806 189.759813 
L 88.781785 197.216043 
L 89.106765 185.455385 
L 89.431744 205.254888 
L 89.756724 201.147227 
L 90.081704 202.742073 
L 90.406683 221.62735 
L 90.731663 226.334344 
L 91.056642 216.068282 
L 91.381622 222.501354 
L 91.706601 210.645829 
L 92.031581 225.781563 
L 92.35656 214.021455 
L 92.68154 162.092995 
L 93.006519 215.507596 
L 93.331499 232.607553 
L 93.656478 217.278094 
L 93.981458 248.746732 
L 94.306437 245.47827 
L 94.631417 215.026151 
L 94.956396 238.674267 
L 95.281376 239.758657 
L 95.606355 227.620685 
L 95.931335 220.364379 
L 96.256314 210.461989 
L 96.581294 237.50714 
L 96.906274 235.42702 
L 97.231253 235.220211 
L 97.556233 237.036944 
L 97.881212 247.939168 
L 98.206192 227.003222 
L 98.531171 217.946697 
L 98.856151 257.946264 
L 99.18113 227.902056 
L 99.50611 214.266452 
L 100.156069 247.260946 
L 100.806028 250.401763 
L 101.131007 242.671801 
L 101.455987 248.819555 
L 101.780966 252.51856 
L 102.105946 239.361056 
L 102.430925 246.464399 
L 102.755905 257.939904 
L 103.080885 246.427969 
L 103.405864 253.322802 
L 103.730844 249.2924 
L 104.055823 222.030579 
L 104.380803 255.349471 
L 105.030762 247.237935 
L 105.355741 260.138453 
L 105.680721 248.519348 
L 106.0057 254.074213 
L 106.33068 235.422399 
L 106.655659 240.020684 
L 106.980639 211.251578 
L 107.305618 261.232529 
L 107.630598 258.357682 
L 107.955577 231.20565 
L 108.280557 222.279149 
L 108.605536 248.764549 
L 108.930516 226.234851 
L 109.255495 229.296756 
L 109.580475 246.021905 
L 109.905455 275.605121 
L 110.230434 242.848297 
L 110.555414 237.821018 
L 110.880393 248.352894 
L 111.205373 247.819081 
L 111.530352 240.24867 
L 111.855332 235.66053 
L 112.180311 226.496064 
L 112.505291 247.693673 
L 112.83027 237.422579 
L 113.15525 245.772634 
L 113.480229 223.070748 
L 113.805209 256.004919 
L 114.130188 239.013345 
L 114.455168 242.657183 
L 114.780147 232.608003 
L 115.105127 227.654178 
L 115.430106 218.791521 
L 115.755086 264.937429 
L 116.080066 256.694438 
L 116.405045 237.591317 
L 116.730025 259.326079 
L 117.379984 234.450632 
L 117.704963 235.911792 
L 118.029943 246.063785 
L 118.354922 245.072974 
L 118.679902 253.419679 
L 119.004881 229.441161 
L 119.329861 240.420787 
L 119.65484 244.415635 
L 119.97982 256.141515 
L 120.304799 243.764152 
L 120.629779 266.219813 
L 120.954758 251.859506 
L 121.279738 260.13162 
L 121.604717 228.727409 
L 121.929697 224.12158 
L 122.254676 228.645326 
L 122.579656 255.300246 
L 122.904636 240.575309 
L 123.229615 234.414135 
L 123.554595 241.59332 
L 123.879574 260.929104 
L 124.204554 249.003068 
L 124.854513 257.442186 
L 125.179492 245.009765 
L 125.504472 271.912456 
L 125.829451 231.08954 
L 126.154431 243.019712 
L 126.47941 260.508493 
L 126.80439 258.239723 
L 127.129369 273.021916 
L 127.454349 222.978535 
L 127.779328 258.76946 
L 128.104308 249.999533 
L 128.429287 268.916812 
L 128.754267 268.326468 
L 129.079247 263.276986 
L 129.404226 252.468994 
L 129.729206 270.569206 
L 130.054185 260.816481 
L 130.379165 260.382284 
L 130.704144 258.673981 
L 131.029124 265.127988 
L 131.354103 257.462325 
L 131.679083 235.224646 
L 132.004062 238.588924 
L 132.329042 240.587293 
L 132.654021 268.753703 
L 132.979001 257.704536 
L 133.30398 259.229686 
L 133.62896 277.342235 
L 133.953939 255.149382 
L 134.278919 272.677548 
L 134.603898 267.975607 
L 135.253857 231.605914 
L 135.578837 259.449303 
L 135.903817 260.445611 
L 136.553776 260.336599 
L 136.878755 264.83641 
L 137.203735 275.770249 
L 137.528714 278.62371 
L 137.853694 269.504868 
L 138.178673 228.772345 
L 138.503653 263.799904 
L 138.828632 268.464116 
L 139.153612 245.467082 
L 139.478591 266.998268 
L 139.803571 277.092964 
L 140.12855 255.191323 
L 140.45353 268.302746 
L 140.778509 267.703761 
L 141.103489 271.933406 
L 141.428468 265.058691 
L 141.753448 271.540589 
L 142.078428 273.587786 
L 142.403407 266.959335 
L 142.728387 273.1605 
L 143.053366 269.078362 
L 143.378346 238.285651 
L 143.703325 262.055753 
L 144.028305 275.011218 
L 144.353284 270.684486 
L 144.678264 274.803031 
L 145.003243 264.576382 
L 145.328223 262.625584 
L 145.653202 264.61803 
L 145.978182 270.782623 
L 146.303161 235.857008 
L 146.628141 269.637031 
L 146.95312 268.078426 
L 147.2781 268.234282 
L 147.603079 256.524752 
L 147.928059 274.210156 
L 148.253038 268.891318 
L 148.578018 266.023795 
L 148.902998 276.986762 
L 149.227977 262.927028 
L 149.552957 275.464912 
L 149.877936 264.348264 
L 150.202916 270.145811 
L 150.527895 265.912105 
L 150.852875 243.253588 
L 151.177854 272.474667 
L 151.502834 272.691759 
L 151.827813 253.928959 
L 152.152793 258.232293 
L 152.477772 251.960022 
L 152.802752 251.087373 
L 153.127731 266.524878 
L 153.452711 275.366559 
L 153.77769 255.84426 
L 154.10267 257.966128 
L 154.427649 272.563692 
L 154.752629 264.423215 
L 155.077609 262.053877 
L 155.402588 254.161228 
L 155.727568 242.787557 
L 156.052547 269.394088 
L 156.702506 275.559739 
L 157.027486 257.189659 
L 157.352465 249.08499 
L 157.677445 266.608458 
L 158.002424 269.036847 
L 158.327404 257.966346 
L 158.652383 251.953904 
L 158.977363 277.895673 
L 159.302342 275.202441 
L 159.627322 245.110987 
L 159.952301 262.834444 
L 160.277281 260.97524 
L 160.60226 263.728128 
L 160.92724 246.976248 
L 161.252219 274.120909 
L 161.577199 266.033007 
L 161.902179 240.376916 
L 162.227158 275.574602 
L 162.552138 273.532218 
L 162.877117 263.989668 
L 163.202097 271.121779 
L 163.527076 260.706274 
L 163.852056 256.901915 
L 164.177035 267.51477 
L 164.502015 261.893152 
L 164.826994 246.176792 
L 165.151974 262.242062 
L 165.476953 245.056924 
L 165.801933 250.040968 
L 166.126912 276.555396 
L 166.451892 256.291872 
L 166.776871 258.77054 
L 167.101851 243.270168 
L 167.42683 242.720524 
L 167.75181 269.370312 
L 168.07679 265.72863 
L 168.401769 256.240325 
L 168.726749 255.822567 
L 169.051728 265.277611 
L 169.376708 260.46295 
L 169.701687 278.328095 
L 170.026667 258.442859 
L 170.351646 246.667279 
L 170.676626 242.942434 
L 171.001605 259.819182 
L 171.326585 250.842442 
L 171.651564 230.863862 
L 171.976544 252.535918 
L 172.301523 239.138118 
L 172.626503 266.250984 
L 172.951482 273.066765 
L 173.276462 271.909817 
L 173.601441 266.748247 
L 173.926421 269.488827 
L 174.2514 241.923874 
L 174.57638 278.277766 
L 174.90136 259.553117 
L 175.551319 251.11889 
L 175.876298 280.729969 
L 176.201278 266.25976 
L 176.526257 256.801172 
L 177.176216 272.261125 
L 177.501196 274.41432 
L 177.826175 269.892981 
L 178.151155 278.881241 
L 178.476134 272.243152 
L 179.126093 272.130891 
L 179.451073 277.885596 
L 180.101032 244.097989 
L 180.426011 282.077709 
L 180.750991 270.054912 
L 181.075971 269.00768 
L 181.40095 268.652969 
L 181.72593 274.264143 
L 182.050909 258.394738 
L 182.375889 265.595356 
L 182.700868 268.638325 
L 183.025848 277.83857 
L 183.350827 263.426495 
L 183.675807 279.351413 
L 184.000786 289.362602 
L 184.325766 276.059135 
L 184.650745 269.042142 
L 184.975725 270.872482 
L 185.300704 271.737186 
L 185.950663 277.991993 
L 186.275643 274.264508 
L 186.600622 266.814077 
L 186.925602 266.755853 
L 187.250581 273.101751 
L 187.575561 273.919407 
L 187.900541 253.930646 
L 188.5505 264.525741 
L 188.875479 279.166028 
L 189.200459 278.442493 
L 189.525438 259.857219 
L 189.850418 274.876461 
L 190.175397 281.707055 
L 190.500377 269.736078 
L 190.825356 269.356655 
L 191.150336 278.055628 
L 191.475315 266.914621 
L 191.800295 271.911992 
L 192.450254 275.599629 
L 192.775233 271.173279 
L 193.100213 271.216559 
L 193.425192 276.016852 
L 193.750172 289.219524 
L 194.075152 266.553148 
L 194.400131 273.134326 
L 194.725111 275.966883 
L 195.05009 262.980219 
L 195.37507 267.450452 
L 195.700049 286.220099 
L 196.025029 281.474504 
L 196.350008 272.108127 
L 196.674988 281.810061 
L 197.324947 263.317729 
L 197.649926 279.941154 
L 197.974906 266.395323 
L 198.299885 262.024535 
L 198.624865 274.978169 
L 198.949844 277.760761 
L 199.274824 254.531397 
L 199.599803 279.777711 
L 199.924783 268.369644 
L 200.249762 273.121842 
L 200.574742 267.806393 
L 200.899722 278.863502 
L 201.224701 266.583338 
L 201.549681 273.106503 
L 201.87466 275.141739 
L 202.19964 257.272628 
L 202.524619 288.481312 
L 202.849599 279.135384 
L 203.174578 262.079864 
L 203.499558 279.890102 
L 203.824537 270.843543 
L 204.149517 267.324982 
L 204.474496 271.381731 
L 204.799476 267.637169 
L 205.124455 268.120022 
L 205.449435 269.985378 
L 205.774414 275.286344 
L 206.099394 283.297266 
L 206.424373 259.59213 
L 206.749353 286.94684 
L 207.074333 269.96045 
L 207.399312 276.614639 
L 207.724292 265.501512 
L 208.049271 277.146067 
L 208.374251 277.825077 
L 209.02421 270.868717 
L 209.349189 276.772059 
L 209.674169 273.357419 
L 209.999148 268.082757 
L 210.649107 284.89664 
L 210.974087 276.77248 
L 211.624046 284.47664 
L 211.949025 258.135857 
L 212.274005 269.90079 
L 212.598984 272.66939 
L 212.923964 289.804009 
L 213.248943 265.854711 
L 213.573923 273.880539 
L 213.898903 272.120438 
L 214.223882 266.103243 
L 214.548862 287.489071 
L 214.873841 261.092265 
L 215.5238 283.496602 
L 215.84878 278.469266 
L 216.498739 287.777196 
L 216.823718 263.257349 
L 217.148698 279.85115 
L 217.473677 285.373385 
L 217.798657 268.744754 
L 218.123636 271.975843 
L 218.448616 269.454885 
L 219.098575 283.390468 
L 219.748534 271.892121 
L 220.073514 257.672475 
L 220.398493 280.204084 
L 220.723473 260.15046 
L 221.048452 285.76681 
L 221.373432 276.653808 
L 221.698411 277.780455 
L 222.023391 271.800314 
L 222.34837 280.132545 
L 222.67335 275.307506 
L 222.998329 277.445748 
L 223.323309 275.467298 
L 223.648288 255.859519 
L 223.973268 270.46538 
L 224.298247 261.854939 
L 224.623227 269.771153 
L 224.948206 259.775009 
L 225.273186 273.783067 
L 225.598165 280.462662 
L 225.923145 274.419073 
L 226.248124 263.039798 
L 226.573104 274.714143 
L 226.898084 275.287334 
L 227.223063 278.031721 
L 227.548043 284.126943 
L 228.198002 271.577996 
L 228.522981 277.373721 
L 228.847961 264.80624 
L 229.17294 279.518846 
L 229.49792 274.584672 
L 229.822899 263.51116 
L 230.147879 282.877288 
L 230.472858 276.410868 
L 230.797838 284.212442 
L 231.122817 279.889832 
L 231.447797 268.656703 
L 231.772776 272.416676 
L 232.422735 287.325386 
L 232.747715 281.550734 
L 233.072695 282.360608 
L 233.397674 279.059985 
L 233.722654 270.301243 
L 234.047633 267.637496 
L 234.372613 287.632648 
L 234.697592 259.729423 
L 235.022572 263.552083 
L 235.347551 274.731705 
L 235.672531 270.644671 
L 235.99751 270.250583 
L 236.32249 279.08451 
L 236.647469 291.570281 
L 236.972449 276.981341 
L 237.297428 281.821791 
L 237.622408 281.931356 
L 237.947387 280.363215 
L 238.272367 273.004372 
L 238.597346 294.439909 
L 238.922326 293.043467 
L 239.247305 281.752821 
L 239.572285 283.585837 
L 239.897265 284.209966 
L 240.222244 275.633511 
L 240.547224 251.169351 
L 240.872203 256.168407 
L 241.197183 266.828975 
L 241.522162 284.234903 
L 241.847142 272.665383 
L 242.497101 282.523375 
L 242.82208 284.234079 
L 243.14706 276.192134 
L 243.797019 268.210909 
L 244.121998 270.790633 
L 244.446978 285.93707 
L 244.771957 285.457202 
L 245.096937 270.728721 
L 245.421916 268.232392 
L 246.071876 283.357989 
L 246.396855 265.811518 
L 246.721835 280.627583 
L 247.046814 280.48803 
L 247.696773 272.328625 
L 248.021753 282.020167 
L 248.346732 274.004632 
L 248.671712 281.758178 
L 248.996691 280.876923 
L 249.321671 279.672018 
L 249.64665 267.9096 
L 249.97163 283.777989 
L 250.296609 281.539736 
L 250.621589 280.491738 
L 250.946568 274.78573 
L 251.271548 281.293928 
L 251.596527 271.072556 
L 251.921507 272.442312 
L 252.246486 281.66259 
L 252.571466 278.11184 
L 252.896446 286.824211 
L 253.221425 285.100013 
L 253.546405 275.295973 
L 253.871384 273.417927 
L 254.196364 274.06993 
L 254.521343 283.956226 
L 254.846323 278.624106 
L 255.171302 270.906159 
L 255.496282 272.068265 
L 255.821261 264.107205 
L 256.146241 279.909234 
L 256.47122 273.510356 
L 256.7962 258.706242 
L 257.121179 286.682026 
L 257.771138 271.54081 
L 258.096118 274.845771 
L 258.421097 287.682859 
L 258.746077 283.984148 
L 259.071057 259.572195 
L 259.396036 275.49482 
L 259.721016 285.959275 
L 260.045995 282.998005 
L 260.370975 262.630408 
L 260.695954 291.73711 
L 261.020934 289.013819 
L 261.345913 271.966207 
L 261.670893 290.432225 
L 261.995872 272.223579 
L 262.320852 264.288259 
L 262.645831 267.513424 
L 262.970811 284.544905 
L 263.29579 271.46339 
L 263.62077 266.276833 
L 263.945749 289.787393 
L 264.270729 284.126613 
L 264.595708 266.0587 
L 264.920688 278.42745 
L 265.245667 278.853835 
L 265.570647 266.417358 
L 265.895627 280.019009 
L 266.220606 284.29851 
L 266.545586 282.790113 
L 267.195545 258.286147 
L 267.520524 274.53104 
L 267.845504 273.028408 
L 268.170483 280.154333 
L 268.495463 265.457002 
L 268.820442 256.097834 
L 269.145422 278.024289 
L 269.470401 230.202789 
L 269.795381 249.46174 
L 270.12036 253.779389 
L 270.44534 266.342629 
L 270.770319 266.07374 
L 271.095299 202.569738 
L 271.420278 254.330388 
L 271.745258 272.333402 
L 272.070238 278.963572 
L 272.395217 269.901672 
L 272.720197 276.31568 
L 273.045176 253.246055 
L 273.695135 279.788785 
L 274.020115 269.978421 
L 274.345094 256.421052 
L 274.670074 265.415889 
L 274.995053 278.777157 
L 275.320033 272.228026 
L 275.645012 284.800038 
L 275.969992 280.993923 
L 276.294971 285.629229 
L 276.619951 278.793882 
L 276.94493 284.694357 
L 277.26991 270.537303 
L 277.594889 276.237554 
L 277.919869 279.43216 
L 278.244848 273.09686 
L 278.569828 278.787572 
L 278.894808 268.791809 
L 279.219787 282.038023 
L 279.544767 279.327787 
L 279.869746 278.821944 
L 280.194726 285.365348 
L 280.844685 275.13873 
L 281.169664 295.044786 
L 281.494644 285.248818 
L 281.819623 281.630737 
L 282.144603 286.841609 
L 282.469582 281.772166 
L 282.794562 285.376716 
L 283.119541 282.651989 
L 283.444521 281.745253 
L 283.7695 264.622759 
L 284.09448 272.487483 
L 284.419459 283.6768 
L 284.744439 276.100041 
L 285.069419 275.719886 
L 285.719378 283.649243 
L 286.044357 279.70748 
L 286.369337 273.850887 
L 286.694316 284.688599 
L 287.019296 275.479829 
L 287.344275 277.767407 
L 287.669255 277.638893 
L 288.319214 285.971816 
L 288.644193 282.163696 
L 288.969173 285.629411 
L 289.294152 286.840965 
L 289.619132 277.893398 
L 289.944111 284.249697 
L 290.59407 269.923308 
L 290.91905 278.478675 
L 291.244029 271.73916 
L 291.569009 273.869384 
L 291.893989 274.203242 
L 292.218968 275.667515 
L 292.543948 284.231975 
L 293.193907 270.790776 
L 293.843866 284.844643 
L 294.168845 274.299854 
L 294.493825 279.925547 
L 294.818804 271.364814 
L 295.143784 269.112947 
L 295.468763 283.224838 
L 295.793743 285.823937 
L 296.118722 283.61725 
L 296.443702 290.81898 
L 296.768681 271.558862 
L 297.093661 281.511036 
L 297.74362 292.859407 
L 298.0686 272.81838 
L 298.393579 274.777698 
L 298.718559 284.55714 
L 299.043538 285.203609 
L 299.368518 278.286051 
L 299.693497 266.952071 
L 300.018477 283.415 
L 300.343456 263.459566 
L 300.668436 271.997278 
L 300.993415 261.247815 
L 301.318395 282.623368 
L 301.643374 286.337243 
L 301.968354 267.985414 
L 302.293333 261.490718 
L 302.618313 284.624855 
L 302.943292 274.698449 
L 303.268272 273.216087 
L 303.593251 283.39089 
L 303.918231 284.26284 
L 304.24321 282.834157 
L 304.56819 278.23808 
L 304.89317 277.934338 
L 305.218149 285.164508 
L 305.543129 279.571803 
L 305.868108 283.34048 
L 306.193088 275.471632 
L 306.518067 286.306311 
L 307.168026 276.238294 
L 307.493006 284.14839 
L 307.817985 277.895533 
L 308.142965 277.921337 
L 308.467944 246.688319 
L 308.792924 276.106375 
L 309.117903 284.315161 
L 309.442883 287.879558 
L 309.767862 267.187292 
L 310.092842 269.515018 
L 310.417821 280.665275 
L 310.742801 283.108995 
L 311.067781 267.011299 
L 311.71774 282.107209 
L 312.042719 279.389124 
L 312.367699 269.061478 
L 312.692678 285.484501 
L 313.017658 284.636074 
L 313.342637 280.262891 
L 313.667617 283.891565 
L 313.992596 284.792641 
L 314.317576 286.027651 
L 314.642555 274.110019 
L 314.967535 276.898256 
L 315.292514 271.94376 
L 315.617494 286.452285 
L 315.942473 276.368047 
L 316.267453 282.65397 
L 316.592432 267.075555 
L 316.917412 283.398519 
L 317.242391 288.088921 
L 317.567371 273.61349 
L 317.892351 280.788207 
L 318.21733 284.85738 
L 318.54231 282.050656 
L 318.867289 277.291001 
L 319.517248 289.99721 
L 319.842228 277.282557 
L 320.167207 273.796703 
L 320.492187 290.846339 
L 320.817166 276.863292 
L 321.142146 280.970431 
L 321.467125 277.906176 
L 321.792105 290.268912 
L 322.117084 282.930638 
L 322.442064 291.07778 
L 323.092023 276.651865 
L 323.417002 276.112544 
L 323.741982 282.813129 
L 324.066962 284.350223 
L 324.391941 281.347887 
L 324.716921 275.987004 
L 325.0419 285.030042 
L 325.36688 284.925711 
L 325.691859 288.589838 
L 326.016839 282.63775 
L 326.341818 286.424661 
L 326.666798 276.9033 
L 326.991777 289.502339 
L 327.316757 282.697243 
L 327.641736 286.900617 
L 327.966716 284.300133 
L 328.291695 288.051141 
L 328.616675 278.757032 
L 328.941654 273.955535 
L 329.266634 289.735485 
L 329.916593 271.468181 
L 330.241572 284.913197 
L 330.566552 267.057709 
L 330.891532 270.044291 
L 331.216511 283.00385 
L 331.541491 281.418358 
L 331.86647 273.418107 
L 332.19145 279.6014 
L 332.516429 280.489829 
L 332.841409 273.198649 
L 333.166388 284.799569 
L 333.491368 263.253468 
L 333.816347 279.884982 
L 334.141327 285.715903 
L 334.466306 284.381753 
L 334.791286 279.888889 
L 335.116265 277.209823 
L 335.441245 280.436803 
L 335.766224 282.457738 
L 336.091204 270.562857 
L 336.416183 273.728511 
L 336.741163 278.200197 
L 337.066143 289.95766 
L 337.391122 267.411742 
L 337.716102 285.244873 
L 338.041081 279.450157 
L 338.366061 282.588124 
L 338.69104 268.190521 
L 339.01602 283.500331 
L 339.340999 274.744158 
L 339.665979 278.275295 
L 339.990958 283.430453 
L 340.315938 281.667625 
L 340.640917 266.859473 
L 340.965897 260.062905 
L 341.290876 280.699196 
L 341.615856 241.409878 
L 341.940835 276.626826 
L 342.265815 286.830194 
L 342.590794 280.411994 
L 342.915774 269.27624 
L 343.240753 249.518144 
L 343.565733 287.255719 
L 343.890713 273.61327 
L 344.215692 268.358354 
L 344.540672 280.520829 
L 344.865651 277.744785 
L 345.190631 281.796639 
L 345.51561 268.428801 
L 345.84059 276.071517 
L 346.165569 267.398938 
L 346.490549 287.937133 
L 346.815528 280.011838 
L 347.140508 268.552463 
L 347.465487 273.878883 
L 347.790467 254.608935 
L 348.115446 293.251551 
L 348.440426 272.619047 
L 348.765405 271.203305 
L 349.090385 272.836901 
L 349.415364 275.046739 
L 349.740344 271.662351 
L 350.065324 275.740765 
L 350.390303 263.621428 
L 350.715283 260.517079 
L 351.040262 280.372142 
L 351.365242 278.093764 
L 351.690221 268.6525 
L 352.015201 263.148398 
L 352.34018 288.701963 
L 352.66516 282.015078 
L 352.990139 284.686571 
L 353.315119 281.894812 
L 353.640098 273.900197 
L 353.965078 284.982407 
L 354.615037 274.17586 
L 354.940016 288.079542 
L 355.264996 287.532498 
L 355.589975 286.174177 
L 355.914955 274.750117 
L 356.239934 276.534094 
L 356.564914 283.612916 
L 356.889894 283.319365 
L 357.214873 285.495087 
L 357.539853 283.751995 
L 357.864832 283.336988 
L 358.189812 290.451738 
L 358.514791 294.637408 
L 358.839771 270.447222 
L 359.16475 288.848956 
L 359.48973 278.919975 
L 359.814709 264.744675 
L 360.139689 284.47958 
L 360.464668 280.485247 
L 360.789648 269.686272 
L 361.114627 275.329844 
L 361.439607 272.172769 
L 361.764586 272.522073 
L 362.089566 276.568323 
L 362.414545 277.75091 
L 362.739525 288.773902 
L 363.064505 281.395736 
L 363.389484 290.973634 
L 363.714464 290.330493 
L 364.039443 291.237969 
L 364.689402 272.024253 
L 365.014382 277.54022 
L 365.339361 285.378429 
L 365.664341 276.346981 
L 365.98932 286.48428 
L 366.3143 285.933923 
L 366.639279 276.531269 
L 366.964259 286.699796 
L 367.289238 285.075448 
L 367.614218 275.6051 
L 367.939197 272.000756 
L 368.264177 288.380647 
L 368.589156 282.62486 
L 368.914136 286.681112 
L 369.239115 278.056884 
L 369.564095 294.663644 
L 370.214054 271.982953 
L 370.539034 273.360805 
L 370.864013 271.384871 
L 371.513972 276.141647 
L 371.838952 284.360768 
L 372.163931 282.843364 
L 372.488911 261.074334 
L 372.81389 294.959755 
L 373.13887 258.483587 
L 373.463849 284.340892 
L 373.788829 289.388232 
L 374.113808 275.494036 
L 374.438788 279.925488 
L 374.763767 278.693252 
L 375.088747 289.231871 
L 375.413726 264.391561 
L 376.063686 272.102137 
L 376.388665 271.016882 
L 376.713645 272.022099 
L 377.038624 278.018195 
L 377.363604 259.8622 
L 377.688583 265.567682 
L 378.013563 287.74671 
L 378.663522 266.400739 
L 378.988501 271.408678 
L 379.313481 262.279825 
L 379.63846 288.072906 
L 379.96344 279.804728 
L 380.288419 287.198381 
L 380.938378 278.712872 
L 381.588337 289.239874 
L 382.238296 274.916777 
L 382.563276 275.401763 
L 382.888256 291.589562 
L 383.213235 287.869263 
L 383.538215 282.236164 
L 383.863194 292.655045 
L 384.188174 269.141284 
L 384.513153 277.321613 
L 384.838133 277.584607 
L 385.163112 292.210305 
L 385.488092 295.488 
L 385.813071 288.316768 
L 386.138051 289.325767 
L 386.46303 282.033426 
L 386.78801 281.532744 
L 387.112989 284.242956 
L 387.437969 291.890282 
L 388.087928 279.893125 
L 388.412907 292.422204 
L 388.737887 290.003564 
L 389.062867 284.701304 
L 389.387846 286.662164 
L 389.712826 283.588124 
L 390.037805 285.002586 
L 390.362785 287.00088 
L 390.687764 286.25443 
L 391.012744 276.306333 
L 391.337723 295.320672 
L 391.662703 290.228126 
L 391.987682 279.904844 
L 392.312662 289.106123 
L 392.637641 269.957135 
L 392.962621 286.970965 
L 393.2876 281.067469 
L 393.61258 292.403603 
L 393.937559 283.208618 
L 394.262539 282.505741 
L 394.587518 291.462421 
L 394.912498 277.543118 
L 395.237477 278.029899 
L 395.562457 273.551061 
L 396.212416 291.707778 
L 396.537396 288.956742 
L 396.862375 273.344293 
L 397.187355 282.850619 
L 397.512334 285.483762 
L 397.837314 279.618867 
L 398.162293 287.575861 
L 398.487273 281.236927 
L 398.487273 281.236927 
" clip-path="url(#p7d01f74244)" style="fill: none; stroke: #1f77b4; stroke-width: 1.5; stroke-linecap: square"/>
   </g>
   <g id="line2d_26">
    <path d="M 73.832727 111.61797 
L 77.082523 118.128112 
L 80.332318 119.607333 
L 83.582113 142.961991 
L 86.831908 118.75562 
L 90.081704 127.960086 
L 93.331499 119.11592 
L 96.581294 129.033653 
L 99.831089 153.499485 
L 103.080885 146.473786 
L 106.33068 162.058012 
L 109.580475 95.970634 
L 112.83027 53.568 
L 116.080066 140.607528 
L 119.329861 159.580613 
L 122.579656 142.093387 
L 125.829451 110.236616 
L 129.079247 106.218907 
L 132.329042 190.584528 
L 135.578837 174.857859 
L 138.828632 126.903573 
L 142.078428 166.30677 
L 145.328223 169.222333 
L 148.578018 118.096712 
L 151.827813 148.813242 
L 155.077609 186.047096 
L 158.327404 152.941156 
L 161.577199 107.451221 
L 164.826994 201.515885 
L 168.07679 196.066008 
L 171.326585 212.414492 
L 174.57638 164.897408 
L 177.826175 152.600202 
L 181.075971 153.451368 
L 184.325766 127.080461 
L 187.575561 169.238371 
L 190.825356 148.772696 
L 194.075152 170.133004 
L 197.324947 99.525181 
L 200.574742 97.870175 
L 203.824537 144.133415 
L 207.074333 151.881965 
L 210.324128 154.412285 
L 213.573923 172.785777 
L 216.823718 110.697468 
L 220.073514 144.388755 
L 223.323309 121.460745 
L 226.573104 188.992999 
L 229.822899 171.726774 
L 233.072695 172.55118 
L 236.32249 186.107094 
L 239.572285 168.931032 
L 242.82208 172.199116 
L 246.071876 200.998042 
L 249.321671 181.856458 
L 252.571466 154.886494 
L 255.821261 169.720804 
L 259.071057 193.636727 
L 262.320852 171.465656 
L 265.570647 190.637483 
L 268.820442 152.910195 
L 272.070238 143.088083 
L 275.320033 168.058433 
L 278.569828 164.976792 
L 281.819623 171.644713 
L 285.069419 177.58059 
L 288.319214 196.297143 
L 291.569009 176.584951 
L 294.818804 194.22665 
L 298.0686 194.580345 
L 301.318395 158.872553 
L 304.56819 113.513407 
L 307.817985 120.279726 
L 311.067781 89.483095 
L 314.317576 166.125549 
L 317.567371 184.685035 
L 320.817166 169.717067 
L 324.066962 144.787449 
L 327.316757 145.710965 
L 330.566552 193.583519 
L 333.816347 169.021456 
L 337.066143 147.636921 
L 340.315938 220.710172 
L 343.565733 144.590904 
L 346.815528 171.426707 
L 350.065324 160.90698 
L 353.315119 153.844911 
L 356.564914 178.877764 
L 359.814709 217.358719 
L 363.064505 187.204404 
L 366.3143 198.401287 
L 369.564095 136.432979 
L 372.81389 136.784106 
L 376.063686 205.98611 
L 379.313481 178.251714 
L 382.563276 197.580218 
L 385.813071 144.902114 
L 389.062867 203.93398 
L 392.312662 207.599211 
L 395.562457 208.451882 
" clip-path="url(#p7d01f74244)" style="fill: none; stroke: #ff7f0e; stroke-width: 1.5; stroke-linecap: square"/>
   </g>
   <g id="patch_3">
    <path d="M 57.6 307.584 
L 57.6 41.472 
" style="fill: none; stroke: #000000; stroke-width: 0.8; stroke-linejoin: miter; stroke-linecap: square"/>
   </g>
   <g id="patch_4">
    <path d="M 414.72 307.584 
L 414.72 41.472 
" style="fill: none; stroke: #000000; stroke-width: 0.8; stroke-linejoin: miter; stroke-linecap: square"/>
   </g>
   <g id="patch_5">
    <path d="M 57.6 307.584 
L 414.72 307.584 
" style="fill: none; stroke: #000000; stroke-width: 0.8; stroke-linejoin: miter; stroke-linecap: square"/>
   </g>
   <g id="patch_6">
    <path d="M 57.6 41.472 
L 414.72 41.472 
" style="fill: none; stroke: #000000; stroke-width: 0.8; stroke-linejoin: miter; stroke-linecap: square"/>
   </g>
   <g id="text_15">
    <!-- Train Loss vs Validation Loss -->
    <g transform="translate(151.513125 35.472) scale(0.12 -0.12)">
     <defs>
      <path id="DejaVuSans-76" d="M 191 3500 
L 800 3500 
L 1894 563 
L 2988 3500 
L 3597 3500 
L 2284 0 
L 1503 0 
L 191 3500 
z
" transform="scale(0.015625)"/>
      <path id="DejaVuSans-56" d="M 1831 0 
L 50 4666 
L 709 4666 
L 2188 738 
L 3669 4666 
L 4325 4666 
L 2547 0 
L 1831 0 
z
" transform="scale(0.015625)"/>
      <path id="DejaVuSans-6c" d="M 603 4863 
L 1178 4863 
L 1178 0 
L 603 0 
L 603 4863 
z
" transform="scale(0.015625)"/>
      <path id="DejaVuSans-64" d="M 2906 2969 
L 2906 4863 
L 3481 4863 
L 3481 0 
L 2906 0 
L 2906 525 
Q 2725 213 2448 61 
Q 2172 -91 1784 -91 
Q 1150 -91 751 415 
Q 353 922 353 1747 
Q 353 2572 751 3078 
Q 1150 3584 1784 3584 
Q 2172 3584 2448 3432 
Q 2725 3281 2906 2969 
z
M 947 1747 
Q 947 1113 1208 752 
Q 1469 391 1925 391 
Q 2381 391 2643 752 
Q 2906 1113 2906 1747 
Q 2906 2381 2643 2742 
Q 2381 3103 1925 3103 
Q 1469 3103 1208 2742 
Q 947 2381 947 1747 
z
" transform="scale(0.015625)"/>
     </defs>
     <use xlink:href="#DejaVuSans-54"/>
     <use xlink:href="#DejaVuSans-72" x="46.333984"/>
     <use xlink:href="#DejaVuSans-61" x="87.447266"/>
     <use xlink:href="#DejaVuSans-69" x="148.726562"/>
     <use xlink:href="#DejaVuSans-6e" x="176.509766"/>
     <use xlink:href="#DejaVuSans-20" x="239.888672"/>
     <use xlink:href="#DejaVuSans-4c" x="271.675781"/>
     <use xlink:href="#DejaVuSans-6f" x="325.638672"/>
     <use xlink:href="#DejaVuSans-73" x="386.820312"/>
     <use xlink:href="#DejaVuSans-73" x="438.919922"/>
     <use xlink:href="#DejaVuSans-20" x="491.019531"/>
     <use xlink:href="#DejaVuSans-76" x="522.806641"/>
     <use xlink:href="#DejaVuSans-73" x="581.986328"/>
     <use xlink:href="#DejaVuSans-20" x="634.085938"/>
     <use xlink:href="#DejaVuSans-56" x="665.873047"/>
     <use xlink:href="#DejaVuSans-61" x="726.53125"/>
     <use xlink:href="#DejaVuSans-6c" x="787.810547"/>
     <use xlink:href="#DejaVuSans-69" x="815.59375"/>
     <use xlink:href="#DejaVuSans-64" x="843.376953"/>
     <use xlink:href="#DejaVuSans-61" x="906.853516"/>
     <use xlink:href="#DejaVuSans-74" x="968.132812"/>
     <use xlink:href="#DejaVuSans-69" x="1007.341797"/>
     <use xlink:href="#DejaVuSans-6f" x="1035.125"/>
     <use xlink:href="#DejaVuSans-6e" x="1096.306641"/>
     <use xlink:href="#DejaVuSans-20" x="1159.685547"/>
     <use xlink:href="#DejaVuSans-4c" x="1191.472656"/>
     <use xlink:href="#DejaVuSans-6f" x="1245.435547"/>
     <use xlink:href="#DejaVuSans-73" x="1306.617188"/>
     <use xlink:href="#DejaVuSans-73" x="1358.716797"/>
    </g>
   </g>
   <g id="legend_1">
    <g id="patch_7">
     <path d="M 301.22625 78.82825 
L 407.72 78.82825 
Q 409.72 78.82825 409.72 76.82825 
L 409.72 48.472 
Q 409.72 46.472 407.72 46.472 
L 301.22625 46.472 
Q 299.22625 46.472 299.22625 48.472 
L 299.22625 76.82825 
Q 299.22625 78.82825 301.22625 78.82825 
z
" style="fill: #ffffff; opacity: 0.8; stroke: #cccccc; stroke-linejoin: miter"/>
    </g>
    <g id="line2d_27">
     <path d="M 303.22625 54.570437 
L 313.22625 54.570437 
L 323.22625 54.570437 
" style="fill: none; stroke: #1f77b4; stroke-width: 1.5; stroke-linecap: square"/>
    </g>
    <g id="text_16">
     <!-- Train Loss -->
     <g transform="translate(331.22625 58.070437) scale(0.1 -0.1)">
      <use xlink:href="#DejaVuSans-54"/>
      <use xlink:href="#DejaVuSans-72" x="46.333984"/>
      <use xlink:href="#DejaVuSans-61" x="87.447266"/>
      <use xlink:href="#DejaVuSans-69" x="148.726562"/>
      <use xlink:href="#DejaVuSans-6e" x="176.509766"/>
      <use xlink:href="#DejaVuSans-20" x="239.888672"/>
      <use xlink:href="#DejaVuSans-4c" x="271.675781"/>
      <use xlink:href="#DejaVuSans-6f" x="325.638672"/>
      <use xlink:href="#DejaVuSans-73" x="386.820312"/>
      <use xlink:href="#DejaVuSans-73" x="438.919922"/>
     </g>
    </g>
    <g id="line2d_28">
     <path d="M 303.22625 69.248562 
L 313.22625 69.248562 
L 323.22625 69.248562 
" style="fill: none; stroke: #ff7f0e; stroke-width: 1.5; stroke-linecap: square"/>
    </g>
    <g id="text_17">
     <!-- Validation Loss -->
     <g transform="translate(331.22625 72.748562) scale(0.1 -0.1)">
      <use xlink:href="#DejaVuSans-56"/>
      <use xlink:href="#DejaVuSans-61" x="60.658203"/>
      <use xlink:href="#DejaVuSans-6c" x="121.9375"/>
      <use xlink:href="#DejaVuSans-69" x="149.720703"/>
      <use xlink:href="#DejaVuSans-64" x="177.503906"/>
      <use xlink:href="#DejaVuSans-61" x="240.980469"/>
      <use xlink:href="#DejaVuSans-74" x="302.259766"/>
      <use xlink:href="#DejaVuSans-69" x="341.46875"/>
      <use xlink:href="#DejaVuSans-6f" x="369.251953"/>
      <use xlink:href="#DejaVuSans-6e" x="430.433594"/>
      <use xlink:href="#DejaVuSans-20" x="493.8125"/>
      <use xlink:href="#DejaVuSans-4c" x="525.599609"/>
      <use xlink:href="#DejaVuSans-6f" x="579.5625"/>
      <use xlink:href="#DejaVuSans-73" x="640.744141"/>
      <use xlink:href="#DejaVuSans-73" x="692.84375"/>
     </g>
    </g>
   </g>
  </g>
 </g>
 <defs>
  <clipPath id="p7d01f74244">
   <rect x="57.6" y="41.472" width="357.12" height="266.112"/>
  </clipPath>
 </defs>
</svg>
