<?xml version="1.0" encoding="utf-8" standalone="no"?>
<!DOCTYPE svg PUBLIC "-//W3C//DTD SVG 1.1//EN"
  "http://www.w3.org/Graphics/SVG/1.1/DTD/svg11.dtd">
<svg xmlns:xlink="http://www.w3.org/1999/xlink" width="460.8pt" height="345.6pt" viewBox="0 0 460.8 345.6" xmlns="http://www.w3.org/2000/svg" version="1.1">
 <metadata>
  <rdf:RDF xmlns:dc="http://purl.org/dc/elements/1.1/" xmlns:cc="http://creativecommons.org/ns#" xmlns:rdf="http://www.w3.org/1999/02/22-rdf-syntax-ns#">
   <cc:Work>
    <dc:type rdf:resource="http://purl.org/dc/dcmitype/StillImage"/>
    <dc:date>2023-11-15T11:37:45.943704</dc:date>
    <dc:format>image/svg+xml</dc:format>
    <dc:creator>
     <cc:Agent>
      <dc:title>Matplotlib v3.8.0, https://matplotlib.org/</dc:title>
     </cc:Agent>
    </dc:creator>
   </cc:Work>
  </rdf:RDF>
 </metadata>
 <defs>
  <style type="text/css">*{stroke-linejoin: round; stroke-linecap: butt}</style>
 </defs>
 <g id="figure_1">
  <g id="patch_1">
   <path d="M 0 345.6 
L 460.8 345.6 
L 460.8 0 
L 0 0 
z
" style="fill: #ffffff"/>
  </g>
  <g id="axes_1">
   <g id="patch_2">
    <path d="M 57.6 307.584 
L 414.72 307.584 
L 414.72 41.472 
L 57.6 41.472 
z
" style="fill: #ffffff"/>
   </g>
   <g id="matplotlib.axis_1">
    <g id="xtick_1">
     <g id="line2d_1">
      <path d="M 73.832727 307.584 
L 73.832727 41.472 
" clip-path="url(#peeaf390e51)" style="fill: none; stroke: #b0b0b0; stroke-width: 0.8; stroke-linecap: square"/>
     </g>
     <g id="line2d_2">
      <defs>
       <path id="maf6b6b5f51" d="M 0 0 
L 0 3.5 
" style="stroke: #000000; stroke-width: 0.8"/>
      </defs>
      <g>
       <use xlink:href="#maf6b6b5f51" x="73.832727" y="307.584" style="stroke: #000000; stroke-width: 0.8"/>
      </g>
     </g>
     <g id="text_1">
      <!-- 0 -->
      <g transform="translate(70.651477 322.182437) scale(0.1 -0.1)">
       <defs>
        <path id="DejaVuSans-30" d="M 2034 4250 
Q 1547 4250 1301 3770 
Q 1056 3291 1056 2328 
Q 1056 1369 1301 889 
Q 1547 409 2034 409 
Q 2525 409 2770 889 
Q 3016 1369 3016 2328 
Q 3016 3291 2770 3770 
Q 2525 4250 2034 4250 
z
M 2034 4750 
Q 2819 4750 3233 4129 
Q 3647 3509 3647 2328 
Q 3647 1150 3233 529 
Q 2819 -91 2034 -91 
Q 1250 -91 836 529 
Q 422 1150 422 2328 
Q 422 3509 836 4129 
Q 1250 4750 2034 4750 
z
" transform="scale(0.015625)"/>
       </defs>
       <use xlink:href="#DejaVuSans-30"/>
      </g>
     </g>
    </g>
    <g id="xtick_2">
     <g id="line2d_3">
      <path d="M 138.828632 307.584 
L 138.828632 41.472 
" clip-path="url(#peeaf390e51)" style="fill: none; stroke: #b0b0b0; stroke-width: 0.8; stroke-linecap: square"/>
     </g>
     <g id="line2d_4">
      <g>
       <use xlink:href="#maf6b6b5f51" x="138.828632" y="307.584" style="stroke: #000000; stroke-width: 0.8"/>
      </g>
     </g>
     <g id="text_2">
      <!-- 200 -->
      <g transform="translate(129.284882 322.182437) scale(0.1 -0.1)">
       <defs>
        <path id="DejaVuSans-32" d="M 1228 531 
L 3431 531 
L 3431 0 
L 469 0 
L 469 531 
Q 828 903 1448 1529 
Q 2069 2156 2228 2338 
Q 2531 2678 2651 2914 
Q 2772 3150 2772 3378 
Q 2772 3750 2511 3984 
Q 2250 4219 1831 4219 
Q 1534 4219 1204 4116 
Q 875 4013 500 3803 
L 500 4441 
Q 881 4594 1212 4672 
Q 1544 4750 1819 4750 
Q 2544 4750 2975 4387 
Q 3406 4025 3406 3419 
Q 3406 3131 3298 2873 
Q 3191 2616 2906 2266 
Q 2828 2175 2409 1742 
Q 1991 1309 1228 531 
z
" transform="scale(0.015625)"/>
       </defs>
       <use xlink:href="#DejaVuSans-32"/>
       <use xlink:href="#DejaVuSans-30" x="63.623047"/>
       <use xlink:href="#DejaVuSans-30" x="127.246094"/>
      </g>
     </g>
    </g>
    <g id="xtick_3">
     <g id="line2d_5">
      <path d="M 203.824537 307.584 
L 203.824537 41.472 
" clip-path="url(#peeaf390e51)" style="fill: none; stroke: #b0b0b0; stroke-width: 0.8; stroke-linecap: square"/>
     </g>
     <g id="line2d_6">
      <g>
       <use xlink:href="#maf6b6b5f51" x="203.824537" y="307.584" style="stroke: #000000; stroke-width: 0.8"/>
      </g>
     </g>
     <g id="text_3">
      <!-- 400 -->
      <g transform="translate(194.280787 322.182437) scale(0.1 -0.1)">
       <defs>
        <path id="DejaVuSans-34" d="M 2419 4116 
L 825 1625 
L 2419 1625 
L 2419 4116 
z
M 2253 4666 
L 3047 4666 
L 3047 1625 
L 3713 1625 
L 3713 1100 
L 3047 1100 
L 3047 0 
L 2419 0 
L 2419 1100 
L 313 1100 
L 313 1709 
L 2253 4666 
z
" transform="scale(0.015625)"/>
       </defs>
       <use xlink:href="#DejaVuSans-34"/>
       <use xlink:href="#DejaVuSans-30" x="63.623047"/>
       <use xlink:href="#DejaVuSans-30" x="127.246094"/>
      </g>
     </g>
    </g>
    <g id="xtick_4">
     <g id="line2d_7">
      <path d="M 268.820442 307.584 
L 268.820442 41.472 
" clip-path="url(#peeaf390e51)" style="fill: none; stroke: #b0b0b0; stroke-width: 0.8; stroke-linecap: square"/>
     </g>
     <g id="line2d_8">
      <g>
       <use xlink:href="#maf6b6b5f51" x="268.820442" y="307.584" style="stroke: #000000; stroke-width: 0.8"/>
      </g>
     </g>
     <g id="text_4">
      <!-- 600 -->
      <g transform="translate(259.276692 322.182437) scale(0.1 -0.1)">
       <defs>
        <path id="DejaVuSans-36" d="M 2113 2584 
Q 1688 2584 1439 2293 
Q 1191 2003 1191 1497 
Q 1191 994 1439 701 
Q 1688 409 2113 409 
Q 2538 409 2786 701 
Q 3034 994 3034 1497 
Q 3034 2003 2786 2293 
Q 2538 2584 2113 2584 
z
M 3366 4563 
L 3366 3988 
Q 3128 4100 2886 4159 
Q 2644 4219 2406 4219 
Q 1781 4219 1451 3797 
Q 1122 3375 1075 2522 
Q 1259 2794 1537 2939 
Q 1816 3084 2150 3084 
Q 2853 3084 3261 2657 
Q 3669 2231 3669 1497 
Q 3669 778 3244 343 
Q 2819 -91 2113 -91 
Q 1303 -91 875 529 
Q 447 1150 447 2328 
Q 447 3434 972 4092 
Q 1497 4750 2381 4750 
Q 2619 4750 2861 4703 
Q 3103 4656 3366 4563 
z
" transform="scale(0.015625)"/>
       </defs>
       <use xlink:href="#DejaVuSans-36"/>
       <use xlink:href="#DejaVuSans-30" x="63.623047"/>
       <use xlink:href="#DejaVuSans-30" x="127.246094"/>
      </g>
     </g>
    </g>
    <g id="xtick_5">
     <g id="line2d_9">
      <path d="M 333.816347 307.584 
L 333.816347 41.472 
" clip-path="url(#peeaf390e51)" style="fill: none; stroke: #b0b0b0; stroke-width: 0.8; stroke-linecap: square"/>
     </g>
     <g id="line2d_10">
      <g>
       <use xlink:href="#maf6b6b5f51" x="333.816347" y="307.584" style="stroke: #000000; stroke-width: 0.8"/>
      </g>
     </g>
     <g id="text_5">
      <!-- 800 -->
      <g transform="translate(324.272597 322.182437) scale(0.1 -0.1)">
       <defs>
        <path id="DejaVuSans-38" d="M 2034 2216 
Q 1584 2216 1326 1975 
Q 1069 1734 1069 1313 
Q 1069 891 1326 650 
Q 1584 409 2034 409 
Q 2484 409 2743 651 
Q 3003 894 3003 1313 
Q 3003 1734 2745 1975 
Q 2488 2216 2034 2216 
z
M 1403 2484 
Q 997 2584 770 2862 
Q 544 3141 544 3541 
Q 544 4100 942 4425 
Q 1341 4750 2034 4750 
Q 2731 4750 3128 4425 
Q 3525 4100 3525 3541 
Q 3525 3141 3298 2862 
Q 3072 2584 2669 2484 
Q 3125 2378 3379 2068 
Q 3634 1759 3634 1313 
Q 3634 634 3220 271 
Q 2806 -91 2034 -91 
Q 1263 -91 848 271 
Q 434 634 434 1313 
Q 434 1759 690 2068 
Q 947 2378 1403 2484 
z
M 1172 3481 
Q 1172 3119 1398 2916 
Q 1625 2713 2034 2713 
Q 2441 2713 2670 2916 
Q 2900 3119 2900 3481 
Q 2900 3844 2670 4047 
Q 2441 4250 2034 4250 
Q 1625 4250 1398 4047 
Q 1172 3844 1172 3481 
z
" transform="scale(0.015625)"/>
       </defs>
       <use xlink:href="#DejaVuSans-38"/>
       <use xlink:href="#DejaVuSans-30" x="63.623047"/>
       <use xlink:href="#DejaVuSans-30" x="127.246094"/>
      </g>
     </g>
    </g>
    <g id="xtick_6">
     <g id="line2d_11">
      <path d="M 398.812252 307.584 
L 398.812252 41.472 
" clip-path="url(#peeaf390e51)" style="fill: none; stroke: #b0b0b0; stroke-width: 0.8; stroke-linecap: square"/>
     </g>
     <g id="line2d_12">
      <g>
       <use xlink:href="#maf6b6b5f51" x="398.812252" y="307.584" style="stroke: #000000; stroke-width: 0.8"/>
      </g>
     </g>
     <g id="text_6">
      <!-- 1000 -->
      <g transform="translate(386.087252 322.182437) scale(0.1 -0.1)">
       <defs>
        <path id="DejaVuSans-31" d="M 794 531 
L 1825 531 
L 1825 4091 
L 703 3866 
L 703 4441 
L 1819 4666 
L 2450 4666 
L 2450 531 
L 3481 531 
L 3481 0 
L 794 0 
L 794 531 
z
" transform="scale(0.015625)"/>
       </defs>
       <use xlink:href="#DejaVuSans-31"/>
       <use xlink:href="#DejaVuSans-30" x="63.623047"/>
       <use xlink:href="#DejaVuSans-30" x="127.246094"/>
       <use xlink:href="#DejaVuSans-30" x="190.869141"/>
      </g>
     </g>
    </g>
    <g id="text_7">
     <!-- Train Step -->
     <g transform="translate(211.192031 335.860562) scale(0.1 -0.1)">
      <defs>
       <path id="DejaVuSans-54" d="M -19 4666 
L 3928 4666 
L 3928 4134 
L 2272 4134 
L 2272 0 
L 1638 0 
L 1638 4134 
L -19 4134 
L -19 4666 
z
" transform="scale(0.015625)"/>
       <path id="DejaVuSans-72" d="M 2631 2963 
Q 2534 3019 2420 3045 
Q 2306 3072 2169 3072 
Q 1681 3072 1420 2755 
Q 1159 2438 1159 1844 
L 1159 0 
L 581 0 
L 581 3500 
L 1159 3500 
L 1159 2956 
Q 1341 3275 1631 3429 
Q 1922 3584 2338 3584 
Q 2397 3584 2469 3576 
Q 2541 3569 2628 3553 
L 2631 2963 
z
" transform="scale(0.015625)"/>
       <path id="DejaVuSans-61" d="M 2194 1759 
Q 1497 1759 1228 1600 
Q 959 1441 959 1056 
Q 959 750 1161 570 
Q 1363 391 1709 391 
Q 2188 391 2477 730 
Q 2766 1069 2766 1631 
L 2766 1759 
L 2194 1759 
z
M 3341 1997 
L 3341 0 
L 2766 0 
L 2766 531 
Q 2569 213 2275 61 
Q 1981 -91 1556 -91 
Q 1019 -91 701 211 
Q 384 513 384 1019 
Q 384 1609 779 1909 
Q 1175 2209 1959 2209 
L 2766 2209 
L 2766 2266 
Q 2766 2663 2505 2880 
Q 2244 3097 1772 3097 
Q 1472 3097 1187 3025 
Q 903 2953 641 2809 
L 641 3341 
Q 956 3463 1253 3523 
Q 1550 3584 1831 3584 
Q 2591 3584 2966 3190 
Q 3341 2797 3341 1997 
z
" transform="scale(0.015625)"/>
       <path id="DejaVuSans-69" d="M 603 3500 
L 1178 3500 
L 1178 0 
L 603 0 
L 603 3500 
z
M 603 4863 
L 1178 4863 
L 1178 4134 
L 603 4134 
L 603 4863 
z
" transform="scale(0.015625)"/>
       <path id="DejaVuSans-6e" d="M 3513 2113 
L 3513 0 
L 2938 0 
L 2938 2094 
Q 2938 2591 2744 2837 
Q 2550 3084 2163 3084 
Q 1697 3084 1428 2787 
Q 1159 2491 1159 1978 
L 1159 0 
L 581 0 
L 581 3500 
L 1159 3500 
L 1159 2956 
Q 1366 3272 1645 3428 
Q 1925 3584 2291 3584 
Q 2894 3584 3203 3211 
Q 3513 2838 3513 2113 
z
" transform="scale(0.015625)"/>
       <path id="DejaVuSans-20" transform="scale(0.015625)"/>
       <path id="DejaVuSans-53" d="M 3425 4513 
L 3425 3897 
Q 3066 4069 2747 4153 
Q 2428 4238 2131 4238 
Q 1616 4238 1336 4038 
Q 1056 3838 1056 3469 
Q 1056 3159 1242 3001 
Q 1428 2844 1947 2747 
L 2328 2669 
Q 3034 2534 3370 2195 
Q 3706 1856 3706 1288 
Q 3706 609 3251 259 
Q 2797 -91 1919 -91 
Q 1588 -91 1214 -16 
Q 841 59 441 206 
L 441 856 
Q 825 641 1194 531 
Q 1563 422 1919 422 
Q 2459 422 2753 634 
Q 3047 847 3047 1241 
Q 3047 1584 2836 1778 
Q 2625 1972 2144 2069 
L 1759 2144 
Q 1053 2284 737 2584 
Q 422 2884 422 3419 
Q 422 4038 858 4394 
Q 1294 4750 2059 4750 
Q 2388 4750 2728 4690 
Q 3069 4631 3425 4513 
z
" transform="scale(0.015625)"/>
       <path id="DejaVuSans-74" d="M 1172 4494 
L 1172 3500 
L 2356 3500 
L 2356 3053 
L 1172 3053 
L 1172 1153 
Q 1172 725 1289 603 
Q 1406 481 1766 481 
L 2356 481 
L 2356 0 
L 1766 0 
Q 1100 0 847 248 
Q 594 497 594 1153 
L 594 3053 
L 172 3053 
L 172 3500 
L 594 3500 
L 594 4494 
L 1172 4494 
z
" transform="scale(0.015625)"/>
       <path id="DejaVuSans-65" d="M 3597 1894 
L 3597 1613 
L 953 1613 
Q 991 1019 1311 708 
Q 1631 397 2203 397 
Q 2534 397 2845 478 
Q 3156 559 3463 722 
L 3463 178 
Q 3153 47 2828 -22 
Q 2503 -91 2169 -91 
Q 1331 -91 842 396 
Q 353 884 353 1716 
Q 353 2575 817 3079 
Q 1281 3584 2069 3584 
Q 2775 3584 3186 3129 
Q 3597 2675 3597 1894 
z
M 3022 2063 
Q 3016 2534 2758 2815 
Q 2500 3097 2075 3097 
Q 1594 3097 1305 2825 
Q 1016 2553 972 2059 
L 3022 2063 
z
" transform="scale(0.015625)"/>
       <path id="DejaVuSans-70" d="M 1159 525 
L 1159 -1331 
L 581 -1331 
L 581 3500 
L 1159 3500 
L 1159 2969 
Q 1341 3281 1617 3432 
Q 1894 3584 2278 3584 
Q 2916 3584 3314 3078 
Q 3713 2572 3713 1747 
Q 3713 922 3314 415 
Q 2916 -91 2278 -91 
Q 1894 -91 1617 61 
Q 1341 213 1159 525 
z
M 3116 1747 
Q 3116 2381 2855 2742 
Q 2594 3103 2138 3103 
Q 1681 3103 1420 2742 
Q 1159 2381 1159 1747 
Q 1159 1113 1420 752 
Q 1681 391 2138 391 
Q 2594 391 2855 752 
Q 3116 1113 3116 1747 
z
" transform="scale(0.015625)"/>
      </defs>
      <use xlink:href="#DejaVuSans-54"/>
      <use xlink:href="#DejaVuSans-72" x="46.333984"/>
      <use xlink:href="#DejaVuSans-61" x="87.447266"/>
      <use xlink:href="#DejaVuSans-69" x="148.726562"/>
      <use xlink:href="#DejaVuSans-6e" x="176.509766"/>
      <use xlink:href="#DejaVuSans-20" x="239.888672"/>
      <use xlink:href="#DejaVuSans-53" x="271.675781"/>
      <use xlink:href="#DejaVuSans-74" x="335.152344"/>
      <use xlink:href="#DejaVuSans-65" x="374.361328"/>
      <use xlink:href="#DejaVuSans-70" x="435.884766"/>
     </g>
    </g>
   </g>
   <g id="matplotlib.axis_2">
    <g id="ytick_1">
     <g id="line2d_13">
      <path d="M 57.6 306.487812 
L 414.72 306.487812 
" clip-path="url(#peeaf390e51)" style="fill: none; stroke: #b0b0b0; stroke-width: 0.8; stroke-linecap: square"/>
     </g>
     <g id="line2d_14">
      <defs>
       <path id="m39a7d0b51c" d="M 0 0 
L -3.5 0 
" style="stroke: #000000; stroke-width: 0.8"/>
      </defs>
      <g>
       <use xlink:href="#m39a7d0b51c" x="57.6" y="306.487812" style="stroke: #000000; stroke-width: 0.8"/>
      </g>
     </g>
     <g id="text_8">
      <!-- 0.00 -->
      <g transform="translate(28.334375 310.28703) scale(0.1 -0.1)">
       <defs>
        <path id="DejaVuSans-2e" d="M 684 794 
L 1344 794 
L 1344 0 
L 684 0 
L 684 794 
z
" transform="scale(0.015625)"/>
       </defs>
       <use xlink:href="#DejaVuSans-30"/>
       <use xlink:href="#DejaVuSans-2e" x="63.623047"/>
       <use xlink:href="#DejaVuSans-30" x="95.410156"/>
       <use xlink:href="#DejaVuSans-30" x="159.033203"/>
      </g>
     </g>
    </g>
    <g id="ytick_2">
     <g id="line2d_15">
      <path d="M 57.6 252.241118 
L 414.72 252.241118 
" clip-path="url(#peeaf390e51)" style="fill: none; stroke: #b0b0b0; stroke-width: 0.8; stroke-linecap: square"/>
     </g>
     <g id="line2d_16">
      <g>
       <use xlink:href="#m39a7d0b51c" x="57.6" y="252.241118" style="stroke: #000000; stroke-width: 0.8"/>
      </g>
     </g>
     <g id="text_9">
      <!-- 0.02 -->
      <g transform="translate(28.334375 256.040336) scale(0.1 -0.1)">
       <use xlink:href="#DejaVuSans-30"/>
       <use xlink:href="#DejaVuSans-2e" x="63.623047"/>
       <use xlink:href="#DejaVuSans-30" x="95.410156"/>
       <use xlink:href="#DejaVuSans-32" x="159.033203"/>
      </g>
     </g>
    </g>
    <g id="ytick_3">
     <g id="line2d_17">
      <path d="M 57.6 197.994424 
L 414.72 197.994424 
" clip-path="url(#peeaf390e51)" style="fill: none; stroke: #b0b0b0; stroke-width: 0.8; stroke-linecap: square"/>
     </g>
     <g id="line2d_18">
      <g>
       <use xlink:href="#m39a7d0b51c" x="57.6" y="197.994424" style="stroke: #000000; stroke-width: 0.8"/>
      </g>
     </g>
     <g id="text_10">
      <!-- 0.04 -->
      <g transform="translate(28.334375 201.793643) scale(0.1 -0.1)">
       <use xlink:href="#DejaVuSans-30"/>
       <use xlink:href="#DejaVuSans-2e" x="63.623047"/>
       <use xlink:href="#DejaVuSans-30" x="95.410156"/>
       <use xlink:href="#DejaVuSans-34" x="159.033203"/>
      </g>
     </g>
    </g>
    <g id="ytick_4">
     <g id="line2d_19">
      <path d="M 57.6 143.74773 
L 414.72 143.74773 
" clip-path="url(#peeaf390e51)" style="fill: none; stroke: #b0b0b0; stroke-width: 0.8; stroke-linecap: square"/>
     </g>
     <g id="line2d_20">
      <g>
       <use xlink:href="#m39a7d0b51c" x="57.6" y="143.74773" style="stroke: #000000; stroke-width: 0.8"/>
      </g>
     </g>
     <g id="text_11">
      <!-- 0.06 -->
      <g transform="translate(28.334375 147.546949) scale(0.1 -0.1)">
       <use xlink:href="#DejaVuSans-30"/>
       <use xlink:href="#DejaVuSans-2e" x="63.623047"/>
       <use xlink:href="#DejaVuSans-30" x="95.410156"/>
       <use xlink:href="#DejaVuSans-36" x="159.033203"/>
      </g>
     </g>
    </g>
    <g id="ytick_5">
     <g id="line2d_21">
      <path d="M 57.6 89.501036 
L 414.72 89.501036 
" clip-path="url(#peeaf390e51)" style="fill: none; stroke: #b0b0b0; stroke-width: 0.8; stroke-linecap: square"/>
     </g>
     <g id="line2d_22">
      <g>
       <use xlink:href="#m39a7d0b51c" x="57.6" y="89.501036" style="stroke: #000000; stroke-width: 0.8"/>
      </g>
     </g>
     <g id="text_12">
      <!-- 0.08 -->
      <g transform="translate(28.334375 93.300255) scale(0.1 -0.1)">
       <use xlink:href="#DejaVuSans-30"/>
       <use xlink:href="#DejaVuSans-2e" x="63.623047"/>
       <use xlink:href="#DejaVuSans-30" x="95.410156"/>
       <use xlink:href="#DejaVuSans-38" x="159.033203"/>
      </g>
     </g>
    </g>
    <g id="text_13">
     <!-- Loss -->
     <g transform="translate(22.254688 185.495187) rotate(-90) scale(0.1 -0.1)">
      <defs>
       <path id="DejaVuSans-4c" d="M 628 4666 
L 1259 4666 
L 1259 531 
L 3531 531 
L 3531 0 
L 628 0 
L 628 4666 
z
" transform="scale(0.015625)"/>
       <path id="DejaVuSans-6f" d="M 1959 3097 
Q 1497 3097 1228 2736 
Q 959 2375 959 1747 
Q 959 1119 1226 758 
Q 1494 397 1959 397 
Q 2419 397 2687 759 
Q 2956 1122 2956 1747 
Q 2956 2369 2687 2733 
Q 2419 3097 1959 3097 
z
M 1959 3584 
Q 2709 3584 3137 3096 
Q 3566 2609 3566 1747 
Q 3566 888 3137 398 
Q 2709 -91 1959 -91 
Q 1206 -91 779 398 
Q 353 888 353 1747 
Q 353 2609 779 3096 
Q 1206 3584 1959 3584 
z
" transform="scale(0.015625)"/>
       <path id="DejaVuSans-73" d="M 2834 3397 
L 2834 2853 
Q 2591 2978 2328 3040 
Q 2066 3103 1784 3103 
Q 1356 3103 1142 2972 
Q 928 2841 928 2578 
Q 928 2378 1081 2264 
Q 1234 2150 1697 2047 
L 1894 2003 
Q 2506 1872 2764 1633 
Q 3022 1394 3022 966 
Q 3022 478 2636 193 
Q 2250 -91 1575 -91 
Q 1294 -91 989 -36 
Q 684 19 347 128 
L 347 722 
Q 666 556 975 473 
Q 1284 391 1588 391 
Q 1994 391 2212 530 
Q 2431 669 2431 922 
Q 2431 1156 2273 1281 
Q 2116 1406 1581 1522 
L 1381 1569 
Q 847 1681 609 1914 
Q 372 2147 372 2553 
Q 372 3047 722 3315 
Q 1072 3584 1716 3584 
Q 2034 3584 2315 3537 
Q 2597 3491 2834 3397 
z
" transform="scale(0.015625)"/>
      </defs>
      <use xlink:href="#DejaVuSans-4c"/>
      <use xlink:href="#DejaVuSans-6f" x="53.962891"/>
      <use xlink:href="#DejaVuSans-73" x="115.144531"/>
      <use xlink:href="#DejaVuSans-73" x="167.244141"/>
     </g>
    </g>
   </g>
   <g id="line2d_23">
    <path d="M 73.832727 132.144587 
L 74.157707 81.828633 
L 74.482686 104.875866 
L 74.807666 113.157822 
L 75.132645 93.860371 
L 75.457625 53.568 
L 75.782604 94.889467 
L 76.107584 85.645771 
L 76.432563 88.490597 
L 76.757543 127.597075 
L 77.082523 98.801948 
L 77.407502 131.464936 
L 77.732482 88.037847 
L 78.057461 93.36581 
L 78.382441 142.468164 
L 78.70742 98.516382 
L 79.0324 98.111021 
L 79.357379 127.806698 
L 79.682359 82.249091 
L 80.007338 139.849783 
L 80.332318 111.238543 
L 80.982277 151.50724 
L 81.307256 115.683153 
L 81.632236 170.824535 
L 81.957215 131.594573 
L 82.607174 148.615297 
L 82.932154 176.768593 
L 83.257133 171.546492 
L 83.582113 150.998249 
L 83.907093 107.142124 
L 84.232072 178.416452 
L 84.557052 132.912468 
L 84.882031 179.425016 
L 85.207011 166.738655 
L 85.53199 209.904418 
L 86.181949 157.46216 
L 86.506929 153.891112 
L 87.156888 194.778158 
L 87.481867 170.599008 
L 87.806847 206.889628 
L 88.131826 173.080992 
L 88.456806 207.441016 
L 88.781785 206.841219 
L 89.106765 242.809756 
L 89.431744 181.60837 
L 89.756724 212.586163 
L 90.081704 197.461196 
L 90.406683 203.62005 
L 90.731663 206.003638 
L 91.056642 207.037787 
L 91.381622 216.338077 
L 91.706601 248.011209 
L 92.031581 229.831741 
L 92.35656 219.319614 
L 92.68154 231.478418 
L 93.006519 204.172317 
L 93.331499 227.989204 
L 93.656478 230.052878 
L 94.306437 207.232283 
L 94.631417 193.177445 
L 94.956396 251.666749 
L 95.281376 223.157763 
L 95.606355 234.151463 
L 95.931335 201.483176 
L 96.256314 217.393252 
L 96.581294 260.497071 
L 96.906274 202.425446 
L 97.881212 231.597547 
L 98.206192 247.726072 
L 98.531171 239.295418 
L 98.856151 252.031416 
L 99.18113 168.391274 
L 99.50611 248.208059 
L 99.831089 229.857603 
L 100.156069 253.019867 
L 100.481048 257.390984 
L 100.806028 224.079431 
L 101.131007 240.195129 
L 101.455987 220.776241 
L 101.780966 242.839619 
L 102.105946 257.169626 
L 102.430925 250.984349 
L 102.755905 238.792575 
L 103.080885 248.317276 
L 103.405864 249.823464 
L 103.730844 242.514768 
L 104.055823 245.835525 
L 104.380803 236.962158 
L 104.705782 252.211554 
L 105.030762 243.270646 
L 105.355741 255.619414 
L 105.680721 230.465206 
L 106.0057 259.186795 
L 106.33068 241.409981 
L 106.655659 264.377595 
L 107.305618 241.870492 
L 107.630598 248.344527 
L 107.955577 220.587231 
L 108.280557 242.071091 
L 108.605536 246.989762 
L 108.930516 240.507239 
L 109.255495 247.341571 
L 109.580475 246.233793 
L 109.905455 260.531022 
L 110.230434 232.299448 
L 110.555414 231.036924 
L 110.880393 236.910202 
L 111.205373 247.502652 
L 111.530352 228.378136 
L 111.855332 252.243352 
L 112.180311 231.83721 
L 112.505291 245.663934 
L 112.83027 268.852179 
L 113.15525 243.86722 
L 113.480229 260.700106 
L 113.805209 247.726936 
L 114.130188 252.683417 
L 114.455168 242.412473 
L 114.780147 247.69677 
L 115.105127 268.490205 
L 115.430106 233.637238 
L 116.080066 260.945361 
L 116.405045 261.701112 
L 116.730025 247.539503 
L 117.055004 239.711419 
L 117.379984 246.425592 
L 117.704963 236.618402 
L 118.029943 267.240602 
L 118.354922 267.163075 
L 118.679902 245.850145 
L 119.004881 253.341142 
L 119.329861 225.000483 
L 119.65484 264.953819 
L 119.97982 245.046288 
L 120.304799 250.451578 
L 120.629779 252.451807 
L 120.954758 249.630877 
L 121.279738 240.503748 
L 121.604717 256.660716 
L 121.929697 246.014814 
L 122.254676 256.631353 
L 122.579656 253.281143 
L 122.904636 260.682524 
L 123.554595 228.755898 
L 124.204554 263.326217 
L 124.529533 219.476826 
L 124.854513 263.695673 
L 125.179492 256.264251 
L 125.504472 251.885445 
L 125.829451 250.77409 
L 126.154431 269.687446 
L 126.47941 261.888096 
L 126.80439 265.69107 
L 127.129369 239.140328 
L 127.454349 244.067122 
L 127.779328 230.594803 
L 128.104308 274.836682 
L 128.429287 250.587672 
L 128.754267 253.385307 
L 129.079247 259.252907 
L 129.404226 230.714033 
L 129.729206 234.626579 
L 130.054185 253.284568 
L 130.379165 254.830213 
L 130.704144 264.287081 
L 131.029124 259.205781 
L 131.354103 276.414499 
L 131.679083 247.921756 
L 132.004062 262.578569 
L 132.329042 257.916076 
L 132.654021 257.571658 
L 132.979001 254.557525 
L 133.30398 236.845929 
L 133.62896 259.96957 
L 133.953939 231.182425 
L 134.603898 281.034554 
L 134.928878 238.215179 
L 135.253857 258.222851 
L 135.578837 257.665087 
L 135.903817 266.517697 
L 136.228796 255.887399 
L 136.553776 272.231315 
L 136.878755 276.069237 
L 137.203735 253.887483 
L 137.528714 252.994385 
L 137.853694 266.980415 
L 138.178673 268.309041 
L 138.503653 249.186594 
L 138.828632 248.704485 
L 139.153612 210.641664 
L 139.478591 264.213234 
L 140.12855 242.942177 
L 140.45353 268.232027 
L 140.778509 260.621636 
L 141.103489 268.717384 
L 141.428468 261.734173 
L 141.753448 263.074853 
L 142.078428 279.499824 
L 142.403407 280.193394 
L 142.728387 249.00983 
L 143.053366 269.238666 
L 143.378346 279.303216 
L 143.703325 254.679357 
L 144.028305 270.155216 
L 144.353284 269.626426 
L 144.678264 268.780864 
L 145.003243 270.374453 
L 145.328223 261.107089 
L 145.653202 268.551679 
L 145.978182 260.993982 
L 146.303161 277.602325 
L 146.628141 258.464256 
L 146.95312 270.903354 
L 147.2781 255.372618 
L 147.603079 271.243043 
L 147.928059 252.593246 
L 148.253038 265.03796 
L 148.578018 255.320248 
L 148.902998 256.511739 
L 149.227977 247.578106 
L 149.552957 274.144764 
L 149.877936 262.692433 
L 150.202916 269.969574 
L 150.527895 265.007276 
L 150.852875 267.602604 
L 151.177854 273.294281 
L 151.502834 258.212413 
L 151.827813 278.350796 
L 152.152793 263.281839 
L 152.477772 266.90118 
L 152.802752 265.340084 
L 153.127731 262.183822 
L 153.452711 260.614988 
L 153.77769 261.625927 
L 154.10267 276.060646 
L 154.427649 255.952167 
L 154.752629 260.299468 
L 155.077609 246.832474 
L 155.402588 278.190085 
L 155.727568 253.140184 
L 156.052547 257.513033 
L 156.377527 280.283776 
L 157.352465 241.311283 
L 157.677445 238.764086 
L 158.002424 253.92115 
L 158.327404 221.151138 
L 158.652383 271.91307 
L 158.977363 263.611479 
L 159.302342 234.984209 
L 159.627322 277.337622 
L 159.952301 271.251728 
L 160.277281 262.779497 
L 160.60226 226.244799 
L 160.92724 270.389897 
L 161.252219 264.493298 
L 161.577199 260.649489 
L 161.902179 280.03625 
L 162.227158 271.597515 
L 162.552138 252.459527 
L 162.877117 272.49568 
L 163.202097 258.661435 
L 163.527076 266.778444 
L 163.852056 258.898531 
L 164.177035 272.073215 
L 164.502015 261.444182 
L 164.826994 268.382736 
L 165.151974 268.965417 
L 165.476953 266.607713 
L 165.801933 267.98589 
L 166.126912 273.637075 
L 166.451892 271.701477 
L 166.776871 256.590926 
L 167.101851 269.971696 
L 167.42683 256.400481 
L 167.75181 264.533635 
L 168.07679 264.809743 
L 168.401769 259.412902 
L 168.726749 256.158273 
L 169.051728 269.147486 
L 169.701687 276.372705 
L 170.026667 276.705127 
L 170.351646 259.229935 
L 170.676626 250.592921 
L 171.001605 276.363311 
L 171.326585 243.532214 
L 171.651564 252.472415 
L 171.976544 235.157441 
L 172.301523 267.353969 
L 172.626503 256.442818 
L 172.951482 270.55471 
L 173.276462 259.685621 
L 173.601441 252.848181 
L 173.926421 267.437561 
L 174.2514 265.162057 
L 174.57638 272.402842 
L 174.90136 272.513469 
L 175.551319 248.675774 
L 175.876298 277.863102 
L 176.201278 270.302501 
L 176.526257 251.906482 
L 176.851237 264.557018 
L 177.176216 257.128163 
L 177.501196 273.969261 
L 177.826175 258.435272 
L 178.151155 276.1015 
L 178.476134 263.835273 
L 178.801114 244.996742 
L 179.126093 273.955108 
L 179.451073 278.305504 
L 179.776052 226.465733 
L 180.101032 220.484582 
L 180.426011 257.57036 
L 180.750991 263.899915 
L 181.075971 255.553105 
L 181.72593 264.621632 
L 182.050909 259.519431 
L 182.375889 260.803937 
L 182.700868 275.736404 
L 183.025848 268.481834 
L 183.350827 245.893002 
L 183.675807 275.188241 
L 184.000786 266.842018 
L 184.650745 270.602685 
L 184.975725 256.32906 
L 185.300704 273.876578 
L 185.625684 254.014791 
L 185.950663 241.707541 
L 186.275643 269.236479 
L 186.925602 275.97549 
L 187.250581 256.924255 
L 187.575561 263.717276 
L 187.900541 275.639575 
L 188.22552 276.999264 
L 188.5505 268.324867 
L 188.875479 271.615005 
L 189.200459 265.039943 
L 189.525438 280.96077 
L 189.850418 275.856631 
L 190.175397 267.497984 
L 190.500377 263.536915 
L 190.825356 265.899184 
L 191.150336 266.211685 
L 191.475315 278.288117 
L 191.800295 272.963981 
L 192.125274 278.030338 
L 192.450254 280.642128 
L 192.775233 269.74798 
L 193.100213 274.493626 
L 193.425192 261.239652 
L 193.750172 269.452985 
L 194.075152 283.229047 
L 194.400131 255.684975 
L 194.725111 276.250818 
L 195.37507 268.505852 
L 195.700049 250.828441 
L 196.025029 279.709871 
L 196.350008 233.31269 
L 196.674988 271.039956 
L 196.999967 263.005306 
L 197.324947 279.83924 
L 197.649926 277.25994 
L 197.974906 268.984898 
L 198.299885 237.479323 
L 198.624865 247.884289 
L 198.949844 282.616273 
L 199.274824 269.816414 
L 199.599803 283.654433 
L 199.924783 260.059952 
L 200.249762 273.961029 
L 200.574742 262.326327 
L 200.899722 268.867709 
L 201.224701 265.666824 
L 201.549681 250.091484 
L 201.87466 283.339736 
L 202.19964 263.494028 
L 202.524619 266.750544 
L 202.849599 279.885008 
L 203.174578 260.741382 
L 203.499558 254.310688 
L 203.824537 269.036182 
L 204.149517 274.143519 
L 204.474496 254.189933 
L 204.799476 273.005603 
L 205.124455 268.719152 
L 205.449435 277.93075 
L 205.774414 277.513951 
L 206.099394 273.3727 
L 206.424373 277.439055 
L 206.749353 272.554762 
L 207.074333 277.928803 
L 207.399312 268.385007 
L 207.724292 284.205419 
L 208.049271 264.550792 
L 208.374251 251.669184 
L 208.69923 280.437126 
L 209.02421 269.416278 
L 209.349189 267.958591 
L 209.674169 269.117077 
L 209.999148 272.619912 
L 210.324128 242.587923 
L 210.649107 266.475335 
L 210.974087 264.534587 
L 211.299066 272.854103 
L 211.624046 267.838098 
L 211.949025 268.735986 
L 212.274005 264.889549 
L 212.598984 280.976853 
L 212.923964 267.928576 
L 213.248943 280.484598 
L 213.898903 261.880993 
L 214.223882 261.554141 
L 214.548862 276.195548 
L 214.873841 231.067787 
L 215.198821 273.508968 
L 215.5238 254.597517 
L 215.84878 272.48085 
L 216.173759 253.942525 
L 216.498739 267.20283 
L 216.823718 272.212875 
L 217.148698 266.220021 
L 217.473677 267.641124 
L 217.798657 265.58347 
L 218.123636 259.382898 
L 218.448616 263.486823 
L 218.773595 263.163377 
L 219.098575 278.407076 
L 219.423554 278.912164 
L 219.748534 276.623901 
L 220.073514 272.586952 
L 220.723473 283.468368 
L 221.048452 280.962437 
L 221.373432 273.037348 
L 222.023391 283.084276 
L 222.34837 273.929221 
L 222.67335 284.415746 
L 222.998329 257.888785 
L 223.323309 256.649571 
L 223.648288 260.883462 
L 223.973268 275.500331 
L 224.298247 269.527511 
L 224.623227 279.958427 
L 224.948206 279.820964 
L 225.273186 276.207402 
L 225.598165 269.814037 
L 225.923145 276.484852 
L 226.248124 278.903124 
L 226.573104 277.366654 
L 226.898084 256.220055 
L 227.223063 264.981406 
L 227.548043 285.854184 
L 227.873022 272.932239 
L 228.198002 248.07192 
L 228.522981 280.519387 
L 229.17294 259.27745 
L 229.49792 259.795373 
L 229.822899 270.823475 
L 230.147879 270.642013 
L 230.472858 252.441349 
L 230.797838 273.879773 
L 231.122817 282.252313 
L 231.447797 260.937333 
L 231.772776 260.470901 
L 232.097756 276.788045 
L 232.422735 265.16524 
L 232.747715 276.577399 
L 233.072695 272.02724 
L 233.397674 277.444997 
L 233.722654 260.990592 
L 234.047633 263.872234 
L 234.372613 278.836845 
L 234.697592 264.668577 
L 235.022572 272.575577 
L 235.347551 274.754184 
L 235.672531 266.71332 
L 235.99751 284.549375 
L 236.32249 261.069522 
L 236.647469 262.244871 
L 236.972449 276.445973 
L 237.297428 271.346437 
L 237.622408 270.567034 
L 237.947387 276.585707 
L 238.272367 278.191927 
L 238.597346 271.466162 
L 238.922326 270.871238 
L 239.572285 283.050538 
L 239.897265 252.416837 
L 240.222244 261.800063 
L 240.547224 282.164836 
L 240.872203 284.680328 
L 241.197183 270.592558 
L 241.522162 267.367723 
L 241.847142 272.91733 
L 242.172121 274.998216 
L 242.497101 271.132361 
L 242.82208 272.746136 
L 243.14706 284.49244 
L 243.472039 265.832579 
L 243.797019 265.093028 
L 244.121998 284.472638 
L 244.446978 267.742042 
L 244.771957 277.999042 
L 245.096937 279.895294 
L 245.421916 273.475993 
L 245.746896 276.890249 
L 246.071876 274.091669 
L 246.396855 269.359285 
L 246.721835 272.767194 
L 247.046814 273.345305 
L 247.371794 276.100126 
L 247.696773 282.309362 
L 248.021753 266.433761 
L 248.346732 274.3065 
L 248.671712 258.476578 
L 248.996691 263.936507 
L 249.321671 239.175996 
L 249.64665 276.218095 
L 249.97163 259.016882 
L 250.296609 221.496663 
L 250.621589 267.738768 
L 250.946568 277.721262 
L 251.271548 266.754434 
L 251.596527 247.019402 
L 251.921507 274.678301 
L 252.246486 250.63156 
L 252.571466 272.32792 
L 252.896446 260.00598 
L 253.221425 278.115696 
L 253.546405 268.064744 
L 253.871384 263.338225 
L 254.196364 269.958426 
L 254.846323 285.870972 
L 255.171302 285.544998 
L 255.496282 270.685714 
L 255.821261 283.756235 
L 256.146241 281.89236 
L 256.47122 281.631183 
L 256.7962 278.391147 
L 257.446159 280.578128 
L 258.421097 263.547636 
L 259.071057 277.965855 
L 259.396036 273.119142 
L 259.721016 256.530119 
L 260.045995 273.401636 
L 260.370975 272.476517 
L 260.695954 273.933695 
L 261.020934 280.675222 
L 261.345913 281.150699 
L 261.670893 267.563773 
L 261.995872 258.635679 
L 262.320852 289.139948 
L 262.645831 278.265246 
L 263.29579 283.528453 
L 263.62077 267.660253 
L 264.270729 287.867718 
L 264.595708 283.453174 
L 264.920688 261.197264 
L 265.245667 278.451058 
L 265.570647 279.902056 
L 265.895627 278.636619 
L 266.220606 281.038972 
L 266.545586 271.895807 
L 266.870565 285.552544 
L 267.195545 278.675 
L 268.170483 285.362017 
L 268.495463 268.892455 
L 268.820442 268.115144 
L 269.145422 288.299009 
L 269.470401 287.865848 
L 269.795381 288.14309 
L 270.12036 272.545355 
L 270.44534 282.584854 
L 270.770319 260.363337 
L 271.095299 281.307042 
L 272.070238 270.576899 
L 272.395217 271.196255 
L 273.045176 275.475535 
L 273.370156 287.970139 
L 273.695135 269.186334 
L 274.020115 273.756027 
L 274.345094 275.591491 
L 274.670074 283.129533 
L 274.995053 269.313938 
L 275.320033 274.455144 
L 275.645012 282.046723 
L 275.969992 282.979361 
L 276.294971 276.02393 
L 276.619951 277.579428 
L 276.94493 281.255836 
L 277.26991 274.441695 
L 277.594889 272.095497 
L 277.919869 287.432576 
L 278.244848 278.334078 
L 278.569828 276.61985 
L 278.894808 278.990081 
L 279.219787 271.303082 
L 279.544767 287.456781 
L 279.869746 269.166951 
L 280.194726 282.846983 
L 280.519705 284.551987 
L 280.844685 282.204813 
L 281.169664 284.550521 
L 281.494644 282.375593 
L 281.819623 264.49731 
L 282.144603 279.590055 
L 282.469582 285.098037 
L 282.794562 281.328423 
L 283.119541 283.762962 
L 283.444521 274.215585 
L 284.419459 279.758791 
L 284.744439 279.001311 
L 285.069419 253.054909 
L 285.394398 280.541038 
L 285.719378 278.814984 
L 286.044357 270.253753 
L 286.369337 280.272121 
L 286.694316 273.938406 
L 287.019296 273.829755 
L 287.344275 274.571049 
L 287.669255 290.372095 
L 287.994234 276.220798 
L 288.319214 268.587701 
L 288.644193 280.21631 
L 288.969173 281.58455 
L 289.294152 287.086845 
L 289.619132 285.468438 
L 289.944111 264.603983 
L 290.269091 282.031781 
L 290.59407 284.169693 
L 290.91905 275.685771 
L 291.244029 284.797641 
L 291.893989 264.119977 
L 292.218968 282.395642 
L 292.543948 274.011568 
L 292.868927 254.257833 
L 293.193907 262.107484 
L 293.518886 287.225606 
L 293.843866 273.167298 
L 294.168845 277.797478 
L 294.493825 272.397712 
L 294.818804 276.784576 
L 295.143784 270.394164 
L 295.468763 280.456331 
L 295.793743 276.615755 
L 296.118722 277.796222 
L 296.443702 260.362645 
L 296.768681 267.825943 
L 297.41864 253.410689 
L 297.74362 281.221848 
L 298.0686 271.387645 
L 298.393579 284.141378 
L 298.718559 278.750502 
L 299.043538 269.95661 
L 299.368518 270.837646 
L 299.693497 271.277304 
L 300.018477 268.736304 
L 300.343456 285.791166 
L 300.668436 273.822177 
L 300.993415 280.128045 
L 301.318395 267.616045 
L 301.643374 272.897556 
L 301.968354 269.732056 
L 302.293333 268.644818 
L 302.618313 272.880571 
L 302.943292 264.690637 
L 303.268272 286.454136 
L 303.593251 283.347148 
L 303.918231 277.071789 
L 304.24321 278.717645 
L 304.56819 283.626838 
L 304.89317 279.596375 
L 305.543129 263.003164 
L 305.868108 292.410768 
L 306.193088 282.958615 
L 306.518067 284.773956 
L 306.843047 271.466857 
L 307.168026 284.018953 
L 307.817985 281.667407 
L 308.142965 269.848714 
L 308.467944 277.984212 
L 308.792924 274.495793 
L 309.117903 291.060332 
L 309.767862 276.940427 
L 310.092842 284.180757 
L 310.417821 281.442383 
L 310.742801 281.250688 
L 311.067781 282.568788 
L 311.39276 264.247609 
L 311.71774 288.651649 
L 312.042719 272.400372 
L 312.367699 280.719226 
L 312.692678 262.50545 
L 313.017658 280.107144 
L 313.342637 279.102172 
L 313.992596 264.711444 
L 314.317576 280.208467 
L 314.642555 271.139475 
L 314.967535 281.16945 
L 315.292514 270.493074 
L 315.617494 271.765609 
L 316.592432 286.711682 
L 316.917412 268.813106 
L 317.567371 278.022234 
L 317.892351 271.633178 
L 318.21733 276.899656 
L 318.54231 284.336559 
L 318.867289 279.731815 
L 319.192269 277.140218 
L 319.517248 277.205115 
L 319.842228 280.196708 
L 320.167207 271.900258 
L 320.492187 271.437315 
L 320.817166 272.478566 
L 321.142146 271.943181 
L 321.467125 268.258525 
L 321.792105 284.71444 
L 322.117084 277.722929 
L 322.442064 279.430827 
L 322.767043 282.159814 
L 323.092023 280.636076 
L 323.417002 284.900573 
L 323.741982 276.520197 
L 324.066962 286.677613 
L 324.391941 274.147313 
L 324.716921 278.382538 
L 325.0419 284.506278 
L 325.36688 283.86385 
L 325.691859 267.424027 
L 326.016839 291.344893 
L 326.666798 270.443066 
L 326.991777 283.200432 
L 327.316757 265.361113 
L 327.641736 262.942564 
L 327.966716 276.238991 
L 328.291695 282.016011 
L 328.616675 274.151181 
L 328.941654 291.616193 
L 329.266634 287.336157 
L 329.591613 269.643093 
L 329.916593 281.981214 
L 330.241572 281.85359 
L 330.566552 293.420699 
L 330.891532 288.290938 
L 331.216511 279.047407 
L 331.541491 283.959846 
L 331.86647 279.487681 
L 332.19145 269.592534 
L 332.516429 285.089077 
L 332.841409 279.462497 
L 333.491368 286.970755 
L 333.816347 291.804863 
L 334.141327 278.32574 
L 334.791286 264.115228 
L 335.441245 283.811556 
L 335.766224 273.271908 
L 336.091204 277.48558 
L 336.416183 290.731198 
L 336.741163 271.355948 
L 337.066143 279.099666 
L 337.391122 290.760171 
L 337.716102 284.865673 
L 338.041081 274.530948 
L 338.366061 268.602147 
L 338.69104 285.754297 
L 339.01602 271.545781 
L 339.340999 284.811895 
L 339.990958 258.477518 
L 340.315938 261.005628 
L 340.640917 282.671457 
L 340.965897 276.222738 
L 341.290876 262.287764 
L 341.615856 267.326864 
L 342.265815 287.673577 
L 342.590794 273.0778 
L 342.915774 278.274011 
L 343.240753 285.739939 
L 343.565733 281.588804 
L 343.890713 274.613644 
L 344.215692 283.472475 
L 344.540672 282.105322 
L 344.865651 278.005006 
L 345.190631 282.523092 
L 345.51561 289.373149 
L 345.84059 268.893937 
L 346.165569 283.688453 
L 346.490549 283.109976 
L 346.815528 287.781974 
L 347.140508 282.484175 
L 347.465487 280.57716 
L 347.790467 276.01043 
L 348.440426 270.166354 
L 348.765405 289.497754 
L 349.090385 282.492792 
L 349.415364 284.330138 
L 349.740344 279.701537 
L 350.065324 277.308024 
L 350.390303 284.083299 
L 350.715283 286.768211 
L 351.040262 283.189244 
L 351.365242 289.87506 
L 351.690221 288.613622 
L 352.015201 282.199211 
L 352.34018 281.845254 
L 352.66516 290.512352 
L 352.990139 295.488 
L 353.315119 275.382278 
L 353.640098 286.568132 
L 353.965078 291.170096 
L 354.290057 280.197259 
L 354.615037 287.226065 
L 354.940016 272.496453 
L 355.264996 278.523482 
L 355.589975 286.744685 
L 356.564914 268.208413 
L 356.889894 280.759372 
L 357.214873 269.134479 
L 357.539853 288.244838 
L 357.864832 283.635485 
L 358.189812 277.032956 
L 358.514791 286.155992 
L 358.839771 281.33544 
L 359.48973 287.978425 
L 359.814709 272.551501 
L 360.139689 292.115934 
L 360.464668 290.385623 
L 360.789648 277.013809 
L 361.114627 279.558747 
L 361.439607 283.547156 
L 361.764586 273.355308 
L 362.089566 274.168034 
L 362.414545 285.84719 
L 362.739525 282.381423 
L 363.064505 289.629013 
L 363.389484 282.297601 
L 363.714464 281.534539 
L 364.039443 267.333371 
L 364.364423 279.056112 
L 364.689402 280.270805 
L 365.014382 287.112019 
L 365.339361 269.004233 
L 365.664341 285.49911 
L 365.98932 291.373791 
L 366.3143 279.471249 
L 366.639279 287.868677 
L 366.964259 277.291534 
L 367.289238 274.669934 
L 367.614218 274.633627 
L 368.264177 289.339331 
L 368.589156 275.547896 
L 368.914136 275.482618 
L 369.239115 279.925033 
L 369.564095 268.930707 
L 369.889075 288.217279 
L 370.214054 279.545197 
L 370.539034 274.825146 
L 370.864013 292.615197 
L 371.513972 274.561281 
L 371.838952 268.952388 
L 372.163931 279.756474 
L 372.488911 279.849274 
L 372.81389 274.162568 
L 373.13887 274.384386 
L 373.463849 282.431901 
L 373.788829 264.22493 
L 374.113808 282.967832 
L 374.438788 284.826529 
L 374.763767 289.930276 
L 375.088747 282.133518 
L 375.413726 284.044153 
L 375.738706 277.231742 
L 376.063686 275.810607 
L 376.388665 266.367796 
L 376.713645 287.568104 
L 377.038624 260.549558 
L 377.363604 279.873431 
L 377.688583 284.051231 
L 378.338542 254.937979 
L 378.988501 286.903674 
L 379.313481 272.329688 
L 379.63846 243.266366 
L 379.96344 276.896746 
L 380.288419 276.639467 
L 380.938378 285.175574 
L 381.263358 277.817065 
L 381.588337 273.431459 
L 381.913317 276.480954 
L 382.238296 286.604251 
L 382.563276 280.068033 
L 382.888256 280.151249 
L 383.213235 283.866874 
L 383.538215 279.773212 
L 383.863194 287.301251 
L 384.188174 281.812979 
L 384.513153 286.353593 
L 384.838133 285.341802 
L 385.163112 286.334315 
L 385.488092 281.799209 
L 385.813071 284.776907 
L 386.138051 273.558024 
L 386.46303 280.103992 
L 387.112989 272.890546 
L 387.437969 290.232669 
L 387.762948 284.782535 
L 388.087928 289.30631 
L 388.412907 276.247122 
L 388.737887 271.214928 
L 389.387846 284.570765 
L 389.712826 285.012343 
L 390.037805 273.409148 
L 390.362785 287.87018 
L 390.687764 287.564966 
L 391.337723 274.162884 
L 391.662703 285.21145 
L 391.987682 290.613195 
L 392.312662 286.327676 
L 392.637641 285.63681 
L 392.962621 284.212972 
L 393.2876 277.122278 
L 393.937559 287.690086 
L 394.262539 287.879739 
L 394.587518 283.652374 
L 394.912498 286.253844 
L 395.562457 280.572368 
L 395.887437 283.082103 
L 396.212416 280.565146 
L 396.537396 288.150041 
L 396.862375 271.445683 
L 397.187355 280.839284 
L 397.837314 288.129576 
L 398.162293 277.962768 
L 398.487273 281.522401 
L 398.487273 281.522401 
" clip-path="url(#peeaf390e51)" style="fill: none; stroke: #1f77b4; stroke-width: 1.5; stroke-linecap: square"/>
   </g>
   <g id="line2d_24">
    <path d="M 73.832727 94.304567 
L 77.082523 102.924031 
L 80.332318 114.227003 
L 83.582113 129.352759 
L 86.831908 154.973871 
L 90.081704 170.450961 
L 93.331499 177.470059 
L 96.581294 183.559686 
L 99.831089 192.51032 
L 103.080885 165.798377 
L 106.33068 192.895467 
L 109.580475 201.302567 
L 112.83027 193.039762 
L 116.080066 164.127956 
L 119.329861 173.904038 
L 122.579656 206.234079 
L 125.829451 196.739673 
L 129.079247 195.68214 
L 132.329042 180.069965 
L 135.578837 207.060408 
L 138.828632 181.794915 
L 142.078428 192.013015 
L 145.328223 186.525675 
L 148.578018 218.654952 
L 151.827813 207.608938 
L 155.077609 197.770688 
L 158.327404 213.986569 
L 161.577199 212.140818 
L 164.826994 190.59509 
L 168.07679 215.571758 
L 171.326585 191.848168 
L 174.57638 210.573389 
L 177.826175 194.810143 
L 181.075971 191.010896 
L 184.325766 223.086606 
L 187.575561 216.214123 
L 190.825356 231.481433 
L 194.075152 230.195622 
L 197.324947 220.271792 
L 200.574742 202.686621 
L 203.824537 229.62036 
L 207.074333 209.783173 
L 210.324128 200.895951 
L 213.573923 233.721639 
L 216.823718 212.964202 
L 220.073514 233.48541 
L 223.323309 222.950147 
L 226.573104 217.371567 
L 229.822899 202.913179 
L 233.072695 232.754123 
L 236.32249 224.735936 
L 239.572285 235.863729 
L 242.82208 226.104604 
L 246.071876 232.052514 
L 249.321671 230.42008 
L 252.571466 205.789075 
L 255.821261 228.228789 
L 259.071057 233.273366 
L 262.320852 206.368912 
L 265.570647 234.280208 
L 268.820442 226.603144 
L 272.070238 231.692898 
L 275.320033 209.826712 
L 278.569828 189.119593 
L 281.819623 231.57691 
L 285.069419 240.516166 
L 288.319214 215.705316 
L 291.569009 238.632934 
L 294.818804 196.023251 
L 298.0686 232.316528 
L 301.318395 226.668672 
L 304.56819 241.053012 
L 307.817985 247.057014 
L 311.067781 244.927936 
L 314.317576 231.745818 
L 317.567371 239.158528 
L 320.817166 169.793584 
L 324.066962 239.97877 
L 327.316757 247.879033 
L 330.566552 239.464292 
L 333.816347 248.539402 
L 337.066143 236.589185 
L 340.315938 222.280195 
L 343.565733 244.118147 
L 346.815528 242.940464 
L 350.065324 238.438175 
L 353.315119 241.306856 
L 356.564914 243.198323 
L 359.814709 252.791381 
L 363.064505 243.662046 
L 366.3143 212.438718 
L 369.564095 246.930414 
L 372.81389 241.095654 
L 376.063686 242.485757 
L 379.313481 212.686681 
L 382.563276 243.928923 
L 385.813071 248.307848 
L 389.062867 249.368355 
L 392.312662 251.965867 
L 395.562457 248.150005 
" clip-path="url(#peeaf390e51)" style="fill: none; stroke: #ff7f0e; stroke-width: 1.5; stroke-linecap: square"/>
   </g>
   <g id="patch_3">
    <path d="M 57.6 307.584 
L 57.6 41.472 
" style="fill: none; stroke: #000000; stroke-width: 0.8; stroke-linejoin: miter; stroke-linecap: square"/>
   </g>
   <g id="patch_4">
    <path d="M 414.72 307.584 
L 414.72 41.472 
" style="fill: none; stroke: #000000; stroke-width: 0.8; stroke-linejoin: miter; stroke-linecap: square"/>
   </g>
   <g id="patch_5">
    <path d="M 57.6 307.584 
L 414.72 307.584 
" style="fill: none; stroke: #000000; stroke-width: 0.8; stroke-linejoin: miter; stroke-linecap: square"/>
   </g>
   <g id="patch_6">
    <path d="M 57.6 41.472 
L 414.72 41.472 
" style="fill: none; stroke: #000000; stroke-width: 0.8; stroke-linejoin: miter; stroke-linecap: square"/>
   </g>
   <g id="text_14">
    <!-- Train Loss vs Validation Loss -->
    <g transform="translate(151.513125 35.472) scale(0.12 -0.12)">
     <defs>
      <path id="DejaVuSans-76" d="M 191 3500 
L 800 3500 
L 1894 563 
L 2988 3500 
L 3597 3500 
L 2284 0 
L 1503 0 
L 191 3500 
z
" transform="scale(0.015625)"/>
      <path id="DejaVuSans-56" d="M 1831 0 
L 50 4666 
L 709 4666 
L 2188 738 
L 3669 4666 
L 4325 4666 
L 2547 0 
L 1831 0 
z
" transform="scale(0.015625)"/>
      <path id="DejaVuSans-6c" d="M 603 4863 
L 1178 4863 
L 1178 0 
L 603 0 
L 603 4863 
z
" transform="scale(0.015625)"/>
      <path id="DejaVuSans-64" d="M 2906 2969 
L 2906 4863 
L 3481 4863 
L 3481 0 
L 2906 0 
L 2906 525 
Q 2725 213 2448 61 
Q 2172 -91 1784 -91 
Q 1150 -91 751 415 
Q 353 922 353 1747 
Q 353 2572 751 3078 
Q 1150 3584 1784 3584 
Q 2172 3584 2448 3432 
Q 2725 3281 2906 2969 
z
M 947 1747 
Q 947 1113 1208 752 
Q 1469 391 1925 391 
Q 2381 391 2643 752 
Q 2906 1113 2906 1747 
Q 2906 2381 2643 2742 
Q 2381 3103 1925 3103 
Q 1469 3103 1208 2742 
Q 947 2381 947 1747 
z
" transform="scale(0.015625)"/>
     </defs>
     <use xlink:href="#DejaVuSans-54"/>
     <use xlink:href="#DejaVuSans-72" x="46.333984"/>
     <use xlink:href="#DejaVuSans-61" x="87.447266"/>
     <use xlink:href="#DejaVuSans-69" x="148.726562"/>
     <use xlink:href="#DejaVuSans-6e" x="176.509766"/>
     <use xlink:href="#DejaVuSans-20" x="239.888672"/>
     <use xlink:href="#DejaVuSans-4c" x="271.675781"/>
     <use xlink:href="#DejaVuSans-6f" x="325.638672"/>
     <use xlink:href="#DejaVuSans-73" x="386.820312"/>
     <use xlink:href="#DejaVuSans-73" x="438.919922"/>
     <use xlink:href="#DejaVuSans-20" x="491.019531"/>
     <use xlink:href="#DejaVuSans-76" x="522.806641"/>
     <use xlink:href="#DejaVuSans-73" x="581.986328"/>
     <use xlink:href="#DejaVuSans-20" x="634.085938"/>
     <use xlink:href="#DejaVuSans-56" x="665.873047"/>
     <use xlink:href="#DejaVuSans-61" x="726.53125"/>
     <use xlink:href="#DejaVuSans-6c" x="787.810547"/>
     <use xlink:href="#DejaVuSans-69" x="815.59375"/>
     <use xlink:href="#DejaVuSans-64" x="843.376953"/>
     <use xlink:href="#DejaVuSans-61" x="906.853516"/>
     <use xlink:href="#DejaVuSans-74" x="968.132812"/>
     <use xlink:href="#DejaVuSans-69" x="1007.341797"/>
     <use xlink:href="#DejaVuSans-6f" x="1035.125"/>
     <use xlink:href="#DejaVuSans-6e" x="1096.306641"/>
     <use xlink:href="#DejaVuSans-20" x="1159.685547"/>
     <use xlink:href="#DejaVuSans-4c" x="1191.472656"/>
     <use xlink:href="#DejaVuSans-6f" x="1245.435547"/>
     <use xlink:href="#DejaVuSans-73" x="1306.617188"/>
     <use xlink:href="#DejaVuSans-73" x="1358.716797"/>
    </g>
   </g>
   <g id="legend_1">
    <g id="patch_7">
     <path d="M 301.22625 78.82825 
L 407.72 78.82825 
Q 409.72 78.82825 409.72 76.82825 
L 409.72 48.472 
Q 409.72 46.472 407.72 46.472 
L 301.22625 46.472 
Q 299.22625 46.472 299.22625 48.472 
L 299.22625 76.82825 
Q 299.22625 78.82825 301.22625 78.82825 
z
" style="fill: #ffffff; opacity: 0.8; stroke: #cccccc; stroke-linejoin: miter"/>
    </g>
    <g id="line2d_25">
     <path d="M 303.22625 54.570437 
L 313.22625 54.570437 
L 323.22625 54.570437 
" style="fill: none; stroke: #1f77b4; stroke-width: 1.5; stroke-linecap: square"/>
    </g>
    <g id="text_15">
     <!-- Train Loss -->
     <g transform="translate(331.22625 58.070437) scale(0.1 -0.1)">
      <use xlink:href="#DejaVuSans-54"/>
      <use xlink:href="#DejaVuSans-72" x="46.333984"/>
      <use xlink:href="#DejaVuSans-61" x="87.447266"/>
      <use xlink:href="#DejaVuSans-69" x="148.726562"/>
      <use xlink:href="#DejaVuSans-6e" x="176.509766"/>
      <use xlink:href="#DejaVuSans-20" x="239.888672"/>
      <use xlink:href="#DejaVuSans-4c" x="271.675781"/>
      <use xlink:href="#DejaVuSans-6f" x="325.638672"/>
      <use xlink:href="#DejaVuSans-73" x="386.820312"/>
      <use xlink:href="#DejaVuSans-73" x="438.919922"/>
     </g>
    </g>
    <g id="line2d_26">
     <path d="M 303.22625 69.248562 
L 313.22625 69.248562 
L 323.22625 69.248562 
" style="fill: none; stroke: #ff7f0e; stroke-width: 1.5; stroke-linecap: square"/>
    </g>
    <g id="text_16">
     <!-- Validation Loss -->
     <g transform="translate(331.22625 72.748562) scale(0.1 -0.1)">
      <use xlink:href="#DejaVuSans-56"/>
      <use xlink:href="#DejaVuSans-61" x="60.658203"/>
      <use xlink:href="#DejaVuSans-6c" x="121.9375"/>
      <use xlink:href="#DejaVuSans-69" x="149.720703"/>
      <use xlink:href="#DejaVuSans-64" x="177.503906"/>
      <use xlink:href="#DejaVuSans-61" x="240.980469"/>
      <use xlink:href="#DejaVuSans-74" x="302.259766"/>
      <use xlink:href="#DejaVuSans-69" x="341.46875"/>
      <use xlink:href="#DejaVuSans-6f" x="369.251953"/>
      <use xlink:href="#DejaVuSans-6e" x="430.433594"/>
      <use xlink:href="#DejaVuSans-20" x="493.8125"/>
      <use xlink:href="#DejaVuSans-4c" x="525.599609"/>
      <use xlink:href="#DejaVuSans-6f" x="579.5625"/>
      <use xlink:href="#DejaVuSans-73" x="640.744141"/>
      <use xlink:href="#DejaVuSans-73" x="692.84375"/>
     </g>
    </g>
   </g>
  </g>
 </g>
 <defs>
  <clipPath id="peeaf390e51">
   <rect x="57.6" y="41.472" width="357.12" height="266.112"/>
  </clipPath>
 </defs>
</svg>
