<?xml version="1.0" encoding="utf-8" standalone="no"?>
<!DOCTYPE svg PUBLIC "-//W3C//DTD SVG 1.1//EN"
  "http://www.w3.org/Graphics/SVG/1.1/DTD/svg11.dtd">
<svg xmlns:xlink="http://www.w3.org/1999/xlink" width="460.8pt" height="345.6pt" viewBox="0 0 460.8 345.6" xmlns="http://www.w3.org/2000/svg" version="1.1">
 <metadata>
  <rdf:RDF xmlns:dc="http://purl.org/dc/elements/1.1/" xmlns:cc="http://creativecommons.org/ns#" xmlns:rdf="http://www.w3.org/1999/02/22-rdf-syntax-ns#">
   <cc:Work>
    <dc:type rdf:resource="http://purl.org/dc/dcmitype/StillImage"/>
    <dc:date>2023-11-15T11:45:16.732773</dc:date>
    <dc:format>image/svg+xml</dc:format>
    <dc:creator>
     <cc:Agent>
      <dc:title>Matplotlib v3.8.0, https://matplotlib.org/</dc:title>
     </cc:Agent>
    </dc:creator>
   </cc:Work>
  </rdf:RDF>
 </metadata>
 <defs>
  <style type="text/css">*{stroke-linejoin: round; stroke-linecap: butt}</style>
 </defs>
 <g id="figure_1">
  <g id="patch_1">
   <path d="M 0 345.6 
L 460.8 345.6 
L 460.8 0 
L 0 0 
z
" style="fill: #ffffff"/>
  </g>
  <g id="axes_1">
   <g id="patch_2">
    <path d="M 57.6 307.584 
L 414.72 307.584 
L 414.72 41.472 
L 57.6 41.472 
z
" style="fill: #ffffff"/>
   </g>
   <g id="matplotlib.axis_1">
    <g id="xtick_1">
     <g id="line2d_1">
      <path d="M 73.832727 307.584 
L 73.832727 41.472 
" clip-path="url(#pc5669858e5)" style="fill: none; stroke: #b0b0b0; stroke-width: 0.8; stroke-linecap: square"/>
     </g>
     <g id="line2d_2">
      <defs>
       <path id="ma5ddc3001c" d="M 0 0 
L 0 3.5 
" style="stroke: #000000; stroke-width: 0.8"/>
      </defs>
      <g>
       <use xlink:href="#ma5ddc3001c" x="73.832727" y="307.584" style="stroke: #000000; stroke-width: 0.8"/>
      </g>
     </g>
     <g id="text_1">
      <!-- 0 -->
      <g transform="translate(70.651477 322.182437) scale(0.1 -0.1)">
       <defs>
        <path id="DejaVuSans-30" d="M 2034 4250 
Q 1547 4250 1301 3770 
Q 1056 3291 1056 2328 
Q 1056 1369 1301 889 
Q 1547 409 2034 409 
Q 2525 409 2770 889 
Q 3016 1369 3016 2328 
Q 3016 3291 2770 3770 
Q 2525 4250 2034 4250 
z
M 2034 4750 
Q 2819 4750 3233 4129 
Q 3647 3509 3647 2328 
Q 3647 1150 3233 529 
Q 2819 -91 2034 -91 
Q 1250 -91 836 529 
Q 422 1150 422 2328 
Q 422 3509 836 4129 
Q 1250 4750 2034 4750 
z
" transform="scale(0.015625)"/>
       </defs>
       <use xlink:href="#DejaVuSans-30"/>
      </g>
     </g>
    </g>
    <g id="xtick_2">
     <g id="line2d_3">
      <path d="M 138.828632 307.584 
L 138.828632 41.472 
" clip-path="url(#pc5669858e5)" style="fill: none; stroke: #b0b0b0; stroke-width: 0.8; stroke-linecap: square"/>
     </g>
     <g id="line2d_4">
      <g>
       <use xlink:href="#ma5ddc3001c" x="138.828632" y="307.584" style="stroke: #000000; stroke-width: 0.8"/>
      </g>
     </g>
     <g id="text_2">
      <!-- 200 -->
      <g transform="translate(129.284882 322.182437) scale(0.1 -0.1)">
       <defs>
        <path id="DejaVuSans-32" d="M 1228 531 
L 3431 531 
L 3431 0 
L 469 0 
L 469 531 
Q 828 903 1448 1529 
Q 2069 2156 2228 2338 
Q 2531 2678 2651 2914 
Q 2772 3150 2772 3378 
Q 2772 3750 2511 3984 
Q 2250 4219 1831 4219 
Q 1534 4219 1204 4116 
Q 875 4013 500 3803 
L 500 4441 
Q 881 4594 1212 4672 
Q 1544 4750 1819 4750 
Q 2544 4750 2975 4387 
Q 3406 4025 3406 3419 
Q 3406 3131 3298 2873 
Q 3191 2616 2906 2266 
Q 2828 2175 2409 1742 
Q 1991 1309 1228 531 
z
" transform="scale(0.015625)"/>
       </defs>
       <use xlink:href="#DejaVuSans-32"/>
       <use xlink:href="#DejaVuSans-30" x="63.623047"/>
       <use xlink:href="#DejaVuSans-30" x="127.246094"/>
      </g>
     </g>
    </g>
    <g id="xtick_3">
     <g id="line2d_5">
      <path d="M 203.824537 307.584 
L 203.824537 41.472 
" clip-path="url(#pc5669858e5)" style="fill: none; stroke: #b0b0b0; stroke-width: 0.8; stroke-linecap: square"/>
     </g>
     <g id="line2d_6">
      <g>
       <use xlink:href="#ma5ddc3001c" x="203.824537" y="307.584" style="stroke: #000000; stroke-width: 0.8"/>
      </g>
     </g>
     <g id="text_3">
      <!-- 400 -->
      <g transform="translate(194.280787 322.182437) scale(0.1 -0.1)">
       <defs>
        <path id="DejaVuSans-34" d="M 2419 4116 
L 825 1625 
L 2419 1625 
L 2419 4116 
z
M 2253 4666 
L 3047 4666 
L 3047 1625 
L 3713 1625 
L 3713 1100 
L 3047 1100 
L 3047 0 
L 2419 0 
L 2419 1100 
L 313 1100 
L 313 1709 
L 2253 4666 
z
" transform="scale(0.015625)"/>
       </defs>
       <use xlink:href="#DejaVuSans-34"/>
       <use xlink:href="#DejaVuSans-30" x="63.623047"/>
       <use xlink:href="#DejaVuSans-30" x="127.246094"/>
      </g>
     </g>
    </g>
    <g id="xtick_4">
     <g id="line2d_7">
      <path d="M 268.820442 307.584 
L 268.820442 41.472 
" clip-path="url(#pc5669858e5)" style="fill: none; stroke: #b0b0b0; stroke-width: 0.8; stroke-linecap: square"/>
     </g>
     <g id="line2d_8">
      <g>
       <use xlink:href="#ma5ddc3001c" x="268.820442" y="307.584" style="stroke: #000000; stroke-width: 0.8"/>
      </g>
     </g>
     <g id="text_4">
      <!-- 600 -->
      <g transform="translate(259.276692 322.182437) scale(0.1 -0.1)">
       <defs>
        <path id="DejaVuSans-36" d="M 2113 2584 
Q 1688 2584 1439 2293 
Q 1191 2003 1191 1497 
Q 1191 994 1439 701 
Q 1688 409 2113 409 
Q 2538 409 2786 701 
Q 3034 994 3034 1497 
Q 3034 2003 2786 2293 
Q 2538 2584 2113 2584 
z
M 3366 4563 
L 3366 3988 
Q 3128 4100 2886 4159 
Q 2644 4219 2406 4219 
Q 1781 4219 1451 3797 
Q 1122 3375 1075 2522 
Q 1259 2794 1537 2939 
Q 1816 3084 2150 3084 
Q 2853 3084 3261 2657 
Q 3669 2231 3669 1497 
Q 3669 778 3244 343 
Q 2819 -91 2113 -91 
Q 1303 -91 875 529 
Q 447 1150 447 2328 
Q 447 3434 972 4092 
Q 1497 4750 2381 4750 
Q 2619 4750 2861 4703 
Q 3103 4656 3366 4563 
z
" transform="scale(0.015625)"/>
       </defs>
       <use xlink:href="#DejaVuSans-36"/>
       <use xlink:href="#DejaVuSans-30" x="63.623047"/>
       <use xlink:href="#DejaVuSans-30" x="127.246094"/>
      </g>
     </g>
    </g>
    <g id="xtick_5">
     <g id="line2d_9">
      <path d="M 333.816347 307.584 
L 333.816347 41.472 
" clip-path="url(#pc5669858e5)" style="fill: none; stroke: #b0b0b0; stroke-width: 0.8; stroke-linecap: square"/>
     </g>
     <g id="line2d_10">
      <g>
       <use xlink:href="#ma5ddc3001c" x="333.816347" y="307.584" style="stroke: #000000; stroke-width: 0.8"/>
      </g>
     </g>
     <g id="text_5">
      <!-- 800 -->
      <g transform="translate(324.272597 322.182437) scale(0.1 -0.1)">
       <defs>
        <path id="DejaVuSans-38" d="M 2034 2216 
Q 1584 2216 1326 1975 
Q 1069 1734 1069 1313 
Q 1069 891 1326 650 
Q 1584 409 2034 409 
Q 2484 409 2743 651 
Q 3003 894 3003 1313 
Q 3003 1734 2745 1975 
Q 2488 2216 2034 2216 
z
M 1403 2484 
Q 997 2584 770 2862 
Q 544 3141 544 3541 
Q 544 4100 942 4425 
Q 1341 4750 2034 4750 
Q 2731 4750 3128 4425 
Q 3525 4100 3525 3541 
Q 3525 3141 3298 2862 
Q 3072 2584 2669 2484 
Q 3125 2378 3379 2068 
Q 3634 1759 3634 1313 
Q 3634 634 3220 271 
Q 2806 -91 2034 -91 
Q 1263 -91 848 271 
Q 434 634 434 1313 
Q 434 1759 690 2068 
Q 947 2378 1403 2484 
z
M 1172 3481 
Q 1172 3119 1398 2916 
Q 1625 2713 2034 2713 
Q 2441 2713 2670 2916 
Q 2900 3119 2900 3481 
Q 2900 3844 2670 4047 
Q 2441 4250 2034 4250 
Q 1625 4250 1398 4047 
Q 1172 3844 1172 3481 
z
" transform="scale(0.015625)"/>
       </defs>
       <use xlink:href="#DejaVuSans-38"/>
       <use xlink:href="#DejaVuSans-30" x="63.623047"/>
       <use xlink:href="#DejaVuSans-30" x="127.246094"/>
      </g>
     </g>
    </g>
    <g id="xtick_6">
     <g id="line2d_11">
      <path d="M 398.812252 307.584 
L 398.812252 41.472 
" clip-path="url(#pc5669858e5)" style="fill: none; stroke: #b0b0b0; stroke-width: 0.8; stroke-linecap: square"/>
     </g>
     <g id="line2d_12">
      <g>
       <use xlink:href="#ma5ddc3001c" x="398.812252" y="307.584" style="stroke: #000000; stroke-width: 0.8"/>
      </g>
     </g>
     <g id="text_6">
      <!-- 1000 -->
      <g transform="translate(386.087252 322.182437) scale(0.1 -0.1)">
       <defs>
        <path id="DejaVuSans-31" d="M 794 531 
L 1825 531 
L 1825 4091 
L 703 3866 
L 703 4441 
L 1819 4666 
L 2450 4666 
L 2450 531 
L 3481 531 
L 3481 0 
L 794 0 
L 794 531 
z
" transform="scale(0.015625)"/>
       </defs>
       <use xlink:href="#DejaVuSans-31"/>
       <use xlink:href="#DejaVuSans-30" x="63.623047"/>
       <use xlink:href="#DejaVuSans-30" x="127.246094"/>
       <use xlink:href="#DejaVuSans-30" x="190.869141"/>
      </g>
     </g>
    </g>
    <g id="text_7">
     <!-- Train Step -->
     <g transform="translate(211.192031 335.860562) scale(0.1 -0.1)">
      <defs>
       <path id="DejaVuSans-54" d="M -19 4666 
L 3928 4666 
L 3928 4134 
L 2272 4134 
L 2272 0 
L 1638 0 
L 1638 4134 
L -19 4134 
L -19 4666 
z
" transform="scale(0.015625)"/>
       <path id="DejaVuSans-72" d="M 2631 2963 
Q 2534 3019 2420 3045 
Q 2306 3072 2169 3072 
Q 1681 3072 1420 2755 
Q 1159 2438 1159 1844 
L 1159 0 
L 581 0 
L 581 3500 
L 1159 3500 
L 1159 2956 
Q 1341 3275 1631 3429 
Q 1922 3584 2338 3584 
Q 2397 3584 2469 3576 
Q 2541 3569 2628 3553 
L 2631 2963 
z
" transform="scale(0.015625)"/>
       <path id="DejaVuSans-61" d="M 2194 1759 
Q 1497 1759 1228 1600 
Q 959 1441 959 1056 
Q 959 750 1161 570 
Q 1363 391 1709 391 
Q 2188 391 2477 730 
Q 2766 1069 2766 1631 
L 2766 1759 
L 2194 1759 
z
M 3341 1997 
L 3341 0 
L 2766 0 
L 2766 531 
Q 2569 213 2275 61 
Q 1981 -91 1556 -91 
Q 1019 -91 701 211 
Q 384 513 384 1019 
Q 384 1609 779 1909 
Q 1175 2209 1959 2209 
L 2766 2209 
L 2766 2266 
Q 2766 2663 2505 2880 
Q 2244 3097 1772 3097 
Q 1472 3097 1187 3025 
Q 903 2953 641 2809 
L 641 3341 
Q 956 3463 1253 3523 
Q 1550 3584 1831 3584 
Q 2591 3584 2966 3190 
Q 3341 2797 3341 1997 
z
" transform="scale(0.015625)"/>
       <path id="DejaVuSans-69" d="M 603 3500 
L 1178 3500 
L 1178 0 
L 603 0 
L 603 3500 
z
M 603 4863 
L 1178 4863 
L 1178 4134 
L 603 4134 
L 603 4863 
z
" transform="scale(0.015625)"/>
       <path id="DejaVuSans-6e" d="M 3513 2113 
L 3513 0 
L 2938 0 
L 2938 2094 
Q 2938 2591 2744 2837 
Q 2550 3084 2163 3084 
Q 1697 3084 1428 2787 
Q 1159 2491 1159 1978 
L 1159 0 
L 581 0 
L 581 3500 
L 1159 3500 
L 1159 2956 
Q 1366 3272 1645 3428 
Q 1925 3584 2291 3584 
Q 2894 3584 3203 3211 
Q 3513 2838 3513 2113 
z
" transform="scale(0.015625)"/>
       <path id="DejaVuSans-20" transform="scale(0.015625)"/>
       <path id="DejaVuSans-53" d="M 3425 4513 
L 3425 3897 
Q 3066 4069 2747 4153 
Q 2428 4238 2131 4238 
Q 1616 4238 1336 4038 
Q 1056 3838 1056 3469 
Q 1056 3159 1242 3001 
Q 1428 2844 1947 2747 
L 2328 2669 
Q 3034 2534 3370 2195 
Q 3706 1856 3706 1288 
Q 3706 609 3251 259 
Q 2797 -91 1919 -91 
Q 1588 -91 1214 -16 
Q 841 59 441 206 
L 441 856 
Q 825 641 1194 531 
Q 1563 422 1919 422 
Q 2459 422 2753 634 
Q 3047 847 3047 1241 
Q 3047 1584 2836 1778 
Q 2625 1972 2144 2069 
L 1759 2144 
Q 1053 2284 737 2584 
Q 422 2884 422 3419 
Q 422 4038 858 4394 
Q 1294 4750 2059 4750 
Q 2388 4750 2728 4690 
Q 3069 4631 3425 4513 
z
" transform="scale(0.015625)"/>
       <path id="DejaVuSans-74" d="M 1172 4494 
L 1172 3500 
L 2356 3500 
L 2356 3053 
L 1172 3053 
L 1172 1153 
Q 1172 725 1289 603 
Q 1406 481 1766 481 
L 2356 481 
L 2356 0 
L 1766 0 
Q 1100 0 847 248 
Q 594 497 594 1153 
L 594 3053 
L 172 3053 
L 172 3500 
L 594 3500 
L 594 4494 
L 1172 4494 
z
" transform="scale(0.015625)"/>
       <path id="DejaVuSans-65" d="M 3597 1894 
L 3597 1613 
L 953 1613 
Q 991 1019 1311 708 
Q 1631 397 2203 397 
Q 2534 397 2845 478 
Q 3156 559 3463 722 
L 3463 178 
Q 3153 47 2828 -22 
Q 2503 -91 2169 -91 
Q 1331 -91 842 396 
Q 353 884 353 1716 
Q 353 2575 817 3079 
Q 1281 3584 2069 3584 
Q 2775 3584 3186 3129 
Q 3597 2675 3597 1894 
z
M 3022 2063 
Q 3016 2534 2758 2815 
Q 2500 3097 2075 3097 
Q 1594 3097 1305 2825 
Q 1016 2553 972 2059 
L 3022 2063 
z
" transform="scale(0.015625)"/>
       <path id="DejaVuSans-70" d="M 1159 525 
L 1159 -1331 
L 581 -1331 
L 581 3500 
L 1159 3500 
L 1159 2969 
Q 1341 3281 1617 3432 
Q 1894 3584 2278 3584 
Q 2916 3584 3314 3078 
Q 3713 2572 3713 1747 
Q 3713 922 3314 415 
Q 2916 -91 2278 -91 
Q 1894 -91 1617 61 
Q 1341 213 1159 525 
z
M 3116 1747 
Q 3116 2381 2855 2742 
Q 2594 3103 2138 3103 
Q 1681 3103 1420 2742 
Q 1159 2381 1159 1747 
Q 1159 1113 1420 752 
Q 1681 391 2138 391 
Q 2594 391 2855 752 
Q 3116 1113 3116 1747 
z
" transform="scale(0.015625)"/>
      </defs>
      <use xlink:href="#DejaVuSans-54"/>
      <use xlink:href="#DejaVuSans-72" x="46.333984"/>
      <use xlink:href="#DejaVuSans-61" x="87.447266"/>
      <use xlink:href="#DejaVuSans-69" x="148.726562"/>
      <use xlink:href="#DejaVuSans-6e" x="176.509766"/>
      <use xlink:href="#DejaVuSans-20" x="239.888672"/>
      <use xlink:href="#DejaVuSans-53" x="271.675781"/>
      <use xlink:href="#DejaVuSans-74" x="335.152344"/>
      <use xlink:href="#DejaVuSans-65" x="374.361328"/>
      <use xlink:href="#DejaVuSans-70" x="435.884766"/>
     </g>
    </g>
   </g>
   <g id="matplotlib.axis_2">
    <g id="ytick_1">
     <g id="line2d_13">
      <path d="M 57.6 303.452313 
L 414.72 303.452313 
" clip-path="url(#pc5669858e5)" style="fill: none; stroke: #b0b0b0; stroke-width: 0.8; stroke-linecap: square"/>
     </g>
     <g id="line2d_14">
      <defs>
       <path id="mcc3054a1c8" d="M 0 0 
L -3.5 0 
" style="stroke: #000000; stroke-width: 0.8"/>
      </defs>
      <g>
       <use xlink:href="#mcc3054a1c8" x="57.6" y="303.452313" style="stroke: #000000; stroke-width: 0.8"/>
      </g>
     </g>
     <g id="text_8">
      <!-- 0.00 -->
      <g transform="translate(28.334375 307.251532) scale(0.1 -0.1)">
       <defs>
        <path id="DejaVuSans-2e" d="M 684 794 
L 1344 794 
L 1344 0 
L 684 0 
L 684 794 
z
" transform="scale(0.015625)"/>
       </defs>
       <use xlink:href="#DejaVuSans-30"/>
       <use xlink:href="#DejaVuSans-2e" x="63.623047"/>
       <use xlink:href="#DejaVuSans-30" x="95.410156"/>
       <use xlink:href="#DejaVuSans-30" x="159.033203"/>
      </g>
     </g>
    </g>
    <g id="ytick_2">
     <g id="line2d_15">
      <path d="M 57.6 248.415014 
L 414.72 248.415014 
" clip-path="url(#pc5669858e5)" style="fill: none; stroke: #b0b0b0; stroke-width: 0.8; stroke-linecap: square"/>
     </g>
     <g id="line2d_16">
      <g>
       <use xlink:href="#mcc3054a1c8" x="57.6" y="248.415014" style="stroke: #000000; stroke-width: 0.8"/>
      </g>
     </g>
     <g id="text_9">
      <!-- 0.02 -->
      <g transform="translate(28.334375 252.214233) scale(0.1 -0.1)">
       <use xlink:href="#DejaVuSans-30"/>
       <use xlink:href="#DejaVuSans-2e" x="63.623047"/>
       <use xlink:href="#DejaVuSans-30" x="95.410156"/>
       <use xlink:href="#DejaVuSans-32" x="159.033203"/>
      </g>
     </g>
    </g>
    <g id="ytick_3">
     <g id="line2d_17">
      <path d="M 57.6 193.377714 
L 414.72 193.377714 
" clip-path="url(#pc5669858e5)" style="fill: none; stroke: #b0b0b0; stroke-width: 0.8; stroke-linecap: square"/>
     </g>
     <g id="line2d_18">
      <g>
       <use xlink:href="#mcc3054a1c8" x="57.6" y="193.377714" style="stroke: #000000; stroke-width: 0.8"/>
      </g>
     </g>
     <g id="text_10">
      <!-- 0.04 -->
      <g transform="translate(28.334375 197.176933) scale(0.1 -0.1)">
       <use xlink:href="#DejaVuSans-30"/>
       <use xlink:href="#DejaVuSans-2e" x="63.623047"/>
       <use xlink:href="#DejaVuSans-30" x="95.410156"/>
       <use xlink:href="#DejaVuSans-34" x="159.033203"/>
      </g>
     </g>
    </g>
    <g id="ytick_4">
     <g id="line2d_19">
      <path d="M 57.6 138.340415 
L 414.72 138.340415 
" clip-path="url(#pc5669858e5)" style="fill: none; stroke: #b0b0b0; stroke-width: 0.8; stroke-linecap: square"/>
     </g>
     <g id="line2d_20">
      <g>
       <use xlink:href="#mcc3054a1c8" x="57.6" y="138.340415" style="stroke: #000000; stroke-width: 0.8"/>
      </g>
     </g>
     <g id="text_11">
      <!-- 0.06 -->
      <g transform="translate(28.334375 142.139633) scale(0.1 -0.1)">
       <use xlink:href="#DejaVuSans-30"/>
       <use xlink:href="#DejaVuSans-2e" x="63.623047"/>
       <use xlink:href="#DejaVuSans-30" x="95.410156"/>
       <use xlink:href="#DejaVuSans-36" x="159.033203"/>
      </g>
     </g>
    </g>
    <g id="ytick_5">
     <g id="line2d_21">
      <path d="M 57.6 83.303115 
L 414.72 83.303115 
" clip-path="url(#pc5669858e5)" style="fill: none; stroke: #b0b0b0; stroke-width: 0.8; stroke-linecap: square"/>
     </g>
     <g id="line2d_22">
      <g>
       <use xlink:href="#mcc3054a1c8" x="57.6" y="83.303115" style="stroke: #000000; stroke-width: 0.8"/>
      </g>
     </g>
     <g id="text_12">
      <!-- 0.08 -->
      <g transform="translate(28.334375 87.102334) scale(0.1 -0.1)">
       <use xlink:href="#DejaVuSans-30"/>
       <use xlink:href="#DejaVuSans-2e" x="63.623047"/>
       <use xlink:href="#DejaVuSans-30" x="95.410156"/>
       <use xlink:href="#DejaVuSans-38" x="159.033203"/>
      </g>
     </g>
    </g>
    <g id="text_13">
     <!-- Loss -->
     <g transform="translate(22.254688 185.495187) rotate(-90) scale(0.1 -0.1)">
      <defs>
       <path id="DejaVuSans-4c" d="M 628 4666 
L 1259 4666 
L 1259 531 
L 3531 531 
L 3531 0 
L 628 0 
L 628 4666 
z
" transform="scale(0.015625)"/>
       <path id="DejaVuSans-6f" d="M 1959 3097 
Q 1497 3097 1228 2736 
Q 959 2375 959 1747 
Q 959 1119 1226 758 
Q 1494 397 1959 397 
Q 2419 397 2687 759 
Q 2956 1122 2956 1747 
Q 2956 2369 2687 2733 
Q 2419 3097 1959 3097 
z
M 1959 3584 
Q 2709 3584 3137 3096 
Q 3566 2609 3566 1747 
Q 3566 888 3137 398 
Q 2709 -91 1959 -91 
Q 1206 -91 779 398 
Q 353 888 353 1747 
Q 353 2609 779 3096 
Q 1206 3584 1959 3584 
z
" transform="scale(0.015625)"/>
       <path id="DejaVuSans-73" d="M 2834 3397 
L 2834 2853 
Q 2591 2978 2328 3040 
Q 2066 3103 1784 3103 
Q 1356 3103 1142 2972 
Q 928 2841 928 2578 
Q 928 2378 1081 2264 
Q 1234 2150 1697 2047 
L 1894 2003 
Q 2506 1872 2764 1633 
Q 3022 1394 3022 966 
Q 3022 478 2636 193 
Q 2250 -91 1575 -91 
Q 1294 -91 989 -36 
Q 684 19 347 128 
L 347 722 
Q 666 556 975 473 
Q 1284 391 1588 391 
Q 1994 391 2212 530 
Q 2431 669 2431 922 
Q 2431 1156 2273 1281 
Q 2116 1406 1581 1522 
L 1381 1569 
Q 847 1681 609 1914 
Q 372 2147 372 2553 
Q 372 3047 722 3315 
Q 1072 3584 1716 3584 
Q 2034 3584 2315 3537 
Q 2597 3491 2834 3397 
z
" transform="scale(0.015625)"/>
      </defs>
      <use xlink:href="#DejaVuSans-4c"/>
      <use xlink:href="#DejaVuSans-6f" x="53.962891"/>
      <use xlink:href="#DejaVuSans-73" x="115.144531"/>
      <use xlink:href="#DejaVuSans-73" x="167.244141"/>
     </g>
    </g>
   </g>
   <g id="line2d_23">
    <path d="M 73.832727 61.691593 
L 74.157707 110.364998 
L 74.482686 56.124887 
L 75.132645 128.053627 
L 75.457625 80.818978 
L 75.782604 102.304698 
L 76.107584 53.568 
L 76.432563 101.76957 
L 76.757543 118.796054 
L 77.082523 58.600439 
L 77.407502 146.184658 
L 77.732482 153.08006 
L 78.057461 133.725174 
L 78.382441 123.700103 
L 78.70742 86.640782 
L 79.0324 133.440439 
L 79.357379 119.246464 
L 79.682359 122.58025 
L 80.007338 161.003267 
L 80.332318 150.428798 
L 80.657297 144.348349 
L 80.982277 126.978204 
L 81.307256 159.175354 
L 81.632236 145.212591 
L 81.957215 164.857707 
L 82.282195 162.602613 
L 82.607174 104.10033 
L 82.932154 154.136477 
L 83.582113 164.413858 
L 83.907093 131.304417 
L 84.232072 172.211955 
L 84.557052 160.562197 
L 84.882031 157.083474 
L 85.207011 158.122894 
L 85.53199 174.105817 
L 85.85697 149.154311 
L 86.181949 204.776037 
L 86.831908 176.586484 
L 87.156888 185.285483 
L 87.481867 173.14476 
L 87.806847 200.713093 
L 88.131826 187.215409 
L 88.456806 181.071852 
L 88.781785 215.772889 
L 89.106765 203.871773 
L 89.431744 159.488065 
L 89.756724 208.126062 
L 90.081704 232.985171 
L 90.406683 216.304931 
L 90.731663 225.660041 
L 91.056642 196.604488 
L 91.381622 225.084092 
L 91.706601 192.475923 
L 92.031581 229.738527 
L 92.35656 200.937242 
L 92.68154 231.99155 
L 93.006519 209.040588 
L 93.656478 193.494963 
L 93.981458 239.430491 
L 94.306437 185.873765 
L 94.631417 213.430155 
L 94.956396 231.231494 
L 95.281376 265.676835 
L 95.606355 189.784506 
L 96.256314 246.385347 
L 96.581294 215.934893 
L 96.906274 223.135595 
L 97.231253 217.613048 
L 97.881212 236.517795 
L 98.206192 231.621399 
L 98.531171 239.131066 
L 98.856151 211.487015 
L 99.18113 221.741807 
L 99.50611 225.098956 
L 99.831089 242.130566 
L 100.156069 225.844435 
L 100.481048 237.387204 
L 100.806028 234.646856 
L 101.455987 249.519122 
L 102.105946 236.782515 
L 102.430925 235.482502 
L 102.755905 240.995218 
L 103.080885 249.469807 
L 103.405864 231.032368 
L 103.730844 254.877225 
L 104.055823 240.348697 
L 104.380803 236.51573 
L 104.705782 241.332795 
L 105.030762 242.092108 
L 105.355741 243.991874 
L 105.680721 239.880168 
L 106.0057 223.322987 
L 106.33068 251.125311 
L 106.655659 235.773357 
L 106.980639 242.329143 
L 107.305618 245.104587 
L 107.630598 241.526333 
L 107.955577 235.216332 
L 108.280557 258.363933 
L 108.605536 244.437158 
L 108.930516 253.26325 
L 109.255495 242.152545 
L 109.580475 259.419719 
L 109.905455 237.389875 
L 110.230434 245.857293 
L 110.555414 249.832079 
L 110.880393 252.137431 
L 111.205373 239.263254 
L 111.530352 252.145755 
L 111.855332 257.197825 
L 112.180311 256.75637 
L 112.505291 212.987096 
L 112.83027 246.692707 
L 113.15525 249.901533 
L 113.480229 242.267265 
L 113.805209 262.566054 
L 114.130188 258.00796 
L 114.455168 263.02353 
L 114.780147 258.369489 
L 115.105127 247.866458 
L 115.430106 245.959915 
L 115.755086 245.855929 
L 116.405045 253.95296 
L 116.730025 249.099297 
L 117.055004 232.028542 
L 117.379984 236.203818 
L 117.704963 268.78159 
L 118.029943 255.980978 
L 118.354922 251.200941 
L 118.679902 180.928597 
L 119.004881 241.936695 
L 119.329861 259.518303 
L 119.65484 270.111842 
L 119.97982 253.151093 
L 120.304799 259.26261 
L 120.629779 245.752348 
L 120.954758 264.793125 
L 121.604717 249.295455 
L 121.929697 254.948483 
L 122.254676 274.259651 
L 122.579656 259.679928 
L 122.904636 257.487999 
L 123.229615 263.179671 
L 123.554595 247.058019 
L 123.879574 250.652517 
L 124.204554 256.415687 
L 124.529533 269.243461 
L 125.179492 260.039853 
L 125.504472 270.679273 
L 125.829451 260.950783 
L 126.154431 262.61397 
L 126.47941 255.66474 
L 126.80439 266.091341 
L 127.454349 251.655416 
L 127.779328 269.778999 
L 128.104308 255.447449 
L 128.429287 246.735974 
L 128.754267 264.90276 
L 129.079247 265.693222 
L 129.404226 218.067932 
L 129.729206 246.158584 
L 130.054185 245.15446 
L 130.704144 241.996928 
L 131.029124 266.863728 
L 131.354103 252.903064 
L 131.679083 257.671362 
L 132.004062 270.872437 
L 132.329042 262.888977 
L 132.654021 264.372637 
L 132.979001 264.527171 
L 133.30398 255.876326 
L 133.62896 239.242699 
L 133.953939 246.400847 
L 134.278919 266.116593 
L 134.603898 250.123114 
L 134.928878 267.495625 
L 135.253857 245.27509 
L 135.578837 266.142863 
L 135.903817 252.87886 
L 136.553776 264.337739 
L 136.878755 267.426032 
L 137.203735 253.381978 
L 137.528714 258.209469 
L 137.853694 281.225838 
L 138.178673 252.751003 
L 138.503653 237.067311 
L 138.828632 271.24758 
L 139.153612 255.048579 
L 139.478591 258.578118 
L 139.803571 244.306374 
L 140.12855 268.469271 
L 140.45353 255.892256 
L 140.778509 254.453936 
L 141.103489 256.970847 
L 141.428468 243.568697 
L 142.078428 269.899934 
L 142.403407 265.238276 
L 142.728387 246.972871 
L 143.378346 271.621934 
L 143.703325 263.843288 
L 144.028305 261.248412 
L 144.353284 263.819682 
L 144.678264 270.593447 
L 145.003243 248.351143 
L 145.328223 263.107451 
L 145.653202 266.747681 
L 146.303161 257.661834 
L 146.628141 245.751323 
L 146.95312 275.784977 
L 147.2781 271.186132 
L 147.603079 255.425721 
L 147.928059 263.423392 
L 148.253038 253.515073 
L 148.578018 264.652572 
L 148.902998 257.036426 
L 149.227977 263.202462 
L 149.552957 261.915343 
L 149.877936 259.068928 
L 150.527895 276.950354 
L 150.852875 275.532049 
L 151.177854 268.301848 
L 151.502834 267.998978 
L 151.827813 259.271042 
L 152.477772 269.780147 
L 152.802752 256.842575 
L 153.127731 281.280827 
L 153.452711 229.093457 
L 153.77769 252.359365 
L 154.427649 274.256912 
L 154.752629 270.03502 
L 155.077609 268.702877 
L 155.402588 270.719341 
L 155.727568 264.411903 
L 156.052547 240.703804 
L 156.377527 261.074549 
L 156.702506 265.690641 
L 157.027486 238.998632 
L 157.352465 248.424903 
L 157.677445 239.785542 
L 158.002424 273.256084 
L 158.327404 268.92536 
L 158.652383 251.033037 
L 158.977363 253.505201 
L 159.302342 267.150149 
L 159.627322 275.311565 
L 159.952301 276.985486 
L 160.277281 274.122033 
L 160.60226 242.486672 
L 160.92724 266.201443 
L 161.252219 268.008043 
L 161.577199 259.200404 
L 161.902179 270.840144 
L 162.227158 260.825258 
L 162.552138 256.691996 
L 162.877117 269.18399 
L 163.202097 268.279505 
L 163.527076 265.92527 
L 163.852056 262.681673 
L 164.177035 272.456718 
L 164.502015 269.617928 
L 164.826994 269.24493 
L 165.151974 265.409873 
L 165.476953 243.7834 
L 165.801933 271.940766 
L 166.126912 265.082966 
L 166.451892 268.059534 
L 167.101851 253.131805 
L 167.42683 256.846671 
L 167.75181 271.986815 
L 168.07679 271.265774 
L 168.401769 261.779555 
L 168.726749 277.332278 
L 169.051728 271.735474 
L 169.376708 249.481084 
L 169.701687 257.623698 
L 170.026667 250.614217 
L 170.676626 274.50836 
L 171.001605 266.695577 
L 171.326585 265.31771 
L 171.651564 273.295793 
L 171.976544 255.20107 
L 172.301523 275.721197 
L 172.626503 266.051168 
L 172.951482 276.922923 
L 173.276462 259.103968 
L 173.601441 281.15357 
L 173.926421 265.527745 
L 174.2514 256.34852 
L 174.57638 275.900775 
L 174.90136 267.225206 
L 175.226339 266.413718 
L 175.551319 269.901641 
L 175.876298 252.604935 
L 176.201278 255.66168 
L 177.176216 274.458041 
L 177.501196 269.782708 
L 177.826175 274.981131 
L 178.151155 253.675698 
L 178.476134 247.825857 
L 178.801114 276.146983 
L 179.126093 271.839143 
L 179.451073 279.08206 
L 179.776052 260.451927 
L 180.101032 274.512269 
L 180.426011 279.032146 
L 180.750991 258.112669 
L 181.075971 249.466885 
L 181.40095 276.27069 
L 181.72593 277.685724 
L 182.050909 259.999995 
L 182.375889 272.010881 
L 182.700868 269.562649 
L 183.025848 282.165576 
L 183.350827 269.833691 
L 183.675807 263.706218 
L 184.000786 279.905381 
L 184.325766 270.88562 
L 184.650745 271.844402 
L 184.975725 276.585462 
L 185.300704 290.816582 
L 185.625684 269.364503 
L 185.950663 274.154991 
L 186.275643 267.22907 
L 186.925602 283.945777 
L 187.250581 269.291523 
L 187.575561 270.88744 
L 187.900541 264.799435 
L 188.22552 263.965368 
L 188.5505 271.720007 
L 188.875479 266.104871 
L 189.200459 266.382228 
L 189.525438 253.150401 
L 189.850418 260.407635 
L 190.175397 261.561167 
L 190.500377 279.429632 
L 191.150336 270.385068 
L 191.475315 270.35021 
L 191.800295 250.954659 
L 192.125274 275.860889 
L 192.450254 261.645821 
L 192.775233 286.576424 
L 193.100213 278.026202 
L 193.425192 262.778373 
L 193.750172 259.055437 
L 194.075152 252.054127 
L 194.400131 269.607438 
L 194.725111 252.869849 
L 195.05009 269.213027 
L 195.37507 274.931665 
L 195.700049 258.542232 
L 196.025029 276.15087 
L 196.350008 243.88473 
L 196.674988 255.102276 
L 196.999967 276.724972 
L 197.324947 255.309941 
L 197.649926 252.16594 
L 197.974906 251.144712 
L 198.299885 242.01375 
L 198.624865 258.765402 
L 198.949844 258.08887 
L 199.274824 253.984494 
L 199.599803 233.297734 
L 199.924783 184.958173 
L 200.249762 265.585868 
L 200.574742 260.025972 
L 200.899722 281.063544 
L 201.224701 250.353317 
L 201.549681 251.933595 
L 201.87466 278.986783 
L 202.19964 278.003431 
L 202.524619 263.169304 
L 202.849599 258.411972 
L 203.174578 270.747632 
L 203.499558 259.943663 
L 203.824537 269.507542 
L 204.149517 273.321909 
L 204.474496 274.048591 
L 204.799476 254.457662 
L 205.124455 225.248818 
L 205.449435 278.852216 
L 205.774414 241.751671 
L 206.099394 259.636195 
L 206.424373 266.13613 
L 207.074333 271.973601 
L 207.399312 265.116888 
L 207.724292 274.021871 
L 208.049271 275.215767 
L 208.374251 258.823354 
L 208.69923 264.495099 
L 209.02421 277.336564 
L 209.349189 282.626205 
L 209.674169 277.995389 
L 209.999148 262.392507 
L 210.324128 275.325838 
L 210.649107 272.13007 
L 210.974087 259.922007 
L 211.299066 284.951721 
L 211.624046 260.248604 
L 211.949025 278.439484 
L 212.274005 261.292914 
L 212.598984 278.416707 
L 212.923964 276.143556 
L 213.248943 276.628421 
L 213.573923 273.111102 
L 213.898903 270.89905 
L 214.223882 273.921273 
L 214.548862 279.192251 
L 214.873841 275.024944 
L 215.198821 272.868431 
L 215.5238 240.200958 
L 215.84878 275.111835 
L 216.173759 239.810509 
L 216.498739 233.791159 
L 216.823718 268.453296 
L 217.148698 277.318344 
L 217.473677 266.671994 
L 217.798657 242.053639 
L 218.123636 242.181639 
L 218.448616 263.455508 
L 218.773595 248.607133 
L 219.098575 253.710846 
L 219.423554 197.809182 
L 219.748534 221.347965 
L 220.073514 254.087055 
L 220.398493 213.280719 
L 220.723473 248.127302 
L 221.048452 219.618127 
L 221.373432 249.970275 
L 221.698411 250.93391 
L 222.023391 250.090207 
L 222.34837 230.081742 
L 222.67335 235.6887 
L 222.998329 244.890951 
L 223.323309 238.598065 
L 223.648288 240.389329 
L 223.973268 254.308277 
L 224.298247 250.409654 
L 224.623227 258.704518 
L 224.948206 263.713371 
L 225.273186 257.339942 
L 225.598165 264.564584 
L 225.923145 256.390228 
L 226.248124 235.574099 
L 226.573104 246.053962 
L 226.898084 272.157595 
L 227.223063 246.891156 
L 227.548043 258.617868 
L 227.873022 256.527167 
L 228.198002 268.372943 
L 228.522981 273.560328 
L 228.847961 256.07707 
L 229.17294 256.935797 
L 229.49792 252.740173 
L 229.822899 246.352727 
L 230.147879 253.109047 
L 230.472858 243.941606 
L 230.797838 267.894795 
L 231.122817 270.044905 
L 231.447797 268.872326 
L 231.772776 275.803263 
L 232.097756 260.568369 
L 232.422735 270.219065 
L 232.747715 260.267431 
L 233.072695 263.537404 
L 233.397674 281.72425 
L 233.722654 269.09615 
L 234.047633 250.772403 
L 234.372613 275.719605 
L 234.697592 275.221139 
L 235.022572 268.505433 
L 235.347551 267.280395 
L 235.672531 264.143321 
L 235.99751 257.273958 
L 236.32249 278.856502 
L 236.647469 274.607287 
L 236.972449 265.954392 
L 237.297428 277.650972 
L 237.622408 270.042576 
L 237.947387 272.197163 
L 238.272367 280.668125 
L 238.597346 273.061828 
L 238.922326 269.400363 
L 239.247305 260.879827 
L 239.572285 261.811775 
L 239.897265 271.161068 
L 240.222244 271.955648 
L 240.547224 282.985761 
L 240.872203 265.646229 
L 241.197183 284.843906 
L 241.522162 244.8043 
L 242.172121 270.002228 
L 242.497101 264.777656 
L 242.82208 264.140279 
L 243.14706 256.894489 
L 243.472039 278.492476 
L 243.797019 267.98713 
L 244.121998 261.512816 
L 244.446978 272.931796 
L 244.771957 277.539348 
L 245.096937 276.50366 
L 245.421916 276.485589 
L 245.746896 275.205554 
L 246.071876 275.903889 
L 246.396855 268.836026 
L 246.721835 255.854141 
L 247.046814 255.524894 
L 247.696773 282.536705 
L 248.021753 252.553713 
L 248.346732 271.223415 
L 248.671712 258.152183 
L 248.996691 284.774607 
L 249.321671 243.558436 
L 249.64665 278.420992 
L 249.97163 264.823946 
L 250.296609 263.303211 
L 250.621589 274.511641 
L 250.946568 272.87001 
L 251.271548 283.326577 
L 251.921507 253.040454 
L 252.246486 281.948445 
L 252.571466 282.864353 
L 252.896446 253.57671 
L 253.221425 259.537811 
L 253.546405 274.256953 
L 253.871384 245.431553 
L 254.196364 248.481142 
L 254.521343 267.112265 
L 254.846323 264.047206 
L 255.171302 255.649747 
L 255.496282 272.82314 
L 256.146241 255.738627 
L 256.47122 253.672602 
L 256.7962 255.11527 
L 257.121179 268.345258 
L 257.446159 264.124787 
L 257.771138 257.49763 
L 258.096118 239.569968 
L 258.421097 275.814342 
L 258.746077 268.928973 
L 259.071057 268.678442 
L 259.396036 269.39862 
L 259.721016 282.972213 
L 260.045995 278.771512 
L 260.370975 271.398613 
L 260.695954 266.760405 
L 261.020934 275.317337 
L 261.345913 268.635294 
L 261.670893 278.313867 
L 261.995872 249.293958 
L 262.320852 277.826608 
L 262.645831 253.733542 
L 262.970811 260.614247 
L 263.29579 275.149761 
L 263.62077 262.185206 
L 264.270729 278.272576 
L 264.595708 278.431303 
L 264.920688 264.134795 
L 265.245667 277.128935 
L 265.570647 275.083887 
L 265.895627 274.72304 
L 266.220606 236.87159 
L 266.870565 274.927457 
L 267.195545 283.71356 
L 267.520524 260.184424 
L 267.845504 256.934408 
L 268.170483 258.886775 
L 268.495463 285.563222 
L 268.820442 275.841875 
L 269.470401 243.305849 
L 270.12036 271.549835 
L 270.44534 270.004378 
L 270.770319 272.046756 
L 271.095299 285.447215 
L 271.420278 271.609335 
L 271.745258 274.005812 
L 272.070238 286.428145 
L 272.395217 270.973045 
L 272.720197 272.038675 
L 273.045176 282.144568 
L 273.370156 282.358063 
L 273.695135 272.875474 
L 274.020115 279.932453 
L 274.345094 273.584068 
L 274.670074 263.822232 
L 274.995053 278.103206 
L 275.320033 281.242763 
L 275.645012 271.197068 
L 275.969992 282.202994 
L 276.294971 282.134215 
L 276.619951 266.949015 
L 276.94493 259.508666 
L 277.26991 273.165376 
L 277.594889 278.693083 
L 277.919869 256.401151 
L 278.244848 271.082682 
L 278.569828 259.853137 
L 278.894808 276.550989 
L 279.219787 282.431252 
L 279.544767 261.145669 
L 280.194726 276.473752 
L 280.519705 272.779594 
L 280.844685 280.630321 
L 281.169664 272.869238 
L 281.494644 271.281835 
L 281.819623 277.305389 
L 282.144603 267.402833 
L 282.469582 278.634493 
L 282.794562 244.040076 
L 283.119541 277.63378 
L 283.444521 273.276674 
L 283.7695 265.09618 
L 284.09448 265.007638 
L 284.419459 280.552378 
L 284.744439 278.725903 
L 285.069419 278.342694 
L 286.044357 263.842545 
L 286.369337 288.991737 
L 286.694316 276.652953 
L 287.019296 278.397722 
L 287.344275 274.377116 
L 287.669255 261.282067 
L 287.994234 269.480548 
L 288.319214 282.345799 
L 288.644193 290.575746 
L 288.969173 274.53075 
L 289.294152 277.519906 
L 289.619132 282.760961 
L 289.944111 282.126799 
L 290.269091 254.276334 
L 290.59407 275.500797 
L 290.91905 270.770811 
L 291.244029 271.081155 
L 291.569009 276.716366 
L 291.893989 272.720838 
L 292.218968 285.917155 
L 292.543948 283.605098 
L 292.868927 250.328288 
L 293.193907 280.386563 
L 293.518886 255.189675 
L 293.843866 273.004835 
L 294.168845 282.45294 
L 294.493825 266.592206 
L 294.818804 279.121854 
L 295.143784 284.105074 
L 295.468763 279.395433 
L 295.793743 266.989139 
L 296.118722 278.693851 
L 296.443702 267.922036 
L 296.768681 265.340227 
L 297.093661 272.907922 
L 297.41864 261.500401 
L 298.0686 279.500724 
L 298.393579 271.695104 
L 298.718559 280.159282 
L 299.043538 273.710527 
L 299.368518 271.280239 
L 299.693497 274.886448 
L 300.018477 274.232905 
L 300.343456 276.378495 
L 300.668436 281.712866 
L 300.993415 278.566046 
L 301.643374 267.517783 
L 301.968354 273.995237 
L 302.293333 252.428881 
L 302.618313 282.504309 
L 302.943292 271.314727 
L 303.268272 278.526978 
L 303.593251 266.369816 
L 303.918231 258.380848 
L 304.24321 275.785328 
L 304.56819 261.404775 
L 304.89317 257.735378 
L 305.218149 272.302879 
L 305.543129 261.333199 
L 305.868108 265.405598 
L 306.193088 264.689575 
L 306.518067 269.858992 
L 306.843047 254.397619 
L 307.168026 255.597505 
L 307.493006 271.705837 
L 307.817985 269.258077 
L 308.142965 278.3257 
L 308.792924 259.696966 
L 309.117903 270.721358 
L 309.442883 269.474215 
L 309.767862 263.878085 
L 310.092842 271.2273 
L 310.417821 273.329085 
L 310.742801 274.267978 
L 311.067781 268.103754 
L 311.39276 282.399221 
L 311.71774 265.653879 
L 312.042719 275.73099 
L 312.367699 269.230093 
L 312.692678 284.516192 
L 313.017658 266.108613 
L 313.342637 267.529698 
L 313.667617 274.796299 
L 313.992596 272.173336 
L 314.317576 281.858991 
L 314.642555 286.751325 
L 314.967535 276.697777 
L 315.292514 282.282089 
L 315.617494 267.624419 
L 315.942473 270.99282 
L 316.267453 279.109903 
L 316.592432 276.75862 
L 316.917412 278.678315 
L 317.242391 279.732074 
L 317.567371 265.834531 
L 317.892351 274.967971 
L 318.21733 270.380872 
L 318.54231 277.445006 
L 319.192269 264.246264 
L 319.842228 267.699676 
L 320.167207 285.411143 
L 320.817166 273.312618 
L 321.142146 261.940544 
L 321.467125 271.55491 
L 321.792105 269.228156 
L 322.117084 275.176807 
L 322.442064 267.743783 
L 322.767043 265.975184 
L 323.092023 258.501057 
L 323.417002 279.665432 
L 324.066962 265.263146 
L 324.391941 257.160582 
L 324.716921 258.593167 
L 325.0419 274.751218 
L 325.36688 284.24728 
L 325.691859 263.247405 
L 326.016839 278.601649 
L 326.341818 266.467828 
L 326.666798 282.900699 
L 326.991777 268.467502 
L 327.641736 290.464641 
L 327.966716 277.385684 
L 328.291695 274.776463 
L 328.616675 284.863482 
L 328.941654 281.195055 
L 329.266634 271.713805 
L 329.591613 281.779905 
L 329.916593 266.945099 
L 330.241572 282.647101 
L 330.566552 270.97539 
L 330.891532 273.244008 
L 331.541491 263.217024 
L 331.86647 270.873285 
L 332.19145 269.288514 
L 332.516429 272.322931 
L 332.841409 278.404026 
L 333.166388 267.54617 
L 333.491368 272.435964 
L 333.816347 279.279965 
L 334.141327 267.163843 
L 334.466306 269.071192 
L 334.791286 270.247472 
L 335.116265 265.536254 
L 335.441245 276.129317 
L 335.766224 273.740503 
L 336.091204 285.557214 
L 336.741163 257.837114 
L 337.066143 290.066597 
L 337.391122 273.460048 
L 337.716102 267.033995 
L 338.041081 279.687744 
L 338.366061 274.390737 
L 338.69104 272.69565 
L 339.01602 277.2608 
L 339.340999 287.895489 
L 339.665979 271.191161 
L 339.990958 269.556734 
L 340.315938 272.89293 
L 340.640917 280.312601 
L 340.965897 270.58338 
L 341.290876 295.488 
L 341.615856 275.25764 
L 341.940835 270.192691 
L 342.265815 275.129037 
L 342.590794 265.829118 
L 342.915774 270.69036 
L 343.240753 281.575655 
L 343.565733 280.61686 
L 343.890713 289.046553 
L 344.215692 275.456757 
L 344.540672 270.402588 
L 345.190631 285.33491 
L 345.51561 279.299402 
L 345.84059 269.185779 
L 346.165569 284.467118 
L 346.490549 257.970563 
L 346.815528 279.384684 
L 347.140508 278.70215 
L 347.465487 275.100415 
L 347.790467 275.388105 
L 348.115446 277.64773 
L 348.440426 270.849002 
L 348.765405 284.29807 
L 349.090385 273.920873 
L 349.415364 273.293153 
L 349.740344 281.124745 
L 350.065324 283.199357 
L 350.715283 271.74324 
L 351.040262 275.184236 
L 351.365242 259.490378 
L 351.690221 282.012165 
L 352.015201 287.542489 
L 352.34018 272.619035 
L 352.66516 276.460307 
L 352.990139 277.904435 
L 353.315119 280.845328 
L 353.640098 281.767055 
L 353.965078 269.246885 
L 354.290057 280.211088 
L 354.615037 270.247157 
L 354.940016 284.389702 
L 355.264996 270.900134 
L 355.589975 283.354252 
L 355.914955 285.599482 
L 356.239934 277.801869 
L 356.564914 267.137012 
L 356.889894 285.726848 
L 357.214873 268.413733 
L 357.539853 265.517383 
L 357.864832 265.702315 
L 358.189812 271.322065 
L 358.839771 276.298456 
L 359.16475 282.864142 
L 359.48973 279.691786 
L 359.814709 282.464959 
L 360.139689 278.529428 
L 360.464668 278.58649 
L 360.789648 277.664604 
L 361.114627 281.554947 
L 361.439607 276.068436 
L 361.764586 263.97951 
L 362.414545 286.963711 
L 362.739525 274.162877 
L 363.064505 271.704525 
L 363.389484 272.036707 
L 364.039443 273.909811 
L 364.364423 284.355644 
L 364.689402 265.113923 
L 365.014382 282.031849 
L 365.339361 277.830253 
L 365.664341 286.98431 
L 365.98932 275.869369 
L 366.3143 287.007575 
L 366.639279 273.319997 
L 366.964259 283.211305 
L 367.289238 287.497259 
L 367.614218 271.726586 
L 367.939197 286.728827 
L 368.264177 285.067276 
L 368.589156 275.995571 
L 368.914136 283.756136 
L 369.239115 282.426219 
L 369.564095 283.87632 
L 369.889075 280.447749 
L 370.214054 286.0052 
L 370.539034 285.77189 
L 370.864013 286.518189 
L 371.188993 275.117486 
L 371.513972 273.568724 
L 371.838952 270.606385 
L 372.163931 261.114566 
L 372.488911 273.078456 
L 372.81389 278.174572 
L 373.13887 278.198819 
L 373.463849 269.037478 
L 373.788829 265.683601 
L 374.113808 280.873563 
L 374.438788 279.104142 
L 374.763767 279.324628 
L 375.088747 271.83763 
L 375.413726 281.5351 
L 375.738706 260.590714 
L 376.063686 274.626242 
L 376.388665 268.211013 
L 376.713645 274.084046 
L 377.038624 274.76047 
L 377.363604 271.551637 
L 377.688583 260.399286 
L 378.338542 275.778311 
L 378.663522 279.04864 
L 378.988501 273.628439 
L 379.313481 280.240928 
L 379.63846 282.190182 
L 379.96344 261.89474 
L 380.288419 265.076259 
L 380.938378 283.404771 
L 381.263358 274.868303 
L 381.588337 285.84648 
L 381.913317 267.296981 
L 382.563276 285.100752 
L 382.888256 282.779065 
L 383.213235 274.848118 
L 383.538215 281.87669 
L 383.863194 252.166258 
L 384.188174 274.007062 
L 384.513153 269.958841 
L 384.838133 271.336724 
L 385.488092 278.048932 
L 385.813071 273.191089 
L 386.138051 270.725671 
L 386.46303 272.219288 
L 386.78801 274.639887 
L 387.112989 266.932484 
L 388.087928 284.627367 
L 388.412907 277.133258 
L 388.737887 285.469425 
L 389.062867 265.129246 
L 389.387846 281.572205 
L 389.712826 277.380217 
L 390.037805 281.451742 
L 390.362785 277.02928 
L 390.687764 285.045623 
L 391.012744 277.450207 
L 391.337723 284.55934 
L 391.662703 274.967504 
L 391.987682 271.69401 
L 392.312662 272.402944 
L 392.637641 275.180907 
L 392.962621 275.696345 
L 393.2876 276.672123 
L 393.61258 275.099659 
L 393.937559 260.858565 
L 394.262539 274.312916 
L 394.587518 271.972912 
L 394.912498 277.030039 
L 395.237477 279.243006 
L 395.562457 276.72386 
L 395.887437 283.300155 
L 396.212416 279.261741 
L 396.537396 276.851094 
L 396.862375 277.064571 
L 397.187355 274.329556 
L 397.512334 277.316086 
L 397.837314 265.15631 
L 398.162293 275.427891 
L 398.487273 279.12944 
L 398.487273 279.12944 
" clip-path="url(#pc5669858e5)" style="fill: none; stroke: #1f77b4; stroke-width: 1.5; stroke-linecap: square"/>
   </g>
   <g id="line2d_24">
    <path d="M 73.832727 97.771335 
L 77.082523 108.943889 
L 80.332318 120.061807 
L 83.582113 132.88615 
L 86.831908 137.626615 
L 90.081704 153.030159 
L 93.331499 151.005071 
L 96.581294 159.408947 
L 99.831089 166.195136 
L 103.080885 178.367678 
L 106.33068 145.235675 
L 109.580475 176.947947 
L 112.83027 197.705723 
L 116.080066 190.686163 
L 119.329861 220.773472 
L 122.579656 168.395223 
L 125.829451 206.055408 
L 129.079247 206.131539 
L 132.329042 193.998656 
L 135.578837 224.172003 
L 138.828632 214.067052 
L 142.078428 168.087625 
L 145.328223 219.219182 
L 148.578018 224.927769 
L 151.827813 233.749261 
L 155.077609 234.826851 
L 158.327404 220.907721 
L 161.577199 236.09962 
L 164.826994 239.871988 
L 168.07679 235.876526 
L 171.326585 234.738601 
L 174.57638 221.190884 
L 177.826175 221.775182 
L 181.075971 236.207217 
L 184.325766 219.809702 
L 187.575561 236.992714 
L 190.825356 238.018137 
L 194.075152 250.395215 
L 197.324947 223.187279 
L 200.574742 216.109786 
L 203.824537 219.481883 
L 207.074333 232.32046 
L 210.324128 200.050387 
L 213.573923 200.898477 
L 216.823718 238.169686 
L 220.073514 242.06164 
L 223.323309 233.094761 
L 226.573104 234.968614 
L 229.822899 238.585624 
L 233.072695 233.206375 
L 236.32249 211.277284 
L 239.572285 235.94276 
L 242.82208 245.779382 
L 246.071876 232.07798 
L 249.321671 246.179126 
L 252.571466 225.639276 
L 255.821261 243.585794 
L 259.071057 232.662294 
L 262.320852 203.227022 
L 265.570647 225.951818 
L 268.820442 207.326771 
L 272.070238 241.057271 
L 275.320033 248.196962 
L 278.569828 243.340516 
L 281.819623 250.066148 
L 285.069419 233.436717 
L 288.319214 213.540764 
L 291.569009 227.444536 
L 294.818804 243.771987 
L 298.0686 242.928958 
L 301.318395 249.998186 
L 304.56819 242.69091 
L 307.817985 233.019582 
L 311.067781 241.327437 
L 314.317576 235.544636 
L 317.567371 251.192157 
L 320.817166 241.821108 
L 324.066962 246.543649 
L 327.316757 250.997898 
L 330.566552 248.739973 
L 333.816347 240.236637 
L 337.066143 249.29669 
L 340.315938 219.579777 
L 343.565733 238.059829 
L 346.815528 247.310034 
L 350.065324 243.916624 
L 353.315119 247.284369 
L 356.564914 232.486818 
L 359.814709 253.36466 
L 363.064505 236.511359 
L 366.3143 245.482384 
L 369.564095 251.14739 
L 372.81389 234.722772 
L 376.063686 233.303988 
L 379.313481 247.990942 
L 382.563276 252.758884 
L 385.813071 238.805753 
L 389.062867 250.498371 
L 392.312662 236.182574 
L 395.562457 246.206298 
" clip-path="url(#pc5669858e5)" style="fill: none; stroke: #ff7f0e; stroke-width: 1.5; stroke-linecap: square"/>
   </g>
   <g id="patch_3">
    <path d="M 57.6 307.584 
L 57.6 41.472 
" style="fill: none; stroke: #000000; stroke-width: 0.8; stroke-linejoin: miter; stroke-linecap: square"/>
   </g>
   <g id="patch_4">
    <path d="M 414.72 307.584 
L 414.72 41.472 
" style="fill: none; stroke: #000000; stroke-width: 0.8; stroke-linejoin: miter; stroke-linecap: square"/>
   </g>
   <g id="patch_5">
    <path d="M 57.6 307.584 
L 414.72 307.584 
" style="fill: none; stroke: #000000; stroke-width: 0.8; stroke-linejoin: miter; stroke-linecap: square"/>
   </g>
   <g id="patch_6">
    <path d="M 57.6 41.472 
L 414.72 41.472 
" style="fill: none; stroke: #000000; stroke-width: 0.8; stroke-linejoin: miter; stroke-linecap: square"/>
   </g>
   <g id="text_14">
    <!-- Train Loss vs Validation Loss -->
    <g transform="translate(151.513125 35.472) scale(0.12 -0.12)">
     <defs>
      <path id="DejaVuSans-76" d="M 191 3500 
L 800 3500 
L 1894 563 
L 2988 3500 
L 3597 3500 
L 2284 0 
L 1503 0 
L 191 3500 
z
" transform="scale(0.015625)"/>
      <path id="DejaVuSans-56" d="M 1831 0 
L 50 4666 
L 709 4666 
L 2188 738 
L 3669 4666 
L 4325 4666 
L 2547 0 
L 1831 0 
z
" transform="scale(0.015625)"/>
      <path id="DejaVuSans-6c" d="M 603 4863 
L 1178 4863 
L 1178 0 
L 603 0 
L 603 4863 
z
" transform="scale(0.015625)"/>
      <path id="DejaVuSans-64" d="M 2906 2969 
L 2906 4863 
L 3481 4863 
L 3481 0 
L 2906 0 
L 2906 525 
Q 2725 213 2448 61 
Q 2172 -91 1784 -91 
Q 1150 -91 751 415 
Q 353 922 353 1747 
Q 353 2572 751 3078 
Q 1150 3584 1784 3584 
Q 2172 3584 2448 3432 
Q 2725 3281 2906 2969 
z
M 947 1747 
Q 947 1113 1208 752 
Q 1469 391 1925 391 
Q 2381 391 2643 752 
Q 2906 1113 2906 1747 
Q 2906 2381 2643 2742 
Q 2381 3103 1925 3103 
Q 1469 3103 1208 2742 
Q 947 2381 947 1747 
z
" transform="scale(0.015625)"/>
     </defs>
     <use xlink:href="#DejaVuSans-54"/>
     <use xlink:href="#DejaVuSans-72" x="46.333984"/>
     <use xlink:href="#DejaVuSans-61" x="87.447266"/>
     <use xlink:href="#DejaVuSans-69" x="148.726562"/>
     <use xlink:href="#DejaVuSans-6e" x="176.509766"/>
     <use xlink:href="#DejaVuSans-20" x="239.888672"/>
     <use xlink:href="#DejaVuSans-4c" x="271.675781"/>
     <use xlink:href="#DejaVuSans-6f" x="325.638672"/>
     <use xlink:href="#DejaVuSans-73" x="386.820312"/>
     <use xlink:href="#DejaVuSans-73" x="438.919922"/>
     <use xlink:href="#DejaVuSans-20" x="491.019531"/>
     <use xlink:href="#DejaVuSans-76" x="522.806641"/>
     <use xlink:href="#DejaVuSans-73" x="581.986328"/>
     <use xlink:href="#DejaVuSans-20" x="634.085938"/>
     <use xlink:href="#DejaVuSans-56" x="665.873047"/>
     <use xlink:href="#DejaVuSans-61" x="726.53125"/>
     <use xlink:href="#DejaVuSans-6c" x="787.810547"/>
     <use xlink:href="#DejaVuSans-69" x="815.59375"/>
     <use xlink:href="#DejaVuSans-64" x="843.376953"/>
     <use xlink:href="#DejaVuSans-61" x="906.853516"/>
     <use xlink:href="#DejaVuSans-74" x="968.132812"/>
     <use xlink:href="#DejaVuSans-69" x="1007.341797"/>
     <use xlink:href="#DejaVuSans-6f" x="1035.125"/>
     <use xlink:href="#DejaVuSans-6e" x="1096.306641"/>
     <use xlink:href="#DejaVuSans-20" x="1159.685547"/>
     <use xlink:href="#DejaVuSans-4c" x="1191.472656"/>
     <use xlink:href="#DejaVuSans-6f" x="1245.435547"/>
     <use xlink:href="#DejaVuSans-73" x="1306.617188"/>
     <use xlink:href="#DejaVuSans-73" x="1358.716797"/>
    </g>
   </g>
   <g id="legend_1">
    <g id="patch_7">
     <path d="M 301.22625 78.82825 
L 407.72 78.82825 
Q 409.72 78.82825 409.72 76.82825 
L 409.72 48.472 
Q 409.72 46.472 407.72 46.472 
L 301.22625 46.472 
Q 299.22625 46.472 299.22625 48.472 
L 299.22625 76.82825 
Q 299.22625 78.82825 301.22625 78.82825 
z
" style="fill: #ffffff; opacity: 0.8; stroke: #cccccc; stroke-linejoin: miter"/>
    </g>
    <g id="line2d_25">
     <path d="M 303.22625 54.570437 
L 313.22625 54.570437 
L 323.22625 54.570437 
" style="fill: none; stroke: #1f77b4; stroke-width: 1.5; stroke-linecap: square"/>
    </g>
    <g id="text_15">
     <!-- Train Loss -->
     <g transform="translate(331.22625 58.070437) scale(0.1 -0.1)">
      <use xlink:href="#DejaVuSans-54"/>
      <use xlink:href="#DejaVuSans-72" x="46.333984"/>
      <use xlink:href="#DejaVuSans-61" x="87.447266"/>
      <use xlink:href="#DejaVuSans-69" x="148.726562"/>
      <use xlink:href="#DejaVuSans-6e" x="176.509766"/>
      <use xlink:href="#DejaVuSans-20" x="239.888672"/>
      <use xlink:href="#DejaVuSans-4c" x="271.675781"/>
      <use xlink:href="#DejaVuSans-6f" x="325.638672"/>
      <use xlink:href="#DejaVuSans-73" x="386.820312"/>
      <use xlink:href="#DejaVuSans-73" x="438.919922"/>
     </g>
    </g>
    <g id="line2d_26">
     <path d="M 303.22625 69.248562 
L 313.22625 69.248562 
L 323.22625 69.248562 
" style="fill: none; stroke: #ff7f0e; stroke-width: 1.5; stroke-linecap: square"/>
    </g>
    <g id="text_16">
     <!-- Validation Loss -->
     <g transform="translate(331.22625 72.748562) scale(0.1 -0.1)">
      <use xlink:href="#DejaVuSans-56"/>
      <use xlink:href="#DejaVuSans-61" x="60.658203"/>
      <use xlink:href="#DejaVuSans-6c" x="121.9375"/>
      <use xlink:href="#DejaVuSans-69" x="149.720703"/>
      <use xlink:href="#DejaVuSans-64" x="177.503906"/>
      <use xlink:href="#DejaVuSans-61" x="240.980469"/>
      <use xlink:href="#DejaVuSans-74" x="302.259766"/>
      <use xlink:href="#DejaVuSans-69" x="341.46875"/>
      <use xlink:href="#DejaVuSans-6f" x="369.251953"/>
      <use xlink:href="#DejaVuSans-6e" x="430.433594"/>
      <use xlink:href="#DejaVuSans-20" x="493.8125"/>
      <use xlink:href="#DejaVuSans-4c" x="525.599609"/>
      <use xlink:href="#DejaVuSans-6f" x="579.5625"/>
      <use xlink:href="#DejaVuSans-73" x="640.744141"/>
      <use xlink:href="#DejaVuSans-73" x="692.84375"/>
     </g>
    </g>
   </g>
  </g>
 </g>
 <defs>
  <clipPath id="pc5669858e5">
   <rect x="57.6" y="41.472" width="357.12" height="266.112"/>
  </clipPath>
 </defs>
</svg>
