<?xml version="1.0" encoding="utf-8" standalone="no"?>
<!DOCTYPE svg PUBLIC "-//W3C//DTD SVG 1.1//EN"
  "http://www.w3.org/Graphics/SVG/1.1/DTD/svg11.dtd">
<svg xmlns:xlink="http://www.w3.org/1999/xlink" width="460.8pt" height="345.6pt" viewBox="0 0 460.8 345.6" xmlns="http://www.w3.org/2000/svg" version="1.1">
 <metadata>
  <rdf:RDF xmlns:dc="http://purl.org/dc/elements/1.1/" xmlns:cc="http://creativecommons.org/ns#" xmlns:rdf="http://www.w3.org/1999/02/22-rdf-syntax-ns#">
   <cc:Work>
    <dc:type rdf:resource="http://purl.org/dc/dcmitype/StillImage"/>
    <dc:date>2023-11-15T11:53:10.849486</dc:date>
    <dc:format>image/svg+xml</dc:format>
    <dc:creator>
     <cc:Agent>
      <dc:title>Matplotlib v3.8.0, https://matplotlib.org/</dc:title>
     </cc:Agent>
    </dc:creator>
   </cc:Work>
  </rdf:RDF>
 </metadata>
 <defs>
  <style type="text/css">*{stroke-linejoin: round; stroke-linecap: butt}</style>
 </defs>
 <g id="figure_1">
  <g id="patch_1">
   <path d="M 0 345.6 
L 460.8 345.6 
L 460.8 0 
L 0 0 
z
" style="fill: #ffffff"/>
  </g>
  <g id="axes_1">
   <g id="patch_2">
    <path d="M 57.6 307.584 
L 414.72 307.584 
L 414.72 41.472 
L 57.6 41.472 
z
" style="fill: #ffffff"/>
   </g>
   <g id="matplotlib.axis_1">
    <g id="xtick_1">
     <g id="line2d_1">
      <path d="M 73.832727 307.584 
L 73.832727 41.472 
" clip-path="url(#pc14c3e2af4)" style="fill: none; stroke: #b0b0b0; stroke-width: 0.8; stroke-linecap: square"/>
     </g>
     <g id="line2d_2">
      <defs>
       <path id="m15f34c91a6" d="M 0 0 
L 0 3.5 
" style="stroke: #000000; stroke-width: 0.8"/>
      </defs>
      <g>
       <use xlink:href="#m15f34c91a6" x="73.832727" y="307.584" style="stroke: #000000; stroke-width: 0.8"/>
      </g>
     </g>
     <g id="text_1">
      <!-- 0 -->
      <g transform="translate(70.651477 322.182437) scale(0.1 -0.1)">
       <defs>
        <path id="DejaVuSans-30" d="M 2034 4250 
Q 1547 4250 1301 3770 
Q 1056 3291 1056 2328 
Q 1056 1369 1301 889 
Q 1547 409 2034 409 
Q 2525 409 2770 889 
Q 3016 1369 3016 2328 
Q 3016 3291 2770 3770 
Q 2525 4250 2034 4250 
z
M 2034 4750 
Q 2819 4750 3233 4129 
Q 3647 3509 3647 2328 
Q 3647 1150 3233 529 
Q 2819 -91 2034 -91 
Q 1250 -91 836 529 
Q 422 1150 422 2328 
Q 422 3509 836 4129 
Q 1250 4750 2034 4750 
z
" transform="scale(0.015625)"/>
       </defs>
       <use xlink:href="#DejaVuSans-30"/>
      </g>
     </g>
    </g>
    <g id="xtick_2">
     <g id="line2d_3">
      <path d="M 138.828632 307.584 
L 138.828632 41.472 
" clip-path="url(#pc14c3e2af4)" style="fill: none; stroke: #b0b0b0; stroke-width: 0.8; stroke-linecap: square"/>
     </g>
     <g id="line2d_4">
      <g>
       <use xlink:href="#m15f34c91a6" x="138.828632" y="307.584" style="stroke: #000000; stroke-width: 0.8"/>
      </g>
     </g>
     <g id="text_2">
      <!-- 200 -->
      <g transform="translate(129.284882 322.182437) scale(0.1 -0.1)">
       <defs>
        <path id="DejaVuSans-32" d="M 1228 531 
L 3431 531 
L 3431 0 
L 469 0 
L 469 531 
Q 828 903 1448 1529 
Q 2069 2156 2228 2338 
Q 2531 2678 2651 2914 
Q 2772 3150 2772 3378 
Q 2772 3750 2511 3984 
Q 2250 4219 1831 4219 
Q 1534 4219 1204 4116 
Q 875 4013 500 3803 
L 500 4441 
Q 881 4594 1212 4672 
Q 1544 4750 1819 4750 
Q 2544 4750 2975 4387 
Q 3406 4025 3406 3419 
Q 3406 3131 3298 2873 
Q 3191 2616 2906 2266 
Q 2828 2175 2409 1742 
Q 1991 1309 1228 531 
z
" transform="scale(0.015625)"/>
       </defs>
       <use xlink:href="#DejaVuSans-32"/>
       <use xlink:href="#DejaVuSans-30" x="63.623047"/>
       <use xlink:href="#DejaVuSans-30" x="127.246094"/>
      </g>
     </g>
    </g>
    <g id="xtick_3">
     <g id="line2d_5">
      <path d="M 203.824537 307.584 
L 203.824537 41.472 
" clip-path="url(#pc14c3e2af4)" style="fill: none; stroke: #b0b0b0; stroke-width: 0.8; stroke-linecap: square"/>
     </g>
     <g id="line2d_6">
      <g>
       <use xlink:href="#m15f34c91a6" x="203.824537" y="307.584" style="stroke: #000000; stroke-width: 0.8"/>
      </g>
     </g>
     <g id="text_3">
      <!-- 400 -->
      <g transform="translate(194.280787 322.182437) scale(0.1 -0.1)">
       <defs>
        <path id="DejaVuSans-34" d="M 2419 4116 
L 825 1625 
L 2419 1625 
L 2419 4116 
z
M 2253 4666 
L 3047 4666 
L 3047 1625 
L 3713 1625 
L 3713 1100 
L 3047 1100 
L 3047 0 
L 2419 0 
L 2419 1100 
L 313 1100 
L 313 1709 
L 2253 4666 
z
" transform="scale(0.015625)"/>
       </defs>
       <use xlink:href="#DejaVuSans-34"/>
       <use xlink:href="#DejaVuSans-30" x="63.623047"/>
       <use xlink:href="#DejaVuSans-30" x="127.246094"/>
      </g>
     </g>
    </g>
    <g id="xtick_4">
     <g id="line2d_7">
      <path d="M 268.820442 307.584 
L 268.820442 41.472 
" clip-path="url(#pc14c3e2af4)" style="fill: none; stroke: #b0b0b0; stroke-width: 0.8; stroke-linecap: square"/>
     </g>
     <g id="line2d_8">
      <g>
       <use xlink:href="#m15f34c91a6" x="268.820442" y="307.584" style="stroke: #000000; stroke-width: 0.8"/>
      </g>
     </g>
     <g id="text_4">
      <!-- 600 -->
      <g transform="translate(259.276692 322.182437) scale(0.1 -0.1)">
       <defs>
        <path id="DejaVuSans-36" d="M 2113 2584 
Q 1688 2584 1439 2293 
Q 1191 2003 1191 1497 
Q 1191 994 1439 701 
Q 1688 409 2113 409 
Q 2538 409 2786 701 
Q 3034 994 3034 1497 
Q 3034 2003 2786 2293 
Q 2538 2584 2113 2584 
z
M 3366 4563 
L 3366 3988 
Q 3128 4100 2886 4159 
Q 2644 4219 2406 4219 
Q 1781 4219 1451 3797 
Q 1122 3375 1075 2522 
Q 1259 2794 1537 2939 
Q 1816 3084 2150 3084 
Q 2853 3084 3261 2657 
Q 3669 2231 3669 1497 
Q 3669 778 3244 343 
Q 2819 -91 2113 -91 
Q 1303 -91 875 529 
Q 447 1150 447 2328 
Q 447 3434 972 4092 
Q 1497 4750 2381 4750 
Q 2619 4750 2861 4703 
Q 3103 4656 3366 4563 
z
" transform="scale(0.015625)"/>
       </defs>
       <use xlink:href="#DejaVuSans-36"/>
       <use xlink:href="#DejaVuSans-30" x="63.623047"/>
       <use xlink:href="#DejaVuSans-30" x="127.246094"/>
      </g>
     </g>
    </g>
    <g id="xtick_5">
     <g id="line2d_9">
      <path d="M 333.816347 307.584 
L 333.816347 41.472 
" clip-path="url(#pc14c3e2af4)" style="fill: none; stroke: #b0b0b0; stroke-width: 0.8; stroke-linecap: square"/>
     </g>
     <g id="line2d_10">
      <g>
       <use xlink:href="#m15f34c91a6" x="333.816347" y="307.584" style="stroke: #000000; stroke-width: 0.8"/>
      </g>
     </g>
     <g id="text_5">
      <!-- 800 -->
      <g transform="translate(324.272597 322.182437) scale(0.1 -0.1)">
       <defs>
        <path id="DejaVuSans-38" d="M 2034 2216 
Q 1584 2216 1326 1975 
Q 1069 1734 1069 1313 
Q 1069 891 1326 650 
Q 1584 409 2034 409 
Q 2484 409 2743 651 
Q 3003 894 3003 1313 
Q 3003 1734 2745 1975 
Q 2488 2216 2034 2216 
z
M 1403 2484 
Q 997 2584 770 2862 
Q 544 3141 544 3541 
Q 544 4100 942 4425 
Q 1341 4750 2034 4750 
Q 2731 4750 3128 4425 
Q 3525 4100 3525 3541 
Q 3525 3141 3298 2862 
Q 3072 2584 2669 2484 
Q 3125 2378 3379 2068 
Q 3634 1759 3634 1313 
Q 3634 634 3220 271 
Q 2806 -91 2034 -91 
Q 1263 -91 848 271 
Q 434 634 434 1313 
Q 434 1759 690 2068 
Q 947 2378 1403 2484 
z
M 1172 3481 
Q 1172 3119 1398 2916 
Q 1625 2713 2034 2713 
Q 2441 2713 2670 2916 
Q 2900 3119 2900 3481 
Q 2900 3844 2670 4047 
Q 2441 4250 2034 4250 
Q 1625 4250 1398 4047 
Q 1172 3844 1172 3481 
z
" transform="scale(0.015625)"/>
       </defs>
       <use xlink:href="#DejaVuSans-38"/>
       <use xlink:href="#DejaVuSans-30" x="63.623047"/>
       <use xlink:href="#DejaVuSans-30" x="127.246094"/>
      </g>
     </g>
    </g>
    <g id="xtick_6">
     <g id="line2d_11">
      <path d="M 398.812252 307.584 
L 398.812252 41.472 
" clip-path="url(#pc14c3e2af4)" style="fill: none; stroke: #b0b0b0; stroke-width: 0.8; stroke-linecap: square"/>
     </g>
     <g id="line2d_12">
      <g>
       <use xlink:href="#m15f34c91a6" x="398.812252" y="307.584" style="stroke: #000000; stroke-width: 0.8"/>
      </g>
     </g>
     <g id="text_6">
      <!-- 1000 -->
      <g transform="translate(386.087252 322.182437) scale(0.1 -0.1)">
       <defs>
        <path id="DejaVuSans-31" d="M 794 531 
L 1825 531 
L 1825 4091 
L 703 3866 
L 703 4441 
L 1819 4666 
L 2450 4666 
L 2450 531 
L 3481 531 
L 3481 0 
L 794 0 
L 794 531 
z
" transform="scale(0.015625)"/>
       </defs>
       <use xlink:href="#DejaVuSans-31"/>
       <use xlink:href="#DejaVuSans-30" x="63.623047"/>
       <use xlink:href="#DejaVuSans-30" x="127.246094"/>
       <use xlink:href="#DejaVuSans-30" x="190.869141"/>
      </g>
     </g>
    </g>
    <g id="text_7">
     <!-- Train Step -->
     <g transform="translate(211.192031 335.860562) scale(0.1 -0.1)">
      <defs>
       <path id="DejaVuSans-54" d="M -19 4666 
L 3928 4666 
L 3928 4134 
L 2272 4134 
L 2272 0 
L 1638 0 
L 1638 4134 
L -19 4134 
L -19 4666 
z
" transform="scale(0.015625)"/>
       <path id="DejaVuSans-72" d="M 2631 2963 
Q 2534 3019 2420 3045 
Q 2306 3072 2169 3072 
Q 1681 3072 1420 2755 
Q 1159 2438 1159 1844 
L 1159 0 
L 581 0 
L 581 3500 
L 1159 3500 
L 1159 2956 
Q 1341 3275 1631 3429 
Q 1922 3584 2338 3584 
Q 2397 3584 2469 3576 
Q 2541 3569 2628 3553 
L 2631 2963 
z
" transform="scale(0.015625)"/>
       <path id="DejaVuSans-61" d="M 2194 1759 
Q 1497 1759 1228 1600 
Q 959 1441 959 1056 
Q 959 750 1161 570 
Q 1363 391 1709 391 
Q 2188 391 2477 730 
Q 2766 1069 2766 1631 
L 2766 1759 
L 2194 1759 
z
M 3341 1997 
L 3341 0 
L 2766 0 
L 2766 531 
Q 2569 213 2275 61 
Q 1981 -91 1556 -91 
Q 1019 -91 701 211 
Q 384 513 384 1019 
Q 384 1609 779 1909 
Q 1175 2209 1959 2209 
L 2766 2209 
L 2766 2266 
Q 2766 2663 2505 2880 
Q 2244 3097 1772 3097 
Q 1472 3097 1187 3025 
Q 903 2953 641 2809 
L 641 3341 
Q 956 3463 1253 3523 
Q 1550 3584 1831 3584 
Q 2591 3584 2966 3190 
Q 3341 2797 3341 1997 
z
" transform="scale(0.015625)"/>
       <path id="DejaVuSans-69" d="M 603 3500 
L 1178 3500 
L 1178 0 
L 603 0 
L 603 3500 
z
M 603 4863 
L 1178 4863 
L 1178 4134 
L 603 4134 
L 603 4863 
z
" transform="scale(0.015625)"/>
       <path id="DejaVuSans-6e" d="M 3513 2113 
L 3513 0 
L 2938 0 
L 2938 2094 
Q 2938 2591 2744 2837 
Q 2550 3084 2163 3084 
Q 1697 3084 1428 2787 
Q 1159 2491 1159 1978 
L 1159 0 
L 581 0 
L 581 3500 
L 1159 3500 
L 1159 2956 
Q 1366 3272 1645 3428 
Q 1925 3584 2291 3584 
Q 2894 3584 3203 3211 
Q 3513 2838 3513 2113 
z
" transform="scale(0.015625)"/>
       <path id="DejaVuSans-20" transform="scale(0.015625)"/>
       <path id="DejaVuSans-53" d="M 3425 4513 
L 3425 3897 
Q 3066 4069 2747 4153 
Q 2428 4238 2131 4238 
Q 1616 4238 1336 4038 
Q 1056 3838 1056 3469 
Q 1056 3159 1242 3001 
Q 1428 2844 1947 2747 
L 2328 2669 
Q 3034 2534 3370 2195 
Q 3706 1856 3706 1288 
Q 3706 609 3251 259 
Q 2797 -91 1919 -91 
Q 1588 -91 1214 -16 
Q 841 59 441 206 
L 441 856 
Q 825 641 1194 531 
Q 1563 422 1919 422 
Q 2459 422 2753 634 
Q 3047 847 3047 1241 
Q 3047 1584 2836 1778 
Q 2625 1972 2144 2069 
L 1759 2144 
Q 1053 2284 737 2584 
Q 422 2884 422 3419 
Q 422 4038 858 4394 
Q 1294 4750 2059 4750 
Q 2388 4750 2728 4690 
Q 3069 4631 3425 4513 
z
" transform="scale(0.015625)"/>
       <path id="DejaVuSans-74" d="M 1172 4494 
L 1172 3500 
L 2356 3500 
L 2356 3053 
L 1172 3053 
L 1172 1153 
Q 1172 725 1289 603 
Q 1406 481 1766 481 
L 2356 481 
L 2356 0 
L 1766 0 
Q 1100 0 847 248 
Q 594 497 594 1153 
L 594 3053 
L 172 3053 
L 172 3500 
L 594 3500 
L 594 4494 
L 1172 4494 
z
" transform="scale(0.015625)"/>
       <path id="DejaVuSans-65" d="M 3597 1894 
L 3597 1613 
L 953 1613 
Q 991 1019 1311 708 
Q 1631 397 2203 397 
Q 2534 397 2845 478 
Q 3156 559 3463 722 
L 3463 178 
Q 3153 47 2828 -22 
Q 2503 -91 2169 -91 
Q 1331 -91 842 396 
Q 353 884 353 1716 
Q 353 2575 817 3079 
Q 1281 3584 2069 3584 
Q 2775 3584 3186 3129 
Q 3597 2675 3597 1894 
z
M 3022 2063 
Q 3016 2534 2758 2815 
Q 2500 3097 2075 3097 
Q 1594 3097 1305 2825 
Q 1016 2553 972 2059 
L 3022 2063 
z
" transform="scale(0.015625)"/>
       <path id="DejaVuSans-70" d="M 1159 525 
L 1159 -1331 
L 581 -1331 
L 581 3500 
L 1159 3500 
L 1159 2969 
Q 1341 3281 1617 3432 
Q 1894 3584 2278 3584 
Q 2916 3584 3314 3078 
Q 3713 2572 3713 1747 
Q 3713 922 3314 415 
Q 2916 -91 2278 -91 
Q 1894 -91 1617 61 
Q 1341 213 1159 525 
z
M 3116 1747 
Q 3116 2381 2855 2742 
Q 2594 3103 2138 3103 
Q 1681 3103 1420 2742 
Q 1159 2381 1159 1747 
Q 1159 1113 1420 752 
Q 1681 391 2138 391 
Q 2594 391 2855 752 
Q 3116 1113 3116 1747 
z
" transform="scale(0.015625)"/>
      </defs>
      <use xlink:href="#DejaVuSans-54"/>
      <use xlink:href="#DejaVuSans-72" x="46.333984"/>
      <use xlink:href="#DejaVuSans-61" x="87.447266"/>
      <use xlink:href="#DejaVuSans-69" x="148.726562"/>
      <use xlink:href="#DejaVuSans-6e" x="176.509766"/>
      <use xlink:href="#DejaVuSans-20" x="239.888672"/>
      <use xlink:href="#DejaVuSans-53" x="271.675781"/>
      <use xlink:href="#DejaVuSans-74" x="335.152344"/>
      <use xlink:href="#DejaVuSans-65" x="374.361328"/>
      <use xlink:href="#DejaVuSans-70" x="435.884766"/>
     </g>
    </g>
   </g>
   <g id="matplotlib.axis_2">
    <g id="ytick_1">
     <g id="line2d_13">
      <path d="M 57.6 250.594645 
L 414.72 250.594645 
" clip-path="url(#pc14c3e2af4)" style="fill: none; stroke: #b0b0b0; stroke-width: 0.8; stroke-linecap: square"/>
     </g>
     <g id="line2d_14">
      <defs>
       <path id="m725a062f2b" d="M 0 0 
L -3.5 0 
" style="stroke: #000000; stroke-width: 0.8"/>
      </defs>
      <g>
       <use xlink:href="#m725a062f2b" x="57.6" y="250.594645" style="stroke: #000000; stroke-width: 0.8"/>
      </g>
     </g>
     <g id="text_8">
      <!-- 0.02 -->
      <g transform="translate(28.334375 254.393864) scale(0.1 -0.1)">
       <defs>
        <path id="DejaVuSans-2e" d="M 684 794 
L 1344 794 
L 1344 0 
L 684 0 
L 684 794 
z
" transform="scale(0.015625)"/>
       </defs>
       <use xlink:href="#DejaVuSans-30"/>
       <use xlink:href="#DejaVuSans-2e" x="63.623047"/>
       <use xlink:href="#DejaVuSans-30" x="95.410156"/>
       <use xlink:href="#DejaVuSans-32" x="159.033203"/>
      </g>
     </g>
    </g>
    <g id="ytick_2">
     <g id="line2d_15">
      <path d="M 57.6 193.125762 
L 414.72 193.125762 
" clip-path="url(#pc14c3e2af4)" style="fill: none; stroke: #b0b0b0; stroke-width: 0.8; stroke-linecap: square"/>
     </g>
     <g id="line2d_16">
      <g>
       <use xlink:href="#m725a062f2b" x="57.6" y="193.125762" style="stroke: #000000; stroke-width: 0.8"/>
      </g>
     </g>
     <g id="text_9">
      <!-- 0.04 -->
      <g transform="translate(28.334375 196.924981) scale(0.1 -0.1)">
       <use xlink:href="#DejaVuSans-30"/>
       <use xlink:href="#DejaVuSans-2e" x="63.623047"/>
       <use xlink:href="#DejaVuSans-30" x="95.410156"/>
       <use xlink:href="#DejaVuSans-34" x="159.033203"/>
      </g>
     </g>
    </g>
    <g id="ytick_3">
     <g id="line2d_17">
      <path d="M 57.6 135.656879 
L 414.72 135.656879 
" clip-path="url(#pc14c3e2af4)" style="fill: none; stroke: #b0b0b0; stroke-width: 0.8; stroke-linecap: square"/>
     </g>
     <g id="line2d_18">
      <g>
       <use xlink:href="#m725a062f2b" x="57.6" y="135.656879" style="stroke: #000000; stroke-width: 0.8"/>
      </g>
     </g>
     <g id="text_10">
      <!-- 0.06 -->
      <g transform="translate(28.334375 139.456098) scale(0.1 -0.1)">
       <use xlink:href="#DejaVuSans-30"/>
       <use xlink:href="#DejaVuSans-2e" x="63.623047"/>
       <use xlink:href="#DejaVuSans-30" x="95.410156"/>
       <use xlink:href="#DejaVuSans-36" x="159.033203"/>
      </g>
     </g>
    </g>
    <g id="ytick_4">
     <g id="line2d_19">
      <path d="M 57.6 78.187996 
L 414.72 78.187996 
" clip-path="url(#pc14c3e2af4)" style="fill: none; stroke: #b0b0b0; stroke-width: 0.8; stroke-linecap: square"/>
     </g>
     <g id="line2d_20">
      <g>
       <use xlink:href="#m725a062f2b" x="57.6" y="78.187996" style="stroke: #000000; stroke-width: 0.8"/>
      </g>
     </g>
     <g id="text_11">
      <!-- 0.08 -->
      <g transform="translate(28.334375 81.987215) scale(0.1 -0.1)">
       <use xlink:href="#DejaVuSans-30"/>
       <use xlink:href="#DejaVuSans-2e" x="63.623047"/>
       <use xlink:href="#DejaVuSans-30" x="95.410156"/>
       <use xlink:href="#DejaVuSans-38" x="159.033203"/>
      </g>
     </g>
    </g>
    <g id="text_12">
     <!-- Loss -->
     <g transform="translate(22.254688 185.495187) rotate(-90) scale(0.1 -0.1)">
      <defs>
       <path id="DejaVuSans-4c" d="M 628 4666 
L 1259 4666 
L 1259 531 
L 3531 531 
L 3531 0 
L 628 0 
L 628 4666 
z
" transform="scale(0.015625)"/>
       <path id="DejaVuSans-6f" d="M 1959 3097 
Q 1497 3097 1228 2736 
Q 959 2375 959 1747 
Q 959 1119 1226 758 
Q 1494 397 1959 397 
Q 2419 397 2687 759 
Q 2956 1122 2956 1747 
Q 2956 2369 2687 2733 
Q 2419 3097 1959 3097 
z
M 1959 3584 
Q 2709 3584 3137 3096 
Q 3566 2609 3566 1747 
Q 3566 888 3137 398 
Q 2709 -91 1959 -91 
Q 1206 -91 779 398 
Q 353 888 353 1747 
Q 353 2609 779 3096 
Q 1206 3584 1959 3584 
z
" transform="scale(0.015625)"/>
       <path id="DejaVuSans-73" d="M 2834 3397 
L 2834 2853 
Q 2591 2978 2328 3040 
Q 2066 3103 1784 3103 
Q 1356 3103 1142 2972 
Q 928 2841 928 2578 
Q 928 2378 1081 2264 
Q 1234 2150 1697 2047 
L 1894 2003 
Q 2506 1872 2764 1633 
Q 3022 1394 3022 966 
Q 3022 478 2636 193 
Q 2250 -91 1575 -91 
Q 1294 -91 989 -36 
Q 684 19 347 128 
L 347 722 
Q 666 556 975 473 
Q 1284 391 1588 391 
Q 1994 391 2212 530 
Q 2431 669 2431 922 
Q 2431 1156 2273 1281 
Q 2116 1406 1581 1522 
L 1381 1569 
Q 847 1681 609 1914 
Q 372 2147 372 2553 
Q 372 3047 722 3315 
Q 1072 3584 1716 3584 
Q 2034 3584 2315 3537 
Q 2597 3491 2834 3397 
z
" transform="scale(0.015625)"/>
      </defs>
      <use xlink:href="#DejaVuSans-4c"/>
      <use xlink:href="#DejaVuSans-6f" x="53.962891"/>
      <use xlink:href="#DejaVuSans-73" x="115.144531"/>
      <use xlink:href="#DejaVuSans-73" x="167.244141"/>
     </g>
    </g>
   </g>
   <g id="line2d_21">
    <path d="M 73.832727 65.191623 
L 74.157707 74.044494 
L 74.482686 53.568 
L 74.807666 86.078075 
L 75.132645 94.717457 
L 75.457625 79.819911 
L 75.782604 84.627712 
L 76.107584 150.491819 
L 76.432563 142.057512 
L 76.757543 100.981145 
L 77.082523 135.766839 
L 77.407502 117.876435 
L 77.732482 125.998451 
L 78.057461 92.698284 
L 78.382441 165.222259 
L 78.70742 87.654792 
L 79.0324 138.938813 
L 79.682359 84.87492 
L 80.007338 106.831835 
L 80.332318 120.917858 
L 80.657297 99.882872 
L 80.982277 169.619333 
L 81.307256 125.301594 
L 81.632236 136.628608 
L 81.957215 122.77972 
L 82.282195 66.643184 
L 82.607174 179.809752 
L 82.932154 165.357884 
L 83.257133 123.80197 
L 83.582113 121.089621 
L 84.232072 155.918711 
L 84.557052 139.684472 
L 84.882031 173.046533 
L 85.207011 163.400015 
L 85.53199 195.379953 
L 85.85697 138.930742 
L 86.181949 204.058364 
L 86.506929 186.343459 
L 86.831908 199.721717 
L 87.156888 171.579942 
L 87.481867 166.011496 
L 87.806847 163.510056 
L 88.131826 188.752155 
L 88.456806 156.134844 
L 88.781785 173.619294 
L 89.106765 183.427106 
L 89.431744 182.23108 
L 89.756724 185.518127 
L 90.081704 200.450356 
L 90.406683 179.229113 
L 90.731663 208.433012 
L 91.056642 196.191016 
L 91.381622 169.102513 
L 91.706601 227.772403 
L 92.031581 204.320686 
L 92.35656 217.215715 
L 92.68154 240.480758 
L 93.006519 229.031943 
L 93.331499 224.634565 
L 93.656478 232.653027 
L 93.981458 206.117615 
L 94.306437 201.180568 
L 94.631417 220.044822 
L 94.956396 201.201185 
L 95.281376 213.547495 
L 95.606355 236.16644 
L 95.931335 220.584378 
L 96.256314 232.819057 
L 96.581294 234.972357 
L 96.906274 211.828291 
L 97.556233 227.687982 
L 97.881212 218.785983 
L 98.206192 229.809233 
L 98.531171 225.300786 
L 98.856151 209.838544 
L 99.18113 233.814295 
L 99.50611 237.593135 
L 99.831089 207.137756 
L 100.156069 221.757775 
L 100.481048 225.892355 
L 100.806028 226.195573 
L 101.131007 205.309839 
L 101.455987 223.831723 
L 101.780966 233.869262 
L 102.105946 229.124964 
L 102.430925 240.146544 
L 102.755905 215.744426 
L 103.080885 230.724803 
L 103.405864 235.451278 
L 103.730844 222.248529 
L 104.055823 216.954389 
L 104.380803 247.826153 
L 104.705782 219.486946 
L 105.030762 216.949529 
L 105.355741 253.954012 
L 105.680721 228.381564 
L 106.0057 250.553964 
L 106.655659 216.152938 
L 106.980639 252.608457 
L 107.305618 244.235288 
L 107.630598 239.132644 
L 107.955577 252.172825 
L 108.280557 231.302065 
L 108.605536 259.677512 
L 108.930516 235.927812 
L 109.255495 251.600395 
L 109.580475 231.705734 
L 109.905455 249.795749 
L 110.230434 231.428131 
L 110.555414 245.002441 
L 110.880393 247.42652 
L 111.205373 222.396405 
L 111.530352 247.912131 
L 111.855332 235.992022 
L 112.180311 241.64027 
L 112.505291 226.1975 
L 112.83027 246.66063 
L 113.15525 244.459845 
L 113.480229 248.44057 
L 113.805209 255.175 
L 114.130188 255.378689 
L 114.455168 257.503419 
L 114.780147 246.252535 
L 115.105127 254.663115 
L 115.430106 260.083392 
L 115.755086 240.817443 
L 116.080066 242.340339 
L 116.405045 227.974802 
L 116.730025 252.196059 
L 117.379984 233.664621 
L 117.704963 252.232587 
L 118.029943 260.32871 
L 118.679902 241.563627 
L 119.004881 243.945717 
L 119.329861 244.696787 
L 119.65484 253.12541 
L 119.97982 255.280637 
L 120.304799 249.194375 
L 120.629779 240.378257 
L 120.954758 259.311577 
L 121.279738 252.160033 
L 121.604717 258.281577 
L 121.929697 230.822058 
L 122.254676 272.086419 
L 122.579656 262.494159 
L 122.904636 242.045197 
L 123.229615 258.610796 
L 123.554595 230.279815 
L 123.879574 248.731356 
L 124.204554 233.62806 
L 124.529533 265.059534 
L 125.179492 219.753143 
L 125.504472 249.85792 
L 125.829451 251.444271 
L 126.154431 270.732065 
L 126.47941 240.543635 
L 126.80439 262.955386 
L 127.129369 260.588303 
L 127.454349 250.916731 
L 127.779328 260.73551 
L 128.104308 250.730426 
L 128.429287 268.089908 
L 128.754267 250.218605 
L 129.404226 268.661333 
L 129.729206 267.191698 
L 130.054185 273.951679 
L 130.379165 259.273988 
L 130.704144 249.718212 
L 131.029124 251.717791 
L 131.354103 264.529488 
L 131.679083 213.487818 
L 132.004062 249.060474 
L 132.654021 265.298807 
L 132.979001 258.796523 
L 133.30398 256.180466 
L 133.953939 269.158259 
L 134.278919 267.809358 
L 134.603898 262.541221 
L 135.253857 245.72706 
L 135.578837 264.945714 
L 135.903817 255.296838 
L 136.228796 250.422385 
L 136.553776 237.721615 
L 137.203735 273.006587 
L 137.528714 279.569917 
L 137.853694 252.86502 
L 138.178673 262.458417 
L 138.503653 260.333859 
L 138.828632 241.931719 
L 139.153612 266.011274 
L 139.478591 270.170631 
L 139.803571 248.566508 
L 140.12855 250.802799 
L 140.45353 264.865099 
L 140.778509 264.795456 
L 141.103489 260.365233 
L 141.428468 266.51638 
L 141.753448 255.847414 
L 142.078428 264.389004 
L 142.403407 260.105956 
L 142.728387 242.918227 
L 143.053366 268.382681 
L 143.378346 266.18331 
L 143.703325 231.547807 
L 144.028305 254.79683 
L 144.353284 252.251818 
L 144.678264 231.322725 
L 145.653202 258.193608 
L 145.978182 220.429876 
L 146.303161 236.853401 
L 146.628141 267.974503 
L 146.95312 235.998113 
L 147.603079 260.818506 
L 147.928059 273.507925 
L 148.253038 263.111397 
L 148.578018 243.92335 
L 148.902998 250.938798 
L 149.227977 274.209043 
L 149.552957 248.681944 
L 149.877936 260.957509 
L 150.202916 263.88914 
L 150.527895 261.547236 
L 150.852875 243.105614 
L 151.177854 264.340976 
L 151.502834 268.553668 
L 151.827813 259.319107 
L 152.152793 263.247244 
L 152.477772 254.060933 
L 152.802752 235.384563 
L 153.127731 279.817904 
L 153.452711 258.399095 
L 153.77769 244.404931 
L 154.10267 271.79903 
L 154.427649 262.818995 
L 154.752629 261.720862 
L 155.077609 266.648818 
L 155.402588 268.764444 
L 155.727568 262.285027 
L 156.052547 242.939481 
L 156.377527 235.227888 
L 156.702506 275.161144 
L 157.352465 242.194791 
L 157.677445 263.679349 
L 158.002424 264.971217 
L 158.327404 265.606866 
L 158.652383 277.881987 
L 158.977363 278.685567 
L 159.627322 257.438904 
L 159.952301 278.922956 
L 160.277281 264.813214 
L 160.60226 274.651202 
L 160.92724 260.33114 
L 161.252219 273.566607 
L 161.577199 280.432554 
L 161.902179 261.256317 
L 162.227158 270.59614 
L 162.877117 274.417672 
L 163.202097 281.329022 
L 163.527076 275.103426 
L 163.852056 263.222089 
L 164.177035 265.637077 
L 164.502015 274.145563 
L 164.826994 269.45286 
L 165.151974 272.3902 
L 165.476953 277.739832 
L 165.801933 279.855174 
L 166.126912 269.892951 
L 166.776871 277.157876 
L 167.101851 262.449308 
L 167.42683 275.657832 
L 167.75181 276.879534 
L 168.401769 259.942521 
L 169.051728 280.33026 
L 169.376708 249.032899 
L 169.701687 278.231941 
L 170.026667 252.01593 
L 170.351646 251.671237 
L 170.676626 275.503605 
L 171.001605 257.423034 
L 171.326585 262.569834 
L 171.651564 256.023545 
L 172.301523 271.100703 
L 172.626503 251.795922 
L 172.951482 275.903434 
L 173.276462 271.208756 
L 173.926421 275.864397 
L 174.2514 276.680304 
L 174.57638 273.247358 
L 174.90136 276.492399 
L 175.226339 271.002035 
L 175.551319 258.85392 
L 175.876298 262.492382 
L 176.201278 268.983691 
L 176.851237 254.97812 
L 177.176216 238.750978 
L 177.501196 274.045715 
L 177.826175 257.262971 
L 178.151155 258.806649 
L 179.126093 277.710486 
L 179.451073 257.521697 
L 179.776052 270.907181 
L 180.101032 269.640817 
L 180.426011 258.992756 
L 180.750991 272.924912 
L 181.075971 266.61002 
L 181.40095 269.83679 
L 181.72593 276.376258 
L 182.050909 276.990598 
L 182.375889 271.584503 
L 182.700868 278.691503 
L 183.025848 271.953717 
L 183.350827 280.202307 
L 183.675807 265.340273 
L 184.000786 275.554847 
L 184.325766 279.664082 
L 184.650745 279.469764 
L 184.975725 278.012439 
L 185.300704 262.120404 
L 185.950663 285.189569 
L 186.275643 265.941561 
L 186.600622 280.436873 
L 186.925602 269.348803 
L 187.250581 283.358306 
L 187.575561 266.229984 
L 187.900541 276.019437 
L 188.22552 280.544404 
L 188.5505 276.836685 
L 188.875479 268.529883 
L 189.525438 259.547587 
L 189.850418 271.739216 
L 190.175397 274.328774 
L 190.500377 283.353029 
L 190.825356 267.03917 
L 191.150336 261.259443 
L 191.475315 274.871194 
L 191.800295 279.446295 
L 192.125274 261.791222 
L 192.450254 268.267909 
L 192.775233 282.678367 
L 193.100213 277.480547 
L 193.425192 274.18526 
L 193.750172 257.764751 
L 194.075152 281.891946 
L 194.725111 256.728484 
L 195.05009 272.358905 
L 195.37507 278.118297 
L 195.700049 270.546 
L 196.025029 280.200247 
L 196.674988 271.595986 
L 196.999967 281.454882 
L 197.324947 266.664607 
L 197.649926 243.152772 
L 197.974906 261.638984 
L 198.299885 265.095562 
L 198.624865 277.25527 
L 198.949844 244.473081 
L 199.274824 261.796885 
L 199.599803 263.467999 
L 199.924783 242.507585 
L 200.249762 274.107854 
L 200.574742 271.129792 
L 200.899722 232.937839 
L 201.224701 269.636072 
L 201.549681 267.754977 
L 201.87466 268.563928 
L 202.19964 266.937286 
L 202.524619 277.90088 
L 202.849599 261.762256 
L 203.174578 272.778904 
L 203.499558 255.249701 
L 203.824537 276.838713 
L 204.149517 277.994078 
L 204.474496 281.207061 
L 204.799476 266.069942 
L 205.124455 277.084152 
L 205.449435 260.274856 
L 205.774414 273.101189 
L 206.099394 271.977483 
L 206.424373 258.129895 
L 206.749353 276.024257 
L 207.074333 270.165448 
L 207.399312 273.352339 
L 207.724292 272.120537 
L 208.049271 277.286744 
L 208.69923 259.727277 
L 209.02421 260.752305 
L 209.674169 274.733968 
L 209.999148 267.135103 
L 210.324128 279.535786 
L 210.649107 282.292467 
L 211.299066 260.786142 
L 211.949025 285.968307 
L 212.274005 273.709596 
L 212.598984 268.488414 
L 212.923964 251.385783 
L 213.248943 288.794305 
L 213.898903 261.109565 
L 214.223882 271.55844 
L 214.548862 272.322794 
L 214.873841 269.923132 
L 215.198821 282.269945 
L 215.5238 277.83296 
L 215.84878 265.500191 
L 216.173759 262.504382 
L 216.498739 255.396394 
L 216.823718 282.911541 
L 217.148698 282.10955 
L 217.473677 245.742796 
L 217.798657 271.944468 
L 218.123636 288.534592 
L 218.773595 248.507109 
L 219.098575 277.92413 
L 219.423554 257.321578 
L 219.748534 277.325041 
L 220.073514 278.692873 
L 220.398493 278.441322 
L 220.723473 265.467832 
L 221.048452 280.998866 
L 221.373432 276.867602 
L 221.698411 280.204167 
L 222.023391 279.571247 
L 222.34837 283.99882 
L 222.67335 279.462954 
L 222.998329 263.064619 
L 223.323309 267.469991 
L 223.648288 277.529581 
L 223.973268 269.113375 
L 224.298247 277.105071 
L 224.623227 270.633383 
L 224.948206 271.183055 
L 225.273186 282.088955 
L 225.598165 274.987374 
L 225.923145 282.756108 
L 226.248124 286.16091 
L 226.573104 276.988511 
L 226.898084 272.753293 
L 227.223063 273.508321 
L 227.548043 275.702317 
L 227.873022 287.654632 
L 228.198002 279.258721 
L 228.522981 274.483001 
L 228.847961 275.892277 
L 229.17294 274.108033 
L 229.49792 268.008393 
L 229.822899 273.529246 
L 230.147879 284.055875 
L 230.472858 264.05874 
L 230.797838 260.197131 
L 231.122817 273.76994 
L 231.447797 275.445518 
L 231.772776 262.963205 
L 232.097756 270.078817 
L 232.422735 270.592096 
L 232.747715 264.743202 
L 233.072695 268.064624 
L 233.397674 266.753205 
L 233.722654 282.022275 
L 234.047633 272.609688 
L 234.372613 278.791171 
L 234.697592 270.906838 
L 235.022572 259.003862 
L 235.347551 267.501133 
L 235.672531 283.744243 
L 235.99751 287.654596 
L 236.32249 278.276937 
L 236.647469 279.708906 
L 236.972449 269.866003 
L 237.297428 252.186366 
L 237.622408 267.585591 
L 237.947387 289.677204 
L 238.272367 263.513538 
L 238.597346 276.676635 
L 239.247305 287.940397 
L 239.572285 280.943042 
L 239.897265 276.973225 
L 240.222244 254.411439 
L 240.547224 293.293783 
L 240.872203 280.840245 
L 241.197183 282.945169 
L 241.522162 257.495883 
L 241.847142 286.715936 
L 242.172121 276.405738 
L 242.497101 278.136827 
L 242.82208 270.228877 
L 243.14706 270.300562 
L 243.472039 266.257695 
L 243.797019 272.584431 
L 244.121998 269.608909 
L 244.446978 256.795633 
L 244.771957 268.215952 
L 245.096937 264.391423 
L 245.421916 289.278672 
L 245.746896 266.073986 
L 246.071876 265.318291 
L 246.396855 289.782188 
L 246.721835 264.487045 
L 247.046814 277.831927 
L 247.371794 283.09115 
L 247.696773 281.398023 
L 248.021753 268.667884 
L 248.346732 265.691453 
L 248.671712 280.528423 
L 248.996691 269.568179 
L 249.321671 274.918753 
L 249.64665 286.513398 
L 249.97163 248.544863 
L 250.296609 266.643733 
L 250.621589 278.54801 
L 250.946568 261.62418 
L 251.271548 258.468781 
L 251.596527 260.076867 
L 251.921507 241.082292 
L 252.246486 274.388484 
L 252.571466 287.756859 
L 252.896446 281.148818 
L 253.221425 235.294501 
L 253.546405 279.404564 
L 253.871384 278.617 
L 254.196364 254.94166 
L 254.521343 246.963993 
L 254.846323 280.28247 
L 255.171302 282.41203 
L 255.496282 273.811173 
L 255.821261 280.218137 
L 256.146241 277.152114 
L 256.47122 280.576614 
L 256.7962 268.032968 
L 257.121179 275.045756 
L 257.446159 275.184568 
L 257.771138 256.097202 
L 258.096118 276.496383 
L 258.421097 279.483217 
L 258.746077 276.030696 
L 259.071057 276.999847 
L 259.396036 268.831574 
L 259.721016 279.436971 
L 260.045995 275.63786 
L 260.370975 278.76961 
L 260.695954 264.054678 
L 261.020934 280.050602 
L 261.345913 275.917716 
L 261.995872 280.90118 
L 262.320852 271.132902 
L 262.645831 266.781178 
L 262.970811 282.330934 
L 263.29579 283.28494 
L 263.62077 261.314656 
L 263.945749 279.124319 
L 264.270729 275.246929 
L 264.595708 274.264291 
L 264.920688 272.399068 
L 265.245667 271.385154 
L 265.570647 263.067386 
L 265.895627 269.883638 
L 266.220606 284.229402 
L 266.545586 269.759253 
L 266.870565 279.85181 
L 267.195545 275.257936 
L 267.520524 278.781537 
L 267.845504 271.048787 
L 268.170483 278.554085 
L 268.495463 280.658904 
L 268.820442 268.376002 
L 269.145422 277.337705 
L 269.470401 280.53772 
L 269.795381 280.340665 
L 270.12036 282.057936 
L 270.44534 276.362963 
L 270.770319 287.383683 
L 271.095299 276.368594 
L 271.420278 282.576865 
L 271.745258 269.207146 
L 272.070238 271.548996 
L 272.395217 272.773958 
L 272.720197 285.010682 
L 273.045176 268.322084 
L 273.370156 287.456264 
L 273.695135 280.988129 
L 274.020115 283.200566 
L 274.345094 261.808504 
L 274.670074 278.702121 
L 274.995053 281.080388 
L 275.320033 274.014766 
L 275.645012 259.861007 
L 275.969992 276.730384 
L 276.294971 269.166354 
L 277.26991 286.151999 
L 277.594889 270.736649 
L 277.919869 273.393235 
L 278.244848 267.826558 
L 278.569828 266.763548 
L 278.894808 277.419374 
L 279.219787 272.155551 
L 279.544767 273.797983 
L 279.869746 270.465313 
L 280.194726 272.128552 
L 280.519705 276.588626 
L 280.844685 290.758699 
L 281.169664 278.323528 
L 281.494644 279.150058 
L 281.819623 283.173146 
L 282.144603 278.614921 
L 282.469582 272.319144 
L 282.794562 287.043142 
L 283.119541 286.86243 
L 283.444521 274.952248 
L 283.7695 277.125503 
L 284.09448 280.593179 
L 284.419459 276.727205 
L 284.744439 267.933915 
L 285.069419 280.655382 
L 285.394398 284.12205 
L 285.719378 282.346674 
L 286.044357 269.242315 
L 286.369337 290.885091 
L 286.694316 290.780705 
L 287.019296 267.621416 
L 287.344275 281.099407 
L 287.669255 263.012628 
L 287.994234 280.448453 
L 288.319214 283.493928 
L 288.644193 262.615665 
L 288.969173 284.350268 
L 289.294152 281.531458 
L 289.619132 280.586933 
L 289.944111 273.888603 
L 290.269091 288.158457 
L 290.59407 283.135194 
L 290.91905 282.960532 
L 291.244029 285.653799 
L 291.893989 268.854864 
L 292.218968 285.081727 
L 292.543948 266.871025 
L 292.868927 276.781509 
L 293.193907 281.017267 
L 293.518886 270.172312 
L 293.843866 286.909831 
L 294.168845 265.694921 
L 294.493825 284.672385 
L 294.818804 287.926921 
L 295.143784 272.851263 
L 295.468763 275.186709 
L 295.793743 276.289727 
L 296.118722 276.883072 
L 296.768681 284.76376 
L 297.41864 271.702329 
L 297.74362 281.635794 
L 298.0686 279.215446 
L 298.393579 279.253498 
L 298.718559 265.401004 
L 299.043538 279.075379 
L 299.368518 272.346269 
L 299.693497 276.77978 
L 300.018477 274.859689 
L 300.343456 278.518407 
L 300.668436 271.449817 
L 300.993415 276.975023 
L 301.643374 266.795409 
L 301.968354 294.266705 
L 302.943292 277.883236 
L 303.268272 289.227765 
L 303.593251 281.445791 
L 303.918231 283.386271 
L 304.24321 275.847343 
L 304.56819 286.971091 
L 304.89317 278.174174 
L 305.543129 290.069933 
L 305.868108 287.679417 
L 306.193088 284.236491 
L 306.518067 286.332819 
L 306.843047 274.767377 
L 307.168026 276.21084 
L 307.493006 283.400211 
L 308.142965 277.188357 
L 308.467944 287.572886 
L 308.792924 283.69387 
L 309.117903 282.530207 
L 309.442883 282.908533 
L 309.767862 275.460707 
L 310.092842 286.910788 
L 310.417821 293.473187 
L 310.742801 285.597032 
L 311.067781 281.387085 
L 311.39276 253.125196 
L 311.71774 275.058376 
L 312.042719 278.755253 
L 312.367699 278.354429 
L 312.692678 286.293212 
L 313.017658 282.216233 
L 313.342637 280.195837 
L 313.667617 261.131546 
L 313.992596 278.841755 
L 314.317576 273.589388 
L 314.642555 286.133267 
L 314.967535 282.673234 
L 315.292514 272.864528 
L 315.617494 279.931395 
L 315.942473 272.953701 
L 316.267453 275.200488 
L 316.592432 281.64777 
L 316.917412 271.637824 
L 317.242391 279.804788 
L 317.567371 269.808322 
L 317.892351 276.394614 
L 318.21733 294.132885 
L 318.54231 272.840636 
L 318.867289 275.693432 
L 319.192269 280.830418 
L 319.517248 276.753931 
L 319.842228 278.130099 
L 320.167207 286.808741 
L 320.492187 273.31923 
L 320.817166 287.115029 
L 321.142146 276.612719 
L 321.467125 286.22685 
L 321.792105 282.860979 
L 322.442064 289.773462 
L 322.767043 284.180742 
L 323.092023 284.228992 
L 323.417002 277.432538 
L 323.741982 283.138922 
L 324.066962 290.799941 
L 324.391941 276.36553 
L 324.716921 280.580553 
L 325.0419 261.567644 
L 325.691859 285.26162 
L 326.016839 268.114924 
L 326.341818 292.019007 
L 326.991777 275.303497 
L 327.316757 269.283158 
L 327.641736 276.812311 
L 327.966716 281.095636 
L 328.291695 275.437567 
L 328.616675 289.91498 
L 328.941654 275.547557 
L 329.266634 270.307241 
L 329.591613 268.731915 
L 329.916593 275.44404 
L 330.241572 278.10929 
L 330.566552 277.52378 
L 330.891532 287.042452 
L 331.216511 285.981099 
L 331.541491 285.380343 
L 332.19145 261.465369 
L 332.516429 289.748441 
L 332.841409 281.355481 
L 333.166388 279.190566 
L 333.491368 270.012046 
L 333.816347 268.302805 
L 334.141327 279.369761 
L 334.466306 255.974165 
L 334.791286 268.490791 
L 335.116265 286.012362 
L 335.766224 277.809052 
L 336.091204 276.072593 
L 336.416183 271.737268 
L 336.741163 264.711881 
L 337.066143 279.707137 
L 337.391122 280.530874 
L 337.716102 279.095554 
L 338.041081 281.08372 
L 338.366061 279.310036 
L 338.69104 276.456962 
L 339.01602 284.788169 
L 339.340999 274.612243 
L 339.665979 282.326133 
L 339.990958 282.565574 
L 340.315938 287.692366 
L 340.640917 274.344901 
L 340.965897 290.253076 
L 341.290876 278.118699 
L 341.615856 273.296954 
L 341.940835 279.880709 
L 342.590794 268.853312 
L 343.240753 290.020457 
L 343.565733 272.70351 
L 344.215692 287.692718 
L 344.540672 279.551311 
L 344.865651 284.791841 
L 345.190631 274.811158 
L 345.51561 269.89772 
L 345.84059 290.839274 
L 346.165569 276.387059 
L 346.490549 286.751121 
L 346.815528 281.349392 
L 347.140508 279.066933 
L 347.465487 290.155788 
L 347.790467 280.79993 
L 348.115446 289.714937 
L 348.440426 275.396925 
L 348.765405 287.554175 
L 349.415364 268.664906 
L 349.740344 291.002394 
L 350.390303 274.239037 
L 350.715283 279.561252 
L 351.040262 280.331852 
L 351.365242 288.024955 
L 351.690221 261.922372 
L 352.015201 283.01729 
L 352.34018 282.250097 
L 352.66516 290.421513 
L 352.990139 285.762842 
L 353.315119 277.61064 
L 353.640098 264.185304 
L 353.965078 288.933259 
L 354.290057 281.458478 
L 354.615037 280.562907 
L 354.940016 279.106446 
L 355.264996 284.543506 
L 355.589975 276.54135 
L 355.914955 279.107005 
L 356.239934 287.19809 
L 356.564914 284.444017 
L 356.889894 283.325475 
L 357.214873 283.695784 
L 357.539853 274.415841 
L 358.189812 293.038627 
L 358.514791 269.589053 
L 358.839771 278.770806 
L 359.16475 280.996768 
L 359.48973 269.734748 
L 359.814709 285.971406 
L 360.139689 283.81236 
L 360.464668 268.778991 
L 360.789648 295.488 
L 361.114627 281.833847 
L 361.439607 281.690293 
L 361.764586 275.581994 
L 362.089566 291.202844 
L 362.414545 274.696027 
L 362.739525 285.828886 
L 363.064505 271.211553 
L 363.389484 292.043288 
L 363.714464 277.028765 
L 364.039443 280.894578 
L 364.364423 273.99507 
L 364.689402 279.018501 
L 365.014382 281.816536 
L 365.339361 274.073993 
L 365.664341 276.326526 
L 365.98932 279.533825 
L 366.3143 285.142274 
L 366.639279 286.226149 
L 366.964259 289.277619 
L 367.289238 285.193503 
L 367.614218 284.391581 
L 367.939197 285.568087 
L 368.264177 292.885053 
L 368.589156 283.175223 
L 368.914136 279.534727 
L 369.239115 290.000051 
L 369.564095 282.172364 
L 369.889075 280.395701 
L 370.214054 282.620041 
L 370.539034 281.295704 
L 370.864013 284.005511 
L 371.188993 278.356446 
L 371.513972 277.572081 
L 372.163931 288.516941 
L 372.488911 290.730356 
L 373.463849 277.317358 
L 373.788829 280.326532 
L 374.113808 272.992542 
L 374.438788 281.506019 
L 374.763767 257.350185 
L 375.088747 277.304794 
L 375.413726 276.812386 
L 375.738706 283.42691 
L 376.063686 258.985895 
L 376.388665 278.744067 
L 376.713645 288.003252 
L 377.038624 268.416191 
L 377.363604 274.818962 
L 378.013563 279.231963 
L 378.338542 269.703895 
L 378.663522 273.994577 
L 378.988501 274.368975 
L 379.313481 286.592492 
L 379.63846 281.544301 
L 380.288419 284.508859 
L 380.613399 273.601107 
L 380.938378 280.042357 
L 381.263358 284.254972 
L 381.588337 272.583832 
L 381.913317 267.811807 
L 382.238296 287.991343 
L 382.563276 272.278322 
L 382.888256 287.133339 
L 383.213235 286.420564 
L 383.538215 277.230056 
L 383.863194 280.741847 
L 384.188174 275.391645 
L 384.513153 274.204073 
L 384.838133 289.297626 
L 385.163112 280.32277 
L 385.488092 282.725488 
L 385.813071 269.296646 
L 386.138051 279.413427 
L 386.46303 280.651077 
L 386.78801 287.127088 
L 387.112989 281.316963 
L 387.437969 266.289361 
L 388.087928 285.546068 
L 388.412907 273.765101 
L 388.737887 282.832971 
L 389.062867 260.445511 
L 389.712826 287.645267 
L 390.037805 271.092236 
L 390.362785 285.288004 
L 390.687764 283.541041 
L 391.012744 272.229197 
L 391.337723 276.897692 
L 391.662703 271.674412 
L 391.987682 282.063214 
L 392.312662 280.860811 
L 392.637641 273.93095 
L 392.962621 283.270554 
L 393.2876 268.180903 
L 393.937559 294.254252 
L 394.262539 282.344108 
L 394.587518 275.952944 
L 394.912498 286.000746 
L 395.237477 287.405113 
L 395.562457 292.127379 
L 395.887437 283.371967 
L 396.212416 283.410056 
L 396.537396 285.674124 
L 396.862375 274.624553 
L 397.187355 285.820499 
L 397.512334 280.130066 
L 397.837314 268.476912 
L 398.162293 286.050842 
L 398.487273 282.854358 
L 398.487273 282.854358 
" clip-path="url(#pc14c3e2af4)" style="fill: none; stroke: #1f77b4; stroke-width: 1.5; stroke-linecap: square"/>
   </g>
   <g id="line2d_22">
    <path d="M 73.832727 92.249098 
L 77.082523 106.229635 
L 80.332318 117.057571 
L 83.582113 128.424757 
L 86.831908 148.132105 
L 90.081704 161.00305 
L 93.331499 176.876561 
L 96.581294 194.991822 
L 99.831089 179.571046 
L 103.080885 185.637055 
L 106.33068 196.990374 
L 109.580475 216.034982 
L 112.83027 211.685826 
L 116.080066 187.210252 
L 119.329861 216.994243 
L 122.579656 226.039389 
L 125.829451 214.228606 
L 129.079247 222.8511 
L 132.329042 225.282316 
L 135.578837 219.256406 
L 138.828632 233.479938 
L 142.078428 237.47211 
L 145.328223 231.524303 
L 148.578018 232.227537 
L 151.827813 225.801182 
L 155.077609 231.217941 
L 158.327404 237.083358 
L 161.577199 228.564962 
L 164.826994 231.823702 
L 168.07679 238.1716 
L 171.326585 238.342313 
L 174.57638 244.396834 
L 177.826175 245.673525 
L 181.075971 244.191279 
L 184.325766 234.672265 
L 187.575561 211.64121 
L 190.825356 217.278514 
L 194.075152 246.766496 
L 197.324947 217.061735 
L 200.574742 236.945294 
L 203.824537 248.2007 
L 207.074333 210.137352 
L 210.324128 250.093952 
L 213.573923 237.695104 
L 216.823718 235.473101 
L 220.073514 238.524249 
L 223.323309 246.850606 
L 226.573104 243.59044 
L 229.822899 247.867663 
L 233.072695 244.865042 
L 236.32249 218.118501 
L 239.572285 250.707285 
L 242.82208 255.525514 
L 246.071876 244.442412 
L 249.321671 236.520691 
L 252.571466 200.500135 
L 255.821261 217.976615 
L 259.071057 248.045897 
L 262.320852 257.526511 
L 265.570647 245.232204 
L 268.820442 244.006402 
L 272.070238 241.526889 
L 275.320033 243.661105 
L 278.569828 245.889433 
L 281.819623 245.566211 
L 285.069419 251.411912 
L 288.319214 233.574661 
L 291.569009 244.701211 
L 294.818804 238.16627 
L 298.0686 247.159595 
L 301.318395 247.440592 
L 304.56819 256.958071 
L 307.817985 257.592369 
L 311.067781 260.570237 
L 314.317576 253.707999 
L 317.567371 249.750314 
L 320.817166 253.145032 
L 324.066962 248.074636 
L 327.316757 248.345852 
L 330.566552 243.852253 
L 333.816347 260.968319 
L 337.066143 251.428318 
L 340.315938 255.123998 
L 343.565733 242.192043 
L 346.815528 253.633628 
L 350.065324 265.137718 
L 353.315119 243.979558 
L 356.564914 243.281109 
L 359.814709 256.305817 
L 363.064505 258.535008 
L 366.3143 256.04411 
L 369.564095 260.25501 
L 372.81389 260.202118 
L 376.063686 247.033017 
L 379.313481 254.144115 
L 382.563276 250.049011 
L 385.813071 258.893509 
L 389.062867 244.931003 
L 392.312662 252.308576 
L 395.562457 253.290649 
" clip-path="url(#pc14c3e2af4)" style="fill: none; stroke: #ff7f0e; stroke-width: 1.5; stroke-linecap: square"/>
   </g>
   <g id="patch_3">
    <path d="M 57.6 307.584 
L 57.6 41.472 
" style="fill: none; stroke: #000000; stroke-width: 0.8; stroke-linejoin: miter; stroke-linecap: square"/>
   </g>
   <g id="patch_4">
    <path d="M 414.72 307.584 
L 414.72 41.472 
" style="fill: none; stroke: #000000; stroke-width: 0.8; stroke-linejoin: miter; stroke-linecap: square"/>
   </g>
   <g id="patch_5">
    <path d="M 57.6 307.584 
L 414.72 307.584 
" style="fill: none; stroke: #000000; stroke-width: 0.8; stroke-linejoin: miter; stroke-linecap: square"/>
   </g>
   <g id="patch_6">
    <path d="M 57.6 41.472 
L 414.72 41.472 
" style="fill: none; stroke: #000000; stroke-width: 0.8; stroke-linejoin: miter; stroke-linecap: square"/>
   </g>
   <g id="text_13">
    <!-- Train Loss vs Validation Loss -->
    <g transform="translate(151.513125 35.472) scale(0.12 -0.12)">
     <defs>
      <path id="DejaVuSans-76" d="M 191 3500 
L 800 3500 
L 1894 563 
L 2988 3500 
L 3597 3500 
L 2284 0 
L 1503 0 
L 191 3500 
z
" transform="scale(0.015625)"/>
      <path id="DejaVuSans-56" d="M 1831 0 
L 50 4666 
L 709 4666 
L 2188 738 
L 3669 4666 
L 4325 4666 
L 2547 0 
L 1831 0 
z
" transform="scale(0.015625)"/>
      <path id="DejaVuSans-6c" d="M 603 4863 
L 1178 4863 
L 1178 0 
L 603 0 
L 603 4863 
z
" transform="scale(0.015625)"/>
      <path id="DejaVuSans-64" d="M 2906 2969 
L 2906 4863 
L 3481 4863 
L 3481 0 
L 2906 0 
L 2906 525 
Q 2725 213 2448 61 
Q 2172 -91 1784 -91 
Q 1150 -91 751 415 
Q 353 922 353 1747 
Q 353 2572 751 3078 
Q 1150 3584 1784 3584 
Q 2172 3584 2448 3432 
Q 2725 3281 2906 2969 
z
M 947 1747 
Q 947 1113 1208 752 
Q 1469 391 1925 391 
Q 2381 391 2643 752 
Q 2906 1113 2906 1747 
Q 2906 2381 2643 2742 
Q 2381 3103 1925 3103 
Q 1469 3103 1208 2742 
Q 947 2381 947 1747 
z
" transform="scale(0.015625)"/>
     </defs>
     <use xlink:href="#DejaVuSans-54"/>
     <use xlink:href="#DejaVuSans-72" x="46.333984"/>
     <use xlink:href="#DejaVuSans-61" x="87.447266"/>
     <use xlink:href="#DejaVuSans-69" x="148.726562"/>
     <use xlink:href="#DejaVuSans-6e" x="176.509766"/>
     <use xlink:href="#DejaVuSans-20" x="239.888672"/>
     <use xlink:href="#DejaVuSans-4c" x="271.675781"/>
     <use xlink:href="#DejaVuSans-6f" x="325.638672"/>
     <use xlink:href="#DejaVuSans-73" x="386.820312"/>
     <use xlink:href="#DejaVuSans-73" x="438.919922"/>
     <use xlink:href="#DejaVuSans-20" x="491.019531"/>
     <use xlink:href="#DejaVuSans-76" x="522.806641"/>
     <use xlink:href="#DejaVuSans-73" x="581.986328"/>
     <use xlink:href="#DejaVuSans-20" x="634.085938"/>
     <use xlink:href="#DejaVuSans-56" x="665.873047"/>
     <use xlink:href="#DejaVuSans-61" x="726.53125"/>
     <use xlink:href="#DejaVuSans-6c" x="787.810547"/>
     <use xlink:href="#DejaVuSans-69" x="815.59375"/>
     <use xlink:href="#DejaVuSans-64" x="843.376953"/>
     <use xlink:href="#DejaVuSans-61" x="906.853516"/>
     <use xlink:href="#DejaVuSans-74" x="968.132812"/>
     <use xlink:href="#DejaVuSans-69" x="1007.341797"/>
     <use xlink:href="#DejaVuSans-6f" x="1035.125"/>
     <use xlink:href="#DejaVuSans-6e" x="1096.306641"/>
     <use xlink:href="#DejaVuSans-20" x="1159.685547"/>
     <use xlink:href="#DejaVuSans-4c" x="1191.472656"/>
     <use xlink:href="#DejaVuSans-6f" x="1245.435547"/>
     <use xlink:href="#DejaVuSans-73" x="1306.617188"/>
     <use xlink:href="#DejaVuSans-73" x="1358.716797"/>
    </g>
   </g>
   <g id="legend_1">
    <g id="patch_7">
     <path d="M 301.22625 78.82825 
L 407.72 78.82825 
Q 409.72 78.82825 409.72 76.82825 
L 409.72 48.472 
Q 409.72 46.472 407.72 46.472 
L 301.22625 46.472 
Q 299.22625 46.472 299.22625 48.472 
L 299.22625 76.82825 
Q 299.22625 78.82825 301.22625 78.82825 
z
" style="fill: #ffffff; opacity: 0.8; stroke: #cccccc; stroke-linejoin: miter"/>
    </g>
    <g id="line2d_23">
     <path d="M 303.22625 54.570437 
L 313.22625 54.570437 
L 323.22625 54.570437 
" style="fill: none; stroke: #1f77b4; stroke-width: 1.5; stroke-linecap: square"/>
    </g>
    <g id="text_14">
     <!-- Train Loss -->
     <g transform="translate(331.22625 58.070437) scale(0.1 -0.1)">
      <use xlink:href="#DejaVuSans-54"/>
      <use xlink:href="#DejaVuSans-72" x="46.333984"/>
      <use xlink:href="#DejaVuSans-61" x="87.447266"/>
      <use xlink:href="#DejaVuSans-69" x="148.726562"/>
      <use xlink:href="#DejaVuSans-6e" x="176.509766"/>
      <use xlink:href="#DejaVuSans-20" x="239.888672"/>
      <use xlink:href="#DejaVuSans-4c" x="271.675781"/>
      <use xlink:href="#DejaVuSans-6f" x="325.638672"/>
      <use xlink:href="#DejaVuSans-73" x="386.820312"/>
      <use xlink:href="#DejaVuSans-73" x="438.919922"/>
     </g>
    </g>
    <g id="line2d_24">
     <path d="M 303.22625 69.248562 
L 313.22625 69.248562 
L 323.22625 69.248562 
" style="fill: none; stroke: #ff7f0e; stroke-width: 1.5; stroke-linecap: square"/>
    </g>
    <g id="text_15">
     <!-- Validation Loss -->
     <g transform="translate(331.22625 72.748562) scale(0.1 -0.1)">
      <use xlink:href="#DejaVuSans-56"/>
      <use xlink:href="#DejaVuSans-61" x="60.658203"/>
      <use xlink:href="#DejaVuSans-6c" x="121.9375"/>
      <use xlink:href="#DejaVuSans-69" x="149.720703"/>
      <use xlink:href="#DejaVuSans-64" x="177.503906"/>
      <use xlink:href="#DejaVuSans-61" x="240.980469"/>
      <use xlink:href="#DejaVuSans-74" x="302.259766"/>
      <use xlink:href="#DejaVuSans-69" x="341.46875"/>
      <use xlink:href="#DejaVuSans-6f" x="369.251953"/>
      <use xlink:href="#DejaVuSans-6e" x="430.433594"/>
      <use xlink:href="#DejaVuSans-20" x="493.8125"/>
      <use xlink:href="#DejaVuSans-4c" x="525.599609"/>
      <use xlink:href="#DejaVuSans-6f" x="579.5625"/>
      <use xlink:href="#DejaVuSans-73" x="640.744141"/>
      <use xlink:href="#DejaVuSans-73" x="692.84375"/>
     </g>
    </g>
   </g>
  </g>
 </g>
 <defs>
  <clipPath id="pc14c3e2af4">
   <rect x="57.6" y="41.472" width="357.12" height="266.112"/>
  </clipPath>
 </defs>
</svg>
