<?xml version="1.0" encoding="utf-8" standalone="no"?>
<!DOCTYPE svg PUBLIC "-//W3C//DTD SVG 1.1//EN"
  "http://www.w3.org/Graphics/SVG/1.1/DTD/svg11.dtd">
<svg xmlns:xlink="http://www.w3.org/1999/xlink" width="460.8pt" height="345.6pt" viewBox="0 0 460.8 345.6" xmlns="http://www.w3.org/2000/svg" version="1.1">
 <metadata>
  <rdf:RDF xmlns:dc="http://purl.org/dc/elements/1.1/" xmlns:cc="http://creativecommons.org/ns#" xmlns:rdf="http://www.w3.org/1999/02/22-rdf-syntax-ns#">
   <cc:Work>
    <dc:type rdf:resource="http://purl.org/dc/dcmitype/StillImage"/>
    <dc:date>2023-11-15T12:01:06.966224</dc:date>
    <dc:format>image/svg+xml</dc:format>
    <dc:creator>
     <cc:Agent>
      <dc:title>Matplotlib v3.8.0, https://matplotlib.org/</dc:title>
     </cc:Agent>
    </dc:creator>
   </cc:Work>
  </rdf:RDF>
 </metadata>
 <defs>
  <style type="text/css">*{stroke-linejoin: round; stroke-linecap: butt}</style>
 </defs>
 <g id="figure_1">
  <g id="patch_1">
   <path d="M 0 345.6 
L 460.8 345.6 
L 460.8 0 
L 0 0 
z
" style="fill: #ffffff"/>
  </g>
  <g id="axes_1">
   <g id="patch_2">
    <path d="M 57.6 307.584 
L 414.72 307.584 
L 414.72 41.472 
L 57.6 41.472 
z
" style="fill: #ffffff"/>
   </g>
   <g id="matplotlib.axis_1">
    <g id="xtick_1">
     <g id="line2d_1">
      <path d="M 73.832727 307.584 
L 73.832727 41.472 
" clip-path="url(#p886a141e33)" style="fill: none; stroke: #b0b0b0; stroke-width: 0.8; stroke-linecap: square"/>
     </g>
     <g id="line2d_2">
      <defs>
       <path id="m56113e9ccf" d="M 0 0 
L 0 3.5 
" style="stroke: #000000; stroke-width: 0.8"/>
      </defs>
      <g>
       <use xlink:href="#m56113e9ccf" x="73.832727" y="307.584" style="stroke: #000000; stroke-width: 0.8"/>
      </g>
     </g>
     <g id="text_1">
      <!-- 0 -->
      <g transform="translate(70.651477 322.182437) scale(0.1 -0.1)">
       <defs>
        <path id="DejaVuSans-30" d="M 2034 4250 
Q 1547 4250 1301 3770 
Q 1056 3291 1056 2328 
Q 1056 1369 1301 889 
Q 1547 409 2034 409 
Q 2525 409 2770 889 
Q 3016 1369 3016 2328 
Q 3016 3291 2770 3770 
Q 2525 4250 2034 4250 
z
M 2034 4750 
Q 2819 4750 3233 4129 
Q 3647 3509 3647 2328 
Q 3647 1150 3233 529 
Q 2819 -91 2034 -91 
Q 1250 -91 836 529 
Q 422 1150 422 2328 
Q 422 3509 836 4129 
Q 1250 4750 2034 4750 
z
" transform="scale(0.015625)"/>
       </defs>
       <use xlink:href="#DejaVuSans-30"/>
      </g>
     </g>
    </g>
    <g id="xtick_2">
     <g id="line2d_3">
      <path d="M 138.828632 307.584 
L 138.828632 41.472 
" clip-path="url(#p886a141e33)" style="fill: none; stroke: #b0b0b0; stroke-width: 0.8; stroke-linecap: square"/>
     </g>
     <g id="line2d_4">
      <g>
       <use xlink:href="#m56113e9ccf" x="138.828632" y="307.584" style="stroke: #000000; stroke-width: 0.8"/>
      </g>
     </g>
     <g id="text_2">
      <!-- 200 -->
      <g transform="translate(129.284882 322.182437) scale(0.1 -0.1)">
       <defs>
        <path id="DejaVuSans-32" d="M 1228 531 
L 3431 531 
L 3431 0 
L 469 0 
L 469 531 
Q 828 903 1448 1529 
Q 2069 2156 2228 2338 
Q 2531 2678 2651 2914 
Q 2772 3150 2772 3378 
Q 2772 3750 2511 3984 
Q 2250 4219 1831 4219 
Q 1534 4219 1204 4116 
Q 875 4013 500 3803 
L 500 4441 
Q 881 4594 1212 4672 
Q 1544 4750 1819 4750 
Q 2544 4750 2975 4387 
Q 3406 4025 3406 3419 
Q 3406 3131 3298 2873 
Q 3191 2616 2906 2266 
Q 2828 2175 2409 1742 
Q 1991 1309 1228 531 
z
" transform="scale(0.015625)"/>
       </defs>
       <use xlink:href="#DejaVuSans-32"/>
       <use xlink:href="#DejaVuSans-30" x="63.623047"/>
       <use xlink:href="#DejaVuSans-30" x="127.246094"/>
      </g>
     </g>
    </g>
    <g id="xtick_3">
     <g id="line2d_5">
      <path d="M 203.824537 307.584 
L 203.824537 41.472 
" clip-path="url(#p886a141e33)" style="fill: none; stroke: #b0b0b0; stroke-width: 0.8; stroke-linecap: square"/>
     </g>
     <g id="line2d_6">
      <g>
       <use xlink:href="#m56113e9ccf" x="203.824537" y="307.584" style="stroke: #000000; stroke-width: 0.8"/>
      </g>
     </g>
     <g id="text_3">
      <!-- 400 -->
      <g transform="translate(194.280787 322.182437) scale(0.1 -0.1)">
       <defs>
        <path id="DejaVuSans-34" d="M 2419 4116 
L 825 1625 
L 2419 1625 
L 2419 4116 
z
M 2253 4666 
L 3047 4666 
L 3047 1625 
L 3713 1625 
L 3713 1100 
L 3047 1100 
L 3047 0 
L 2419 0 
L 2419 1100 
L 313 1100 
L 313 1709 
L 2253 4666 
z
" transform="scale(0.015625)"/>
       </defs>
       <use xlink:href="#DejaVuSans-34"/>
       <use xlink:href="#DejaVuSans-30" x="63.623047"/>
       <use xlink:href="#DejaVuSans-30" x="127.246094"/>
      </g>
     </g>
    </g>
    <g id="xtick_4">
     <g id="line2d_7">
      <path d="M 268.820442 307.584 
L 268.820442 41.472 
" clip-path="url(#p886a141e33)" style="fill: none; stroke: #b0b0b0; stroke-width: 0.8; stroke-linecap: square"/>
     </g>
     <g id="line2d_8">
      <g>
       <use xlink:href="#m56113e9ccf" x="268.820442" y="307.584" style="stroke: #000000; stroke-width: 0.8"/>
      </g>
     </g>
     <g id="text_4">
      <!-- 600 -->
      <g transform="translate(259.276692 322.182437) scale(0.1 -0.1)">
       <defs>
        <path id="DejaVuSans-36" d="M 2113 2584 
Q 1688 2584 1439 2293 
Q 1191 2003 1191 1497 
Q 1191 994 1439 701 
Q 1688 409 2113 409 
Q 2538 409 2786 701 
Q 3034 994 3034 1497 
Q 3034 2003 2786 2293 
Q 2538 2584 2113 2584 
z
M 3366 4563 
L 3366 3988 
Q 3128 4100 2886 4159 
Q 2644 4219 2406 4219 
Q 1781 4219 1451 3797 
Q 1122 3375 1075 2522 
Q 1259 2794 1537 2939 
Q 1816 3084 2150 3084 
Q 2853 3084 3261 2657 
Q 3669 2231 3669 1497 
Q 3669 778 3244 343 
Q 2819 -91 2113 -91 
Q 1303 -91 875 529 
Q 447 1150 447 2328 
Q 447 3434 972 4092 
Q 1497 4750 2381 4750 
Q 2619 4750 2861 4703 
Q 3103 4656 3366 4563 
z
" transform="scale(0.015625)"/>
       </defs>
       <use xlink:href="#DejaVuSans-36"/>
       <use xlink:href="#DejaVuSans-30" x="63.623047"/>
       <use xlink:href="#DejaVuSans-30" x="127.246094"/>
      </g>
     </g>
    </g>
    <g id="xtick_5">
     <g id="line2d_9">
      <path d="M 333.816347 307.584 
L 333.816347 41.472 
" clip-path="url(#p886a141e33)" style="fill: none; stroke: #b0b0b0; stroke-width: 0.8; stroke-linecap: square"/>
     </g>
     <g id="line2d_10">
      <g>
       <use xlink:href="#m56113e9ccf" x="333.816347" y="307.584" style="stroke: #000000; stroke-width: 0.8"/>
      </g>
     </g>
     <g id="text_5">
      <!-- 800 -->
      <g transform="translate(324.272597 322.182437) scale(0.1 -0.1)">
       <defs>
        <path id="DejaVuSans-38" d="M 2034 2216 
Q 1584 2216 1326 1975 
Q 1069 1734 1069 1313 
Q 1069 891 1326 650 
Q 1584 409 2034 409 
Q 2484 409 2743 651 
Q 3003 894 3003 1313 
Q 3003 1734 2745 1975 
Q 2488 2216 2034 2216 
z
M 1403 2484 
Q 997 2584 770 2862 
Q 544 3141 544 3541 
Q 544 4100 942 4425 
Q 1341 4750 2034 4750 
Q 2731 4750 3128 4425 
Q 3525 4100 3525 3541 
Q 3525 3141 3298 2862 
Q 3072 2584 2669 2484 
Q 3125 2378 3379 2068 
Q 3634 1759 3634 1313 
Q 3634 634 3220 271 
Q 2806 -91 2034 -91 
Q 1263 -91 848 271 
Q 434 634 434 1313 
Q 434 1759 690 2068 
Q 947 2378 1403 2484 
z
M 1172 3481 
Q 1172 3119 1398 2916 
Q 1625 2713 2034 2713 
Q 2441 2713 2670 2916 
Q 2900 3119 2900 3481 
Q 2900 3844 2670 4047 
Q 2441 4250 2034 4250 
Q 1625 4250 1398 4047 
Q 1172 3844 1172 3481 
z
" transform="scale(0.015625)"/>
       </defs>
       <use xlink:href="#DejaVuSans-38"/>
       <use xlink:href="#DejaVuSans-30" x="63.623047"/>
       <use xlink:href="#DejaVuSans-30" x="127.246094"/>
      </g>
     </g>
    </g>
    <g id="xtick_6">
     <g id="line2d_11">
      <path d="M 398.812252 307.584 
L 398.812252 41.472 
" clip-path="url(#p886a141e33)" style="fill: none; stroke: #b0b0b0; stroke-width: 0.8; stroke-linecap: square"/>
     </g>
     <g id="line2d_12">
      <g>
       <use xlink:href="#m56113e9ccf" x="398.812252" y="307.584" style="stroke: #000000; stroke-width: 0.8"/>
      </g>
     </g>
     <g id="text_6">
      <!-- 1000 -->
      <g transform="translate(386.087252 322.182437) scale(0.1 -0.1)">
       <defs>
        <path id="DejaVuSans-31" d="M 794 531 
L 1825 531 
L 1825 4091 
L 703 3866 
L 703 4441 
L 1819 4666 
L 2450 4666 
L 2450 531 
L 3481 531 
L 3481 0 
L 794 0 
L 794 531 
z
" transform="scale(0.015625)"/>
       </defs>
       <use xlink:href="#DejaVuSans-31"/>
       <use xlink:href="#DejaVuSans-30" x="63.623047"/>
       <use xlink:href="#DejaVuSans-30" x="127.246094"/>
       <use xlink:href="#DejaVuSans-30" x="190.869141"/>
      </g>
     </g>
    </g>
    <g id="text_7">
     <!-- Train Step -->
     <g transform="translate(211.192031 335.860562) scale(0.1 -0.1)">
      <defs>
       <path id="DejaVuSans-54" d="M -19 4666 
L 3928 4666 
L 3928 4134 
L 2272 4134 
L 2272 0 
L 1638 0 
L 1638 4134 
L -19 4134 
L -19 4666 
z
" transform="scale(0.015625)"/>
       <path id="DejaVuSans-72" d="M 2631 2963 
Q 2534 3019 2420 3045 
Q 2306 3072 2169 3072 
Q 1681 3072 1420 2755 
Q 1159 2438 1159 1844 
L 1159 0 
L 581 0 
L 581 3500 
L 1159 3500 
L 1159 2956 
Q 1341 3275 1631 3429 
Q 1922 3584 2338 3584 
Q 2397 3584 2469 3576 
Q 2541 3569 2628 3553 
L 2631 2963 
z
" transform="scale(0.015625)"/>
       <path id="DejaVuSans-61" d="M 2194 1759 
Q 1497 1759 1228 1600 
Q 959 1441 959 1056 
Q 959 750 1161 570 
Q 1363 391 1709 391 
Q 2188 391 2477 730 
Q 2766 1069 2766 1631 
L 2766 1759 
L 2194 1759 
z
M 3341 1997 
L 3341 0 
L 2766 0 
L 2766 531 
Q 2569 213 2275 61 
Q 1981 -91 1556 -91 
Q 1019 -91 701 211 
Q 384 513 384 1019 
Q 384 1609 779 1909 
Q 1175 2209 1959 2209 
L 2766 2209 
L 2766 2266 
Q 2766 2663 2505 2880 
Q 2244 3097 1772 3097 
Q 1472 3097 1187 3025 
Q 903 2953 641 2809 
L 641 3341 
Q 956 3463 1253 3523 
Q 1550 3584 1831 3584 
Q 2591 3584 2966 3190 
Q 3341 2797 3341 1997 
z
" transform="scale(0.015625)"/>
       <path id="DejaVuSans-69" d="M 603 3500 
L 1178 3500 
L 1178 0 
L 603 0 
L 603 3500 
z
M 603 4863 
L 1178 4863 
L 1178 4134 
L 603 4134 
L 603 4863 
z
" transform="scale(0.015625)"/>
       <path id="DejaVuSans-6e" d="M 3513 2113 
L 3513 0 
L 2938 0 
L 2938 2094 
Q 2938 2591 2744 2837 
Q 2550 3084 2163 3084 
Q 1697 3084 1428 2787 
Q 1159 2491 1159 1978 
L 1159 0 
L 581 0 
L 581 3500 
L 1159 3500 
L 1159 2956 
Q 1366 3272 1645 3428 
Q 1925 3584 2291 3584 
Q 2894 3584 3203 3211 
Q 3513 2838 3513 2113 
z
" transform="scale(0.015625)"/>
       <path id="DejaVuSans-20" transform="scale(0.015625)"/>
       <path id="DejaVuSans-53" d="M 3425 4513 
L 3425 3897 
Q 3066 4069 2747 4153 
Q 2428 4238 2131 4238 
Q 1616 4238 1336 4038 
Q 1056 3838 1056 3469 
Q 1056 3159 1242 3001 
Q 1428 2844 1947 2747 
L 2328 2669 
Q 3034 2534 3370 2195 
Q 3706 1856 3706 1288 
Q 3706 609 3251 259 
Q 2797 -91 1919 -91 
Q 1588 -91 1214 -16 
Q 841 59 441 206 
L 441 856 
Q 825 641 1194 531 
Q 1563 422 1919 422 
Q 2459 422 2753 634 
Q 3047 847 3047 1241 
Q 3047 1584 2836 1778 
Q 2625 1972 2144 2069 
L 1759 2144 
Q 1053 2284 737 2584 
Q 422 2884 422 3419 
Q 422 4038 858 4394 
Q 1294 4750 2059 4750 
Q 2388 4750 2728 4690 
Q 3069 4631 3425 4513 
z
" transform="scale(0.015625)"/>
       <path id="DejaVuSans-74" d="M 1172 4494 
L 1172 3500 
L 2356 3500 
L 2356 3053 
L 1172 3053 
L 1172 1153 
Q 1172 725 1289 603 
Q 1406 481 1766 481 
L 2356 481 
L 2356 0 
L 1766 0 
Q 1100 0 847 248 
Q 594 497 594 1153 
L 594 3053 
L 172 3053 
L 172 3500 
L 594 3500 
L 594 4494 
L 1172 4494 
z
" transform="scale(0.015625)"/>
       <path id="DejaVuSans-65" d="M 3597 1894 
L 3597 1613 
L 953 1613 
Q 991 1019 1311 708 
Q 1631 397 2203 397 
Q 2534 397 2845 478 
Q 3156 559 3463 722 
L 3463 178 
Q 3153 47 2828 -22 
Q 2503 -91 2169 -91 
Q 1331 -91 842 396 
Q 353 884 353 1716 
Q 353 2575 817 3079 
Q 1281 3584 2069 3584 
Q 2775 3584 3186 3129 
Q 3597 2675 3597 1894 
z
M 3022 2063 
Q 3016 2534 2758 2815 
Q 2500 3097 2075 3097 
Q 1594 3097 1305 2825 
Q 1016 2553 972 2059 
L 3022 2063 
z
" transform="scale(0.015625)"/>
       <path id="DejaVuSans-70" d="M 1159 525 
L 1159 -1331 
L 581 -1331 
L 581 3500 
L 1159 3500 
L 1159 2969 
Q 1341 3281 1617 3432 
Q 1894 3584 2278 3584 
Q 2916 3584 3314 3078 
Q 3713 2572 3713 1747 
Q 3713 922 3314 415 
Q 2916 -91 2278 -91 
Q 1894 -91 1617 61 
Q 1341 213 1159 525 
z
M 3116 1747 
Q 3116 2381 2855 2742 
Q 2594 3103 2138 3103 
Q 1681 3103 1420 2742 
Q 1159 2381 1159 1747 
Q 1159 1113 1420 752 
Q 1681 391 2138 391 
Q 2594 391 2855 752 
Q 3116 1113 3116 1747 
z
" transform="scale(0.015625)"/>
      </defs>
      <use xlink:href="#DejaVuSans-54"/>
      <use xlink:href="#DejaVuSans-72" x="46.333984"/>
      <use xlink:href="#DejaVuSans-61" x="87.447266"/>
      <use xlink:href="#DejaVuSans-69" x="148.726562"/>
      <use xlink:href="#DejaVuSans-6e" x="176.509766"/>
      <use xlink:href="#DejaVuSans-20" x="239.888672"/>
      <use xlink:href="#DejaVuSans-53" x="271.675781"/>
      <use xlink:href="#DejaVuSans-74" x="335.152344"/>
      <use xlink:href="#DejaVuSans-65" x="374.361328"/>
      <use xlink:href="#DejaVuSans-70" x="435.884766"/>
     </g>
    </g>
   </g>
   <g id="matplotlib.axis_2">
    <g id="ytick_1">
     <g id="line2d_13">
      <path d="M 57.6 306.271107 
L 414.72 306.271107 
" clip-path="url(#p886a141e33)" style="fill: none; stroke: #b0b0b0; stroke-width: 0.8; stroke-linecap: square"/>
     </g>
     <g id="line2d_14">
      <defs>
       <path id="m79d70c3618" d="M 0 0 
L -3.5 0 
" style="stroke: #000000; stroke-width: 0.8"/>
      </defs>
      <g>
       <use xlink:href="#m79d70c3618" x="57.6" y="306.271107" style="stroke: #000000; stroke-width: 0.8"/>
      </g>
     </g>
     <g id="text_8">
      <!-- 0.00 -->
      <g transform="translate(28.334375 310.070325) scale(0.1 -0.1)">
       <defs>
        <path id="DejaVuSans-2e" d="M 684 794 
L 1344 794 
L 1344 0 
L 684 0 
L 684 794 
z
" transform="scale(0.015625)"/>
       </defs>
       <use xlink:href="#DejaVuSans-30"/>
       <use xlink:href="#DejaVuSans-2e" x="63.623047"/>
       <use xlink:href="#DejaVuSans-30" x="95.410156"/>
       <use xlink:href="#DejaVuSans-30" x="159.033203"/>
      </g>
     </g>
    </g>
    <g id="ytick_2">
     <g id="line2d_15">
      <path d="M 57.6 250.799084 
L 414.72 250.799084 
" clip-path="url(#p886a141e33)" style="fill: none; stroke: #b0b0b0; stroke-width: 0.8; stroke-linecap: square"/>
     </g>
     <g id="line2d_16">
      <g>
       <use xlink:href="#m79d70c3618" x="57.6" y="250.799084" style="stroke: #000000; stroke-width: 0.8"/>
      </g>
     </g>
     <g id="text_9">
      <!-- 0.02 -->
      <g transform="translate(28.334375 254.598302) scale(0.1 -0.1)">
       <use xlink:href="#DejaVuSans-30"/>
       <use xlink:href="#DejaVuSans-2e" x="63.623047"/>
       <use xlink:href="#DejaVuSans-30" x="95.410156"/>
       <use xlink:href="#DejaVuSans-32" x="159.033203"/>
      </g>
     </g>
    </g>
    <g id="ytick_3">
     <g id="line2d_17">
      <path d="M 57.6 195.327061 
L 414.72 195.327061 
" clip-path="url(#p886a141e33)" style="fill: none; stroke: #b0b0b0; stroke-width: 0.8; stroke-linecap: square"/>
     </g>
     <g id="line2d_18">
      <g>
       <use xlink:href="#m79d70c3618" x="57.6" y="195.327061" style="stroke: #000000; stroke-width: 0.8"/>
      </g>
     </g>
     <g id="text_10">
      <!-- 0.04 -->
      <g transform="translate(28.334375 199.126279) scale(0.1 -0.1)">
       <use xlink:href="#DejaVuSans-30"/>
       <use xlink:href="#DejaVuSans-2e" x="63.623047"/>
       <use xlink:href="#DejaVuSans-30" x="95.410156"/>
       <use xlink:href="#DejaVuSans-34" x="159.033203"/>
      </g>
     </g>
    </g>
    <g id="ytick_4">
     <g id="line2d_19">
      <path d="M 57.6 139.855038 
L 414.72 139.855038 
" clip-path="url(#p886a141e33)" style="fill: none; stroke: #b0b0b0; stroke-width: 0.8; stroke-linecap: square"/>
     </g>
     <g id="line2d_20">
      <g>
       <use xlink:href="#m79d70c3618" x="57.6" y="139.855038" style="stroke: #000000; stroke-width: 0.8"/>
      </g>
     </g>
     <g id="text_11">
      <!-- 0.06 -->
      <g transform="translate(28.334375 143.654256) scale(0.1 -0.1)">
       <use xlink:href="#DejaVuSans-30"/>
       <use xlink:href="#DejaVuSans-2e" x="63.623047"/>
       <use xlink:href="#DejaVuSans-30" x="95.410156"/>
       <use xlink:href="#DejaVuSans-36" x="159.033203"/>
      </g>
     </g>
    </g>
    <g id="ytick_5">
     <g id="line2d_21">
      <path d="M 57.6 84.383015 
L 414.72 84.383015 
" clip-path="url(#p886a141e33)" style="fill: none; stroke: #b0b0b0; stroke-width: 0.8; stroke-linecap: square"/>
     </g>
     <g id="line2d_22">
      <g>
       <use xlink:href="#m79d70c3618" x="57.6" y="84.383015" style="stroke: #000000; stroke-width: 0.8"/>
      </g>
     </g>
     <g id="text_12">
      <!-- 0.08 -->
      <g transform="translate(28.334375 88.182233) scale(0.1 -0.1)">
       <use xlink:href="#DejaVuSans-30"/>
       <use xlink:href="#DejaVuSans-2e" x="63.623047"/>
       <use xlink:href="#DejaVuSans-30" x="95.410156"/>
       <use xlink:href="#DejaVuSans-38" x="159.033203"/>
      </g>
     </g>
    </g>
    <g id="text_13">
     <!-- Loss -->
     <g transform="translate(22.254688 185.495187) rotate(-90) scale(0.1 -0.1)">
      <defs>
       <path id="DejaVuSans-4c" d="M 628 4666 
L 1259 4666 
L 1259 531 
L 3531 531 
L 3531 0 
L 628 0 
L 628 4666 
z
" transform="scale(0.015625)"/>
       <path id="DejaVuSans-6f" d="M 1959 3097 
Q 1497 3097 1228 2736 
Q 959 2375 959 1747 
Q 959 1119 1226 758 
Q 1494 397 1959 397 
Q 2419 397 2687 759 
Q 2956 1122 2956 1747 
Q 2956 2369 2687 2733 
Q 2419 3097 1959 3097 
z
M 1959 3584 
Q 2709 3584 3137 3096 
Q 3566 2609 3566 1747 
Q 3566 888 3137 398 
Q 2709 -91 1959 -91 
Q 1206 -91 779 398 
Q 353 888 353 1747 
Q 353 2609 779 3096 
Q 1206 3584 1959 3584 
z
" transform="scale(0.015625)"/>
       <path id="DejaVuSans-73" d="M 2834 3397 
L 2834 2853 
Q 2591 2978 2328 3040 
Q 2066 3103 1784 3103 
Q 1356 3103 1142 2972 
Q 928 2841 928 2578 
Q 928 2378 1081 2264 
Q 1234 2150 1697 2047 
L 1894 2003 
Q 2506 1872 2764 1633 
Q 3022 1394 3022 966 
Q 3022 478 2636 193 
Q 2250 -91 1575 -91 
Q 1294 -91 989 -36 
Q 684 19 347 128 
L 347 722 
Q 666 556 975 473 
Q 1284 391 1588 391 
Q 1994 391 2212 530 
Q 2431 669 2431 922 
Q 2431 1156 2273 1281 
Q 2116 1406 1581 1522 
L 1381 1569 
Q 847 1681 609 1914 
Q 372 2147 372 2553 
Q 372 3047 722 3315 
Q 1072 3584 1716 3584 
Q 2034 3584 2315 3537 
Q 2597 3491 2834 3397 
z
" transform="scale(0.015625)"/>
      </defs>
      <use xlink:href="#DejaVuSans-4c"/>
      <use xlink:href="#DejaVuSans-6f" x="53.962891"/>
      <use xlink:href="#DejaVuSans-73" x="115.144531"/>
      <use xlink:href="#DejaVuSans-73" x="167.244141"/>
     </g>
    </g>
   </g>
   <g id="line2d_23">
    <path d="M 73.832727 147.762398 
L 74.157707 135.568906 
L 74.482686 132.057488 
L 74.807666 112.62325 
L 75.132645 111.115536 
L 75.457625 70.758191 
L 76.107584 157.792952 
L 76.432563 120.34549 
L 76.757543 53.568 
L 77.407502 121.191677 
L 78.057461 88.59067 
L 78.382441 123.779424 
L 78.70742 109.88248 
L 79.0324 101.608507 
L 79.357379 134.449796 
L 79.682359 106.000261 
L 80.007338 107.690736 
L 80.332318 163.985521 
L 80.657297 109.146622 
L 80.982277 84.89863 
L 81.307256 108.187645 
L 81.632236 118.999148 
L 81.957215 87.520061 
L 82.282195 81.80668 
L 82.607174 94.783993 
L 82.932154 132.730029 
L 83.582113 145.659451 
L 83.907093 124.943624 
L 84.232072 167.711369 
L 85.207011 108.571847 
L 85.53199 130.192746 
L 85.85697 109.96299 
L 86.181949 144.41756 
L 86.506929 135.594344 
L 86.831908 114.08484 
L 87.156888 175.380706 
L 87.806847 131.011202 
L 88.131826 139.742903 
L 88.456806 166.610744 
L 88.781785 177.096692 
L 89.106765 138.52081 
L 89.431744 148.744209 
L 89.756724 176.040166 
L 90.081704 126.277959 
L 91.056642 199.289834 
L 91.381622 173.731179 
L 91.706601 197.692899 
L 92.031581 210.082046 
L 92.35656 229.509936 
L 92.68154 191.289868 
L 93.006519 225.690698 
L 93.331499 185.676971 
L 93.981458 221.818771 
L 94.306437 206.97871 
L 94.631417 223.812896 
L 94.956396 198.296356 
L 95.281376 198.201163 
L 95.606355 235.826267 
L 95.931335 231.141732 
L 96.256314 217.601522 
L 96.581294 216.996256 
L 97.231253 236.92558 
L 97.556233 233.623302 
L 97.881212 236.367193 
L 98.531171 205.366555 
L 98.856151 247.026674 
L 99.18113 255.168381 
L 99.50611 231.518041 
L 99.831089 249.035374 
L 100.156069 222.629973 
L 100.481048 231.518247 
L 100.806028 264.291484 
L 101.131007 229.00552 
L 101.780966 254.34756 
L 102.430925 225.173718 
L 102.755905 261.383734 
L 103.080885 245.907084 
L 103.405864 254.145017 
L 103.730844 253.541358 
L 104.055823 234.512804 
L 104.380803 249.478559 
L 104.705782 242.116928 
L 105.030762 246.438695 
L 105.355741 243.207432 
L 105.680721 257.746234 
L 106.0057 249.281374 
L 106.33068 228.903089 
L 106.655659 264.372382 
L 106.980639 247.214121 
L 107.305618 245.191871 
L 107.630598 233.574078 
L 107.955577 246.931254 
L 108.280557 249.915896 
L 108.605536 266.233756 
L 108.930516 264.290255 
L 109.905455 245.27127 
L 110.230434 230.901735 
L 110.555414 244.064433 
L 110.880393 240.39014 
L 111.205373 251.149733 
L 111.530352 216.789948 
L 111.855332 242.010565 
L 112.180311 221.687864 
L 112.505291 217.607525 
L 112.83027 228.98921 
L 113.15525 259.252383 
L 113.480229 200.385633 
L 114.130188 263.266255 
L 114.455168 242.16533 
L 115.105127 224.798097 
L 115.755086 258.664367 
L 116.080066 256.435028 
L 116.405045 209.801417 
L 116.730025 234.143986 
L 117.055004 235.856583 
L 117.379984 220.667026 
L 117.704963 227.271623 
L 118.029943 221.836315 
L 118.354922 266.707448 
L 118.679902 252.410154 
L 119.004881 254.072861 
L 119.329861 231.679093 
L 119.65484 266.6633 
L 120.304799 237.279632 
L 120.629779 212.110909 
L 120.954758 252.625834 
L 121.279738 262.831979 
L 121.604717 242.831604 
L 121.929697 256.775359 
L 122.254676 276.873371 
L 122.579656 267.978574 
L 122.904636 251.190536 
L 123.229615 261.343515 
L 123.554595 255.940062 
L 123.879574 229.221469 
L 124.204554 275.092505 
L 124.529533 253.6045 
L 124.854513 255.891582 
L 125.179492 245.970169 
L 125.504472 267.242241 
L 125.829451 254.78902 
L 126.154431 259.212324 
L 126.47941 273.135794 
L 126.80439 234.836117 
L 127.129369 271.606723 
L 127.454349 271.738423 
L 127.779328 274.373254 
L 128.104308 262.925343 
L 128.429287 260.192198 
L 128.754267 265.277517 
L 129.079247 262.046128 
L 129.404226 265.770319 
L 129.729206 258.519315 
L 130.054185 268.883363 
L 130.379165 273.781263 
L 130.704144 267.964853 
L 131.029124 229.26361 
L 131.354103 269.257331 
L 131.679083 262.24541 
L 132.004062 252.01021 
L 132.329042 246.333882 
L 132.654021 248.432794 
L 132.979001 255.376281 
L 133.30398 252.084754 
L 133.62896 267.448431 
L 133.953939 254.328434 
L 134.278919 251.382425 
L 134.603898 266.978588 
L 134.928878 266.800978 
L 135.253857 241.192544 
L 135.578837 251.896615 
L 135.903817 257.943047 
L 136.228796 280.812191 
L 136.553776 248.015223 
L 136.878755 255.97248 
L 137.203735 267.135827 
L 137.528714 248.247766 
L 138.178673 270.587665 
L 138.503653 262.594415 
L 138.828632 243.591304 
L 139.153612 244.805762 
L 139.478591 255.89806 
L 139.803571 258.758279 
L 140.12855 255.704967 
L 140.45353 254.25963 
L 140.778509 255.210305 
L 141.103489 253.270286 
L 141.428468 265.449155 
L 141.753448 260.326552 
L 142.078428 267.726212 
L 142.403407 248.99021 
L 142.728387 214.961286 
L 143.053366 264.868563 
L 143.378346 254.454862 
L 143.703325 261.643022 
L 144.028305 266.285669 
L 144.353284 278.364088 
L 144.678264 242.788957 
L 145.003243 261.521496 
L 145.328223 253.019987 
L 145.653202 262.800935 
L 145.978182 265.265413 
L 146.303161 260.65625 
L 146.628141 275.162087 
L 146.95312 275.15192 
L 147.2781 257.079728 
L 147.603079 276.740082 
L 147.928059 267.160465 
L 148.578018 261.977551 
L 148.902998 255.667584 
L 149.227977 261.812552 
L 149.552957 259.41017 
L 149.877936 255.224507 
L 150.202916 276.936492 
L 150.527895 260.552678 
L 150.852875 278.502649 
L 151.177854 270.804998 
L 151.502834 273.6919 
L 151.827813 263.39694 
L 152.152793 263.073581 
L 152.477772 274.412102 
L 152.802752 261.567538 
L 153.127731 278.660857 
L 153.77769 252.137052 
L 154.10267 270.105183 
L 154.427649 263.230019 
L 154.752629 265.310945 
L 155.077609 253.358009 
L 155.402588 266.818052 
L 155.727568 262.619084 
L 156.052547 254.370059 
L 156.377527 255.581964 
L 156.702506 271.155029 
L 157.027486 263.295935 
L 157.352465 273.665449 
L 157.677445 265.062948 
L 158.002424 268.905004 
L 158.327404 254.874774 
L 158.652383 264.384474 
L 158.977363 268.599582 
L 159.302342 266.588857 
L 159.952301 280.204053 
L 160.277281 270.320868 
L 160.60226 241.053474 
L 161.252219 278.443715 
L 161.577199 277.341225 
L 161.902179 270.656854 
L 162.227158 281.48585 
L 162.552138 273.624057 
L 162.877117 269.803624 
L 163.202097 270.909829 
L 163.527076 264.388793 
L 163.852056 271.897871 
L 164.177035 266.333557 
L 164.502015 270.183002 
L 164.826994 268.856026 
L 165.151974 274.996134 
L 165.476953 272.249922 
L 165.801933 286.111875 
L 166.126912 258.597087 
L 166.451892 259.097633 
L 166.776871 266.127355 
L 167.101851 252.024944 
L 167.42683 275.813624 
L 167.75181 267.642929 
L 168.07679 234.874182 
L 168.726749 268.80248 
L 169.051728 272.943083 
L 169.376708 269.052087 
L 169.701687 257.963614 
L 170.026667 260.286777 
L 170.351646 276.212982 
L 170.676626 261.661605 
L 171.001605 257.613886 
L 171.326585 262.835921 
L 171.651564 271.709895 
L 171.976544 262.617606 
L 172.301523 264.416939 
L 172.626503 273.002247 
L 172.951482 278.122492 
L 173.276462 253.112029 
L 173.601441 261.515132 
L 173.926421 245.758276 
L 174.2514 276.595172 
L 174.57638 253.696996 
L 174.90136 275.792752 
L 175.226339 282.601116 
L 175.551319 265.423463 
L 175.876298 277.788133 
L 176.201278 273.009991 
L 176.526257 266.294989 
L 176.851237 263.011348 
L 177.176216 274.064466 
L 177.501196 270.342721 
L 177.826175 280.119603 
L 178.151155 281.432452 
L 178.476134 269.276983 
L 178.801114 263.187196 
L 179.126093 274.754835 
L 179.451073 264.130716 
L 179.776052 279.502217 
L 180.101032 283.017417 
L 180.426011 276.91367 
L 180.750991 267.847856 
L 181.075971 273.916322 
L 181.40095 274.840527 
L 181.72593 259.483303 
L 182.700868 275.28402 
L 183.025848 282.371459 
L 183.350827 268.547994 
L 183.675807 274.205556 
L 184.000786 266.622422 
L 184.325766 263.161164 
L 184.975725 285.962254 
L 185.300704 284.141762 
L 185.625684 274.140658 
L 185.950663 275.335592 
L 186.275643 255.64167 
L 186.600622 275.02724 
L 187.250581 263.077799 
L 187.575561 262.726882 
L 187.900541 270.262133 
L 188.22552 272.677094 
L 188.5505 283.830719 
L 188.875479 270.564296 
L 189.200459 271.813434 
L 189.525438 278.620713 
L 189.850418 270.860476 
L 190.175397 283.27197 
L 190.500377 265.519963 
L 190.825356 275.436985 
L 191.150336 276.775016 
L 191.475315 272.832944 
L 191.800295 277.786289 
L 192.125274 271.091236 
L 192.450254 271.302352 
L 192.775233 277.741324 
L 193.100213 271.985865 
L 193.425192 263.928427 
L 193.750172 276.808641 
L 194.075152 276.315694 
L 194.400131 266.193924 
L 194.725111 273.818977 
L 195.05009 246.504177 
L 195.37507 266.769634 
L 195.700049 265.905827 
L 196.025029 270.313377 
L 196.350008 278.582752 
L 196.674988 276.718108 
L 196.999967 266.78519 
L 197.324947 285.129965 
L 197.649926 276.417593 
L 198.299885 248.911389 
L 198.624865 273.692613 
L 198.949844 277.279964 
L 199.274824 252.708448 
L 199.599803 276.282682 
L 199.924783 274.939502 
L 200.249762 268.819157 
L 200.574742 267.44593 
L 200.899722 252.620704 
L 201.224701 250.506474 
L 201.549681 256.02455 
L 201.87466 275.696097 
L 202.19964 264.240995 
L 202.524619 272.990853 
L 202.849599 275.817444 
L 203.174578 279.62274 
L 203.499558 265.322959 
L 203.824537 284.277921 
L 204.149517 271.953305 
L 204.474496 283.513799 
L 204.799476 278.003999 
L 205.124455 276.729375 
L 205.449435 263.40719 
L 205.774414 264.119562 
L 206.424373 270.799881 
L 206.749353 260.011644 
L 207.074333 259.811721 
L 207.724292 280.649287 
L 208.049271 266.440178 
L 208.374251 270.829062 
L 208.69923 277.973162 
L 209.674169 249.990915 
L 209.999148 271.278264 
L 210.324128 272.187669 
L 210.649107 249.648735 
L 210.974087 277.718523 
L 211.299066 277.059596 
L 211.624046 273.206685 
L 211.949025 279.565509 
L 212.274005 236.607164 
L 212.598984 278.685831 
L 212.923964 238.307351 
L 213.248943 253.141326 
L 213.573923 256.546056 
L 213.898903 261.595725 
L 214.223882 274.641754 
L 214.548862 253.335443 
L 215.198821 265.472961 
L 215.5238 261.289088 
L 215.84878 252.772628 
L 216.173759 255.810441 
L 216.498739 284.199027 
L 216.823718 260.440948 
L 217.148698 260.378596 
L 217.473677 255.535349 
L 217.798657 282.147735 
L 218.123636 261.459326 
L 218.448616 268.1736 
L 218.773595 253.876058 
L 219.423554 280.827834 
L 220.073514 255.555746 
L 220.723473 277.853 
L 221.048452 258.339675 
L 221.373432 261.212256 
L 221.698411 241.068208 
L 222.023391 272.908428 
L 222.34837 261.312992 
L 222.67335 268.947458 
L 222.998329 250.01158 
L 223.323309 264.012998 
L 223.648288 249.209775 
L 223.973268 272.518568 
L 224.298247 272.124891 
L 224.623227 272.442924 
L 224.948206 256.657073 
L 225.273186 279.763151 
L 225.598165 277.106417 
L 225.923145 269.01287 
L 226.248124 283.529824 
L 226.573104 251.516132 
L 226.898084 278.027944 
L 227.223063 274.915438 
L 227.548043 273.510155 
L 227.873022 241.954439 
L 228.198002 272.200204 
L 228.522981 273.347468 
L 228.847961 262.030887 
L 229.17294 274.830283 
L 229.49792 259.016451 
L 229.822899 270.802146 
L 230.147879 273.039935 
L 230.472858 276.797539 
L 230.797838 273.570339 
L 231.122817 277.776318 
L 231.447797 275.685589 
L 232.097756 277.988524 
L 232.422735 289.73544 
L 232.747715 268.037542 
L 233.072695 274.397058 
L 233.397674 286.4958 
L 233.722654 281.33403 
L 234.047633 271.530141 
L 234.372613 271.318966 
L 234.697592 273.177532 
L 235.022572 285.617085 
L 235.347551 270.041788 
L 235.672531 267.819671 
L 235.99751 278.346383 
L 236.32249 273.271005 
L 236.647469 263.132819 
L 236.972449 282.848894 
L 237.297428 258.665922 
L 237.622408 281.779088 
L 237.947387 269.576015 
L 238.272367 282.256988 
L 238.922326 280.90421 
L 239.247305 276.38097 
L 239.572285 278.841466 
L 239.897265 264.698883 
L 240.222244 283.595105 
L 240.547224 289.004951 
L 240.872203 271.406707 
L 241.197183 272.479269 
L 241.522162 259.318154 
L 241.847142 269.192206 
L 242.172121 271.385618 
L 242.497101 256.064367 
L 242.82208 276.360305 
L 243.14706 274.248296 
L 243.472039 285.752102 
L 243.797019 278.11964 
L 244.121998 289.195492 
L 244.446978 253.161924 
L 244.771957 280.769141 
L 245.096937 267.590931 
L 245.421916 267.594764 
L 245.746896 268.624793 
L 246.071876 284.315645 
L 246.396855 275.233874 
L 246.721835 278.072586 
L 247.046814 252.092705 
L 247.371794 263.074399 
L 247.696773 277.990334 
L 248.021753 276.77723 
L 248.346732 265.698271 
L 248.671712 265.023341 
L 248.996691 274.392041 
L 249.321671 276.495784 
L 249.64665 269.247407 
L 249.97163 279.320257 
L 250.296609 281.523396 
L 250.621589 285.403609 
L 250.946568 287.324807 
L 251.271548 279.027285 
L 251.596527 288.858476 
L 252.246486 277.604623 
L 252.896446 280.218552 
L 253.221425 275.824264 
L 253.546405 268.071595 
L 253.871384 270.866954 
L 254.196364 280.786042 
L 254.521343 276.033742 
L 254.846323 260.79081 
L 255.171302 253.222524 
L 255.496282 280.703455 
L 255.821261 279.502181 
L 256.146241 250.577784 
L 256.7962 278.736003 
L 257.121179 275.45175 
L 257.771138 266.696072 
L 258.096118 268.982999 
L 258.421097 287.001652 
L 258.746077 272.892774 
L 259.071057 269.712879 
L 259.396036 269.30609 
L 260.045995 280.031131 
L 260.370975 257.46266 
L 261.020934 289.255833 
L 261.345913 273.413846 
L 261.670893 273.135882 
L 261.995872 274.888346 
L 262.320852 275.659216 
L 262.645831 281.255829 
L 262.970811 267.580947 
L 263.29579 272.706338 
L 263.62077 272.451302 
L 263.945749 256.962377 
L 264.270729 270.092874 
L 264.595708 269.904472 
L 264.920688 268.348226 
L 265.245667 283.8003 
L 265.895627 261.889787 
L 266.220606 289.134947 
L 266.870565 266.385956 
L 267.195545 279.392487 
L 267.520524 282.241536 
L 267.845504 270.477025 
L 268.170483 285.668886 
L 268.495463 276.031926 
L 268.820442 273.325842 
L 269.145422 282.191496 
L 269.470401 266.231912 
L 269.795381 267.05885 
L 270.12036 275.246382 
L 270.44534 287.36576 
L 270.770319 266.217689 
L 271.095299 279.547941 
L 271.420278 287.220418 
L 271.745258 277.118889 
L 272.070238 272.334697 
L 272.395217 272.456326 
L 272.720197 281.609308 
L 273.045176 282.790753 
L 273.370156 273.569861 
L 273.695135 278.747937 
L 274.020115 276.828342 
L 274.345094 264.687357 
L 274.670074 272.661363 
L 274.995053 274.32059 
L 275.645012 270.396269 
L 275.969992 277.927079 
L 276.294971 278.218992 
L 276.619951 280.769598 
L 277.26991 270.914809 
L 277.919869 288.804222 
L 278.244848 280.769565 
L 278.569828 281.133905 
L 278.894808 280.462295 
L 279.219787 278.650099 
L 279.544767 281.594475 
L 279.869746 282.782441 
L 280.194726 267.019199 
L 280.519705 288.474781 
L 280.844685 282.782368 
L 281.169664 267.030878 
L 281.494644 283.684571 
L 281.819623 275.235228 
L 282.144603 274.960214 
L 282.469582 273.91845 
L 282.794562 275.174654 
L 283.444521 279.861162 
L 283.7695 263.199329 
L 284.09448 280.26822 
L 284.419459 283.656206 
L 285.069419 268.483406 
L 285.394398 284.864972 
L 285.719378 282.493891 
L 286.044357 270.430004 
L 286.369337 273.988042 
L 286.694316 269.065827 
L 287.019296 287.222624 
L 287.344275 280.840197 
L 287.669255 270.440373 
L 287.994234 283.059751 
L 288.319214 268.145885 
L 288.644193 272.532693 
L 288.969173 271.384818 
L 289.294152 277.091745 
L 289.619132 285.750278 
L 289.944111 279.36788 
L 290.269091 277.40872 
L 290.59407 267.602963 
L 290.91905 286.24272 
L 291.569009 265.922614 
L 291.893989 287.077505 
L 292.218968 272.96116 
L 292.543948 268.559466 
L 292.868927 285.842625 
L 293.193907 268.850415 
L 293.518886 277.179636 
L 293.843866 279.643372 
L 294.168845 271.346523 
L 294.493825 281.130434 
L 294.818804 276.016086 
L 295.143784 265.175166 
L 295.468763 274.264312 
L 295.793743 289.050064 
L 296.118722 268.244114 
L 296.443702 274.578641 
L 296.768681 285.179855 
L 297.093661 278.804864 
L 297.41864 282.896955 
L 298.0686 272.336717 
L 298.393579 281.89087 
L 298.718559 277.211439 
L 299.043538 282.226102 
L 299.368518 267.765421 
L 299.693497 295.488 
L 300.018477 287.572535 
L 300.343456 266.50784 
L 300.668436 278.870795 
L 300.993415 279.07808 
L 301.318395 281.635772 
L 301.643374 274.778215 
L 301.968354 275.16366 
L 302.293333 282.544538 
L 302.618313 286.628633 
L 302.943292 278.454169 
L 303.268272 262.663038 
L 303.593251 278.503998 
L 303.918231 266.741527 
L 304.24321 284.797941 
L 304.56819 273.726036 
L 304.89317 282.957586 
L 305.218149 277.246952 
L 305.543129 283.606889 
L 305.868108 281.674952 
L 306.193088 276.090118 
L 306.518067 274.984813 
L 306.843047 284.64703 
L 307.168026 272.611674 
L 307.493006 283.424916 
L 307.817985 274.562021 
L 308.142965 278.553795 
L 308.792924 275.848568 
L 309.117903 293.503053 
L 309.442883 288.429839 
L 309.767862 255.826084 
L 310.417821 285.940045 
L 310.742801 271.857259 
L 311.067781 274.931283 
L 311.39276 274.870652 
L 311.71774 281.358905 
L 312.042719 290.707855 
L 312.367699 276.166188 
L 312.692678 276.035036 
L 313.017658 283.166114 
L 313.342637 280.095513 
L 313.667617 274.404882 
L 313.992596 286.601666 
L 314.317576 266.70182 
L 314.642555 277.340365 
L 314.967535 282.608633 
L 315.292514 277.933692 
L 315.617494 281.162963 
L 315.942473 288.911583 
L 316.267453 285.074364 
L 316.592432 278.623937 
L 316.917412 282.21889 
L 317.242391 275.173595 
L 317.567371 259.451407 
L 317.892351 281.700814 
L 318.21733 280.769572 
L 318.54231 275.358768 
L 318.867289 277.854586 
L 319.192269 286.756563 
L 319.517248 287.706207 
L 319.842228 276.853349 
L 320.167207 281.019541 
L 320.492187 283.677894 
L 320.817166 282.295169 
L 321.142146 279.215021 
L 321.467125 283.515018 
L 321.792105 274.87232 
L 322.117084 278.2522 
L 322.767043 289.678833 
L 323.417002 292.82709 
L 323.741982 278.840454 
L 324.066962 281.760505 
L 324.391941 275.240456 
L 324.716921 281.33528 
L 325.0419 274.896274 
L 325.36688 282.019889 
L 325.691859 281.586132 
L 326.016839 285.356296 
L 326.341818 282.015242 
L 326.666798 286.751749 
L 326.991777 278.342114 
L 327.316757 285.950249 
L 327.641736 282.49308 
L 327.966716 262.955796 
L 328.291695 276.817852 
L 328.616675 273.822345 
L 328.941654 275.245677 
L 329.266634 282.077291 
L 329.591613 284.883172 
L 329.916593 261.509449 
L 330.241572 278.316406 
L 330.566552 256.596814 
L 330.891532 259.200462 
L 331.216511 266.951235 
L 331.541491 277.501593 
L 331.86647 268.309668 
L 332.19145 283.015332 
L 332.516429 285.890477 
L 332.841409 280.222499 
L 333.166388 262.22351 
L 333.816347 286.887509 
L 334.141327 269.447826 
L 334.466306 280.432946 
L 334.791286 284.90634 
L 335.116265 280.824588 
L 335.441245 266.985528 
L 335.766224 290.350214 
L 336.091204 279.41519 
L 336.416183 272.446174 
L 336.741163 273.562207 
L 337.066143 284.402125 
L 337.391122 278.489814 
L 337.716102 284.240931 
L 338.041081 275.129893 
L 338.366061 281.699732 
L 338.69104 277.527959 
L 339.01602 277.237759 
L 339.340999 269.834648 
L 339.665979 280.859677 
L 339.990958 281.688134 
L 340.315938 272.499484 
L 340.640917 275.601607 
L 340.965897 272.796447 
L 341.290876 273.75217 
L 341.615856 286.467069 
L 341.940835 281.875692 
L 342.265815 279.326191 
L 342.590794 282.766668 
L 342.915774 287.580181 
L 343.240753 287.983076 
L 343.565733 283.284433 
L 343.890713 264.708513 
L 344.215692 286.679521 
L 344.540672 268.425492 
L 344.865651 282.373729 
L 345.190631 280.854645 
L 345.51561 280.052892 
L 345.84059 283.231722 
L 346.165569 283.084795 
L 346.490549 274.619653 
L 346.815528 274.812428 
L 347.140508 292.29424 
L 347.465487 262.777563 
L 347.790467 281.862308 
L 348.115446 279.103433 
L 348.440426 283.401051 
L 348.765405 280.886469 
L 349.090385 280.243639 
L 349.415364 271.92783 
L 350.065324 279.51917 
L 350.390303 277.30222 
L 350.715283 273.767506 
L 351.040262 282.832246 
L 351.365242 284.723048 
L 351.690221 277.336821 
L 352.015201 276.419628 
L 352.34018 284.897748 
L 352.66516 280.607848 
L 353.315119 274.863249 
L 353.640098 276.205718 
L 353.965078 285.45508 
L 354.290057 283.494831 
L 354.940016 270.50057 
L 355.264996 286.925561 
L 355.589975 288.09781 
L 355.914955 285.824781 
L 356.564914 270.766016 
L 356.889894 272.548571 
L 357.214873 276.899729 
L 357.539853 268.964798 
L 357.864832 285.636555 
L 358.189812 279.652462 
L 358.514791 284.895365 
L 358.839771 257.954041 
L 359.16475 281.626762 
L 359.48973 260.264453 
L 359.814709 281.605983 
L 360.139689 292.628441 
L 360.464668 278.207983 
L 360.789648 284.970271 
L 361.114627 268.673314 
L 361.439607 289.5155 
L 361.764586 280.766408 
L 362.089566 284.931867 
L 362.414545 283.981059 
L 362.739525 278.150358 
L 363.064505 286.034055 
L 363.389484 288.099671 
L 363.714464 273.952168 
L 364.039443 285.851095 
L 364.364423 283.861295 
L 364.689402 288.105737 
L 365.014382 282.639284 
L 365.339361 279.341666 
L 365.664341 270.757988 
L 365.98932 283.651174 
L 366.3143 274.330974 
L 366.639279 289.437201 
L 366.964259 288.334752 
L 367.289238 283.942555 
L 367.614218 288.944583 
L 367.939197 273.644361 
L 368.264177 280.982855 
L 368.589156 282.764049 
L 368.914136 276.73101 
L 369.239115 277.287794 
L 369.564095 294.433539 
L 369.889075 269.476147 
L 370.214054 278.852589 
L 370.539034 282.999479 
L 370.864013 282.370707 
L 371.188993 270.883491 
L 371.513972 287.702591 
L 371.838952 288.385595 
L 372.163931 277.48876 
L 372.488911 279.417228 
L 372.81389 285.34391 
L 373.13887 266.57876 
L 373.463849 273.253917 
L 373.788829 288.129939 
L 374.113808 283.403593 
L 374.438788 262.362394 
L 375.088747 290.566583 
L 375.413726 272.904429 
L 375.738706 282.46839 
L 376.063686 284.131337 
L 376.388665 283.681278 
L 376.713645 278.539456 
L 377.038624 281.121656 
L 377.363604 277.645431 
L 377.688583 287.351388 
L 378.013563 282.685148 
L 378.338542 280.328681 
L 378.663522 288.052797 
L 378.988501 268.606241 
L 379.313481 282.724713 
L 379.63846 286.799822 
L 379.96344 283.310993 
L 380.288419 291.018461 
L 380.613399 282.58382 
L 380.938378 283.565477 
L 381.263358 281.323023 
L 381.588337 277.103524 
L 381.913317 270.71377 
L 382.238296 283.684538 
L 382.563276 282.456369 
L 382.888256 277.696407 
L 383.213235 287.50258 
L 383.538215 278.904453 
L 383.863194 287.34238 
L 384.188174 281.619798 
L 384.513153 284.236193 
L 384.838133 280.807642 
L 385.163112 275.80339 
L 385.813071 283.309107 
L 386.138051 278.068776 
L 386.46303 286.754651 
L 386.78801 278.557959 
L 387.112989 277.911627 
L 387.437969 284.754693 
L 387.762948 287.172112 
L 388.087928 284.215247 
L 388.412907 285.792236 
L 388.737887 281.503209 
L 389.387846 289.974548 
L 389.712826 291.250699 
L 390.037805 278.826213 
L 390.362785 260.735371 
L 390.687764 277.940046 
L 391.012744 273.955588 
L 391.337723 264.167743 
L 391.662703 287.61639 
L 391.987682 266.194756 
L 392.312662 272.893058 
L 392.637641 270.31488 
L 392.962621 287.971573 
L 393.2876 262.308293 
L 393.61258 284.898445 
L 393.937559 289.17417 
L 394.262539 280.801639 
L 394.587518 283.783753 
L 394.912498 279.708782 
L 395.237477 268.141827 
L 395.562457 271.790592 
L 395.887437 285.780994 
L 396.212416 279.405467 
L 396.537396 279.572716 
L 396.862375 277.960225 
L 397.187355 269.463681 
L 397.512334 269.076043 
L 397.837314 280.316617 
L 398.162293 282.959237 
L 398.487273 281.084868 
L 398.487273 281.084868 
" clip-path="url(#p886a141e33)" style="fill: none; stroke: #1f77b4; stroke-width: 1.5; stroke-linecap: square"/>
   </g>
   <g id="line2d_24">
    <path d="M 73.832727 91.302665 
L 77.082523 103.07067 
L 80.332318 101.689222 
L 83.582113 115.343807 
L 86.831908 123.410103 
L 90.081704 160.008424 
L 93.331499 181.46022 
L 96.581294 197.760134 
L 99.831089 212.406465 
L 103.080885 198.393342 
L 106.33068 225.104839 
L 109.580475 198.72917 
L 112.83027 182.65714 
L 116.080066 174.661594 
L 119.329861 220.76611 
L 122.579656 237.408672 
L 125.829451 233.671185 
L 129.079247 236.515875 
L 132.329042 234.678087 
L 135.578837 236.918608 
L 138.828632 230.789535 
L 142.078428 227.50901 
L 145.328223 242.691054 
L 148.578018 227.285833 
L 151.827813 236.805501 
L 155.077609 241.008837 
L 158.327404 237.385053 
L 161.577199 243.199596 
L 164.826994 246.689371 
L 168.07679 244.313 
L 171.326585 240.740746 
L 174.57638 254.768723 
L 177.826175 254.40239 
L 181.075971 253.278071 
L 184.325766 250.497783 
L 187.575561 244.338156 
L 190.825356 248.232194 
L 194.075152 247.786075 
L 197.324947 253.19315 
L 200.574742 249.367283 
L 203.824537 241.908135 
L 207.074333 251.308069 
L 210.324128 248.705066 
L 213.573923 259.882536 
L 216.823718 224.296483 
L 220.073514 234.537977 
L 223.323309 229.449831 
L 226.573104 240.977706 
L 229.822899 254.275953 
L 233.072695 261.75952 
L 236.32249 256.401914 
L 239.572285 261.190662 
L 242.82208 255.648174 
L 246.071876 244.902717 
L 249.321671 242.593121 
L 252.571466 258.956621 
L 255.821261 237.491891 
L 259.071057 236.485715 
L 262.320852 248.010579 
L 265.570647 245.152624 
L 268.820442 248.529409 
L 272.070238 247.863523 
L 275.320033 233.599739 
L 278.569828 258.104597 
L 281.819623 261.215739 
L 285.069419 261.314396 
L 288.319214 255.893001 
L 291.569009 258.766918 
L 294.818804 259.234335 
L 298.0686 270.988523 
L 301.318395 270.364379 
L 304.56819 252.439144 
L 307.817985 249.921189 
L 311.067781 256.953949 
L 314.317576 252.462366 
L 317.567371 267.624196 
L 320.817166 263.754555 
L 324.066962 259.600998 
L 327.316757 248.503333 
L 330.566552 252.045866 
L 333.816347 245.000387 
L 337.066143 264.88987 
L 340.315938 246.95371 
L 343.565733 241.489283 
L 346.815528 256.23152 
L 350.065324 239.532168 
L 353.315119 249.086746 
L 356.564914 253.50475 
L 359.814709 264.728284 
L 363.064505 252.850908 
L 366.3143 260.930962 
L 369.564095 249.219982 
L 372.81389 234.118396 
L 376.063686 260.32725 
L 379.313481 262.855002 
L 382.563276 265.256687 
L 385.813071 263.995185 
L 389.062867 265.867044 
L 392.312662 246.08228 
L 395.562457 253.460043 
" clip-path="url(#p886a141e33)" style="fill: none; stroke: #ff7f0e; stroke-width: 1.5; stroke-linecap: square"/>
   </g>
   <g id="patch_3">
    <path d="M 57.6 307.584 
L 57.6 41.472 
" style="fill: none; stroke: #000000; stroke-width: 0.8; stroke-linejoin: miter; stroke-linecap: square"/>
   </g>
   <g id="patch_4">
    <path d="M 414.72 307.584 
L 414.72 41.472 
" style="fill: none; stroke: #000000; stroke-width: 0.8; stroke-linejoin: miter; stroke-linecap: square"/>
   </g>
   <g id="patch_5">
    <path d="M 57.6 307.584 
L 414.72 307.584 
" style="fill: none; stroke: #000000; stroke-width: 0.8; stroke-linejoin: miter; stroke-linecap: square"/>
   </g>
   <g id="patch_6">
    <path d="M 57.6 41.472 
L 414.72 41.472 
" style="fill: none; stroke: #000000; stroke-width: 0.8; stroke-linejoin: miter; stroke-linecap: square"/>
   </g>
   <g id="text_14">
    <!-- Train Loss vs Validation Loss -->
    <g transform="translate(151.513125 35.472) scale(0.12 -0.12)">
     <defs>
      <path id="DejaVuSans-76" d="M 191 3500 
L 800 3500 
L 1894 563 
L 2988 3500 
L 3597 3500 
L 2284 0 
L 1503 0 
L 191 3500 
z
" transform="scale(0.015625)"/>
      <path id="DejaVuSans-56" d="M 1831 0 
L 50 4666 
L 709 4666 
L 2188 738 
L 3669 4666 
L 4325 4666 
L 2547 0 
L 1831 0 
z
" transform="scale(0.015625)"/>
      <path id="DejaVuSans-6c" d="M 603 4863 
L 1178 4863 
L 1178 0 
L 603 0 
L 603 4863 
z
" transform="scale(0.015625)"/>
      <path id="DejaVuSans-64" d="M 2906 2969 
L 2906 4863 
L 3481 4863 
L 3481 0 
L 2906 0 
L 2906 525 
Q 2725 213 2448 61 
Q 2172 -91 1784 -91 
Q 1150 -91 751 415 
Q 353 922 353 1747 
Q 353 2572 751 3078 
Q 1150 3584 1784 3584 
Q 2172 3584 2448 3432 
Q 2725 3281 2906 2969 
z
M 947 1747 
Q 947 1113 1208 752 
Q 1469 391 1925 391 
Q 2381 391 2643 752 
Q 2906 1113 2906 1747 
Q 2906 2381 2643 2742 
Q 2381 3103 1925 3103 
Q 1469 3103 1208 2742 
Q 947 2381 947 1747 
z
" transform="scale(0.015625)"/>
     </defs>
     <use xlink:href="#DejaVuSans-54"/>
     <use xlink:href="#DejaVuSans-72" x="46.333984"/>
     <use xlink:href="#DejaVuSans-61" x="87.447266"/>
     <use xlink:href="#DejaVuSans-69" x="148.726562"/>
     <use xlink:href="#DejaVuSans-6e" x="176.509766"/>
     <use xlink:href="#DejaVuSans-20" x="239.888672"/>
     <use xlink:href="#DejaVuSans-4c" x="271.675781"/>
     <use xlink:href="#DejaVuSans-6f" x="325.638672"/>
     <use xlink:href="#DejaVuSans-73" x="386.820312"/>
     <use xlink:href="#DejaVuSans-73" x="438.919922"/>
     <use xlink:href="#DejaVuSans-20" x="491.019531"/>
     <use xlink:href="#DejaVuSans-76" x="522.806641"/>
     <use xlink:href="#DejaVuSans-73" x="581.986328"/>
     <use xlink:href="#DejaVuSans-20" x="634.085938"/>
     <use xlink:href="#DejaVuSans-56" x="665.873047"/>
     <use xlink:href="#DejaVuSans-61" x="726.53125"/>
     <use xlink:href="#DejaVuSans-6c" x="787.810547"/>
     <use xlink:href="#DejaVuSans-69" x="815.59375"/>
     <use xlink:href="#DejaVuSans-64" x="843.376953"/>
     <use xlink:href="#DejaVuSans-61" x="906.853516"/>
     <use xlink:href="#DejaVuSans-74" x="968.132812"/>
     <use xlink:href="#DejaVuSans-69" x="1007.341797"/>
     <use xlink:href="#DejaVuSans-6f" x="1035.125"/>
     <use xlink:href="#DejaVuSans-6e" x="1096.306641"/>
     <use xlink:href="#DejaVuSans-20" x="1159.685547"/>
     <use xlink:href="#DejaVuSans-4c" x="1191.472656"/>
     <use xlink:href="#DejaVuSans-6f" x="1245.435547"/>
     <use xlink:href="#DejaVuSans-73" x="1306.617188"/>
     <use xlink:href="#DejaVuSans-73" x="1358.716797"/>
    </g>
   </g>
   <g id="legend_1">
    <g id="patch_7">
     <path d="M 301.22625 78.82825 
L 407.72 78.82825 
Q 409.72 78.82825 409.72 76.82825 
L 409.72 48.472 
Q 409.72 46.472 407.72 46.472 
L 301.22625 46.472 
Q 299.22625 46.472 299.22625 48.472 
L 299.22625 76.82825 
Q 299.22625 78.82825 301.22625 78.82825 
z
" style="fill: #ffffff; opacity: 0.8; stroke: #cccccc; stroke-linejoin: miter"/>
    </g>
    <g id="line2d_25">
     <path d="M 303.22625 54.570437 
L 313.22625 54.570437 
L 323.22625 54.570437 
" style="fill: none; stroke: #1f77b4; stroke-width: 1.5; stroke-linecap: square"/>
    </g>
    <g id="text_15">
     <!-- Train Loss -->
     <g transform="translate(331.22625 58.070437) scale(0.1 -0.1)">
      <use xlink:href="#DejaVuSans-54"/>
      <use xlink:href="#DejaVuSans-72" x="46.333984"/>
      <use xlink:href="#DejaVuSans-61" x="87.447266"/>
      <use xlink:href="#DejaVuSans-69" x="148.726562"/>
      <use xlink:href="#DejaVuSans-6e" x="176.509766"/>
      <use xlink:href="#DejaVuSans-20" x="239.888672"/>
      <use xlink:href="#DejaVuSans-4c" x="271.675781"/>
      <use xlink:href="#DejaVuSans-6f" x="325.638672"/>
      <use xlink:href="#DejaVuSans-73" x="386.820312"/>
      <use xlink:href="#DejaVuSans-73" x="438.919922"/>
     </g>
    </g>
    <g id="line2d_26">
     <path d="M 303.22625 69.248562 
L 313.22625 69.248562 
L 323.22625 69.248562 
" style="fill: none; stroke: #ff7f0e; stroke-width: 1.5; stroke-linecap: square"/>
    </g>
    <g id="text_16">
     <!-- Validation Loss -->
     <g transform="translate(331.22625 72.748562) scale(0.1 -0.1)">
      <use xlink:href="#DejaVuSans-56"/>
      <use xlink:href="#DejaVuSans-61" x="60.658203"/>
      <use xlink:href="#DejaVuSans-6c" x="121.9375"/>
      <use xlink:href="#DejaVuSans-69" x="149.720703"/>
      <use xlink:href="#DejaVuSans-64" x="177.503906"/>
      <use xlink:href="#DejaVuSans-61" x="240.980469"/>
      <use xlink:href="#DejaVuSans-74" x="302.259766"/>
      <use xlink:href="#DejaVuSans-69" x="341.46875"/>
      <use xlink:href="#DejaVuSans-6f" x="369.251953"/>
      <use xlink:href="#DejaVuSans-6e" x="430.433594"/>
      <use xlink:href="#DejaVuSans-20" x="493.8125"/>
      <use xlink:href="#DejaVuSans-4c" x="525.599609"/>
      <use xlink:href="#DejaVuSans-6f" x="579.5625"/>
      <use xlink:href="#DejaVuSans-73" x="640.744141"/>
      <use xlink:href="#DejaVuSans-73" x="692.84375"/>
     </g>
    </g>
   </g>
  </g>
 </g>
 <defs>
  <clipPath id="p886a141e33">
   <rect x="57.6" y="41.472" width="357.12" height="266.112"/>
  </clipPath>
 </defs>
</svg>
