<?xml version="1.0" encoding="utf-8" standalone="no"?>
<!DOCTYPE svg PUBLIC "-//W3C//DTD SVG 1.1//EN"
  "http://www.w3.org/Graphics/SVG/1.1/DTD/svg11.dtd">
<svg xmlns:xlink="http://www.w3.org/1999/xlink" width="460.8pt" height="345.6pt" viewBox="0 0 460.8 345.6" xmlns="http://www.w3.org/2000/svg" version="1.1">
 <metadata>
  <rdf:RDF xmlns:dc="http://purl.org/dc/elements/1.1/" xmlns:cc="http://creativecommons.org/ns#" xmlns:rdf="http://www.w3.org/1999/02/22-rdf-syntax-ns#">
   <cc:Work>
    <dc:type rdf:resource="http://purl.org/dc/dcmitype/StillImage"/>
    <dc:date>2023-11-15T12:09:33.551601</dc:date>
    <dc:format>image/svg+xml</dc:format>
    <dc:creator>
     <cc:Agent>
      <dc:title>Matplotlib v3.8.0, https://matplotlib.org/</dc:title>
     </cc:Agent>
    </dc:creator>
   </cc:Work>
  </rdf:RDF>
 </metadata>
 <defs>
  <style type="text/css">*{stroke-linejoin: round; stroke-linecap: butt}</style>
 </defs>
 <g id="figure_1">
  <g id="patch_1">
   <path d="M 0 345.6 
L 460.8 345.6 
L 460.8 0 
L 0 0 
z
" style="fill: #ffffff"/>
  </g>
  <g id="axes_1">
   <g id="patch_2">
    <path d="M 57.6 307.584 
L 414.72 307.584 
L 414.72 41.472 
L 57.6 41.472 
z
" style="fill: #ffffff"/>
   </g>
   <g id="matplotlib.axis_1">
    <g id="xtick_1">
     <g id="line2d_1">
      <path d="M 73.832727 307.584 
L 73.832727 41.472 
" clip-path="url(#pedd354e44c)" style="fill: none; stroke: #b0b0b0; stroke-width: 0.8; stroke-linecap: square"/>
     </g>
     <g id="line2d_2">
      <defs>
       <path id="m2f69133122" d="M 0 0 
L 0 3.5 
" style="stroke: #000000; stroke-width: 0.8"/>
      </defs>
      <g>
       <use xlink:href="#m2f69133122" x="73.832727" y="307.584" style="stroke: #000000; stroke-width: 0.8"/>
      </g>
     </g>
     <g id="text_1">
      <!-- 0 -->
      <g transform="translate(70.651477 322.182437) scale(0.1 -0.1)">
       <defs>
        <path id="DejaVuSans-30" d="M 2034 4250 
Q 1547 4250 1301 3770 
Q 1056 3291 1056 2328 
Q 1056 1369 1301 889 
Q 1547 409 2034 409 
Q 2525 409 2770 889 
Q 3016 1369 3016 2328 
Q 3016 3291 2770 3770 
Q 2525 4250 2034 4250 
z
M 2034 4750 
Q 2819 4750 3233 4129 
Q 3647 3509 3647 2328 
Q 3647 1150 3233 529 
Q 2819 -91 2034 -91 
Q 1250 -91 836 529 
Q 422 1150 422 2328 
Q 422 3509 836 4129 
Q 1250 4750 2034 4750 
z
" transform="scale(0.015625)"/>
       </defs>
       <use xlink:href="#DejaVuSans-30"/>
      </g>
     </g>
    </g>
    <g id="xtick_2">
     <g id="line2d_3">
      <path d="M 138.828632 307.584 
L 138.828632 41.472 
" clip-path="url(#pedd354e44c)" style="fill: none; stroke: #b0b0b0; stroke-width: 0.8; stroke-linecap: square"/>
     </g>
     <g id="line2d_4">
      <g>
       <use xlink:href="#m2f69133122" x="138.828632" y="307.584" style="stroke: #000000; stroke-width: 0.8"/>
      </g>
     </g>
     <g id="text_2">
      <!-- 200 -->
      <g transform="translate(129.284882 322.182437) scale(0.1 -0.1)">
       <defs>
        <path id="DejaVuSans-32" d="M 1228 531 
L 3431 531 
L 3431 0 
L 469 0 
L 469 531 
Q 828 903 1448 1529 
Q 2069 2156 2228 2338 
Q 2531 2678 2651 2914 
Q 2772 3150 2772 3378 
Q 2772 3750 2511 3984 
Q 2250 4219 1831 4219 
Q 1534 4219 1204 4116 
Q 875 4013 500 3803 
L 500 4441 
Q 881 4594 1212 4672 
Q 1544 4750 1819 4750 
Q 2544 4750 2975 4387 
Q 3406 4025 3406 3419 
Q 3406 3131 3298 2873 
Q 3191 2616 2906 2266 
Q 2828 2175 2409 1742 
Q 1991 1309 1228 531 
z
" transform="scale(0.015625)"/>
       </defs>
       <use xlink:href="#DejaVuSans-32"/>
       <use xlink:href="#DejaVuSans-30" x="63.623047"/>
       <use xlink:href="#DejaVuSans-30" x="127.246094"/>
      </g>
     </g>
    </g>
    <g id="xtick_3">
     <g id="line2d_5">
      <path d="M 203.824537 307.584 
L 203.824537 41.472 
" clip-path="url(#pedd354e44c)" style="fill: none; stroke: #b0b0b0; stroke-width: 0.8; stroke-linecap: square"/>
     </g>
     <g id="line2d_6">
      <g>
       <use xlink:href="#m2f69133122" x="203.824537" y="307.584" style="stroke: #000000; stroke-width: 0.8"/>
      </g>
     </g>
     <g id="text_3">
      <!-- 400 -->
      <g transform="translate(194.280787 322.182437) scale(0.1 -0.1)">
       <defs>
        <path id="DejaVuSans-34" d="M 2419 4116 
L 825 1625 
L 2419 1625 
L 2419 4116 
z
M 2253 4666 
L 3047 4666 
L 3047 1625 
L 3713 1625 
L 3713 1100 
L 3047 1100 
L 3047 0 
L 2419 0 
L 2419 1100 
L 313 1100 
L 313 1709 
L 2253 4666 
z
" transform="scale(0.015625)"/>
       </defs>
       <use xlink:href="#DejaVuSans-34"/>
       <use xlink:href="#DejaVuSans-30" x="63.623047"/>
       <use xlink:href="#DejaVuSans-30" x="127.246094"/>
      </g>
     </g>
    </g>
    <g id="xtick_4">
     <g id="line2d_7">
      <path d="M 268.820442 307.584 
L 268.820442 41.472 
" clip-path="url(#pedd354e44c)" style="fill: none; stroke: #b0b0b0; stroke-width: 0.8; stroke-linecap: square"/>
     </g>
     <g id="line2d_8">
      <g>
       <use xlink:href="#m2f69133122" x="268.820442" y="307.584" style="stroke: #000000; stroke-width: 0.8"/>
      </g>
     </g>
     <g id="text_4">
      <!-- 600 -->
      <g transform="translate(259.276692 322.182437) scale(0.1 -0.1)">
       <defs>
        <path id="DejaVuSans-36" d="M 2113 2584 
Q 1688 2584 1439 2293 
Q 1191 2003 1191 1497 
Q 1191 994 1439 701 
Q 1688 409 2113 409 
Q 2538 409 2786 701 
Q 3034 994 3034 1497 
Q 3034 2003 2786 2293 
Q 2538 2584 2113 2584 
z
M 3366 4563 
L 3366 3988 
Q 3128 4100 2886 4159 
Q 2644 4219 2406 4219 
Q 1781 4219 1451 3797 
Q 1122 3375 1075 2522 
Q 1259 2794 1537 2939 
Q 1816 3084 2150 3084 
Q 2853 3084 3261 2657 
Q 3669 2231 3669 1497 
Q 3669 778 3244 343 
Q 2819 -91 2113 -91 
Q 1303 -91 875 529 
Q 447 1150 447 2328 
Q 447 3434 972 4092 
Q 1497 4750 2381 4750 
Q 2619 4750 2861 4703 
Q 3103 4656 3366 4563 
z
" transform="scale(0.015625)"/>
       </defs>
       <use xlink:href="#DejaVuSans-36"/>
       <use xlink:href="#DejaVuSans-30" x="63.623047"/>
       <use xlink:href="#DejaVuSans-30" x="127.246094"/>
      </g>
     </g>
    </g>
    <g id="xtick_5">
     <g id="line2d_9">
      <path d="M 333.816347 307.584 
L 333.816347 41.472 
" clip-path="url(#pedd354e44c)" style="fill: none; stroke: #b0b0b0; stroke-width: 0.8; stroke-linecap: square"/>
     </g>
     <g id="line2d_10">
      <g>
       <use xlink:href="#m2f69133122" x="333.816347" y="307.584" style="stroke: #000000; stroke-width: 0.8"/>
      </g>
     </g>
     <g id="text_5">
      <!-- 800 -->
      <g transform="translate(324.272597 322.182437) scale(0.1 -0.1)">
       <defs>
        <path id="DejaVuSans-38" d="M 2034 2216 
Q 1584 2216 1326 1975 
Q 1069 1734 1069 1313 
Q 1069 891 1326 650 
Q 1584 409 2034 409 
Q 2484 409 2743 651 
Q 3003 894 3003 1313 
Q 3003 1734 2745 1975 
Q 2488 2216 2034 2216 
z
M 1403 2484 
Q 997 2584 770 2862 
Q 544 3141 544 3541 
Q 544 4100 942 4425 
Q 1341 4750 2034 4750 
Q 2731 4750 3128 4425 
Q 3525 4100 3525 3541 
Q 3525 3141 3298 2862 
Q 3072 2584 2669 2484 
Q 3125 2378 3379 2068 
Q 3634 1759 3634 1313 
Q 3634 634 3220 271 
Q 2806 -91 2034 -91 
Q 1263 -91 848 271 
Q 434 634 434 1313 
Q 434 1759 690 2068 
Q 947 2378 1403 2484 
z
M 1172 3481 
Q 1172 3119 1398 2916 
Q 1625 2713 2034 2713 
Q 2441 2713 2670 2916 
Q 2900 3119 2900 3481 
Q 2900 3844 2670 4047 
Q 2441 4250 2034 4250 
Q 1625 4250 1398 4047 
Q 1172 3844 1172 3481 
z
" transform="scale(0.015625)"/>
       </defs>
       <use xlink:href="#DejaVuSans-38"/>
       <use xlink:href="#DejaVuSans-30" x="63.623047"/>
       <use xlink:href="#DejaVuSans-30" x="127.246094"/>
      </g>
     </g>
    </g>
    <g id="xtick_6">
     <g id="line2d_11">
      <path d="M 398.812252 307.584 
L 398.812252 41.472 
" clip-path="url(#pedd354e44c)" style="fill: none; stroke: #b0b0b0; stroke-width: 0.8; stroke-linecap: square"/>
     </g>
     <g id="line2d_12">
      <g>
       <use xlink:href="#m2f69133122" x="398.812252" y="307.584" style="stroke: #000000; stroke-width: 0.8"/>
      </g>
     </g>
     <g id="text_6">
      <!-- 1000 -->
      <g transform="translate(386.087252 322.182437) scale(0.1 -0.1)">
       <defs>
        <path id="DejaVuSans-31" d="M 794 531 
L 1825 531 
L 1825 4091 
L 703 3866 
L 703 4441 
L 1819 4666 
L 2450 4666 
L 2450 531 
L 3481 531 
L 3481 0 
L 794 0 
L 794 531 
z
" transform="scale(0.015625)"/>
       </defs>
       <use xlink:href="#DejaVuSans-31"/>
       <use xlink:href="#DejaVuSans-30" x="63.623047"/>
       <use xlink:href="#DejaVuSans-30" x="127.246094"/>
       <use xlink:href="#DejaVuSans-30" x="190.869141"/>
      </g>
     </g>
    </g>
    <g id="text_7">
     <!-- Train Step -->
     <g transform="translate(211.192031 335.860562) scale(0.1 -0.1)">
      <defs>
       <path id="DejaVuSans-54" d="M -19 4666 
L 3928 4666 
L 3928 4134 
L 2272 4134 
L 2272 0 
L 1638 0 
L 1638 4134 
L -19 4134 
L -19 4666 
z
" transform="scale(0.015625)"/>
       <path id="DejaVuSans-72" d="M 2631 2963 
Q 2534 3019 2420 3045 
Q 2306 3072 2169 3072 
Q 1681 3072 1420 2755 
Q 1159 2438 1159 1844 
L 1159 0 
L 581 0 
L 581 3500 
L 1159 3500 
L 1159 2956 
Q 1341 3275 1631 3429 
Q 1922 3584 2338 3584 
Q 2397 3584 2469 3576 
Q 2541 3569 2628 3553 
L 2631 2963 
z
" transform="scale(0.015625)"/>
       <path id="DejaVuSans-61" d="M 2194 1759 
Q 1497 1759 1228 1600 
Q 959 1441 959 1056 
Q 959 750 1161 570 
Q 1363 391 1709 391 
Q 2188 391 2477 730 
Q 2766 1069 2766 1631 
L 2766 1759 
L 2194 1759 
z
M 3341 1997 
L 3341 0 
L 2766 0 
L 2766 531 
Q 2569 213 2275 61 
Q 1981 -91 1556 -91 
Q 1019 -91 701 211 
Q 384 513 384 1019 
Q 384 1609 779 1909 
Q 1175 2209 1959 2209 
L 2766 2209 
L 2766 2266 
Q 2766 2663 2505 2880 
Q 2244 3097 1772 3097 
Q 1472 3097 1187 3025 
Q 903 2953 641 2809 
L 641 3341 
Q 956 3463 1253 3523 
Q 1550 3584 1831 3584 
Q 2591 3584 2966 3190 
Q 3341 2797 3341 1997 
z
" transform="scale(0.015625)"/>
       <path id="DejaVuSans-69" d="M 603 3500 
L 1178 3500 
L 1178 0 
L 603 0 
L 603 3500 
z
M 603 4863 
L 1178 4863 
L 1178 4134 
L 603 4134 
L 603 4863 
z
" transform="scale(0.015625)"/>
       <path id="DejaVuSans-6e" d="M 3513 2113 
L 3513 0 
L 2938 0 
L 2938 2094 
Q 2938 2591 2744 2837 
Q 2550 3084 2163 3084 
Q 1697 3084 1428 2787 
Q 1159 2491 1159 1978 
L 1159 0 
L 581 0 
L 581 3500 
L 1159 3500 
L 1159 2956 
Q 1366 3272 1645 3428 
Q 1925 3584 2291 3584 
Q 2894 3584 3203 3211 
Q 3513 2838 3513 2113 
z
" transform="scale(0.015625)"/>
       <path id="DejaVuSans-20" transform="scale(0.015625)"/>
       <path id="DejaVuSans-53" d="M 3425 4513 
L 3425 3897 
Q 3066 4069 2747 4153 
Q 2428 4238 2131 4238 
Q 1616 4238 1336 4038 
Q 1056 3838 1056 3469 
Q 1056 3159 1242 3001 
Q 1428 2844 1947 2747 
L 2328 2669 
Q 3034 2534 3370 2195 
Q 3706 1856 3706 1288 
Q 3706 609 3251 259 
Q 2797 -91 1919 -91 
Q 1588 -91 1214 -16 
Q 841 59 441 206 
L 441 856 
Q 825 641 1194 531 
Q 1563 422 1919 422 
Q 2459 422 2753 634 
Q 3047 847 3047 1241 
Q 3047 1584 2836 1778 
Q 2625 1972 2144 2069 
L 1759 2144 
Q 1053 2284 737 2584 
Q 422 2884 422 3419 
Q 422 4038 858 4394 
Q 1294 4750 2059 4750 
Q 2388 4750 2728 4690 
Q 3069 4631 3425 4513 
z
" transform="scale(0.015625)"/>
       <path id="DejaVuSans-74" d="M 1172 4494 
L 1172 3500 
L 2356 3500 
L 2356 3053 
L 1172 3053 
L 1172 1153 
Q 1172 725 1289 603 
Q 1406 481 1766 481 
L 2356 481 
L 2356 0 
L 1766 0 
Q 1100 0 847 248 
Q 594 497 594 1153 
L 594 3053 
L 172 3053 
L 172 3500 
L 594 3500 
L 594 4494 
L 1172 4494 
z
" transform="scale(0.015625)"/>
       <path id="DejaVuSans-65" d="M 3597 1894 
L 3597 1613 
L 953 1613 
Q 991 1019 1311 708 
Q 1631 397 2203 397 
Q 2534 397 2845 478 
Q 3156 559 3463 722 
L 3463 178 
Q 3153 47 2828 -22 
Q 2503 -91 2169 -91 
Q 1331 -91 842 396 
Q 353 884 353 1716 
Q 353 2575 817 3079 
Q 1281 3584 2069 3584 
Q 2775 3584 3186 3129 
Q 3597 2675 3597 1894 
z
M 3022 2063 
Q 3016 2534 2758 2815 
Q 2500 3097 2075 3097 
Q 1594 3097 1305 2825 
Q 1016 2553 972 2059 
L 3022 2063 
z
" transform="scale(0.015625)"/>
       <path id="DejaVuSans-70" d="M 1159 525 
L 1159 -1331 
L 581 -1331 
L 581 3500 
L 1159 3500 
L 1159 2969 
Q 1341 3281 1617 3432 
Q 1894 3584 2278 3584 
Q 2916 3584 3314 3078 
Q 3713 2572 3713 1747 
Q 3713 922 3314 415 
Q 2916 -91 2278 -91 
Q 1894 -91 1617 61 
Q 1341 213 1159 525 
z
M 3116 1747 
Q 3116 2381 2855 2742 
Q 2594 3103 2138 3103 
Q 1681 3103 1420 2742 
Q 1159 2381 1159 1747 
Q 1159 1113 1420 752 
Q 1681 391 2138 391 
Q 2594 391 2855 752 
Q 3116 1113 3116 1747 
z
" transform="scale(0.015625)"/>
      </defs>
      <use xlink:href="#DejaVuSans-54"/>
      <use xlink:href="#DejaVuSans-72" x="46.333984"/>
      <use xlink:href="#DejaVuSans-61" x="87.447266"/>
      <use xlink:href="#DejaVuSans-69" x="148.726562"/>
      <use xlink:href="#DejaVuSans-6e" x="176.509766"/>
      <use xlink:href="#DejaVuSans-20" x="239.888672"/>
      <use xlink:href="#DejaVuSans-53" x="271.675781"/>
      <use xlink:href="#DejaVuSans-74" x="335.152344"/>
      <use xlink:href="#DejaVuSans-65" x="374.361328"/>
      <use xlink:href="#DejaVuSans-70" x="435.884766"/>
     </g>
    </g>
   </g>
   <g id="matplotlib.axis_2">
    <g id="ytick_1">
     <g id="line2d_13">
      <path d="M 57.6 307.42666 
L 414.72 307.42666 
" clip-path="url(#pedd354e44c)" style="fill: none; stroke: #b0b0b0; stroke-width: 0.8; stroke-linecap: square"/>
     </g>
     <g id="line2d_14">
      <defs>
       <path id="m0ada5b8f0b" d="M 0 0 
L -3.5 0 
" style="stroke: #000000; stroke-width: 0.8"/>
      </defs>
      <g>
       <use xlink:href="#m0ada5b8f0b" x="57.6" y="307.42666" style="stroke: #000000; stroke-width: 0.8"/>
      </g>
     </g>
     <g id="text_8">
      <!-- 0.00 -->
      <g transform="translate(28.334375 311.225878) scale(0.1 -0.1)">
       <defs>
        <path id="DejaVuSans-2e" d="M 684 794 
L 1344 794 
L 1344 0 
L 684 0 
L 684 794 
z
" transform="scale(0.015625)"/>
       </defs>
       <use xlink:href="#DejaVuSans-30"/>
       <use xlink:href="#DejaVuSans-2e" x="63.623047"/>
       <use xlink:href="#DejaVuSans-30" x="95.410156"/>
       <use xlink:href="#DejaVuSans-30" x="159.033203"/>
      </g>
     </g>
    </g>
    <g id="ytick_2">
     <g id="line2d_15">
      <path d="M 57.6 249.160847 
L 414.72 249.160847 
" clip-path="url(#pedd354e44c)" style="fill: none; stroke: #b0b0b0; stroke-width: 0.8; stroke-linecap: square"/>
     </g>
     <g id="line2d_16">
      <g>
       <use xlink:href="#m0ada5b8f0b" x="57.6" y="249.160847" style="stroke: #000000; stroke-width: 0.8"/>
      </g>
     </g>
     <g id="text_9">
      <!-- 0.02 -->
      <g transform="translate(28.334375 252.960065) scale(0.1 -0.1)">
       <use xlink:href="#DejaVuSans-30"/>
       <use xlink:href="#DejaVuSans-2e" x="63.623047"/>
       <use xlink:href="#DejaVuSans-30" x="95.410156"/>
       <use xlink:href="#DejaVuSans-32" x="159.033203"/>
      </g>
     </g>
    </g>
    <g id="ytick_3">
     <g id="line2d_17">
      <path d="M 57.6 190.895034 
L 414.72 190.895034 
" clip-path="url(#pedd354e44c)" style="fill: none; stroke: #b0b0b0; stroke-width: 0.8; stroke-linecap: square"/>
     </g>
     <g id="line2d_18">
      <g>
       <use xlink:href="#m0ada5b8f0b" x="57.6" y="190.895034" style="stroke: #000000; stroke-width: 0.8"/>
      </g>
     </g>
     <g id="text_10">
      <!-- 0.04 -->
      <g transform="translate(28.334375 194.694252) scale(0.1 -0.1)">
       <use xlink:href="#DejaVuSans-30"/>
       <use xlink:href="#DejaVuSans-2e" x="63.623047"/>
       <use xlink:href="#DejaVuSans-30" x="95.410156"/>
       <use xlink:href="#DejaVuSans-34" x="159.033203"/>
      </g>
     </g>
    </g>
    <g id="ytick_4">
     <g id="line2d_19">
      <path d="M 57.6 132.629221 
L 414.72 132.629221 
" clip-path="url(#pedd354e44c)" style="fill: none; stroke: #b0b0b0; stroke-width: 0.8; stroke-linecap: square"/>
     </g>
     <g id="line2d_20">
      <g>
       <use xlink:href="#m0ada5b8f0b" x="57.6" y="132.629221" style="stroke: #000000; stroke-width: 0.8"/>
      </g>
     </g>
     <g id="text_11">
      <!-- 0.06 -->
      <g transform="translate(28.334375 136.428439) scale(0.1 -0.1)">
       <use xlink:href="#DejaVuSans-30"/>
       <use xlink:href="#DejaVuSans-2e" x="63.623047"/>
       <use xlink:href="#DejaVuSans-30" x="95.410156"/>
       <use xlink:href="#DejaVuSans-36" x="159.033203"/>
      </g>
     </g>
    </g>
    <g id="ytick_5">
     <g id="line2d_21">
      <path d="M 57.6 74.363408 
L 414.72 74.363408 
" clip-path="url(#pedd354e44c)" style="fill: none; stroke: #b0b0b0; stroke-width: 0.8; stroke-linecap: square"/>
     </g>
     <g id="line2d_22">
      <g>
       <use xlink:href="#m0ada5b8f0b" x="57.6" y="74.363408" style="stroke: #000000; stroke-width: 0.8"/>
      </g>
     </g>
     <g id="text_12">
      <!-- 0.08 -->
      <g transform="translate(28.334375 78.162626) scale(0.1 -0.1)">
       <use xlink:href="#DejaVuSans-30"/>
       <use xlink:href="#DejaVuSans-2e" x="63.623047"/>
       <use xlink:href="#DejaVuSans-30" x="95.410156"/>
       <use xlink:href="#DejaVuSans-38" x="159.033203"/>
      </g>
     </g>
    </g>
    <g id="text_13">
     <!-- Loss -->
     <g transform="translate(22.254688 185.495187) rotate(-90) scale(0.1 -0.1)">
      <defs>
       <path id="DejaVuSans-4c" d="M 628 4666 
L 1259 4666 
L 1259 531 
L 3531 531 
L 3531 0 
L 628 0 
L 628 4666 
z
" transform="scale(0.015625)"/>
       <path id="DejaVuSans-6f" d="M 1959 3097 
Q 1497 3097 1228 2736 
Q 959 2375 959 1747 
Q 959 1119 1226 758 
Q 1494 397 1959 397 
Q 2419 397 2687 759 
Q 2956 1122 2956 1747 
Q 2956 2369 2687 2733 
Q 2419 3097 1959 3097 
z
M 1959 3584 
Q 2709 3584 3137 3096 
Q 3566 2609 3566 1747 
Q 3566 888 3137 398 
Q 2709 -91 1959 -91 
Q 1206 -91 779 398 
Q 353 888 353 1747 
Q 353 2609 779 3096 
Q 1206 3584 1959 3584 
z
" transform="scale(0.015625)"/>
       <path id="DejaVuSans-73" d="M 2834 3397 
L 2834 2853 
Q 2591 2978 2328 3040 
Q 2066 3103 1784 3103 
Q 1356 3103 1142 2972 
Q 928 2841 928 2578 
Q 928 2378 1081 2264 
Q 1234 2150 1697 2047 
L 1894 2003 
Q 2506 1872 2764 1633 
Q 3022 1394 3022 966 
Q 3022 478 2636 193 
Q 2250 -91 1575 -91 
Q 1294 -91 989 -36 
Q 684 19 347 128 
L 347 722 
Q 666 556 975 473 
Q 1284 391 1588 391 
Q 1994 391 2212 530 
Q 2431 669 2431 922 
Q 2431 1156 2273 1281 
Q 2116 1406 1581 1522 
L 1381 1569 
Q 847 1681 609 1914 
Q 372 2147 372 2553 
Q 372 3047 722 3315 
Q 1072 3584 1716 3584 
Q 2034 3584 2315 3537 
Q 2597 3491 2834 3397 
z
" transform="scale(0.015625)"/>
      </defs>
      <use xlink:href="#DejaVuSans-4c"/>
      <use xlink:href="#DejaVuSans-6f" x="53.962891"/>
      <use xlink:href="#DejaVuSans-73" x="115.144531"/>
      <use xlink:href="#DejaVuSans-73" x="167.244141"/>
     </g>
    </g>
   </g>
   <g id="line2d_23">
    <path d="M 73.832727 99.975365 
L 74.157707 97.955411 
L 74.482686 66.409465 
L 74.807666 112.38862 
L 75.132645 80.856653 
L 75.457625 89.434705 
L 75.782604 77.021168 
L 76.432563 118.195309 
L 76.757543 62.72859 
L 77.082523 53.568 
L 77.407502 72.073135 
L 77.732482 83.101588 
L 78.057461 146.712755 
L 78.70742 80.646868 
L 79.0324 76.406766 
L 79.357379 80.364129 
L 79.682359 94.467195 
L 80.007338 87.10234 
L 80.332318 94.169588 
L 80.657297 91.831363 
L 80.982277 103.420821 
L 81.307256 141.310878 
L 81.632236 109.311055 
L 81.957215 147.868063 
L 82.282195 145.029413 
L 82.607174 111.366434 
L 82.932154 113.741233 
L 83.582113 175.577514 
L 83.907093 173.955013 
L 84.557052 88.719242 
L 84.882031 179.648105 
L 85.207011 123.788783 
L 85.53199 117.778951 
L 85.85697 101.685406 
L 86.181949 137.490717 
L 86.506929 138.204097 
L 86.831908 140.217355 
L 87.156888 133.105383 
L 87.481867 163.240685 
L 87.806847 177.283366 
L 88.131826 142.406473 
L 88.456806 150.450163 
L 88.781785 178.818643 
L 89.106765 179.534161 
L 89.431744 177.113595 
L 89.756724 199.642642 
L 90.081704 198.53933 
L 90.406683 157.77674 
L 90.731663 201.071865 
L 91.056642 193.060929 
L 91.381622 197.610706 
L 91.706601 161.391272 
L 92.031581 202.975803 
L 92.35656 221.901481 
L 93.006519 198.140466 
L 93.331499 201.885005 
L 93.656478 200.779197 
L 93.981458 236.253533 
L 94.306437 213.461472 
L 94.631417 171.703838 
L 94.956396 193.59769 
L 95.281376 223.383275 
L 95.606355 201.811455 
L 95.931335 234.136879 
L 96.256314 227.122886 
L 96.581294 240.846862 
L 96.906274 220.075754 
L 97.231253 218.164703 
L 97.556233 210.452171 
L 97.881212 213.021725 
L 98.206192 199.82497 
L 98.531171 207.771864 
L 98.856151 248.896652 
L 99.18113 213.058104 
L 99.50611 213.892743 
L 99.831089 241.60361 
L 100.156069 218.76193 
L 100.481048 225.294756 
L 100.806028 251.487933 
L 101.131007 253.379716 
L 101.455987 242.57773 
L 101.780966 253.154899 
L 102.105946 221.896565 
L 102.430925 216.062901 
L 102.755905 235.954798 
L 103.080885 220.220597 
L 103.405864 236.689796 
L 104.055823 213.126054 
L 104.380803 265.510235 
L 104.705782 232.88318 
L 105.030762 249.359678 
L 105.355741 232.852292 
L 105.680721 235.998882 
L 106.0057 220.720267 
L 106.33068 231.868036 
L 106.655659 237.71793 
L 106.980639 217.423225 
L 107.305618 248.682552 
L 107.955577 213.415716 
L 108.280557 241.916465 
L 108.605536 242.153155 
L 108.930516 186.527783 
L 109.255495 223.488239 
L 109.580475 234.7206 
L 109.905455 253.215984 
L 110.230434 221.763872 
L 110.555414 247.030064 
L 110.880393 226.254349 
L 111.205373 256.584693 
L 111.855332 239.494548 
L 112.180311 248.397225 
L 112.505291 247.62658 
L 112.83027 249.198491 
L 113.480229 256.807562 
L 113.805209 244.308792 
L 114.130188 262.261208 
L 114.455168 251.275315 
L 114.780147 232.11686 
L 115.105127 251.618878 
L 115.430106 243.195371 
L 115.755086 249.101347 
L 116.080066 210.776834 
L 116.405045 240.885623 
L 116.730025 220.080068 
L 117.055004 253.131723 
L 117.379984 247.709398 
L 117.704963 197.907868 
L 118.029943 245.970093 
L 118.354922 244.064972 
L 118.679902 243.99534 
L 119.004881 227.937344 
L 119.329861 253.766202 
L 119.65484 257.051317 
L 119.97982 251.12408 
L 120.304799 256.371923 
L 120.629779 233.311097 
L 120.954758 230.684457 
L 121.279738 259.155648 
L 121.604717 261.91564 
L 121.929697 261.58647 
L 122.254676 248.128096 
L 122.579656 262.716594 
L 122.904636 261.132354 
L 123.229615 260.802861 
L 123.554595 256.831232 
L 123.879574 260.351486 
L 124.204554 242.084695 
L 124.529533 269.745545 
L 124.854513 263.0461 
L 125.179492 261.513397 
L 125.504472 247.299643 
L 125.829451 261.128984 
L 126.154431 253.283928 
L 126.47941 259.491798 
L 126.80439 250.581942 
L 127.129369 268.107089 
L 127.454349 273.767826 
L 127.779328 262.309186 
L 128.104308 271.543317 
L 128.429287 263.014583 
L 128.754267 249.759936 
L 129.079247 256.963132 
L 129.404226 241.321664 
L 129.729206 261.587078 
L 130.054185 264.185872 
L 130.379165 256.667805 
L 130.704144 244.812061 
L 131.354103 269.407421 
L 131.679083 241.287114 
L 132.004062 246.56064 
L 132.329042 249.314069 
L 132.654021 265.91388 
L 132.979001 265.18173 
L 133.30398 235.931996 
L 133.62896 265.582238 
L 133.953939 269.205783 
L 134.278919 244.783127 
L 134.603898 249.640441 
L 134.928878 277.810395 
L 135.253857 235.507627 
L 135.578837 280.131443 
L 135.903817 264.129513 
L 136.228796 255.402612 
L 136.878755 250.187175 
L 137.203735 244.198223 
L 137.528714 273.164777 
L 137.853694 267.227322 
L 138.178673 253.358911 
L 138.503653 266.80533 
L 139.153612 249.607215 
L 139.803571 261.845869 
L 140.12855 233.457133 
L 140.45353 260.001481 
L 140.778509 263.651046 
L 141.103489 274.200375 
L 141.428468 244.65827 
L 141.753448 264.956365 
L 142.078428 269.626247 
L 142.728387 261.636295 
L 143.053366 229.183507 
L 143.378346 261.324764 
L 143.703325 271.095384 
L 144.028305 261.600958 
L 144.353284 257.737353 
L 144.678264 251.651562 
L 145.003243 262.69711 
L 145.328223 257.844069 
L 145.653202 268.801105 
L 145.978182 249.297822 
L 146.303161 266.338918 
L 146.628141 264.233402 
L 146.95312 275.598179 
L 147.2781 253.501382 
L 147.603079 270.804599 
L 147.928059 251.666126 
L 148.253038 260.399884 
L 148.578018 240.874081 
L 148.902998 263.392583 
L 149.552957 249.417751 
L 149.877936 275.669287 
L 150.527895 266.987666 
L 150.852875 273.525371 
L 151.177854 275.190258 
L 151.502834 257.440392 
L 151.827813 255.010053 
L 152.152793 273.263215 
L 152.477772 272.651491 
L 152.802752 245.993481 
L 153.127731 267.608919 
L 153.452711 255.426851 
L 153.77769 229.199461 
L 154.10267 254.646434 
L 154.427649 263.54773 
L 154.752629 239.938945 
L 155.077609 268.660813 
L 155.402588 247.35419 
L 155.727568 261.394201 
L 156.052547 255.734649 
L 156.377527 253.831444 
L 156.702506 266.487179 
L 157.027486 270.141584 
L 157.352465 248.783245 
L 157.677445 251.949765 
L 158.002424 258.372365 
L 158.327404 255.145567 
L 158.652383 207.601723 
L 158.977363 263.345085 
L 159.302342 251.392037 
L 159.627322 232.594743 
L 159.952301 281.070437 
L 160.277281 250.888345 
L 160.60226 259.271252 
L 160.92724 262.215629 
L 161.252219 284.988457 
L 161.577199 234.715304 
L 161.902179 261.663303 
L 162.227158 256.771373 
L 162.552138 269.57719 
L 162.877117 265.859048 
L 163.202097 251.704079 
L 163.527076 270.680895 
L 163.852056 269.457374 
L 164.177035 260.825837 
L 164.502015 277.111197 
L 164.826994 262.053232 
L 165.151974 262.18848 
L 165.476953 263.581401 
L 165.801933 262.652608 
L 166.126912 257.28492 
L 166.451892 271.123982 
L 166.776871 261.137379 
L 167.101851 262.047092 
L 167.42683 267.505502 
L 167.75181 270.628495 
L 168.401769 255.180106 
L 168.726749 273.47777 
L 169.051728 262.780145 
L 169.376708 272.111385 
L 169.701687 262.408766 
L 170.026667 276.497034 
L 170.351646 259.271936 
L 170.676626 264.304933 
L 171.326585 268.009327 
L 171.651564 239.221615 
L 171.976544 259.761335 
L 172.301523 260.6644 
L 172.626503 269.208434 
L 172.951482 270.234615 
L 173.276462 250.61506 
L 173.601441 278.20825 
L 173.926421 274.643166 
L 174.2514 272.536703 
L 174.57638 258.781387 
L 174.90136 273.570163 
L 175.226339 256.265077 
L 175.551319 268.316528 
L 175.876298 275.290764 
L 176.201278 263.064544 
L 176.526257 258.362716 
L 176.851237 256.536366 
L 177.176216 281.356695 
L 177.501196 265.447324 
L 177.826175 257.584968 
L 178.476134 270.611667 
L 178.801114 268.140717 
L 179.126093 249.026528 
L 179.451073 260.639716 
L 179.776052 258.35894 
L 180.101032 250.155838 
L 180.426011 267.107191 
L 180.750991 243.238506 
L 181.075971 258.405325 
L 181.40095 239.349418 
L 181.72593 248.663624 
L 182.375889 260.220302 
L 182.700868 248.654958 
L 183.025848 254.999716 
L 183.350827 273.372688 
L 183.675807 268.549319 
L 184.000786 282.999676 
L 184.325766 264.236859 
L 184.650745 279.109197 
L 184.975725 249.669033 
L 185.300704 268.771479 
L 185.625684 274.993493 
L 185.950663 269.472063 
L 186.275643 257.652799 
L 186.600622 272.447286 
L 186.925602 259.675933 
L 187.900541 273.658335 
L 188.22552 237.90187 
L 188.5505 261.797183 
L 188.875479 251.193582 
L 189.200459 250.565603 
L 189.525438 267.391875 
L 189.850418 271.105071 
L 190.175397 213.814287 
L 190.500377 254.985602 
L 190.825356 250.873412 
L 191.150336 240.585504 
L 191.475315 250.339462 
L 192.125274 260.851699 
L 192.450254 259.934172 
L 192.775233 275.606243 
L 193.100213 264.942753 
L 193.425192 273.681796 
L 193.750172 274.353791 
L 194.400131 265.378275 
L 194.725111 275.32736 
L 195.05009 277.796197 
L 195.37507 274.680766 
L 195.700049 257.889934 
L 196.025029 275.906845 
L 196.350008 269.822825 
L 196.674988 261.638721 
L 196.999967 278.223845 
L 197.649926 251.763319 
L 197.974906 260.644252 
L 198.299885 278.036918 
L 198.624865 275.149978 
L 198.949844 268.197209 
L 199.274824 267.940311 
L 199.599803 271.711013 
L 199.924783 281.623838 
L 200.249762 271.50515 
L 200.574742 265.627267 
L 200.899722 257.626377 
L 201.224701 265.489701 
L 201.549681 278.43792 
L 201.87466 276.095191 
L 202.524619 262.001521 
L 202.849599 274.495608 
L 203.174578 280.415744 
L 203.499558 278.412259 
L 203.824537 277.629806 
L 204.149517 261.983047 
L 204.474496 276.441245 
L 204.799476 284.749187 
L 205.124455 275.380615 
L 205.449435 276.418096 
L 205.774414 267.706798 
L 206.099394 278.120776 
L 206.424373 268.50353 
L 206.749353 277.790423 
L 207.074333 277.677683 
L 207.399312 247.723409 
L 207.724292 277.996657 
L 208.049271 274.472025 
L 208.374251 268.653655 
L 209.02421 274.041804 
L 209.349189 269.7599 
L 209.674169 279.266734 
L 209.999148 279.188634 
L 210.324128 266.223001 
L 210.649107 277.57523 
L 210.974087 277.429549 
L 211.299066 278.008847 
L 211.624046 266.141602 
L 211.949025 273.580107 
L 212.274005 262.336882 
L 212.598984 267.45142 
L 212.923964 283.542508 
L 213.248943 255.857655 
L 213.573923 259.6491 
L 213.898903 273.551331 
L 214.223882 256.539155 
L 214.548862 273.117806 
L 214.873841 277.899801 
L 215.198821 270.978336 
L 215.5238 269.5625 
L 215.84878 265.305458 
L 216.173759 282.366648 
L 216.498739 283.22688 
L 216.823718 276.178636 
L 217.148698 280.856742 
L 217.473677 259.527293 
L 217.798657 284.724954 
L 218.123636 279.068417 
L 218.448616 266.885967 
L 218.773595 282.482787 
L 219.098575 279.669833 
L 219.423554 266.169443 
L 220.073514 286.682585 
L 220.398493 272.87789 
L 220.723473 270.21639 
L 221.048452 283.004047 
L 221.698411 263.378924 
L 222.023391 270.155739 
L 222.34837 274.102998 
L 222.67335 267.660706 
L 222.998329 263.590843 
L 223.323309 283.235487 
L 223.648288 270.034792 
L 223.973268 280.051799 
L 224.298247 284.028323 
L 224.623227 253.343516 
L 224.948206 271.16703 
L 225.273186 282.765688 
L 225.598165 274.392595 
L 225.923145 270.897835 
L 226.248124 284.42118 
L 226.573104 263.261212 
L 226.898084 255.398417 
L 227.223063 277.081137 
L 227.548043 280.024027 
L 227.873022 270.492099 
L 228.198002 267.11885 
L 228.522981 274.51361 
L 228.847961 273.175225 
L 229.17294 264.289085 
L 229.49792 282.640786 
L 230.147879 265.184533 
L 230.472858 260.059826 
L 230.797838 276.65089 
L 231.122817 275.428256 
L 231.447797 275.184764 
L 231.772776 262.394969 
L 232.097756 255.193911 
L 232.747715 276.071722 
L 233.072695 280.253207 
L 233.397674 276.36422 
L 233.722654 281.154989 
L 234.047633 277.712033 
L 234.372613 278.645115 
L 234.697592 279.103518 
L 235.022572 257.279287 
L 235.347551 258.541729 
L 235.672531 282.778812 
L 235.99751 281.813559 
L 236.32249 270.219272 
L 236.647469 266.729458 
L 236.972449 260.11669 
L 237.297428 262.056379 
L 237.622408 278.698248 
L 237.947387 279.629531 
L 238.272367 276.897844 
L 238.597346 270.889424 
L 238.922326 280.231892 
L 239.247305 277.480156 
L 239.572285 280.401579 
L 239.897265 268.23359 
L 240.222244 277.814508 
L 240.547224 274.964991 
L 240.872203 264.244163 
L 241.197183 276.486021 
L 241.522162 283.544633 
L 241.847142 269.902998 
L 242.172121 246.78931 
L 242.497101 287.148136 
L 242.82208 273.971711 
L 243.14706 268.475603 
L 243.472039 273.363601 
L 243.797019 275.735261 
L 244.121998 265.154538 
L 244.446978 281.173371 
L 244.771957 286.966421 
L 245.096937 264.636811 
L 245.421916 282.227449 
L 245.746896 274.770804 
L 246.071876 252.750402 
L 246.721835 286.747014 
L 247.046814 274.95601 
L 247.371794 251.776163 
L 247.696773 284.925353 
L 248.021753 254.581832 
L 248.346732 257.488894 
L 248.671712 285.10363 
L 248.996691 266.194464 
L 249.321671 253.83928 
L 249.64665 278.850323 
L 249.97163 268.425192 
L 250.946568 279.069185 
L 251.271548 274.286964 
L 251.596527 274.936318 
L 251.921507 282.275734 
L 252.246486 269.650463 
L 252.571466 289.662101 
L 253.221425 279.868289 
L 253.546405 272.436325 
L 254.196364 280.514592 
L 254.521343 281.099214 
L 254.846323 274.657557 
L 255.171302 272.164575 
L 255.496282 279.650342 
L 255.821261 256.065384 
L 256.146241 253.441631 
L 256.47122 271.106775 
L 256.7962 279.424977 
L 257.121179 279.648535 
L 257.446159 292.138303 
L 257.771138 260.991874 
L 258.096118 275.718049 
L 258.421097 278.562924 
L 258.746077 278.791354 
L 259.071057 280.98842 
L 259.396036 279.357738 
L 260.045995 283.727924 
L 260.370975 284.859721 
L 260.695954 266.933513 
L 261.020934 289.964267 
L 261.345913 286.813527 
L 261.995872 290.761538 
L 262.320852 284.042912 
L 262.645831 279.642609 
L 262.970811 282.05586 
L 263.29579 281.919532 
L 263.62077 281.566071 
L 263.945749 289.868847 
L 264.270729 275.91728 
L 264.595708 274.323558 
L 264.920688 275.024497 
L 265.245667 275.28219 
L 265.895627 285.985579 
L 266.545586 274.830557 
L 266.870565 278.657381 
L 267.195545 284.386787 
L 267.520524 275.477932 
L 267.845504 286.56518 
L 268.170483 288.608892 
L 268.495463 274.511939 
L 268.820442 280.531026 
L 269.145422 290.063056 
L 269.470401 263.635421 
L 269.795381 268.206165 
L 270.12036 283.552414 
L 270.44534 269.47829 
L 270.770319 273.859416 
L 271.095299 273.2029 
L 271.420278 273.934529 
L 271.745258 274.265883 
L 272.070238 281.9691 
L 272.395217 265.971256 
L 272.720197 278.120941 
L 273.045176 275.249569 
L 273.370156 260.992455 
L 274.020115 284.245971 
L 274.345094 278.626692 
L 274.670074 275.730196 
L 274.995053 277.087836 
L 275.320033 263.240103 
L 275.645012 273.038175 
L 275.969992 278.713149 
L 276.294971 295.488 
L 276.619951 279.969508 
L 276.94493 270.72025 
L 277.26991 273.849356 
L 277.594889 265.131101 
L 277.919869 278.862316 
L 278.244848 270.424182 
L 278.569828 286.079401 
L 278.894808 278.741353 
L 279.219787 275.350379 
L 279.544767 278.168173 
L 279.869746 284.975542 
L 280.194726 270.961357 
L 280.519705 283.618611 
L 280.844685 277.767114 
L 281.169664 276.434348 
L 281.494644 281.313965 
L 281.819623 295.476942 
L 282.144603 275.430266 
L 282.469582 262.848941 
L 282.794562 279.00896 
L 283.119541 254.543326 
L 283.444521 273.197653 
L 283.7695 278.819686 
L 284.09448 267.060266 
L 284.419459 276.193919 
L 284.744439 271.048712 
L 285.069419 277.455148 
L 285.394398 264.011054 
L 285.719378 275.735858 
L 286.044357 254.804457 
L 286.369337 280.190439 
L 286.694316 273.833364 
L 287.019296 263.822868 
L 287.344275 279.317162 
L 287.669255 259.910469 
L 287.994234 279.189529 
L 288.319214 263.338701 
L 288.644193 260.172272 
L 288.969173 265.782243 
L 289.294152 266.365909 
L 289.619132 242.533412 
L 289.944111 287.169472 
L 290.269091 254.894937 
L 290.59407 265.515726 
L 290.91905 281.289193 
L 291.244029 282.0089 
L 291.569009 251.594172 
L 291.893989 286.405171 
L 292.218968 289.367974 
L 293.193907 270.093069 
L 293.518886 280.514155 
L 293.843866 262.807288 
L 294.168845 282.329982 
L 294.493825 284.694635 
L 294.818804 272.854496 
L 295.143784 285.152327 
L 295.793743 254.346607 
L 296.118722 279.098867 
L 296.443702 288.231724 
L 296.768681 280.171316 
L 297.093661 277.298829 
L 297.41864 271.412109 
L 297.74362 284.607182 
L 298.0686 270.283244 
L 298.393579 270.869887 
L 298.718559 271.747939 
L 299.368518 286.195391 
L 299.693497 255.410181 
L 300.018477 290.077957 
L 300.343456 282.926796 
L 300.668436 270.959968 
L 301.318395 286.561966 
L 301.643374 266.148497 
L 301.968354 288.439331 
L 302.293333 270.427709 
L 302.618313 283.388908 
L 303.268272 265.558465 
L 303.593251 276.267084 
L 303.918231 275.67938 
L 304.24321 286.348976 
L 304.56819 278.656643 
L 304.89317 287.4347 
L 305.543129 281.075533 
L 305.868108 275.687834 
L 306.193088 286.876745 
L 306.518067 276.175247 
L 306.843047 283.039061 
L 307.168026 280.859577 
L 307.493006 286.291646 
L 307.817985 275.646132 
L 308.142965 279.402663 
L 308.467944 294.254328 
L 308.792924 274.686054 
L 309.117903 274.973142 
L 309.442883 290.373336 
L 309.767862 286.319423 
L 310.092842 277.179866 
L 310.417821 285.434037 
L 311.067781 272.652924 
L 311.39276 272.926554 
L 312.042719 287.175454 
L 312.367699 293.720162 
L 312.692678 283.050356 
L 313.017658 261.172222 
L 313.667617 292.950382 
L 313.992596 273.793265 
L 314.317576 274.099254 
L 314.642555 278.547944 
L 314.967535 278.83654 
L 315.292514 279.60343 
L 315.617494 283.667487 
L 315.942473 271.592144 
L 316.267453 285.430997 
L 316.592432 283.729538 
L 316.917412 271.324542 
L 317.242391 277.723596 
L 317.567371 288.9291 
L 317.892351 276.544363 
L 318.21733 269.94998 
L 318.54231 275.004848 
L 318.867289 277.762287 
L 319.192269 277.434257 
L 319.517248 268.417513 
L 319.842228 273.795759 
L 320.167207 283.964248 
L 320.492187 270.969212 
L 320.817166 283.641448 
L 321.142146 274.672585 
L 321.467125 271.040233 
L 321.792105 283.690403 
L 322.117084 284.867696 
L 322.442064 268.108462 
L 322.767043 264.677343 
L 323.092023 280.147657 
L 323.417002 263.453901 
L 323.741982 284.151172 
L 324.066962 260.507322 
L 324.391941 259.662096 
L 324.716921 262.210232 
L 325.0419 244.596453 
L 325.691859 281.596947 
L 326.016839 263.736925 
L 326.341818 277.249764 
L 326.991777 273.326235 
L 327.641736 280.696329 
L 327.966716 282.687567 
L 328.291695 289.755109 
L 328.616675 266.179476 
L 328.941654 286.302633 
L 329.266634 285.761907 
L 329.591613 276.556155 
L 329.916593 275.520942 
L 330.241572 284.848086 
L 330.566552 269.532568 
L 331.216511 286.958036 
L 331.541491 280.819682 
L 331.86647 278.87191 
L 332.19145 278.275513 
L 332.516429 278.162551 
L 332.841409 282.614798 
L 333.166388 252.503038 
L 333.491368 270.957423 
L 333.816347 280.876912 
L 334.141327 286.308336 
L 334.466306 289.816515 
L 334.791286 287.042992 
L 335.116265 280.447058 
L 335.441245 280.892923 
L 335.766224 284.759183 
L 336.091204 283.062009 
L 336.416183 277.06832 
L 336.741163 284.995102 
L 337.066143 278.350566 
L 337.391122 277.076555 
L 337.716102 281.732372 
L 338.041081 280.010561 
L 338.366061 284.214593 
L 338.69104 258.001631 
L 339.340999 283.474526 
L 339.665979 273.353367 
L 339.990958 276.36737 
L 340.315938 278.127092 
L 340.640917 277.667981 
L 340.965897 283.734173 
L 341.290876 285.412768 
L 341.615856 284.786385 
L 341.940835 273.035907 
L 342.265815 283.745715 
L 342.590794 277.681772 
L 342.915774 277.799846 
L 343.565733 284.224749 
L 343.890713 281.945365 
L 344.215692 286.751138 
L 344.540672 285.221075 
L 344.865651 288.456744 
L 345.190631 274.67242 
L 345.51561 282.091354 
L 346.165569 284.53024 
L 346.490549 265.541274 
L 346.815528 272.999854 
L 347.140508 284.564788 
L 347.465487 264.755142 
L 347.790467 286.044187 
L 348.115446 284.79209 
L 348.440426 276.666387 
L 348.765405 289.838592 
L 349.090385 276.542478 
L 349.415364 272.113539 
L 349.740344 287.617881 
L 350.065324 285.8507 
L 350.390303 279.813723 
L 350.715283 282.152006 
L 351.040262 281.34862 
L 351.365242 286.830707 
L 351.690221 285.246316 
L 352.015201 287.726094 
L 352.34018 268.682844 
L 352.990139 290.721556 
L 353.315119 287.231701 
L 353.640098 266.308139 
L 354.290057 287.251226 
L 354.615037 263.332116 
L 354.940016 280.314656 
L 355.264996 273.833717 
L 355.589975 269.799928 
L 355.914955 284.492016 
L 356.239934 270.104977 
L 356.564914 292.121875 
L 356.889894 265.744803 
L 357.214873 271.137863 
L 357.539853 273.056408 
L 357.864832 268.461725 
L 358.189812 280.159926 
L 358.839771 277.883413 
L 359.16475 286.466473 
L 359.48973 277.194764 
L 359.814709 271.502014 
L 360.139689 277.003477 
L 360.464668 272.31426 
L 360.789648 238.890266 
L 361.439607 284.438713 
L 361.764586 272.853463 
L 362.089566 235.996521 
L 362.414545 274.763405 
L 362.739525 280.043779 
L 363.389484 254.022932 
L 363.714464 285.147738 
L 364.039443 244.248597 
L 364.364423 273.429296 
L 364.689402 279.372432 
L 365.014382 277.161204 
L 365.339361 272.246254 
L 365.98932 294.477951 
L 366.964259 269.101173 
L 367.289238 273.230656 
L 367.614218 284.062851 
L 367.939197 284.804575 
L 368.264177 276.710827 
L 368.589156 281.196694 
L 368.914136 280.240015 
L 369.239115 282.219649 
L 369.564095 269.942594 
L 369.889075 284.543923 
L 370.214054 275.454444 
L 370.539034 258.944777 
L 370.864013 290.55345 
L 371.513972 282.210771 
L 371.838952 269.682658 
L 372.163931 279.647943 
L 372.488911 280.168069 
L 372.81389 267.198955 
L 373.463849 286.185402 
L 373.788829 278.168601 
L 374.113808 286.960332 
L 374.438788 286.613471 
L 374.763767 279.682045 
L 375.088747 284.321434 
L 375.413726 272.206567 
L 375.738706 283.409569 
L 376.063686 279.106879 
L 376.388665 263.42493 
L 376.713645 265.881777 
L 377.038624 281.88403 
L 377.363604 274.866328 
L 377.688583 279.126208 
L 378.013563 272.817749 
L 378.338542 259.876852 
L 378.663522 284.515898 
L 378.988501 260.147083 
L 379.313481 262.498362 
L 379.63846 241.214269 
L 379.96344 255.767121 
L 380.288419 279.233272 
L 380.613399 277.530717 
L 380.938378 200.280486 
L 381.263358 287.435027 
L 381.588337 284.06042 
L 381.913317 277.087391 
L 382.238296 209.994593 
L 382.563276 274.95617 
L 382.888256 249.125104 
L 383.213235 254.696031 
L 383.538215 268.538715 
L 383.863194 273.926411 
L 384.188174 275.269937 
L 384.513153 262.19032 
L 384.838133 275.635787 
L 385.163112 278.514246 
L 385.488092 274.83206 
L 385.813071 268.852865 
L 386.138051 279.581988 
L 386.46303 273.355182 
L 386.78801 281.814932 
L 387.112989 272.735441 
L 387.437969 253.11343 
L 387.762948 280.132056 
L 388.087928 289.653007 
L 388.412907 286.068777 
L 388.737887 284.94962 
L 389.062867 273.379099 
L 389.387846 284.401862 
L 389.712826 281.000822 
L 390.037805 289.810174 
L 390.362785 281.089289 
L 390.687764 279.853705 
L 391.012744 284.307852 
L 391.337723 275.420176 
L 391.662703 278.659815 
L 391.987682 279.258467 
L 392.312662 280.501363 
L 392.637641 290.744783 
L 392.962621 276.540755 
L 393.2876 267.249687 
L 393.61258 282.206758 
L 393.937559 274.612154 
L 394.262539 278.013107 
L 394.587518 289.069765 
L 394.912498 283.310491 
L 395.237477 272.062018 
L 395.562457 269.314046 
L 395.887437 279.333465 
L 396.212416 271.658197 
L 396.537396 279.52275 
L 396.862375 280.000574 
L 397.187355 276.408605 
L 397.512334 290.597537 
L 397.837314 282.414311 
L 398.162293 284.366712 
L 398.487273 287.245978 
L 398.487273 287.245978 
" clip-path="url(#pedd354e44c)" style="fill: none; stroke: #1f77b4; stroke-width: 1.5; stroke-linecap: square"/>
   </g>
   <g id="line2d_24">
    <path d="M 73.832727 95.486426 
L 77.082523 94.123584 
L 80.332318 95.818109 
L 83.582113 121.834253 
L 86.831908 141.674923 
L 90.081704 158.557952 
L 93.331499 177.644256 
L 96.581294 188.982399 
L 99.831089 190.019355 
L 103.080885 202.259885 
L 106.33068 191.907905 
L 109.580475 199.158518 
L 112.83027 225.896619 
L 116.080066 213.885026 
L 119.329861 224.816307 
L 122.579656 232.968161 
L 125.829451 237.184806 
L 129.079247 232.419633 
L 132.329042 230.998381 
L 135.578837 231.341165 
L 138.828632 242.832558 
L 142.078428 243.581418 
L 145.328223 247.898728 
L 148.578018 246.789926 
L 151.827813 250.747199 
L 155.077609 236.217385 
L 158.327404 197.40995 
L 161.577199 243.805025 
L 164.826994 249.626227 
L 168.07679 252.090266 
L 171.326585 249.871266 
L 174.57638 245.991033 
L 177.826175 252.084048 
L 181.075971 243.832852 
L 184.325766 255.214763 
L 187.575561 249.78012 
L 190.825356 214.202359 
L 194.075152 239.317129 
L 197.324947 256.023994 
L 200.574742 258.619959 
L 203.824537 251.79284 
L 207.074333 261.717656 
L 210.324128 262.759103 
L 213.573923 257.815264 
L 216.823718 260.498624 
L 220.073514 247.724158 
L 223.323309 254.954172 
L 226.573104 252.083528 
L 229.822899 266.546492 
L 233.072695 255.797294 
L 236.32249 263.137106 
L 239.572285 263.570854 
L 242.82208 257.683484 
L 246.071876 263.346146 
L 249.321671 270.776833 
L 252.571466 264.214472 
L 255.821261 238.848528 
L 259.071057 257.892413 
L 262.320852 252.481922 
L 265.570647 258.488136 
L 268.820442 263.870315 
L 272.070238 265.647374 
L 275.320033 268.637239 
L 278.569828 271.302369 
L 281.819623 262.604163 
L 285.069419 262.177721 
L 288.319214 240.48616 
L 291.569009 247.227047 
L 294.818804 265.968106 
L 298.0686 268.138464 
L 301.318395 260.96648 
L 304.56819 265.354115 
L 307.817985 269.490376 
L 311.067781 268.113608 
L 314.317576 255.634145 
L 317.567371 267.957641 
L 320.817166 263.215817 
L 324.066962 226.101822 
L 327.316757 268.639644 
L 330.566552 259.149538 
L 333.816347 272.259216 
L 337.066143 267.366094 
L 340.315938 249.812504 
L 343.565733 258.992112 
L 346.815528 260.366852 
L 350.065324 272.549615 
L 353.315119 265.334083 
L 356.564914 254.638376 
L 359.814709 263.009406 
L 363.064505 220.222171 
L 366.3143 259.304201 
L 369.564095 267.86737 
L 372.81389 272.812168 
L 376.063686 271.377029 
L 379.313481 229.792992 
L 382.563276 247.251847 
L 385.813071 267.79429 
L 389.062867 269.213422 
L 392.312662 273.987468 
L 395.562457 264.410826 
" clip-path="url(#pedd354e44c)" style="fill: none; stroke: #ff7f0e; stroke-width: 1.5; stroke-linecap: square"/>
   </g>
   <g id="patch_3">
    <path d="M 57.6 307.584 
L 57.6 41.472 
" style="fill: none; stroke: #000000; stroke-width: 0.8; stroke-linejoin: miter; stroke-linecap: square"/>
   </g>
   <g id="patch_4">
    <path d="M 414.72 307.584 
L 414.72 41.472 
" style="fill: none; stroke: #000000; stroke-width: 0.8; stroke-linejoin: miter; stroke-linecap: square"/>
   </g>
   <g id="patch_5">
    <path d="M 57.6 307.584 
L 414.72 307.584 
" style="fill: none; stroke: #000000; stroke-width: 0.8; stroke-linejoin: miter; stroke-linecap: square"/>
   </g>
   <g id="patch_6">
    <path d="M 57.6 41.472 
L 414.72 41.472 
" style="fill: none; stroke: #000000; stroke-width: 0.8; stroke-linejoin: miter; stroke-linecap: square"/>
   </g>
   <g id="text_14">
    <!-- Train Loss vs Validation Loss -->
    <g transform="translate(151.513125 35.472) scale(0.12 -0.12)">
     <defs>
      <path id="DejaVuSans-76" d="M 191 3500 
L 800 3500 
L 1894 563 
L 2988 3500 
L 3597 3500 
L 2284 0 
L 1503 0 
L 191 3500 
z
" transform="scale(0.015625)"/>
      <path id="DejaVuSans-56" d="M 1831 0 
L 50 4666 
L 709 4666 
L 2188 738 
L 3669 4666 
L 4325 4666 
L 2547 0 
L 1831 0 
z
" transform="scale(0.015625)"/>
      <path id="DejaVuSans-6c" d="M 603 4863 
L 1178 4863 
L 1178 0 
L 603 0 
L 603 4863 
z
" transform="scale(0.015625)"/>
      <path id="DejaVuSans-64" d="M 2906 2969 
L 2906 4863 
L 3481 4863 
L 3481 0 
L 2906 0 
L 2906 525 
Q 2725 213 2448 61 
Q 2172 -91 1784 -91 
Q 1150 -91 751 415 
Q 353 922 353 1747 
Q 353 2572 751 3078 
Q 1150 3584 1784 3584 
Q 2172 3584 2448 3432 
Q 2725 3281 2906 2969 
z
M 947 1747 
Q 947 1113 1208 752 
Q 1469 391 1925 391 
Q 2381 391 2643 752 
Q 2906 1113 2906 1747 
Q 2906 2381 2643 2742 
Q 2381 3103 1925 3103 
Q 1469 3103 1208 2742 
Q 947 2381 947 1747 
z
" transform="scale(0.015625)"/>
     </defs>
     <use xlink:href="#DejaVuSans-54"/>
     <use xlink:href="#DejaVuSans-72" x="46.333984"/>
     <use xlink:href="#DejaVuSans-61" x="87.447266"/>
     <use xlink:href="#DejaVuSans-69" x="148.726562"/>
     <use xlink:href="#DejaVuSans-6e" x="176.509766"/>
     <use xlink:href="#DejaVuSans-20" x="239.888672"/>
     <use xlink:href="#DejaVuSans-4c" x="271.675781"/>
     <use xlink:href="#DejaVuSans-6f" x="325.638672"/>
     <use xlink:href="#DejaVuSans-73" x="386.820312"/>
     <use xlink:href="#DejaVuSans-73" x="438.919922"/>
     <use xlink:href="#DejaVuSans-20" x="491.019531"/>
     <use xlink:href="#DejaVuSans-76" x="522.806641"/>
     <use xlink:href="#DejaVuSans-73" x="581.986328"/>
     <use xlink:href="#DejaVuSans-20" x="634.085938"/>
     <use xlink:href="#DejaVuSans-56" x="665.873047"/>
     <use xlink:href="#DejaVuSans-61" x="726.53125"/>
     <use xlink:href="#DejaVuSans-6c" x="787.810547"/>
     <use xlink:href="#DejaVuSans-69" x="815.59375"/>
     <use xlink:href="#DejaVuSans-64" x="843.376953"/>
     <use xlink:href="#DejaVuSans-61" x="906.853516"/>
     <use xlink:href="#DejaVuSans-74" x="968.132812"/>
     <use xlink:href="#DejaVuSans-69" x="1007.341797"/>
     <use xlink:href="#DejaVuSans-6f" x="1035.125"/>
     <use xlink:href="#DejaVuSans-6e" x="1096.306641"/>
     <use xlink:href="#DejaVuSans-20" x="1159.685547"/>
     <use xlink:href="#DejaVuSans-4c" x="1191.472656"/>
     <use xlink:href="#DejaVuSans-6f" x="1245.435547"/>
     <use xlink:href="#DejaVuSans-73" x="1306.617188"/>
     <use xlink:href="#DejaVuSans-73" x="1358.716797"/>
    </g>
   </g>
   <g id="legend_1">
    <g id="patch_7">
     <path d="M 301.22625 78.82825 
L 407.72 78.82825 
Q 409.72 78.82825 409.72 76.82825 
L 409.72 48.472 
Q 409.72 46.472 407.72 46.472 
L 301.22625 46.472 
Q 299.22625 46.472 299.22625 48.472 
L 299.22625 76.82825 
Q 299.22625 78.82825 301.22625 78.82825 
z
" style="fill: #ffffff; opacity: 0.8; stroke: #cccccc; stroke-linejoin: miter"/>
    </g>
    <g id="line2d_25">
     <path d="M 303.22625 54.570437 
L 313.22625 54.570437 
L 323.22625 54.570437 
" style="fill: none; stroke: #1f77b4; stroke-width: 1.5; stroke-linecap: square"/>
    </g>
    <g id="text_15">
     <!-- Train Loss -->
     <g transform="translate(331.22625 58.070437) scale(0.1 -0.1)">
      <use xlink:href="#DejaVuSans-54"/>
      <use xlink:href="#DejaVuSans-72" x="46.333984"/>
      <use xlink:href="#DejaVuSans-61" x="87.447266"/>
      <use xlink:href="#DejaVuSans-69" x="148.726562"/>
      <use xlink:href="#DejaVuSans-6e" x="176.509766"/>
      <use xlink:href="#DejaVuSans-20" x="239.888672"/>
      <use xlink:href="#DejaVuSans-4c" x="271.675781"/>
      <use xlink:href="#DejaVuSans-6f" x="325.638672"/>
      <use xlink:href="#DejaVuSans-73" x="386.820312"/>
      <use xlink:href="#DejaVuSans-73" x="438.919922"/>
     </g>
    </g>
    <g id="line2d_26">
     <path d="M 303.22625 69.248562 
L 313.22625 69.248562 
L 323.22625 69.248562 
" style="fill: none; stroke: #ff7f0e; stroke-width: 1.5; stroke-linecap: square"/>
    </g>
    <g id="text_16">
     <!-- Validation Loss -->
     <g transform="translate(331.22625 72.748562) scale(0.1 -0.1)">
      <use xlink:href="#DejaVuSans-56"/>
      <use xlink:href="#DejaVuSans-61" x="60.658203"/>
      <use xlink:href="#DejaVuSans-6c" x="121.9375"/>
      <use xlink:href="#DejaVuSans-69" x="149.720703"/>
      <use xlink:href="#DejaVuSans-64" x="177.503906"/>
      <use xlink:href="#DejaVuSans-61" x="240.980469"/>
      <use xlink:href="#DejaVuSans-74" x="302.259766"/>
      <use xlink:href="#DejaVuSans-69" x="341.46875"/>
      <use xlink:href="#DejaVuSans-6f" x="369.251953"/>
      <use xlink:href="#DejaVuSans-6e" x="430.433594"/>
      <use xlink:href="#DejaVuSans-20" x="493.8125"/>
      <use xlink:href="#DejaVuSans-4c" x="525.599609"/>
      <use xlink:href="#DejaVuSans-6f" x="579.5625"/>
      <use xlink:href="#DejaVuSans-73" x="640.744141"/>
      <use xlink:href="#DejaVuSans-73" x="692.84375"/>
     </g>
    </g>
   </g>
  </g>
 </g>
 <defs>
  <clipPath id="pedd354e44c">
   <rect x="57.6" y="41.472" width="357.12" height="266.112"/>
  </clipPath>
 </defs>
</svg>
