<?xml version="1.0" encoding="utf-8" standalone="no"?>
<!DOCTYPE svg PUBLIC "-//W3C//DTD SVG 1.1//EN"
  "http://www.w3.org/Graphics/SVG/1.1/DTD/svg11.dtd">
<svg xmlns:xlink="http://www.w3.org/1999/xlink" width="1440pt" height="576pt" viewBox="0 0 1440 576" xmlns="http://www.w3.org/2000/svg" version="1.1">
 <metadata>
  <rdf:RDF xmlns:dc="http://purl.org/dc/elements/1.1/" xmlns:cc="http://creativecommons.org/ns#" xmlns:rdf="http://www.w3.org/1999/02/22-rdf-syntax-ns#">
   <cc:Work>
    <dc:type rdf:resource="http://purl.org/dc/dcmitype/StillImage"/>
    <dc:date>2023-11-16T11:47:59.988215</dc:date>
    <dc:format>image/svg+xml</dc:format>
    <dc:creator>
     <cc:Agent>
      <dc:title>Matplotlib v3.8.0, https://matplotlib.org/</dc:title>
     </cc:Agent>
    </dc:creator>
   </cc:Work>
  </rdf:RDF>
 </metadata>
 <defs>
  <style type="text/css">*{stroke-linejoin: round; stroke-linecap: butt}</style>
 </defs>
 <g id="figure_1">
  <g id="patch_1">
   <path d="M 0 576 
L 1440 576 
L 1440 0 
L 0 0 
z
" style="fill: #ffffff"/>
  </g>
  <g id="axes_1">
   <g id="patch_2">
    <path d="M 180 512.64 
L 1296 512.64 
L 1296 69.12 
L 180 69.12 
z
" style="fill: #ffffff"/>
   </g>
   <g id="patch_3">
    <path d="M 230.727273 512.64 
L 242.496942 512.64 
L 242.496942 509.949889 
L 230.727273 509.949889 
z
" clip-path="url(#p49d303030d)" style="fill: #934b43"/>
   </g>
   <g id="patch_4">
    <path d="M 348.423961 512.64 
L 360.19363 512.64 
L 360.19363 377.344137 
L 348.423961 377.344137 
z
" clip-path="url(#p49d303030d)" style="fill: #934b43"/>
   </g>
   <g id="patch_5">
    <path d="M 466.12065 512.64 
L 477.890318 512.64 
L 477.890318 258.971476 
L 466.12065 258.971476 
z
" clip-path="url(#p49d303030d)" style="fill: #934b43"/>
   </g>
   <g id="patch_6">
    <path d="M 583.817338 512.64 
L 595.587007 512.64 
L 595.587007 165.933426 
L 583.817338 165.933426 
z
" clip-path="url(#p49d303030d)" style="fill: #934b43"/>
   </g>
   <g id="patch_7">
    <path d="M 701.514027 512.64 
L 713.283695 512.64 
L 713.283695 124.537682 
L 701.514027 124.537682 
z
" clip-path="url(#p49d303030d)" style="fill: #934b43"/>
   </g>
   <g id="patch_8">
    <path d="M 819.210715 512.64 
L 830.980384 512.64 
L 830.980384 125.712839 
L 819.210715 125.712839 
z
" clip-path="url(#p49d303030d)" style="fill: #934b43"/>
   </g>
   <g id="patch_9">
    <path d="M 936.907404 512.64 
L 948.677072 512.64 
L 948.677072 121.879461 
L 936.907404 121.879461 
z
" clip-path="url(#p49d303030d)" style="fill: #934b43"/>
   </g>
   <g id="patch_10">
    <path d="M 1054.604092 512.64 
L 1066.373761 512.64 
L 1066.373761 102.739346 
L 1054.604092 102.739346 
z
" clip-path="url(#p49d303030d)" style="fill: #934b43"/>
   </g>
   <g id="patch_11">
    <path d="M 1172.30078 512.64 
L 1184.070449 512.64 
L 1184.070449 97.317622 
L 1172.30078 97.317622 
z
" clip-path="url(#p49d303030d)" style="fill: #934b43"/>
   </g>
   <g id="patch_12">
    <path d="M 242.496942 512.64 
L 254.26661 512.64 
L 254.26661 511.504574 
L 242.496942 511.504574 
z
" clip-path="url(#p49d303030d)" style="fill: #d76364"/>
   </g>
   <g id="patch_13">
    <path d="M 360.19363 512.64 
L 371.963299 512.64 
L 371.963299 482.128665 
L 360.19363 482.128665 
z
" clip-path="url(#p49d303030d)" style="fill: #d76364"/>
   </g>
   <g id="patch_14">
    <path d="M 477.890318 512.64 
L 489.659987 512.64 
L 489.659987 272.853389 
L 477.890318 272.853389 
z
" clip-path="url(#p49d303030d)" style="fill: #d76364"/>
   </g>
   <g id="patch_15">
    <path d="M 595.587007 512.64 
L 607.356676 512.64 
L 607.356676 224.013035 
L 595.587007 224.013035 
z
" clip-path="url(#p49d303030d)" style="fill: #d76364"/>
   </g>
   <g id="patch_16">
    <path d="M 713.283695 512.64 
L 725.053364 512.64 
L 725.053364 132.277379 
L 713.283695 132.277379 
z
" clip-path="url(#p49d303030d)" style="fill: #d76364"/>
   </g>
   <g id="patch_17">
    <path d="M 830.980384 512.64 
L 842.750053 512.64 
L 842.750053 149.100292 
L 830.980384 149.100292 
z
" clip-path="url(#p49d303030d)" style="fill: #d76364"/>
   </g>
   <g id="patch_18">
    <path d="M 948.677072 512.64 
L 960.446741 512.64 
L 960.446741 136.291104 
L 948.677072 136.291104 
z
" clip-path="url(#p49d303030d)" style="fill: #d76364"/>
   </g>
   <g id="patch_19">
    <path d="M 1066.373761 512.64 
L 1078.14343 512.64 
L 1078.14343 115.607955 
L 1066.373761 115.607955 
z
" clip-path="url(#p49d303030d)" style="fill: #d76364"/>
   </g>
   <g id="patch_20">
    <path d="M 1184.070449 512.64 
L 1195.840118 512.64 
L 1195.840118 106.496288 
L 1184.070449 106.496288 
z
" clip-path="url(#p49d303030d)" style="fill: #d76364"/>
   </g>
   <g id="patch_21">
    <path d="M 254.26661 512.64 
L 266.036279 512.64 
L 266.036279 510.105264 
L 254.26661 510.105264 
z
" clip-path="url(#p49d303030d)" style="fill: #ef7a6d"/>
   </g>
   <g id="patch_22">
    <path d="M 371.963299 512.64 
L 383.732968 512.64 
L 383.732968 343.469818 
L 371.963299 343.469818 
z
" clip-path="url(#p49d303030d)" style="fill: #ef7a6d"/>
   </g>
   <g id="patch_23">
    <path d="M 489.659987 512.64 
L 501.429656 512.64 
L 501.429656 185.218046 
L 489.659987 185.218046 
z
" clip-path="url(#p49d303030d)" style="fill: #ef7a6d"/>
   </g>
   <g id="patch_24">
    <path d="M 607.356676 512.64 
L 619.126345 512.64 
L 619.126345 137.488821 
L 607.356676 137.488821 
z
" clip-path="url(#p49d303030d)" style="fill: #ef7a6d"/>
   </g>
   <g id="patch_25">
    <path d="M 725.053364 512.64 
L 736.823033 512.64 
L 736.823033 129.215082 
L 725.053364 129.215082 
z
" clip-path="url(#p49d303030d)" style="fill: #ef7a6d"/>
   </g>
   <g id="patch_26">
    <path d="M 842.750053 512.64 
L 854.519722 512.64 
L 854.519722 129.973592 
L 842.750053 129.973592 
z
" clip-path="url(#p49d303030d)" style="fill: #ef7a6d"/>
   </g>
   <g id="patch_27">
    <path d="M 960.446741 512.64 
L 972.21641 512.64 
L 972.21641 114.64571 
L 960.446741 114.64571 
z
" clip-path="url(#p49d303030d)" style="fill: #ef7a6d"/>
   </g>
   <g id="patch_28">
    <path d="M 1078.14343 512.64 
L 1089.913099 512.64 
L 1089.913099 112.118218 
L 1078.14343 112.118218 
z
" clip-path="url(#p49d303030d)" style="fill: #ef7a6d"/>
   </g>
   <g id="patch_29">
    <path d="M 1195.840118 512.64 
L 1207.609787 512.64 
L 1207.609787 99.169164 
L 1195.840118 99.169164 
z
" clip-path="url(#p49d303030d)" style="fill: #ef7a6d"/>
   </g>
   <g id="patch_30">
    <path d="M 268.390213 512.64 
L 280.159882 512.64 
L 280.159882 115.278281 
L 268.390213 115.278281 
z
" clip-path="url(#p49d303030d)" style="fill: #9394e7"/>
   </g>
   <g id="patch_31">
    <path d="M 386.086901 512.64 
L 397.85657 512.64 
L 397.85657 120.936285 
L 386.086901 120.936285 
z
" clip-path="url(#p49d303030d)" style="fill: #9394e7"/>
   </g>
   <g id="patch_32">
    <path d="M 503.78359 512.64 
L 515.553259 512.64 
L 515.553259 125.030882 
L 503.78359 125.030882 
z
" clip-path="url(#p49d303030d)" style="fill: #9394e7"/>
   </g>
   <g id="patch_33">
    <path d="M 621.480278 512.64 
L 633.249947 512.64 
L 633.249947 112.851597 
L 621.480278 112.851597 
z
" clip-path="url(#p49d303030d)" style="fill: #9394e7"/>
   </g>
   <g id="patch_34">
    <path d="M 739.176967 512.64 
L 750.946636 512.64 
L 750.946636 90.24 
L 739.176967 90.24 
z
" clip-path="url(#p49d303030d)" style="fill: #9394e7"/>
   </g>
   <g id="patch_35">
    <path d="M 856.873655 512.64 
L 868.643324 512.64 
L 868.643324 97.892942 
L 856.873655 97.892942 
z
" clip-path="url(#p49d303030d)" style="fill: #9394e7"/>
   </g>
   <g id="patch_36">
    <path d="M 974.570344 512.64 
L 986.340013 512.64 
L 986.340013 91.473879 
L 974.570344 91.473879 
z
" clip-path="url(#p49d303030d)" style="fill: #9394e7"/>
   </g>
   <g id="patch_37">
    <path d="M 1092.267032 512.64 
L 1104.036701 512.64 
L 1104.036701 95.870456 
L 1092.267032 95.870456 
z
" clip-path="url(#p49d303030d)" style="fill: #9394e7"/>
   </g>
   <g id="patch_38">
    <path d="M 1209.963721 512.64 
L 1221.73339 512.64 
L 1221.73339 90.731019 
L 1209.963721 90.731019 
z
" clip-path="url(#p49d303030d)" style="fill: #9394e7"/>
   </g>
   <g id="patch_39">
    <path d="M 280.159882 512.64 
L 291.929551 512.64 
L 291.929551 160.204506 
L 280.159882 160.204506 
z
" clip-path="url(#p49d303030d)" style="fill: #5f97d2"/>
   </g>
   <g id="patch_40">
    <path d="M 397.85657 512.64 
L 409.626239 512.64 
L 409.626239 159.312489 
L 397.85657 159.312489 
z
" clip-path="url(#p49d303030d)" style="fill: #5f97d2"/>
   </g>
   <g id="patch_41">
    <path d="M 515.553259 512.64 
L 527.322928 512.64 
L 527.322928 141.957727 
L 515.553259 141.957727 
z
" clip-path="url(#p49d303030d)" style="fill: #5f97d2"/>
   </g>
   <g id="patch_42">
    <path d="M 633.249947 512.64 
L 645.019616 512.64 
L 645.019616 139.876295 
L 633.249947 139.876295 
z
" clip-path="url(#p49d303030d)" style="fill: #5f97d2"/>
   </g>
   <g id="patch_43">
    <path d="M 750.946636 512.64 
L 762.716305 512.64 
L 762.716305 123.540771 
L 750.946636 123.540771 
z
" clip-path="url(#p49d303030d)" style="fill: #5f97d2"/>
   </g>
   <g id="patch_44">
    <path d="M 868.643324 512.64 
L 880.412993 512.64 
L 880.412993 112.683937 
L 868.643324 112.683937 
z
" clip-path="url(#p49d303030d)" style="fill: #5f97d2"/>
   </g>
   <g id="patch_45">
    <path d="M 986.340013 512.64 
L 998.109682 512.64 
L 998.109682 98.651673 
L 986.340013 98.651673 
z
" clip-path="url(#p49d303030d)" style="fill: #5f97d2"/>
   </g>
   <g id="patch_46">
    <path d="M 1104.036701 512.64 
L 1115.80637 512.64 
L 1115.80637 110.710798 
L 1104.036701 110.710798 
z
" clip-path="url(#p49d303030d)" style="fill: #5f97d2"/>
   </g>
   <g id="patch_47">
    <path d="M 1221.73339 512.64 
L 1233.503058 512.64 
L 1233.503058 96.248161 
L 1221.73339 96.248161 
z
" clip-path="url(#p49d303030d)" style="fill: #5f97d2"/>
   </g>
   <g id="patch_48">
    <path d="M 291.929551 512.64 
L 303.69922 512.64 
L 303.69922 196.589923 
L 291.929551 196.589923 
z
" clip-path="url(#p49d303030d)" style="fill: #9dc3e7"/>
   </g>
   <g id="patch_49">
    <path d="M 409.626239 512.64 
L 421.395908 512.64 
L 421.395908 154.882197 
L 409.626239 154.882197 
z
" clip-path="url(#p49d303030d)" style="fill: #9dc3e7"/>
   </g>
   <g id="patch_50">
    <path d="M 527.322928 512.64 
L 539.092596 512.64 
L 539.092596 132.29359 
L 527.322928 132.29359 
z
" clip-path="url(#p49d303030d)" style="fill: #9dc3e7"/>
   </g>
   <g id="patch_51">
    <path d="M 645.019616 512.64 
L 656.789285 512.64 
L 656.789285 129.998817 
L 645.019616 129.998817 
z
" clip-path="url(#p49d303030d)" style="fill: #9dc3e7"/>
   </g>
   <g id="patch_52">
    <path d="M 762.716305 512.64 
L 774.485973 512.64 
L 774.485973 126.753859 
L 762.716305 126.753859 
z
" clip-path="url(#p49d303030d)" style="fill: #9dc3e7"/>
   </g>
   <g id="patch_53">
    <path d="M 880.412993 512.64 
L 892.182662 512.64 
L 892.182662 103.108615 
L 880.412993 103.108615 
z
" clip-path="url(#p49d303030d)" style="fill: #9dc3e7"/>
   </g>
   <g id="patch_54">
    <path d="M 998.109682 512.64 
L 1009.87935 512.64 
L 1009.87935 92.963355 
L 998.109682 92.963355 
z
" clip-path="url(#p49d303030d)" style="fill: #9dc3e7"/>
   </g>
   <g id="patch_55">
    <path d="M 1115.80637 512.64 
L 1127.576039 512.64 
L 1127.576039 105.024481 
L 1115.80637 105.024481 
z
" clip-path="url(#p49d303030d)" style="fill: #9dc3e7"/>
   </g>
   <g id="patch_56">
    <path d="M 1233.503058 512.64 
L 1245.272727 512.64 
L 1245.272727 90.627994 
L 1233.503058 90.627994 
z
" clip-path="url(#p49d303030d)" style="fill: #9dc3e7"/>
   </g>
   <g id="matplotlib.axis_1">
    <g id="xtick_1">
     <g id="line2d_1">
      <defs>
       <path id="m6b16fef124" d="M 0 0 
L 0 3.5 
" style="stroke: #000000; stroke-width: 0.8"/>
      </defs>
      <g>
       <use xlink:href="#m6b16fef124" x="267.213246" y="512.64" style="stroke: #000000; stroke-width: 0.8"/>
      </g>
     </g>
     <g id="text_1">
      <!-- 200 -->
      <g transform="translate(252.897621 531.037656) scale(0.15 -0.15)">
       <defs>
        <path id="DejaVuSans-32" d="M 1228 531 
L 3431 531 
L 3431 0 
L 469 0 
L 469 531 
Q 828 903 1448 1529 
Q 2069 2156 2228 2338 
Q 2531 2678 2651 2914 
Q 2772 3150 2772 3378 
Q 2772 3750 2511 3984 
Q 2250 4219 1831 4219 
Q 1534 4219 1204 4116 
Q 875 4013 500 3803 
L 500 4441 
Q 881 4594 1212 4672 
Q 1544 4750 1819 4750 
Q 2544 4750 2975 4387 
Q 3406 4025 3406 3419 
Q 3406 3131 3298 2873 
Q 3191 2616 2906 2266 
Q 2828 2175 2409 1742 
Q 1991 1309 1228 531 
z
" transform="scale(0.015625)"/>
        <path id="DejaVuSans-30" d="M 2034 4250 
Q 1547 4250 1301 3770 
Q 1056 3291 1056 2328 
Q 1056 1369 1301 889 
Q 1547 409 2034 409 
Q 2525 409 2770 889 
Q 3016 1369 3016 2328 
Q 3016 3291 2770 3770 
Q 2525 4250 2034 4250 
z
M 2034 4750 
Q 2819 4750 3233 4129 
Q 3647 3509 3647 2328 
Q 3647 1150 3233 529 
Q 2819 -91 2034 -91 
Q 1250 -91 836 529 
Q 422 1150 422 2328 
Q 422 3509 836 4129 
Q 1250 4750 2034 4750 
z
" transform="scale(0.015625)"/>
       </defs>
       <use xlink:href="#DejaVuSans-32"/>
       <use xlink:href="#DejaVuSans-30" x="63.623047"/>
       <use xlink:href="#DejaVuSans-30" x="127.246094"/>
      </g>
     </g>
    </g>
    <g id="xtick_2">
     <g id="line2d_2">
      <g>
       <use xlink:href="#m6b16fef124" x="384.909935" y="512.64" style="stroke: #000000; stroke-width: 0.8"/>
      </g>
     </g>
     <g id="text_2">
      <!-- 300 -->
      <g transform="translate(370.59431 531.037656) scale(0.15 -0.15)">
       <defs>
        <path id="DejaVuSans-33" d="M 2597 2516 
Q 3050 2419 3304 2112 
Q 3559 1806 3559 1356 
Q 3559 666 3084 287 
Q 2609 -91 1734 -91 
Q 1441 -91 1130 -33 
Q 819 25 488 141 
L 488 750 
Q 750 597 1062 519 
Q 1375 441 1716 441 
Q 2309 441 2620 675 
Q 2931 909 2931 1356 
Q 2931 1769 2642 2001 
Q 2353 2234 1838 2234 
L 1294 2234 
L 1294 2753 
L 1863 2753 
Q 2328 2753 2575 2939 
Q 2822 3125 2822 3475 
Q 2822 3834 2567 4026 
Q 2313 4219 1838 4219 
Q 1578 4219 1281 4162 
Q 984 4106 628 3988 
L 628 4550 
Q 988 4650 1302 4700 
Q 1616 4750 1894 4750 
Q 2613 4750 3031 4423 
Q 3450 4097 3450 3541 
Q 3450 3153 3228 2886 
Q 3006 2619 2597 2516 
z
" transform="scale(0.015625)"/>
       </defs>
       <use xlink:href="#DejaVuSans-33"/>
       <use xlink:href="#DejaVuSans-30" x="63.623047"/>
       <use xlink:href="#DejaVuSans-30" x="127.246094"/>
      </g>
     </g>
    </g>
    <g id="xtick_3">
     <g id="line2d_3">
      <g>
       <use xlink:href="#m6b16fef124" x="502.606623" y="512.64" style="stroke: #000000; stroke-width: 0.8"/>
      </g>
     </g>
     <g id="text_3">
      <!-- 400 -->
      <g transform="translate(488.290998 531.037656) scale(0.15 -0.15)">
       <defs>
        <path id="DejaVuSans-34" d="M 2419 4116 
L 825 1625 
L 2419 1625 
L 2419 4116 
z
M 2253 4666 
L 3047 4666 
L 3047 1625 
L 3713 1625 
L 3713 1100 
L 3047 1100 
L 3047 0 
L 2419 0 
L 2419 1100 
L 313 1100 
L 313 1709 
L 2253 4666 
z
" transform="scale(0.015625)"/>
       </defs>
       <use xlink:href="#DejaVuSans-34"/>
       <use xlink:href="#DejaVuSans-30" x="63.623047"/>
       <use xlink:href="#DejaVuSans-30" x="127.246094"/>
      </g>
     </g>
    </g>
    <g id="xtick_4">
     <g id="line2d_4">
      <g>
       <use xlink:href="#m6b16fef124" x="620.303312" y="512.64" style="stroke: #000000; stroke-width: 0.8"/>
      </g>
     </g>
     <g id="text_4">
      <!-- 500 -->
      <g transform="translate(605.987687 531.037656) scale(0.15 -0.15)">
       <defs>
        <path id="DejaVuSans-35" d="M 691 4666 
L 3169 4666 
L 3169 4134 
L 1269 4134 
L 1269 2991 
Q 1406 3038 1543 3061 
Q 1681 3084 1819 3084 
Q 2600 3084 3056 2656 
Q 3513 2228 3513 1497 
Q 3513 744 3044 326 
Q 2575 -91 1722 -91 
Q 1428 -91 1123 -41 
Q 819 9 494 109 
L 494 744 
Q 775 591 1075 516 
Q 1375 441 1709 441 
Q 2250 441 2565 725 
Q 2881 1009 2881 1497 
Q 2881 1984 2565 2268 
Q 2250 2553 1709 2553 
Q 1456 2553 1204 2497 
Q 953 2441 691 2322 
L 691 4666 
z
" transform="scale(0.015625)"/>
       </defs>
       <use xlink:href="#DejaVuSans-35"/>
       <use xlink:href="#DejaVuSans-30" x="63.623047"/>
       <use xlink:href="#DejaVuSans-30" x="127.246094"/>
      </g>
     </g>
    </g>
    <g id="xtick_5">
     <g id="line2d_5">
      <g>
       <use xlink:href="#m6b16fef124" x="738" y="512.64" style="stroke: #000000; stroke-width: 0.8"/>
      </g>
     </g>
     <g id="text_5">
      <!-- 600 -->
      <g transform="translate(723.684375 531.037656) scale(0.15 -0.15)">
       <defs>
        <path id="DejaVuSans-36" d="M 2113 2584 
Q 1688 2584 1439 2293 
Q 1191 2003 1191 1497 
Q 1191 994 1439 701 
Q 1688 409 2113 409 
Q 2538 409 2786 701 
Q 3034 994 3034 1497 
Q 3034 2003 2786 2293 
Q 2538 2584 2113 2584 
z
M 3366 4563 
L 3366 3988 
Q 3128 4100 2886 4159 
Q 2644 4219 2406 4219 
Q 1781 4219 1451 3797 
Q 1122 3375 1075 2522 
Q 1259 2794 1537 2939 
Q 1816 3084 2150 3084 
Q 2853 3084 3261 2657 
Q 3669 2231 3669 1497 
Q 3669 778 3244 343 
Q 2819 -91 2113 -91 
Q 1303 -91 875 529 
Q 447 1150 447 2328 
Q 447 3434 972 4092 
Q 1497 4750 2381 4750 
Q 2619 4750 2861 4703 
Q 3103 4656 3366 4563 
z
" transform="scale(0.015625)"/>
       </defs>
       <use xlink:href="#DejaVuSans-36"/>
       <use xlink:href="#DejaVuSans-30" x="63.623047"/>
       <use xlink:href="#DejaVuSans-30" x="127.246094"/>
      </g>
     </g>
    </g>
    <g id="xtick_6">
     <g id="line2d_6">
      <g>
       <use xlink:href="#m6b16fef124" x="855.696688" y="512.64" style="stroke: #000000; stroke-width: 0.8"/>
      </g>
     </g>
     <g id="text_6">
      <!-- 700 -->
      <g transform="translate(841.381063 531.037656) scale(0.15 -0.15)">
       <defs>
        <path id="DejaVuSans-37" d="M 525 4666 
L 3525 4666 
L 3525 4397 
L 1831 0 
L 1172 0 
L 2766 4134 
L 525 4134 
L 525 4666 
z
" transform="scale(0.015625)"/>
       </defs>
       <use xlink:href="#DejaVuSans-37"/>
       <use xlink:href="#DejaVuSans-30" x="63.623047"/>
       <use xlink:href="#DejaVuSans-30" x="127.246094"/>
      </g>
     </g>
    </g>
    <g id="xtick_7">
     <g id="line2d_7">
      <g>
       <use xlink:href="#m6b16fef124" x="973.393377" y="512.64" style="stroke: #000000; stroke-width: 0.8"/>
      </g>
     </g>
     <g id="text_7">
      <!-- 800 -->
      <g transform="translate(959.077752 531.037656) scale(0.15 -0.15)">
       <defs>
        <path id="DejaVuSans-38" d="M 2034 2216 
Q 1584 2216 1326 1975 
Q 1069 1734 1069 1313 
Q 1069 891 1326 650 
Q 1584 409 2034 409 
Q 2484 409 2743 651 
Q 3003 894 3003 1313 
Q 3003 1734 2745 1975 
Q 2488 2216 2034 2216 
z
M 1403 2484 
Q 997 2584 770 2862 
Q 544 3141 544 3541 
Q 544 4100 942 4425 
Q 1341 4750 2034 4750 
Q 2731 4750 3128 4425 
Q 3525 4100 3525 3541 
Q 3525 3141 3298 2862 
Q 3072 2584 2669 2484 
Q 3125 2378 3379 2068 
Q 3634 1759 3634 1313 
Q 3634 634 3220 271 
Q 2806 -91 2034 -91 
Q 1263 -91 848 271 
Q 434 634 434 1313 
Q 434 1759 690 2068 
Q 947 2378 1403 2484 
z
M 1172 3481 
Q 1172 3119 1398 2916 
Q 1625 2713 2034 2713 
Q 2441 2713 2670 2916 
Q 2900 3119 2900 3481 
Q 2900 3844 2670 4047 
Q 2441 4250 2034 4250 
Q 1625 4250 1398 4047 
Q 1172 3844 1172 3481 
z
" transform="scale(0.015625)"/>
       </defs>
       <use xlink:href="#DejaVuSans-38"/>
       <use xlink:href="#DejaVuSans-30" x="63.623047"/>
       <use xlink:href="#DejaVuSans-30" x="127.246094"/>
      </g>
     </g>
    </g>
    <g id="xtick_8">
     <g id="line2d_8">
      <g>
       <use xlink:href="#m6b16fef124" x="1091.090065" y="512.64" style="stroke: #000000; stroke-width: 0.8"/>
      </g>
     </g>
     <g id="text_8">
      <!-- 900 -->
      <g transform="translate(1076.77444 531.037656) scale(0.15 -0.15)">
       <defs>
        <path id="DejaVuSans-39" d="M 703 97 
L 703 672 
Q 941 559 1184 500 
Q 1428 441 1663 441 
Q 2288 441 2617 861 
Q 2947 1281 2994 2138 
Q 2813 1869 2534 1725 
Q 2256 1581 1919 1581 
Q 1219 1581 811 2004 
Q 403 2428 403 3163 
Q 403 3881 828 4315 
Q 1253 4750 1959 4750 
Q 2769 4750 3195 4129 
Q 3622 3509 3622 2328 
Q 3622 1225 3098 567 
Q 2575 -91 1691 -91 
Q 1453 -91 1209 -44 
Q 966 3 703 97 
z
M 1959 2075 
Q 2384 2075 2632 2365 
Q 2881 2656 2881 3163 
Q 2881 3666 2632 3958 
Q 2384 4250 1959 4250 
Q 1534 4250 1286 3958 
Q 1038 3666 1038 3163 
Q 1038 2656 1286 2365 
Q 1534 2075 1959 2075 
z
" transform="scale(0.015625)"/>
       </defs>
       <use xlink:href="#DejaVuSans-39"/>
       <use xlink:href="#DejaVuSans-30" x="63.623047"/>
       <use xlink:href="#DejaVuSans-30" x="127.246094"/>
      </g>
     </g>
    </g>
    <g id="xtick_9">
     <g id="line2d_9">
      <g>
       <use xlink:href="#m6b16fef124" x="1208.786754" y="512.64" style="stroke: #000000; stroke-width: 0.8"/>
      </g>
     </g>
     <g id="text_9">
      <!-- 1000 -->
      <g transform="translate(1189.699254 531.037656) scale(0.15 -0.15)">
       <defs>
        <path id="DejaVuSans-31" d="M 794 531 
L 1825 531 
L 1825 4091 
L 703 3866 
L 703 4441 
L 1819 4666 
L 2450 4666 
L 2450 531 
L 3481 531 
L 3481 0 
L 794 0 
L 794 531 
z
" transform="scale(0.015625)"/>
       </defs>
       <use xlink:href="#DejaVuSans-31"/>
       <use xlink:href="#DejaVuSans-30" x="63.623047"/>
       <use xlink:href="#DejaVuSans-30" x="127.246094"/>
       <use xlink:href="#DejaVuSans-30" x="190.869141"/>
      </g>
     </g>
    </g>
    <g id="text_10">
     <!-- Trainset(Reference) single cell number -->
     <g transform="translate(564.478594 551.834375) scale(0.18 -0.18)">
      <defs>
       <path id="DejaVuSans-54" d="M -19 4666 
L 3928 4666 
L 3928 4134 
L 2272 4134 
L 2272 0 
L 1638 0 
L 1638 4134 
L -19 4134 
L -19 4666 
z
" transform="scale(0.015625)"/>
       <path id="DejaVuSans-72" d="M 2631 2963 
Q 2534 3019 2420 3045 
Q 2306 3072 2169 3072 
Q 1681 3072 1420 2755 
Q 1159 2438 1159 1844 
L 1159 0 
L 581 0 
L 581 3500 
L 1159 3500 
L 1159 2956 
Q 1341 3275 1631 3429 
Q 1922 3584 2338 3584 
Q 2397 3584 2469 3576 
Q 2541 3569 2628 3553 
L 2631 2963 
z
" transform="scale(0.015625)"/>
       <path id="DejaVuSans-61" d="M 2194 1759 
Q 1497 1759 1228 1600 
Q 959 1441 959 1056 
Q 959 750 1161 570 
Q 1363 391 1709 391 
Q 2188 391 2477 730 
Q 2766 1069 2766 1631 
L 2766 1759 
L 2194 1759 
z
M 3341 1997 
L 3341 0 
L 2766 0 
L 2766 531 
Q 2569 213 2275 61 
Q 1981 -91 1556 -91 
Q 1019 -91 701 211 
Q 384 513 384 1019 
Q 384 1609 779 1909 
Q 1175 2209 1959 2209 
L 2766 2209 
L 2766 2266 
Q 2766 2663 2505 2880 
Q 2244 3097 1772 3097 
Q 1472 3097 1187 3025 
Q 903 2953 641 2809 
L 641 3341 
Q 956 3463 1253 3523 
Q 1550 3584 1831 3584 
Q 2591 3584 2966 3190 
Q 3341 2797 3341 1997 
z
" transform="scale(0.015625)"/>
       <path id="DejaVuSans-69" d="M 603 3500 
L 1178 3500 
L 1178 0 
L 603 0 
L 603 3500 
z
M 603 4863 
L 1178 4863 
L 1178 4134 
L 603 4134 
L 603 4863 
z
" transform="scale(0.015625)"/>
       <path id="DejaVuSans-6e" d="M 3513 2113 
L 3513 0 
L 2938 0 
L 2938 2094 
Q 2938 2591 2744 2837 
Q 2550 3084 2163 3084 
Q 1697 3084 1428 2787 
Q 1159 2491 1159 1978 
L 1159 0 
L 581 0 
L 581 3500 
L 1159 3500 
L 1159 2956 
Q 1366 3272 1645 3428 
Q 1925 3584 2291 3584 
Q 2894 3584 3203 3211 
Q 3513 2838 3513 2113 
z
" transform="scale(0.015625)"/>
       <path id="DejaVuSans-73" d="M 2834 3397 
L 2834 2853 
Q 2591 2978 2328 3040 
Q 2066 3103 1784 3103 
Q 1356 3103 1142 2972 
Q 928 2841 928 2578 
Q 928 2378 1081 2264 
Q 1234 2150 1697 2047 
L 1894 2003 
Q 2506 1872 2764 1633 
Q 3022 1394 3022 966 
Q 3022 478 2636 193 
Q 2250 -91 1575 -91 
Q 1294 -91 989 -36 
Q 684 19 347 128 
L 347 722 
Q 666 556 975 473 
Q 1284 391 1588 391 
Q 1994 391 2212 530 
Q 2431 669 2431 922 
Q 2431 1156 2273 1281 
Q 2116 1406 1581 1522 
L 1381 1569 
Q 847 1681 609 1914 
Q 372 2147 372 2553 
Q 372 3047 722 3315 
Q 1072 3584 1716 3584 
Q 2034 3584 2315 3537 
Q 2597 3491 2834 3397 
z
" transform="scale(0.015625)"/>
       <path id="DejaVuSans-65" d="M 3597 1894 
L 3597 1613 
L 953 1613 
Q 991 1019 1311 708 
Q 1631 397 2203 397 
Q 2534 397 2845 478 
Q 3156 559 3463 722 
L 3463 178 
Q 3153 47 2828 -22 
Q 2503 -91 2169 -91 
Q 1331 -91 842 396 
Q 353 884 353 1716 
Q 353 2575 817 3079 
Q 1281 3584 2069 3584 
Q 2775 3584 3186 3129 
Q 3597 2675 3597 1894 
z
M 3022 2063 
Q 3016 2534 2758 2815 
Q 2500 3097 2075 3097 
Q 1594 3097 1305 2825 
Q 1016 2553 972 2059 
L 3022 2063 
z
" transform="scale(0.015625)"/>
       <path id="DejaVuSans-74" d="M 1172 4494 
L 1172 3500 
L 2356 3500 
L 2356 3053 
L 1172 3053 
L 1172 1153 
Q 1172 725 1289 603 
Q 1406 481 1766 481 
L 2356 481 
L 2356 0 
L 1766 0 
Q 1100 0 847 248 
Q 594 497 594 1153 
L 594 3053 
L 172 3053 
L 172 3500 
L 594 3500 
L 594 4494 
L 1172 4494 
z
" transform="scale(0.015625)"/>
       <path id="DejaVuSans-28" d="M 1984 4856 
Q 1566 4138 1362 3434 
Q 1159 2731 1159 2009 
Q 1159 1288 1364 580 
Q 1569 -128 1984 -844 
L 1484 -844 
Q 1016 -109 783 600 
Q 550 1309 550 2009 
Q 550 2706 781 3412 
Q 1013 4119 1484 4856 
L 1984 4856 
z
" transform="scale(0.015625)"/>
       <path id="DejaVuSans-52" d="M 2841 2188 
Q 3044 2119 3236 1894 
Q 3428 1669 3622 1275 
L 4263 0 
L 3584 0 
L 2988 1197 
Q 2756 1666 2539 1819 
Q 2322 1972 1947 1972 
L 1259 1972 
L 1259 0 
L 628 0 
L 628 4666 
L 2053 4666 
Q 2853 4666 3247 4331 
Q 3641 3997 3641 3322 
Q 3641 2881 3436 2590 
Q 3231 2300 2841 2188 
z
M 1259 4147 
L 1259 2491 
L 2053 2491 
Q 2509 2491 2742 2702 
Q 2975 2913 2975 3322 
Q 2975 3731 2742 3939 
Q 2509 4147 2053 4147 
L 1259 4147 
z
" transform="scale(0.015625)"/>
       <path id="DejaVuSans-66" d="M 2375 4863 
L 2375 4384 
L 1825 4384 
Q 1516 4384 1395 4259 
Q 1275 4134 1275 3809 
L 1275 3500 
L 2222 3500 
L 2222 3053 
L 1275 3053 
L 1275 0 
L 697 0 
L 697 3053 
L 147 3053 
L 147 3500 
L 697 3500 
L 697 3744 
Q 697 4328 969 4595 
Q 1241 4863 1831 4863 
L 2375 4863 
z
" transform="scale(0.015625)"/>
       <path id="DejaVuSans-63" d="M 3122 3366 
L 3122 2828 
Q 2878 2963 2633 3030 
Q 2388 3097 2138 3097 
Q 1578 3097 1268 2742 
Q 959 2388 959 1747 
Q 959 1106 1268 751 
Q 1578 397 2138 397 
Q 2388 397 2633 464 
Q 2878 531 3122 666 
L 3122 134 
Q 2881 22 2623 -34 
Q 2366 -91 2075 -91 
Q 1284 -91 818 406 
Q 353 903 353 1747 
Q 353 2603 823 3093 
Q 1294 3584 2113 3584 
Q 2378 3584 2631 3529 
Q 2884 3475 3122 3366 
z
" transform="scale(0.015625)"/>
       <path id="DejaVuSans-29" d="M 513 4856 
L 1013 4856 
Q 1481 4119 1714 3412 
Q 1947 2706 1947 2009 
Q 1947 1309 1714 600 
Q 1481 -109 1013 -844 
L 513 -844 
Q 928 -128 1133 580 
Q 1338 1288 1338 2009 
Q 1338 2731 1133 3434 
Q 928 4138 513 4856 
z
" transform="scale(0.015625)"/>
       <path id="DejaVuSans-20" transform="scale(0.015625)"/>
       <path id="DejaVuSans-67" d="M 2906 1791 
Q 2906 2416 2648 2759 
Q 2391 3103 1925 3103 
Q 1463 3103 1205 2759 
Q 947 2416 947 1791 
Q 947 1169 1205 825 
Q 1463 481 1925 481 
Q 2391 481 2648 825 
Q 2906 1169 2906 1791 
z
M 3481 434 
Q 3481 -459 3084 -895 
Q 2688 -1331 1869 -1331 
Q 1566 -1331 1297 -1286 
Q 1028 -1241 775 -1147 
L 775 -588 
Q 1028 -725 1275 -790 
Q 1522 -856 1778 -856 
Q 2344 -856 2625 -561 
Q 2906 -266 2906 331 
L 2906 616 
Q 2728 306 2450 153 
Q 2172 0 1784 0 
Q 1141 0 747 490 
Q 353 981 353 1791 
Q 353 2603 747 3093 
Q 1141 3584 1784 3584 
Q 2172 3584 2450 3431 
Q 2728 3278 2906 2969 
L 2906 3500 
L 3481 3500 
L 3481 434 
z
" transform="scale(0.015625)"/>
       <path id="DejaVuSans-6c" d="M 603 4863 
L 1178 4863 
L 1178 0 
L 603 0 
L 603 4863 
z
" transform="scale(0.015625)"/>
       <path id="DejaVuSans-75" d="M 544 1381 
L 544 3500 
L 1119 3500 
L 1119 1403 
Q 1119 906 1312 657 
Q 1506 409 1894 409 
Q 2359 409 2629 706 
Q 2900 1003 2900 1516 
L 2900 3500 
L 3475 3500 
L 3475 0 
L 2900 0 
L 2900 538 
Q 2691 219 2414 64 
Q 2138 -91 1772 -91 
Q 1169 -91 856 284 
Q 544 659 544 1381 
z
M 1991 3584 
L 1991 3584 
z
" transform="scale(0.015625)"/>
       <path id="DejaVuSans-6d" d="M 3328 2828 
Q 3544 3216 3844 3400 
Q 4144 3584 4550 3584 
Q 5097 3584 5394 3201 
Q 5691 2819 5691 2113 
L 5691 0 
L 5113 0 
L 5113 2094 
Q 5113 2597 4934 2840 
Q 4756 3084 4391 3084 
Q 3944 3084 3684 2787 
Q 3425 2491 3425 1978 
L 3425 0 
L 2847 0 
L 2847 2094 
Q 2847 2600 2669 2842 
Q 2491 3084 2119 3084 
Q 1678 3084 1418 2786 
Q 1159 2488 1159 1978 
L 1159 0 
L 581 0 
L 581 3500 
L 1159 3500 
L 1159 2956 
Q 1356 3278 1631 3431 
Q 1906 3584 2284 3584 
Q 2666 3584 2933 3390 
Q 3200 3197 3328 2828 
z
" transform="scale(0.015625)"/>
       <path id="DejaVuSans-62" d="M 3116 1747 
Q 3116 2381 2855 2742 
Q 2594 3103 2138 3103 
Q 1681 3103 1420 2742 
Q 1159 2381 1159 1747 
Q 1159 1113 1420 752 
Q 1681 391 2138 391 
Q 2594 391 2855 752 
Q 3116 1113 3116 1747 
z
M 1159 2969 
Q 1341 3281 1617 3432 
Q 1894 3584 2278 3584 
Q 2916 3584 3314 3078 
Q 3713 2572 3713 1747 
Q 3713 922 3314 415 
Q 2916 -91 2278 -91 
Q 1894 -91 1617 61 
Q 1341 213 1159 525 
L 1159 0 
L 581 0 
L 581 4863 
L 1159 4863 
L 1159 2969 
z
" transform="scale(0.015625)"/>
      </defs>
      <use xlink:href="#DejaVuSans-54"/>
      <use xlink:href="#DejaVuSans-72" x="46.333984"/>
      <use xlink:href="#DejaVuSans-61" x="87.447266"/>
      <use xlink:href="#DejaVuSans-69" x="148.726562"/>
      <use xlink:href="#DejaVuSans-6e" x="176.509766"/>
      <use xlink:href="#DejaVuSans-73" x="239.888672"/>
      <use xlink:href="#DejaVuSans-65" x="291.988281"/>
      <use xlink:href="#DejaVuSans-74" x="353.511719"/>
      <use xlink:href="#DejaVuSans-28" x="392.720703"/>
      <use xlink:href="#DejaVuSans-52" x="431.734375"/>
      <use xlink:href="#DejaVuSans-65" x="496.716797"/>
      <use xlink:href="#DejaVuSans-66" x="558.240234"/>
      <use xlink:href="#DejaVuSans-65" x="593.445312"/>
      <use xlink:href="#DejaVuSans-72" x="654.96875"/>
      <use xlink:href="#DejaVuSans-65" x="693.832031"/>
      <use xlink:href="#DejaVuSans-6e" x="755.355469"/>
      <use xlink:href="#DejaVuSans-63" x="818.734375"/>
      <use xlink:href="#DejaVuSans-65" x="873.714844"/>
      <use xlink:href="#DejaVuSans-29" x="935.238281"/>
      <use xlink:href="#DejaVuSans-20" x="974.251953"/>
      <use xlink:href="#DejaVuSans-73" x="1006.039062"/>
      <use xlink:href="#DejaVuSans-69" x="1058.138672"/>
      <use xlink:href="#DejaVuSans-6e" x="1085.921875"/>
      <use xlink:href="#DejaVuSans-67" x="1149.300781"/>
      <use xlink:href="#DejaVuSans-6c" x="1212.777344"/>
      <use xlink:href="#DejaVuSans-65" x="1240.560547"/>
      <use xlink:href="#DejaVuSans-20" x="1302.083984"/>
      <use xlink:href="#DejaVuSans-63" x="1333.871094"/>
      <use xlink:href="#DejaVuSans-65" x="1388.851562"/>
      <use xlink:href="#DejaVuSans-6c" x="1450.375"/>
      <use xlink:href="#DejaVuSans-6c" x="1478.158203"/>
      <use xlink:href="#DejaVuSans-20" x="1505.941406"/>
      <use xlink:href="#DejaVuSans-6e" x="1537.728516"/>
      <use xlink:href="#DejaVuSans-75" x="1601.107422"/>
      <use xlink:href="#DejaVuSans-6d" x="1664.486328"/>
      <use xlink:href="#DejaVuSans-62" x="1761.898438"/>
      <use xlink:href="#DejaVuSans-65" x="1825.375"/>
      <use xlink:href="#DejaVuSans-72" x="1886.898438"/>
     </g>
    </g>
   </g>
   <g id="matplotlib.axis_2">
    <g id="ytick_1">
     <g id="line2d_10">
      <defs>
       <path id="mdd6ebf9c09" d="M 0 0 
L -3.5 0 
" style="stroke: #000000; stroke-width: 0.8"/>
      </defs>
      <g>
       <use xlink:href="#mdd6ebf9c09" x="180" y="512.64" style="stroke: #000000; stroke-width: 0.8"/>
      </g>
     </g>
     <g id="text_11">
      <!-- 0.0 -->
      <g transform="translate(149.145312 518.338828) scale(0.15 -0.15)">
       <defs>
        <path id="DejaVuSans-2e" d="M 684 794 
L 1344 794 
L 1344 0 
L 684 0 
L 684 794 
z
" transform="scale(0.015625)"/>
       </defs>
       <use xlink:href="#DejaVuSans-30"/>
       <use xlink:href="#DejaVuSans-2e" x="63.623047"/>
       <use xlink:href="#DejaVuSans-30" x="95.410156"/>
      </g>
     </g>
    </g>
    <g id="ytick_2">
     <g id="line2d_11">
      <g>
       <use xlink:href="#mdd6ebf9c09" x="180" y="424.311054" style="stroke: #000000; stroke-width: 0.8"/>
      </g>
     </g>
     <g id="text_12">
      <!-- 0.2 -->
      <g transform="translate(149.145312 430.009882) scale(0.15 -0.15)">
       <use xlink:href="#DejaVuSans-30"/>
       <use xlink:href="#DejaVuSans-2e" x="63.623047"/>
       <use xlink:href="#DejaVuSans-32" x="95.410156"/>
      </g>
     </g>
    </g>
    <g id="ytick_3">
     <g id="line2d_12">
      <g>
       <use xlink:href="#mdd6ebf9c09" x="180" y="335.982108" style="stroke: #000000; stroke-width: 0.8"/>
      </g>
     </g>
     <g id="text_13">
      <!-- 0.4 -->
      <g transform="translate(149.145312 341.680936) scale(0.15 -0.15)">
       <use xlink:href="#DejaVuSans-30"/>
       <use xlink:href="#DejaVuSans-2e" x="63.623047"/>
       <use xlink:href="#DejaVuSans-34" x="95.410156"/>
      </g>
     </g>
    </g>
    <g id="ytick_4">
     <g id="line2d_13">
      <g>
       <use xlink:href="#mdd6ebf9c09" x="180" y="247.653162" style="stroke: #000000; stroke-width: 0.8"/>
      </g>
     </g>
     <g id="text_14">
      <!-- 0.6 -->
      <g transform="translate(149.145312 253.35199) scale(0.15 -0.15)">
       <use xlink:href="#DejaVuSans-30"/>
       <use xlink:href="#DejaVuSans-2e" x="63.623047"/>
       <use xlink:href="#DejaVuSans-36" x="95.410156"/>
      </g>
     </g>
    </g>
    <g id="ytick_5">
     <g id="line2d_14">
      <g>
       <use xlink:href="#mdd6ebf9c09" x="180" y="159.324216" style="stroke: #000000; stroke-width: 0.8"/>
      </g>
     </g>
     <g id="text_15">
      <!-- 0.8 -->
      <g transform="translate(149.145312 165.023044) scale(0.15 -0.15)">
       <use xlink:href="#DejaVuSans-30"/>
       <use xlink:href="#DejaVuSans-2e" x="63.623047"/>
       <use xlink:href="#DejaVuSans-38" x="95.410156"/>
      </g>
     </g>
    </g>
    <g id="ytick_6">
     <g id="line2d_15">
      <g>
       <use xlink:href="#mdd6ebf9c09" x="180" y="70.99527" style="stroke: #000000; stroke-width: 0.8"/>
      </g>
     </g>
     <g id="text_16">
      <!-- 1.0 -->
      <g transform="translate(149.145312 76.694099) scale(0.15 -0.15)">
       <use xlink:href="#DejaVuSans-31"/>
       <use xlink:href="#DejaVuSans-2e" x="63.623047"/>
       <use xlink:href="#DejaVuSans-30" x="95.410156"/>
      </g>
     </g>
    </g>
    <g id="text_17">
     <!-- Lin's CCC -->
     <g transform="translate(141.401875 332.974687) rotate(-90) scale(0.18 -0.18)">
      <defs>
       <path id="DejaVuSans-4c" d="M 628 4666 
L 1259 4666 
L 1259 531 
L 3531 531 
L 3531 0 
L 628 0 
L 628 4666 
z
" transform="scale(0.015625)"/>
       <path id="DejaVuSans-27" d="M 1147 4666 
L 1147 2931 
L 616 2931 
L 616 4666 
L 1147 4666 
z
" transform="scale(0.015625)"/>
       <path id="DejaVuSans-43" d="M 4122 4306 
L 4122 3641 
Q 3803 3938 3442 4084 
Q 3081 4231 2675 4231 
Q 1875 4231 1450 3742 
Q 1025 3253 1025 2328 
Q 1025 1406 1450 917 
Q 1875 428 2675 428 
Q 3081 428 3442 575 
Q 3803 722 4122 1019 
L 4122 359 
Q 3791 134 3420 21 
Q 3050 -91 2638 -91 
Q 1578 -91 968 557 
Q 359 1206 359 2328 
Q 359 3453 968 4101 
Q 1578 4750 2638 4750 
Q 3056 4750 3426 4639 
Q 3797 4528 4122 4306 
z
" transform="scale(0.015625)"/>
      </defs>
      <use xlink:href="#DejaVuSans-4c"/>
      <use xlink:href="#DejaVuSans-69" x="55.712891"/>
      <use xlink:href="#DejaVuSans-6e" x="83.496094"/>
      <use xlink:href="#DejaVuSans-27" x="146.875"/>
      <use xlink:href="#DejaVuSans-73" x="174.365234"/>
      <use xlink:href="#DejaVuSans-20" x="226.464844"/>
      <use xlink:href="#DejaVuSans-43" x="258.251953"/>
      <use xlink:href="#DejaVuSans-43" x="328.076172"/>
      <use xlink:href="#DejaVuSans-43" x="397.900391"/>
     </g>
    </g>
   </g>
   <g id="patch_57">
    <path d="M 180 512.64 
L 180 69.12 
" style="fill: none; stroke: #000000; stroke-width: 0.8; stroke-linejoin: miter; stroke-linecap: square"/>
   </g>
   <g id="patch_58">
    <path d="M 1296 512.64 
L 1296 69.12 
" style="fill: none; stroke: #000000; stroke-width: 0.8; stroke-linejoin: miter; stroke-linecap: square"/>
   </g>
   <g id="patch_59">
    <path d="M 180 512.64 
L 1296 512.64 
" style="fill: none; stroke: #000000; stroke-width: 0.8; stroke-linejoin: miter; stroke-linecap: square"/>
   </g>
   <g id="patch_60">
    <path d="M 180 69.12 
L 1296 69.12 
" style="fill: none; stroke: #000000; stroke-width: 0.8; stroke-linejoin: miter; stroke-linecap: square"/>
   </g>
   <g id="legend_1">
    <g id="patch_61">
     <path d="M 1101.484375 502.64 
L 1282 502.64 
Q 1286 502.64 1286 498.64 
L 1286 324.5025 
Q 1286 320.5025 1282 320.5025 
L 1101.484375 320.5025 
Q 1097.484375 320.5025 1097.484375 324.5025 
L 1097.484375 498.64 
Q 1097.484375 502.64 1101.484375 502.64 
z
" style="fill: #ffffff; opacity: 0.8; stroke: #cccccc; stroke-linejoin: miter"/>
    </g>
    <g id="patch_62">
     <path d="M 1105.484375 343.699375 
L 1145.484375 343.699375 
L 1145.484375 329.699375 
L 1105.484375 329.699375 
z
" style="fill: #934b43"/>
    </g>
    <g id="text_18">
     <!-- cell0-DNN -->
     <g transform="translate(1161.484375 343.699375) scale(0.2 -0.2)">
      <defs>
       <path id="DejaVuSans-2d" d="M 313 2009 
L 1997 2009 
L 1997 1497 
L 313 1497 
L 313 2009 
z
" transform="scale(0.015625)"/>
       <path id="DejaVuSans-44" d="M 1259 4147 
L 1259 519 
L 2022 519 
Q 2988 519 3436 956 
Q 3884 1394 3884 2338 
Q 3884 3275 3436 3711 
Q 2988 4147 2022 4147 
L 1259 4147 
z
M 628 4666 
L 1925 4666 
Q 3281 4666 3915 4102 
Q 4550 3538 4550 2338 
Q 4550 1131 3912 565 
Q 3275 0 1925 0 
L 628 0 
L 628 4666 
z
" transform="scale(0.015625)"/>
       <path id="DejaVuSans-4e" d="M 628 4666 
L 1478 4666 
L 3547 763 
L 3547 4666 
L 4159 4666 
L 4159 0 
L 3309 0 
L 1241 3903 
L 1241 0 
L 628 0 
L 628 4666 
z
" transform="scale(0.015625)"/>
      </defs>
      <use xlink:href="#DejaVuSans-63"/>
      <use xlink:href="#DejaVuSans-65" x="54.980469"/>
      <use xlink:href="#DejaVuSans-6c" x="116.503906"/>
      <use xlink:href="#DejaVuSans-6c" x="144.287109"/>
      <use xlink:href="#DejaVuSans-30" x="172.070312"/>
      <use xlink:href="#DejaVuSans-2d" x="235.693359"/>
      <use xlink:href="#DejaVuSans-44" x="271.777344"/>
      <use xlink:href="#DejaVuSans-4e" x="348.779297"/>
      <use xlink:href="#DejaVuSans-4e" x="423.583984"/>
     </g>
    </g>
    <g id="patch_63">
     <path d="M 1105.484375 373.055625 
L 1145.484375 373.055625 
L 1145.484375 359.055625 
L 1105.484375 359.055625 
z
" style="fill: #d76364"/>
    </g>
    <g id="text_19">
     <!-- cell1-DNN -->
     <g transform="translate(1161.484375 373.055625) scale(0.2 -0.2)">
      <use xlink:href="#DejaVuSans-63"/>
      <use xlink:href="#DejaVuSans-65" x="54.980469"/>
      <use xlink:href="#DejaVuSans-6c" x="116.503906"/>
      <use xlink:href="#DejaVuSans-6c" x="144.287109"/>
      <use xlink:href="#DejaVuSans-31" x="172.070312"/>
      <use xlink:href="#DejaVuSans-2d" x="235.693359"/>
      <use xlink:href="#DejaVuSans-44" x="271.777344"/>
      <use xlink:href="#DejaVuSans-4e" x="348.779297"/>
      <use xlink:href="#DejaVuSans-4e" x="423.583984"/>
     </g>
    </g>
    <g id="patch_64">
     <path d="M 1105.484375 402.411875 
L 1145.484375 402.411875 
L 1145.484375 388.411875 
L 1105.484375 388.411875 
z
" style="fill: #ef7a6d"/>
    </g>
    <g id="text_20">
     <!-- cell2-DNN -->
     <g transform="translate(1161.484375 402.411875) scale(0.2 -0.2)">
      <use xlink:href="#DejaVuSans-63"/>
      <use xlink:href="#DejaVuSans-65" x="54.980469"/>
      <use xlink:href="#DejaVuSans-6c" x="116.503906"/>
      <use xlink:href="#DejaVuSans-6c" x="144.287109"/>
      <use xlink:href="#DejaVuSans-32" x="172.070312"/>
      <use xlink:href="#DejaVuSans-2d" x="235.693359"/>
      <use xlink:href="#DejaVuSans-44" x="271.777344"/>
      <use xlink:href="#DejaVuSans-4e" x="348.779297"/>
      <use xlink:href="#DejaVuSans-4e" x="423.583984"/>
     </g>
    </g>
    <g id="patch_65">
     <path d="M 1105.484375 431.768125 
L 1145.484375 431.768125 
L 1145.484375 417.768125 
L 1105.484375 417.768125 
z
" style="fill: #9394e7"/>
    </g>
    <g id="text_21">
     <!-- cell0-Linear -->
     <g transform="translate(1161.484375 431.768125) scale(0.2 -0.2)">
      <use xlink:href="#DejaVuSans-63"/>
      <use xlink:href="#DejaVuSans-65" x="54.980469"/>
      <use xlink:href="#DejaVuSans-6c" x="116.503906"/>
      <use xlink:href="#DejaVuSans-6c" x="144.287109"/>
      <use xlink:href="#DejaVuSans-30" x="172.070312"/>
      <use xlink:href="#DejaVuSans-2d" x="235.693359"/>
      <use xlink:href="#DejaVuSans-4c" x="271.777344"/>
      <use xlink:href="#DejaVuSans-69" x="327.490234"/>
      <use xlink:href="#DejaVuSans-6e" x="355.273438"/>
      <use xlink:href="#DejaVuSans-65" x="418.652344"/>
      <use xlink:href="#DejaVuSans-61" x="480.175781"/>
      <use xlink:href="#DejaVuSans-72" x="541.455078"/>
     </g>
    </g>
    <g id="patch_66">
     <path d="M 1105.484375 461.124375 
L 1145.484375 461.124375 
L 1145.484375 447.124375 
L 1105.484375 447.124375 
z
" style="fill: #5f97d2"/>
    </g>
    <g id="text_22">
     <!-- cell1-Linear -->
     <g transform="translate(1161.484375 461.124375) scale(0.2 -0.2)">
      <use xlink:href="#DejaVuSans-63"/>
      <use xlink:href="#DejaVuSans-65" x="54.980469"/>
      <use xlink:href="#DejaVuSans-6c" x="116.503906"/>
      <use xlink:href="#DejaVuSans-6c" x="144.287109"/>
      <use xlink:href="#DejaVuSans-31" x="172.070312"/>
      <use xlink:href="#DejaVuSans-2d" x="235.693359"/>
      <use xlink:href="#DejaVuSans-4c" x="271.777344"/>
      <use xlink:href="#DejaVuSans-69" x="327.490234"/>
      <use xlink:href="#DejaVuSans-6e" x="355.273438"/>
      <use xlink:href="#DejaVuSans-65" x="418.652344"/>
      <use xlink:href="#DejaVuSans-61" x="480.175781"/>
      <use xlink:href="#DejaVuSans-72" x="541.455078"/>
     </g>
    </g>
    <g id="patch_67">
     <path d="M 1105.484375 490.480625 
L 1145.484375 490.480625 
L 1145.484375 476.480625 
L 1105.484375 476.480625 
z
" style="fill: #9dc3e7"/>
    </g>
    <g id="text_23">
     <!-- cell2-Linear -->
     <g transform="translate(1161.484375 490.480625) scale(0.2 -0.2)">
      <use xlink:href="#DejaVuSans-63"/>
      <use xlink:href="#DejaVuSans-65" x="54.980469"/>
      <use xlink:href="#DejaVuSans-6c" x="116.503906"/>
      <use xlink:href="#DejaVuSans-6c" x="144.287109"/>
      <use xlink:href="#DejaVuSans-32" x="172.070312"/>
      <use xlink:href="#DejaVuSans-2d" x="235.693359"/>
      <use xlink:href="#DejaVuSans-4c" x="271.777344"/>
      <use xlink:href="#DejaVuSans-69" x="327.490234"/>
      <use xlink:href="#DejaVuSans-6e" x="355.273438"/>
      <use xlink:href="#DejaVuSans-65" x="418.652344"/>
      <use xlink:href="#DejaVuSans-61" x="480.175781"/>
      <use xlink:href="#DejaVuSans-72" x="541.455078"/>
     </g>
    </g>
   </g>
  </g>
 </g>
 <defs>
  <clipPath id="p49d303030d">
   <rect x="180" y="69.12" width="1116" height="443.52"/>
  </clipPath>
 </defs>
</svg>
